<?xml version="1.0" standalone="no"?>
<!DOCTYPE svg PUBLIC "-//W3C//DTD SVG 1.1//EN" "http://www.w3.org/Graphics/SVG/1.1/DTD/svg11.dtd" >
<svg xmlns="http://www.w3.org/2000/svg">
<metadata></metadata>
<defs>
<font id="dashiconsregular" horiz-adv-x="2000" >
<font-face units-per-em="2000" ascent="2000" descent="0" />
<missing-glyph horiz-adv-x="500" />
<glyph unicode="&#x2000;" horiz-adv-x="1000" />
<glyph unicode="&#x2001;" />
<glyph unicode="&#x2002;" horiz-adv-x="1000" />
<glyph unicode="&#x2003;" />
<glyph unicode="&#x2004;" horiz-adv-x="666" />
<glyph unicode="&#x2005;" horiz-adv-x="500" />
<glyph unicode="&#x2006;" horiz-adv-x="333" />
<glyph unicode="&#x2007;" horiz-adv-x="333" />
<glyph unicode="&#x2008;" horiz-adv-x="250" />
<glyph unicode="&#x2009;" horiz-adv-x="400" />
<glyph unicode="&#x200a;" horiz-adv-x="111" />
<glyph unicode="&#x202f;" horiz-adv-x="400" />
<glyph unicode="&#x205f;" horiz-adv-x="500" />
<glyph unicode="&#x25fc;" horiz-adv-x="500" d="M0 0z" />
<glyph unicode="&#xf100;" d="M100.5 381q3.5 -52 39.5 -88t88 -39.5t108.5 20.5t113 63.5t108.5 91.5q34 34 85 102q13 17 51 72t64 88.5t54 60.5q29 29 70.5 29t70.5 -29l106 -106q29 -29 70.5 -29t70.5 29l177 177l-707 707l-177 -177q-29 -29 -29 -70.5t29 -70.5l106 -106q29 -29 29 -71t-29 -71 q-27 -27 -61.5 -54t-86 -63t-73.5 -52q-66 -49 -101 -84q-52 -52 -92 -108.5t-64 -113t-20.5 -108.5zM741 1601l150 150q25 28 85 34.5t134 -11t132 -55.5q45 -30 126.5 -97t164.5 -113q43 -24 73 -38t76.5 -30.5t87.5 -23t95.5 -6t112.5 12.5l-530 -530z" />
<glyph unicode="&#xf101;" d="M300 900v700q0 82 59 141t141 59h900q82 0 141 -59t59 -141v-700q0 -82 -59 -141t-141 -59h-200l-500 -500v500h-200q-82 0 -141 59t-59 141z" />
<glyph unicode="&#xf102;" d="M247 997l753 753l400 -400v200h200v-400l153 -153l-106 -106l-647 647l-647 -647zM400 200v597l600 599l600 -599v-597h-1200zM800 300h400v500h-400v-500z" />
<glyph unicode="&#xf103;" d="M200 581q0 179 126 305l153 152q82 82 195 110.5t219 -0.5l-414 -415q-64 -63 -64 -152t64 -153q63 -63 152 -63t152 63l414 415q30 -106 1.5 -219t-110.5 -195l-152 -153q-127 -126 -305 -126t-305 126q-126 126 -126 305zM676 733q0 -45 31 -76q34 -32 78 -31t74 31 l534 534q31 31 31 76t-31 76q-34 32 -78 31t-75 -31l-533 -534q-31 -31 -31 -76zM901.5 1376q28.5 113 110.5 195l152 153q127 126 305.5 126t304.5 -126q126 -127 126 -305t-126 -305l-153 -152q-82 -82 -195 -110.5t-219 1.5l262 261l76 77l76 76q63 63 63 152t-63 152 q-63 64 -152 64t-152 -64l-77 -76l-338 -338q-29 106 -0.5 219z" />
<glyph unicode="&#xf104;" d="M100 900q0 -41 29.5 -70.5t70.5 -29.5h1000q41 0 70.5 29.5t29.5 70.5v700q0 41 -29.5 70.5t-70.5 29.5h-167l-133 200h-400l-133 -200h-167q-41 0 -70.5 -29.5t-29.5 -70.5v-700zM450 1300q0 104 73 177t177 73t177 -73t73 -177t-73 -177t-177 -73t-177 73t-73 177z M700 350q0 104 73 177t177 73q23 0 50 -5v105h200v-350q0 -104 -73 -177t-177 -73t-177 73t-73 177zM1400 350q0 104 73 177t177 73q23 0 50 -5v505h-300v300h500v-1050q0 -104 -73 -177t-177 -73t-177 73t-73 177z" />
<glyph unicode="&#xf105;" d="M300 200v1300h200v-1100h800v-200h-1000zM600 500v1300h1000v-1300h-1000z" />
<glyph unicode="&#xf106;" d="M234 379.5q0 62.5 44 106.5l124 124v388q0 96 30.5 218t78.5 171l91 112l901 -901l-119 -84q-50 -50 -167.5 -83t-214.5 -33h-388l-124 -124q-44 -44 -106 -44t-106 44q-44 43 -44 105.5zM800 1427l324 324q26 26 72 16.5t84 -48.5q39 -38 48 -83.5t-17 -71.5l-324 -324z M1237 990l324 324q25 26 71 17t84 -48q39 -38 48 -83.5t-17 -71.5l-324 -325z" />
<glyph unicode="&#xf107;" d="M200 451q0 105 74 178l652 542q-52 122 -26 259t125 236q94 94 224 122t248 -16l-289 -289l282 -282l286 287q41 -117 13 -244.5t-121 -220.5q-99 -99 -236 -125t-259 26l-541 -652q-74 -74 -179 -74t-179 74t-74 179zM352 451q0 -42 29 -72q30 -29 72 -29t71 29 q30 30 30 72t-30 71q-29 30 -71 30t-72 -30q-29 -29 -29 -71z" />
<glyph unicode="&#xf108;" d="M300 400q0 -41 29.5 -70.5t70.5 -29.5h1300q41 0 70.5 29.5t29.5 70.5v1200q0 41 -29.5 70.5t-70.5 29.5h-1300q-41 0 -70.5 -29.5t-29.5 -70.5v-1200zM500 800q0 41 29.5 70.5t70.5 29.5h100v550q0 21 14.5 35.5t35.5 14.5t35.5 -14.5t14.5 -35.5v-550h100 q41 0 70.5 -29.5t29.5 -70.5t-29.5 -70.5t-70.5 -29.5h-100v-150q0 -21 -14.5 -35.5t-35.5 -14.5t-35.5 14.5t-14.5 35.5v150h-100q-41 0 -70.5 29.5t-29.5 70.5zM1100 1200q0 41 29.5 70.5t70.5 29.5h100v150q0 21 14.5 35.5t35.5 14.5t35.5 -14.5t14.5 -35.5v-150h100 q41 0 70.5 -29.5t29.5 -70.5t-29.5 -70.5t-70.5 -29.5h-100v-550q0 -21 -14.5 -35.5t-35.5 -14.5t-35.5 14.5t-14.5 35.5v550h-100q-41 0 -70.5 29.5t-29.5 70.5z" />
<glyph unicode="&#xf109;" d="M144 162q-27 27 74 177.5t154 203.5l279 279l-241 242l183 182q78 -52 175 -42.5t165 78.5l75 75q69 68 78.5 165t-42.5 176l182 182l636 -635l-183 -182q-78 52 -175 42.5t-166 -78.5l-75 -75q-68 -69 -77.5 -165.5t42.5 -175.5l-183 -182l-241 241l-280 -279 q-54 -54 -203.5 -155t-176.5 -74z" />
<glyph unicode="&#xf110;" d="M276 313v249q0 112 58 215t162.5 168t226.5 65l277 -177l272 182q116 0 221.5 -67t168 -172t62.5 -214v-249q-15 -5 -41.5 -12.5t-109 -27t-164.5 -34.5t-195 -27t-214 -12q-102 0 -214.5 11.5t-199.5 28t-159.5 33.5t-111.5 29zM724 1527.5q3 53.5 24.5 103t53 87 t82.5 60t113 22.5q103 0 171 -59t91 -144t9 -178q-1 -7 -3 -19.5t-10.5 -48t-20.5 -68t-33.5 -72.5t-48 -68.5t-66.5 -48t-86 -19.5t-86.5 19t-67.5 49.5t-49 67t-34.5 73t-21 67t-11.5 49.5l-3 19q-6 55 -3 108.5z" />
<glyph unicode="&#xf111;" d="M100 800v297h217q23 101 80 194l-154 154l210 210l154 -154q85 54 193 81v218h300v-218q103 -24 191 -79l154 154l212 -212l-154 -154q57 -93 80 -194h217v-297h-218q-26 -107 -81 -193l154 -154l-210 -210l-154 154q-88 -55 -191 -79v-218h-300v218q-103 24 -191 79 l-154 -154l-212 212l154 154q-55 88 -79 191h-218zM650 950q0 -124 88 -212t212 -88t212 88t88 212t-88 212t-212 88t-212 -88t-88 -212z" />
<glyph unicode="&#xf112;" d="M100 400l795 769q-71 139 -46.5 298.5t139.5 274.5q96 96 225 130.5t257.5 0t224.5 -130.5t130.5 -225t0 -257.5t-130.5 -224.5q-112 -112 -267.5 -138.5t-291.5 37.5l-187 -331l-299 -31l-150 -372h-300zM1311 1497q0 -55 39 -94.5t94 -39.5t94 39t39 95q0 55 -39 94 t-94 39t-94 -39t-39 -94z" />
<glyph unicode="&#xf113;" d="M100 1100h208q24 168 121 305t247.5 216t323.5 79q154 0 290.5 -63t234.5 -175l-171 -195q-62 82 -155 130t-199 48q-157 0 -277.5 -98t-154.5 -247h232l-350 -400zM475 534l171 195q62 -82 155 -130t199 -48q157 0 277.5 98t154.5 247h-232l350 400l350 -400h-208 q-18 -126 -79.5 -236.5t-152.5 -190.5t-210.5 -126.5t-249.5 -46.5q-155 0 -291 63t-234 175z" />
<glyph unicode="&#xf115;" d="M200 600q0 -41 29.5 -70.5t70.5 -29.5h1400q41 0 70.5 29.5t29.5 70.5v1000q0 41 -29.5 70.5t-70.5 29.5h-1400q-41 0 -70.5 -29.5t-29.5 -70.5v-1000zM300 200v100h300v100h800v-100h300v-100h-1400zM400 1100q123 142 277 221t323 79t323 -79t277 -221 q-123 -142 -277 -221t-323 -79t-323 79t-277 221zM800 1100q0 -82 59 -141t141 -59t141 59t59 141t-59 141t-141 59t-141 -59t-59 -141z" />
<glyph unicode="&#xf116;" d="M200 400q0 -41 29.5 -70.5t70.5 -29.5h1500q41 0 70.5 29.5t29.5 70.5v1300q0 41 -29.5 70.5t-70.5 29.5h-1500q-41 0 -70.5 -29.5t-29.5 -70.5v-1300zM400 550q0 21 14.5 35.5t35.5 14.5t35.5 -14.5t14.5 -35.5t-14.5 -35.5t-35.5 -14.5t-35.5 14.5t-14.5 35.5zM400 750 q0 21 14.5 35.5t35.5 14.5t35.5 -14.5t14.5 -35.5t-14.5 -35.5t-35.5 -14.5t-35.5 14.5t-14.5 35.5zM400 950q0 21 14.5 35.5t35.5 14.5t35.5 -14.5t14.5 -35.5t-14.5 -35.5t-35.5 -14.5t-35.5 14.5t-14.5 35.5zM400 1200v400h1300v-400h-1300zM500 1300h300v200h-300v-200z M600 500v100h400v-100h-400zM600 700v100h400v-100h-400zM600 900v100h400v-100h-400zM900 1300h300v200h-300v-200zM1200 500v500h500v-500h-500zM1300 600h300v200h-300v-200zM1300 1300h300v200h-300v-200z" />
<glyph unicode="&#xf117;" d="M300 800v800q0 82 59 141t141 59h1000q82 0 141 -59t59 -141v-800q0 -82 -59 -141t-141 -59h-200l-500 -500v500h-300q-82 0 -141 59t-59 141zM650 950l100 -100l250 250l250 -250l100 100l-250 250l250 250l-100 100l-250 -250l-250 250l-100 -100l250 -250z" />
<glyph unicode="&#xf118;" d="M0 1400l1000 400l1000 -400l-1000 -400l-746 298l46 -1098h-200l48 1141zM307 793q24 181 136 330l557 -223l557 223q112 -149 136 -330q-52 7 -93 7q-188 0 -347.5 -92.5t-252.5 -248.5q-93 156 -252.5 248.5t-347.5 92.5q-40 0 -93 -7zM900 1450q0 -21 29.5 -35.5 t70.5 -14.5t70.5 14.5t29.5 35.5t-29.5 35.5t-70.5 14.5t-70.5 -14.5t-29.5 -35.5z" />
<glyph unicode="&#xf119;" d="M300 200v1500h1067l180 180q30 29 71.5 29.5t70.5 -29.5l141 -141q29 -29 29 -70.5t-29 -70.5l-430 -431v-967h-1100zM911 961l212 71l537 536l-142 142l-536 -537z" />
<glyph unicode="&#xf120;" d="M0 1000q0 -163 50.5 -315.5t143 -275.5t215.5 -215.5t275.5 -143t315.5 -50.5t315.5 50.5t275.5 143t215.5 215.5t143 275.5t50.5 315.5t-50.5 315.5t-143 275.5t-215.5 215.5t-275.5 143t-315.5 50.5t-315.5 -50.5t-275.5 -143t-215.5 -215.5t-143 -275.5t-50.5 -315.5z M101 1000q0 183 71 349.5t191.5 287t287 191.5t349.5 71t349.5 -71t287 -191.5t191.5 -287t71 -349.5t-71 -349.5t-191.5 -287t-287 -191.5t-349.5 -71t-349.5 71t-287 191.5t-191.5 287t-71 349.5zM203 1000q0 179 65 323l382 -1048q-202 99 -324.5 294.5t-122.5 430.5z M330 1437q110 166 287 263t383 97q154 0 293.5 -55t247.5 -154q-52 7 -98.5 -30.5t-46.5 -111.5q0 -29 11.5 -61.5t22.5 -52.5t37 -61q5 -8 8 -13q50 -87 50 -221q0 -60 -31.5 -172t-63.5 -194l-32 -82l-271 750q21 1 40 5t27 8l8 3q20 2 27.5 29.5t-2.5 53.5t-30 25 q-130 -11 -214 -11q-35 0 -87.5 3l-87.5 5l-36 3q-20 1 -30 -25.5t-2.5 -54t27.5 -28.5l84 -8l112 -304l-162 -525l-305 821l105 8q20 2 27 27.5t-2.5 49t-30.5 22.5q-129 -10 -213 -10q-33 0 -52 1zM794 233l219 637l229 -625q-117 -42 -242 -42q-103 0 -206 30zM1403 303 l261 697q3 7 7 19.5t15 53.5t15.5 82t8 105t-6.5 121q94 -170 94 -381q0 -219 -106.5 -405t-287.5 -292z" />
<glyph unicode="&#xf121;" d="M300 100v1800h1400v-1800h-1400zM600 600h600v100h-600v-100zM600 900h800v100h-800v-100zM600 1200h800v100h-800v-100zM600 1500h800v100h-800v-100z" />
<glyph unicode="&#xf122;" d="M85 863q26 -211 139.5 -337t283.5 -126q151 0 248 88q98 88 98 238q0 130 -72 222q-50 63 -136.5 82t-159.5 3q-25 143 78 303.5t264 241.5l-163 228q-98 -47 -188.5 -114t-169.5 -157t-133.5 -192.5t-79.5 -227t-9 -252.5zM1028 863q26 -211 139.5 -337t283.5 -126 q151 0 248 88q98 88 98 238q0 130 -72 222q-50 63 -136.5 82t-159.5 3q-25 143 78 303.5t264 241.5l-163 228q-98 -47 -188.5 -114t-169.5 -157t-133.5 -192.5t-79.5 -227t-9 -252.5z" />
<glyph unicode="&#xf123;" d="M100 100v1800h1800v-1200l-600 -600h-1200zM400 700h600v100h-600v-100zM400 1100h1200v100h-1200v-100zM400 1500h1200v100h-1200v-100zM1200 300l500 500h-500v-500z" />
<glyph unicode="&#xf125;" d="M100 1200v500q0 82 59 141t141 59h600q82 0 141 -59t59 -141v-300h-82q-81 0 -149.5 -71t-68.5 -145v-184l-300 -300v300h-200q-82 0 -141 59t-59 141zM900 600v500q0 82 59 141t141 59h600q82 0 141 -59t59 -141v-500q0 -82 -59 -141t-141 -59h-200v-300l-300 300h-100 q-82 0 -141 59t-59 141z" />
<glyph unicode="&#xf126;" d="M100 202v1598q0 41 29.5 70.5t70.5 29.5h1600q41 0 70.5 -29.5t29.5 -70.5v-1600zM300 400h1400v1000h-1400v-1000zM400 1500h100l200 300h-100zM700 1500h100l200 300h-100zM800 500v800l600 -400zM1000 1500h100l200 300h-100zM1300 1500h100l200 300h-100z" />
<glyph unicode="&#xf127;" d="M100 450q0 145 102.5 247.5t247.5 102.5q73 0 150 -35v827q0 40 28 66.5t71 33.5l1102 200q40 6 69.5 -25.5t29.5 -74.5v-200v-1042q0 -145 -102.5 -247.5t-247.5 -102.5t-247.5 102.5t-102.5 247.5t102.5 247.5t247.5 102.5q73 0 150 -35v627l-900 -200v-892 q-18 -128 -118 -214t-232 -86q-145 0 -247.5 102.5t-102.5 247.5z" />
<glyph unicode="&#xf128;" d="M100 225v1550q0 52 36.5 88.5t88.5 36.5h1550q52 0 88.5 -36.5t36.5 -88.5v-1550q0 -52 -36.5 -88.5t-88.5 -36.5h-1550q-52 0 -88.5 36.5t-36.5 88.5zM300 300h1400v1400h-1400v-1400zM400 500v700q41 0 79.5 -22t67.5 -57.5t55 -78t43.5 -85t30 -78t18.5 -57.5l6 -22 q4 12 12 32.5t36 72t60 91t84 72t108 32.5t107.5 -20.5t85 -50t59 -59t36.5 -50.5l12 -20q0 8 0.5 21t3 54t7.5 81t15.5 94t25 100.5t37.5 93.5t52 80.5t70 54.5t89 21v-1000q0 -41 -29.5 -70.5t-70.5 -29.5h-1000q-41 0 -70.5 29.5t-29.5 70.5zM600 1400q0 -82 59 -141 t141 -59t141 59t59 141t-59 141t-141 59t-141 -59t-59 -141z" />
<glyph unicode="&#xf129;" d="M100 313v1181q0 44 31 75t75 31h294l300 200h400l300 -200h294q44 0 75 -31t31 -75v-1181q0 -45 -31 -79t-75 -34h-1588q-44 0 -75 34t-31 79zM600 900q0 -166 117 -283t283 -117t283 117t117 283t-117 283t-283 117t-283 -117t-117 -283z" />
<glyph unicode="&#xf130;" d="M100 1250q0 113 26 206t90 177.5t164.5 142t257.5 91t362 33.5t362 -33.5t257.5 -91t164.5 -142t90 -177.5t26 -206t-26 -206t-90 -177.5t-164.5 -142t-257.5 -91t-362 -33.5t-362 33.5t-257.5 91t-164.5 142t-90 177.5t-26 206zM200 250q0 41 29.5 70.5t70.5 29.5 t70.5 -29.5t29.5 -70.5t-29.5 -70.5t-70.5 -29.5t-70.5 29.5t-29.5 70.5zM400 1250q0 -62 44 -106t106 -44t106 44t44 106t-44 106t-106 44t-106 -44t-44 -106zM450 400q0 62 44 106t106 44t106 -44t44 -106t-44 -106t-106 -44t-106 44t-44 106zM850 1250q0 -62 44 -106 t106 -44t106 44t44 106t-44 106t-106 44t-106 -44t-44 -106zM1300 1250q0 -62 44 -106t106 -44t106 44t44 106t-44 106t-106 44t-106 -44t-44 -106z" />
<glyph unicode="&#xf132;" d="M400 1000v300h500v500h300v-500h500v-300h-500v-500h-300v500h-500z" />
<glyph unicode="&#xf133;" d="M300 200h1100v900h100v200h200v300h-200v200h-300v-100h-900v-1500zM1100 1400v100h200v200h100v-200h200v-100h-200v-200h-100v200h-200z" />
<glyph unicode="&#xf134;" d="M0 300v1400h2000v-1400h-2000zM100 500h1800v200h-1800v-200zM100 900h300v200h-300v-200zM100 1300h1800v200h-1800v-200zM500 800h1000v400h-1000v-400zM1600 900h300v200h-300v-200z" />
<glyph unicode="&#xf135;" d="M0 280v1400h2000v-1400h-2000zM100 480h1800v200h-1800v-200zM100 780h1000v400h-1000v-400zM100 1280h1800v200h-1800v-200zM1200 880h700v200h-700v-200z" />
<glyph unicode="&#xf136;" d="M0 280v1400h2000v-1400h-2000zM100 480h1800v200h-1800v-200zM100 880h700v200h-700v-200zM100 1280h1800v200h-1800v-200zM900 780h1000v400h-1000v-400z" />
<glyph unicode="&#xf138;" d="M0 280v1400h2000v-1400h-2000zM500 780h1000v400h-1000v-400z" />
<glyph unicode="&#xf139;" d="M800 600v800l600 -403z" />
<glyph unicode="&#xf140;" d="M700 1200h800l-403 -600z" />
<glyph unicode="&#xf141;" d="M700 1003l600 397v-800z" />
<glyph unicode="&#xf142;" d="M700 700l403 600l397 -600h-800z" />
<glyph unicode="&#xf143;" d="M700 700l403 600l397 -600h-800z" />
<glyph unicode="&#xf145;" d="M200 200v1400h300v100q0 62 44 106t106 44t106 -44t44 -106v-100h400v100q0 62 44 106t106 44t106 -44t44 -106v-100h300v-1400h-1600zM300 300h1400v900h-1400v-900zM500 400h200v700h-200v-700zM600 1450q0 -21 14.5 -35.5t35.5 -14.5t35.5 14.5t14.5 35.5v250 q0 21 -14.5 35.5t-35.5 14.5t-35.5 -14.5t-14.5 -35.5v-250zM900 400h200v700h-200v-700zM1300 400h200v700h-200v-700zM1300 1450q0 -21 14.5 -35.5t35.5 -14.5t35.5 14.5t14.5 35.5v250q0 21 -14.5 35.5t-35.5 14.5t-35.5 -14.5t-14.5 -35.5v-250z" />
<glyph unicode="&#xf147;" d="M600 1012l134 125l235 -187l470 500l134 -94l-537 -745h-134z" />
<glyph unicode="&#xf148;" d="M216 1000q0 213 106 393.5t286.5 285.5t391.5 105q160 0 305 -62t250 -167t167 -250t62 -305t-62 -305t-167 -250t-250 -167t-305 -62t-305 62t-250 167t-167 250t-62 305zM618 1003l582 -391v776z" />
<glyph unicode="&#xf153;" d="M200 1000q0 163 63.5 311t170.5 255t255 170.5t311 63.5t311 -63.5t255 -170.5t170.5 -255t63.5 -311t-63.5 -311t-170.5 -255t-255 -170.5t-311 -63.5t-311 63.5t-255 170.5t-170.5 255t-63.5 311zM500 700l200 -200l300 300l300 -300l200 200l-300 300l300 300 l-200 200l-300 -300l-300 300l-200 -200l300 -300z" />
<glyph unicode="&#xf154;" d="M100 1225l413 -462l-113 -663l600 300l600 -300l-112 663l412 462l-600 75l-300 600l-300 -600zM301 1149l465 58l234 469l234 -469l465 -58l-318 -356l87 -515l-468 234l-468 -234l87 515z" />
<glyph unicode="&#xf155;" d="M100 1225l600 75l300 600l300 -600l600 -75l-412 -462l112 -663l-600 300l-600 -300l113 663z" />
<glyph unicode="&#xf156;" d="M100 1300l500 -700l500 700h-1000zM900 600h1000l-500 700z" />
<glyph unicode="&#xf157;" d="M200 100v1500h954q9 145 99 222.5t223 77.5q134 0 229 -95.5t95 -229.5t-95 -229t-229 -95q-33 0 -70 8l-106 -106v-1053h-1100zM807 901q3 -4 10 -4q32 0 120.5 61.5t118.5 91.5l324 324q48 -23 96 -23q93 0 158.5 66t65.5 158q0 93 -65.5 159t-158.5 66t-158.5 -66 t-65.5 -159q0 -54 27 -103l-322 -322q-35 -35 -101.5 -133t-48.5 -116z" />
<glyph unicode="&#xf158;" d="M424 664l364 343l-342 364l218 206l343 -364l364 342l205 -218l-364 -343l343 -364l-219 -206l-342 365l-364 -343z" />
<glyph unicode="&#xf159;" d="M200 1000q0 163 63.5 311t170.5 255t255 170.5t311 63.5t311 -63.5t255 -170.5t170.5 -255t63.5 -311t-63.5 -311t-170.5 -255t-255 -170.5t-311 -63.5t-311 63.5t-255 170.5t-170.5 255t-63.5 311zM500 1000q0 -136 67 -251t182 -182t251 -67t251 67t182 182t67 251 t-67 251t-182 182t-251 67t-251 -67t-182 -182t-67 -251z" />
<glyph unicode="&#xf160;" d="M400 300v700q0 41 29.5 70.5t70.5 29.5h100v300q0 166 117 283t283 117t283 -117t117 -283v-300h100q41 0 70.5 -29.5t29.5 -70.5v-700q0 -41 -29.5 -70.5t-70.5 -29.5h-1000q-41 0 -70.5 29.5t-29.5 70.5zM800 1100h400v300q0 82 -59 141t-141 59t-141 -59t-59 -141 v-300zM850 750q0 -44 23.5 -80.5t62.5 -54.5l-36 -215h200l-36 215q39 18 62.5 54.5t23.5 80.5q0 62 -44 106t-106 44t-106 -44t-44 -106z" />
<glyph unicode="&#xf161;" d="M100 504v1292q0 43 30.5 73.5t73.5 30.5h1292q43 0 73.5 -30.5t30.5 -73.5v-196h196q43 0 73.5 -30.5t30.5 -73.5v-1292q0 -43 -30.5 -73.5t-73.5 -30.5h-1292q-43 0 -73.5 30.5t-30.5 73.5v196h-196q-43 0 -73.5 30.5t-30.5 73.5zM300 600h1100v1100h-1100v-1100z M400 700v600q56 0 97 -31t60 -75t30 -88t12 -75l1 -31q1 4 2.5 11.5t8 28t15.5 39.5t25.5 42t36 39.5t49 28t63.5 11.5q47 0 84.5 -20.5t58 -50t34.5 -59t19 -50.5l4 -20q2 10 6 28t18.5 70t30.5 99.5t43 105t55.5 99t67 70t79.5 28.5v-800h-900zM500 1450q0 -62 44 -106 t106 -44t106 44t44 106t-44 106t-106 44t-106 -44t-44 -106zM600 300h1100v1100h-100v-896q0 -43 -30.5 -73.5t-73.5 -30.5h-896v-100z" />
<glyph unicode="&#xf163;" d="M100 200q0 -41 29.5 -70.5t70.5 -29.5h1600q41 0 70.5 29.5t29.5 70.5v1600q0 41 -29.5 70.5t-70.5 29.5h-1600q-41 0 -70.5 -29.5t-29.5 -70.5v-1600zM300 400q0 41 29.5 70.5t70.5 29.5t70.5 -29.5t29.5 -70.5t-29.5 -70.5t-70.5 -29.5t-70.5 29.5t-29.5 70.5zM300 800 q0 41 29.5 70.5t70.5 29.5t70.5 -29.5t29.5 -70.5t-29.5 -70.5t-70.5 -29.5t-70.5 29.5t-29.5 70.5zM300 1200q0 41 29.5 70.5t70.5 29.5t70.5 -29.5t29.5 -70.5t-29.5 -70.5t-70.5 -29.5t-70.5 29.5t-29.5 70.5zM300 1600q0 41 29.5 70.5t70.5 29.5t70.5 -29.5t29.5 -70.5 t-29.5 -70.5t-70.5 -29.5t-70.5 29.5t-29.5 70.5zM600 300v200h1100v-200h-1100zM600 700v200h1100v-200h-1100zM600 1100v200h1100v-200h-1100zM600 1500v200h1100v-200h-1100z" />
<glyph unicode="&#xf164;" d="M100 200q0 -41 29.5 -70.5t70.5 -29.5h1600q41 0 70.5 29.5t29.5 70.5v1600q0 41 -29.5 70.5t-70.5 29.5h-1600q-41 0 -70.5 -29.5t-29.5 -70.5v-1600zM300 800q0 41 29.5 70.5t70.5 29.5t70.5 -29.5t29.5 -70.5t-29.5 -70.5t-70.5 -29.5t-70.5 29.5t-29.5 70.5z M300 1600q0 41 29.5 70.5t70.5 29.5t70.5 -29.5t29.5 -70.5t-29.5 -70.5t-70.5 -29.5t-70.5 29.5t-29.5 70.5zM600 300v600h1100v-600h-1100zM600 1100v600h1100v-600h-1100z" />
<glyph unicode="&#xf165;" d="M0 1300v300h400v400h300v-400h700l300 300l100 -100l-300 -300v-700h400v-300h-400v-400h-300v400h-800v800h-400zM700 900l400 400h-400v-400zM800 800h400v400z" />
<glyph unicode="&#xf166;" d="M100 0v1000h900v900h1000v-1400h-500v-500h-1400zM118 1500l262 -339l320 339h-195q0 137 71.5 213.5t223.5 76.5v210q-232 0 -368 -139.5t-136 -360.5h-178zM300 200h1000v600h-1000v-600zM1200 1000h300v-300h300v1000h-600v-700z" />
<glyph unicode="&#xf167;" d="M100 500v1400h1000v-900h900v-1000h-1400v500h-500zM300 700h300v300h300v700h-600v-1000zM800 200h1000v600h-1000v-600zM1300 1790q152 0 223.5 -76.5t71.5 -213.5h-195l320 -339l262 339h-178q0 221 -136 360.5t-368 139.5v-210z" />
<glyph unicode="&#xf168;" d="M0 900v200h300v800h1400v-800h300v-200h-300v-800h-1400v800h-300zM300 950h1400v100h-1400v-100zM650 700l350 -400l350 400h-700zM650 1300h700l-350 400z" />
<glyph unicode="&#xf169;" d="M100 300v1400h800v300h200v-300h800v-1400h-800v-300h-200v300h-800zM300 1000l400 -350v700zM950 300h100v1400h-100v-1400zM1300 650l400 350l-400 350v-700z" />
<glyph unicode="&#xf171;" d="M200 1450l600 450v-298q204 0 390 -79q182 -77 318 -215q138 -136 215 -318q79 -186 79 -390t-79 -390l-278 117q55 132 55 273q0 142 -55 272q-52 125 -150 223q-97 97 -222 150q-132 55 -273 55v-300z" />
<glyph unicode="&#xf172;" d="M198 600q0 204 79 390q77 182 215 318q136 138 318 215q186 79 390 79v298l600 -450l-600 -450v300q-141 0 -273 -55q-124 -53 -222 -150q-98 -98 -150 -223q-55 -130 -55 -272q0 -141 55 -273l-278 -117q-79 186 -79 390z" />
<glyph unicode="&#xf173;" d="M600 1400q0 166 117 283t283 117t283 -117t117 -283q0 -138 -84.5 -245t-215.5 -141v-614q0 -44 -50 -94t-100 -78l-50 -28v814q-131 34 -215.5 141t-84.5 245zM800 1500q0 -41 29.5 -70.5t70.5 -29.5t70.5 29.5t29.5 70.5t-29.5 70.5t-70.5 29.5t-70.5 -29.5 t-29.5 -70.5z" />
<glyph unicode="&#xf174;" d="M100 1700q0 41 29.5 70.5t70.5 29.5h300q41 0 70.5 -29.5t29.5 -70.5v-200h1300l-400 -700h-900v-100h900q41 0 70.5 -29.5t29.5 -70.5t-29.5 -70.5t-70.5 -29.5h-1000q-41 0 -70.5 29.5t-29.5 70.5v1000h-200q-41 0 -70.5 29.5t-29.5 70.5zM400 250q0 62 44 106t106 44 t106 -44t44 -106t-44 -106t-106 -44t-106 44t-44 106zM1300 250q0 62 44 106t106 44t106 -44t44 -106t-44 -106t-106 -44t-106 44t-44 106z" />
<glyph unicode="&#xf175;" d="M100 300v1400q0 41 29.5 70.5t70.5 29.5h1600q41 0 70.5 -29.5t29.5 -70.5v-1400q0 -41 -29.5 -70.5t-70.5 -29.5h-1600q-41 0 -70.5 29.5t-29.5 70.5zM300 400h1400v900h-1400v-900zM400 700h300v100h-300v-100zM400 1100h300v100h-300v-100zM800 500h800v300h-800v-300 zM800 900h800v300h-800v-300z" />
<glyph unicode="&#xf176;" d="M100 650q0 133 88 231t218 115q-6 26 -6 54q0 104 73 177t177 73q49 0 95 -19q50 99 145.5 159t209.5 60q166 0 283 -117t117 -283q0 -48 -15 -103q133 -14 224 -113t91 -234q0 -145 -102.5 -247.5t-247.5 -102.5h-1000q-145 0 -247.5 102.5t-102.5 247.5z" />
<glyph unicode="&#xf177;" d="M200 1000q6 10 18 28t53 70t86.5 99.5t117.5 105t147.5 99t175.5 70t202 28.5t201.5 -27.5t176.5 -71.5t146.5 -97.5t118.5 -107t85.5 -97.5t53.5 -71l18 -28q-6 -10 -18 -28t-53 -70t-86.5 -99.5t-117.5 -105t-147.5 -99t-175.5 -70t-202 -28.5t-201.5 27.5t-176.5 71.5 t-146.5 97.5t-118.5 107t-85.5 97.5t-53.5 71zM400 1000q5 -8 14 -22.5t39.5 -56t64.5 -79.5t88 -84t111 -79t131.5 -56t151.5 -23t151 22t132 57.5t110 78t89 85t64.5 78t40.5 57.5l13 22q-5 8 -14 22.5t-39.5 56t-64.5 79.5t-88 84t-111 79t-131.5 56t-151.5 23t-151 -22 t-132 -57.5t-110 -78t-89 -85t-64.5 -78t-40.5 -57.5zM700 1000q0 -124 88 -212t212 -88t212 88t88 212t-88 212t-212 88t-212 -88t-88 -212z" />
<glyph unicode="&#xf178;" d="M200 300q0 -41 29.5 -70.5t70.5 -29.5h1400q41 0 70.5 29.5t29.5 70.5v1400q0 41 -29.5 70.5t-70.5 29.5h-1400q-41 0 -70.5 -29.5t-29.5 -70.5v-1400zM300 300v1400h1400v-1400h-1400zM400 475v1050q0 31 22 53t53 22h1050q31 0 53 -22t22 -53v-125h-100v-300h100v-200 h-100v-300h100v-125q0 -31 -22 -53t-53 -22h-1050q-31 0 -53 22t-22 53zM500 1000q0 -166 117 -283t283 -117t283 117t117 283t-117 283t-283 117t-283 -117t-117 -283zM700 1000q0 61 34 111t89 74l77 115l77 -115q55 -24 89 -74t34 -111q0 -82 -59 -141t-141 -59t-141 59 t-59 141z" />
<glyph unicode="&#xf179;" d="M276 1193.5q0 228.5 160 388.5q106 106 247.5 143.5t283 0t247.5 -143.5q139 -139 158 -334.5t-86 -354.5q3 -3 15.5 -14t20.5 -17q34 -27 81 -59q62 -43 66 -47q61 -45 94 -78q49 -49 84 -100q36 -50 59 -104q22 -55 18 -100q-3 -48 -36 -81t-81 -36q-49 -3 -99 19 q-52 21 -104 59q-51 35 -100 84q-33 33 -77 93q-2 3 -47 66q-32 46 -56 78q-24 30 -44 50q-154 -83 -334 -57t-310 155q-160 161 -160 389.5zM475 1193.5q0 -144.5 103 -247.5q102 -103 247 -103t248 103q102 103 102 247.5t-102 247.5q-103 103 -248 103t-247 -103 q-103 -103 -103 -247.5z" />
<glyph unicode="&#xf180;" d="M300 300h600v600h-600v-600zM300 1100h600v600h-600v-600zM1100 300h600v600h-600v-600zM1100 1100h600v600h-600v-600z" />
<glyph unicode="&#xf181;" d="M200 700v600h200v-600h-200zM500 600v800h1000v-800h-1000zM600 700h800v600h-800v-600zM700 800h600v200h-600v-200zM700 1100h600v100h-600v-100zM1600 700v600h200v-600h-200z" />
<glyph unicode="&#xf182;" d="M300 1400v100q0 41 29.5 70.5t70.5 29.5h300q17 86 88.5 143t161.5 57t161.5 -57t88.5 -143h300q41 0 70.5 -29.5t29.5 -70.5v-100h-1300zM400 300v1000h1100v-1000q0 -41 -29.5 -70.5t-70.5 -29.5h-900q-41 0 -70.5 29.5t-29.5 70.5zM600 400h100v700h-100v-700z M800 1600h300q-16 43 -58.5 71.5t-91.5 28.5t-91.5 -28.5t-58.5 -71.5zM900 400h100v700h-100v-700zM1200 400h100v700h-100v-700z" />
<glyph unicode="&#xf183;" d="M200 200h1600v1600h-1600v-1600zM400 400v100h1200v-100h-1200zM400 1000q0 124 88 212t212 88v-300h300q0 -124 -88 -212t-212 -88t-212 88t-88 212zM400 1500v100h1200v-100h-1200zM800 1100v200q82 0 141 -59t59 -141h-200zM1200 700v100h400v-100h-400zM1200 900v200 h400v-200h-400zM1200 1200v100h400v-100h-400z" />
<glyph unicode="&#xf184;" d="M200 900q0 143 55.5 272.5t149 223t223 149t272.5 55.5v-700h700q0 -143 -55.5 -272.5t-149 -223t-223 -149t-272.5 -55.5t-272.5 55.5t-223 149t-149 223t-55.5 272.5zM1000 1000v700q143 0 272.5 -55.5t223 -149t149 -223t55.5 -272.5h-700z" />
<glyph unicode="&#xf185;" d="M200 200h400v800h-400v-800zM800 200h400v1100h-400v-1100zM1400 200h400v1600h-400v-1600z" />
<glyph unicode="&#xf200;" d="M600 300h454q207 0 326 100q120 99 120 277q0 126 -51 201q-52 76 -167 103v9q85 15 136 90t51 191q0 172 -117 250q-115 79 -374 79h-378v-1300zM857 528v338h160q216 0 216 -161q0 -91 -51 -134q-50 -43 -157 -43h-168zM857 1085v289h136q109 0 161 -32q51 -33 51 -107 q0 -80 -47 -115t-151 -35h-150z" />
<glyph unicode="&#xf201;" d="M460 300l62 200h214l280 900h-213l62 200h675l-62 -200h-213l-280 -900h212l-62 -200h-675z" />
<glyph unicode="&#xf203;" d="M400 450q0 62 44 106t106 44t106 -44t44 -106t-44 -106t-106 -44t-106 44t-44 106zM400 950q0 62 44 106t106 44t106 -44t44 -106t-44 -106t-106 -44t-106 44t-44 106zM400 1450q0 62 44 106t106 44t106 -44t44 -106t-44 -106t-106 -44t-106 44t-44 106zM800 400v100h900 v-100h-900zM800 900v100h900v-100h-900zM800 1400v100h900v-100h-900z" />
<glyph unicode="&#xf204;" d="M400 304q50 -22 118 -22q80 0 122 33q43 33 43 92q0 40 -26 64q-25 24 -74 30v2q40 9 65 37q23 28 23 65q0 46 -37 71q-37 26 -100 26q-78 0 -133 -40l40 -60q27 18 46 23q20 7 41 7q58 0 58 -46q0 -31 -22 -43t-70 -12h-31v-66h31q51 0 75 -12q23 -12 23 -41 q0 -32 -20 -47q-21 -15 -63 -15q-27 0 -57 8q-25 7 -52 20v-74zM400 1149l45 -54q24 19 45 30q21 10 45 10q23 0 35 -11q13 -12 13 -36q0 -15 -6 -30q-7 -16 -19 -33q-11 -13 -58 -62l-99 -100v-58h276v70h-172v4l51 48q56 52 70 71q21 26 30 49q10 23 10 51q0 33 -16 56 q-14 23 -44 37t-65 14q-29 0 -51 -6q-17 -3 -42 -15q-21 -12 -48 -35zM402 1597l40 -51l46 37q12 10 30 28l-2 -42v-269h84v400h-69zM800 400v100h900v-100h-900zM800 900v100h900v-100h-900zM800 1400v100h900v-100h-900z" />
<glyph unicode="&#xf205;" d="M292 795q22 -180 119.5 -287.5t242.5 -107.5q128 0 212 75q83 74 83 203q0 113 -61 190q-43 53 -117 69.5t-136 2.5q-21 122 66.5 259t225.5 206l-139 195q-106 -51 -199.5 -129t-167.5 -179.5t-110 -231t-19 -265.5zM1098 795q22 -180 119 -287.5t242 -107.5 q128 0 212 75q83 74 83 203q0 113 -61 190q-43 54 -117 70t-136 2q-21 122 66.5 259t225.5 206l-139 195q-106 -51 -199.5 -129t-167 -179.5t-109.5 -231t-19 -265.5z" />
<glyph unicode="&#xf206;" d="M300 300h1400v200h-1400v-200zM300 700h900v200h-900v-200zM300 1100h1400v200h-1400v-200zM300 1500h900v200h-900v-200z" />
<glyph unicode="&#xf207;" d="M300 300h1400v200h-1400v-200zM300 1100h1400v200h-1400v-200zM600 700h800v200h-800v-200zM600 1500h800v200h-800v-200z" />
<glyph unicode="&#xf208;" d="M300 300h1400v200h-1400v-200zM300 1100h1400v200h-1400v-200zM800 700h900v200h-900v-200zM800 1500h900v200h-900v-200z" />
<glyph unicode="&#xf209;" d="M300 300h1400v400h-1400v-400zM300 900h300v200h-300v-200zM300 1300h1400v400h-1400v-400zM800 900h400v200h-400v-200zM1400 900h300v200h-300v-200z" />
<glyph unicode="&#xf210;" d="M200 1200h103l58 166h229l60 -166h104l-224 600h-106zM390 1450l54 156q23 65 32 110l15 -52q8 -26 17 -51l56 -163h-174zM400 700l500 -500l900 800l-100 100l-800 -600l-400 300zM800 1200h217q101 0 157 46q56 44 56 126q0 60 -30 95q-28 35 -93 47v4q50 9 78 44 q28 37 28 88q0 78 -56 114q-54 36 -179 36h-178v-600zM898 1282v191h99q64 0 98 -23q32 -23 32 -69q0 -51 -32 -75q-31 -24 -93 -24h-104zM898 1552v166h85q68 0 97 -19q31 -18 31 -61q0 -46 -29 -66q-28 -20 -89 -20h-95zM1300 1500q0 -149 70 -228t202 -79q88 0 160 26v84 q-32 -10 -74 -19q-38 -8 -74 -8q-89 0 -134 57q-47 54 -47 166q0 105 48 165q49 60 133 60q36 0 71 -11q26 -8 64 -25l35 81q-78 39 -169 39q-86 0 -152 -37q-65 -37 -99 -108q-34 -68 -34 -163z" />
<glyph unicode="&#xf211;" d="M200 300v400l125 -125l375 225l-225 -375l125 -125h-400zM200 1300v400h400l-125 -125l225 -375l-375 225zM700 800v400h600v-400h-600zM1300 800l375 -225l125 125v-400h-400l125 125zM1300 1200l225 375l-125 125h400v-400l-125 125z" />
<glyph unicode="&#xf212;" d="M100 200v900h1800v-900h-1800zM100 1200v600h1800v-600h-1800zM200 300h1600v700h-1600v-700zM200 1300h1600v400h-1600v-400zM300 400v200h800v-200h-800zM300 700v200h200v-200h-200zM300 1400v200h200v-200h-200zM600 700v200h200v-200h-200zM600 1400v200h200v-200 h-200zM900 700v200h200v-200h-200zM900 1400v200h200v-200h-200zM1200 400v200h200v-200h-200zM1200 700v200h500v-200h-500zM1200 1400v200h200v-200h-200zM1500 400v200h200v-200h-200zM1500 1400v200h200v-200h-200z" />
<glyph unicode="&#xf213;" d="M500 200h900v200h-900v-200zM500 913q0 -61 12.5 -120.5t45 -121t82 -108t129 -75.5t179.5 -29t180.5 28.5t130 74t82.5 106.5t46 120.5t13 120.5v591h-200v-571q0 -143 -70 -220.5t-175 -77.5q-106 0 -180.5 78t-74.5 218v573h-200v-587z" />
<glyph unicode="&#xf214;" d="M200 300v200h1600v-200h-1600zM200 700v200h1600v-200h-1600zM200 1100v200h1600v-200h-1600zM200 1500v200h1600v-200h-1600z" />
<glyph unicode="&#xf215;" d="M500 500h188l107 300h418l110 -300h190l-413 1100h-200zM851 954l149 486l170 -486h-319z" />
<glyph unicode="&#xf216;" d="M200 300q0 -41 29.5 -70.5t70.5 -29.5h1400q41 0 70.5 29.5t29.5 70.5v1200q0 41 -29.5 70.5t-70.5 29.5h-154l54 -63v-237h-1200v238l55 62h-155q-41 0 -70.5 -29.5t-29.5 -70.5v-1200zM500 1100h200l100 -500l100 500h200l100 -500l100 500h200l-200 -700h-200 l-100 500l-100 -500h-208zM500 1400v100l264 300h474l262 -300v-100h-1000zM900 1600q0 -41 29.5 -70.5t70.5 -29.5t70.5 29.5t29.5 70.5t-29.5 70.5t-70.5 29.5t-70.5 -29.5t-29.5 -70.5z" />
<glyph unicode="&#xf217;" d="M200 300v1200q0 41 29.5 70.5t70.5 29.5h155l-55 -63v-237h1200v237l-55 63h155q41 0 70.5 -29.5t29.5 -70.5v-1200q0 -42 -29.5 -71t-70.5 -29h-1400q-41 0 -70.5 29t-29.5 71zM500 1400v100l264 300h474l262 -300v-100h-1000zM600 900h300v-500h200v500h300v200h-800 v-200zM900 1600q0 -42 29.5 -71t70.5 -29t70.5 29t29.5 71q0 41 -29.5 70.5t-70.5 29.5t-70.5 -29.5t-29.5 -70.5z" />
<glyph unicode="&#xf218;" d="M300 629v212q0 87 61 148l663 662q60 61 147 61q86 0 147 -61l111 -110l110 -111q61 -60 61 -147v-212q0 -87 -61 -147l-663 -663q-60 -61 -147 -61t-147 61l-111 110l-110 111q-61 60 -61 147zM422 856q0 -42 29 -71l214 -214q29 -29 71.5 -29t71.5 29l642 642 q29 29 29 71t-29 72l-214 214q-29 29 -72 29q-42 0 -71 -29l-642 -642q-29 -30 -29 -72z" />
<glyph unicode="&#xf219;" d="M400 300h300v100h600v-100h300v1500h-300v-100h-600v100h-300v-1500zM500 400v100h100v-100h-100zM500 600v100h100v-100h-100zM500 800v100h100v-100h-100zM500 1000v100h100v-100h-100zM500 1200v100h100v-100h-100zM500 1400v100h100v-100h-100zM500 1600v100h100 v-100h-100zM700 500v500h600v-500h-600zM700 1100v500h600v-500h-600zM1400 400v100h100v-100h-100zM1400 600v100h100v-100h-100zM1400 800v100h100v-100h-100zM1400 1000v100h100v-100h-100zM1400 1200v100h100v-100h-100zM1400 1400v100h100v-100h-100zM1400 1600v100 h100v-100h-100z" />
<glyph unicode="&#xf220;" d="M300 300h600v200q-84 55 -139 105t-85 112q-67 133 -67 322q0 206 100 313q99 108 291 108q190 0 291 -108q100 -108 100 -313q0 -192 -69 -327q-33 -62 -87.5 -111.5t-134.5 -100.5v-200h600v200h-369q146 101 212 234q74 153 74 335q0 267 -165 422q-166 155 -452 155 q-287 0 -452 -157q-165 -156 -165 -420q0 -181 73 -333q62 -130 210 -236h-366v-200z" />
<glyph unicode="&#xf221;" d="M100 1150l400 -350v200h200v300h-200v200zM300 600h400v100h-400v-100zM300 1600h400v100h-400v-100zM800 300h300v200h-300v-200zM800 600h900v200h-900v-200zM800 900h700v200h-700v-200zM800 1200h900v200h-900v-200zM800 1500h900v200h-900v-200z" />
<glyph unicode="&#xf222;" d="M300 600v200h900v-200h-900zM300 1200v200h900v-200h-900zM300 1500v200h900v-200h-900zM500 900v200h700v-200h-700zM900 300v200h300v-200h-300zM1300 600v100h400v-100h-400zM1300 1000v300h200v200l400 -350l-400 -350v200h-200zM1300 1600v100h400v-100h-400z" />
<glyph unicode="&#xf223;" d="M300 1000q0 -143 55.5 -272.5t149 -223t223 -149t272.5 -55.5q190 0 351 93.5t255 255t94 351.5t-94 351.5t-255 255t-351 93.5q-143 0 -272.5 -55.5t-223 -149t-149 -223t-55.5 -272.5zM756 1363q131 74 277 74q120 0 192 -58q71 -58 71 -155q0 -66 -29 -111 q-27 -45 -111 -106q-55 -40 -71 -63q-15 -22 -15 -57v-35h-156v43q0 56 24 98q22 39 88 89q61 43 81 71q20 26 20 62q0 37 -28 58q-28 19 -79 19q-88 0 -200 -57zM896 651q0 50 26 75t77 25q47 0 75 -26q27 -26 27 -74q0 -47 -27 -72q-27 -27 -75 -27t-76 26q-27 26 -27 73z " />
<glyph unicode="&#xf224;" d="M200 700l93 250h-93v100h131l93 249h106l92 -249h178v250h177q115 0 177 -41q55 -36 55 -113q0 -52 -27 -87l-8 -9h129q8 62 31 110q36 71 98 106q64 37 151 37q93 0 169 -38l-35 -81q-26 13 -64 25q-35 11 -71 11q-83 0 -131 -59q-35 -44 -44 -111h293v-100h-295 q9 -77 44 -119q45 -56 133 -56q40 0 74 7q33 7 73 20v-84q-70 -26 -158 -26q-131 0 -201 79q-59 67 -68 179h-94q18 -32 18 -79q0 -80 -55 -126q-57 -45 -156 -45h-215v250h-141l93 -250h-103l-59 167h-228l-58 -167h-104zM391 949h173v1h-173v-1zM426 1050h103l-21 61 q-2 5 -7.5 22t-9.5 29q-12 41 -14 51q-14 -59 -33 -109zM897 782h104q60 0 92 23q31 24 31 74q0 46 -32 69l-3 2h-192v-168zM897 1050h119q39 3 64 18q28 19 28 66q0 42 -30 61q-30 18 -97 18h-84v-163z" />
<glyph unicode="&#xf225;" d="M200 631q0 179 126 305l139 138l235 -74l-69 -64l-152 -153q-64 -63 -64 -152t64 -152q63 -64 152 -64t152 64l153 152l64 69l74 -235l-138 -139q-127 -126 -305 -126t-305 126q-126 126 -126 305zM200 1200v200l800 -400zM200 1600l800 -600l-600 800zM600 1800 l400 -800l-200 800h-200zM935 1514q31 63 77 107l152 153q127 126 305.5 126t304.5 -126q126 -127 126 -305t-126 -305l-153 -152q-45 -46 -108 -77l-213 65l169 164l76 77l76 76q63 63 63 152t-63 152q-63 64 -152 64t-152 -64l-77 -76l-76 -76l-164 -169zM1000 1000 l600 -800l200 200zM1000 1000l200 -800h200zM1000 1000l800 -200v-200z" />
<glyph unicode="&#xf226;" d="M200 900q0 -281 176 -500h1248q176 219 176 500q0 163 -63.5 311t-170.5 255t-255 170.5t-311 63.5t-311 -63.5t-255 -170.5t-170.5 -255t-63.5 -311zM300 900q0 41 29.5 70.5t70.5 29.5t70.5 -29.5t29.5 -70.5t-29.5 -70.5t-70.5 -29.5t-70.5 29.5t-29.5 70.5zM500 1300 q0 41 29.5 70.5t70.5 29.5t70.5 -29.5t29.5 -70.5t-29.5 -70.5t-70.5 -29.5t-70.5 29.5t-29.5 70.5zM800 700q0 85 63 145l337 455v-600q0 -82 -59 -141t-141 -59t-141 59t-59 141zM900 700q0 -41 29.5 -70.5t70.5 -29.5t70.5 29.5t29.5 70.5t-29.5 70.5t-70.5 29.5 t-70.5 -29.5t-29.5 -70.5zM900 1500q0 41 29.5 70.5t70.5 29.5t70.5 -29.5t29.5 -70.5t-29.5 -70.5t-70.5 -29.5t-70.5 29.5t-29.5 70.5zM1300 1300q0 41 29.5 70.5t70.5 29.5t70.5 -29.5t29.5 -70.5t-29.5 -70.5t-70.5 -29.5t-70.5 29.5t-29.5 70.5zM1500 900 q0 41 29.5 70.5t70.5 29.5t70.5 -29.5t29.5 -70.5t-29.5 -70.5t-70.5 -29.5t-70.5 29.5t-29.5 70.5z" />
<glyph unicode="&#xf227;" d="M300 200h200v1500h-200v-1500zM600 800v800q83 28 189 28.5t214.5 -14t220.5 -29t239 -13.5t237 28v-800q-83 -35 -201 -39t-229.5 13t-239 32.5t-229.5 19.5t-201 -26z" />
<glyph unicode="&#xf228;" d="M300 400v200h1400v-200h-1400zM300 900v200h1400v-200h-1400zM300 1400v200h1400v-200h-1400z" />
<glyph unicode="&#xf229;" d="M300 997l600 403v-800zM1100 600v800l600 -403z" />
<glyph unicode="&#xf230;" d="M400 1200q0 -142 70 -266.5t183 -222.5q4 -3 23.5 -19.5t29.5 -25.5t30 -27.5t34.5 -33t33 -35.5t34.5 -42q133 -174 162 -271q29 97 162 271q16 21 34.5 42t33 35.5t34.5 33t30 27.5t29.5 25.5t23.5 19.5q113 98 183 222.5t70 266.5q0 163 -80.5 301t-218.5 218.5 t-301 80.5t-301 -80.5t-218.5 -218.5t-80.5 -301zM656 1200q0 142 101 243t243 101t243 -101t101 -243t-101 -243t-243 -101t-243 101t-101 243z" />
<glyph unicode="&#xf231;" d="M200 203v900l500 200l427 -141l173 -730l172 738l328 133v-900l-488 -203l-612 203zM1050 1500q0 -70 36.5 -128.5t96.5 -91.5l117 -594l117 594q60 33 96.5 91.5t36.5 128.5q0 104 -73 177t-177 73t-177 -73t-73 -177zM1150 1500q0 62 44 106t106 44t106 -44t44 -106 t-44 -106t-106 -44t-106 44t-44 106z" />
<glyph unicode="&#xf232;" d="M200 800v1000h1200v-300h200v-300h200v-1000h-1200v300h-200v300h-200zM300 900h100v500h-100v-500zM500 600h100v500h-100v-500zM700 300h1000v200q-101 0 -185.5 16.5t-144.5 43t-115 58.5l-110 64t-115 58.5t-144.5 43t-185.5 16.5v-500zM900 1500h400 q0 83 -58.5 141.5t-141.5 58.5q-82 0 -141 -59t-59 -141zM1100 1200h400q0 83 -58.5 141.5t-141.5 58.5q-82 0 -141 -59t-59 -141zM1300 900q0 -83 58.5 -141.5t141.5 -58.5t141.5 58.5t58.5 141.5q0 82 -59 141t-141 59t-141 -59t-59 -141z" />
<glyph unicode="&#xf233;" d="M100 200v1100h200v200h200v200h1400v-1100h-200v-200h-200v-200h-1400zM200 300h1200v100h-1100v800h-100v-900zM400 500h1200v100h-1100v800h-100v-900zM600 700h1200v900h-1200v-900zM700 800v600l1000 -600h-1000zM1300 1300q0 82 59 141t141 59t141 -59t59 -141 t-59 -141t-141 -59t-141 59t-59 141z" />
<glyph unicode="&#xf234;" d="M100 1500q0 -42 30.5 -71t69.5 -29h500q41 0 70.5 29.5t29.5 70.5t-29.5 70.5t-70.5 29.5h-500q-41 0 -70.5 -29.5t-29.5 -70.5zM300 600q0 -41 29.5 -70.5t70.5 -29.5h800q41 0 70.5 29.5t29.5 70.5v600q0 41 -29.5 70.5t-70.5 29.5h-800q-41 0 -70.5 -29.5t-29.5 -70.5 v-600zM1400 800v200l400 400v-1000z" />
<glyph unicode="&#xf235;" d="M100 700q0 -82 59 -141t141 -59h700q82 0 141 59t59 141v600q0 82 -59 141t-141 59h-700q-82 0 -141 -59t-59 -141v-600zM1300 950l600 -450v1000l-600 -450v-100z" />
<glyph unicode="&#xf236;" d="M200 500q0 -82 59 -141t141 -59h1300q82 0 141 59t59 141v1000q0 82 -59 141t-141 59h-1300q-82 0 -141 -59t-59 -141v-1000zM800 600v800l600 -400z" />
<glyph unicode="&#xf237;" d="M200 1000q0 124 88 212t212 88q130 0 221 -99l438 230q-9 35 -9 69q0 124 88 212t212 88t212 -88t88 -212t-88 -212t-212 -88q-130 0 -221 99l-438 -230q9 -35 9 -69t-9 -69l438 -230q89 99 221 99q124 0 212 -88t88 -212t-88 -212t-212 -88t-212 88t-88 212q0 34 9 69 l-438 230q-89 -99 -221 -99q-124 0 -212 88t-88 212z" />
<glyph unicode="&#xf238;" d="M199 201l422 673q-21 37 -21 76q0 62 44 106t106 44t106 -44t44 -106q0 -17 -5 -37l144 -63q45 50 111 50q22 0 51 -9l358 641q-59 44 -59 118q0 62 44 106t106 44q25 0 53 -10l5 9v-11q41 -17 66.5 -54.5t25.5 -83.5t-25.5 -83.5t-66.5 -54.5v-1311h-1509zM379 301h1229 v1114l-329 -589q21 -37 21 -76q0 -62 -44 -106t-106 -44t-106 44t-44 106l1 7l-163 72q-40 -29 -88 -29q-24 0 -51 10z" />
<glyph unicode="&#xf239;" d="M100 200h1700l1 1228q45 27 72 72.5t27 99.5q0 82 -59 141t-141 59t-141 -59t-59 -141q0 -59 31.5 -107.5t82.5 -72.5l-413 -658q-52 38 -116 38q-62 0 -112 -34t-73 -90l-214 153q14 34 14 71q0 83 -58.5 141.5t-141.5 58.5t-141.5 -58.5t-58.5 -141.5q0 -54 26.5 -99 t71.5 -72zM400 900q0 41 29.5 70.5t70.5 29.5t70.5 -29.5t29.5 -70.5t-29.5 -70.5t-70.5 -29.5t-70.5 29.5t-29.5 70.5zM985 600q0 41 29.5 70.5t70.5 29.5t70.5 -29.5t29.5 -70.5t-29.5 -70.5t-70.5 -29.5t-70.5 29.5t-29.5 70.5zM1600 1600q0 41 29.5 70.5t70.5 29.5 t70.5 -29.5t29.5 -70.5t-29.5 -70.5t-70.5 -29.5t-70.5 29.5t-29.5 70.5z" />
<glyph unicode="&#xf240;" d="M100 1100v300h266q9 16 12 20q42 62 91 111q51 51 111 91q63 43 128 70q71 30 141 43q151 32 302 0q70 -13 141 -43q65 -27 128 -70q60 -40 111 -91q49 -49 91 -111q35 -52 23.5 -112.5t-63.5 -95.5t-112.5 -23.5t-95.5 63.5q-21 31 -55 67q-36 34 -67 55q-37 25 -77 41 q-42 19 -84 26q-90 20 -182 1q-43 -9 -84 -27q-40 -16 -77 -41q-33 -22 -66 -55q-34 -34 -56 -67q-24 -36 -41 -76q-1 -2 -1 -4q-12 -30 -23 -72h-461zM354.5 693q11.5 61 63.5 96t113 23t95 -64q21 -31 55 -67q36 -34 67 -55q37 -25 77 -41q36 -16 84 -26q87 -19 182 0 q48 10 84 26q40 16 77 41q33 22 66 55q31 31 56 67q26 41 41 76q1 2 1 4q12 30 23 72h461v-300h-266q-2 -2 -5.5 -9t-6.5 -11q-42 -62 -91 -111q-51 -51 -111 -91q-63 -43 -128 -70q-64 -27 -141 -43q-151 -32 -302 0q-77 16 -141 43q-65 27 -128 70q-60 40 -111 91 q-49 49 -91 111q-35 52 -23.5 113zM750 1000q0 -104 73 -177t177 -73t177 73t73 177t-73 177t-177 73t-177 -73t-73 -177z" />
<glyph unicode="&#xf242;" d="M200 400v1100h943q-274 -48 -441 -200h-302v-700h1100v200l200 160v-560h-1500zM600 800q22 269 199 421t501 173v306l500 -500l-500 -400v299q-86 -2 -152.5 -9t-143.5 -26t-141 -50.5t-132.5 -85.5t-130.5 -128z" />
<glyph unicode="&#xf301;" d="M106 438q48 -5 88 -5q255 0 455 157q-119 2 -212.5 73t-129.5 182q39 -7 69 -7q47 0 96 13q-127 26 -210.5 127t-83.5 233v4q80 -43 166 -46q-75 51 -119 131.5t-44 174.5q0 100 50 184q138 -169 334.5 -270.5t421.5 -112.5q-10 45 -10 84q0 151 107.5 258.5t259.5 107.5 q160 0 268 -116q126 26 233 89q-43 -132 -162 -202q107 11 211 57q-75 -112 -183 -190q1 -15 1 -47q0 -147 -43 -294.5t-131 -282.5t-210 -239t-293 -166t-366 -62q-304 0 -563 165z" />
<glyph unicode="&#xf302;" d="M394 673q0 -209 117.5 -337.5t342.5 -134.5q2 0 7 -0.5t8 -0.5h521q86 0 148 62t62 149t-62 148.5t-148 61.5h-544q-30 0 -30 39v303h574q86 0 148 61.5t62 148.5t-62 149t-148 62h-574v206q0 87 -62 148.5t-149 61.5t-148.5 -61.5t-61.5 -148.5v-908q0 -6 -1 -9z" />
<glyph unicode="&#xf303;" d="M200 411q0 -87 62 -148t151 -61q88 0 150.5 61t62.5 148q0 86 -62.5 147.5t-150.5 61.5t-150.5 -61.5t-62.5 -147.5zM200 938q150 0 286 -56t243 -160q106 -104 162.5 -239t56.5 -283h308q0 211 -84 403.5t-225.5 332t-337 222t-409.5 82.5v-302zM200 1473 q210 0 407 -64.5t356 -182t278.5 -274t185 -351t65.5 -401.5h308q0 214 -57.5 418t-161 376.5t-251 318t-323 247.5t-383 158.5t-424.5 56.5v-302z" />
<glyph unicode="&#xf304;" d="M200 288v1424q0 37 26 62.5t63 25.5h1423q37 0 62.5 -25.5t25.5 -62.5v-1424q0 -36 -25.5 -62t-62.5 -26h-408v620h208l31 241h-239v154q0 59 25 88.5t95 29.5h128v216q-66 9 -186 9q-142 0 -226.5 -83.5t-84.5 -235.5v-178h-209v-241h209v-620h-766q-37 0 -63 26t-26 62 z" />
<glyph unicode="&#xf305;" d="M600 930h246v-730h293v730h245l37 284h-282v182q0 69 29.5 103.5t111.5 34.5h151v255q-95 11 -219 11q-167 0 -266.5 -98.5t-99.5 -277.5v-210h-246v-284z" />
<glyph unicode="&#xf306;" d="M200 500h1600v1100h-900l-200 -200h-500v-900zM300 1500h300v200h-300v-200zM800 1000q0 124 88 212t212 88t212 -88t88 -212t-88 -212t-212 -88t-212 88t-88 212z" />
<glyph unicode="&#xf307;" d="M265 783q-48 156 34 248t258 92q41 0 79 -6q-11 -11 -29 -33q-107 -147 -42 -359l112 -379q-53 -31 -120 -31q-65 0 -117.5 28.5t-67.5 74.5zM390 1464q-13 -55 4 -123t61.5 -119t101.5 -51t101.5 51t61.5 119t4 123q-14 61 -62 100t-105 39t-105 -39t-62 -100zM656 751 l126 -430q17 -53 79.5 -87t138.5 -34q75 0 137.5 34t79.5 87l125 430q37 126 6 215t-122 138t-226 49q-207 0 -304 -109t-40 -293zM798.5 1468.5q2.5 -45.5 20.5 -92t42 -84t61 -61t78 -23.5q50 0 94 36t68 89t35.5 113t-1.5 108q-16 72 -72.5 117.5t-123.5 45.5 q-68 0 -124 -45.5t-73 -117.5q-7 -40 -4.5 -85.5zM1276 1464q-13 -55 4 -123t61.5 -119t100.5 -51q57 0 101.5 51t61.5 119t4 123q-14 61 -62 100t-105 39t-104.5 -39t-61.5 -100zM1322 346l111 377q67 215 -42 361q-13 18 -28 33q38 6 79 6q176 0 258.5 -92t33.5 -248 l-107 -365q-15 -46 -67.5 -74.5t-117.5 -28.5q-67 0 -120 31z" />
<glyph unicode="&#xf308;" d="M77 402.5q0 41.5 29 70.5l1097 992q-231 145 -567 148q412 125 658 30q25 -10 50 -23.5t44.5 -25t45 -33t39.5 -32.5t40 -39t35.5 -37.5t37 -43t33 -40t34.5 -44t32 -40.5l85 83l141 -142l-347 -341l-142 142l84 82q-54 129 -151 231l-461 -659l-526 -470 q-29 -29 -70.5 -29t-71.5 29l-120 121q-29 29 -29 70.5z" />
<glyph unicode="&#xf309;" d="M152 992.5q8 72.5 30 147.5t57.5 142.5t79 131t95 113.5t106.5 91t113 62t113.5 27.5t108.5 -13.5q20 -7 21 -22t-11 -35.5t-30 -44.5t-32 -51.5t-19.5 -54t9 -54.5t52.5 -51q23 -17 61 -5t75 37t82.5 63.5t83.5 74t78 69t65 47.5q39 22 84.5 30t95 0t96 -47t77.5 -106 q33 -72 41 -182t-14.5 -239.5t-70 -255.5t-135 -242t-200.5 -187q-117 -74 -246.5 -106t-252.5 -20t-233.5 58.5t-198.5 132.5t-139 201q-29 66 -39.5 141t-2.5 147.5zM968 1079q2 -16 8 -30q30 -68 126 -56q91 12 173 84q96 86 93 187q-1 34 -13 65q-26 65 -124 33 q-92 -29 -176 -112q-94 -94 -87 -171z" />
<glyph unicode="&#xf310;" d="M200 399h800v201h-600v800h600v200h-800v-1201zM600 800v400h600v300l600 -500l-600 -500v300h-600z" />
<glyph unicode="&#xf311;" d="M200 800q0 -280 176 -501h1248q176 221 176 501q0 162 -63.5 310.5t-170.5 255.5t-255 170.5t-311 63.5t-311 -63.5t-255 -170.5t-170.5 -255.5t-63.5 -310.5zM300 700q0 41 29.5 70.5t70.5 29.5t70.5 -29.5t29.5 -70.5q0 -42 -29.5 -71t-70.5 -29t-70.5 29t-29.5 71z M400 1200q0 41 29.5 70.5t70.5 29.5t70.5 -29.5t29.5 -70.5q0 -42 -29.5 -71t-70.5 -29t-70.5 29t-29.5 71zM790 709.5q0 88.5 62 150.5q37 37 200 124.5t307 156.5l144 69q-30 -64 -76.5 -160.5t-141 -275t-131.5 -215.5q-63 -63 -151 -63t-151 63q-62 62 -62 150.5z M900 700q0 41 29.5 70.5t70.5 29.5t70.5 -29.5t29.5 -70.5q0 -42 -29.5 -71t-70.5 -29t-70.5 29t-29.5 71zM900 1400q0 41 29.5 70.5t70.5 29.5t70.5 -29.5t29.5 -70.5q0 -42 -29.5 -71t-70.5 -29t-70.5 29t-29.5 71zM1500 700q0 41 29.5 70.5t70.5 29.5t70.5 -29.5 t29.5 -70.5q0 -42 -29.5 -71t-70.5 -29t-70.5 29t-29.5 71z" />
<glyph unicode="&#xf312;" d="M200 100v1100h100v200q0 136 67 251t182 182t251 67q105 0 200 -42q95 42 200 42q136 0 251 -67t182 -182t67 -251v-200h100v-1100h-1600zM500 1200h200v200q0 164 102 300h-2q-124 0 -212 -88t-88 -212v-200zM900 1200h200v200q0 132 -100 222q-100 -90 -100 -222v-200z M1198 1700q102 -136 102 -300v-200h200v200q0 124 -88 212t-212 88h-2z" />
<glyph unicode="&#xf313;" d="M310 300l303 533l125 -225l213 51l-251 -579l-140 220h-250zM446 1025l201 -124l123 -201l230 54l230 -54l123 201l201 124l-54 229l54 230l-200 124l-124 201l-230 -55l-229 54l-125 -200l-200 -124l54 -230zM600 1251q0 165 117.5 282t283.5 117q165 0 282 -117 t117 -282q0 -166 -117 -283.5t-282 -117.5q-167 0 -284 117t-117 284zM700 1250q0 124 87.5 212t211.5 88t212.5 -88t88.5 -212t-88 -212t-213 -88q-124 0 -211.5 87.5t-87.5 212.5zM1047 663l253 -583l140 220h250l-307 540l-128 -224z" />
<glyph unicode="&#xf314;" d="M200 200h700v700h-700v-700zM200 1100v700h700v-700h-700zM300 300v500h500v-500h-500zM300 1300l150 150l-150 150v-300zM400 1200h300l-150 150zM400 1700l150 -150l150 150h-300zM650 1450l150 -150v300zM1100 200v700h700v-700h-700zM1100 1100h700v700h-700v-700z M1200 400l150 150l-150 150v-300zM1200 1200v500h500v-500h-500zM1300 300h300l-150 150zM1300 800l150 -150l150 150h-300zM1550 550l150 -150v300z" />
<glyph unicode="&#xf315;" d="M300 300v700q0 82 59 141t141 59v200q0 136 67 251t182 182t251 67t251 -67t182 -182t67 -251v-200q82 0 141 -59t59 -141v-700q0 -82 -59 -141t-141 -59h-1000q-82 0 -141 59t-59 141zM800 775q0 -60 33 -109.5t87 -73.5v-217h160v217q54 24 87 73.5t33 109.5 q0 83 -59 141.5t-141 58.5t-141 -58.5t-59 -141.5zM800 1200h400v200q0 82 -59 141t-141 59t-141 -59t-59 -141v-200z" />
<glyph unicode="&#xf316;" d="M400 1000h201v600h800v-600h200v800h-1201v-800zM501 800h300v600h400v-600h300l-500 -600z" />
<glyph unicode="&#xf317;" d="M400 200h1201v800h-201v-600h-800v600h-200v-800zM500 1200l500 600l500 -600h-300v-600h-400v600h-300z" />
<glyph unicode="&#xf318;" d="M200 300v1300h700l200 -200h-700v-900h100v800h1300v-1000h-1600z" />
<glyph unicode="&#xf319;" d="M100 1000q0 -183 71.5 -349.5t192 -287t287 -192t349.5 -71.5t349.5 71.5t287 192t192 287t71.5 349.5t-71.5 349.5t-192 287t-287 192t-349.5 71.5t-349.5 -71.5t-287 -192t-192 -287t-71.5 -349.5zM252 1219q74 240 271.5 396t453.5 167q-33 -55 -56 -126t-32 -149 t12 -154.5t73 -127.5q-35 -5 -69 6t-58.5 30t-51 40t-45.5 36t-43 17.5t-44 -14.5q-88 -69 -42 -150q50 -88 228 -144q62 -20 134 -33q97 -17 164.5 -40.5t106.5 -49.5t60 -62.5t27 -71t5 -84.5q-6 -298 -406 -470q2 86 -11.5 153t-38 109t-55 73.5t-63.5 52t-62.5 37 t-54 36.5t-35.5 43q10 42 18.5 67.5t27.5 61.5t52 66t82 56q-378 39 -548 229zM1480 1108q-39 137 169 314q31 -48 54.5 -97.5t38.5 -92.5t23 -89t11.5 -81t1.5 -75.5t-4.5 -66t-10 -58.5t-11.5 -46.5t-12 -37.5l-7 -24q-21 51 -52 95.5t-60.5 74.5t-57.5 58t-50.5 60 t-32.5 66z" />
<glyph unicode="&#xf320;" d="M100 1348q0 123 60.5 227t164.5 164.5t227 60.5h743q41 0 70.5 -29.5t29.5 -70.5t-29.5 -70.5t-70.5 -29.5h-100v-1300q0 -41 -29.5 -70.5t-70.5 -29.5t-70.5 29.5t-29.5 70.5v1200q0 41 -29.5 70.5t-70.5 29.5t-70.5 -29.5t-29.5 -70.5v-1200q0 -41 -29.5 -70.5 t-70.5 -29.5t-70.5 29.5t-29.5 70.5v596h-43q-123 0 -227 60.5t-164.5 164.5t-60.5 227zM1400 600l500 400l-500 400v-800z" />
<glyph unicode="&#xf321;" d="M110 1456l178 -91q74 145 198.5 248t269 149t305 34.5t304.5 -84.5q145 -74 248 -198t149 -268.5t35 -305t-85 -305.5t-198 -247.5t-268 -149t-305 -35.5t-306 85q-138 71 -237 185t-149 255l164 103q34 -120 113.5 -218t194.5 -158q111 -57 234 -65.5t233 27 t204.5 114.5t151.5 190t66 234t-27 233t-114.5 205t-189.5 152t-234 65.5t-233 -27t-204.5 -114.5t-151.5 -190l188 -97l-495 -308zM900 1000q0 4 2 10t2 9h-1l97 481l97 -481l303 -319l-450 212l2 2q-13 7 -23 15q-29 29 -29 71z" />
<glyph unicode="&#xf322;" d="M9 1416l156 -999q185 736 221 913q8 36 36.5 53t61.5 17h516q-70 208 -77 231q-19 69 -78 69h-331q-28 0 -50.5 -17t-29.5 -47l-34 -136h-322q-30 0 -51.5 -23.5t-17.5 -60.5zM141 300h1573q40 0 67.5 22t35.5 61l168 844q5 35 -15 54t-47 19h-323v147q0 15 -19.5 34 t-46.5 19h-376q-23 0 -45 -14.5t-32 -29.5l-10 -14l-71 -142h-441q-25 0 -45 -13.5t-24 -36.5q-159 -670 -172 -733q-17 -92 -51 -142q-49 -75 -126 -75zM488 1500q2 4 5 11t12.5 24t19.5 30t23.5 24t26.5 11h213q21 0 46 -25t40 -50l14 -25h-400zM1100 1300q2 4 6.5 11 t17.5 24t25.5 30t30.5 24t33 11h229q20 0 37 -10.5t27.5 -25t18 -29t10.5 -25.5l3 -10h-438z" />
<glyph unicode="&#xf323;" d="M100 800l1000 1000h700v-700l-1000 -1000zM1200 1400q0 -82 59 -141t141 -59t141 59t59 141t-59 141t-141 59t-141 -59t-59 -141z" />
<glyph unicode="&#xf324;" d="M0 1000q0 -163 50.5 -315.5t143 -275.5t215.5 -215.5t275.5 -143t315.5 -50.5q203 0 388 79t319 213t213.5 319.5t79.5 388.5t-79.5 388t-213.5 319t-319 213.5t-388 79.5t-388.5 -79.5t-319.5 -213.5t-213 -319t-79 -388zM111 1000q0 196 72 359q336 -921 427 -1168 q-226 109 -362.5 328t-136.5 481zM253 1487q121 186 318.5 294t428.5 108q172 0 327.5 -61t277.5 -173q-58 9 -111.5 -33.5t-53.5 -124.5q0 -18 4.5 -37.5t8.5 -32.5t16 -36.5t17 -31.5t22.5 -37t21.5 -35q55 -96 55 -246q0 -66 -35 -191t-70 -217l-35 -92l-303 837 q24 1 44.5 5t29.5 8l8 4q24 2 32 33t-3 60.5t-35 28.5q-144 -12 -238 -12q-39 0 -97 3t-97 6l-39 3q-24 1 -35 -29t-3 -61t32 -32l92 -8l126 -341l-181 -583l-341 915l117 8q24 3 32 31t-3 54.5t-35 25.5q-145 -11 -237 -11q-37 0 -58 1zM771 144q28 83 112.5 329.5 t129.5 380.5l258 -698q-133 -45 -271 -45q-121 0 -229 33zM1449 222q247 661 292 778q12 32 17.5 47t16.5 60.5t14.5 85t3.5 102t-9 130.5q105 -193 105 -425q0 -245 -119 -453.5t-321 -324.5z" />
<glyph unicode="&#xf325;" d="M0 301v298q0 42 29.5 71.5t70.5 29.5h100v200q0 82 59 141t141 59h500v200h-100q-41 0 -70.5 29.5t-29.5 71.5v298q0 42 29.5 71.5t70.5 29.5h400q41 0 70.5 -29.5t29.5 -71.5v-298q0 -42 -29.5 -71.5t-70.5 -29.5h-100v-200h500q82 0 141 -59t59 -141v-200h100 q41 0 70.5 -29.5t29.5 -71.5v-298q0 -42 -29.5 -71.5t-70.5 -29.5h-400q-41 0 -70.5 29.5t-29.5 71.5v298q0 42 29.5 71.5t70.5 29.5h100v200h-500v-200h100q41 0 70.5 -29.5t29.5 -71.5v-298q0 -42 -29.5 -71.5t-70.5 -29.5h-400q-41 0 -70.5 29.5t-29.5 71.5v298 q0 42 29.5 71.5t70.5 29.5h100v200h-500v-200h100q41 0 70.5 -29.5t29.5 -71.5v-298q0 -42 -29.5 -71.5t-70.5 -29.5h-400q-41 0 -70.5 29.5t-29.5 71.5z" />
<glyph unicode="&#xf326;" d="M0 800v700q0 82 59 141t141 59h700q82 0 141 -59t59 -141v-200h-151q-46 0 -89.5 -19.5t-69.5 -50.5l-90 270h-287l-239 -700h169l74 200h283v-400h-500q-82 0 -141 59t-59 141zM449 1100l100 293l102 -293h-202zM800 300v700q0 82 59 141t141 59h700q82 0 141 -59 t59 -141v-700q0 -82 -59 -141t-141 -59h-700q-82 0 -141 59t-59 141zM975 700h128q9 -66 42 -136t86 -126q-64 -26 -131.5 -44t-99.5 -18l5 -26q5 -26 10.5 -62t4.5 -58q62 0 154 32.5t174 82.5q83 -50 177 -82.5t157 -32.5q-1 14 1 33.5t5 38.5t6 35.5t6 27.5l2 11 q-33 0 -103 18.5t-135 44.5q51 56 83.5 126t41.5 135h136v108h-317v217h-116v-217h-317v-108zM1243 700h209q-26 -124 -100 -193l-4 -3q-3 2 -4 3q-76 70 -101 193z" />
<glyph unicode="&#xf327;" d="M145 144l143 688q937 940 985 989q35 37 100 35t107 -44l334 -335q41 -44 40.5 -104t-37.5 -98l-986 -988zM455 777l137 -137l682 697l-131 131zM644 588l133 -134l688 691l-132 132z" />
<glyph unicode="&#xf328;" d="M177 698q90 -264 317 -426t506 -162t506 162t317 426l-132 46q-76 -222 -266.5 -358t-424.5 -136t-424.5 136t-266.5 358zM500 1280q0 83 58.5 141.5t141.5 58.5t141.5 -58.5t58.5 -141.5q0 -52 -28 -100q-72 20 -172 20q-44 0 -87 -5t-64 -10l-21 -5q-28 48 -28 100z M1100 1280q0 83 58.5 141.5t141.5 58.5t141.5 -58.5t58.5 -141.5q0 -52 -28 -100q-72 20 -172 20q-44 0 -87 -5t-64 -10l-21 -5q-28 48 -28 100z" />
<glyph unicode="&#xf329;" d="M500 500h1000v200h-1000v-200zM500 900h1000v200h-1000v-200zM500 1300h1000v200h-1000v-200z" />
<glyph unicode="&#xf330;" d="M200 400v1200q0 124 88 212t212 88h900v-1400h-900q-41 0 -70.5 -29.5t-29.5 -70.5t29.5 -70.5t70.5 -29.5h1100v1400h200v-1600h-1300q-124 0 -212 88t-88 212z" />
<glyph unicode="&#xf331;" d="M200 400v1200q0 124 88 212t212 88h1300v-1400h-1300q-41 0 -70.5 -29.5t-29.5 -70.5t29.5 -70.5t70.5 -29.5h1300v-200h-1300q-124 0 -212 88t-88 212zM600 650q0 -21 14.5 -35.5t35.5 -14.5t35.5 14.5t14.5 35.5v1100q0 21 -14.5 35.5t-35.5 14.5t-35.5 -14.5 t-14.5 -35.5v-1100z" />
<glyph unicode="&#xf332;" d="M300 1600q112 0 225.5 20.5t195 50t147 59t98.5 50.5l34 20q12 -8 34.5 -21.5t96 -48t150.5 -61t192 -48t227 -21.5q0 -224 -38.5 -423t-100.5 -336.5t-136.5 -252.5t-149 -184.5t-136.5 -117.5t-101 -67l-38 -19q-9 4 -24.5 11.5t-63.5 38.5t-94 68.5t-109 103.5 t-117.5 141.5t-109.5 185t-94 231t-63.5 282.5t-24.5 338zM500 1000q28 -112 90 -225.5t130 -195t132 -147t106 -98.5l42 -34v700h500q4 4 11 13t24 48t30 90t24 144t11 205q-20 4 -54.5 11.5t-126 30t-167 45t-150 54t-102.5 59.5v-700h-500z" />
<glyph unicode="&#xf333;" d="M300 500h1400v200h-1400v-200zM300 900h1400v200h-1400v-200zM300 1300h1400v200h-1400v-200z" />
<glyph unicode="&#xf334;" d="M300 1600q112 0 225.5 20.5t195 50t147 59t98.5 50.5l34 20q12 -8 34.5 -21.5t96 -48t150.5 -61t192 -48t227 -21.5q0 -224 -38.5 -423t-100.5 -336.5t-136.5 -252.5t-149 -184.5t-136.5 -117.5t-101 -67l-38 -19q-9 4 -24.5 11.5t-63.5 38.5t-94 68.5t-109 103.5 t-117.5 141.5t-109.5 185t-94 231t-63.5 282.5t-24.5 338z" />
<glyph unicode="&#xf335;" d="M505 647l353 353l-353 353l142 142l353 -353l354 353l141 -141l-354 -354l354 -354l-141 -141l-354 353l-353 -353z" />
<glyph unicode="&#xf336;" d="M200 400v1200h1600v-1200h-1600zM300 500h1400v100h-1400v-100zM300 756l20 -5q26 -8 55 -14q41 -10 80 -17q34 -7 100 -14q55 -6 107 -6q50 0 107 6q48 5 98 14q54 10 82 17q16 3 34 8t20 5q13 4 21 6v125q0 55 -31 107q-32 53 -84 86q-53 33 -111 33l-136 -90l-138 88 q-61 0 -114 -32q-53 -33 -81 -85q-29 -52 -29 -107v-125zM524 1364q-1 -18 1 -55l2 -9q2 -11 6 -25q9 -30 10 -33q6 -18 17 -37q13 -20 25 -33q15 -17 34 -25q19 -9 43 -9t43 9q19 11 33 24q14 16 24 34q13 26 17 37q5 13 10 34l6 24q0 2 0.5 5t0.5 4q7 45 -4 90 q-12 43 -46 72q-35 29 -86 29q-29 0 -56 -11q-26 -12 -41 -30q-17 -20 -27 -44t-12 -51zM1200 700h500v100h-500v-100zM1200 900h500v100h-500v-100zM1200 1100h500v400h-500v-400z" />
<glyph unicode="&#xf337;" d="M200 200v1600h1600v-1600h-1600zM400 400h1200v100h-1200v-100zM400 600h1200v100h-1200v-100zM400 856l20 -5q26 -8 55 -14q41 -10 80 -17q34 -7 100 -14q56 -6 107 -6q50 0 107 6q48 5 98 14q54 10 82 17q16 3 34 8t20 5q13 4 21 6v125q0 55 -31 107q-32 53 -84 86 q-53 33 -111 33l-136 -90l-138 88q-61 0 -114 -32q-53 -33 -81 -85q-29 -52 -29 -107v-125zM624 1464q-1 -18 1 -55l2 -9q2 -11 6 -25q9 -30 10 -33q6 -18 17 -37q13 -20 25 -33q15 -17 34 -25q19 -9 43 -9t43 9q19 11 33 24q14 16 24 34q13 26 17 37q5 13 10 34l6 24 q0 2 0.5 5t0.5 4q7 45 -4 90q-12 43 -46 72q-35 29 -86 29q-29 0 -56 -11q-26 -12 -41 -30q-17 -20 -27 -44t-12 -51zM1100 1300h500v100h-500v-100zM1100 1500h500v100h-500v-100zM1300 900h300v100h-300v-100zM1300 1100h300v100h-300v-100z" />
<glyph unicode="&#xf338;" d="M300 313v249q0 134 46 215q65 115 150 168q47 29 136 42t168 13l167 -167l-67 -133v-300l102 -108l98 108v300l-68 133l165 167q209 0 290 -52q96 -61 163 -172q50 -85 50 -214v-249q0 -4 -29 -13q-7 -2 -37 -10.5t-60 -16.5q-110 -24 -165 -34q-85 -15 -195 -27 q-112 -12 -213 -12t-214 12q-90 8 -198 27q-44 8 -156 34q-43 10 -106 29zM724 1527q3 56 25 104q22 50 52 86q33 39 83 60q52 23 113 23q103 0 171 -59q69 -60 91 -144q22 -85 9 -178l-3 -19q-1 -10 -11 -48q-7 -33 -20 -69q-13 -34 -34 -72q-18 -35 -47 -69 q-25 -26 -67 -48q-39 -19 -86 -19q-46 0 -87 19q-42 21 -67 50q-25 28 -49 66q-22 36 -34 73q-14 39 -21 67q-9 33 -12 50l-3 19q-6 55 -3 108z" />
<glyph unicode="&#xf339;" d="M438 1338q0 153 75 282t204.5 204.5t282.5 75.5t282.5 -75.5t205 -204.5t75.5 -282q0 -52 -21 -118t-50.5 -123.5t-59.5 -107.5t-51 -79l-21 -30q-25 -33 -42.5 -86t-17.5 -94v-100q0 -41 -29.5 -70.5t-70.5 -29.5h-400q-41 0 -70.5 29.5t-29.5 70.5v100q0 41 -17.5 94 t-42.5 86q-8 11 -21.5 30.5t-48.5 77t-61.5 110.5t-48.5 120.5t-22 119.5zM700 313v87h600v-87q0 -53 -16 -83t-59 -30h-25q0 -46 -27.5 -73t-74.5 -27h-200q-46 0 -72 26.5t-26 73.5h-25q-43 0 -59 30t-16 83z" />
<glyph unicode="&#xf340;" d="M200 1000l800 800v-300l-400 -400h1200v-200h-1200l400 -400v-300z" />
<glyph unicode="&#xf341;" d="M600 1000l800 800v-300l-500 -500l500 -500v-300z" />
<glyph unicode="&#xf342;" d="M200 1000l800 800l800 -800h-300l-400 400v-1200h-200v1200l-400 -400h-300z" />
<glyph unicode="&#xf343;" d="M200 600l800 800l800 -800h-300l-500 500l-500 -500h-300z" />
<glyph unicode="&#xf344;" d="M200 900v200h1200l-400 400v300l800 -800l-800 -800v300l400 400h-1200z" />
<glyph unicode="&#xf345;" d="M600 200v300l500 500l-500 500v300l800 -800z" />
<glyph unicode="&#xf346;" d="M200 1000h300l400 -400v1200h200v-1200l400 400h300l-800 -800z" />
<glyph unicode="&#xf347;" d="M200 1400h300l500 -500l500 500h300l-800 -800z" />
<glyph unicode="&#xf348;" d="M200 1000q0 163 63.5 311t170.5 255t255 170.5t311 63.5t311 -63.5t255 -170.5t170.5 -255t63.5 -311t-63.5 -311t-170.5 -255t-255 -170.5t-311 -63.5t-311 63.5t-255 170.5t-170.5 255t-63.5 311zM900 500h200v600h-200v-600zM900 1400q0 -41 29.5 -70.5t70.5 -29.5 t70.5 29.5t29.5 70.5t-29.5 70.5t-70.5 29.5t-70.5 -29.5t-29.5 -70.5z" />
<glyph unicode="&#xf349;" d="M0 300h2000v300h-2000v-300zM0 900h2000v300h-2000v-300zM0 1500h2000v300h-2000v-300z" />
<glyph unicode="&#xf448;" d="M0 1000q0 163 50.5 315.5t143 275.5t215.5 215.5t275.5 143t315.5 50.5t315.5 -50.5t275.5 -143t215.5 -215.5t143 -275.5t50.5 -315.5t-50.5 -315.5t-143 -275.5t-215.5 -215.5t-275.5 -143t-315.5 -50.5t-315.5 50.5t-275.5 143t-215.5 215.5t-143 275.5t-50.5 315.5z M50 1000q0 -193 75 -369t202.5 -303.5t303.5 -202.5t369 -75t369 75t303.5 202.5t202.5 303.5t75 369t-75 369t-202.5 303.5t-303.5 202.5t-369 75t-369 -75t-303.5 -202.5t-202.5 -303.5t-75 -369zM150 1000q0 173 67 330.5t181 271.5t271.5 181t330.5 67t330.5 -67 t271.5 -181t181 -271.5t67 -330.5t-67 -330.5t-181 -271.5t-271.5 -181t-330.5 -67t-330.5 67t-271.5 181t-181 271.5t-67 330.5zM384 560.5q1 -27.5 3 -44.5l2 -16h1108q10 102 -4 184t-43 132.5t-67 88t-77.5 54.5t-73 27t-54.5 11l-21 1l-212 -209l-212 209 q-68 -4 -123 -23t-90.5 -48.5t-62.5 -67t-41 -78t-22 -81t-9.5 -76.5t-0.5 -63.5zM650 1286q0 -121 85.5 -206.5t206.5 -85.5t207 85.5t86 206.5q0 122 -85.5 207.5t-207.5 85.5q-121 0 -206.5 -86t-85.5 -207zM1025 1634q118 -28 195.5 -124t77.5 -221q0 -100 -55 -187 q99 22 164 101.5t65 183.5q0 121 -85.5 206.5t-206.5 85.5q-83 0 -155 -45zM1316 1019q66 -19 115 -63.5t72.5 -94t38 -96t16.5 -77.5l3 -30h128q0 76 -11 138.5t-29.5 104.5t-43 75t-51 51t-53 30.5t-51 16.5t-43 5.5t-29.5 0.5l-11 -2z" />
<glyph unicode="&#xf449;" d="M300 1100q0 41 29.5 70.5t70.5 29.5h1200q41 0 70.5 -29.5t29.5 -70.5t-29.5 -70.5t-70.5 -29.5h-1200q-41 0 -70.5 29.5t-29.5 70.5zM400 800q0 41 29.5 70.5t70.5 29.5h1000q41 0 70.5 -29.5t29.5 -70.5t-29.5 -70.5t-70.5 -29.5h-1000q-41 0 -70.5 29.5t-29.5 70.5z M500 1450q0 62 44 106t106 44h159q-9 29 -9 50q0 62 44 106t106 44h100q62 0 106 -44t44 -106q0 -21 -9 -50h159q62 0 106 -44t44 -106t-44 -106t-106 -44h-700q-62 0 -106 44t-44 106zM600 500q0 41 29.5 70.5t70.5 29.5h600q41 0 70.5 -29.5t29.5 -70.5t-29.5 -70.5 t-70.5 -29.5h-109q9 -29 9 -50q0 -62 -44 -106t-106 -44h-100q-62 0 -106 44t-44 106q0 21 9 50h-109q-41 0 -70.5 29.5t-29.5 70.5z" />
<glyph unicode="&#xf450;" d="M200 500q0 -90 38.5 -145t95.5 -55h32q62 0 98 44.5t36 155.5q0 45 -17 102.5t-41.5 107.5t-49 94t-41.5 70l-17 26q-15 -31 -37 -80.5t-59.5 -157.5t-37.5 -162zM222 1162q0 -62 44 -106q46 -44 107.5 -43.5t104.5 43.5l566 566q44 44 44 106t-44 106t-106 44t-106 -44 l-566 -566q-44 -44 -44 -106zM505 879.5q0 -62.5 44 -106.5q46 -44 107.5 -43t104.5 43l566 566q43 43 43 105.5t-43 106.5q-44 44 -106.5 44t-105.5 -44l-566 -566q-44 -43 -44 -105.5zM788 596.5q0 62.5 44 106.5l566 565q44 44 106 44t106 -44t44 -106t-44 -106 l-177 -177l418 -418q44 -44 44 -106t-44 -106t-106.5 -44t-105.5 44l-418 418l-177 -177q-44 -44 -106 -44t-106 44t-44 106.5z" />
<glyph unicode="&#xf451;" d="M158 758.5q0 124.5 88 212.5q102 67 210 130q-136 184 -136 411q0 47 8 100q18 -131 84 -245.5t168 -196.5q53 28 126.5 57t110.5 35h-17q-82 0 -141 59t-59 141t59 141t141 59v50q0 21 14.5 35.5t35.5 14.5t35.5 -14.5t14.5 -35.5v-50h200v50q0 21 14.5 35.5t35.5 14.5 t35.5 -14.5t14.5 -35.5v-50q82 0 141 -59t59 -141t-59 -141t-141 -59h-17q36 -6 112.5 -36.5t125.5 -55.5q102 82 168 196.5t84 245.5q8 -53 8 -100q0 -227 -136 -411q48 -28 100 -60.5t81 -50.5l28 -19q88 -88 88 -212.5t-88 -212.5t-212.5 -88t-212.5 88l-34 52 q0 -66 -9.5 -124t-22.5 -99.5t-36.5 -79.5t-42.5 -60.5t-49.5 -47t-48 -35.5t-47.5 -28.5t-39 -23.5q-11 8 -49.5 32t-64.5 42t-63.5 58.5t-60.5 85.5t-40 118.5t-17 161.5l-34 -52q-88 -88 -212.5 -88t-212.5 88t-88 212.5zM750 1462q0 -41 29.5 -70.5t70.5 -29.5 q38 0 69 30t31 70q0 41 -29.5 70.5t-70.5 29.5t-70.5 -29.5t-29.5 -70.5zM800 550q0 -21 14.5 -35.5t35.5 -14.5h300q21 0 35.5 14.5t14.5 35.5t-14.5 35.5t-35.5 14.5h-300q-21 0 -35.5 -14.5t-14.5 -35.5zM800 750q0 -21 14.5 -35.5t35.5 -14.5h300q21 0 35.5 14.5 t14.5 35.5q0 23 -19 38q-15 12 -31 12h-300q-16 0 -31 -12q-19 -17 -19 -38zM900 350q0 -21 14.5 -35.5t35.5 -14.5h100q21 0 35.5 14.5t14.5 35.5t-14.5 35.5t-35.5 14.5h-100q-21 0 -35.5 -14.5t-14.5 -35.5zM901 946q2 -19 16 -32.5t33 -13.5h100q19 0 33 13.5t16 32.5 q0 21 -19 43q-15 11 -30 11h-100q-15 0 -30 -11q-19 -17 -19 -43zM1050 1462q0 -41 29.5 -70.5t70.5 -29.5t70.5 29.5t29.5 70.5t-29.5 70.5t-70.5 29.5t-70.5 -29.5t-29.5 -70.5z" />
<glyph unicode="&#xf452;" d="M200 800v100q0 124 88 212t212 88h200v700h100v-700h200v200q0 115 92 207.5t208 92.5v-86q91 86 200 86v-300h100q82 0 141 -59t59 -141t-59 -141t-141 -59h-100v-100v-1v-499q0 -41 -29.5 -70.5t-70.5 -29.5t-70.5 29.5t-29.5 70.5v218q-51 -18 -100 -18v-200 q0 -41 -29.5 -70.5t-70.5 -29.5t-70.5 29.5t-29.5 70.5v200h-200v-200q0 -41 -29.5 -70.5t-70.5 -29.5t-70.5 29.5t-29.5 70.5v200q-49 0 -100 18v-218q0 -41 -29.5 -70.5t-70.5 -29.5t-70.5 29.5t-29.5 70.5v400h-100zM1200 1300q0 -41 29.5 -70.5t70.5 -29.5t70.5 29.5 t29.5 70.5t-29.5 70.5t-70.5 29.5t-70.5 -29.5t-29.5 -70.5z" />
<glyph unicode="&#xf453;" d="M300 500v300q37 -58 70 -94.5t95.5 -75t149.5 -63.5q35 -10 111.5 -41t143.5 -50t130 -19t131.5 19.5t144 50.5t112.5 41q68 19 118.5 43.5t86.5 57.5t57 59.5t50 71.5v-300q0 -109 -93.5 -201t-255 -145.5t-351.5 -53.5t-351.5 53.5t-255 145.5t-93.5 201zM300 1000 q0 -110 78.5 -197.5t242.5 -139.5q32 -10 108.5 -42t142.5 -51t128 -19t128 19t142.5 51.5t108.5 42.5q163 51 242 138.5t79 197.5q0 109 -95 201t-255 145v-246q0 -62 -44 -106t-106 -44t-106 44t-44 106v299q-8 0 -25 0.5t-25 0.5t-25 -0.5t-25 -0.5v-299q0 -62 -44 -106 t-106 -44t-106 44t-44 106v246q-160 -53 -255 -145t-95 -201zM700 1100q0 -41 29.5 -70.5t70.5 -29.5q42 0 71 30.5t29 69.5v350q0 41 -29.5 70.5t-70.5 29.5q-42 0 -71 -30.5t-29 -69.5v-350zM700 1700q0 -37 30 -68.5t70 -31.5q41 0 70.5 30t29.5 70q0 92 -100 200 q-40 -40 -70 -98t-30 -102zM1100 1100q0 -41 29.5 -70.5t70.5 -29.5q42 0 71 30.5t29 69.5v350q0 41 -29.5 70.5t-70.5 29.5q-42 0 -71 -30.5t-29 -69.5v-350zM1100 1700q0 -37 30 -68.5t70 -31.5q41 0 70.5 30t29.5 70q0 92 -100 200q-40 -40 -70 -98t-30 -102z" />
<glyph unicode="&#xf454;" d="M500 300q0 -41 29.5 -70.5t70.5 -29.5h200q41 0 70.5 29.5t29.5 70.5v800q0 41 -29.5 70.5t-70.5 29.5h-200q-41 0 -70.5 -29.5t-29.5 -70.5v-800zM525 1423q0 -98 43 -135.5t132 -37.5t132 37.5t43 135.5q0 39 -18 92t-43.5 101t-51.5 90.5t-44 67.5l-18 26 q-7 -10 -19 -27t-42 -65.5t-53 -93t-42 -98.5t-19 -93zM600 400v200l200 100v-200zM600 700v200l200 100v-200zM1100 300q0 -41 29.5 -70.5t70.5 -29.5h200q41 0 70.5 29.5t29.5 70.5v800q0 41 -29.5 70.5t-70.5 29.5h-200q-41 0 -70.5 -29.5t-29.5 -70.5v-800zM1125 1423 q0 -98 43 -135.5t132 -37.5t132 37.5t43 135.5q0 39 -18 92t-43.5 101t-51.5 90.5t-44 67.5l-18 26q-7 -10 -19 -27t-42 -65.5t-53 -93t-42 -98.5t-19 -93zM1200 400v200l200 100v-200zM1200 700v200l200 100v-200z" />
<glyph unicode="&#xf455;" d="M450 500l450 818q-57 93 -168 146t-261 57l246 292q199 -141 297 -331q51 80 109.5 131t160.5 81l183 -286q-192 46 -369 -86l452 -822q-48 -96 -142 -166t-199 -102t-209 -32t-209 32t-199 102t-142 166zM566 503q152 -81 337 -81q147 0 272 50t202 136l-98 176 q-77 -86 -202 -136.5t-272 -50.5q-87 0 -176 21zM724 791q71 -16 154 -16q199 0 355 95l-101 182q-136 -83 -315 -92z" />
<glyph unicode="&#xf456;" d="M200 1065q-16 97 23 181t128 129q68 34 143 31q-2 -62 7 -121q20 -129 99.5 -252t186.5 -185q-30 -86 -88 -125l201 -381v566q-102 28 -191.5 144t-108.5 248q-20 132 16 246t124 184t210 70t210 -70t124 -184t16 -246q-19 -132 -108.5 -248t-191.5 -144v-577l207 384 q-63 33 -99 130q109 61 190 185.5t101 254.5q9 59 7 122q73 2 139 -32q89 -46 127.5 -130t22.5 -181t-80 -187q-59 -83 -159.5 -134.5t-186.5 -43.5l-264 -499h-105l-265 499q-85 -12 -189.5 40t-165.5 139q-64 90 -80 187z" />
<glyph unicode="&#xf457;" d="M200 200v1100q20 20 55.5 54t138 120t196.5 152t210 120t200 54t197.5 -51.5t215 -125t191 -147t142.5 -124.5l54 -52v-1100h-1600zM300 900l373 -280l-344 -285l40 -43l631 408l653 -415l47 43l-373 292l373 280l-43 37l-226 -130l24 431l-877 52l-46 -454l-199 95z" />
<glyph unicode="&#xf459;" d="M100 1225l413 -462l-113 -663l600 300l600 -300l-112 663l412 462l-600 75l-300 600l-300 -600zM1000 512v1164l234 -469l465 -58l-318 -356l87 -515z" />
<glyph unicode="&#xf460;" d="M400 900v200h1200v-200h-1200z" />
<glyph unicode="&#xf462;" d="M176 483q0 128 130 226.5t314 98.5q14 0 40 0.5t38 0.5q-61 61 -61 126q0 43 23 86q-8 -1 -22 0.5t-20 1.5q-151 0 -247.5 97t-96.5 237q0 87 55.5 166.5t147 128t190.5 48.5h452l-101 -100h-144q83 -87 103 -116q43 -63 43 -144q0 -135 -128 -234q-53 -42 -69.5 -67 t-16.5 -62q0 -28 39.5 -70.5t79.5 -70.5q88 -62 123 -128t35 -165q0 -62 -30 -119.5t-84.5 -104t-140 -74t-189.5 -27.5q-126 0 -231 31.5t-168.5 93t-63.5 140.5zM339 531q0 -100 85.5 -170.5t213.5 -70.5q172 0 250 63.5t78 170.5q0 22 -5 47q-4 16 -10.5 29.5t-18 27.5 t-20.5 23.5t-28 24t-29.5 21.5t-36.5 25t-38 26q-56 18 -112 18q-131 2 -230 -68.5t-99 -166.5zM436 1346q15 -115 87.5 -198t159.5 -85q88 -3 139 76t36 194q-15 114 -87 195t-160 84q-88 2 -139 -75t-36 -191zM1200 1300v100h200v200h100v-200h200v-100h-200v-200h-100 v200h-200z" />
<glyph unicode="&#xf463;" d="M80 928l350 400q59 -67 175.5 -200t174.5 -200h-232q34 -149 154.5 -247t277.5 -98q106 0 199 48t155 130l171 -195q-98 -112 -234 -175t-291 -63q-130 0 -249.5 46.5t-210.5 126.5t-152.5 190.5t-79.5 236.5h-208zM495 1434q98 112 234.5 175t290.5 63q173 0 323.5 -79 t247.5 -216t121 -305h208l-350 -400l-350 400h232q-34 149 -154.5 247t-277.5 98q-106 0 -199 -48t-155 -130z" />
<glyph unicode="&#xf464;" d="M306 307l116 558q760 763 799 803q29 30 81.5 28.5t86.5 -35.5l271 -272q34 -35 33.5 -84t-30.5 -80l-801 -802zM557 821l111 -111l554 565l-106 107zM711 667l108 -108l558 560l-107 108z" />
<glyph unicode="&#xf465;" d="M199 579v842q0 179 188 179h1325q188 0 188 -179v-842q0 -179 -188 -179h-1325q-188 0 -188 179zM349 1338.5q6 -28.5 27 -45.5l673 -553l674 553q21 17 27 45.5t-14 61.5q-21 30 -56.5 33.5t-60.5 -16.5l-570 -386l-569 386q-25 20 -60.5 16.5t-56.5 -33.5 q-20 -33 -14 -61.5z" />
<glyph unicode="&#xf466;" d="M199 550q0 -62 44 -106t106 -44h1401q62 0 106 44t44 106v900q0 62 -44 106t-106 44h-1401q-62 0 -106 -44t-44 -106v-900zM312.5 1428.5q2.5 17.5 17.5 32.5q40 40 95 -7l624 -504l625 504q55 47 95 7q15 -15 17.5 -32.5t-4 -29.5t-16.5 -22l-406 -372l390 -406 q26 -30 6 -51q-9 -11 -28 -12t-28 7l-437 373l-214 -195l-213 195l-437 -373q-9 -8 -28 -7t-28 12q-20 21 6 51l390 406l-406 372q-10 10 -16.5 22t-4 29.5z" />
<glyph unicode="&#xf467;" d="M200 246q0 -90 58.5 -130t141.5 -7l1201 477q83 33 141.5 119.5t58.5 176.5v867q0 89 -59 129.5t-141 7.5l-1201 -477q-83 -33 -141.5 -120t-58.5 -177v-866zM365.5 1189.5q-4.5 14.5 6.5 29.5q9 16 25.5 21.5t28.5 2.5l11 -3l630 -232q483 634 511 670q12 15 30 20.5 t43 -7.5q33 -23 7 -63l-604 -933l-665 460q-7 5 -13 12.5t-10.5 22z" />
<glyph unicode="&#xf468;" d="M200 1000q0 -163 63.5 -311t170.5 -255t255 -170.5t311 -63.5t311 63.5t255 170.5t170.5 255t63.5 311t-63.5 311t-170.5 255t-255 170.5t-311 63.5t-311 -63.5t-255 -170.5t-170.5 -255t-63.5 -311zM357 723l373 149q45 -97 142 -142l-149 -373q-123 53 -218 148 t-148 218zM357 1277q53 123 148 218t218 148l149 -373q-97 -45 -142 -142zM800 1000q0 82 59 141t141 59t141 -59t59 -141t-59 -141t-141 -59t-141 59t-59 141zM1128 730q97 45 142 142l373 -149q-53 -123 -148 -218t-218 -148zM1128 1270l149 373q123 -53 218 -148 t148 -218l-373 -149q-45 97 -142 142z" />
<glyph unicode="&#xf469;" d="M200 1000q0 163 63.5 311t170.5 255t255 170.5t311 63.5t311 -63.5t255 -170.5t170.5 -255t63.5 -311t-63.5 -311t-170.5 -255t-255 -170.5t-311 -63.5t-311 63.5t-255 170.5t-170.5 255t-63.5 311zM400 1000q0 -163 80.5 -301t218.5 -218.5t301 -80.5t301 80.5 t218.5 218.5t80.5 301t-80.5 301t-218.5 218.5t-301 80.5t-301 -80.5t-218.5 -218.5t-80.5 -301zM900 1000q0 -42 29 -71q14 -10 23 -15l-2 -2l450 -212l-303 319l-97 481l-97 -481h1q0 -1 -2 -9t-2 -10z" />
<glyph unicode="&#xf470;" d="M500 300v1400q0 41 29.5 70.5t70.5 29.5h800q41 0 70.5 -29.5t29.5 -70.5v-1400q0 -41 -29.5 -70.5t-70.5 -29.5h-800q-41 0 -70.5 29.5t-29.5 70.5zM700 600h600v1000h-600v-1000zM800 1000v500h400z" />
<glyph unicode="&#xf471;" d="M300 300v1400q0 41 29.5 70.5t70.5 29.5h1200q41 0 70.5 -29.5t29.5 -70.5v-1400q0 -41 -29.5 -70.5t-70.5 -29.5h-1200q-41 0 -70.5 29.5t-29.5 70.5zM500 400h1000v1200h-1000v-1200zM600 1000v500h600z" />
<glyph unicode="&#xf472;" d="M200 700v1000q0 41 29.5 70.5t70.5 29.5h1400q41 0 70.5 -29.5t29.5 -70.5v-1000q0 -41 -29.5 -70.5t-70.5 -29.5h-500v-200h200q41 0 70.5 -29.5t29.5 -70.5v-100h-1000v100q0 41 29.5 70.5t70.5 29.5h200v200h-500q-41 0 -70.5 29.5t-29.5 70.5zM400 900h1200v700 h-1200v-700zM500 1100v400h900z" />
<glyph unicode="&#xf473;" d="M200 800v700q0 82 59 141t141 59h1200q82 0 141 -59t59 -141v-700q0 -82 -59 -141t-141 -59h-100l-500 -500v500h-600q-82 0 -141 59t-59 141zM400 800h900v100h-900v-100zM400 1100h1200v100h-1200v-100zM400 1400h1100v100h-1100v-100z" />
<glyph unicode="&#xf474;" d="M200 800l500 400v-300h900v700h200v-900h-1100v-300z" />
<glyph unicode="&#xf475;" d="M200 1000l600 600v-225l-375 -375l375 -375v-225zM1200 400v225l375 375l-375 375v225l600 -600z" />
<glyph unicode="&#xf476;" d="M300 1348q0 -124 61 -227q60 -104 165 -164q103 -61 228 -61h43v-596q0 -40 29 -71q31 -29 71 -29t71 29q30 30 30 71v1200q0 42 29 71q31 29 71 29t71 -29q29 -31 29 -71v-1200q0 -41 30 -71q31 -29 71 -29t71 29q29 31 29 71v1300h101q40 0 70 30q30 28 30 70 q0 41 -30 71q-31 29 -70 29h-746q-124 0 -228 -60q-105 -62 -165 -165q-61 -103 -61 -227z" />
<glyph unicode="&#xf477;" d="M200 1000q0 162 63.5 310.5t170.5 255.5t255.5 170.5t310.5 63.5t310.5 -63.5t255.5 -170.5t170.5 -255.5t63.5 -310.5t-63.5 -310.5t-170.5 -255.5t-255.5 -170.5t-310.5 -63.5t-310.5 63.5t-255.5 170.5t-170.5 255.5t-63.5 310.5zM250 1000q0 -223 122 -410 q41 -61 95 -117q104 -105 242 -164t291 -59t291.5 59.5t239 160t160 239t59.5 291.5t-59.5 291.5t-160 239t-239 160t-291.5 59.5t-291.5 -59.5t-239 -160t-160 -239t-59.5 -291.5zM326 1000q0 207 115 377h6q26 1 39.5 -3t20.5 -15.5t5.5 -32.5t-8 -54.5t-17.5 -81.5 q-1 -2 -1 -3l-101 -463q-59 130 -59 276zM491 1442q94 109 226.5 170.5t282.5 61.5q137 0 262 -53.5t215 -143.5t143.5 -215t53.5 -262t-53.5 -262t-143.5 -215t-215 -143.5t-262 -53.5q-206 0 -374 113q78 4 151 42t126 99q20 -58 80 -100t151 -42q130 0 240.5 88 t136.5 212q29 127 -28 213t-182 86q-45 0 -96 -21t-90 -52l104 479q2 14 -3.5 21.5t-18.5 3.5q-56 -15 -227 -32q-18 -2 -24.5 -17t2 -29t26.5 -13q22 1 34.5 -1t20.5 -10.5t10 -20t-1 -34.5t-8.5 -50t-14.5 -70q-1 -3 -1 -4l-54 -243q-57 93 -186 93q-46 0 -96.5 -21 t-89.5 -52q100 461 103 479q3 13 -2.5 21t-18.5 4q-42 -11 -179 -26zM521 655l34 167q15 64 69.5 107t114.5 43q82 0 109.5 -65t4.5 -169t-82.5 -172t-143.5 -68q-55 0 -89 41t-17 116zM1048 655l35 167q15 64 69 107t114 43q82 0 109.5 -65t4.5 -169q-22 -104 -82 -172 t-144 -68q-55 0 -89 41t-17 116z" />
<glyph unicode="&#xf478;" d="M200 300v200h1200v-200h-1200zM200 700v200h600v-200h-600zM200 1100v200h1000v-200h-1000zM200 1500v200h1600v-200h-1600zM1000 700v200h800v-200h-800zM1400 1100v200h400v-200h-400z" />
<glyph unicode="&#xf479;" d="M100 400v100h500v-100h-500zM100 600v200h800v-200h-800zM100 900v300h600v-300h-600zM100 1300v400h1000v-400h-1000zM700 400v100h400v-100h-400zM800 900v300h1100v-300h-1100zM1000 600v200h900v-200h-900zM1200 400v100h200v-100h-200zM1200 1300v400h700v-400h-700 zM1500 400v100h400v-100h-400z" />
<glyph unicode="&#xf480;" d="M100 1400v200h1800v-200h-1800zM200 300v1000h1600v-1000h-1600zM700 1000h600v100h-600v-100z" />
</font>
</defs>
</svg>
