<svg width="16" height="16" viewBox="0 0 16 16" fill="none" xmlns="http://www.w3.org/2000/svg">
<path fill-rule="evenodd" clip-rule="evenodd" d="M2.83337 4.66674C2.83337 3.65422 3.65419 2.8334 4.66671 2.8334H6.83337V3.8334H4.66671C4.20647 3.8334 3.83337 4.2065 3.83337 4.66674V11.3334C3.83337 11.7936 4.20647 12.1667 4.66671 12.1667H11.3334C11.7936 12.1667 12.1667 11.7936 12.1667 11.3334V8.90748H13.1667V11.3334C13.1667 12.3459 12.3459 13.1667 11.3334 13.1667H4.66671C3.65419 13.1667 2.83337 12.3459 2.83337 11.3334V4.66674Z" fill="#1B71B1"/>
<path fill-rule="evenodd" clip-rule="evenodd" d="M12.4156 3.01306L9.93204 3.02428L9.92752 2.02429L14.1325 2.00529L14.0964 6.19525L13.0965 6.18665L13.1177 3.72518L8.86104 7.9818L8.15393 7.27469L12.4156 3.01306Z" fill="#1B71B1"/>
</svg>
