<svg width="80" height="80" viewBox="0 0 80 80" fill="none" xmlns="http://www.w3.org/2000/svg">
<mask id="mask0_210_31040" style="mask-type:luminance" maskUnits="userSpaceOnUse" x="6" y="10" width="68" height="60">
<path fill-rule="evenodd" clip-rule="evenodd" d="M53.3332 20H66.6665C70.3484 20 73.3332 22.9848 73.3332 26.6667V63.3333C73.3332 67.0152 70.3484 70 66.6665 70H13.3332C9.65127 70 6.6665 67.0152 6.6665 63.3333V26.6667C6.6665 22.9848 9.65127 20 13.3332 20H26.6665V10H53.3332V20ZM39.9998 20C41.8408 20 43.3332 21.4924 43.3332 23.3333C43.3332 25.1743 41.8408 26.6667 39.9998 26.6667C38.1589 26.6667 36.6665 25.1743 36.6665 23.3333C36.6665 21.4924 38.1589 20 39.9998 20ZM19.9998 46.6667H59.9998V56.6667H19.9998V46.6667ZM33.3332 16.6667H46.6665V33.3333H33.3332V16.6667ZM13.3332 63.3333H66.6665V33.3333H53.3332C53.3332 37.0152 50.3484 40 46.6665 40H33.3332C29.6513 40 26.6665 37.0152 26.6665 33.3333H13.3332V63.3333Z" fill="white"/>
</mask>
<g mask="url(#mask0_210_31040)">
<rect width="80" height="80" fill="#DCDCDE"/>
</g>
</svg>
