<svg width="229" height="222" viewBox="0 0 229 222" fill="none" xmlns="http://www.w3.org/2000/svg">
<rect width="229" height="222" fill="white"/>
<path d="M24.7021 19.3257H21.9482L21.3721 20.981H20.0879L22.7734 13.8716H23.8818L26.5723 20.981H25.2832L24.7021 19.3257ZM22.2949 18.3296H24.3555L23.3252 15.3804L22.2949 18.3296ZM30.0342 16.7817C29.8779 16.7557 29.7168 16.7427 29.5508 16.7427C29.0072 16.7427 28.641 16.951 28.4521 17.3677V20.981H27.2656V15.6978H28.3984L28.4277 16.2886C28.7142 15.8296 29.1113 15.6001 29.6191 15.6001C29.7884 15.6001 29.9284 15.6229 30.0391 15.6685L30.0342 16.7817ZM32.8564 20.1313C33.1527 20.1313 33.3984 20.0451 33.5938 19.8726C33.7891 19.7 33.8932 19.4868 33.9062 19.2329H35.0244C35.0114 19.5617 34.9089 19.8693 34.7168 20.1558C34.5247 20.439 34.2643 20.6636 33.9355 20.8296C33.6068 20.9956 33.252 21.0786 32.8711 21.0786C32.1322 21.0786 31.5462 20.8394 31.1133 20.3608C30.6803 19.8823 30.4639 19.2215 30.4639 18.3784V18.2563C30.4639 17.4523 30.6787 16.8094 31.1084 16.3276C31.5381 15.8426 32.124 15.6001 32.8662 15.6001C33.4945 15.6001 34.0055 15.784 34.3994 16.1519C34.7965 16.5164 35.0049 16.9966 35.0244 17.5923H33.9062C33.8932 17.2896 33.7891 17.0405 33.5938 16.8452C33.4017 16.6499 33.1559 16.5522 32.8564 16.5522C32.4723 16.5522 32.1761 16.6922 31.9678 16.9722C31.7594 17.2489 31.6536 17.6704 31.6504 18.2368V18.4272C31.6504 19.0002 31.7529 19.4282 31.958 19.7114C32.1663 19.9914 32.4658 20.1313 32.8564 20.1313ZM37.0898 16.2739C37.4772 15.8247 37.9671 15.6001 38.5596 15.6001C39.6859 15.6001 40.2572 16.243 40.2734 17.5288V20.981H39.0869V17.5728C39.0869 17.2082 39.0072 16.951 38.8477 16.8013C38.6914 16.6483 38.4603 16.5718 38.1543 16.5718C37.679 16.5718 37.3242 16.7834 37.0898 17.2065V20.981H35.9033V13.481H37.0898V16.2739ZM42.7393 20.981H41.5527V15.6978H42.7393V20.981ZM41.4795 14.3257C41.4795 14.1434 41.5365 13.992 41.6504 13.8716C41.7676 13.7511 41.9336 13.6909 42.1484 13.6909C42.3633 13.6909 42.5293 13.7511 42.6465 13.8716C42.7637 13.992 42.8223 14.1434 42.8223 14.3257C42.8223 14.5047 42.7637 14.6545 42.6465 14.7749C42.5293 14.8921 42.3633 14.9507 42.1484 14.9507C41.9336 14.9507 41.7676 14.8921 41.6504 14.7749C41.5365 14.6545 41.4795 14.5047 41.4795 14.3257ZM45.8984 19.4771L47.0166 15.6978H48.2422L46.4111 20.981H45.3809L43.5352 15.6978H44.7656L45.8984 19.4771ZM51.2451 21.0786C50.4932 21.0786 49.8828 20.8426 49.4141 20.3706C48.9486 19.8953 48.7158 19.2638 48.7158 18.4761V18.3296C48.7158 17.8022 48.8167 17.3319 49.0186 16.9185C49.2236 16.5018 49.5101 16.1779 49.8779 15.9468C50.2458 15.7157 50.6559 15.6001 51.1084 15.6001C51.8278 15.6001 52.3828 15.8296 52.7734 16.2886C53.1673 16.7476 53.3643 17.397 53.3643 18.2368V18.7153H49.9121C49.9479 19.1515 50.0928 19.4966 50.3467 19.7505C50.6038 20.0044 50.9261 20.1313 51.3135 20.1313C51.8571 20.1313 52.2998 19.9116 52.6416 19.4722L53.2812 20.0825C53.0697 20.3983 52.7865 20.644 52.4316 20.8198C52.0801 20.9924 51.6846 21.0786 51.2451 21.0786ZM51.1035 16.5522C50.778 16.5522 50.5143 16.6662 50.3125 16.894C50.1139 17.1219 49.987 17.4393 49.9316 17.8462H52.1924V17.7583C52.1663 17.3612 52.0605 17.0617 51.875 16.8599C51.6895 16.6548 51.4323 16.5522 51.1035 16.5522ZM61.7383 14.8677H59.5215V20.981H58.2959V14.8677H56.0986V13.8716H61.7383V14.8677ZM63.8232 20.981H62.6367V15.6978H63.8232V20.981ZM62.5635 14.3257C62.5635 14.1434 62.6204 13.992 62.7344 13.8716C62.8516 13.7511 63.0176 13.6909 63.2324 13.6909C63.4473 13.6909 63.6133 13.7511 63.7305 13.8716C63.8477 13.992 63.9062 14.1434 63.9062 14.3257C63.9062 14.5047 63.8477 14.6545 63.7305 14.7749C63.6133 14.8921 63.4473 14.9507 63.2324 14.9507C63.0176 14.9507 62.8516 14.8921 62.7344 14.7749C62.6204 14.6545 62.5635 14.5047 62.5635 14.3257ZM66.6064 14.4136V15.6978H67.5391V16.5767H66.6064V19.5259C66.6064 19.7277 66.6455 19.8742 66.7236 19.9653C66.805 20.0532 66.9482 20.0972 67.1533 20.0972C67.29 20.0972 67.4284 20.0809 67.5684 20.0483V20.9663C67.2982 21.0412 67.0378 21.0786 66.7871 21.0786C65.8757 21.0786 65.4199 20.5757 65.4199 19.5698V16.5767H64.5508V15.6978H65.4199V14.4136H66.6064ZM69.7119 20.981H68.5254V13.481H69.7119V20.981ZM73.335 21.0786C72.583 21.0786 71.9727 20.8426 71.5039 20.3706C71.0384 19.8953 70.8057 19.2638 70.8057 18.4761V18.3296C70.8057 17.8022 70.9066 17.3319 71.1084 16.9185C71.3135 16.5018 71.5999 16.1779 71.9678 15.9468C72.3356 15.7157 72.7458 15.6001 73.1982 15.6001C73.9176 15.6001 74.4727 15.8296 74.8633 16.2886C75.2572 16.7476 75.4541 17.397 75.4541 18.2368V18.7153H72.002C72.0378 19.1515 72.1826 19.4966 72.4365 19.7505C72.6937 20.0044 73.016 20.1313 73.4033 20.1313C73.9469 20.1313 74.3896 19.9116 74.7314 19.4722L75.3711 20.0825C75.1595 20.3983 74.8763 20.644 74.5215 20.8198C74.1699 20.9924 73.7744 21.0786 73.335 21.0786ZM73.1934 16.5522C72.8678 16.5522 72.6042 16.6662 72.4023 16.894C72.2038 17.1219 72.0768 17.4393 72.0215 17.8462H74.2822V17.7583C74.2562 17.3612 74.1504 17.0617 73.9648 16.8599C73.7793 16.6548 73.5221 16.5522 73.1934 16.5522Z" fill="#A4AFB7"/>
<rect x="22" y="76" width="38" height="2" rx="1" fill="#D5DADF"/>
<rect x="22" y="96" width="32" height="2" rx="1" fill="#D5DADF"/>
<rect x="22" y="86" width="47" height="2" rx="1" fill="#D5DADF"/>
<rect x="22" y="81" width="53" height="2" rx="1" fill="#D5DADF"/>
<rect x="22" y="91" width="53" height="2" rx="1" fill="#D5DADF"/>
<mask id="mask0" mask-type="alpha" maskUnits="userSpaceOnUse" x="22" y="42" width="53" height="30">
<path fill-rule="evenodd" clip-rule="evenodd" d="M22 42H75V72H22V42Z" fill="white"/>
</mask>
<g mask="url(#mask0)">
<rect x="21.0918" y="39.3774" width="56.0286" height="36.5771" fill="#E6E9EC"/>
<mask id="mask1" mask-type="alpha" maskUnits="userSpaceOnUse" x="21" y="39" width="57" height="37">
<rect x="21.0918" y="39.3774" width="56.0286" height="36.5771" fill="white"/>
</mask>
<g mask="url(#mask1)">
<path d="M86.1133 79.2374C86.1133 79.2374 71.4357 51.3234 60.3283 49.0566C49.2209 46.7897 44.8704 68.7533 38.2236 65.8403C36.989 65.2992 30.1828 57.573 24.6877 59.7407C20.7352 61.2998 12.3109 79.3395 12.3109 79.3395H86.1133V79.2374Z" fill="#F8F9FA"/>
<path d="M37.5596 57.9391C38.8374 57.9391 39.8732 56.916 39.8732 55.654C39.8732 54.392 38.8374 53.3689 37.5596 53.3689C36.2819 53.3689 35.2461 54.392 35.2461 55.654C35.2461 56.916 36.2819 57.9391 37.5596 57.9391Z" fill="#F8F9FA"/>
</g>
</g>
<rect x="22" y="145" width="38" height="2" rx="1" fill="#D5DADF"/>
<rect x="22" y="165" width="32" height="2" rx="1" fill="#D5DADF"/>
<rect x="22" y="155" width="47" height="2" rx="1" fill="#D5DADF"/>
<rect x="22" y="150" width="53" height="2" rx="1" fill="#D5DADF"/>
<rect x="22" y="160" width="53" height="2" rx="1" fill="#D5DADF"/>
<mask id="mask2" mask-type="alpha" maskUnits="userSpaceOnUse" x="22" y="111" width="53" height="30">
<path fill-rule="evenodd" clip-rule="evenodd" d="M22 111H75V141H22V111Z" fill="white"/>
</mask>
<g mask="url(#mask2)">
<rect x="21.0918" y="108.377" width="56.0286" height="36.5771" fill="#E6E9EC"/>
<mask id="mask3" mask-type="alpha" maskUnits="userSpaceOnUse" x="21" y="108" width="57" height="37">
<rect x="21.0918" y="108.377" width="56.0286" height="36.5771" fill="white"/>
</mask>
<g mask="url(#mask3)">
<path d="M86.1133 148.237C86.1133 148.237 71.4357 120.323 60.3283 118.057C49.2209 115.79 44.8704 137.753 38.2236 134.84C36.989 134.299 30.1828 126.573 24.6877 128.741C20.7352 130.3 12.3109 148.34 12.3109 148.34H86.1133V148.237Z" fill="#F8F9FA"/>
<path d="M37.5596 126.939C38.8374 126.939 39.8732 125.916 39.8732 124.654C39.8732 123.392 38.8374 122.369 37.5596 122.369C36.2819 122.369 35.2461 123.392 35.2461 124.654C35.2461 125.916 36.2819 126.939 37.5596 126.939Z" fill="#F8F9FA"/>
</g>
</g>
<rect x="22" y="214" width="38" height="2" rx="1" fill="#D5DADF"/>
<rect x="22" y="219" width="53" height="2" rx="1" fill="#D5DADF"/>
<mask id="mask4" mask-type="alpha" maskUnits="userSpaceOnUse" x="22" y="180" width="53" height="30">
<path fill-rule="evenodd" clip-rule="evenodd" d="M22 180H75V210H22V180Z" fill="white"/>
</mask>
<g mask="url(#mask4)">
<rect x="21.0918" y="177.377" width="56.0286" height="36.5771" fill="#E6E9EC"/>
<mask id="mask5" mask-type="alpha" maskUnits="userSpaceOnUse" x="21" y="177" width="57" height="37">
<rect x="21.0918" y="177.377" width="56.0286" height="36.5771" fill="white"/>
</mask>
<g mask="url(#mask5)">
<path d="M86.1133 217.237C86.1133 217.237 71.4357 189.323 60.3283 187.057C49.2209 184.79 44.8704 206.753 38.2236 203.84C36.989 203.299 30.1828 195.573 24.6877 197.741C20.7352 199.3 12.3109 217.34 12.3109 217.34H86.1133V217.237Z" fill="#F8F9FA"/>
<path d="M37.5596 195.939C38.8374 195.939 39.8732 194.916 39.8732 193.654C39.8732 192.392 38.8374 191.369 37.5596 191.369C36.2819 191.369 35.2461 192.392 35.2461 193.654C35.2461 194.916 36.2819 195.939 37.5596 195.939Z" fill="#F8F9FA"/>
</g>
</g>
<rect x="88" y="76" width="38" height="2" rx="1" fill="#D5DADF"/>
<rect x="88" y="96" width="32" height="2" rx="1" fill="#D5DADF"/>
<rect x="88" y="86" width="47" height="2" rx="1" fill="#D5DADF"/>
<rect x="88" y="81" width="53" height="2" rx="1" fill="#D5DADF"/>
<rect x="88" y="91" width="53" height="2" rx="1" fill="#D5DADF"/>
<mask id="mask6" mask-type="alpha" maskUnits="userSpaceOnUse" x="88" y="42" width="53" height="30">
<path fill-rule="evenodd" clip-rule="evenodd" d="M88 42H141V72H88V42Z" fill="white"/>
</mask>
<g mask="url(#mask6)">
<rect x="87.0918" y="39.3774" width="56.0286" height="36.5771" fill="#E6E9EC"/>
<mask id="mask7" mask-type="alpha" maskUnits="userSpaceOnUse" x="87" y="39" width="57" height="37">
<rect x="87.0918" y="39.3774" width="56.0286" height="36.5771" fill="white"/>
</mask>
<g mask="url(#mask7)">
<path d="M152.113 79.2374C152.113 79.2374 137.436 51.3234 126.328 49.0566C115.221 46.7897 110.87 68.7533 104.224 65.8403C102.989 65.2992 96.1828 57.573 90.6877 59.7407C86.7352 61.2998 78.3109 79.3395 78.3109 79.3395H152.113V79.2374Z" fill="#F8F9FA"/>
<path d="M103.56 57.9391C104.837 57.9391 105.873 56.916 105.873 55.654C105.873 54.392 104.837 53.3689 103.56 53.3689C102.282 53.3689 101.246 54.392 101.246 55.654C101.246 56.916 102.282 57.9391 103.56 57.9391Z" fill="#F8F9FA"/>
</g>
</g>
<rect x="88" y="145" width="38" height="2" rx="1" fill="#D5DADF"/>
<rect x="88" y="165" width="32" height="2" rx="1" fill="#D5DADF"/>
<rect x="88" y="155" width="47" height="2" rx="1" fill="#D5DADF"/>
<rect x="88" y="150" width="53" height="2" rx="1" fill="#D5DADF"/>
<rect x="88" y="160" width="53" height="2" rx="1" fill="#D5DADF"/>
<mask id="mask8" mask-type="alpha" maskUnits="userSpaceOnUse" x="88" y="111" width="53" height="30">
<path fill-rule="evenodd" clip-rule="evenodd" d="M88 111H141V141H88V111Z" fill="white"/>
</mask>
<g mask="url(#mask8)">
<rect x="87.0918" y="108.377" width="56.0286" height="36.5771" fill="#E6E9EC"/>
<mask id="mask9" mask-type="alpha" maskUnits="userSpaceOnUse" x="87" y="108" width="57" height="37">
<rect x="87.0918" y="108.377" width="56.0286" height="36.5771" fill="white"/>
</mask>
<g mask="url(#mask9)">
<path d="M152.113 148.237C152.113 148.237 137.436 120.323 126.328 118.057C115.221 115.79 110.87 137.753 104.224 134.84C102.989 134.299 96.1828 126.573 90.6877 128.741C86.7352 130.3 78.3109 148.34 78.3109 148.34H152.113V148.237Z" fill="#F8F9FA"/>
<path d="M103.56 126.939C104.837 126.939 105.873 125.916 105.873 124.654C105.873 123.392 104.837 122.369 103.56 122.369C102.282 122.369 101.246 123.392 101.246 124.654C101.246 125.916 102.282 126.939 103.56 126.939Z" fill="#F8F9FA"/>
</g>
</g>
<rect x="88" y="214" width="38" height="2" rx="1" fill="#D5DADF"/>
<rect x="88" y="219" width="53" height="2" rx="1" fill="#D5DADF"/>
<mask id="mask10" mask-type="alpha" maskUnits="userSpaceOnUse" x="88" y="180" width="53" height="30">
<path fill-rule="evenodd" clip-rule="evenodd" d="M88 180H141V210H88V180Z" fill="white"/>
</mask>
<g mask="url(#mask10)">
<rect x="87.0918" y="177.377" width="56.0286" height="36.5771" fill="#E6E9EC"/>
<mask id="mask11" mask-type="alpha" maskUnits="userSpaceOnUse" x="87" y="177" width="57" height="37">
<rect x="87.0918" y="177.377" width="56.0286" height="36.5771" fill="white"/>
</mask>
<g mask="url(#mask11)">
<path d="M152.113 217.237C152.113 217.237 137.436 189.323 126.328 187.057C115.221 184.79 110.87 206.753 104.224 203.84C102.989 203.299 96.1828 195.573 90.6877 197.741C86.7352 199.3 78.3109 217.34 78.3109 217.34H152.113V217.237Z" fill="#F8F9FA"/>
<path d="M103.56 195.939C104.837 195.939 105.873 194.916 105.873 193.654C105.873 192.392 104.837 191.369 103.56 191.369C102.282 191.369 101.246 192.392 101.246 193.654C101.246 194.916 102.282 195.939 103.56 195.939Z" fill="#F8F9FA"/>
</g>
</g>
<rect x="154" y="76" width="38" height="2" rx="1" fill="#D5DADF"/>
<rect x="154" y="96" width="32" height="2" rx="1" fill="#D5DADF"/>
<rect x="154" y="86" width="47" height="2" rx="1" fill="#D5DADF"/>
<rect x="154" y="81" width="53" height="2" rx="1" fill="#D5DADF"/>
<rect x="154" y="91" width="53" height="2" rx="1" fill="#D5DADF"/>
<mask id="mask12" mask-type="alpha" maskUnits="userSpaceOnUse" x="154" y="42" width="53" height="30">
<path fill-rule="evenodd" clip-rule="evenodd" d="M154 42H207V72H154V42Z" fill="white"/>
</mask>
<g mask="url(#mask12)">
<rect x="153.092" y="39.3774" width="56.0286" height="36.5771" fill="#E6E9EC"/>
<mask id="mask13" mask-type="alpha" maskUnits="userSpaceOnUse" x="153" y="39" width="57" height="37">
<rect x="153.092" y="39.3774" width="56.0286" height="36.5771" fill="white"/>
</mask>
<g mask="url(#mask13)">
<path d="M218.113 79.2374C218.113 79.2374 203.436 51.3234 192.328 49.0566C181.221 46.7897 176.87 68.7533 170.224 65.8403C168.989 65.2992 162.183 57.573 156.688 59.7407C152.735 61.2998 144.311 79.3395 144.311 79.3395H218.113V79.2374Z" fill="#F8F9FA"/>
<path d="M169.56 57.9391C170.837 57.9391 171.873 56.916 171.873 55.654C171.873 54.392 170.837 53.3689 169.56 53.3689C168.282 53.3689 167.246 54.392 167.246 55.654C167.246 56.916 168.282 57.9391 169.56 57.9391Z" fill="#F8F9FA"/>
</g>
</g>
<rect x="154" y="145" width="38" height="2" rx="1" fill="#D5DADF"/>
<rect x="154" y="165" width="32" height="2" rx="1" fill="#D5DADF"/>
<rect x="154" y="155" width="47" height="2" rx="1" fill="#D5DADF"/>
<rect x="154" y="150" width="53" height="2" rx="1" fill="#D5DADF"/>
<rect x="154" y="160" width="53" height="2" rx="1" fill="#D5DADF"/>
<mask id="mask14" mask-type="alpha" maskUnits="userSpaceOnUse" x="154" y="111" width="53" height="30">
<path fill-rule="evenodd" clip-rule="evenodd" d="M154 111H207V141H154V111Z" fill="white"/>
</mask>
<g mask="url(#mask14)">
<rect x="153.092" y="108.377" width="56.0286" height="36.5771" fill="#E6E9EC"/>
<mask id="mask15" mask-type="alpha" maskUnits="userSpaceOnUse" x="153" y="108" width="57" height="37">
<rect x="153.092" y="108.377" width="56.0286" height="36.5771" fill="white"/>
</mask>
<g mask="url(#mask15)">
<path d="M218.113 148.237C218.113 148.237 203.436 120.323 192.328 118.057C181.221 115.79 176.87 137.753 170.224 134.84C168.989 134.299 162.183 126.573 156.688 128.741C152.735 130.3 144.311 148.34 144.311 148.34H218.113V148.237Z" fill="#F8F9FA"/>
<path d="M169.56 126.939C170.837 126.939 171.873 125.916 171.873 124.654C171.873 123.392 170.837 122.369 169.56 122.369C168.282 122.369 167.246 123.392 167.246 124.654C167.246 125.916 168.282 126.939 169.56 126.939Z" fill="#F8F9FA"/>
</g>
</g>
<rect x="154" y="214" width="38" height="2" rx="1" fill="#D5DADF"/>
<rect x="154" y="219" width="53" height="2" rx="1" fill="#D5DADF"/>
<mask id="mask16" mask-type="alpha" maskUnits="userSpaceOnUse" x="154" y="180" width="53" height="30">
<path fill-rule="evenodd" clip-rule="evenodd" d="M154 180H207V210H154V180Z" fill="white"/>
</mask>
<g mask="url(#mask16)">
<rect x="153.092" y="177.377" width="56.0286" height="36.5771" fill="#E6E9EC"/>
<mask id="mask17" mask-type="alpha" maskUnits="userSpaceOnUse" x="153" y="177" width="57" height="37">
<rect x="153.092" y="177.377" width="56.0286" height="36.5771" fill="white"/>
</mask>
<g mask="url(#mask17)">
<path d="M218.113 217.237C218.113 217.237 203.436 189.323 192.328 187.057C181.221 184.79 176.87 206.753 170.224 203.84C168.989 203.299 162.183 195.573 156.688 197.741C152.735 199.3 144.311 217.34 144.311 217.34H218.113V217.237Z" fill="#F8F9FA"/>
<path d="M169.56 195.939C170.837 195.939 171.873 194.916 171.873 193.654C171.873 192.392 170.837 191.369 169.56 191.369C168.282 191.369 167.246 192.392 167.246 193.654C167.246 194.916 168.282 195.939 169.56 195.939Z" fill="#F8F9FA"/>
</g>
</g>
</svg>
