<svg width="230" height="223" viewBox="0 0 230 223" fill="none" xmlns="http://www.w3.org/2000/svg">
<rect y="0.171875" width="229.827" height="222" fill="white"/>
<path d="M71.958 26.3584V29H70.7227V21.8906H73.4424C74.2367 21.8906 74.8665 22.0973 75.332 22.5107C75.8008 22.9242 76.0352 23.471 76.0352 24.1514C76.0352 24.848 75.8057 25.39 75.3467 25.7773C74.891 26.1647 74.2513 26.3584 73.4277 26.3584H71.958ZM71.958 25.3672H73.4424C73.8818 25.3672 74.2171 25.2646 74.4482 25.0596C74.6794 24.8512 74.7949 24.5518 74.7949 24.1611C74.7949 23.777 74.6777 23.471 74.4434 23.2432C74.209 23.012 73.8867 22.8932 73.4766 22.8867H71.958V25.3672ZM80.1025 29C80.0505 28.8991 80.0049 28.7347 79.9658 28.5068C79.5882 28.9007 79.126 29.0977 78.5791 29.0977C78.0485 29.0977 77.6156 28.9463 77.2803 28.6436C76.945 28.3408 76.7773 27.9665 76.7773 27.5205C76.7773 26.9574 76.9857 26.526 77.4023 26.2266C77.8223 25.9238 78.4212 25.7725 79.1992 25.7725H79.9268V25.4258C79.9268 25.1523 79.8503 24.9342 79.6973 24.7715C79.5443 24.6055 79.3115 24.5225 78.999 24.5225C78.7288 24.5225 78.5075 24.5908 78.335 24.7275C78.1624 24.861 78.0762 25.0319 78.0762 25.2402H76.8896C76.8896 24.9505 76.9857 24.6803 77.1777 24.4297C77.3698 24.1758 77.6302 23.9772 77.959 23.834C78.291 23.6908 78.6605 23.6191 79.0674 23.6191C79.6859 23.6191 80.179 23.7754 80.5469 24.0879C80.9147 24.3971 81.1035 24.8333 81.1133 25.3965V27.7793C81.1133 28.2546 81.18 28.6338 81.3135 28.917V29H80.1025ZM78.7988 28.1455C79.0332 28.1455 79.2529 28.0885 79.458 27.9746C79.6663 27.8607 79.8226 27.7077 79.9268 27.5156V26.5195H79.2871C78.8477 26.5195 78.5173 26.596 78.2959 26.749C78.0745 26.902 77.9639 27.1185 77.9639 27.3984C77.9639 27.6263 78.0387 27.8086 78.1885 27.9453C78.3415 28.0788 78.5449 28.1455 78.7988 28.1455ZM82.1484 26.3193C82.1484 25.499 82.3405 24.8447 82.7246 24.3564C83.112 23.8649 83.6247 23.6191 84.2627 23.6191C84.8649 23.6191 85.3385 23.8291 85.6836 24.249L85.7373 23.7168H86.8066V28.8389C86.8066 29.5322 86.5902 30.0791 86.1572 30.4795C85.7275 30.8799 85.1465 31.0801 84.4141 31.0801C84.0267 31.0801 83.6475 30.9987 83.2764 30.8359C82.9085 30.6764 82.6286 30.4665 82.4365 30.2061L82.998 29.4932C83.3626 29.9261 83.8118 30.1426 84.3457 30.1426C84.7396 30.1426 85.0505 30.0352 85.2783 29.8203C85.5062 29.6087 85.6201 29.2962 85.6201 28.8828V28.5264C85.2783 28.9072 84.8226 29.0977 84.2529 29.0977C83.6344 29.0977 83.1283 28.8519 82.7344 28.3604C82.3438 27.8688 82.1484 27.1885 82.1484 26.3193ZM83.3301 26.4219C83.3301 26.9525 83.4375 27.3708 83.6523 27.6768C83.8704 27.9795 84.1715 28.1309 84.5557 28.1309C85.0342 28.1309 85.389 27.9258 85.6201 27.5156V25.1914C85.3955 24.791 85.0439 24.5908 84.5654 24.5908C84.1748 24.5908 83.8704 24.7454 83.6523 25.0547C83.4375 25.3639 83.3301 25.8197 83.3301 26.4219ZM90.3564 29.0977C89.6045 29.0977 88.9941 28.8617 88.5254 28.3896C88.0599 27.9144 87.8271 27.2829 87.8271 26.4951V26.3486C87.8271 25.8213 87.9281 25.3509 88.1299 24.9375C88.335 24.5208 88.6214 24.1969 88.9893 23.9658C89.3571 23.7347 89.7673 23.6191 90.2197 23.6191C90.9391 23.6191 91.4941 23.8486 91.8848 24.3076C92.2786 24.7666 92.4756 25.416 92.4756 26.2559V26.7344H89.0234C89.0592 27.1706 89.2041 27.5156 89.458 27.7695C89.7152 28.0234 90.0374 28.1504 90.4248 28.1504C90.9684 28.1504 91.4111 27.9307 91.7529 27.4912L92.3926 28.1016C92.181 28.4173 91.8978 28.6631 91.543 28.8389C91.1914 29.0114 90.7959 29.0977 90.3564 29.0977ZM90.2148 24.5713C89.8893 24.5713 89.6257 24.6852 89.4238 24.9131C89.2253 25.141 89.0983 25.4583 89.043 25.8652H91.3037V25.7773C91.2777 25.3802 91.1719 25.0807 90.9863 24.8789C90.8008 24.6738 90.5436 24.5713 90.2148 24.5713ZM100.532 27.3643L101.372 23.7168H102.529L101.089 29H100.112L98.9795 25.3721L97.8662 29H96.8896L95.4443 23.7168H96.6016L97.4561 27.3252L98.54 23.7168H99.4336L100.532 27.3643ZM106.479 29C106.427 28.8991 106.382 28.7347 106.343 28.5068C105.965 28.9007 105.503 29.0977 104.956 29.0977C104.425 29.0977 103.993 28.9463 103.657 28.6436C103.322 28.3408 103.154 27.9665 103.154 27.5205C103.154 26.9574 103.363 26.526 103.779 26.2266C104.199 25.9238 104.798 25.7725 105.576 25.7725H106.304V25.4258C106.304 25.1523 106.227 24.9342 106.074 24.7715C105.921 24.6055 105.688 24.5225 105.376 24.5225C105.106 24.5225 104.884 24.5908 104.712 24.7275C104.539 24.861 104.453 25.0319 104.453 25.2402H103.267C103.267 24.9505 103.363 24.6803 103.555 24.4297C103.747 24.1758 104.007 23.9772 104.336 23.834C104.668 23.6908 105.037 23.6191 105.444 23.6191C106.063 23.6191 106.556 23.7754 106.924 24.0879C107.292 24.3971 107.48 24.8333 107.49 25.3965V27.7793C107.49 28.2546 107.557 28.6338 107.69 28.917V29H106.479ZM105.176 28.1455C105.41 28.1455 105.63 28.0885 105.835 27.9746C106.043 27.8607 106.2 27.7077 106.304 27.5156V26.5195H105.664C105.225 26.5195 104.894 26.596 104.673 26.749C104.451 26.902 104.341 27.1185 104.341 27.3984C104.341 27.6263 104.416 27.8086 104.565 27.9453C104.718 28.0788 104.922 28.1455 105.176 28.1455ZM111.694 27.5645C111.694 27.3529 111.606 27.1917 111.431 27.0811C111.258 26.9704 110.97 26.8727 110.566 26.7881C110.163 26.7035 109.826 26.596 109.556 26.4658C108.963 26.1794 108.667 25.7643 108.667 25.2207C108.667 24.765 108.859 24.3841 109.243 24.0781C109.627 23.7721 110.116 23.6191 110.708 23.6191C111.34 23.6191 111.849 23.7754 112.236 24.0879C112.627 24.4004 112.822 24.8057 112.822 25.3037H111.636C111.636 25.0758 111.551 24.887 111.382 24.7373C111.213 24.5843 110.988 24.5078 110.708 24.5078C110.448 24.5078 110.234 24.568 110.068 24.6885C109.906 24.8089 109.824 24.9701 109.824 25.1719C109.824 25.3542 109.901 25.4958 110.054 25.5967C110.207 25.6976 110.516 25.8001 110.981 25.9043C111.447 26.0052 111.812 26.1273 112.075 26.2705C112.342 26.4105 112.539 26.5798 112.666 26.7783C112.796 26.9769 112.861 27.2178 112.861 27.501C112.861 27.9762 112.664 28.362 112.271 28.6582C111.877 28.9512 111.361 29.0977 110.723 29.0977C110.29 29.0977 109.904 29.0195 109.565 28.8633C109.227 28.707 108.963 28.4922 108.774 28.2188C108.586 27.9453 108.491 27.6507 108.491 27.335H109.644C109.66 27.6149 109.766 27.8314 109.961 27.9844C110.156 28.1341 110.415 28.209 110.737 28.209C111.05 28.209 111.287 28.1504 111.45 28.0332C111.613 27.9128 111.694 27.7565 111.694 27.5645ZM117.49 23.7168L117.524 24.3271C117.915 23.8551 118.428 23.6191 119.062 23.6191C120.163 23.6191 120.723 24.249 120.742 25.5088V29H119.556V25.5771C119.556 25.2419 119.482 24.9945 119.336 24.835C119.193 24.6722 118.957 24.5908 118.628 24.5908C118.149 24.5908 117.793 24.8073 117.559 25.2402V29H116.372V23.7168H117.49ZM121.733 26.3096C121.733 25.792 121.836 25.3265 122.041 24.9131C122.246 24.4964 122.534 24.1774 122.905 23.9561C123.276 23.7314 123.703 23.6191 124.185 23.6191C124.897 23.6191 125.475 23.8486 125.918 24.3076C126.364 24.7666 126.605 25.3753 126.641 26.1338L126.646 26.4121C126.646 26.9329 126.545 27.3984 126.343 27.8086C126.144 28.2188 125.858 28.5361 125.483 28.7607C125.112 28.9854 124.683 29.0977 124.194 29.0977C123.449 29.0977 122.852 28.8503 122.402 28.3555C121.956 27.8574 121.733 27.195 121.733 26.3682V26.3096ZM122.92 26.4121C122.92 26.9557 123.032 27.3822 123.257 27.6914C123.481 27.9974 123.794 28.1504 124.194 28.1504C124.595 28.1504 124.906 27.9941 125.127 27.6816C125.352 27.3691 125.464 26.9118 125.464 26.3096C125.464 25.7757 125.348 25.3525 125.117 25.04C124.889 24.7275 124.578 24.5713 124.185 24.5713C123.797 24.5713 123.49 24.7259 123.262 25.0352C123.034 25.3411 122.92 25.8001 122.92 26.4121ZM129.136 22.4326V23.7168H130.068V24.5957H129.136V27.5449C129.136 27.7467 129.175 27.8932 129.253 27.9844C129.334 28.0723 129.478 28.1162 129.683 28.1162C129.819 28.1162 129.958 28.0999 130.098 28.0674V28.9854C129.827 29.0602 129.567 29.0977 129.316 29.0977C128.405 29.0977 127.949 28.5947 127.949 27.5889V24.5957H127.08V23.7168H127.949V22.4326H129.136ZM133.887 29V24.5957H133.081V23.7168H133.887V23.2334C133.887 22.6475 134.049 22.195 134.375 21.876C134.701 21.557 135.156 21.3975 135.742 21.3975C135.951 21.3975 136.172 21.4268 136.406 21.4854L136.377 22.4131C136.247 22.387 136.095 22.374 135.923 22.374C135.356 22.374 135.073 22.6654 135.073 23.248V23.7168H136.147V24.5957H135.073V29H133.887ZM136.792 26.3096C136.792 25.792 136.895 25.3265 137.1 24.9131C137.305 24.4964 137.593 24.1774 137.964 23.9561C138.335 23.7314 138.761 23.6191 139.243 23.6191C139.956 23.6191 140.534 23.8486 140.977 24.3076C141.423 24.7666 141.663 25.3753 141.699 26.1338L141.704 26.4121C141.704 26.9329 141.603 27.3984 141.401 27.8086C141.203 28.2188 140.916 28.5361 140.542 28.7607C140.171 28.9854 139.741 29.0977 139.253 29.0977C138.507 29.0977 137.91 28.8503 137.461 28.3555C137.015 27.8574 136.792 27.195 136.792 26.3682V26.3096ZM137.979 26.4121C137.979 26.9557 138.091 27.3822 138.315 27.6914C138.54 27.9974 138.853 28.1504 139.253 28.1504C139.653 28.1504 139.964 27.9941 140.186 27.6816C140.41 27.3691 140.522 26.9118 140.522 26.3096C140.522 25.7757 140.407 25.3525 140.176 25.04C139.948 24.7275 139.637 24.5713 139.243 24.5713C138.856 24.5713 138.548 24.7259 138.32 25.0352C138.092 25.3411 137.979 25.8001 137.979 26.4121ZM145.908 28.4824C145.56 28.8926 145.065 29.0977 144.424 29.0977C143.851 29.0977 143.416 28.93 143.12 28.5947C142.827 28.2594 142.681 27.7744 142.681 27.1396V23.7168H143.867V27.125C143.867 27.7956 144.146 28.1309 144.702 28.1309C145.278 28.1309 145.667 27.9242 145.869 27.5107V23.7168H147.056V29H145.938L145.908 28.4824ZM149.365 23.7168L149.399 24.3271C149.79 23.8551 150.303 23.6191 150.938 23.6191C152.038 23.6191 152.598 24.249 152.617 25.5088V29H151.431V25.5771C151.431 25.2419 151.357 24.9945 151.211 24.835C151.068 24.6722 150.832 24.5908 150.503 24.5908C150.024 24.5908 149.668 24.8073 149.434 25.2402V29H148.247V23.7168H149.365ZM153.608 26.3193C153.608 25.5055 153.797 24.8529 154.175 24.3613C154.552 23.8665 155.059 23.6191 155.693 23.6191C156.253 23.6191 156.706 23.8145 157.051 24.2051V21.5H158.237V29H157.163L157.104 28.4531C156.75 28.8828 156.276 29.0977 155.684 29.0977C155.065 29.0977 154.564 28.8486 154.18 28.3506C153.799 27.8525 153.608 27.1755 153.608 26.3193ZM154.795 26.4219C154.795 26.959 154.897 27.3789 155.103 27.6816C155.311 27.9811 155.605 28.1309 155.986 28.1309C156.471 28.1309 156.826 27.9144 157.051 27.4814V25.2256C156.833 24.8024 156.481 24.5908 155.996 24.5908C155.612 24.5908 155.316 24.7438 155.107 25.0498C154.899 25.3525 154.795 25.8099 154.795 26.4219Z" fill="#A4AFB7"/>
<path d="M90.2754 87.7949H95.5781V93.5078H90.2754V103H83.1562V93.5078H64.7285L64.5234 89.1719L82.9219 60.3438H90.2754V87.7949ZM71.9941 87.7949H83.1562V69.9824L82.6289 70.9199L71.9941 87.7949ZM128.098 85.041C128.098 91.1738 126.945 95.8027 124.641 98.9277C122.355 102.033 118.869 103.586 114.182 103.586C109.572 103.586 106.096 102.072 103.752 99.0449C101.428 95.998 100.236 91.4961 100.178 85.5391V78.1562C100.178 72.0234 101.32 67.4238 103.605 64.3574C105.91 61.291 109.416 59.7578 114.123 59.7578C118.791 59.7578 122.268 61.252 124.553 64.2402C126.857 67.2285 128.039 71.7012 128.098 77.6582V85.041ZM120.979 77.0723C120.979 73.0684 120.432 70.1387 119.338 68.2832C118.244 66.4082 116.506 65.4707 114.123 65.4707C111.799 65.4707 110.09 66.3594 108.996 68.1367C107.902 69.8945 107.326 72.6484 107.268 76.3984V86.0664C107.268 90.0508 107.824 93.0195 108.938 94.9727C110.051 96.9258 111.799 97.9023 114.182 97.9023C116.467 97.9023 118.156 97.0039 119.25 95.207C120.344 93.3906 120.92 90.5586 120.979 86.7109V77.0723ZM158.479 87.7949H163.781V93.5078H158.479V103H151.359V93.5078H132.932L132.727 89.1719L151.125 60.3438H158.479V87.7949ZM140.197 87.7949H151.359V69.9824L150.832 70.9199L140.197 87.7949Z" fill="#A4AFB7"/>
</svg>
