<svg width="229" height="222" viewBox="0 0 229 222" fill="none" xmlns="http://www.w3.org/2000/svg">
<rect x="0.327703" y="0.327703" width="228.345" height="221.345" fill="white" stroke="#F1F3F5" stroke-width="0.655405"/>
<rect x="0.327703" y="182.328" width="228.345" height="39.3446" fill="#F1F3F5" stroke="#F1F3F5" stroke-width="0.655405"/>
<rect x="62" y="192" width="26" height="2" rx="1" fill="#D5DADF"/>
<rect x="62" y="204" width="26" height="2" rx="1" fill="#D5DADF"/>
<rect x="138" y="192" width="26" height="2" rx="1" fill="#D5DADF"/>
<rect x="138" y="204" width="26" height="2" rx="1" fill="#D5DADF"/>
<rect x="101" y="198" width="26" height="2" rx="1" fill="#D5DADF"/>
<rect x="101" y="210" width="26" height="2" rx="1" fill="#D5DADF"/>
<rect x="178" y="198" width="26" height="2" rx="1" fill="#D5DADF"/>
<rect x="178" y="210" width="26" height="2" rx="1" fill="#D5DADF"/>
<rect x="101" y="192" width="22" height="2" rx="1" fill="#D5DADF"/>
<rect x="101" y="204" width="22" height="2" rx="1" fill="#D5DADF"/>
<rect x="178" y="192" width="22" height="2" rx="1" fill="#D5DADF"/>
<rect x="178" y="204" width="22" height="2" rx="1" fill="#D5DADF"/>
<rect x="138" y="198" width="22" height="2" rx="1" fill="#D5DADF"/>
<rect x="138" y="210" width="22" height="2" rx="1" fill="#D5DADF"/>
<rect x="62" y="198" width="22" height="2" rx="1" fill="#D5DADF"/>
<rect x="62" y="211" width="22" height="2" rx="1" fill="#D5DADF"/>
<path d="M9.95801 198.014H13.1855V199H8.72266V191.891H9.95801V198.014ZM13.7959 196.31C13.7959 195.792 13.8984 195.326 14.1035 194.913C14.3086 194.496 14.5967 194.177 14.9678 193.956C15.3389 193.731 15.7653 193.619 16.2471 193.619C16.96 193.619 17.5378 193.849 17.9805 194.308C18.4264 194.767 18.6673 195.375 18.7031 196.134L18.708 196.412C18.708 196.933 18.6071 197.398 18.4053 197.809C18.2067 198.219 17.9202 198.536 17.5459 198.761C17.1748 198.985 16.7451 199.098 16.2568 199.098C15.5114 199.098 14.9141 198.85 14.4648 198.355C14.0189 197.857 13.7959 197.195 13.7959 196.368V196.31ZM14.9824 196.412C14.9824 196.956 15.0947 197.382 15.3193 197.691C15.5439 197.997 15.8564 198.15 16.2568 198.15C16.6572 198.15 16.9681 197.994 17.1895 197.682C17.4141 197.369 17.5264 196.912 17.5264 196.31C17.5264 195.776 17.4108 195.353 17.1797 195.04C16.9518 194.728 16.641 194.571 16.2471 194.571C15.8597 194.571 15.5521 194.726 15.3242 195.035C15.0964 195.341 14.9824 195.8 14.9824 196.412ZM19.5039 196.319C19.5039 195.499 19.696 194.845 20.0801 194.356C20.4674 193.865 20.9801 193.619 21.6182 193.619C22.2204 193.619 22.694 193.829 23.0391 194.249L23.0928 193.717H24.1621V198.839C24.1621 199.532 23.9456 200.079 23.5127 200.479C23.083 200.88 22.502 201.08 21.7695 201.08C21.3822 201.08 21.0029 200.999 20.6318 200.836C20.264 200.676 19.984 200.466 19.792 200.206L20.3535 199.493C20.7181 199.926 21.1673 200.143 21.7012 200.143C22.0951 200.143 22.4059 200.035 22.6338 199.82C22.8617 199.609 22.9756 199.296 22.9756 198.883V198.526C22.6338 198.907 22.1781 199.098 21.6084 199.098C20.9899 199.098 20.4837 198.852 20.0898 198.36C19.6992 197.869 19.5039 197.188 19.5039 196.319ZM20.6855 196.422C20.6855 196.952 20.793 197.371 21.0078 197.677C21.2259 197.979 21.527 198.131 21.9111 198.131C22.3896 198.131 22.7445 197.926 22.9756 197.516V195.191C22.751 194.791 22.3994 194.591 21.9209 194.591C21.5303 194.591 21.2259 194.745 21.0078 195.055C20.793 195.364 20.6855 195.82 20.6855 196.422ZM25.1631 196.31C25.1631 195.792 25.2656 195.326 25.4707 194.913C25.6758 194.496 25.9639 194.177 26.335 193.956C26.7061 193.731 27.1325 193.619 27.6143 193.619C28.3271 193.619 28.9049 193.849 29.3477 194.308C29.7936 194.767 30.0345 195.375 30.0703 196.134L30.0752 196.412C30.0752 196.933 29.9743 197.398 29.7725 197.809C29.5739 198.219 29.2874 198.536 28.9131 198.761C28.542 198.985 28.1123 199.098 27.624 199.098C26.8786 199.098 26.2812 198.85 25.832 198.355C25.3861 197.857 25.1631 197.195 25.1631 196.368V196.31ZM26.3496 196.412C26.3496 196.956 26.4619 197.382 26.6865 197.691C26.9111 197.997 27.2236 198.15 27.624 198.15C28.0244 198.15 28.3353 197.994 28.5566 197.682C28.7812 197.369 28.8936 196.912 28.8936 196.31C28.8936 195.776 28.778 195.353 28.5469 195.04C28.319 194.728 28.0081 194.571 27.6143 194.571C27.2269 194.571 26.9193 194.726 26.6914 195.035C26.4635 195.341 26.3496 195.8 26.3496 196.412Z" fill="#A4AFB7"/>
</svg>
