<svg width="229" height="222" viewBox="0 0 229 222" fill="none" xmlns="http://www.w3.org/2000/svg">
<rect x="0.327703" y="0.327703" width="228.345" height="221.345" fill="white" stroke="#F1F3F5" stroke-width="0.655405"/>
<rect x="0.327703" y="0.327703" width="228.345" height="19.3446" fill="#E6E9EC" stroke="#F1F3F5" stroke-width="0.655405"/>
<rect x="0.327703" y="0.327703" width="228.345" height="19.3446" fill="#F1F3F5" stroke="#F1F3F5" stroke-width="0.655405"/>
<rect x="50" y="10" width="22" height="2" rx="1" fill="#D5DADF"/>
<rect x="50" y="10" width="22" height="2" rx="1" fill="#D5DADF"/>
<rect x="110" y="10" width="22" height="2" rx="1" fill="#D5DADF"/>
<rect x="110" y="10" width="22" height="2" rx="1" fill="#D5DADF"/>
<rect x="80" y="10" width="22" height="2" rx="1" fill="#D5DADF"/>
<rect x="80" y="10" width="22" height="2" rx="1" fill="#D5DADF"/>
<rect x="140" y="10" width="22" height="2" rx="1" fill="#D5DADF"/>
<rect x="140" y="10" width="22" height="2" rx="1" fill="#D5DADF"/>
<rect x="170" y="10" width="22" height="2" rx="1" fill="#D5DADF"/>
<path d="M9.95801 12.0137H13.1855V13H8.72266V5.89062H9.95801V12.0137ZM13.7959 10.3096C13.7959 9.79199 13.8984 9.3265 14.1035 8.91309C14.3086 8.49642 14.5967 8.17741 14.9678 7.95605C15.3389 7.73145 15.7653 7.61914 16.2471 7.61914C16.96 7.61914 17.5378 7.84863 17.9805 8.30762C18.4264 8.7666 18.6673 9.37533 18.7031 10.1338L18.708 10.4121C18.708 10.9329 18.6071 11.3984 18.4053 11.8086C18.2067 12.2188 17.9202 12.5361 17.5459 12.7607C17.1748 12.9854 16.7451 13.0977 16.2568 13.0977C15.5114 13.0977 14.9141 12.8503 14.4648 12.3555C14.0189 11.8574 13.7959 11.195 13.7959 10.3682V10.3096ZM14.9824 10.4121C14.9824 10.9557 15.0947 11.3822 15.3193 11.6914C15.5439 11.9974 15.8564 12.1504 16.2568 12.1504C16.6572 12.1504 16.9681 11.9941 17.1895 11.6816C17.4141 11.3691 17.5264 10.9118 17.5264 10.3096C17.5264 9.77572 17.4108 9.35254 17.1797 9.04004C16.9518 8.72754 16.641 8.57129 16.2471 8.57129C15.8597 8.57129 15.5521 8.72591 15.3242 9.03516C15.0964 9.34115 14.9824 9.80013 14.9824 10.4121ZM19.5039 10.3193C19.5039 9.49902 19.696 8.84473 20.0801 8.35645C20.4674 7.86491 20.9801 7.61914 21.6182 7.61914C22.2204 7.61914 22.694 7.8291 23.0391 8.24902L23.0928 7.7168H24.1621V12.8389C24.1621 13.5322 23.9456 14.0791 23.5127 14.4795C23.083 14.8799 22.502 15.0801 21.7695 15.0801C21.3822 15.0801 21.0029 14.9987 20.6318 14.8359C20.264 14.6764 19.984 14.4665 19.792 14.2061L20.3535 13.4932C20.7181 13.9261 21.1673 14.1426 21.7012 14.1426C22.0951 14.1426 22.4059 14.0352 22.6338 13.8203C22.8617 13.6087 22.9756 13.2962 22.9756 12.8828V12.5264C22.6338 12.9072 22.1781 13.0977 21.6084 13.0977C20.9899 13.0977 20.4837 12.8519 20.0898 12.3604C19.6992 11.8688 19.5039 11.1885 19.5039 10.3193ZM20.6855 10.4219C20.6855 10.9525 20.793 11.3708 21.0078 11.6768C21.2259 11.9795 21.527 12.1309 21.9111 12.1309C22.3896 12.1309 22.7445 11.9258 22.9756 11.5156V9.19141C22.751 8.79102 22.3994 8.59082 21.9209 8.59082C21.5303 8.59082 21.2259 8.74544 21.0078 9.05469C20.793 9.36393 20.6855 9.81966 20.6855 10.4219ZM25.1631 10.3096C25.1631 9.79199 25.2656 9.3265 25.4707 8.91309C25.6758 8.49642 25.9639 8.17741 26.335 7.95605C26.7061 7.73145 27.1325 7.61914 27.6143 7.61914C28.3271 7.61914 28.9049 7.84863 29.3477 8.30762C29.7936 8.7666 30.0345 9.37533 30.0703 10.1338L30.0752 10.4121C30.0752 10.9329 29.9743 11.3984 29.7725 11.8086C29.5739 12.2188 29.2874 12.5361 28.9131 12.7607C28.542 12.9854 28.1123 13.0977 27.624 13.0977C26.8786 13.0977 26.2812 12.8503 25.832 12.3555C25.3861 11.8574 25.1631 11.195 25.1631 10.3682V10.3096ZM26.3496 10.4121C26.3496 10.9557 26.4619 11.3822 26.6865 11.6914C26.9111 11.9974 27.2236 12.1504 27.624 12.1504C28.0244 12.1504 28.3353 11.9941 28.5566 11.6816C28.7812 11.3691 28.8936 10.9118 28.8936 10.3096C28.8936 9.77572 28.778 9.35254 28.5469 9.04004C28.319 8.72754 28.0081 8.57129 27.6143 8.57129C27.2269 8.57129 26.9193 8.72591 26.6914 9.03516C26.4635 9.34115 26.3496 9.80013 26.3496 10.4121Z" fill="#C2CBD2"/>
<path d="M9.95801 12.0137H13.1855V13H8.72266V5.89062H9.95801V12.0137ZM13.7959 10.3096C13.7959 9.79199 13.8984 9.3265 14.1035 8.91309C14.3086 8.49642 14.5967 8.17741 14.9678 7.95605C15.3389 7.73145 15.7653 7.61914 16.2471 7.61914C16.96 7.61914 17.5378 7.84863 17.9805 8.30762C18.4264 8.7666 18.6673 9.37533 18.7031 10.1338L18.708 10.4121C18.708 10.9329 18.6071 11.3984 18.4053 11.8086C18.2067 12.2188 17.9202 12.5361 17.5459 12.7607C17.1748 12.9854 16.7451 13.0977 16.2568 13.0977C15.5114 13.0977 14.9141 12.8503 14.4648 12.3555C14.0189 11.8574 13.7959 11.195 13.7959 10.3682V10.3096ZM14.9824 10.4121C14.9824 10.9557 15.0947 11.3822 15.3193 11.6914C15.5439 11.9974 15.8564 12.1504 16.2568 12.1504C16.6572 12.1504 16.9681 11.9941 17.1895 11.6816C17.4141 11.3691 17.5264 10.9118 17.5264 10.3096C17.5264 9.77572 17.4108 9.35254 17.1797 9.04004C16.9518 8.72754 16.641 8.57129 16.2471 8.57129C15.8597 8.57129 15.5521 8.72591 15.3242 9.03516C15.0964 9.34115 14.9824 9.80013 14.9824 10.4121ZM19.5039 10.3193C19.5039 9.49902 19.696 8.84473 20.0801 8.35645C20.4674 7.86491 20.9801 7.61914 21.6182 7.61914C22.2204 7.61914 22.694 7.8291 23.0391 8.24902L23.0928 7.7168H24.1621V12.8389C24.1621 13.5322 23.9456 14.0791 23.5127 14.4795C23.083 14.8799 22.502 15.0801 21.7695 15.0801C21.3822 15.0801 21.0029 14.9987 20.6318 14.8359C20.264 14.6764 19.984 14.4665 19.792 14.2061L20.3535 13.4932C20.7181 13.9261 21.1673 14.1426 21.7012 14.1426C22.0951 14.1426 22.4059 14.0352 22.6338 13.8203C22.8617 13.6087 22.9756 13.2962 22.9756 12.8828V12.5264C22.6338 12.9072 22.1781 13.0977 21.6084 13.0977C20.9899 13.0977 20.4837 12.8519 20.0898 12.3604C19.6992 11.8688 19.5039 11.1885 19.5039 10.3193ZM20.6855 10.4219C20.6855 10.9525 20.793 11.3708 21.0078 11.6768C21.2259 11.9795 21.527 12.1309 21.9111 12.1309C22.3896 12.1309 22.7445 11.9258 22.9756 11.5156V9.19141C22.751 8.79102 22.3994 8.59082 21.9209 8.59082C21.5303 8.59082 21.2259 8.74544 21.0078 9.05469C20.793 9.36393 20.6855 9.81966 20.6855 10.4219ZM25.1631 10.3096C25.1631 9.79199 25.2656 9.3265 25.4707 8.91309C25.6758 8.49642 25.9639 8.17741 26.335 7.95605C26.7061 7.73145 27.1325 7.61914 27.6143 7.61914C28.3271 7.61914 28.9049 7.84863 29.3477 8.30762C29.7936 8.7666 30.0345 9.37533 30.0703 10.1338L30.0752 10.4121C30.0752 10.9329 29.9743 11.3984 29.7725 11.8086C29.5739 12.2188 29.2874 12.5361 28.9131 12.7607C28.542 12.9854 28.1123 13.0977 27.624 13.0977C26.8786 13.0977 26.2812 12.8503 25.832 12.3555C25.3861 11.8574 25.1631 11.195 25.1631 10.3682V10.3096ZM26.3496 10.4121C26.3496 10.9557 26.4619 11.3822 26.6865 11.6914C26.9111 11.9974 27.2236 12.1504 27.624 12.1504C28.0244 12.1504 28.3353 11.9941 28.5566 11.6816C28.7812 11.3691 28.8936 10.9118 28.8936 10.3096C28.8936 9.77572 28.778 9.35254 28.5469 9.04004C28.319 8.72754 28.0081 8.57129 27.6143 8.57129C27.2269 8.57129 26.9193 8.72591 26.6914 9.03516C26.4635 9.34115 26.3496 9.80013 26.3496 10.4121Z" fill="#A4AFB7"/>
</svg>
