<svg width="230" height="223" viewBox="0 0 230 223" fill="none" xmlns="http://www.w3.org/2000/svg">
<rect y="0.171875" width="229.827" height="222" fill="white"/>
<rect x="140" y="97" width="40" height="10.8866" rx="5.44328" fill="#D5DADF"/>
<path d="M141.958 28.3584V31H140.723V23.8906H143.442C144.237 23.8906 144.867 24.0973 145.332 24.5107C145.801 24.9242 146.035 25.471 146.035 26.1514C146.035 26.848 145.806 27.39 145.347 27.7773C144.891 28.1647 144.251 28.3584 143.428 28.3584H141.958ZM141.958 27.3672H143.442C143.882 27.3672 144.217 27.2646 144.448 27.0596C144.679 26.8512 144.795 26.5518 144.795 26.1611C144.795 25.777 144.678 25.471 144.443 25.2432C144.209 25.012 143.887 24.8932 143.477 24.8867H141.958V27.3672ZM149.771 26.8008C149.614 26.7747 149.453 26.7617 149.287 26.7617C148.743 26.7617 148.377 26.9701 148.188 27.3867V31H147.002V25.7168H148.135L148.164 26.3076C148.451 25.8486 148.848 25.6191 149.355 25.6191C149.525 25.6191 149.665 25.6419 149.775 25.6875L149.771 26.8008ZM150.122 28.3096C150.122 27.792 150.225 27.3265 150.43 26.9131C150.635 26.4964 150.923 26.1774 151.294 25.9561C151.665 25.7314 152.091 25.6191 152.573 25.6191C153.286 25.6191 153.864 25.8486 154.307 26.3076C154.753 26.7666 154.993 27.3753 155.029 28.1338L155.034 28.4121C155.034 28.9329 154.933 29.3984 154.731 29.8086C154.533 30.2188 154.246 30.5361 153.872 30.7607C153.501 30.9854 153.071 31.0977 152.583 31.0977C151.838 31.0977 151.24 30.8503 150.791 30.3555C150.345 29.8574 150.122 29.195 150.122 28.3682V28.3096ZM151.309 28.4121C151.309 28.9557 151.421 29.3822 151.646 29.6914C151.87 29.9974 152.183 30.1504 152.583 30.1504C152.983 30.1504 153.294 29.9941 153.516 29.6816C153.74 29.3691 153.853 28.9118 153.853 28.3096C153.853 27.7757 153.737 27.3525 153.506 27.04C153.278 26.7275 152.967 26.5713 152.573 26.5713C152.186 26.5713 151.878 26.7259 151.65 27.0352C151.423 27.3411 151.309 27.8001 151.309 28.4121ZM155.815 28.3193C155.815 27.5055 156.004 26.8529 156.382 26.3613C156.759 25.8665 157.266 25.6191 157.9 25.6191C158.46 25.6191 158.913 25.8145 159.258 26.2051V23.5H160.444V31H159.37L159.312 30.4531C158.957 30.8828 158.483 31.0977 157.891 31.0977C157.272 31.0977 156.771 30.8486 156.387 30.3506C156.006 29.8525 155.815 29.1755 155.815 28.3193ZM157.002 28.4219C157.002 28.959 157.104 29.3789 157.31 29.6816C157.518 29.9811 157.812 30.1309 158.193 30.1309C158.678 30.1309 159.033 29.9144 159.258 29.4814V27.2256C159.04 26.8024 158.688 26.5908 158.203 26.5908C157.819 26.5908 157.523 26.7438 157.314 27.0498C157.106 27.3525 157.002 27.8099 157.002 28.4219ZM164.883 30.4824C164.535 30.8926 164.04 31.0977 163.398 31.0977C162.826 31.0977 162.391 30.93 162.095 30.5947C161.802 30.2594 161.655 29.7744 161.655 29.1396V25.7168H162.842V29.125C162.842 29.7956 163.12 30.1309 163.677 30.1309C164.253 30.1309 164.642 29.9242 164.844 29.5107V25.7168H166.03V31H164.912L164.883 30.4824ZM169.409 30.1504C169.705 30.1504 169.951 30.0641 170.146 29.8916C170.342 29.7191 170.446 29.5059 170.459 29.252H171.577C171.564 29.5807 171.462 29.8883 171.27 30.1748C171.077 30.458 170.817 30.6826 170.488 30.8486C170.16 31.0146 169.805 31.0977 169.424 31.0977C168.685 31.0977 168.099 30.8584 167.666 30.3799C167.233 29.9014 167.017 29.2406 167.017 28.3975V28.2754C167.017 27.4714 167.231 26.8285 167.661 26.3467C168.091 25.8617 168.677 25.6191 169.419 25.6191C170.047 25.6191 170.558 25.8031 170.952 26.1709C171.349 26.5355 171.558 27.0156 171.577 27.6113H170.459C170.446 27.3086 170.342 27.0596 170.146 26.8643C169.954 26.6689 169.709 26.5713 169.409 26.5713C169.025 26.5713 168.729 26.7113 168.521 26.9912C168.312 27.2679 168.206 27.6895 168.203 28.2559V28.4463C168.203 29.0192 168.306 29.4473 168.511 29.7305C168.719 30.0104 169.019 30.1504 169.409 30.1504ZM173.96 24.4326V25.7168H174.893V26.5957H173.96V29.5449C173.96 29.7467 173.999 29.8932 174.077 29.9844C174.159 30.0723 174.302 30.1162 174.507 30.1162C174.644 30.1162 174.782 30.0999 174.922 30.0674V30.9854C174.652 31.0602 174.391 31.0977 174.141 31.0977C173.229 31.0977 172.773 30.5947 172.773 29.5889V26.5957H171.904V25.7168H172.773V24.4326H173.96ZM183.252 24.8867H181.035V31H179.81V24.8867H177.612V23.8906H183.252V24.8867ZM185.337 31H184.15V25.7168H185.337V31ZM184.077 24.3447C184.077 24.1624 184.134 24.0111 184.248 23.8906C184.365 23.7702 184.531 23.71 184.746 23.71C184.961 23.71 185.127 23.7702 185.244 23.8906C185.361 24.0111 185.42 24.1624 185.42 24.3447C185.42 24.5238 185.361 24.6735 185.244 24.7939C185.127 24.9111 184.961 24.9697 184.746 24.9697C184.531 24.9697 184.365 24.9111 184.248 24.7939C184.134 24.6735 184.077 24.5238 184.077 24.3447ZM188.12 24.4326V25.7168H189.053V26.5957H188.12V29.5449C188.12 29.7467 188.159 29.8932 188.237 29.9844C188.319 30.0723 188.462 30.1162 188.667 30.1162C188.804 30.1162 188.942 30.0999 189.082 30.0674V30.9854C188.812 31.0602 188.551 31.0977 188.301 31.0977C187.389 31.0977 186.934 30.5947 186.934 29.5889V26.5957H186.064V25.7168H186.934V24.4326H188.12ZM191.226 31H190.039V23.5H191.226V31ZM194.849 31.0977C194.097 31.0977 193.486 30.8617 193.018 30.3896C192.552 29.9144 192.319 29.2829 192.319 28.4951V28.3486C192.319 27.8213 192.42 27.3509 192.622 26.9375C192.827 26.5208 193.114 26.1969 193.481 25.9658C193.849 25.7347 194.259 25.6191 194.712 25.6191C195.431 25.6191 195.986 25.8486 196.377 26.3076C196.771 26.7666 196.968 27.416 196.968 28.2559V28.7344H193.516C193.551 29.1706 193.696 29.5156 193.95 29.7695C194.207 30.0234 194.53 30.1504 194.917 30.1504C195.461 30.1504 195.903 29.9307 196.245 29.4912L196.885 30.1016C196.673 30.4173 196.39 30.6631 196.035 30.8389C195.684 31.0114 195.288 31.0977 194.849 31.0977ZM194.707 26.5713C194.382 26.5713 194.118 26.6852 193.916 26.9131C193.717 27.141 193.59 27.4583 193.535 27.8652H195.796V27.7773C195.77 27.3802 195.664 27.0807 195.479 26.8789C195.293 26.6738 195.036 26.5713 194.707 26.5713Z" fill="#A4AFB7"/>
<path d="M81.5508 164.535C81.5508 164.285 81.4622 164.092 81.2852 163.957C81.1107 163.822 80.7943 163.685 80.3359 163.547C79.8776 163.409 79.513 163.255 79.2422 163.086C78.724 162.76 78.4648 162.336 78.4648 161.812C78.4648 161.354 78.651 160.977 79.0234 160.68C79.3984 160.383 79.8841 160.234 80.4805 160.234C80.8763 160.234 81.2292 160.307 81.5391 160.453C81.849 160.599 82.0924 160.807 82.2695 161.078C82.4466 161.346 82.5352 161.645 82.5352 161.973H81.5508C81.5508 161.676 81.457 161.444 81.2695 161.277C81.0846 161.108 80.819 161.023 80.4727 161.023C80.1497 161.023 79.8984 161.092 79.7188 161.23C79.5417 161.368 79.4531 161.561 79.4531 161.809C79.4531 162.017 79.5495 162.191 79.7422 162.332C79.9349 162.47 80.2526 162.605 80.6953 162.738C81.138 162.868 81.4935 163.018 81.7617 163.188C82.0299 163.354 82.2266 163.547 82.3516 163.766C82.4766 163.982 82.5391 164.236 82.5391 164.527C82.5391 165.001 82.3568 165.379 81.9922 165.66C81.6302 165.939 81.138 166.078 80.5156 166.078C80.1042 166.078 79.7253 166.003 79.3789 165.852C79.0352 165.698 78.7669 165.487 78.5742 165.219C78.3841 164.951 78.2891 164.638 78.2891 164.281H79.2773C79.2773 164.604 79.3841 164.854 79.5977 165.031C79.8112 165.208 80.1172 165.297 80.5156 165.297C80.8594 165.297 81.1172 165.228 81.2891 165.09C81.4635 164.949 81.5508 164.764 81.5508 164.535ZM85.875 165.586C85.5964 165.914 85.2005 166.078 84.6875 166.078C84.2292 166.078 83.8815 165.944 83.6445 165.676C83.4102 165.408 83.293 165.02 83.293 164.512V161.773H84.2422V164.5C84.2422 165.036 84.4648 165.305 84.9102 165.305C85.3711 165.305 85.6823 165.139 85.8438 164.809V161.773H86.793V166H85.8984L85.875 165.586ZM87.5938 163.855C87.5938 163.199 87.7474 162.676 88.0547 162.285C88.3646 161.892 88.7747 161.695 89.2852 161.695C89.7669 161.695 90.1458 161.863 90.4219 162.199L90.4648 161.773H91.3203V165.871C91.3203 166.426 91.1471 166.863 90.8008 167.184C90.457 167.504 89.9922 167.664 89.4062 167.664C89.0964 167.664 88.793 167.599 88.4961 167.469C88.2018 167.341 87.9779 167.173 87.8242 166.965L88.2734 166.395C88.5651 166.741 88.9245 166.914 89.3516 166.914C89.6667 166.914 89.9154 166.828 90.0977 166.656C90.2799 166.487 90.3711 166.237 90.3711 165.906V165.621C90.0977 165.926 89.7331 166.078 89.2773 166.078C88.7826 166.078 88.3776 165.882 88.0625 165.488C87.75 165.095 87.5938 164.551 87.5938 163.855ZM88.5391 163.938C88.5391 164.362 88.625 164.697 88.7969 164.941C88.9714 165.184 89.2122 165.305 89.5195 165.305C89.9023 165.305 90.1862 165.141 90.3711 164.812V162.953C90.1914 162.633 89.9102 162.473 89.5273 162.473C89.2148 162.473 88.9714 162.596 88.7969 162.844C88.625 163.091 88.5391 163.456 88.5391 163.938ZM92.1328 163.855C92.1328 163.199 92.2865 162.676 92.5938 162.285C92.9036 161.892 93.3138 161.695 93.8242 161.695C94.306 161.695 94.6849 161.863 94.9609 162.199L95.0039 161.773H95.8594V165.871C95.8594 166.426 95.6862 166.863 95.3398 167.184C94.9961 167.504 94.5312 167.664 93.9453 167.664C93.6354 167.664 93.332 167.599 93.0352 167.469C92.7409 167.341 92.5169 167.173 92.3633 166.965L92.8125 166.395C93.1042 166.741 93.4635 166.914 93.8906 166.914C94.2057 166.914 94.4544 166.828 94.6367 166.656C94.819 166.487 94.9102 166.237 94.9102 165.906V165.621C94.6367 165.926 94.2721 166.078 93.8164 166.078C93.3216 166.078 92.9167 165.882 92.6016 165.488C92.2891 165.095 92.1328 164.551 92.1328 163.855ZM93.0781 163.938C93.0781 164.362 93.1641 164.697 93.3359 164.941C93.5104 165.184 93.7513 165.305 94.0586 165.305C94.4414 165.305 94.7253 165.141 94.9102 164.812V162.953C94.7305 162.633 94.4492 162.473 94.0664 162.473C93.7539 162.473 93.5104 162.596 93.3359 162.844C93.1641 163.091 93.0781 163.456 93.0781 163.938ZM98.6992 166.078C98.0977 166.078 97.6094 165.889 97.2344 165.512C96.862 165.132 96.6758 164.626 96.6758 163.996V163.879C96.6758 163.457 96.7565 163.081 96.918 162.75C97.082 162.417 97.3112 162.158 97.6055 161.973C97.8997 161.788 98.2279 161.695 98.5898 161.695C99.1654 161.695 99.6094 161.879 99.9219 162.246C100.237 162.613 100.395 163.133 100.395 163.805V164.188H97.6328C97.6615 164.536 97.7773 164.812 97.9805 165.016C98.1862 165.219 98.444 165.32 98.7539 165.32C99.1888 165.32 99.543 165.145 99.8164 164.793L100.328 165.281C100.159 165.534 99.9323 165.73 99.6484 165.871C99.3672 166.009 99.0508 166.078 98.6992 166.078ZM98.5859 162.457C98.3255 162.457 98.1146 162.548 97.9531 162.73C97.7943 162.913 97.6927 163.167 97.6484 163.492H99.457V163.422C99.4362 163.104 99.3516 162.865 99.2031 162.703C99.0547 162.539 98.849 162.457 98.5859 162.457ZM103.504 164.852C103.504 164.682 103.434 164.553 103.293 164.465C103.155 164.376 102.924 164.298 102.602 164.23C102.279 164.163 102.009 164.077 101.793 163.973C101.319 163.743 101.082 163.411 101.082 162.977C101.082 162.612 101.236 162.307 101.543 162.062C101.85 161.818 102.241 161.695 102.715 161.695C103.22 161.695 103.628 161.82 103.938 162.07C104.25 162.32 104.406 162.645 104.406 163.043H103.457C103.457 162.861 103.389 162.71 103.254 162.59C103.118 162.467 102.939 162.406 102.715 162.406C102.507 162.406 102.336 162.454 102.203 162.551C102.073 162.647 102.008 162.776 102.008 162.938C102.008 163.083 102.069 163.197 102.191 163.277C102.314 163.358 102.561 163.44 102.934 163.523C103.306 163.604 103.598 163.702 103.809 163.816C104.022 163.928 104.18 164.064 104.281 164.223C104.385 164.382 104.438 164.574 104.438 164.801C104.438 165.181 104.28 165.49 103.965 165.727C103.65 165.961 103.237 166.078 102.727 166.078C102.38 166.078 102.072 166.016 101.801 165.891C101.53 165.766 101.319 165.594 101.168 165.375C101.017 165.156 100.941 164.921 100.941 164.668H101.863C101.876 164.892 101.961 165.065 102.117 165.188C102.273 165.307 102.48 165.367 102.738 165.367C102.988 165.367 103.178 165.32 103.309 165.227C103.439 165.13 103.504 165.005 103.504 164.852ZM106.457 160.746V161.773H107.203V162.477H106.457V164.836C106.457 164.997 106.488 165.115 106.551 165.188C106.616 165.258 106.73 165.293 106.895 165.293C107.004 165.293 107.115 165.28 107.227 165.254V165.988C107.01 166.048 106.802 166.078 106.602 166.078C105.872 166.078 105.508 165.676 105.508 164.871V162.477H104.812V161.773H105.508V160.746H106.457ZM109.793 166.078C109.191 166.078 108.703 165.889 108.328 165.512C107.956 165.132 107.77 164.626 107.77 163.996V163.879C107.77 163.457 107.85 163.081 108.012 162.75C108.176 162.417 108.405 162.158 108.699 161.973C108.993 161.788 109.322 161.695 109.684 161.695C110.259 161.695 110.703 161.879 111.016 162.246C111.331 162.613 111.488 163.133 111.488 163.805V164.188H108.727C108.755 164.536 108.871 164.812 109.074 165.016C109.28 165.219 109.538 165.32 109.848 165.32C110.283 165.32 110.637 165.145 110.91 164.793L111.422 165.281C111.253 165.534 111.026 165.73 110.742 165.871C110.461 166.009 110.145 166.078 109.793 166.078ZM109.68 162.457C109.419 162.457 109.208 162.548 109.047 162.73C108.888 162.913 108.786 163.167 108.742 163.492H110.551V163.422C110.53 163.104 110.445 162.865 110.297 162.703C110.148 162.539 109.943 162.457 109.68 162.457ZM112.051 163.855C112.051 163.204 112.202 162.682 112.504 162.289C112.806 161.893 113.211 161.695 113.719 161.695C114.167 161.695 114.529 161.852 114.805 162.164V160H115.754V166H114.895L114.848 165.562C114.564 165.906 114.185 166.078 113.711 166.078C113.216 166.078 112.815 165.879 112.508 165.48C112.203 165.082 112.051 164.54 112.051 163.855ZM113 163.938C113 164.367 113.082 164.703 113.246 164.945C113.413 165.185 113.648 165.305 113.953 165.305C114.341 165.305 114.625 165.132 114.805 164.785V162.98C114.63 162.642 114.349 162.473 113.961 162.473C113.654 162.473 113.417 162.595 113.25 162.84C113.083 163.082 113 163.448 113 163.938ZM119.816 163.887V166H118.828V160.312H121.004C121.639 160.312 122.143 160.478 122.516 160.809C122.891 161.139 123.078 161.577 123.078 162.121C123.078 162.678 122.895 163.112 122.527 163.422C122.163 163.732 121.651 163.887 120.992 163.887H119.816ZM119.816 163.094H121.004C121.355 163.094 121.624 163.012 121.809 162.848C121.993 162.681 122.086 162.441 122.086 162.129C122.086 161.822 121.992 161.577 121.805 161.395C121.617 161.21 121.359 161.115 121.031 161.109H119.816V163.094ZM126.066 162.641C125.941 162.62 125.812 162.609 125.68 162.609C125.245 162.609 124.952 162.776 124.801 163.109V166H123.852V161.773H124.758L124.781 162.246C125.01 161.879 125.328 161.695 125.734 161.695C125.87 161.695 125.982 161.714 126.07 161.75L126.066 162.641ZM126.348 163.848C126.348 163.434 126.43 163.061 126.594 162.73C126.758 162.397 126.988 162.142 127.285 161.965C127.582 161.785 127.923 161.695 128.309 161.695C128.879 161.695 129.341 161.879 129.695 162.246C130.052 162.613 130.245 163.1 130.273 163.707L130.277 163.93C130.277 164.346 130.197 164.719 130.035 165.047C129.876 165.375 129.647 165.629 129.348 165.809C129.051 165.988 128.707 166.078 128.316 166.078C127.72 166.078 127.242 165.88 126.883 165.484C126.526 165.086 126.348 164.556 126.348 163.895V163.848ZM127.297 163.93C127.297 164.365 127.387 164.706 127.566 164.953C127.746 165.198 127.996 165.32 128.316 165.32C128.637 165.32 128.885 165.195 129.062 164.945C129.242 164.695 129.332 164.329 129.332 163.848C129.332 163.421 129.24 163.082 129.055 162.832C128.872 162.582 128.624 162.457 128.309 162.457C127.999 162.457 127.753 162.581 127.57 162.828C127.388 163.073 127.297 163.44 127.297 163.93ZM130.902 163.855C130.902 163.204 131.053 162.682 131.355 162.289C131.658 161.893 132.062 161.695 132.57 161.695C133.018 161.695 133.38 161.852 133.656 162.164V160H134.605V166H133.746L133.699 165.562C133.415 165.906 133.036 166.078 132.562 166.078C132.068 166.078 131.667 165.879 131.359 165.48C131.055 165.082 130.902 164.54 130.902 163.855ZM131.852 163.938C131.852 164.367 131.934 164.703 132.098 164.945C132.264 165.185 132.5 165.305 132.805 165.305C133.193 165.305 133.477 165.132 133.656 164.785V162.98C133.482 162.642 133.201 162.473 132.812 162.473C132.505 162.473 132.268 162.595 132.102 162.84C131.935 163.082 131.852 163.448 131.852 163.938ZM138.156 165.586C137.878 165.914 137.482 166.078 136.969 166.078C136.51 166.078 136.163 165.944 135.926 165.676C135.691 165.408 135.574 165.02 135.574 164.512V161.773H136.523V164.5C136.523 165.036 136.746 165.305 137.191 165.305C137.652 165.305 137.964 165.139 138.125 164.809V161.773H139.074V166H138.18L138.156 165.586ZM141.777 165.32C142.014 165.32 142.211 165.251 142.367 165.113C142.523 164.975 142.607 164.805 142.617 164.602H143.512C143.501 164.865 143.419 165.111 143.266 165.34C143.112 165.566 142.904 165.746 142.641 165.879C142.378 166.012 142.094 166.078 141.789 166.078C141.198 166.078 140.729 165.887 140.383 165.504C140.036 165.121 139.863 164.592 139.863 163.918V163.82C139.863 163.177 140.035 162.663 140.379 162.277C140.723 161.889 141.191 161.695 141.785 161.695C142.288 161.695 142.697 161.842 143.012 162.137C143.329 162.428 143.496 162.812 143.512 163.289H142.617C142.607 163.047 142.523 162.848 142.367 162.691C142.214 162.535 142.017 162.457 141.777 162.457C141.47 162.457 141.233 162.569 141.066 162.793C140.9 163.014 140.815 163.352 140.812 163.805V163.957C140.812 164.415 140.895 164.758 141.059 164.984C141.225 165.208 141.465 165.32 141.777 165.32ZM145.418 160.746V161.773H146.164V162.477H145.418V164.836C145.418 164.997 145.449 165.115 145.512 165.188C145.577 165.258 145.691 165.293 145.855 165.293C145.965 165.293 146.076 165.28 146.188 165.254V165.988C145.971 166.048 145.763 166.078 145.562 166.078C144.833 166.078 144.469 165.676 144.469 164.871V162.477H143.773V161.773H144.469V160.746H145.418ZM149.262 164.852C149.262 164.682 149.191 164.553 149.051 164.465C148.913 164.376 148.682 164.298 148.359 164.23C148.036 164.163 147.767 164.077 147.551 163.973C147.077 163.743 146.84 163.411 146.84 162.977C146.84 162.612 146.993 162.307 147.301 162.062C147.608 161.818 147.999 161.695 148.473 161.695C148.978 161.695 149.385 161.82 149.695 162.07C150.008 162.32 150.164 162.645 150.164 163.043H149.215C149.215 162.861 149.147 162.71 149.012 162.59C148.876 162.467 148.697 162.406 148.473 162.406C148.264 162.406 148.094 162.454 147.961 162.551C147.831 162.647 147.766 162.776 147.766 162.938C147.766 163.083 147.827 163.197 147.949 163.277C148.072 163.358 148.319 163.44 148.691 163.523C149.064 163.604 149.355 163.702 149.566 163.816C149.78 163.928 149.938 164.064 150.039 164.223C150.143 164.382 150.195 164.574 150.195 164.801C150.195 165.181 150.038 165.49 149.723 165.727C149.408 165.961 148.995 166.078 148.484 166.078C148.138 166.078 147.829 166.016 147.559 165.891C147.288 165.766 147.077 165.594 146.926 165.375C146.775 165.156 146.699 164.921 146.699 164.668H147.621C147.634 164.892 147.719 165.065 147.875 165.188C148.031 165.307 148.238 165.367 148.496 165.367C148.746 165.367 148.936 165.32 149.066 165.227C149.197 165.13 149.262 165.005 149.262 164.852Z" fill="#A4AFB7"/>
<path d="M25.168 191.2C25.104 191.2 25.04 191.213 24.976 191.24C24.9173 191.267 24.8693 191.299 24.832 191.336L22.464 193.736C22.3787 193.821 22.336 193.944 22.336 194.104C22.336 194.259 22.3787 194.379 22.464 194.464L24.832 197.032C24.8907 197.091 24.944 197.133 24.992 197.16C25.0453 197.187 25.104 197.2 25.168 197.2C25.3227 197.2 25.4453 197.155 25.536 197.064C25.584 197.016 25.624 196.96 25.656 196.896C25.688 196.827 25.704 196.76 25.704 196.696C25.704 196.541 25.648 196.421 25.536 196.336L23.504 194.096L25.536 192C25.6213 191.915 25.664 191.813 25.664 191.696C25.664 191.541 25.6213 191.421 25.536 191.336C25.4667 191.283 25.4053 191.248 25.352 191.232C25.2987 191.211 25.2373 191.2 25.168 191.2Z" fill="#D5DADF"/>
<path d="M203.832 191.2C203.896 191.2 203.96 191.213 204.024 191.24C204.083 191.267 204.131 191.299 204.168 191.336L206.536 193.736C206.621 193.821 206.664 193.944 206.664 194.104C206.664 194.259 206.621 194.379 206.536 194.464L204.168 197.032C204.109 197.091 204.056 197.133 204.008 197.16C203.955 197.187 203.896 197.2 203.832 197.2C203.677 197.2 203.555 197.155 203.464 197.064C203.416 197.016 203.376 196.96 203.344 196.896C203.312 196.827 203.296 196.76 203.296 196.696C203.296 196.541 203.352 196.421 203.464 196.336L205.496 194.096L203.464 192C203.379 191.915 203.336 191.813 203.336 191.696C203.336 191.541 203.379 191.421 203.464 191.336C203.533 191.283 203.595 191.248 203.648 191.232C203.701 191.211 203.763 191.2 203.832 191.2Z" fill="#D5DADF"/>
<path d="M143.199 46.5156C143.199 46.2943 143.129 46.112 142.988 45.9688C142.848 45.8229 142.613 45.6927 142.285 45.5781C141.957 45.4609 141.702 45.3529 141.52 45.2539C140.913 44.9284 140.609 44.4466 140.609 43.8086C140.609 43.3763 140.741 43.0208 141.004 42.7422C141.267 42.4635 141.624 42.2982 142.074 42.2461V41.3945H142.699V42.2539C143.152 42.319 143.503 42.5117 143.75 42.832C143.997 43.1497 144.121 43.5638 144.121 44.0742H143.176C143.176 43.7461 143.102 43.4883 142.953 43.3008C142.807 43.1107 142.608 43.0156 142.355 43.0156C142.105 43.0156 141.91 43.0833 141.77 43.2188C141.629 43.3542 141.559 43.5482 141.559 43.8008C141.559 44.0273 141.628 44.2096 141.766 44.3477C141.906 44.4831 142.143 44.612 142.477 44.7344C142.81 44.8568 143.072 44.9701 143.262 45.0742C143.452 45.1784 143.612 45.2982 143.742 45.4336C143.872 45.5664 143.973 45.7201 144.043 45.8945C144.113 46.069 144.148 46.2734 144.148 46.5078C144.148 46.9479 144.013 47.3047 143.742 47.5781C143.474 47.8516 143.099 48.013 142.617 48.0625V48.8242H141.996V48.0664C141.48 48.0091 141.083 47.8242 140.805 47.5117C140.529 47.1992 140.391 46.7852 140.391 46.2695H141.34C141.34 46.5977 141.422 46.8516 141.586 47.0312C141.753 47.2109 141.987 47.3008 142.289 47.3008C142.586 47.3008 142.811 47.2292 142.965 47.0859C143.121 46.9427 143.199 46.7526 143.199 46.5156ZM146.07 44.7227H146.648C146.94 44.7201 147.171 44.6445 147.34 44.4961C147.512 44.3477 147.598 44.1328 147.598 43.8516C147.598 43.5807 147.526 43.3711 147.383 43.2227C147.242 43.0716 147.026 42.9961 146.734 42.9961C146.479 42.9961 146.27 43.0703 146.105 43.2188C145.941 43.3646 145.859 43.556 145.859 43.793H144.91C144.91 43.5013 144.987 43.2357 145.141 42.9961C145.297 42.7565 145.513 42.5703 145.789 42.4375C146.068 42.3021 146.379 42.2344 146.723 42.2344C147.29 42.2344 147.736 42.3776 148.059 42.6641C148.384 42.9479 148.547 43.3438 148.547 43.8516C148.547 44.1068 148.465 44.3477 148.301 44.5742C148.139 44.7982 147.93 44.9674 147.672 45.082C147.984 45.1888 148.221 45.3568 148.383 45.5859C148.547 45.8151 148.629 46.0885 148.629 46.4062C148.629 46.9167 148.453 47.3229 148.102 47.625C147.753 47.9271 147.293 48.0781 146.723 48.0781C146.176 48.0781 145.728 47.9323 145.379 47.6406C145.03 47.349 144.855 46.9609 144.855 46.4766H145.805C145.805 46.7266 145.888 46.9297 146.055 47.0859C146.224 47.2422 146.451 47.3203 146.734 47.3203C147.029 47.3203 147.26 47.2422 147.43 47.0859C147.599 46.9297 147.684 46.7031 147.684 46.4062C147.684 46.1068 147.595 45.8763 147.418 45.7148C147.241 45.5534 146.978 45.4727 146.629 45.4727H146.07V44.7227ZM153.227 45.6055C153.227 46.4232 153.073 47.0404 152.766 47.457C152.461 47.8711 151.996 48.0781 151.371 48.0781C150.757 48.0781 150.293 47.8763 149.98 47.4727C149.671 47.0664 149.512 46.4661 149.504 45.6719V44.6875C149.504 43.8698 149.656 43.2565 149.961 42.8477C150.268 42.4388 150.736 42.2344 151.363 42.2344C151.986 42.2344 152.449 42.4336 152.754 42.832C153.061 43.2305 153.219 43.8268 153.227 44.6211V45.6055ZM152.277 44.543C152.277 44.0091 152.204 43.6185 152.059 43.3711C151.913 43.1211 151.681 42.9961 151.363 42.9961C151.053 42.9961 150.826 43.1146 150.68 43.3516C150.534 43.5859 150.457 43.9531 150.449 44.4531V45.7422C150.449 46.2734 150.523 46.6693 150.672 46.9297C150.82 47.1901 151.053 47.3203 151.371 47.3203C151.676 47.3203 151.901 47.2005 152.047 46.9609C152.193 46.7188 152.27 46.3411 152.277 45.8281V44.543Z" fill="#A4AFB7"/>
<rect x="140" y="59" width="65" height="2" rx="1" fill="#D5DADF"/>
<rect x="140" y="71" width="61" height="2" rx="1" fill="#D5DADF"/>
<rect x="140" y="83" width="61" height="2" rx="1" fill="#D5DADF"/>
<rect x="140" y="65" width="55" height="2" rx="1" fill="#D5DADF"/>
<rect x="140" y="77" width="55" height="2" rx="1" fill="#D5DADF"/>
<path d="M0 140H229.5" stroke="#F1F3F5"/>
<mask id="mask0" mask-type="alpha" maskUnits="userSpaceOnUse" x="22" y="20" width="101" height="67">
<path fill-rule="evenodd" clip-rule="evenodd" d="M22 20H123V87H22V20Z" fill="white"/>
</mask>
<g mask="url(#mask0)">
<rect x="20.2656" y="19.5933" width="106.771" height="69.7036" fill="#E6E9EC"/>
<mask id="mask1" mask-type="alpha" maskUnits="userSpaceOnUse" x="20" y="19" width="108" height="71">
<rect x="20.2656" y="19.5933" width="106.771" height="69.7036" fill="white"/>
</mask>
<g mask="url(#mask1)">
<path d="M144.176 95.5523C144.176 95.5523 116.205 42.3576 95.0383 38.0378C73.8714 33.718 65.5809 75.573 52.9143 70.0218C50.5616 68.9908 37.5914 54.2673 27.1195 58.3981C19.5873 61.3692 3.53349 95.7468 3.53349 95.7468H144.176V95.5523Z" fill="#F8F9FA"/>
<path d="M51.651 54.9649C54.086 54.9649 56.0599 53.0153 56.0599 50.6103C56.0599 48.2053 54.086 46.2556 51.651 46.2556C49.2161 46.2556 47.2422 48.2053 47.2422 50.6103C47.2422 53.0153 49.2161 54.9649 51.651 54.9649Z" fill="#F8F9FA"/>
</g>
</g>
<mask id="mask2" mask-type="alpha" maskUnits="userSpaceOnUse" x="22" y="91" width="31" height="21">
<path fill-rule="evenodd" clip-rule="evenodd" d="M22 91H53V111.564H22V91Z" fill="white"/>
</mask>
<g mask="url(#mask2)">
<rect x="21.4668" y="90.875" width="32.7714" height="21.3942" fill="#E6E9EC"/>
<mask id="mask3" mask-type="alpha" maskUnits="userSpaceOnUse" x="21" y="90" width="34" height="23">
<rect x="21.4668" y="90.875" width="32.7714" height="21.3942" fill="white"/>
</mask>
<g mask="url(#mask3)">
<path d="M59.5 114.189C59.5 114.189 50.915 97.8623 44.4182 96.5364C37.9214 95.2105 35.3768 108.057 31.4891 106.353C30.7669 106.037 26.786 101.518 23.5718 102.786C21.26 103.698 16.3326 114.249 16.3326 114.249H59.5V114.189Z" fill="#F8F9FA"/>
<path d="M31.1013 101.732C31.8486 101.732 32.4545 101.133 32.4545 100.395C32.4545 99.657 31.8486 99.0586 31.1013 99.0586C30.3539 99.0586 29.748 99.657 29.748 100.395C29.748 101.133 30.3539 101.732 31.1013 101.732Z" fill="#F8F9FA"/>
</g>
</g>
<mask id="mask4" mask-type="alpha" maskUnits="userSpaceOnUse" x="32" y="178" width="50" height="34">
<path fill-rule="evenodd" clip-rule="evenodd" d="M32 178H82V211.168H32V178Z" fill="white"/>
</mask>
<g mask="url(#mask4)">
<rect x="31.1387" y="177.798" width="52.8571" height="34.5067" fill="#E6E9EC"/>
<mask id="mask5" mask-type="alpha" maskUnits="userSpaceOnUse" x="31" y="177" width="53" height="36">
<rect x="31.1387" y="177.798" width="52.8571" height="34.5067" fill="white"/>
</mask>
<g mask="url(#mask5)">
<path d="M92.4805 215.402C92.4805 215.402 78.6337 189.068 68.155 186.929C57.6763 184.791 53.5721 205.511 47.3015 202.763C46.1368 202.253 39.7159 194.964 34.5318 197.009C30.803 198.48 22.8556 215.498 22.8556 215.498H92.4805V215.402Z" fill="#F8F9FA"/>
<path d="M46.6748 195.309C47.8802 195.309 48.8574 194.344 48.8574 193.153C48.8574 191.963 47.8802 190.998 46.6748 190.998C45.4694 190.998 44.4922 191.963 44.4922 193.153C44.4922 194.344 45.4694 195.309 46.6748 195.309Z" fill="#F8F9FA"/>
</g>
</g>
<mask id="mask6" mask-type="alpha" maskUnits="userSpaceOnUse" x="90" y="178" width="50" height="34">
<path fill-rule="evenodd" clip-rule="evenodd" d="M90 178H140V211.168H90V178Z" fill="white"/>
</mask>
<g mask="url(#mask6)">
<rect x="89.1387" y="177.798" width="52.8571" height="34.5067" fill="#E6E9EC"/>
<mask id="mask7" mask-type="alpha" maskUnits="userSpaceOnUse" x="89" y="177" width="53" height="36">
<rect x="89.1387" y="177.798" width="52.8571" height="34.5067" fill="white"/>
</mask>
<g mask="url(#mask7)">
<path d="M150.48 215.402C150.48 215.402 136.634 189.068 126.155 186.929C115.676 184.791 111.572 205.511 105.302 202.763C104.137 202.253 97.7159 194.964 92.5318 197.009C88.803 198.48 80.8556 215.498 80.8556 215.498H150.48V215.402Z" fill="#F8F9FA"/>
<path d="M104.675 195.309C105.88 195.309 106.857 194.344 106.857 193.153C106.857 191.963 105.88 190.998 104.675 190.998C103.469 190.998 102.492 191.963 102.492 193.153C102.492 194.344 103.469 195.309 104.675 195.309Z" fill="#F8F9FA"/>
</g>
</g>
<mask id="mask8" mask-type="alpha" maskUnits="userSpaceOnUse" x="148" y="178" width="50" height="34">
<path fill-rule="evenodd" clip-rule="evenodd" d="M148 178H198V211.168H148V178Z" fill="white"/>
</mask>
<g mask="url(#mask8)">
<rect x="147.139" y="177.798" width="52.8571" height="34.5067" fill="#E6E9EC"/>
<mask id="mask9" mask-type="alpha" maskUnits="userSpaceOnUse" x="147" y="177" width="53" height="36">
<rect x="147.139" y="177.798" width="52.8571" height="34.5067" fill="white"/>
</mask>
<g mask="url(#mask9)">
<path d="M208.48 215.402C208.48 215.402 194.634 189.068 184.155 186.929C173.676 184.791 169.572 205.511 163.302 202.763C162.137 202.253 155.716 194.964 150.532 197.009C146.803 198.48 138.856 215.498 138.856 215.498H208.48V215.402Z" fill="#F8F9FA"/>
<path d="M162.675 195.309C163.88 195.309 164.857 194.344 164.857 193.153C164.857 191.963 163.88 190.998 162.675 190.998C161.469 190.998 160.492 191.963 160.492 193.153C160.492 194.344 161.469 195.309 162.675 195.309Z" fill="#F8F9FA"/>
</g>
</g>
<mask id="mask10" mask-type="alpha" maskUnits="userSpaceOnUse" x="57" y="91" width="31" height="21">
<path fill-rule="evenodd" clip-rule="evenodd" d="M57 91H88V111.564H57V91Z" fill="white"/>
</mask>
<g mask="url(#mask10)">
<rect x="56.4668" y="90.875" width="32.7714" height="21.3942" fill="#E6E9EC"/>
<mask id="mask11" mask-type="alpha" maskUnits="userSpaceOnUse" x="56" y="90" width="34" height="23">
<rect x="56.4668" y="90.875" width="32.7714" height="21.3942" fill="white"/>
</mask>
<g mask="url(#mask11)">
<path d="M94.5 114.189C94.5 114.189 85.915 97.8623 79.4182 96.5364C72.9214 95.2105 70.3768 108.057 66.4891 106.353C65.7669 106.037 61.786 101.518 58.5718 102.786C56.26 103.698 51.3326 114.249 51.3326 114.249H94.5V114.189Z" fill="#F8F9FA"/>
<path d="M66.1013 101.732C66.8486 101.732 67.4545 101.133 67.4545 100.395C67.4545 99.657 66.8486 99.0586 66.1013 99.0586C65.3539 99.0586 64.748 99.657 64.748 100.395C64.748 101.133 65.3539 101.732 66.1013 101.732Z" fill="#F8F9FA"/>
</g>
</g>
<mask id="mask12" mask-type="alpha" maskUnits="userSpaceOnUse" x="92" y="91" width="31" height="21">
<path fill-rule="evenodd" clip-rule="evenodd" d="M92 91H123V111.564H92V91Z" fill="white"/>
</mask>
<g mask="url(#mask12)">
<rect x="91.4668" y="90.875" width="32.7714" height="21.3942" fill="#E6E9EC"/>
<mask id="mask13" mask-type="alpha" maskUnits="userSpaceOnUse" x="91" y="90" width="34" height="23">
<rect x="91.4668" y="90.875" width="32.7714" height="21.3942" fill="white"/>
</mask>
<g mask="url(#mask13)">
<path d="M129.5 114.189C129.5 114.189 120.915 97.8623 114.418 96.5364C107.921 95.2105 105.377 108.057 101.489 106.353C100.767 106.037 96.786 101.518 93.5718 102.786C91.26 103.698 86.3326 114.249 86.3326 114.249H129.5V114.189Z" fill="#F8F9FA"/>
<path d="M101.101 101.732C101.849 101.732 102.454 101.133 102.454 100.395C102.454 99.657 101.849 99.0586 101.101 99.0586C100.354 99.0586 99.748 99.657 99.748 100.395C99.748 101.133 100.354 101.732 101.101 101.732Z" fill="#F8F9FA"/>
</g>
</g>
</svg>
