<svg width="230" height="223" viewBox="0 0 230 223" fill="none" xmlns="http://www.w3.org/2000/svg">
<rect y="0.171875" width="229.827" height="222" fill="white"/>
<path d="M22 26.5C22 23.4624 24.4624 21 27.5 21H59.5C62.5376 21 65 23.4624 65 26.5C65 29.5376 62.5376 32 59.5 32H27.5C24.4624 32 22 29.5376 22 26.5Z" fill="#F1F3F5"/>
<rect x="54.4941" y="21.0625" width="10.8866" height="10.8866" rx="5.44328" fill="#D5DADF"/>
<path fill-rule="evenodd" clip-rule="evenodd" d="M61.2349 27.2392C61.4787 26.9105 61.6229 26.5035 61.6229 26.0629C61.6229 24.9713 60.738 24.0864 59.6464 24.0864C58.5548 24.0864 57.6699 24.9713 57.6699 26.0629C57.6699 27.1545 58.5548 28.0394 59.6464 28.0394C60.0867 28.0394 60.4934 27.8954 60.8219 27.652L61.7069 28.537C61.8209 28.651 62.0058 28.651 62.1198 28.537C62.2338 28.4229 62.2338 28.2381 62.1198 28.124L61.2349 27.2392ZM59.6455 27.4554C58.8764 27.4554 58.253 26.832 58.253 26.0629C58.253 25.2938 58.8764 24.6704 59.6455 24.6704C60.4146 24.6704 61.038 25.2938 61.038 26.0629C61.038 26.832 60.4146 27.4554 59.6455 27.4554Z" fill="white"/>
<path d="M82.8193 27.9873H79.958V31H78.7227V23.8906H83.2393V24.8867H79.958V27.001H82.8193V27.9873ZM86.3252 31.0977C85.5732 31.0977 84.9629 30.8617 84.4941 30.3896C84.0286 29.9144 83.7959 29.2829 83.7959 28.4951V28.3486C83.7959 27.8213 83.8968 27.3509 84.0986 26.9375C84.3037 26.5208 84.5902 26.1969 84.958 25.9658C85.3258 25.7347 85.736 25.6191 86.1885 25.6191C86.9079 25.6191 87.4629 25.8486 87.8535 26.3076C88.2474 26.7666 88.4443 27.416 88.4443 28.2559V28.7344H84.9922C85.028 29.1706 85.1729 29.5156 85.4268 29.7695C85.6839 30.0234 86.0062 30.1504 86.3936 30.1504C86.9372 30.1504 87.3799 29.9307 87.7217 29.4912L88.3613 30.1016C88.1497 30.4173 87.8665 30.6631 87.5117 30.8389C87.1602 31.0114 86.7646 31.0977 86.3252 31.0977ZM86.1836 26.5713C85.8581 26.5713 85.5944 26.6852 85.3926 26.9131C85.194 27.141 85.0671 27.4583 85.0117 27.8652H87.2725V27.7773C87.2464 27.3802 87.1406 27.0807 86.9551 26.8789C86.7695 26.6738 86.5124 26.5713 86.1836 26.5713ZM92.5264 31C92.4743 30.8991 92.4287 30.7347 92.3896 30.5068C92.012 30.9007 91.5498 31.0977 91.0029 31.0977C90.4723 31.0977 90.0394 30.9463 89.7041 30.6436C89.3688 30.3408 89.2012 29.9665 89.2012 29.5205C89.2012 28.9574 89.4095 28.526 89.8262 28.2266C90.2461 27.9238 90.8451 27.7725 91.623 27.7725H92.3506V27.4258C92.3506 27.1523 92.2741 26.9342 92.1211 26.7715C91.9681 26.6055 91.7354 26.5225 91.4229 26.5225C91.1527 26.5225 90.9313 26.5908 90.7588 26.7275C90.5863 26.861 90.5 27.0319 90.5 27.2402H89.3135C89.3135 26.9505 89.4095 26.6803 89.6016 26.4297C89.7936 26.1758 90.054 25.9772 90.3828 25.834C90.7148 25.6908 91.0843 25.6191 91.4912 25.6191C92.1097 25.6191 92.6029 25.7754 92.9707 26.0879C93.3385 26.3971 93.5273 26.8333 93.5371 27.3965V29.7793C93.5371 30.2546 93.6038 30.6338 93.7373 30.917V31H92.5264ZM91.2227 30.1455C91.457 30.1455 91.6768 30.0885 91.8818 29.9746C92.0902 29.8607 92.2464 29.7077 92.3506 29.5156V28.5195H91.7109C91.2715 28.5195 90.9411 28.596 90.7197 28.749C90.4984 28.902 90.3877 29.1185 90.3877 29.3984C90.3877 29.6263 90.4626 29.8086 90.6123 29.9453C90.7653 30.0788 90.9688 30.1455 91.2227 30.1455ZM96.2666 24.4326V25.7168H97.1992V26.5957H96.2666V29.5449C96.2666 29.7467 96.3057 29.8932 96.3838 29.9844C96.4652 30.0723 96.6084 30.1162 96.8135 30.1162C96.9502 30.1162 97.0885 30.0999 97.2285 30.0674V30.9854C96.9583 31.0602 96.6979 31.0977 96.4473 31.0977C95.5358 31.0977 95.0801 30.5947 95.0801 29.5889V26.5957H94.2109V25.7168H95.0801V24.4326H96.2666ZM101.311 30.4824C100.962 30.8926 100.467 31.0977 99.8262 31.0977C99.2533 31.0977 98.8187 30.93 98.5225 30.5947C98.2295 30.2594 98.083 29.7744 98.083 29.1396V25.7168H99.2695V29.125C99.2695 29.7956 99.5479 30.1309 100.104 30.1309C100.681 30.1309 101.07 29.9242 101.271 29.5107V25.7168H102.458V31H101.34L101.311 30.4824ZM106.433 26.8008C106.276 26.7747 106.115 26.7617 105.949 26.7617C105.406 26.7617 105.039 26.9701 104.851 27.3867V31H103.664V25.7168H104.797L104.826 26.3076C105.113 25.8486 105.51 25.6191 106.018 25.6191C106.187 25.6191 106.327 25.6419 106.438 25.6875L106.433 26.8008ZM109.411 31.0977C108.659 31.0977 108.049 30.8617 107.58 30.3896C107.115 29.9144 106.882 29.2829 106.882 28.4951V28.3486C106.882 27.8213 106.983 27.3509 107.185 26.9375C107.39 26.5208 107.676 26.1969 108.044 25.9658C108.412 25.7347 108.822 25.6191 109.274 25.6191C109.994 25.6191 110.549 25.8486 110.939 26.3076C111.333 26.7666 111.53 27.416 111.53 28.2559V28.7344H108.078C108.114 29.1706 108.259 29.5156 108.513 29.7695C108.77 30.0234 109.092 30.1504 109.479 30.1504C110.023 30.1504 110.466 29.9307 110.808 29.4912L111.447 30.1016C111.236 30.4173 110.952 30.6631 110.598 30.8389C110.246 31.0114 109.851 31.0977 109.411 31.0977ZM109.27 26.5713C108.944 26.5713 108.68 26.6852 108.479 26.9131C108.28 27.141 108.153 27.4583 108.098 27.8652H110.358V27.7773C110.332 27.3802 110.227 27.0807 110.041 26.8789C109.855 26.6738 109.598 26.5713 109.27 26.5713ZM112.233 28.3193C112.233 27.5055 112.422 26.8529 112.8 26.3613C113.177 25.8665 113.684 25.6191 114.318 25.6191C114.878 25.6191 115.331 25.8145 115.676 26.2051V23.5H116.862V31H115.788L115.729 30.4531C115.375 30.8828 114.901 31.0977 114.309 31.0977C113.69 31.0977 113.189 30.8486 112.805 30.3506C112.424 29.8525 112.233 29.1755 112.233 28.3193ZM113.42 28.4219C113.42 28.959 113.522 29.3789 113.728 29.6816C113.936 29.9811 114.23 30.1309 114.611 30.1309C115.096 30.1309 115.451 29.9144 115.676 29.4814V27.2256C115.458 26.8024 115.106 26.5908 114.621 26.5908C114.237 26.5908 113.941 26.7438 113.732 27.0498C113.524 27.3525 113.42 27.8099 113.42 28.4219ZM121.94 28.3584V31H120.705V23.8906H123.425C124.219 23.8906 124.849 24.0973 125.314 24.5107C125.783 24.9242 126.018 25.471 126.018 26.1514C126.018 26.848 125.788 27.39 125.329 27.7773C124.873 28.1647 124.234 28.3584 123.41 28.3584H121.94ZM121.94 27.3672H123.425C123.864 27.3672 124.2 27.2646 124.431 27.0596C124.662 26.8512 124.777 26.5518 124.777 26.1611C124.777 25.777 124.66 25.471 124.426 25.2432C124.191 25.012 123.869 24.8932 123.459 24.8867H121.94V27.3672ZM129.753 26.8008C129.597 26.7747 129.436 26.7617 129.27 26.7617C128.726 26.7617 128.36 26.9701 128.171 27.3867V31H126.984V25.7168H128.117L128.146 26.3076C128.433 25.8486 128.83 25.6191 129.338 25.6191C129.507 25.6191 129.647 25.6419 129.758 25.6875L129.753 26.8008ZM130.104 28.3096C130.104 27.792 130.207 27.3265 130.412 26.9131C130.617 26.4964 130.905 26.1774 131.276 25.9561C131.647 25.7314 132.074 25.6191 132.556 25.6191C133.269 25.6191 133.846 25.8486 134.289 26.3076C134.735 26.7666 134.976 27.3753 135.012 28.1338L135.017 28.4121C135.017 28.9329 134.916 29.3984 134.714 29.8086C134.515 30.2188 134.229 30.5361 133.854 30.7607C133.483 30.9854 133.054 31.0977 132.565 31.0977C131.82 31.0977 131.223 30.8503 130.773 30.3555C130.327 29.8574 130.104 29.195 130.104 28.3682V28.3096ZM131.291 28.4121C131.291 28.9557 131.403 29.3822 131.628 29.6914C131.853 29.9974 132.165 30.1504 132.565 30.1504C132.966 30.1504 133.277 29.9941 133.498 29.6816C133.723 29.3691 133.835 28.9118 133.835 28.3096C133.835 27.7757 133.719 27.3525 133.488 27.04C133.26 26.7275 132.95 26.5713 132.556 26.5713C132.168 26.5713 131.861 26.7259 131.633 27.0352C131.405 27.3411 131.291 27.8001 131.291 28.4121ZM135.798 28.3193C135.798 27.5055 135.987 26.8529 136.364 26.3613C136.742 25.8665 137.248 25.6191 137.883 25.6191C138.443 25.6191 138.895 25.8145 139.24 26.2051V23.5H140.427V31H139.353L139.294 30.4531C138.939 30.8828 138.465 31.0977 137.873 31.0977C137.255 31.0977 136.753 30.8486 136.369 30.3506C135.988 29.8525 135.798 29.1755 135.798 28.3193ZM136.984 28.4219C136.984 28.959 137.087 29.3789 137.292 29.6816C137.5 29.9811 137.795 30.1309 138.176 30.1309C138.661 30.1309 139.016 29.9144 139.24 29.4814V27.2256C139.022 26.8024 138.671 26.5908 138.186 26.5908C137.801 26.5908 137.505 26.7438 137.297 27.0498C137.089 27.3525 136.984 27.8099 136.984 28.4219ZM144.865 30.4824C144.517 30.8926 144.022 31.0977 143.381 31.0977C142.808 31.0977 142.373 30.93 142.077 30.5947C141.784 30.2594 141.638 29.7744 141.638 29.1396V25.7168H142.824V29.125C142.824 29.7956 143.103 30.1309 143.659 30.1309C144.235 30.1309 144.624 29.9242 144.826 29.5107V25.7168H146.013V31H144.895L144.865 30.4824ZM149.392 30.1504C149.688 30.1504 149.934 30.0641 150.129 29.8916C150.324 29.7191 150.428 29.5059 150.441 29.252H151.56C151.547 29.5807 151.444 29.8883 151.252 30.1748C151.06 30.458 150.799 30.6826 150.471 30.8486C150.142 31.0146 149.787 31.0977 149.406 31.0977C148.667 31.0977 148.081 30.8584 147.648 30.3799C147.215 29.9014 146.999 29.2406 146.999 28.3975V28.2754C146.999 27.4714 147.214 26.8285 147.644 26.3467C148.073 25.8617 148.659 25.6191 149.401 25.6191C150.03 25.6191 150.541 25.8031 150.935 26.1709C151.332 26.5355 151.54 27.0156 151.56 27.6113H150.441C150.428 27.3086 150.324 27.0596 150.129 26.8643C149.937 26.6689 149.691 26.5713 149.392 26.5713C149.007 26.5713 148.711 26.7113 148.503 26.9912C148.295 27.2679 148.189 27.6895 148.186 28.2559V28.4463C148.186 29.0192 148.288 29.4473 148.493 29.7305C148.701 30.0104 149.001 30.1504 149.392 30.1504ZM153.942 24.4326V25.7168H154.875V26.5957H153.942V29.5449C153.942 29.7467 153.981 29.8932 154.06 29.9844C154.141 30.0723 154.284 30.1162 154.489 30.1162C154.626 30.1162 154.764 30.0999 154.904 30.0674V30.9854C154.634 31.0602 154.374 31.0977 154.123 31.0977C153.212 31.0977 152.756 30.5947 152.756 29.5889V26.5957H151.887V25.7168H152.756V24.4326H153.942ZM158.747 29.5645C158.747 29.3529 158.659 29.1917 158.483 29.0811C158.311 28.9704 158.023 28.8727 157.619 28.7881C157.215 28.7035 156.879 28.596 156.608 28.4658C156.016 28.1794 155.72 27.7643 155.72 27.2207C155.72 26.765 155.912 26.3841 156.296 26.0781C156.68 25.7721 157.168 25.6191 157.761 25.6191C158.392 25.6191 158.902 25.7754 159.289 26.0879C159.68 26.4004 159.875 26.8057 159.875 27.3037H158.688C158.688 27.0758 158.604 26.887 158.435 26.7373C158.265 26.5843 158.041 26.5078 157.761 26.5078C157.5 26.5078 157.287 26.568 157.121 26.6885C156.958 26.8089 156.877 26.9701 156.877 27.1719C156.877 27.3542 156.953 27.4958 157.106 27.5967C157.259 27.6976 157.569 27.8001 158.034 27.9043C158.5 28.0052 158.864 28.1273 159.128 28.2705C159.395 28.4105 159.592 28.5798 159.719 28.7783C159.849 28.9769 159.914 29.2178 159.914 29.501C159.914 29.9762 159.717 30.362 159.323 30.6582C158.929 30.9512 158.413 31.0977 157.775 31.0977C157.342 31.0977 156.957 31.0195 156.618 30.8633C156.28 30.707 156.016 30.4922 155.827 30.2188C155.638 29.9453 155.544 29.6507 155.544 29.335H156.696C156.713 29.6149 156.818 29.8314 157.014 29.9844C157.209 30.1341 157.468 30.209 157.79 30.209C158.103 30.209 158.34 30.1504 158.503 30.0332C158.666 29.9128 158.747 29.7565 158.747 29.5645Z" fill="#A4AFB7"/>
<path d="M80.3994 88.8867C80.3994 88.7207 80.3467 88.584 80.2412 88.4766C80.1357 88.3672 79.96 88.2695 79.7139 88.1836C79.4678 88.0957 79.2764 88.0146 79.1396 87.9404C78.6846 87.6963 78.457 87.335 78.457 86.8564C78.457 86.5322 78.5557 86.2656 78.7529 86.0566C78.9502 85.8477 79.2178 85.7236 79.5557 85.6846V85.0459H80.0244V85.6904C80.3643 85.7393 80.627 85.8838 80.8125 86.124C80.998 86.3623 81.0908 86.6729 81.0908 87.0557H80.3818C80.3818 86.8096 80.3262 86.6162 80.2148 86.4756C80.1055 86.333 79.9561 86.2617 79.7666 86.2617C79.5791 86.2617 79.4326 86.3125 79.3271 86.4141C79.2217 86.5156 79.1689 86.6611 79.1689 86.8506C79.1689 87.0205 79.2207 87.1572 79.3242 87.2607C79.4297 87.3623 79.6074 87.459 79.8574 87.5508C80.1074 87.6426 80.3037 87.7275 80.4463 87.8057C80.5889 87.8838 80.709 87.9736 80.8066 88.0752C80.9043 88.1748 80.9795 88.29 81.0322 88.4209C81.085 88.5518 81.1113 88.7051 81.1113 88.8809C81.1113 89.2109 81.0098 89.4785 80.8066 89.6836C80.6055 89.8887 80.3242 90.0098 79.9629 90.0469V90.6182H79.4971V90.0498C79.1104 90.0068 78.8125 89.8682 78.6035 89.6338C78.3965 89.3994 78.293 89.0889 78.293 88.7021H79.0049C79.0049 88.9482 79.0664 89.1387 79.1895 89.2734C79.3145 89.4082 79.4902 89.4756 79.7168 89.4756C79.9395 89.4756 80.1084 89.4219 80.2236 89.3145C80.3408 89.207 80.3994 89.0645 80.3994 88.8867ZM82.2527 87.542H82.6863C82.9051 87.54 83.0779 87.4834 83.2049 87.3721C83.3338 87.2607 83.3982 87.0996 83.3982 86.8887C83.3982 86.6855 83.3445 86.5283 83.2371 86.417C83.1316 86.3037 82.9695 86.2471 82.7508 86.2471C82.5594 86.2471 82.4021 86.3027 82.2791 86.4141C82.1561 86.5234 82.0945 86.667 82.0945 86.8447H81.3826C81.3826 86.626 81.4402 86.4268 81.5555 86.2471C81.6727 86.0674 81.8348 85.9277 82.0418 85.8281C82.2508 85.7266 82.4842 85.6758 82.742 85.6758C83.1678 85.6758 83.5018 85.7832 83.7439 85.998C83.9881 86.2109 84.1102 86.5078 84.1102 86.8887C84.1102 87.0801 84.0486 87.2607 83.9256 87.4307C83.8045 87.5986 83.6473 87.7256 83.4539 87.8115C83.6883 87.8916 83.866 88.0176 83.9871 88.1895C84.1102 88.3613 84.1717 88.5664 84.1717 88.8047C84.1717 89.1875 84.0398 89.4922 83.7762 89.7188C83.5145 89.9453 83.1697 90.0586 82.742 90.0586C82.3318 90.0586 81.9959 89.9492 81.7342 89.7305C81.4725 89.5117 81.3416 89.2207 81.3416 88.8574H82.0535C82.0535 89.0449 82.116 89.1973 82.241 89.3145C82.368 89.4316 82.5379 89.4902 82.7508 89.4902C82.9715 89.4902 83.1453 89.4316 83.2723 89.3145C83.3992 89.1973 83.4627 89.0273 83.4627 88.8047C83.4627 88.5801 83.3963 88.4072 83.2635 88.2861C83.1307 88.165 82.9334 88.1045 82.6717 88.1045H82.2527V87.542ZM87.3199 88.2041C87.3199 88.8174 87.2047 89.2803 86.9742 89.5928C86.7457 89.9033 86.3971 90.0586 85.9283 90.0586C85.4674 90.0586 85.1197 89.9072 84.8854 89.6045C84.6529 89.2998 84.5338 88.8496 84.5279 88.2539V87.5156C84.5279 86.9023 84.6422 86.4424 84.8707 86.1357C85.1012 85.8291 85.4518 85.6758 85.9225 85.6758C86.3893 85.6758 86.7369 85.8252 86.9654 86.124C87.1959 86.4229 87.3141 86.8701 87.3199 87.4658V88.2041ZM86.608 87.4072C86.608 87.0068 86.5533 86.7139 86.4439 86.5283C86.3346 86.3408 86.1607 86.2471 85.9225 86.2471C85.69 86.2471 85.5191 86.3359 85.4098 86.5137C85.3004 86.6895 85.2428 86.9648 85.2369 87.3398V88.3066C85.2369 88.7051 85.2926 89.002 85.4039 89.1973C85.5152 89.3926 85.69 89.4902 85.9283 89.4902C86.1568 89.4902 86.3258 89.4004 86.4352 89.2207C86.5445 89.0391 86.6021 88.7559 86.608 88.3711V87.4072Z" fill="#A4AFB7"/>
<path d="M80.3994 144.887C80.3994 144.721 80.3467 144.584 80.2412 144.477C80.1357 144.367 79.96 144.27 79.7139 144.184C79.4678 144.096 79.2764 144.015 79.1396 143.94C78.6846 143.696 78.457 143.335 78.457 142.856C78.457 142.532 78.5557 142.266 78.7529 142.057C78.9502 141.848 79.2178 141.724 79.5557 141.685V141.046H80.0244V141.69C80.3643 141.739 80.627 141.884 80.8125 142.124C80.998 142.362 81.0908 142.673 81.0908 143.056H80.3818C80.3818 142.81 80.3262 142.616 80.2148 142.476C80.1055 142.333 79.9561 142.262 79.7666 142.262C79.5791 142.262 79.4326 142.312 79.3271 142.414C79.2217 142.516 79.1689 142.661 79.1689 142.851C79.1689 143.021 79.2207 143.157 79.3242 143.261C79.4297 143.362 79.6074 143.459 79.8574 143.551C80.1074 143.643 80.3037 143.728 80.4463 143.806C80.5889 143.884 80.709 143.974 80.8066 144.075C80.9043 144.175 80.9795 144.29 81.0322 144.421C81.085 144.552 81.1113 144.705 81.1113 144.881C81.1113 145.211 81.0098 145.479 80.8066 145.684C80.6055 145.889 80.3242 146.01 79.9629 146.047V146.618H79.4971V146.05C79.1104 146.007 78.8125 145.868 78.6035 145.634C78.3965 145.399 78.293 145.089 78.293 144.702H79.0049C79.0049 144.948 79.0664 145.139 79.1895 145.273C79.3145 145.408 79.4902 145.476 79.7168 145.476C79.9395 145.476 80.1084 145.422 80.2236 145.314C80.3408 145.207 80.3994 145.064 80.3994 144.887ZM82.2527 143.542H82.6863C82.9051 143.54 83.0779 143.483 83.2049 143.372C83.3338 143.261 83.3982 143.1 83.3982 142.889C83.3982 142.686 83.3445 142.528 83.2371 142.417C83.1316 142.304 82.9695 142.247 82.7508 142.247C82.5594 142.247 82.4021 142.303 82.2791 142.414C82.1561 142.523 82.0945 142.667 82.0945 142.845H81.3826C81.3826 142.626 81.4402 142.427 81.5555 142.247C81.6727 142.067 81.8348 141.928 82.0418 141.828C82.2508 141.727 82.4842 141.676 82.742 141.676C83.1678 141.676 83.5018 141.783 83.7439 141.998C83.9881 142.211 84.1102 142.508 84.1102 142.889C84.1102 143.08 84.0486 143.261 83.9256 143.431C83.8045 143.599 83.6473 143.726 83.4539 143.812C83.6883 143.892 83.866 144.018 83.9871 144.189C84.1102 144.361 84.1717 144.566 84.1717 144.805C84.1717 145.188 84.0398 145.492 83.7762 145.719C83.5145 145.945 83.1697 146.059 82.742 146.059C82.3318 146.059 81.9959 145.949 81.7342 145.73C81.4725 145.512 81.3416 145.221 81.3416 144.857H82.0535C82.0535 145.045 82.116 145.197 82.241 145.314C82.368 145.432 82.5379 145.49 82.7508 145.49C82.9715 145.49 83.1453 145.432 83.2723 145.314C83.3992 145.197 83.4627 145.027 83.4627 144.805C83.4627 144.58 83.3963 144.407 83.2635 144.286C83.1307 144.165 82.9334 144.104 82.6717 144.104H82.2527V143.542ZM87.3199 144.204C87.3199 144.817 87.2047 145.28 86.9742 145.593C86.7457 145.903 86.3971 146.059 85.9283 146.059C85.4674 146.059 85.1197 145.907 84.8854 145.604C84.6529 145.3 84.5338 144.85 84.5279 144.254V143.516C84.5279 142.902 84.6422 142.442 84.8707 142.136C85.1012 141.829 85.4518 141.676 85.9225 141.676C86.3893 141.676 86.7369 141.825 86.9654 142.124C87.1959 142.423 87.3141 142.87 87.3199 143.466V144.204ZM86.608 143.407C86.608 143.007 86.5533 142.714 86.4439 142.528C86.3346 142.341 86.1607 142.247 85.9225 142.247C85.69 142.247 85.5191 142.336 85.4098 142.514C85.3004 142.689 85.2428 142.965 85.2369 143.34V144.307C85.2369 144.705 85.2926 145.002 85.4039 145.197C85.5152 145.393 85.69 145.49 85.9283 145.49C86.1568 145.49 86.3258 145.4 86.4352 145.221C86.5445 145.039 86.6021 144.756 86.608 144.371V143.407Z" fill="#A4AFB7"/>
<path d="M80.3994 200.887C80.3994 200.721 80.3467 200.584 80.2412 200.477C80.1357 200.367 79.96 200.27 79.7139 200.184C79.4678 200.096 79.2764 200.015 79.1396 199.94C78.6846 199.696 78.457 199.335 78.457 198.856C78.457 198.532 78.5557 198.266 78.7529 198.057C78.9502 197.848 79.2178 197.724 79.5557 197.685V197.046H80.0244V197.69C80.3643 197.739 80.627 197.884 80.8125 198.124C80.998 198.362 81.0908 198.673 81.0908 199.056H80.3818C80.3818 198.81 80.3262 198.616 80.2148 198.476C80.1055 198.333 79.9561 198.262 79.7666 198.262C79.5791 198.262 79.4326 198.312 79.3271 198.414C79.2217 198.516 79.1689 198.661 79.1689 198.851C79.1689 199.021 79.2207 199.157 79.3242 199.261C79.4297 199.362 79.6074 199.459 79.8574 199.551C80.1074 199.643 80.3037 199.728 80.4463 199.806C80.5889 199.884 80.709 199.974 80.8066 200.075C80.9043 200.175 80.9795 200.29 81.0322 200.421C81.085 200.552 81.1113 200.705 81.1113 200.881C81.1113 201.211 81.0098 201.479 80.8066 201.684C80.6055 201.889 80.3242 202.01 79.9629 202.047V202.618H79.4971V202.05C79.1104 202.007 78.8125 201.868 78.6035 201.634C78.3965 201.399 78.293 201.089 78.293 200.702H79.0049C79.0049 200.948 79.0664 201.139 79.1895 201.273C79.3145 201.408 79.4902 201.476 79.7168 201.476C79.9395 201.476 80.1084 201.422 80.2236 201.314C80.3408 201.207 80.3994 201.064 80.3994 200.887ZM82.2527 199.542H82.6863C82.9051 199.54 83.0779 199.483 83.2049 199.372C83.3338 199.261 83.3982 199.1 83.3982 198.889C83.3982 198.686 83.3445 198.528 83.2371 198.417C83.1316 198.304 82.9695 198.247 82.7508 198.247C82.5594 198.247 82.4021 198.303 82.2791 198.414C82.1561 198.523 82.0945 198.667 82.0945 198.845H81.3826C81.3826 198.626 81.4402 198.427 81.5555 198.247C81.6727 198.067 81.8348 197.928 82.0418 197.828C82.2508 197.727 82.4842 197.676 82.742 197.676C83.1678 197.676 83.5018 197.783 83.7439 197.998C83.9881 198.211 84.1102 198.508 84.1102 198.889C84.1102 199.08 84.0486 199.261 83.9256 199.431C83.8045 199.599 83.6473 199.726 83.4539 199.812C83.6883 199.892 83.866 200.018 83.9871 200.189C84.1102 200.361 84.1717 200.566 84.1717 200.805C84.1717 201.188 84.0398 201.492 83.7762 201.719C83.5145 201.945 83.1697 202.059 82.742 202.059C82.3318 202.059 81.9959 201.949 81.7342 201.73C81.4725 201.512 81.3416 201.221 81.3416 200.857H82.0535C82.0535 201.045 82.116 201.197 82.241 201.314C82.368 201.432 82.5379 201.49 82.7508 201.49C82.9715 201.49 83.1453 201.432 83.2723 201.314C83.3992 201.197 83.4627 201.027 83.4627 200.805C83.4627 200.58 83.3963 200.407 83.2635 200.286C83.1307 200.165 82.9334 200.104 82.6717 200.104H82.2527V199.542ZM87.3199 200.204C87.3199 200.817 87.2047 201.28 86.9742 201.593C86.7457 201.903 86.3971 202.059 85.9283 202.059C85.4674 202.059 85.1197 201.907 84.8854 201.604C84.6529 201.3 84.5338 200.85 84.5279 200.254V199.516C84.5279 198.902 84.6422 198.442 84.8707 198.136C85.1012 197.829 85.4518 197.676 85.9225 197.676C86.3893 197.676 86.7369 197.825 86.9654 198.124C87.1959 198.423 87.3141 198.87 87.3199 199.466V200.204ZM86.608 199.407C86.608 199.007 86.5533 198.714 86.4439 198.528C86.3346 198.341 86.1607 198.247 85.9225 198.247C85.69 198.247 85.5191 198.336 85.4098 198.514C85.3004 198.689 85.2428 198.965 85.2369 199.34V200.307C85.2369 200.705 85.2926 201.002 85.4039 201.197C85.5152 201.393 85.69 201.49 85.9283 201.49C86.1568 201.49 86.3258 201.4 86.4352 201.221C86.5445 201.039 86.6021 200.756 86.608 200.371V199.407Z" fill="#A4AFB7"/>
<path d="M172.399 88.8867C172.399 88.7207 172.347 88.584 172.241 88.4766C172.136 88.3672 171.96 88.2695 171.714 88.1836C171.468 88.0957 171.276 88.0146 171.14 87.9404C170.685 87.6963 170.457 87.335 170.457 86.8564C170.457 86.5322 170.556 86.2656 170.753 86.0566C170.95 85.8477 171.218 85.7236 171.556 85.6846V85.0459H172.024V85.6904C172.364 85.7393 172.627 85.8838 172.812 86.124C172.998 86.3623 173.091 86.6729 173.091 87.0557H172.382C172.382 86.8096 172.326 86.6162 172.215 86.4756C172.105 86.333 171.956 86.2617 171.767 86.2617C171.579 86.2617 171.433 86.3125 171.327 86.4141C171.222 86.5156 171.169 86.6611 171.169 86.8506C171.169 87.0205 171.221 87.1572 171.324 87.2607C171.43 87.3623 171.607 87.459 171.857 87.5508C172.107 87.6426 172.304 87.7275 172.446 87.8057C172.589 87.8838 172.709 87.9736 172.807 88.0752C172.904 88.1748 172.979 88.29 173.032 88.4209C173.085 88.5518 173.111 88.7051 173.111 88.8809C173.111 89.2109 173.01 89.4785 172.807 89.6836C172.605 89.8887 172.324 90.0098 171.963 90.0469V90.6182H171.497V90.0498C171.11 90.0068 170.812 89.8682 170.604 89.6338C170.396 89.3994 170.293 89.0889 170.293 88.7021H171.005C171.005 88.9482 171.066 89.1387 171.189 89.2734C171.314 89.4082 171.49 89.4756 171.717 89.4756C171.939 89.4756 172.108 89.4219 172.224 89.3145C172.341 89.207 172.399 89.0645 172.399 88.8867ZM176.298 90H173.429V89.5107L174.85 87.9609C175.055 87.7324 175.201 87.542 175.287 87.3896C175.375 87.2354 175.419 87.0811 175.419 86.9268C175.419 86.7236 175.361 86.5596 175.246 86.4346C175.133 86.3096 174.979 86.2471 174.786 86.2471C174.555 86.2471 174.377 86.3174 174.25 86.458C174.123 86.5986 174.059 86.791 174.059 87.0352H173.347C173.347 86.7754 173.406 86.542 173.523 86.335C173.642 86.126 173.811 85.9639 174.03 85.8486C174.251 85.7334 174.505 85.6758 174.792 85.6758C175.206 85.6758 175.532 85.7803 175.77 85.9893C176.011 86.1963 176.131 86.4834 176.131 86.8506C176.131 87.0635 176.07 87.2871 175.949 87.5215C175.83 87.7539 175.634 88.0186 175.36 88.3154L174.317 89.4316H176.298V90ZM179.408 90H176.54V89.5107L177.961 87.9609C178.166 87.7324 178.311 87.542 178.397 87.3896C178.485 87.2354 178.529 87.0811 178.529 86.9268C178.529 86.7236 178.471 86.5596 178.356 86.4346C178.243 86.3096 178.089 86.2471 177.896 86.2471C177.666 86.2471 177.487 86.3174 177.36 86.458C177.233 86.5986 177.17 86.791 177.17 87.0352H176.458C176.458 86.7754 176.516 86.542 176.633 86.335C176.753 86.126 176.921 85.9639 177.14 85.8486C177.361 85.7334 177.615 85.6758 177.902 85.6758C178.316 85.6758 178.642 85.7803 178.88 85.9893C179.121 86.1963 179.241 86.4834 179.241 86.8506C179.241 87.0635 179.18 87.2871 179.059 87.5215C178.94 87.7539 178.744 88.0186 178.47 88.3154L177.427 89.4316H179.408V90Z" fill="#A4AFB7"/>
<path d="M172.399 144.887C172.399 144.721 172.347 144.584 172.241 144.477C172.136 144.367 171.96 144.27 171.714 144.184C171.468 144.096 171.276 144.015 171.14 143.94C170.685 143.696 170.457 143.335 170.457 142.856C170.457 142.532 170.556 142.266 170.753 142.057C170.95 141.848 171.218 141.724 171.556 141.685V141.046H172.024V141.69C172.364 141.739 172.627 141.884 172.812 142.124C172.998 142.362 173.091 142.673 173.091 143.056H172.382C172.382 142.81 172.326 142.616 172.215 142.476C172.105 142.333 171.956 142.262 171.767 142.262C171.579 142.262 171.433 142.312 171.327 142.414C171.222 142.516 171.169 142.661 171.169 142.851C171.169 143.021 171.221 143.157 171.324 143.261C171.43 143.362 171.607 143.459 171.857 143.551C172.107 143.643 172.304 143.728 172.446 143.806C172.589 143.884 172.709 143.974 172.807 144.075C172.904 144.175 172.979 144.29 173.032 144.421C173.085 144.552 173.111 144.705 173.111 144.881C173.111 145.211 173.01 145.479 172.807 145.684C172.605 145.889 172.324 146.01 171.963 146.047V146.618H171.497V146.05C171.11 146.007 170.812 145.868 170.604 145.634C170.396 145.399 170.293 145.089 170.293 144.702H171.005C171.005 144.948 171.066 145.139 171.189 145.273C171.314 145.408 171.49 145.476 171.717 145.476C171.939 145.476 172.108 145.422 172.224 145.314C172.341 145.207 172.399 145.064 172.399 144.887ZM176.298 146H173.429V145.511L174.85 143.961C175.055 143.732 175.201 143.542 175.287 143.39C175.375 143.235 175.419 143.081 175.419 142.927C175.419 142.724 175.361 142.56 175.246 142.435C175.133 142.31 174.979 142.247 174.786 142.247C174.555 142.247 174.377 142.317 174.25 142.458C174.123 142.599 174.059 142.791 174.059 143.035H173.347C173.347 142.775 173.406 142.542 173.523 142.335C173.642 142.126 173.811 141.964 174.03 141.849C174.251 141.733 174.505 141.676 174.792 141.676C175.206 141.676 175.532 141.78 175.77 141.989C176.011 142.196 176.131 142.483 176.131 142.851C176.131 143.063 176.07 143.287 175.949 143.521C175.83 143.754 175.634 144.019 175.36 144.315L174.317 145.432H176.298V146ZM179.408 146H176.54V145.511L177.961 143.961C178.166 143.732 178.311 143.542 178.397 143.39C178.485 143.235 178.529 143.081 178.529 142.927C178.529 142.724 178.471 142.56 178.356 142.435C178.243 142.31 178.089 142.247 177.896 142.247C177.666 142.247 177.487 142.317 177.36 142.458C177.233 142.599 177.17 142.791 177.17 143.035H176.458C176.458 142.775 176.516 142.542 176.633 142.335C176.753 142.126 176.921 141.964 177.14 141.849C177.361 141.733 177.615 141.676 177.902 141.676C178.316 141.676 178.642 141.78 178.88 141.989C179.121 142.196 179.241 142.483 179.241 142.851C179.241 143.063 179.18 143.287 179.059 143.521C178.94 143.754 178.744 144.019 178.47 144.315L177.427 145.432H179.408V146Z" fill="#A4AFB7"/>
<path d="M172.399 200.887C172.399 200.721 172.347 200.584 172.241 200.477C172.136 200.367 171.96 200.27 171.714 200.184C171.468 200.096 171.276 200.015 171.14 199.94C170.685 199.696 170.457 199.335 170.457 198.856C170.457 198.532 170.556 198.266 170.753 198.057C170.95 197.848 171.218 197.724 171.556 197.685V197.046H172.024V197.69C172.364 197.739 172.627 197.884 172.812 198.124C172.998 198.362 173.091 198.673 173.091 199.056H172.382C172.382 198.81 172.326 198.616 172.215 198.476C172.105 198.333 171.956 198.262 171.767 198.262C171.579 198.262 171.433 198.312 171.327 198.414C171.222 198.516 171.169 198.661 171.169 198.851C171.169 199.021 171.221 199.157 171.324 199.261C171.43 199.362 171.607 199.459 171.857 199.551C172.107 199.643 172.304 199.728 172.446 199.806C172.589 199.884 172.709 199.974 172.807 200.075C172.904 200.175 172.979 200.29 173.032 200.421C173.085 200.552 173.111 200.705 173.111 200.881C173.111 201.211 173.01 201.479 172.807 201.684C172.605 201.889 172.324 202.01 171.963 202.047V202.618H171.497V202.05C171.11 202.007 170.812 201.868 170.604 201.634C170.396 201.399 170.293 201.089 170.293 200.702H171.005C171.005 200.948 171.066 201.139 171.189 201.273C171.314 201.408 171.49 201.476 171.717 201.476C171.939 201.476 172.108 201.422 172.224 201.314C172.341 201.207 172.399 201.064 172.399 200.887ZM176.298 202H173.429V201.511L174.85 199.961C175.055 199.732 175.201 199.542 175.287 199.39C175.375 199.235 175.419 199.081 175.419 198.927C175.419 198.724 175.361 198.56 175.246 198.435C175.133 198.31 174.979 198.247 174.786 198.247C174.555 198.247 174.377 198.317 174.25 198.458C174.123 198.599 174.059 198.791 174.059 199.035H173.347C173.347 198.775 173.406 198.542 173.523 198.335C173.642 198.126 173.811 197.964 174.03 197.849C174.251 197.733 174.505 197.676 174.792 197.676C175.206 197.676 175.532 197.78 175.77 197.989C176.011 198.196 176.131 198.483 176.131 198.851C176.131 199.063 176.07 199.287 175.949 199.521C175.83 199.754 175.634 200.019 175.36 200.315L174.317 201.432H176.298V202ZM179.408 202H176.54V201.511L177.961 199.961C178.166 199.732 178.311 199.542 178.397 199.39C178.485 199.235 178.529 199.081 178.529 198.927C178.529 198.724 178.471 198.56 178.356 198.435C178.243 198.31 178.089 198.247 177.896 198.247C177.666 198.247 177.487 198.317 177.36 198.458C177.233 198.599 177.17 198.791 177.17 199.035H176.458C176.458 198.775 176.516 198.542 176.633 198.335C176.753 198.126 176.921 197.964 177.14 197.849C177.361 197.733 177.615 197.676 177.902 197.676C178.316 197.676 178.642 197.78 178.88 197.989C179.121 198.196 179.241 198.483 179.241 198.851C179.241 199.063 179.18 199.287 179.059 199.521C178.94 199.754 178.744 200.019 178.47 200.315L177.427 201.432H179.408V202Z" fill="#A4AFB7"/>
<path d="M126.399 88.8867C126.399 88.7207 126.347 88.584 126.241 88.4766C126.136 88.3672 125.96 88.2695 125.714 88.1836C125.468 88.0957 125.276 88.0146 125.14 87.9404C124.685 87.6963 124.457 87.335 124.457 86.8564C124.457 86.5322 124.556 86.2656 124.753 86.0566C124.95 85.8477 125.218 85.7236 125.556 85.6846V85.0459H126.024V85.6904C126.364 85.7393 126.627 85.8838 126.812 86.124C126.998 86.3623 127.091 86.6729 127.091 87.0557H126.382C126.382 86.8096 126.326 86.6162 126.215 86.4756C126.105 86.333 125.956 86.2617 125.767 86.2617C125.579 86.2617 125.433 86.3125 125.327 86.4141C125.222 86.5156 125.169 86.6611 125.169 86.8506C125.169 87.0205 125.221 87.1572 125.324 87.2607C125.43 87.3623 125.607 87.459 125.857 87.5508C126.107 87.6426 126.304 87.7275 126.446 87.8057C126.589 87.8838 126.709 87.9736 126.807 88.0752C126.904 88.1748 126.979 88.29 127.032 88.4209C127.085 88.5518 127.111 88.7051 127.111 88.8809C127.111 89.2109 127.01 89.4785 126.807 89.6836C126.605 89.8887 126.324 90.0098 125.963 90.0469V90.6182H125.497V90.0498C125.11 90.0068 124.812 89.8682 124.604 89.6338C124.396 89.3994 124.293 89.0889 124.293 88.7021H125.005C125.005 88.9482 125.066 89.1387 125.189 89.2734C125.314 89.4082 125.49 89.4756 125.717 89.4756C125.939 89.4756 126.108 89.4219 126.224 89.3145C126.341 89.207 126.399 89.0645 126.399 88.8867ZM129.357 90H128.648V86.5752L127.602 86.9326V86.332L129.266 85.7197H129.357V90ZM130.73 87.8848L130.962 85.7344H133.253V86.3496H131.553L131.436 87.3691C131.633 87.2559 131.856 87.1992 132.104 87.1992C132.51 87.1992 132.826 87.3291 133.05 87.5889C133.277 87.8486 133.39 88.1982 133.39 88.6377C133.39 89.0713 133.265 89.417 133.015 89.6748C132.765 89.9307 132.422 90.0586 131.987 90.0586C131.596 90.0586 131.272 89.9482 131.014 89.7275C130.758 89.5049 130.62 89.2119 130.598 88.8486H131.287C131.314 89.0557 131.388 89.2148 131.509 89.3262C131.63 89.4355 131.789 89.4902 131.984 89.4902C132.203 89.4902 132.373 89.4121 132.494 89.2559C132.617 89.0996 132.678 88.8867 132.678 88.6172C132.678 88.3574 132.611 88.1523 132.476 88.002C132.341 87.8496 132.156 87.7734 131.92 87.7734C131.791 87.7734 131.681 87.791 131.591 87.8262C131.502 87.8594 131.404 87.9258 131.298 88.0254L130.73 87.8848Z" fill="#A4AFB7"/>
<path d="M126.399 144.887C126.399 144.721 126.347 144.584 126.241 144.477C126.136 144.367 125.96 144.27 125.714 144.184C125.468 144.096 125.276 144.015 125.14 143.94C124.685 143.696 124.457 143.335 124.457 142.856C124.457 142.532 124.556 142.266 124.753 142.057C124.95 141.848 125.218 141.724 125.556 141.685V141.046H126.024V141.69C126.364 141.739 126.627 141.884 126.812 142.124C126.998 142.362 127.091 142.673 127.091 143.056H126.382C126.382 142.81 126.326 142.616 126.215 142.476C126.105 142.333 125.956 142.262 125.767 142.262C125.579 142.262 125.433 142.312 125.327 142.414C125.222 142.516 125.169 142.661 125.169 142.851C125.169 143.021 125.221 143.157 125.324 143.261C125.43 143.362 125.607 143.459 125.857 143.551C126.107 143.643 126.304 143.728 126.446 143.806C126.589 143.884 126.709 143.974 126.807 144.075C126.904 144.175 126.979 144.29 127.032 144.421C127.085 144.552 127.111 144.705 127.111 144.881C127.111 145.211 127.01 145.479 126.807 145.684C126.605 145.889 126.324 146.01 125.963 146.047V146.618H125.497V146.05C125.11 146.007 124.812 145.868 124.604 145.634C124.396 145.399 124.293 145.089 124.293 144.702H125.005C125.005 144.948 125.066 145.139 125.189 145.273C125.314 145.408 125.49 145.476 125.717 145.476C125.939 145.476 126.108 145.422 126.224 145.314C126.341 145.207 126.399 145.064 126.399 144.887ZM129.357 146H128.648V142.575L127.602 142.933V142.332L129.266 141.72H129.357V146ZM130.73 143.885L130.962 141.734H133.253V142.35H131.553L131.436 143.369C131.633 143.256 131.856 143.199 132.104 143.199C132.51 143.199 132.826 143.329 133.05 143.589C133.277 143.849 133.39 144.198 133.39 144.638C133.39 145.071 133.265 145.417 133.015 145.675C132.765 145.931 132.422 146.059 131.987 146.059C131.596 146.059 131.272 145.948 131.014 145.728C130.758 145.505 130.62 145.212 130.598 144.849H131.287C131.314 145.056 131.388 145.215 131.509 145.326C131.63 145.436 131.789 145.49 131.984 145.49C132.203 145.49 132.373 145.412 132.494 145.256C132.617 145.1 132.678 144.887 132.678 144.617C132.678 144.357 132.611 144.152 132.476 144.002C132.341 143.85 132.156 143.773 131.92 143.773C131.791 143.773 131.681 143.791 131.591 143.826C131.502 143.859 131.404 143.926 131.298 144.025L130.73 143.885Z" fill="#A4AFB7"/>
<path d="M126.399 200.887C126.399 200.721 126.347 200.584 126.241 200.477C126.136 200.367 125.96 200.27 125.714 200.184C125.468 200.096 125.276 200.015 125.14 199.94C124.685 199.696 124.457 199.335 124.457 198.856C124.457 198.532 124.556 198.266 124.753 198.057C124.95 197.848 125.218 197.724 125.556 197.685V197.046H126.024V197.69C126.364 197.739 126.627 197.884 126.812 198.124C126.998 198.362 127.091 198.673 127.091 199.056H126.382C126.382 198.81 126.326 198.616 126.215 198.476C126.105 198.333 125.956 198.262 125.767 198.262C125.579 198.262 125.433 198.312 125.327 198.414C125.222 198.516 125.169 198.661 125.169 198.851C125.169 199.021 125.221 199.157 125.324 199.261C125.43 199.362 125.607 199.459 125.857 199.551C126.107 199.643 126.304 199.728 126.446 199.806C126.589 199.884 126.709 199.974 126.807 200.075C126.904 200.175 126.979 200.29 127.032 200.421C127.085 200.552 127.111 200.705 127.111 200.881C127.111 201.211 127.01 201.479 126.807 201.684C126.605 201.889 126.324 202.01 125.963 202.047V202.618H125.497V202.05C125.11 202.007 124.812 201.868 124.604 201.634C124.396 201.399 124.293 201.089 124.293 200.702H125.005C125.005 200.948 125.066 201.139 125.189 201.273C125.314 201.408 125.49 201.476 125.717 201.476C125.939 201.476 126.108 201.422 126.224 201.314C126.341 201.207 126.399 201.064 126.399 200.887ZM129.357 202H128.648V198.575L127.602 198.933V198.332L129.266 197.72H129.357V202ZM130.73 199.885L130.962 197.734H133.253V198.35H131.553L131.436 199.369C131.633 199.256 131.856 199.199 132.104 199.199C132.51 199.199 132.826 199.329 133.05 199.589C133.277 199.849 133.39 200.198 133.39 200.638C133.39 201.071 133.265 201.417 133.015 201.675C132.765 201.931 132.422 202.059 131.987 202.059C131.596 202.059 131.272 201.948 131.014 201.728C130.758 201.505 130.62 201.212 130.598 200.849H131.287C131.314 201.056 131.388 201.215 131.509 201.326C131.63 201.436 131.789 201.49 131.984 201.49C132.203 201.49 132.373 201.412 132.494 201.256C132.617 201.1 132.678 200.887 132.678 200.617C132.678 200.357 132.611 200.152 132.476 200.002C132.341 199.85 132.156 199.773 131.92 199.773C131.791 199.773 131.681 199.791 131.591 199.826C131.502 199.859 131.404 199.926 131.298 200.025L130.73 199.885Z" fill="#A4AFB7"/>
<rect x="22" y="43" width="39" height="2" rx="1" fill="#D5DADF"/>
<rect x="22" y="93" width="39" height="2" rx="1" fill="#D5DADF"/>
<rect x="22" y="63" width="36" height="2" rx="1" fill="#D5DADF"/>
<rect x="22" y="113" width="36" height="2" rx="1" fill="#D5DADF"/>
<rect x="22" y="83" width="36" height="2" rx="1" fill="#D5DADF"/>
<rect x="22" y="133" width="36" height="2" rx="1" fill="#D5DADF"/>
<rect x="22" y="53" width="33" height="2" rx="1" fill="#D5DADF"/>
<rect x="22" y="103" width="33" height="2" rx="1" fill="#D5DADF"/>
<rect x="22" y="73" width="33" height="2" rx="1" fill="#D5DADF"/>
<rect x="22" y="123" width="33" height="2" rx="1" fill="#D5DADF"/>
<rect width="28" height="2" rx="1" transform="matrix(1 0 0 -1 78 82)" fill="#D5DADF"/>
<rect width="28" height="2" rx="1" transform="matrix(1 0 0 -1 78 138)" fill="#D5DADF"/>
<rect width="28" height="2" rx="1" transform="matrix(1 0 0 -1 78 194)" fill="#D5DADF"/>
<rect width="28" height="2" rx="1" transform="matrix(1 0 0 -1 170 82)" fill="#D5DADF"/>
<rect width="28" height="2" rx="1" transform="matrix(1 0 0 -1 170 138)" fill="#D5DADF"/>
<rect width="28" height="2" rx="1" transform="matrix(1 0 0 -1 170 194)" fill="#D5DADF"/>
<rect width="28" height="2" rx="1" transform="matrix(1 0 0 -1 124 82)" fill="#D5DADF"/>
<rect width="28" height="2" rx="1" transform="matrix(1 0 0 -1 124 138)" fill="#D5DADF"/>
<rect width="28" height="2" rx="1" transform="matrix(1 0 0 -1 124 194)" fill="#D5DADF"/>
<rect width="36" height="2" rx="1" transform="matrix(1 0 0 -1 78 76)" fill="#D5DADF"/>
<rect width="36" height="2" rx="1" transform="matrix(1 0 0 -1 78 132)" fill="#D5DADF"/>
<rect width="36" height="2" rx="1" transform="matrix(1 0 0 -1 78 188)" fill="#D5DADF"/>
<rect width="36" height="2" rx="1" transform="matrix(1 0 0 -1 170 76)" fill="#D5DADF"/>
<rect width="36" height="2" rx="1" transform="matrix(1 0 0 -1 170 132)" fill="#D5DADF"/>
<rect width="36" height="2" rx="1" transform="matrix(1 0 0 -1 170 188)" fill="#D5DADF"/>
<rect width="36" height="2" rx="1" transform="matrix(1 0 0 -1 124 76)" fill="#D5DADF"/>
<rect width="36" height="2" rx="1" transform="matrix(1 0 0 -1 124 132)" fill="#D5DADF"/>
<rect width="36" height="2" rx="1" transform="matrix(1 0 0 -1 124 188)" fill="#D5DADF"/>
<mask id="mask0" mask-type="alpha" maskUnits="userSpaceOnUse" x="78" y="43" width="38" height="25">
<path fill-rule="evenodd" clip-rule="evenodd" d="M78 43H115.687V68H78V43Z" fill="white"/>
</mask>
<g mask="url(#mask0)">
<rect x="77.3535" y="42.8481" width="39.8401" height="26.0088" fill="#E6E9EC"/>
<mask id="mask1" mask-type="alpha" maskUnits="userSpaceOnUse" x="77" y="42" width="41" height="27">
<rect x="77.3535" y="42.8481" width="39.8401" height="26.0088" fill="white"/>
</mask>
<g mask="url(#mask1)">
<path d="M123.588 71.1911C123.588 71.1911 113.151 51.3424 105.253 49.7305C97.3549 48.1186 94.2614 63.7362 89.5351 61.6648C88.6572 61.2801 83.8176 55.7863 79.9102 57.3276C77.0997 58.4362 71.1094 71.2637 71.1094 71.2637H123.588V71.1911Z" fill="#F8F9FA"/>
<path d="M89.0631 56.0466C89.9716 56.0466 90.7082 55.3191 90.7082 54.4217C90.7082 53.5244 89.9716 52.7969 89.0631 52.7969C88.1545 52.7969 87.418 53.5244 87.418 54.4217C87.418 55.3191 88.1545 56.0466 89.0631 56.0466Z" fill="#F8F9FA"/>
</g>
</g>
<mask id="mask2" mask-type="alpha" maskUnits="userSpaceOnUse" x="78" y="99" width="38" height="25">
<path fill-rule="evenodd" clip-rule="evenodd" d="M78 99H115.687V124H78V99Z" fill="white"/>
</mask>
<g mask="url(#mask2)">
<rect x="77.3535" y="98.8481" width="39.8401" height="26.0088" fill="#E6E9EC"/>
<mask id="mask3" mask-type="alpha" maskUnits="userSpaceOnUse" x="77" y="98" width="41" height="27">
<rect x="77.3535" y="98.8481" width="39.8401" height="26.0088" fill="white"/>
</mask>
<g mask="url(#mask3)">
<path d="M123.588 127.191C123.588 127.191 113.151 107.342 105.253 105.73C97.3549 104.119 94.2614 119.736 89.5351 117.665C88.6572 117.28 83.8176 111.786 79.9102 113.328C77.0997 114.436 71.1094 127.264 71.1094 127.264H123.588V127.191Z" fill="#F8F9FA"/>
<path d="M89.0631 112.047C89.9716 112.047 90.7082 111.319 90.7082 110.422C90.7082 109.524 89.9716 108.797 89.0631 108.797C88.1545 108.797 87.418 109.524 87.418 110.422C87.418 111.319 88.1545 112.047 89.0631 112.047Z" fill="#F8F9FA"/>
</g>
</g>
<mask id="mask4" mask-type="alpha" maskUnits="userSpaceOnUse" x="78" y="155" width="38" height="25">
<path fill-rule="evenodd" clip-rule="evenodd" d="M78 155H115.687V180H78V155Z" fill="white"/>
</mask>
<g mask="url(#mask4)">
<rect x="77.3535" y="154.848" width="39.8401" height="26.0088" fill="#E6E9EC"/>
<mask id="mask5" mask-type="alpha" maskUnits="userSpaceOnUse" x="77" y="154" width="41" height="27">
<rect x="77.3535" y="154.848" width="39.8401" height="26.0088" fill="white"/>
</mask>
<g mask="url(#mask5)">
<path d="M123.588 183.191C123.588 183.191 113.151 163.342 105.253 161.73C97.3549 160.119 94.2614 175.736 89.5351 173.665C88.6572 173.28 83.8176 167.786 79.9102 169.328C77.0997 170.436 71.1094 183.264 71.1094 183.264H123.588V183.191Z" fill="#F8F9FA"/>
<path d="M89.0631 168.047C89.9716 168.047 90.7082 167.319 90.7082 166.422C90.7082 165.524 89.9716 164.797 89.0631 164.797C88.1545 164.797 87.418 165.524 87.418 166.422C87.418 167.319 88.1545 168.047 89.0631 168.047Z" fill="#F8F9FA"/>
</g>
</g>
<mask id="mask6" mask-type="alpha" maskUnits="userSpaceOnUse" x="78" y="211" width="38" height="11">
<path fill-rule="evenodd" clip-rule="evenodd" d="M78 211H116V222H78V211Z" fill="white"/>
</mask>
<g mask="url(#mask6)">
<rect x="77.3535" y="210.848" width="39.8401" height="26.0088" fill="#E6E9EC"/>
<mask id="mask7" mask-type="alpha" maskUnits="userSpaceOnUse" x="77" y="210" width="41" height="27">
<rect x="77.3535" y="210.848" width="39.8401" height="26.0088" fill="white"/>
</mask>
<g mask="url(#mask7)">
<path d="M123.588 239.191C123.588 239.191 113.151 219.342 105.253 217.73C97.3549 216.119 94.2614 231.736 89.5351 229.665C88.6572 229.28 83.8176 223.786 79.9102 225.328C77.0997 226.436 71.1094 239.264 71.1094 239.264H123.588V239.191Z" fill="#F8F9FA"/>
<path d="M89.0631 224.047C89.9716 224.047 90.7082 223.319 90.7082 222.422C90.7082 221.524 89.9716 220.797 89.0631 220.797C88.1545 220.797 87.418 221.524 87.418 222.422C87.418 223.319 88.1545 224.047 89.0631 224.047Z" fill="#F8F9FA"/>
</g>
</g>
<mask id="mask8" mask-type="alpha" maskUnits="userSpaceOnUse" x="124" y="211" width="38" height="11">
<path fill-rule="evenodd" clip-rule="evenodd" d="M124 211H162V222H124V211Z" fill="white"/>
</mask>
<g mask="url(#mask8)">
<rect x="123.354" y="210.848" width="39.8401" height="26.0088" fill="#E6E9EC"/>
<mask id="mask9" mask-type="alpha" maskUnits="userSpaceOnUse" x="123" y="210" width="41" height="27">
<rect x="123.354" y="210.848" width="39.8401" height="26.0088" fill="white"/>
</mask>
<g mask="url(#mask9)">
<path d="M169.588 239.191C169.588 239.191 159.151 219.342 151.253 217.73C143.355 216.119 140.261 231.736 135.535 229.665C134.657 229.28 129.818 223.786 125.91 225.328C123.1 226.436 117.109 239.264 117.109 239.264H169.588V239.191Z" fill="#F8F9FA"/>
<path d="M135.063 224.047C135.972 224.047 136.708 223.319 136.708 222.422C136.708 221.524 135.972 220.797 135.063 220.797C134.155 220.797 133.418 221.524 133.418 222.422C133.418 223.319 134.155 224.047 135.063 224.047Z" fill="#F8F9FA"/>
</g>
</g>
<mask id="mask10" mask-type="alpha" maskUnits="userSpaceOnUse" x="170" y="211" width="38" height="11">
<path fill-rule="evenodd" clip-rule="evenodd" d="M170 211H208V222H170V211Z" fill="white"/>
</mask>
<g mask="url(#mask10)">
<rect x="169.354" y="210.848" width="39.8401" height="26.0088" fill="#E6E9EC"/>
<mask id="mask11" mask-type="alpha" maskUnits="userSpaceOnUse" x="169" y="210" width="41" height="27">
<rect x="169.354" y="210.848" width="39.8401" height="26.0088" fill="white"/>
</mask>
<g mask="url(#mask11)">
<path d="M215.588 239.191C215.588 239.191 205.151 219.342 197.253 217.73C189.355 216.119 186.261 231.736 181.535 229.665C180.657 229.28 175.818 223.786 171.91 225.328C169.1 226.436 163.109 239.264 163.109 239.264H215.588V239.191Z" fill="#F8F9FA"/>
<path d="M181.063 224.047C181.972 224.047 182.708 223.319 182.708 222.422C182.708 221.524 181.972 220.797 181.063 220.797C180.155 220.797 179.418 221.524 179.418 222.422C179.418 223.319 180.155 224.047 181.063 224.047Z" fill="#F8F9FA"/>
</g>
</g>
<mask id="mask12" mask-type="alpha" maskUnits="userSpaceOnUse" x="170" y="43" width="38" height="25">
<path fill-rule="evenodd" clip-rule="evenodd" d="M170 43H207.687V68H170V43Z" fill="white"/>
</mask>
<g mask="url(#mask12)">
<rect x="169.354" y="42.8481" width="39.8401" height="26.0088" fill="#E6E9EC"/>
<mask id="mask13" mask-type="alpha" maskUnits="userSpaceOnUse" x="169" y="42" width="41" height="27">
<rect x="169.354" y="42.8481" width="39.8401" height="26.0088" fill="white"/>
</mask>
<g mask="url(#mask13)">
<path d="M215.588 71.1911C215.588 71.1911 205.151 51.3424 197.253 49.7305C189.355 48.1186 186.261 63.7362 181.535 61.6648C180.657 61.2801 175.818 55.7863 171.91 57.3276C169.1 58.4362 163.109 71.2637 163.109 71.2637H215.588V71.1911Z" fill="#F8F9FA"/>
<path d="M181.063 56.0466C181.972 56.0466 182.708 55.3191 182.708 54.4217C182.708 53.5244 181.972 52.7969 181.063 52.7969C180.155 52.7969 179.418 53.5244 179.418 54.4217C179.418 55.3191 180.155 56.0466 181.063 56.0466Z" fill="#F8F9FA"/>
</g>
</g>
<mask id="mask14" mask-type="alpha" maskUnits="userSpaceOnUse" x="170" y="99" width="38" height="25">
<path fill-rule="evenodd" clip-rule="evenodd" d="M170 99H207.687V124H170V99Z" fill="white"/>
</mask>
<g mask="url(#mask14)">
<rect x="169.354" y="98.8481" width="39.8401" height="26.0088" fill="#E6E9EC"/>
<mask id="mask15" mask-type="alpha" maskUnits="userSpaceOnUse" x="169" y="98" width="41" height="27">
<rect x="169.354" y="98.8481" width="39.8401" height="26.0088" fill="white"/>
</mask>
<g mask="url(#mask15)">
<path d="M215.588 127.191C215.588 127.191 205.151 107.342 197.253 105.73C189.355 104.119 186.261 119.736 181.535 117.665C180.657 117.28 175.818 111.786 171.91 113.328C169.1 114.436 163.109 127.264 163.109 127.264H215.588V127.191Z" fill="#F8F9FA"/>
<path d="M181.063 112.047C181.972 112.047 182.708 111.319 182.708 110.422C182.708 109.524 181.972 108.797 181.063 108.797C180.155 108.797 179.418 109.524 179.418 110.422C179.418 111.319 180.155 112.047 181.063 112.047Z" fill="#F8F9FA"/>
</g>
</g>
<mask id="mask16" mask-type="alpha" maskUnits="userSpaceOnUse" x="170" y="155" width="38" height="25">
<path fill-rule="evenodd" clip-rule="evenodd" d="M170 155H207.687V180H170V155Z" fill="white"/>
</mask>
<g mask="url(#mask16)">
<rect x="169.354" y="154.848" width="39.8401" height="26.0088" fill="#E6E9EC"/>
<mask id="mask17" mask-type="alpha" maskUnits="userSpaceOnUse" x="169" y="154" width="41" height="27">
<rect x="169.354" y="154.848" width="39.8401" height="26.0088" fill="white"/>
</mask>
<g mask="url(#mask17)">
<path d="M215.588 183.191C215.588 183.191 205.151 163.342 197.253 161.73C189.355 160.119 186.261 175.736 181.535 173.665C180.657 173.28 175.818 167.786 171.91 169.328C169.1 170.436 163.109 183.264 163.109 183.264H215.588V183.191Z" fill="#F8F9FA"/>
<path d="M181.063 168.047C181.972 168.047 182.708 167.319 182.708 166.422C182.708 165.524 181.972 164.797 181.063 164.797C180.155 164.797 179.418 165.524 179.418 166.422C179.418 167.319 180.155 168.047 181.063 168.047Z" fill="#F8F9FA"/>
</g>
</g>
<mask id="mask18" mask-type="alpha" maskUnits="userSpaceOnUse" x="124" y="43" width="38" height="25">
<path fill-rule="evenodd" clip-rule="evenodd" d="M124 43H161.687V68H124V43Z" fill="white"/>
</mask>
<g mask="url(#mask18)">
<rect x="123.354" y="42.8481" width="39.8401" height="26.0088" fill="#E6E9EC"/>
<mask id="mask19" mask-type="alpha" maskUnits="userSpaceOnUse" x="123" y="42" width="41" height="27">
<rect x="123.354" y="42.8481" width="39.8401" height="26.0088" fill="white"/>
</mask>
<g mask="url(#mask19)">
<path d="M169.588 71.1911C169.588 71.1911 159.151 51.3424 151.253 49.7305C143.355 48.1186 140.261 63.7362 135.535 61.6648C134.657 61.2801 129.818 55.7863 125.91 57.3276C123.1 58.4362 117.109 71.2637 117.109 71.2637H169.588V71.1911Z" fill="#F8F9FA"/>
<path d="M135.063 56.0466C135.972 56.0466 136.708 55.3191 136.708 54.4217C136.708 53.5244 135.972 52.7969 135.063 52.7969C134.155 52.7969 133.418 53.5244 133.418 54.4217C133.418 55.3191 134.155 56.0466 135.063 56.0466Z" fill="#F8F9FA"/>
</g>
</g>
<mask id="mask20" mask-type="alpha" maskUnits="userSpaceOnUse" x="124" y="99" width="38" height="25">
<path fill-rule="evenodd" clip-rule="evenodd" d="M124 99H161.687V124H124V99Z" fill="white"/>
</mask>
<g mask="url(#mask20)">
<rect x="123.354" y="98.8481" width="39.8401" height="26.0088" fill="#E6E9EC"/>
<mask id="mask21" mask-type="alpha" maskUnits="userSpaceOnUse" x="123" y="98" width="41" height="27">
<rect x="123.354" y="98.8481" width="39.8401" height="26.0088" fill="white"/>
</mask>
<g mask="url(#mask21)">
<path d="M169.588 127.191C169.588 127.191 159.151 107.342 151.253 105.73C143.355 104.119 140.261 119.736 135.535 117.665C134.657 117.28 129.818 111.786 125.91 113.328C123.1 114.436 117.109 127.264 117.109 127.264H169.588V127.191Z" fill="#F8F9FA"/>
<path d="M135.063 112.047C135.972 112.047 136.708 111.319 136.708 110.422C136.708 109.524 135.972 108.797 135.063 108.797C134.155 108.797 133.418 109.524 133.418 110.422C133.418 111.319 134.155 112.047 135.063 112.047Z" fill="#F8F9FA"/>
</g>
</g>
<mask id="mask22" mask-type="alpha" maskUnits="userSpaceOnUse" x="124" y="155" width="38" height="25">
<path fill-rule="evenodd" clip-rule="evenodd" d="M124 155H161.687V180H124V155Z" fill="white"/>
</mask>
<g mask="url(#mask22)">
<rect x="123.354" y="154.848" width="39.8401" height="26.0088" fill="#E6E9EC"/>
<mask id="mask23" mask-type="alpha" maskUnits="userSpaceOnUse" x="123" y="154" width="41" height="27">
<rect x="123.354" y="154.848" width="39.8401" height="26.0088" fill="white"/>
</mask>
<g mask="url(#mask23)">
<path d="M169.588 183.191C169.588 183.191 159.151 163.342 151.253 161.73C143.355 160.119 140.261 175.736 135.535 173.665C134.657 173.28 129.818 167.786 125.91 169.328C123.1 170.436 117.109 183.264 117.109 183.264H169.588V183.191Z" fill="#F8F9FA"/>
<path d="M135.063 168.047C135.972 168.047 136.708 167.319 136.708 166.422C136.708 165.524 135.972 164.797 135.063 164.797C134.155 164.797 133.418 165.524 133.418 166.422C133.418 167.319 134.155 168.047 135.063 168.047Z" fill="#F8F9FA"/>
</g>
</g>
</svg>
