<svg width="230" height="223" viewBox="0 0 230 223" fill="none" xmlns="http://www.w3.org/2000/svg">
<rect y="0.171875" width="229.827" height="222" fill="white"/>
<rect width="229.827" height="26.4604" fill="#F1F3F5"/>
<rect x="35" y="7.9375" width="160" height="10.8866" rx="5.44328" fill="white"/>
<rect x="184.494" y="7.9375" width="10.8866" height="10.8866" rx="5.44328" fill="#D5DADF"/>
<path fill-rule="evenodd" clip-rule="evenodd" d="M191.235 14.1142C191.479 13.7855 191.623 13.3785 191.623 12.9379C191.623 11.8463 190.738 10.9614 189.646 10.9614C188.555 10.9614 187.67 11.8463 187.67 12.9379C187.67 14.0295 188.555 14.9144 189.646 14.9144C190.087 14.9144 190.493 14.7704 190.822 14.527L191.707 15.412C191.821 15.526 192.006 15.526 192.12 15.412C192.234 15.2979 192.234 15.1131 192.12 14.999L191.235 14.1142ZM189.645 14.3304C188.876 14.3304 188.253 13.707 188.253 12.9379C188.253 12.1688 188.876 11.5454 189.645 11.5454C190.415 11.5454 191.038 12.1688 191.038 12.9379C191.038 13.707 190.415 14.3304 189.645 14.3304Z" fill="white"/>
<path d="M43.1299 14.1069C43.1299 13.9194 43.0635 13.7749 42.9307 13.6733C42.7998 13.5718 42.5625 13.4692 42.2188 13.3657C41.875 13.2622 41.6016 13.147 41.3984 13.02C41.0098 12.7759 40.8154 12.4575 40.8154 12.0649C40.8154 11.7212 40.9551 11.438 41.2344 11.2153C41.5156 10.9927 41.8799 10.8813 42.3271 10.8813C42.624 10.8813 42.8887 10.936 43.1211 11.0454C43.3535 11.1548 43.5361 11.311 43.6689 11.5142C43.8018 11.7153 43.8682 11.939 43.8682 12.1851H43.1299C43.1299 11.9624 43.0596 11.7886 42.9189 11.6636C42.7803 11.5366 42.5811 11.4731 42.3213 11.4731C42.0791 11.4731 41.8906 11.5249 41.7559 11.6284C41.623 11.7319 41.5566 11.8765 41.5566 12.062C41.5566 12.2183 41.6289 12.3491 41.7734 12.4546C41.918 12.5581 42.1562 12.6597 42.4883 12.7593C42.8203 12.8569 43.0869 12.9692 43.2881 13.0962C43.4893 13.2212 43.6367 13.3657 43.7305 13.5298C43.8242 13.6919 43.8711 13.8823 43.8711 14.1011C43.8711 14.4565 43.7344 14.7397 43.4609 14.9507C43.1895 15.1597 42.8203 15.2642 42.3535 15.2642C42.0449 15.2642 41.7607 15.2075 41.501 15.0942C41.2432 14.979 41.042 14.8208 40.8975 14.6196C40.7549 14.4185 40.6836 14.1841 40.6836 13.9165H41.4248C41.4248 14.1587 41.5049 14.3462 41.665 14.479C41.8252 14.6118 42.0547 14.6782 42.3535 14.6782C42.6113 14.6782 42.8047 14.6265 42.9336 14.5229C43.0645 14.4175 43.1299 14.2788 43.1299 14.1069ZM45.8486 15.2642C45.3975 15.2642 45.0312 15.1226 44.75 14.8394C44.4707 14.5542 44.3311 14.1753 44.3311 13.7026V13.6147C44.3311 13.2983 44.3916 13.0161 44.5127 12.7681C44.6357 12.5181 44.8076 12.3237 45.0283 12.1851C45.249 12.0464 45.4951 11.9771 45.7666 11.9771C46.1982 11.9771 46.5312 12.1147 46.7656 12.3901C47.002 12.6655 47.1201 13.0552 47.1201 13.5591V13.8462H45.0488C45.0703 14.1079 45.1572 14.3149 45.3096 14.4673C45.4639 14.6196 45.6572 14.6958 45.8896 14.6958C46.2158 14.6958 46.4814 14.564 46.6865 14.3003L47.0703 14.6665C46.9434 14.856 46.7734 15.0034 46.5605 15.1089C46.3496 15.2124 46.1123 15.2642 45.8486 15.2642ZM45.7637 12.5483C45.5684 12.5483 45.4102 12.6167 45.2891 12.7534C45.1699 12.8901 45.0938 13.0806 45.0605 13.3247H46.417V13.272C46.4014 13.0337 46.3379 12.854 46.2266 12.7329C46.1152 12.6099 45.9609 12.5483 45.7637 12.5483ZM49.5693 15.2056C49.5381 15.145 49.5107 15.0464 49.4873 14.9097C49.2607 15.146 48.9834 15.2642 48.6553 15.2642C48.3369 15.2642 48.0771 15.1733 47.876 14.9917C47.6748 14.8101 47.5742 14.5854 47.5742 14.3179C47.5742 13.98 47.6992 13.7212 47.9492 13.5415C48.2012 13.3599 48.5605 13.269 49.0273 13.269H49.4639V13.061C49.4639 12.897 49.418 12.7661 49.3262 12.6685C49.2344 12.5688 49.0947 12.519 48.9072 12.519C48.7451 12.519 48.6123 12.5601 48.5088 12.6421C48.4053 12.7222 48.3535 12.8247 48.3535 12.9497H47.6416C47.6416 12.7759 47.6992 12.6138 47.8145 12.4634C47.9297 12.311 48.0859 12.1919 48.2832 12.106C48.4824 12.02 48.7041 11.9771 48.9482 11.9771C49.3193 11.9771 49.6152 12.0708 49.8359 12.2583C50.0566 12.4438 50.1699 12.7056 50.1758 13.0435V14.4731C50.1758 14.7583 50.2158 14.9858 50.2959 15.1558V15.2056H49.5693ZM48.7871 14.6929C48.9277 14.6929 49.0596 14.6587 49.1826 14.5903C49.3076 14.522 49.4014 14.4302 49.4639 14.3149V13.7173H49.0801C48.8164 13.7173 48.6182 13.7632 48.4854 13.855C48.3525 13.9468 48.2861 14.0767 48.2861 14.2446C48.2861 14.3813 48.3311 14.4907 48.4209 14.5728C48.5127 14.6528 48.6348 14.6929 48.7871 14.6929ZM52.5811 12.686C52.4873 12.6704 52.3906 12.6626 52.291 12.6626C51.9648 12.6626 51.7451 12.7876 51.6318 13.0376V15.2056H50.9199V12.0356H51.5996L51.6172 12.3901C51.7891 12.1147 52.0273 11.9771 52.332 11.9771C52.4336 11.9771 52.5176 11.9907 52.584 12.0181L52.5811 12.686ZM54.2744 14.6958C54.4521 14.6958 54.5996 14.644 54.7168 14.5405C54.834 14.437 54.8965 14.3091 54.9043 14.1567H55.5752C55.5674 14.354 55.5059 14.5386 55.3906 14.7104C55.2754 14.8804 55.1191 15.0151 54.9219 15.1147C54.7246 15.2144 54.5117 15.2642 54.2832 15.2642C53.8398 15.2642 53.4883 15.1206 53.2285 14.8335C52.9688 14.5464 52.8389 14.1499 52.8389 13.644V13.5708C52.8389 13.0884 52.9678 12.7026 53.2256 12.4136C53.4834 12.1226 53.835 11.9771 54.2803 11.9771C54.6572 11.9771 54.9639 12.0874 55.2002 12.3081C55.4385 12.5269 55.5635 12.8149 55.5752 13.1724H54.9043C54.8965 12.9907 54.834 12.8413 54.7168 12.7241C54.6016 12.6069 54.4541 12.5483 54.2744 12.5483C54.0439 12.5483 53.8662 12.6323 53.7412 12.8003C53.6162 12.9663 53.5527 13.2192 53.5508 13.5591V13.6733C53.5508 14.0171 53.6123 14.2739 53.7354 14.4438C53.8604 14.6118 54.04 14.6958 54.2744 14.6958ZM56.8145 12.3813C57.0469 12.1118 57.3408 11.9771 57.6963 11.9771C58.3721 11.9771 58.7148 12.3628 58.7246 13.1343V15.2056H58.0127V13.1606C58.0127 12.9419 57.9648 12.7876 57.8691 12.6978C57.7754 12.606 57.6367 12.5601 57.4531 12.5601C57.168 12.5601 56.9551 12.687 56.8145 12.9409V15.2056H56.1025V10.7056H56.8145V12.3813ZM63.3975 14.2124H61.7451L61.3994 15.2056H60.6289L62.2402 10.9399H62.9053L64.5195 15.2056H63.7461L63.3975 14.2124ZM61.9531 13.6147H63.1895L62.5713 11.8452L61.9531 13.6147ZM65.457 12.0356L65.4775 12.4019C65.7119 12.1187 66.0195 11.9771 66.4004 11.9771C67.0605 11.9771 67.3965 12.355 67.4082 13.1108V15.2056H66.6963V13.1519C66.6963 12.9507 66.6523 12.8022 66.5645 12.7065C66.4785 12.6089 66.3369 12.5601 66.1396 12.5601C65.8525 12.5601 65.6387 12.6899 65.498 12.9497V15.2056H64.7861V12.0356H65.457ZM69.2451 14.186L69.8896 12.0356H70.6484L69.3887 15.686C69.1953 16.2192 68.8672 16.4858 68.4043 16.4858C68.3008 16.4858 68.1865 16.4683 68.0615 16.4331V15.8823L68.1963 15.8911C68.376 15.8911 68.5107 15.8579 68.6006 15.7915C68.6924 15.7271 68.7646 15.6177 68.8174 15.4634L68.9199 15.1909L67.8066 12.0356H68.5742L69.2451 14.186ZM71.9521 11.2651V12.0356H72.5117V12.563H71.9521V14.3325C71.9521 14.4536 71.9756 14.5415 72.0225 14.5962C72.0713 14.6489 72.1572 14.6753 72.2803 14.6753C72.3623 14.6753 72.4453 14.6655 72.5293 14.646V15.1968C72.3672 15.2417 72.2109 15.2642 72.0605 15.2642C71.5137 15.2642 71.2402 14.9624 71.2402 14.3589V12.563H70.7188V12.0356H71.2402V11.2651H71.9521ZM73.7598 12.3813C73.9922 12.1118 74.2861 11.9771 74.6416 11.9771C75.3174 11.9771 75.6602 12.3628 75.6699 13.1343V15.2056H74.958V13.1606C74.958 12.9419 74.9102 12.7876 74.8145 12.6978C74.7207 12.606 74.582 12.5601 74.3984 12.5601C74.1133 12.5601 73.9004 12.687 73.7598 12.9409V15.2056H73.0479V10.7056H73.7598V12.3813ZM77.1494 15.2056H76.4375V12.0356H77.1494V15.2056ZM76.3936 11.2124C76.3936 11.103 76.4277 11.0122 76.4961 10.9399C76.5664 10.8677 76.666 10.8315 76.7949 10.8315C76.9238 10.8315 77.0234 10.8677 77.0938 10.9399C77.1641 11.0122 77.1992 11.103 77.1992 11.2124C77.1992 11.3198 77.1641 11.4097 77.0938 11.4819C77.0234 11.5522 76.9238 11.5874 76.7949 11.5874C76.666 11.5874 76.5664 11.5522 76.4961 11.4819C76.4277 11.4097 76.3936 11.3198 76.3936 11.2124ZM78.5879 12.0356L78.6084 12.4019C78.8428 12.1187 79.1504 11.9771 79.5312 11.9771C80.1914 11.9771 80.5273 12.355 80.5391 13.1108V15.2056H79.8271V13.1519C79.8271 12.9507 79.7832 12.8022 79.6953 12.7065C79.6094 12.6089 79.4678 12.5601 79.2705 12.5601C78.9834 12.5601 78.7695 12.6899 78.6289 12.9497V15.2056H77.917V12.0356H78.5879ZM81.1426 13.5972C81.1426 13.105 81.2578 12.7124 81.4883 12.4194C81.7207 12.1245 82.0283 11.9771 82.4111 11.9771C82.7725 11.9771 83.0566 12.103 83.2637 12.355L83.2959 12.0356H83.9375V15.1089C83.9375 15.5249 83.8076 15.853 83.5479 16.0933C83.29 16.3335 82.9414 16.4536 82.502 16.4536C82.2695 16.4536 82.042 16.4048 81.8193 16.3071C81.5986 16.2114 81.4307 16.0854 81.3154 15.9292L81.6523 15.5015C81.8711 15.7612 82.1406 15.8911 82.4609 15.8911C82.6973 15.8911 82.8838 15.8267 83.0205 15.6978C83.1572 15.5708 83.2256 15.3833 83.2256 15.1353V14.9214C83.0205 15.1499 82.7471 15.2642 82.4053 15.2642C82.0342 15.2642 81.7305 15.1167 81.4941 14.8218C81.2598 14.5269 81.1426 14.1187 81.1426 13.5972ZM81.8516 13.6587C81.8516 13.9771 81.916 14.228 82.0449 14.4116C82.1758 14.5933 82.3564 14.6841 82.5869 14.6841C82.874 14.6841 83.0869 14.561 83.2256 14.3149V12.9204C83.0908 12.6802 82.8799 12.5601 82.5928 12.5601C82.3584 12.5601 82.1758 12.6528 82.0449 12.8384C81.916 13.0239 81.8516 13.2974 81.8516 13.6587Z" fill="#A4AFB7"/>
<path d="M24.7451 50.5H23.5635V44.792L21.8203 45.3877V44.3867L24.5938 43.3662H24.7451V50.5ZM31.9961 50.5H27.2158V49.6846L29.584 47.1016C29.9258 46.7207 30.1683 46.4033 30.3115 46.1494C30.458 45.8923 30.5312 45.6351 30.5312 45.3779C30.5312 45.0394 30.4352 44.766 30.2432 44.5576C30.0544 44.3493 29.7988 44.2451 29.4766 44.2451C29.0924 44.2451 28.7946 44.3623 28.583 44.5967C28.3714 44.8311 28.2656 45.1517 28.2656 45.5586H27.0791C27.0791 45.1257 27.1768 44.7367 27.3721 44.3916C27.5706 44.0433 27.8522 43.7731 28.2168 43.5811C28.5846 43.389 29.0078 43.293 29.4863 43.293C30.1764 43.293 30.7201 43.4671 31.1172 43.8154C31.5176 44.1605 31.7178 44.639 31.7178 45.251C31.7178 45.6058 31.6169 45.9785 31.415 46.3691C31.2165 46.7565 30.8893 47.1976 30.4336 47.6924L28.6953 49.5527H31.9961V50.5ZM37.1816 43.3906L39.2324 48.8398L41.2783 43.3906H42.875V50.5H41.6445V48.1562L41.7666 45.0215L39.667 50.5H38.7832L36.6885 45.0264L36.8105 48.1562V50.5H35.5801V43.3906H37.1816ZM47.3818 50.5C47.3298 50.3991 47.2842 50.2347 47.2451 50.0068C46.8675 50.4007 46.4053 50.5977 45.8584 50.5977C45.3278 50.5977 44.8949 50.4463 44.5596 50.1436C44.2243 49.8408 44.0566 49.4665 44.0566 49.0205C44.0566 48.4574 44.265 48.026 44.6816 47.7266C45.1016 47.4238 45.7005 47.2725 46.4785 47.2725H47.2061V46.9258C47.2061 46.6523 47.1296 46.4342 46.9766 46.2715C46.8236 46.1055 46.5908 46.0225 46.2783 46.0225C46.0081 46.0225 45.7868 46.0908 45.6143 46.2275C45.4417 46.361 45.3555 46.5319 45.3555 46.7402H44.1689C44.1689 46.4505 44.265 46.1803 44.457 45.9297C44.6491 45.6758 44.9095 45.4772 45.2383 45.334C45.5703 45.1908 45.9398 45.1191 46.3467 45.1191C46.9652 45.1191 47.4583 45.2754 47.8262 45.5879C48.194 45.8971 48.3828 46.3333 48.3926 46.8965V49.2793C48.3926 49.7546 48.4593 50.1338 48.5928 50.417V50.5H47.3818ZM46.0781 49.6455C46.3125 49.6455 46.5322 49.5885 46.7373 49.4746C46.9456 49.3607 47.1019 49.2077 47.2061 49.0156V48.0195H46.5664C46.127 48.0195 45.7965 48.096 45.5752 48.249C45.3538 48.402 45.2432 48.6185 45.2432 48.8984C45.2432 49.1263 45.318 49.3086 45.4678 49.4453C45.6208 49.5788 45.8242 49.6455 46.0781 49.6455ZM51.8057 49.6504C52.1019 49.6504 52.3477 49.5641 52.543 49.3916C52.7383 49.2191 52.8424 49.0059 52.8555 48.752H53.9736C53.9606 49.0807 53.8581 49.3883 53.666 49.6748C53.474 49.958 53.2135 50.1826 52.8848 50.3486C52.556 50.5146 52.2012 50.5977 51.8203 50.5977C51.0814 50.5977 50.4954 50.3584 50.0625 49.8799C49.6296 49.4014 49.4131 48.7406 49.4131 47.8975V47.7754C49.4131 46.9714 49.6279 46.3285 50.0576 45.8467C50.4873 45.3617 51.0732 45.1191 51.8154 45.1191C52.4437 45.1191 52.9548 45.3031 53.3486 45.6709C53.7458 46.0355 53.9541 46.5156 53.9736 47.1113H52.8555C52.8424 46.8086 52.7383 46.5596 52.543 46.3643C52.3509 46.1689 52.1051 46.0713 51.8057 46.0713C51.4215 46.0713 51.1253 46.2113 50.917 46.4912C50.7087 46.7679 50.6029 47.1895 50.5996 47.7559V47.9463C50.5996 48.5192 50.7021 48.9473 50.9072 49.2305C51.1156 49.5104 51.415 49.6504 51.8057 49.6504ZM56.0391 45.793C56.4264 45.3438 56.9163 45.1191 57.5088 45.1191C58.6351 45.1191 59.2064 45.762 59.2227 47.0479V50.5H58.0361V47.0918C58.0361 46.7272 57.9564 46.4701 57.7969 46.3203C57.6406 46.1673 57.4095 46.0908 57.1035 46.0908C56.6283 46.0908 56.2734 46.3024 56.0391 46.7256V50.5H54.8525V43H56.0391V45.793ZM61.6885 50.5H60.502V45.2168H61.6885V50.5ZM60.4287 43.8447C60.4287 43.6624 60.4857 43.5111 60.5996 43.3906C60.7168 43.2702 60.8828 43.21 61.0977 43.21C61.3125 43.21 61.4785 43.2702 61.5957 43.3906C61.7129 43.5111 61.7715 43.6624 61.7715 43.8447C61.7715 44.0238 61.7129 44.1735 61.5957 44.2939C61.4785 44.4111 61.3125 44.4697 61.0977 44.4697C60.8828 44.4697 60.7168 44.4111 60.5996 44.2939C60.4857 44.1735 60.4287 44.0238 60.4287 43.8447ZM64.0859 45.2168L64.1201 45.8271C64.5107 45.3551 65.0234 45.1191 65.6582 45.1191C66.7585 45.1191 67.3184 45.749 67.3379 47.0088V50.5H66.1514V47.0771C66.1514 46.7419 66.0781 46.4945 65.9316 46.335C65.7884 46.1722 65.5524 46.0908 65.2236 46.0908C64.7451 46.0908 64.3887 46.3073 64.1543 46.7402V50.5H62.9678V45.2168H64.0859ZM68.3438 47.8193C68.3438 46.999 68.5358 46.3447 68.9199 45.8564C69.3073 45.3649 69.82 45.1191 70.458 45.1191C71.0602 45.1191 71.5339 45.3291 71.8789 45.749L71.9326 45.2168H73.002V50.3389C73.002 51.0322 72.7855 51.5791 72.3525 51.9795C71.9229 52.3799 71.3418 52.5801 70.6094 52.5801C70.222 52.5801 69.8428 52.4987 69.4717 52.3359C69.1038 52.1764 68.8239 51.9665 68.6318 51.7061L69.1934 50.9932C69.5579 51.4261 70.0072 51.6426 70.541 51.6426C70.9349 51.6426 71.2458 51.5352 71.4736 51.3203C71.7015 51.1087 71.8154 50.7962 71.8154 50.3828V50.0264C71.4736 50.4072 71.0179 50.5977 70.4482 50.5977C69.8298 50.5977 69.3236 50.3519 68.9297 49.8604C68.5391 49.3688 68.3438 48.6885 68.3438 47.8193ZM69.5254 47.9219C69.5254 48.4525 69.6328 48.8708 69.8477 49.1768C70.0658 49.4795 70.3669 49.6309 70.751 49.6309C71.2295 49.6309 71.5843 49.4258 71.8154 49.0156V46.6914C71.5908 46.291 71.2393 46.0908 70.7607 46.0908C70.3701 46.0908 70.0658 46.2454 69.8477 46.5547C69.6328 46.8639 69.5254 47.3197 69.5254 47.9219ZM79.4424 47.7607H78.0654V50.5H76.8301V43.3906H79.3301C80.1504 43.3906 80.7835 43.5745 81.2295 43.9424C81.6755 44.3102 81.8984 44.8424 81.8984 45.5391C81.8984 46.0143 81.7829 46.4131 81.5518 46.7354C81.3239 47.0544 81.0049 47.3001 80.5947 47.4727L82.1914 50.4365V50.5H80.8682L79.4424 47.7607ZM78.0654 46.7695H79.335C79.7516 46.7695 80.0771 46.6654 80.3115 46.457C80.5459 46.2454 80.6631 45.9574 80.6631 45.5928C80.6631 45.2119 80.554 44.9173 80.3359 44.709C80.1211 44.5007 79.7988 44.3932 79.3691 44.3867H78.0654V46.7695ZM85.2822 50.5977C84.5303 50.5977 83.9199 50.3617 83.4512 49.8896C82.9857 49.4144 82.7529 48.7829 82.7529 47.9951V47.8486C82.7529 47.3213 82.8538 46.8509 83.0557 46.4375C83.2607 46.0208 83.5472 45.6969 83.915 45.4658C84.2829 45.2347 84.693 45.1191 85.1455 45.1191C85.8649 45.1191 86.4199 45.3486 86.8105 45.8076C87.2044 46.2666 87.4014 46.916 87.4014 47.7559V48.2344H83.9492C83.985 48.6706 84.1299 49.0156 84.3838 49.2695C84.641 49.5234 84.9632 49.6504 85.3506 49.6504C85.8942 49.6504 86.3369 49.4307 86.6787 48.9912L87.3184 49.6016C87.1068 49.9173 86.8236 50.1631 86.4688 50.3389C86.1172 50.5114 85.7217 50.5977 85.2822 50.5977ZM85.1406 46.0713C84.8151 46.0713 84.5514 46.1852 84.3496 46.4131C84.151 46.641 84.0241 46.9583 83.9688 47.3652H86.2295V47.2773C86.2035 46.8802 86.0977 46.5807 85.9121 46.3789C85.7266 46.1738 85.4694 46.0713 85.1406 46.0713ZM91.2881 49.0645C91.2881 48.8529 91.2002 48.6917 91.0244 48.5811C90.8519 48.4704 90.5638 48.3727 90.1602 48.2881C89.7565 48.2035 89.4196 48.096 89.1494 47.9658C88.557 47.6794 88.2607 47.2643 88.2607 46.7207C88.2607 46.265 88.4528 45.8841 88.8369 45.5781C89.221 45.2721 89.7093 45.1191 90.3018 45.1191C90.9333 45.1191 91.4427 45.2754 91.8301 45.5879C92.2207 45.9004 92.416 46.3057 92.416 46.8037H91.2295C91.2295 46.5758 91.1449 46.387 90.9756 46.2373C90.8063 46.0843 90.5817 46.0078 90.3018 46.0078C90.0413 46.0078 89.8281 46.068 89.6621 46.1885C89.4993 46.3089 89.418 46.4701 89.418 46.6719C89.418 46.8542 89.4945 46.9958 89.6475 47.0967C89.8005 47.1976 90.1097 47.3001 90.5752 47.4043C91.0407 47.5052 91.4053 47.6273 91.6689 47.7705C91.9359 47.9105 92.1328 48.0798 92.2598 48.2783C92.39 48.4769 92.4551 48.7178 92.4551 49.001C92.4551 49.4762 92.2581 49.862 91.8643 50.1582C91.4704 50.4512 90.9544 50.5977 90.3164 50.5977C89.8835 50.5977 89.4977 50.5195 89.1592 50.3633C88.8206 50.207 88.557 49.9922 88.3682 49.7188C88.1794 49.4453 88.085 49.1507 88.085 48.835H89.2373C89.2536 49.1149 89.3594 49.3314 89.5547 49.4844C89.75 49.6341 90.0088 49.709 90.3311 49.709C90.6436 49.709 90.8812 49.6504 91.0439 49.5332C91.2067 49.4128 91.2881 49.2565 91.2881 49.0645ZM96.6934 49.9824C96.3451 50.3926 95.8503 50.5977 95.209 50.5977C94.6361 50.5977 94.2015 50.43 93.9053 50.0947C93.6123 49.7594 93.4658 49.2744 93.4658 48.6396V45.2168H94.6523V48.625C94.6523 49.2956 94.9307 49.6309 95.4873 49.6309C96.0635 49.6309 96.4525 49.4242 96.6543 49.0107V45.2168H97.8408V50.5H96.7227L96.6934 49.9824ZM100.312 50.5H99.125V43H100.312V50.5ZM103.095 43.9326V45.2168H104.027V46.0957H103.095V49.0449C103.095 49.2467 103.134 49.3932 103.212 49.4844C103.293 49.5723 103.437 49.6162 103.642 49.6162C103.778 49.6162 103.917 49.5999 104.057 49.5674V50.4854C103.786 50.5602 103.526 50.5977 103.275 50.5977C102.364 50.5977 101.908 50.0947 101.908 49.0889V46.0957H101.039V45.2168H101.908V43.9326H103.095ZM107.899 49.0645C107.899 48.8529 107.812 48.6917 107.636 48.5811C107.463 48.4704 107.175 48.3727 106.771 48.2881C106.368 48.2035 106.031 48.096 105.761 47.9658C105.168 47.6794 104.872 47.2643 104.872 46.7207C104.872 46.265 105.064 45.8841 105.448 45.5781C105.832 45.2721 106.321 45.1191 106.913 45.1191C107.545 45.1191 108.054 45.2754 108.441 45.5879C108.832 45.9004 109.027 46.3057 109.027 46.8037H107.841C107.841 46.5758 107.756 46.387 107.587 46.2373C107.418 46.0843 107.193 46.0078 106.913 46.0078C106.653 46.0078 106.439 46.068 106.273 46.1885C106.111 46.3089 106.029 46.4701 106.029 46.6719C106.029 46.8542 106.106 46.9958 106.259 47.0967C106.412 47.1976 106.721 47.3001 107.187 47.4043C107.652 47.5052 108.017 47.6273 108.28 47.7705C108.547 47.9105 108.744 48.0798 108.871 48.2783C109.001 48.4769 109.066 48.7178 109.066 49.001C109.066 49.4762 108.869 49.862 108.476 50.1582C108.082 50.4512 107.566 50.5977 106.928 50.5977C106.495 50.5977 106.109 50.5195 105.771 50.3633C105.432 50.207 105.168 49.9922 104.979 49.7188C104.791 49.4453 104.696 49.1507 104.696 48.835H105.849C105.865 49.1149 105.971 49.3314 106.166 49.4844C106.361 49.6341 106.62 49.709 106.942 49.709C107.255 49.709 107.493 49.6504 107.655 49.5332C107.818 49.4128 107.899 49.2565 107.899 49.0645Z" fill="#A4AFB7"/>
<rect x="72" y="79" width="136" height="2" rx="1" fill="#D5DADF"/>
<rect x="72" y="117" width="136" height="2" rx="1" fill="#D5DADF"/>
<rect x="72" y="155" width="136" height="2" rx="1" fill="#D5DADF"/>
<rect x="72" y="193" width="136" height="2" rx="1" fill="#D5DADF"/>
<rect x="72" y="91" width="136" height="2" rx="1" fill="#D5DADF"/>
<rect x="72" y="129" width="136" height="2" rx="1" fill="#D5DADF"/>
<rect x="72" y="167" width="136" height="2" rx="1" fill="#D5DADF"/>
<rect x="72" y="205" width="136" height="2" rx="1" fill="#D5DADF"/>
<rect x="72" y="70" width="60" height="4" rx="2" fill="#D5DADF"/>
<rect x="72" y="108" width="60" height="4" rx="2" fill="#D5DADF"/>
<rect x="72" y="146" width="60" height="4" rx="2" fill="#D5DADF"/>
<rect x="72" y="184" width="60" height="4" rx="2" fill="#D5DADF"/>
<rect x="72" y="85" width="115" height="2" rx="1" fill="#D5DADF"/>
<rect x="72" y="123" width="115" height="2" rx="1" fill="#D5DADF"/>
<rect x="72" y="161" width="115" height="2" rx="1" fill="#D5DADF"/>
<rect x="72" y="199" width="115" height="2" rx="1" fill="#D5DADF"/>
<mask id="mask0" mask-type="alpha" maskUnits="userSpaceOnUse" x="22" y="68" width="44" height="28">
<path fill-rule="evenodd" clip-rule="evenodd" d="M22 68H66V96H22V68Z" fill="white"/>
</mask>
<g mask="url(#mask0)">
<rect x="21.2441" y="67.8228" width="46.5143" height="30.3659" fill="#E6E9EC"/>
<mask id="mask1" mask-type="alpha" maskUnits="userSpaceOnUse" x="21" y="67" width="47" height="32">
<rect x="21.2441" y="67.8228" width="46.5143" height="30.3659" fill="white"/>
</mask>
<g mask="url(#mask1)">
<path d="M75.2246 100.914C75.2246 100.914 63.0395 77.7399 53.8182 75.858C44.5969 73.9761 40.9852 92.21 35.4671 89.7916C34.4422 89.3424 28.7918 82.9283 24.2298 84.7278C20.9485 86.0221 13.9547 100.999 13.9547 100.999H75.2246V100.914Z" fill="#F8F9FA"/>
<path d="M34.9168 83.2321C35.9775 83.2321 36.8375 82.3828 36.8375 81.3351C36.8375 80.2873 35.9775 79.438 34.9168 79.438C33.856 79.438 32.9961 80.2873 32.9961 81.3351C32.9961 82.3828 33.856 83.2321 34.9168 83.2321Z" fill="#F8F9FA"/>
</g>
</g>
<mask id="mask2" mask-type="alpha" maskUnits="userSpaceOnUse" x="22" y="106" width="44" height="28">
<path fill-rule="evenodd" clip-rule="evenodd" d="M22 106H66V134H22V106Z" fill="white"/>
</mask>
<g mask="url(#mask2)">
<rect x="21.2441" y="105.823" width="46.5143" height="30.3659" fill="#E6E9EC"/>
<mask id="mask3" mask-type="alpha" maskUnits="userSpaceOnUse" x="21" y="105" width="47" height="32">
<rect x="21.2441" y="105.823" width="46.5143" height="30.3659" fill="white"/>
</mask>
<g mask="url(#mask3)">
<path d="M75.2246 138.914C75.2246 138.914 63.0395 115.74 53.8182 113.858C44.5969 111.976 40.9852 130.21 35.4671 127.792C34.4422 127.342 28.7918 120.928 24.2298 122.728C20.9485 124.022 13.9547 138.999 13.9547 138.999H75.2246V138.914Z" fill="#F8F9FA"/>
<path d="M34.9168 121.232C35.9775 121.232 36.8375 120.383 36.8375 119.335C36.8375 118.287 35.9775 117.438 34.9168 117.438C33.856 117.438 32.9961 118.287 32.9961 119.335C32.9961 120.383 33.856 121.232 34.9168 121.232Z" fill="#F8F9FA"/>
</g>
</g>
<mask id="mask4" mask-type="alpha" maskUnits="userSpaceOnUse" x="22" y="144" width="44" height="28">
<path fill-rule="evenodd" clip-rule="evenodd" d="M22 144H66V172H22V144Z" fill="white"/>
</mask>
<g mask="url(#mask4)">
<rect x="21.2441" y="143.823" width="46.5143" height="30.3659" fill="#E6E9EC"/>
<mask id="mask5" mask-type="alpha" maskUnits="userSpaceOnUse" x="21" y="143" width="47" height="32">
<rect x="21.2441" y="143.823" width="46.5143" height="30.3659" fill="white"/>
</mask>
<g mask="url(#mask5)">
<path d="M75.2246 176.914C75.2246 176.914 63.0395 153.74 53.8182 151.858C44.5969 149.976 40.9852 168.21 35.4671 165.792C34.4422 165.342 28.7918 158.928 24.2298 160.728C20.9485 162.022 13.9547 176.999 13.9547 176.999H75.2246V176.914Z" fill="#F8F9FA"/>
<path d="M34.9168 159.232C35.9775 159.232 36.8375 158.383 36.8375 157.335C36.8375 156.287 35.9775 155.438 34.9168 155.438C33.856 155.438 32.9961 156.287 32.9961 157.335C32.9961 158.383 33.856 159.232 34.9168 159.232Z" fill="#F8F9FA"/>
</g>
</g>
<mask id="mask6" mask-type="alpha" maskUnits="userSpaceOnUse" x="22" y="182" width="44" height="28">
<path fill-rule="evenodd" clip-rule="evenodd" d="M22 182H66V210H22V182Z" fill="white"/>
</mask>
<g mask="url(#mask6)">
<rect x="21.2441" y="181.823" width="46.5143" height="30.3659" fill="#E6E9EC"/>
<mask id="mask7" mask-type="alpha" maskUnits="userSpaceOnUse" x="21" y="181" width="47" height="32">
<rect x="21.2441" y="181.823" width="46.5143" height="30.3659" fill="white"/>
</mask>
<g mask="url(#mask7)">
<path d="M75.2246 214.914C75.2246 214.914 63.0395 191.74 53.8182 189.858C44.5969 187.976 40.9852 206.21 35.4671 203.792C34.4422 203.342 28.7918 196.928 24.2298 198.728C20.9485 200.022 13.9547 214.999 13.9547 214.999H75.2246V214.914Z" fill="#F8F9FA"/>
<path d="M34.9168 197.232C35.9775 197.232 36.8375 196.383 36.8375 195.335C36.8375 194.287 35.9775 193.438 34.9168 193.438C33.856 193.438 32.9961 194.287 32.9961 195.335C32.9961 196.383 33.856 197.232 34.9168 197.232Z" fill="#F8F9FA"/>
</g>
</g>
</svg>
