<svg width="230" height="222" viewBox="0 0 230 222" fill="none" xmlns="http://www.w3.org/2000/svg">
<rect width="229" height="222" fill="white"/>
<rect y="172" width="229.13" height="50" fill="#F1F3F5"/>
<path d="M111.147 187.127C111.076 187.886 110.796 188.478 110.308 188.905C109.819 189.328 109.17 189.539 108.359 189.539C107.793 189.539 107.293 189.406 106.86 189.139C106.431 188.869 106.099 188.486 105.864 187.991C105.63 187.497 105.508 186.922 105.498 186.268V185.604C105.498 184.933 105.617 184.342 105.854 183.831C106.092 183.32 106.432 182.926 106.875 182.65C107.321 182.373 107.835 182.235 108.418 182.235C109.202 182.235 109.834 182.448 110.312 182.874C110.791 183.301 111.069 183.903 111.147 184.681H109.917C109.858 184.17 109.709 183.802 109.468 183.577C109.23 183.35 108.88 183.236 108.418 183.236C107.881 183.236 107.467 183.433 107.178 183.826C106.891 184.217 106.745 184.792 106.738 185.55V186.18C106.738 186.948 106.875 187.534 107.148 187.938C107.425 188.341 107.829 188.543 108.359 188.543C108.844 188.543 109.209 188.434 109.453 188.216C109.697 187.998 109.852 187.635 109.917 187.127H111.147ZM117.246 183.328H115.029V189.442H113.804V183.328H111.606V182.332H117.246V183.328ZM121.577 187.786H118.823L118.247 189.442H116.963L119.648 182.332H120.757L123.447 189.442H122.158L121.577 187.786ZM119.17 186.79H121.23L120.2 183.841L119.17 186.79Z" fill="#A4AFB7"/>
<rect x="53.0625" y="198.178" width="123.006" height="10.8535" rx="5.42676" fill="white"/>
<rect x="150.744" y="198.178" width="25.3249" height="10.8535" rx="5.42676" fill="#D5DADF"/>
<rect y="0.509766" width="229.13" height="71.1508" fill="#F1F3F5"/>
<mask id="mask0" mask-type="alpha" maskUnits="userSpaceOnUse" x="0" y="35" width="229" height="85">
<path fill-rule="evenodd" clip-rule="evenodd" d="M0 35H229V120H0V35Z" fill="white"/>
</mask>
<g mask="url(#mask0)">
<rect x="22" y="19.4436" width="185" height="123.096" fill="#E6E9EC"/>
<mask id="mask1" mask-type="alpha" maskUnits="userSpaceOnUse" x="22" y="19" width="185" height="124">
<rect x="22" y="19.4436" width="185" height="123.096" fill="white"/>
</mask>
<g mask="url(#mask1)">
<path d="M236.688 153.587C236.688 153.587 188.224 59.6454 151.548 52.0167C114.873 44.3879 100.508 118.304 78.5612 108.5C74.4848 106.679 52.0116 80.6779 33.8672 87.9728C20.8164 93.2197 -6.99962 153.93 -6.99962 153.93H236.688V153.587Z" fill="#F8F9FA"/>
<path d="M76.3735 81.9096C80.5924 81.9096 84.0126 78.4666 84.0126 74.2193C84.0126 69.9721 80.5924 66.5291 76.3735 66.5291C72.1545 66.5291 68.7344 69.9721 68.7344 74.2193C68.7344 78.4666 72.1545 81.9096 76.3735 81.9096Z" fill="#F8F9FA"/>
</g>
</g>
<path d="M94.958 18.3394V20.981H93.7227V13.8716H96.4424C97.2367 13.8716 97.8665 14.0783 98.332 14.4917C98.8008 14.9051 99.0352 15.452 99.0352 16.1323C99.0352 16.8289 98.8057 17.3709 98.3467 17.7583C97.891 18.1457 97.2513 18.3394 96.4277 18.3394H94.958ZM94.958 17.3481H96.4424C96.8818 17.3481 97.2171 17.2456 97.4482 17.0405C97.6794 16.8322 97.7949 16.5327 97.7949 16.1421C97.7949 15.758 97.6777 15.452 97.4434 15.2241C97.209 14.993 96.8867 14.8742 96.4766 14.8677H94.958V17.3481ZM103.103 20.981C103.05 20.88 103.005 20.7157 102.966 20.4878C102.588 20.8817 102.126 21.0786 101.579 21.0786C101.049 21.0786 100.616 20.9272 100.28 20.6245C99.945 20.3218 99.7773 19.9474 99.7773 19.5015C99.7773 18.9383 99.9857 18.507 100.402 18.2075C100.822 17.9048 101.421 17.7534 102.199 17.7534H102.927V17.4067C102.927 17.1333 102.85 16.9152 102.697 16.7524C102.544 16.5864 102.312 16.5034 101.999 16.5034C101.729 16.5034 101.507 16.5718 101.335 16.7085C101.162 16.842 101.076 17.0129 101.076 17.2212H99.8896C99.8896 16.9315 99.9857 16.6613 100.178 16.4106C100.37 16.1567 100.63 15.9582 100.959 15.8149C101.291 15.6717 101.66 15.6001 102.067 15.6001C102.686 15.6001 103.179 15.7563 103.547 16.0688C103.915 16.3781 104.104 16.8143 104.113 17.3774V19.7603C104.113 20.2355 104.18 20.6147 104.313 20.8979V20.981H103.103ZM101.799 20.1265C102.033 20.1265 102.253 20.0695 102.458 19.9556C102.666 19.8416 102.823 19.6886 102.927 19.4966V18.5005H102.287C101.848 18.5005 101.517 18.577 101.296 18.73C101.075 18.883 100.964 19.0994 100.964 19.3794C100.964 19.6073 101.039 19.7896 101.188 19.9263C101.341 20.0597 101.545 20.1265 101.799 20.1265ZM105.148 18.3003C105.148 17.48 105.34 16.8257 105.725 16.3374C106.112 15.8459 106.625 15.6001 107.263 15.6001C107.865 15.6001 108.339 15.8101 108.684 16.23L108.737 15.6978H109.807V20.8198C109.807 21.5132 109.59 22.0601 109.157 22.4604C108.728 22.8608 108.146 23.061 107.414 23.061C107.027 23.061 106.647 22.9797 106.276 22.8169C105.909 22.6574 105.629 22.4474 105.437 22.187L105.998 21.4741C106.363 21.9071 106.812 22.1235 107.346 22.1235C107.74 22.1235 108.05 22.0161 108.278 21.8013C108.506 21.5897 108.62 21.2772 108.62 20.8638V20.5073C108.278 20.8882 107.823 21.0786 107.253 21.0786C106.634 21.0786 106.128 20.8328 105.734 20.3413C105.344 19.8498 105.148 19.1694 105.148 18.3003ZM106.33 18.4028C106.33 18.9334 106.438 19.3517 106.652 19.6577C106.87 19.9604 107.172 20.1118 107.556 20.1118C108.034 20.1118 108.389 19.9067 108.62 19.4966V17.1724C108.396 16.772 108.044 16.5718 107.565 16.5718C107.175 16.5718 106.87 16.7264 106.652 17.0356C106.438 17.3449 106.33 17.8006 106.33 18.4028ZM113.356 21.0786C112.604 21.0786 111.994 20.8426 111.525 20.3706C111.06 19.8953 110.827 19.2638 110.827 18.4761V18.3296C110.827 17.8022 110.928 17.3319 111.13 16.9185C111.335 16.5018 111.621 16.1779 111.989 15.9468C112.357 15.7157 112.767 15.6001 113.22 15.6001C113.939 15.6001 114.494 15.8296 114.885 16.2886C115.279 16.7476 115.476 17.397 115.476 18.2368V18.7153H112.023C112.059 19.1515 112.204 19.4966 112.458 19.7505C112.715 20.0044 113.037 20.1313 113.425 20.1313C113.968 20.1313 114.411 19.9116 114.753 19.4722L115.393 20.0825C115.181 20.3983 114.898 20.644 114.543 20.8198C114.191 20.9924 113.796 21.0786 113.356 21.0786ZM113.215 16.5522C112.889 16.5522 112.626 16.6662 112.424 16.894C112.225 17.1219 112.098 17.4393 112.043 17.8462H114.304V17.7583C114.278 17.3612 114.172 17.0617 113.986 16.8599C113.801 16.6548 113.544 16.5522 113.215 16.5522ZM123.85 14.8677H121.633V20.981H120.407V14.8677H118.21V13.8716H123.85V14.8677ZM125.935 20.981H124.748V15.6978H125.935V20.981ZM124.675 14.3257C124.675 14.1434 124.732 13.992 124.846 13.8716C124.963 13.7511 125.129 13.6909 125.344 13.6909C125.559 13.6909 125.725 13.7511 125.842 13.8716C125.959 13.992 126.018 14.1434 126.018 14.3257C126.018 14.5047 125.959 14.6545 125.842 14.7749C125.725 14.8921 125.559 14.9507 125.344 14.9507C125.129 14.9507 124.963 14.8921 124.846 14.7749C124.732 14.6545 124.675 14.5047 124.675 14.3257ZM128.718 14.4136V15.6978H129.65V16.5767H128.718V19.5259C128.718 19.7277 128.757 19.8742 128.835 19.9653C128.916 20.0532 129.06 20.0972 129.265 20.0972C129.401 20.0972 129.54 20.0809 129.68 20.0483V20.9663C129.41 21.0412 129.149 21.0786 128.898 21.0786C127.987 21.0786 127.531 20.5757 127.531 19.5698V16.5767H126.662V15.6978H127.531V14.4136H128.718ZM131.823 20.981H130.637V13.481H131.823V20.981ZM135.446 21.0786C134.694 21.0786 134.084 20.8426 133.615 20.3706C133.15 19.8953 132.917 19.2638 132.917 18.4761V18.3296C132.917 17.8022 133.018 17.3319 133.22 16.9185C133.425 16.5018 133.711 16.1779 134.079 15.9468C134.447 15.7157 134.857 15.6001 135.31 15.6001C136.029 15.6001 136.584 15.8296 136.975 16.2886C137.368 16.7476 137.565 17.397 137.565 18.2368V18.7153H134.113C134.149 19.1515 134.294 19.4966 134.548 19.7505C134.805 20.0044 135.127 20.1313 135.515 20.1313C136.058 20.1313 136.501 19.9116 136.843 19.4722L137.482 20.0825C137.271 20.3983 136.988 20.644 136.633 20.8198C136.281 20.9924 135.886 21.0786 135.446 21.0786ZM135.305 16.5522C134.979 16.5522 134.715 16.6662 134.514 16.894C134.315 17.1219 134.188 17.4393 134.133 17.8462H136.394V17.7583C136.368 17.3612 136.262 17.0617 136.076 16.8599C135.891 16.6548 135.633 16.5522 135.305 16.5522Z" fill="#A4AFB7"/>
</svg>
