<svg width="229" height="222" viewBox="0 0 229 222" fill="none" xmlns="http://www.w3.org/2000/svg">
<rect width="229" height="222" fill="white"/>
<rect x="20" y="68" width="25.3249" height="10.8535" rx="5.42676" fill="#D5DADF"/>
<rect x="51" y="68" width="25.3249" height="10.8535" rx="5.42676" fill="#D5DADF"/>
<rect x="83" y="68" width="25.3249" height="10.8535" rx="5.42676" fill="#D5DADF"/>
<rect x="113" y="68" width="25.3249" height="10.8535" rx="5.42676" fill="#D5DADF"/>
<mask id="mask0" mask-type="alpha" maskUnits="userSpaceOnUse" x="21" y="34" width="20" height="20">
<path fill-rule="evenodd" clip-rule="evenodd" d="M21 43.9844C21 38.4702 25.4702 34 30.9844 34C36.4986 34 40.9688 38.4702 40.9688 43.9844C40.9688 49.4986 36.4986 53.9688 30.9844 53.9688C25.4702 53.9688 21 49.4986 21 43.9844Z" fill="white"/>
</mask>
<g mask="url(#mask0)">
<rect x="18.9141" y="27.168" width="48.1517" height="32.0394" fill="#E6E9EC"/>
<mask id="mask1" mask-type="alpha" maskUnits="userSpaceOnUse" x="18" y="27" width="50" height="33">
<rect x="18.9141" y="27.168" width="48.1517" height="32.0394" fill="white"/>
</mask>
<g mask="url(#mask1)">
<path d="M74.5879 62.0827C74.5879 62.0827 61.9738 37.6316 52.4279 35.646C42.882 33.6604 39.1432 52.8992 33.4308 50.3476C32.3698 49.8736 26.5205 43.106 21.7979 45.0047C18.4011 46.3703 11.1611 62.1721 11.1611 62.1721H74.5879V62.0827Z" fill="#F8F9FA"/>
<path d="M32.8613 43.4266C33.9595 43.4266 34.8496 42.5304 34.8496 41.425C34.8496 40.3195 33.9595 39.4233 32.8613 39.4233C31.7632 39.4233 30.873 40.3195 30.873 41.425C30.873 42.5304 31.7632 43.4266 32.8613 43.4266Z" fill="#F8F9FA"/>
</g>
</g>
<path d="M21.958 18.3394V20.981H20.7227V13.8716H23.4424C24.2367 13.8716 24.8665 14.0783 25.332 14.4917C25.8008 14.9051 26.0352 15.452 26.0352 16.1323C26.0352 16.8289 25.8057 17.3709 25.3467 17.7583C24.891 18.1457 24.2513 18.3394 23.4277 18.3394H21.958ZM21.958 17.3481H23.4424C23.8818 17.3481 24.2171 17.2456 24.4482 17.0405C24.6794 16.8322 24.7949 16.5327 24.7949 16.1421C24.7949 15.758 24.6777 15.452 24.4434 15.2241C24.209 14.993 23.8867 14.8742 23.4766 14.8677H21.958V17.3481ZM26.7139 18.2905C26.7139 17.7729 26.8164 17.3075 27.0215 16.894C27.2266 16.4774 27.5146 16.1584 27.8857 15.937C28.2568 15.7124 28.6833 15.6001 29.165 15.6001C29.8779 15.6001 30.4557 15.8296 30.8984 16.2886C31.3444 16.7476 31.5853 17.3563 31.6211 18.1147L31.626 18.3931C31.626 18.9139 31.5251 19.3794 31.3232 19.7896C31.1247 20.1997 30.8382 20.5171 30.4639 20.7417C30.0928 20.9663 29.6631 21.0786 29.1748 21.0786C28.4294 21.0786 27.832 20.8312 27.3828 20.3364C26.9368 19.8384 26.7139 19.1759 26.7139 18.3491V18.2905ZM27.9004 18.3931C27.9004 18.9367 28.0127 19.3631 28.2373 19.6724C28.4619 19.9784 28.7744 20.1313 29.1748 20.1313C29.5752 20.1313 29.8861 19.9751 30.1074 19.6626C30.332 19.3501 30.4443 18.8927 30.4443 18.2905C30.4443 17.7567 30.3288 17.3335 30.0977 17.021C29.8698 16.7085 29.5589 16.5522 29.165 16.5522C28.7777 16.5522 28.4701 16.7069 28.2422 17.0161C28.0143 17.3221 27.9004 17.7811 27.9004 18.3931ZM35.5908 19.5454C35.5908 19.3338 35.5029 19.1727 35.3271 19.062C35.1546 18.9513 34.8665 18.8537 34.4629 18.769C34.0592 18.6844 33.7223 18.577 33.4521 18.4468C32.8597 18.1603 32.5635 17.7453 32.5635 17.2017C32.5635 16.7459 32.7555 16.3651 33.1396 16.0591C33.5238 15.7531 34.012 15.6001 34.6045 15.6001C35.236 15.6001 35.7454 15.7563 36.1328 16.0688C36.5234 16.3813 36.7188 16.7866 36.7188 17.2847H35.5322C35.5322 17.0568 35.4476 16.868 35.2783 16.7183C35.109 16.5653 34.8844 16.4888 34.6045 16.4888C34.3441 16.4888 34.1309 16.549 33.9648 16.6694C33.8021 16.7899 33.7207 16.951 33.7207 17.1528C33.7207 17.3351 33.7972 17.4767 33.9502 17.5776C34.1032 17.6785 34.4124 17.7811 34.8779 17.8853C35.3434 17.9862 35.708 18.1082 35.9717 18.2515C36.2386 18.3914 36.4355 18.5607 36.5625 18.7593C36.6927 18.9578 36.7578 19.1987 36.7578 19.4819C36.7578 19.9572 36.5609 20.3429 36.167 20.6392C35.7731 20.9321 35.2572 21.0786 34.6191 21.0786C34.1862 21.0786 33.8005 21.0005 33.4619 20.8442C33.1234 20.688 32.8597 20.4731 32.6709 20.1997C32.4821 19.9263 32.3877 19.6317 32.3877 19.3159H33.54C33.5563 19.5959 33.6621 19.8123 33.8574 19.9653C34.0527 20.1151 34.3115 20.1899 34.6338 20.1899C34.9463 20.1899 35.1839 20.1313 35.3467 20.0142C35.5094 19.8937 35.5908 19.7375 35.5908 19.5454ZM39.2822 14.4136V15.6978H40.2148V16.5767H39.2822V19.5259C39.2822 19.7277 39.3213 19.8742 39.3994 19.9653C39.4808 20.0532 39.624 20.0972 39.8291 20.0972C39.9658 20.0972 40.1042 20.0809 40.2441 20.0483V20.9663C39.974 21.0412 39.7135 21.0786 39.4629 21.0786C38.5514 21.0786 38.0957 20.5757 38.0957 19.5698V16.5767H37.2266V15.6978H38.0957V14.4136H39.2822ZM48.5742 14.8677H46.3574V20.981H45.1318V14.8677H42.9346V13.8716H48.5742V14.8677ZM50.6592 20.981H49.4727V15.6978H50.6592V20.981ZM49.3994 14.3257C49.3994 14.1434 49.4564 13.992 49.5703 13.8716C49.6875 13.7511 49.8535 13.6909 50.0684 13.6909C50.2832 13.6909 50.4492 13.7511 50.5664 13.8716C50.6836 13.992 50.7422 14.1434 50.7422 14.3257C50.7422 14.5047 50.6836 14.6545 50.5664 14.7749C50.4492 14.8921 50.2832 14.9507 50.0684 14.9507C49.8535 14.9507 49.6875 14.8921 49.5703 14.7749C49.4564 14.6545 49.3994 14.5047 49.3994 14.3257ZM53.4424 14.4136V15.6978H54.375V16.5767H53.4424V19.5259C53.4424 19.7277 53.4814 19.8742 53.5596 19.9653C53.641 20.0532 53.7842 20.0972 53.9893 20.0972C54.126 20.0972 54.2643 20.0809 54.4043 20.0483V20.9663C54.1341 21.0412 53.8737 21.0786 53.623 21.0786C52.7116 21.0786 52.2559 20.5757 52.2559 19.5698V16.5767H51.3867V15.6978H52.2559V14.4136H53.4424ZM56.5479 20.981H55.3613V13.481H56.5479V20.981ZM60.1709 21.0786C59.4189 21.0786 58.8086 20.8426 58.3398 20.3706C57.8743 19.8953 57.6416 19.2638 57.6416 18.4761V18.3296C57.6416 17.8022 57.7425 17.3319 57.9443 16.9185C58.1494 16.5018 58.4359 16.1779 58.8037 15.9468C59.1715 15.7157 59.5817 15.6001 60.0342 15.6001C60.7536 15.6001 61.3086 15.8296 61.6992 16.2886C62.0931 16.7476 62.29 17.397 62.29 18.2368V18.7153H58.8379C58.8737 19.1515 59.0186 19.4966 59.2725 19.7505C59.5296 20.0044 59.8519 20.1313 60.2393 20.1313C60.7829 20.1313 61.2256 19.9116 61.5674 19.4722L62.207 20.0825C61.9954 20.3983 61.7122 20.644 61.3574 20.8198C61.0059 20.9924 60.6104 21.0786 60.1709 21.0786ZM60.0293 16.5522C59.7038 16.5522 59.4401 16.6662 59.2383 16.894C59.0397 17.1219 58.9128 17.4393 58.8574 17.8462H61.1182V17.7583C61.0921 17.3612 60.9863 17.0617 60.8008 16.8599C60.6152 16.6548 60.3581 16.5522 60.0293 16.5522Z" fill="#A4AFB7"/>
<path d="M50.7617 43.6758H48.5586L48.0977 45H47.0703L49.2188 39.3125H50.1055L52.2578 45H51.2266L50.7617 43.6758ZM48.8359 42.8789H50.4844L49.6602 40.5195L48.8359 42.8789ZM55.3281 44.5859C55.0495 44.9141 54.6536 45.0781 54.1406 45.0781C53.6823 45.0781 53.3346 44.944 53.0977 44.6758C52.8633 44.4076 52.7461 44.0195 52.7461 43.5117V40.7734H53.6953V43.5C53.6953 44.0365 53.918 44.3047 54.3633 44.3047C54.8242 44.3047 55.1354 44.1393 55.2969 43.8086V40.7734H56.2461V45H55.3516L55.3281 44.5859ZM58.4023 39.7461V40.7734H59.1484V41.4766H58.4023V43.8359C58.4023 43.9974 58.4336 44.1146 58.4961 44.1875C58.5612 44.2578 58.6758 44.293 58.8398 44.293C58.9492 44.293 59.0599 44.2799 59.1719 44.2539V44.9883C58.9557 45.0482 58.7474 45.0781 58.5469 45.0781C57.8177 45.0781 57.4531 44.6758 57.4531 43.8711V41.4766H56.7578V40.7734H57.4531V39.7461H58.4023ZM60.8125 41.2344C61.1224 40.875 61.5143 40.6953 61.9883 40.6953C62.8893 40.6953 63.3464 41.2096 63.3594 42.2383V45H62.4102V42.2734C62.4102 41.9818 62.3464 41.776 62.2188 41.6562C62.0938 41.5339 61.9089 41.4727 61.6641 41.4727C61.2839 41.4727 61 41.6419 60.8125 41.9805V45H59.8633V39H60.8125V41.2344ZM64.1445 42.8477C64.1445 42.4336 64.2266 42.0612 64.3906 41.7305C64.5547 41.3971 64.7852 41.1419 65.082 40.9648C65.3789 40.7852 65.7201 40.6953 66.1055 40.6953C66.6758 40.6953 67.138 40.8789 67.4922 41.2461C67.849 41.6133 68.0417 42.1003 68.0703 42.707L68.0742 42.9297C68.0742 43.3464 67.9935 43.7188 67.832 44.0469C67.6732 44.375 67.444 44.6289 67.1445 44.8086C66.8477 44.9883 66.5039 45.0781 66.1133 45.0781C65.5169 45.0781 65.0391 44.8802 64.6797 44.4844C64.3229 44.0859 64.1445 43.556 64.1445 42.8945V42.8477ZM65.0938 42.9297C65.0938 43.3646 65.1836 43.7057 65.3633 43.9531C65.543 44.1979 65.793 44.3203 66.1133 44.3203C66.4336 44.3203 66.6823 44.1953 66.8594 43.9453C67.0391 43.6953 67.1289 43.3294 67.1289 42.8477C67.1289 42.4206 67.0365 42.082 66.8516 41.832C66.6693 41.582 66.4206 41.457 66.1055 41.457C65.7956 41.457 65.5495 41.5807 65.3672 41.8281C65.1849 42.0729 65.0938 42.4401 65.0938 42.9297ZM71.0898 41.6406C70.9648 41.6198 70.8359 41.6094 70.7031 41.6094C70.2682 41.6094 69.9753 41.776 69.8242 42.1094V45H68.875V40.7734H69.7812L69.8047 41.2461C70.0339 40.8789 70.3516 40.6953 70.7578 40.6953C70.8932 40.6953 71.0052 40.7135 71.0938 40.75L71.0898 41.6406Z" fill="#A4AFB7"/>
<rect x="20" y="201" width="190" height="2" rx="1" fill="#D5DADF"/>
<rect x="20" y="213" width="190" height="2" rx="1" fill="#D5DADF"/>
<rect x="20" y="192" width="84" height="4" rx="2" fill="#D5DADF"/>
<rect x="20" y="207" width="161" height="2" rx="1" fill="#D5DADF"/>
<mask id="mask2" mask-type="alpha" maskUnits="userSpaceOnUse" x="0" y="90" width="229" height="85">
<path fill-rule="evenodd" clip-rule="evenodd" d="M0 90H229V175H0V90Z" fill="white"/>
</mask>
<g mask="url(#mask2)">
<rect x="22" y="74.4436" width="185" height="123.096" fill="#E6E9EC"/>
<mask id="mask3" mask-type="alpha" maskUnits="userSpaceOnUse" x="22" y="74" width="185" height="124">
<rect x="22" y="74.4436" width="185" height="123.096" fill="white"/>
</mask>
<g mask="url(#mask3)">
<path d="M236.688 208.587C236.688 208.587 188.224 114.645 151.548 107.017C114.873 99.3879 100.508 173.304 78.5612 163.5C74.4848 161.679 52.0116 135.678 33.8672 142.973C20.8164 148.22 -6.99962 208.93 -6.99962 208.93H236.688V208.587Z" fill="#F8F9FA"/>
<path d="M76.3735 136.91C80.5924 136.91 84.0126 133.467 84.0126 129.219C84.0126 124.972 80.5924 121.529 76.3735 121.529C72.1545 121.529 68.7344 124.972 68.7344 129.219C68.7344 133.467 72.1545 136.91 76.3735 136.91Z" fill="#F8F9FA"/>
</g>
</g>
</svg>
