<svg width="57" height="44" viewBox="0 0 57 44" fill="none" xmlns="http://www.w3.org/2000/svg">
<path d="M7.48351 0.197964C7.04055 -0.131902 6.41406 -0.0402278 6.08419 0.402725L0.708716 7.62105C0.37885 8.064 0.470524 8.6905 0.913477 9.02036C1.35643 9.35023 1.98292 9.25855 2.31279 8.8156L7.09099 2.39931L13.5073 7.17751C13.9502 7.50738 14.5767 7.41571 14.9066 6.97275C15.2365 6.5298 15.1448 5.90331 14.7018 5.57344L7.48351 0.197964ZM56.5727 41.5617C41.4755 39.3693 30.0538 34.2952 22.0411 27.2442C14.0373 20.2011 9.38054 11.1392 7.87569 0.855212L5.89677 1.14479C7.46646 11.8719 12.3409 21.3724 20.7198 28.7456C29.0898 36.111 40.9022 41.307 56.2853 43.541L56.5727 41.5617Z" fill="#CCCCCC"/>
</svg>
