<svg width="598" height="235" fill="none" xmlns="http://www.w3.org/2000/svg"><path d="M0 2a2 2 0 0 1 2-2h594a2 2 0 0 1 2 2v233H0V2z" fill="#F0F0F0"/><path fill="#F0F0F0" d="M32 19h533v198H32z"/><path d="M183.37 197.791H54.188V36.731h155.314v138.685l-26.132 22.375z" fill="#fff"/><path d="M183 175v23l26.5-22.5-26.5-.5z" fill="#DDD"/><path d="M350.025 197.791H220.843V36.731h155.314v138.685l-26.132 22.375z" fill="#fff"/><path d="M350 175v23l26.5-22.5-26.5-.5z" fill="#DDD"/><path d="M516.187 197.791H387.005V36.731h155.314v138.685l-26.132 22.375z" fill="#fff"/><path d="M516 175v23l26.5-22.5-26.5-.5z" fill="#DDD"/><path d="M131.589 181.507c10.343 0 18.727-8.373 18.727-18.701 0-10.329-8.384-18.702-18.727-18.702s-18.727 8.373-18.727 18.702c0 10.328 8.384 18.701 18.727 18.701z" fill="#F0F0F0"/><path d="M138.897 174.918h-14.006c1.815-8.401 1.81-15.168.364-20.64a1.462 1.462 0 0 1 .891-1.738l3.768-1.447c1.131 1.459 2.727 2.096 5.216 1.157l1.974.405a2.029 2.029 0 0 1 1.62 2.118c-.146 2.14-.088 4.297-.214 6.158-.387 5.765-.554 10.259.387 13.987z" fill="#F0B849"/><path d="m138.317 161.413 3.767-1.736-.193-1.367a5.601 5.601 0 0 0-.983-3.17 5.62 5.62 0 0 0-2.604-2.061l-1.146-.443 1.159 8.777zM125.857 161.028l-3.767-1.736.193-1.367a5.609 5.609 0 0 1 3.587-5.231l1.146-.444-1.159 8.778z" fill="#F0B849"/><path d="M298.244 181.507c10.343 0 18.727-8.373 18.727-18.701 0-10.329-8.384-18.702-18.727-18.702s-18.727 8.373-18.727 18.702c0 10.328 8.384 18.701 18.727 18.701z" fill="#F0F0F0"/><path d="M305.552 174.918h-14.006c1.815-8.401 1.81-15.168.364-20.64a1.462 1.462 0 0 1 .891-1.738l3.768-1.447c1.131 1.459 2.727 2.096 5.216 1.157l1.974.405a2.029 2.029 0 0 1 1.619 2.118c-.145 2.14-.088 4.297-.213 6.158-.387 5.765-.554 10.259.387 13.987z" fill="#1E1E1E"/><path d="m304.972 161.413 3.767-1.736-.193-1.367a5.609 5.609 0 0 0-3.587-5.231l-1.146-.443 1.159 8.777zM292.512 161.028l-3.767-1.736.193-1.367a5.609 5.609 0 0 1 3.587-5.231l1.146-.444-1.159 8.778z" fill="#1E1E1E"/><path d="M464.406 181.507c10.343 0 18.727-8.373 18.727-18.701 0-10.329-8.384-18.702-18.727-18.702s-18.727 8.373-18.727 18.702c0 10.328 8.384 18.701 18.727 18.701z" fill="#F0F0F0"/><path d="M471.714 174.918h-14.006c1.815-8.401 1.81-15.168.364-20.64a1.462 1.462 0 0 1 .89-1.738l3.769-1.447c1.131 1.459 2.727 2.096 5.215 1.157l1.975.405a2.029 2.029 0 0 1 1.619 2.118c-.145 2.14-.088 4.297-.213 6.158-.387 5.765-.554 10.259.387 13.987z" fill="#4AB866"/><path d="m471.134 161.413 3.767-1.736-.193-1.367a5.609 5.609 0 0 0-3.587-5.231l-1.146-.443 1.159 8.777zM458.674 161.028l-3.767-1.736.193-1.367c0-1.131.342-2.236.983-3.17a5.62 5.62 0 0 1 2.604-2.061l1.146-.444-1.159 8.778z" fill="#4AB866"/><path fill="#FAFAFA" d="M54.188 36.731h155.315v93.582H54.188z"/><path d="M81.8 102.379h100.316" stroke="#7983A6" stroke-miterlimit="10"/><g opacity=".5" stroke="#7983A6" stroke-miterlimit="10"><path opacity=".5" d="M81.8 91.179h1.598"/><path opacity=".5" d="M86.537 91.178h92.568" stroke-dasharray="4 4"/><path opacity=".5" d="M180.674 91.178h1.599"/></g><g opacity=".5" stroke="#7983A6" stroke-miterlimit="10"><path opacity=".5" d="M81.8 80.26h1.598"/><path opacity=".5" d="M86.537 80.26h92.568" stroke-dasharray="4 4"/><path opacity=".5" d="M180.674 80.26h1.599"/></g><g opacity=".5" stroke="#7983A6" stroke-miterlimit="10"><path opacity=".5" d="M81.8 69.34h1.598"/><path opacity=".5" d="M86.537 69.34h92.568" stroke-dasharray="4 4"/><path opacity=".5" d="M180.674 69.34h1.599"/></g><g opacity=".5" stroke="#7983A6" stroke-miterlimit="10"><path opacity=".5" d="M81.8 58.422h1.598"/><path opacity=".5" d="M86.537 58.422h92.568" stroke-dasharray="4 4"/><path opacity=".5" d="M180.674 58.422h1.599"/></g><g opacity=".3"><path opacity=".65" d="M94.01 80.26H86.8V102.1h7.21V80.26z" fill="#007CBA"/></g><path d="M114.402 69.184h-7.524v33.195h7.524V69.184z" fill="#007CBA"/><g opacity=".3"><path opacity=".65" d="M134.246 91.061h-7.21v11.267h7.21V91.061z" fill="#007CBA"/></g><path d="M154.529 57.91h-7.524v44.469h7.524V57.911z" fill="#007CBA"/><g opacity=".3"><path opacity=".65" d="M174.479 68.76h-7.21v33.339h7.21v-33.34z" fill="#007CBA"/></g><path d="M90.422 108.958a1.725 1.725 0 1 0 .001-3.45 1.725 1.725 0 0 0-.001 3.45zM110.485 108.958a1.725 1.725 0 1 0 .002-3.45 1.725 1.725 0 0 0-.002 3.45zM130.549 108.958a1.724 1.724 0 1 0-1.726-1.724c0 .952.772 1.724 1.726 1.724zM151.239 108.958a1.725 1.725 0 1 0 .002-3.45 1.725 1.725 0 0 0-.002 3.45zM171.302 108.958a1.725 1.725 0 1 0 .002-3.45 1.725 1.725 0 0 0-.002 3.45z" fill="#007CBA"/><path fill="#FAFAFA" d="M220.843 36.731h155.315v93.582H220.843z"/><path d="M248.454 102.379h100.317" stroke="#7983A6" stroke-miterlimit="10"/><g opacity=".5" stroke="#7983A6" stroke-miterlimit="10"><path opacity=".5" d="M248.454 91.179h1.599"/><path opacity=".5" d="M253.192 91.178h92.568" stroke-dasharray="4 4"/><path opacity=".5" d="M347.329 91.178h1.599"/></g><g opacity=".5" stroke="#7983A6" stroke-miterlimit="10"><path opacity=".5" d="M248.454 80.26h1.599"/><path opacity=".5" d="M253.192 80.26h92.568" stroke-dasharray="4 4"/><path opacity=".5" d="M347.329 80.26h1.599"/></g><g opacity=".5" stroke="#7983A6" stroke-miterlimit="10"><path opacity=".5" d="M248.454 69.34h1.599"/><path opacity=".5" d="M253.192 69.34h92.568" stroke-dasharray="4 4"/><path opacity=".5" d="M347.329 69.34h1.599"/></g><g opacity=".5" stroke="#7983A6" stroke-miterlimit="10"><path opacity=".5" d="M248.454 58.422h1.599"/><path opacity=".5" d="M253.192 58.422h92.568" stroke-dasharray="4 4"/><path opacity=".5" d="M347.329 58.422h1.599"/></g><g opacity=".3"><path opacity=".65" d="M261 86h-8v16h8V86z" fill="#007CBA"/></g><path d="M281 61h-7v41h7V61z" fill="#007CBA"/><g opacity=".3"><path opacity=".65" d="M301 73h-7v29.001h7v-29z" fill="#007CBA"/></g><path d="M321 69h-7v33h7V69z" fill="#007CBA"/><g opacity=".3"><path opacity=".65" d="M341 61h-7v41.001h7v-41z" fill="#007CBA"/></g><path d="M257.077 108.958a1.724 1.724 0 1 0 .001-3.449 1.724 1.724 0 0 0-.001 3.449zM277.14 108.958a1.725 1.725 0 1 0 .002-3.45 1.725 1.725 0 0 0-.002 3.45zM297.203 108.958a1.725 1.725 0 1 0 .003-3.45 1.725 1.725 0 0 0-.003 3.45zM317.894 108.958a1.725 1.725 0 1 0 .002-3.45 1.725 1.725 0 0 0-.002 3.45zM337.957 108.958a1.725 1.725 0 1 0 .002-3.45 1.725 1.725 0 0 0-.002 3.45z" fill="#007CBA"/><path fill="#FAFAFA" d="M387.005 36.731H542.32v93.582H387.005z"/><path d="M414.616 102.379h100.317" stroke="#7983A6" stroke-miterlimit="10"/><g opacity=".5" stroke="#7983A6" stroke-miterlimit="10"><path opacity=".5" d="M414.616 91.179h1.599"/><path opacity=".5" d="M419.354 91.178h92.568" stroke-dasharray="4 4"/><path opacity=".5" d="M513.491 91.178h1.599"/></g><g opacity=".5" stroke="#7983A6" stroke-miterlimit="10"><path opacity=".5" d="M414.616 80.26h1.599"/><path opacity=".5" d="M419.354 80.26h92.568" stroke-dasharray="4 4"/><path opacity=".5" d="M513.491 80.26h1.599"/></g><g opacity=".5" stroke="#7983A6" stroke-miterlimit="10"><path opacity=".5" d="M414.616 69.34h1.599"/><path opacity=".5" d="M419.354 69.34h92.568" stroke-dasharray="4 4"/><path opacity=".5" d="M513.491 69.34h1.599"/></g><g opacity=".5" stroke="#7983A6" stroke-miterlimit="10"><path opacity=".5" d="M414.616 58.422h1.599"/><path opacity=".5" d="M419.354 58.422h92.568" stroke-dasharray="4 4"/><path opacity=".5" d="M513.491 58.422h1.599"/></g><g opacity=".3"><path opacity=".65" d="M427 63h-7v39h7V63z" fill="#007CBA"/></g><path d="M447 65h-7v37h7V65z" fill="#007CBA"/><g opacity=".3"><path opacity=".65" d="M467 80h-7v22.001h7v-22z" fill="#007CBA"/></g><path d="M487 91h-7v11h7V91z" fill="#007CBA"/><g opacity=".3"><path opacity=".65" d="M507 80h-7v22.001h7v-22z" fill="#007CBA"/></g><path d="M423.239 108.958a1.724 1.724 0 1 0 .001-3.449 1.724 1.724 0 0 0-.001 3.449zM443.302 108.958a1.725 1.725 0 1 0 .002-3.45 1.725 1.725 0 0 0-.002 3.45zM463.365 108.958a1.725 1.725 0 1 0 .002-3.45 1.725 1.725 0 0 0-.002 3.45zM484.056 108.958a1.724 1.724 0 1 0 .001-3.449 1.724 1.724 0 0 0-.001 3.449zM504.119 108.958a1.725 1.725 0 1 0 .002-3.45 1.725 1.725 0 0 0-.002 3.45z" fill="#007CBA"/></svg>