<svg xmlns="http://www.w3.org/2000/svg" viewBox="0 0 24 24" fill="currentColor">
	<path d="M13.75 4.194a8 8 0 0 0-4.812.415l-.301.132a8 8 0 0 0-3.203 2.692L4 6.001v4h4L6.517 8.516q.333-.526.758-.977l.011-.012q.341-.359.733-.662l.025-.02a6.5 6.5 0 0 1 2.469-1.172l.034-.008q.117-.027.236-.05l.015-.002q.32-.06.65-.088.08-.008.16-.013a7 7 0 0 1 .323-.01L12 5.5h.05l.203.005.101.003q.146.008.293.023l.12.014.158.02q.103.015.205.033l.058.011q.107.02.212.043l.068.016a6.5 6.5 0 0 1 1.447.521l.02.01a7 7 0 0 1 .452.25l.02.014a7 7 0 0 1 .468.317l.07.054a7 7 0 0 1 .403.334l.034.03q.091.084.18.172l.047.045q.293.294.548.627l.03.038.07.097.096.135q.037.053.072.107a6 6 0 0 1 .167.265l.042.073q.236.411.413.857l.027.07a6.5 6.5 0 0 1 .418 2.014 6.6 6.6 0 0 1-.034 1.04 6 6 0 0 1-.063.424q-.109.597-.32 1.152-.016.034-.028.07a6.5 6.5 0 0 1-.413.856l-.042.073a6 6 0 0 1-.327.497l-.087.118-.02.028a7 7 0 0 1-.526.604l-.035.035-.035.032q-.089.088-.18.172l-.034.03a7 7 0 0 1-.38.317l-.093.071q-.09.067-.183.13l-.076.053q-.112.076-.227.146-.218.133-.446.247l-.028.015-.192.093-.081.036a6.5 6.5 0 0 1-1.184.396l-.058.012a7 7 0 0 1-.475.087q-.08.012-.157.02l-.122.014q-.145.015-.292.023l-.136.005-.139.003L12 18.5q-.053-.002-.104-.003l-.127-.004-.162-.007q-.08-.005-.159-.013a7 7 0 0 1-.65-.088q-.008 0-.015-.002a7 7 0 0 1-.236-.05l-.034-.008a6.5 6.5 0 0 1-4.14-3.077l-1.3.75a8 8 0 0 0 3.564 3.26l.301.131a8 8 0 0 0 11.055-7.061l.007-.33c0-1.76-.581-3.473-1.653-4.87l-.206-.256a8 8 0 0 0-4.07-2.6zM12 7.75a.75.75 0 0 0-.75.75V12a.75.75 0 0 0 .218.529l1.282-.839-1.28.84 2.5 2.5a.75.75 0 1 0 1.06-1.06l-2.28-2.28V8.5a.75.75 0 0 0-.75-.75" />
</svg>
