<svg xmlns="http://www.w3.org/2000/svg" viewBox="0 0 24 24">
	<path d="M10.7 9.6c.3-.2.8-.4 1.3-.4s1 .2 1.3.4c.3.2.4.5.4.6 0 .4.3.8.8.8s.8-.3.8-.8c0-.8-.5-1.4-1.1-1.9-.4-.3-.9-.5-1.4-.6v-.3c0-.4-.3-.8-.8-.8s-.8.3-.8.8v.3c-.5 0-1 .3-1.4.6-.6.4-1.1 1.1-1.1 1.9s.5 1.4 1.1 1.9c.6.4 1.4.6 2.2.6h.2c.5 0 .9.2 1.1.4.3.2.4.5.4.6s0 .4-.4.6c-.3.2-.8.4-1.3.4s-1-.2-1.3-.4c-.3-.2-.4-.5-.4-.6 0-.4-.3-.8-.8-.8s-.8.3-.8.8c0 .8.5 1.4 1.1 1.9.4.3.9.5 1.4.6v.3c0 .4.3.8.8.8s.8-.3.8-.8v-.3c.5 0 1-.3 1.4-.6.6-.4 1.1-1.1 1.1-1.9s-.5-1.4-1.1-1.9c-.5-.4-1.2-.6-1.9-.6H12c-.6 0-1-.2-1.3-.4-.3-.2-.4-.5-.4-.6s0-.4.4-.6ZM12 4c-4.4 0-8 3.6-8 8s3.6 8 8 8 8-3.6 8-8-3.6-8-8-8Zm0 14.5c-3.6 0-6.5-2.9-6.5-6.5S8.4 5.5 12 5.5s6.5 2.9 6.5 6.5-2.9 6.5-6.5 6.5Z" />
</svg>
