<svg xmlns="http://www.w3.org/2000/svg" viewBox="0 0 24 24">
	<path d="M11.9 9.3c.4 0 .8 0 1.1.2.4.1.7.3 1 .6.1.1.3.2.5.2s.4 0 .5-.2c.1-.1.2-.3.2-.5s0-.4-.2-.5c-.5-.5-1.1-.8-1.7-1.1-.7-.2-1.4-.2-2-.1-.7.1-1.3.4-1.9.8-.5.4-1 1-1.3 1.6h-.6c-.2 0-.4 0-.5.2-.1.1-.2.3-.2.5s0 .4.2.5c.1.1.3.2.5.2h.3v.5h-.3c-.2 0-.4 0-.5.2-.1.1-.2.3-.2.5s0 .4.2.5c.1.1.3.2.5.2h.6c.3.6.7 1.2 1.3 1.6.5.4 1.2.7 1.9.8.7.1 1.4 0 2-.1.7-.2 1.3-.6 1.7-1.1.1-.1.2-.3.2-.5s0-.4-.2-.5-.3-.2-.5-.2-.4 0-.5.2c-.3.3-.6.5-1 .6-.4.1-.7.2-1.1.2-.4 0-.8-.1-1.1-.3-.3-.2-.6-.4-.9-.7h.6c.2 0 .4 0 .5-.2.1-.1.2-.3.2-.5s0-.4-.2-.5c-.1-.1-.3-.2-.5-.2H9.3v-.5h2.2c.2 0 .4 0 .5-.2.1-.1.2-.3.2-.5s0-.4-.2-.5c-.1-.1-.3-.2-.5-.2H9.9c.2-.3.5-.5.9-.7s.7-.3 1.1-.3ZM12 4c-4.4 0-8 3.6-8 8s3.6 8 8 8 8-3.6 8-8-3.6-8-8-8Zm0 14.5c-3.6 0-6.5-2.9-6.5-6.5S8.4 5.5 12 5.5s6.5 2.9 6.5 6.5-2.9 6.5-6.5 6.5Z" />
</svg>
