<svg xmlns="http://www.w3.org/2000/svg" viewBox="0 0 24 24">
	<path d="m6.734 16.106 2.176-2.38-1.093-1.028-3.846 4.158 3.846 4.158 1.093-1.028-2.176-2.38h2.811c1.125 0 2.25.03 3.374 0 1.428-.001 3.362-.25 4.963-1.277 1.66-1.065 2.868-2.906 2.868-5.859 0-2.479-1.327-4.896-3.65-5.93-1.82-.813-3.044-.8-4.806-.788l-.567.002v1.5c.184 0 .368 0 .553-.002 1.82-.007 2.704-.014 4.21.657 1.854.827 2.76 2.657 2.76 4.561 0 2.472-.973 3.824-2.178 4.596-1.258.807-2.864 1.04-4.163 1.04h-.02c-1.115.03-2.229 0-3.344 0H6.734Z" />
</svg>
