<svg xmlns="http://www.w3.org/2000/svg" viewBox="0 0 24 24">
	<path clip-rule="evenodd" fill-rule="evenodd" d="M17.375 15.656A6.47 6.47 0 0018.5 12a6.47 6.47 0 00-.943-3.374l-1.262.813c.448.749.705 1.625.705 2.561a4.977 4.977 0 01-.887 2.844l1.262.813zm-1.951 1.87l-.813-1.261A4.976 4.976 0 0112 17c-.958 0-1.852-.27-2.613-.736l-.812 1.261A6.47 6.47 0 0012 18.5a6.47 6.47 0 003.424-.974zm-8.8-1.87A6.47 6.47 0 015.5 12c0-1.235.344-2.39.943-3.373l1.261.812A4.977 4.977 0 007 12c0 1.056.328 2.036.887 2.843l-1.262.813zm2.581-7.803A4.977 4.977 0 0112 7c1.035 0 1.996.314 2.794.853l.812-1.262A6.47 6.47 0 0012 5.5a6.47 6.47 0 00-3.607 1.092l.812 1.261zM12 20a8 8 0 100-16 8 8 0 000 16zm0-4.5a3.5 3.5 0 100-7 3.5 3.5 0 000 7z" />
</svg>
