<svg xmlns="http://www.w3.org/2000/svg" viewBox="0 0 24 24" style="fill: none" stroke="currentColor" stroke-width="1.5">
	<path d="M18.25 12.25L18.25 11.75L17.75 11.75L17.75 12.25L18.25 12.25Z" fill="currentColor" stroke="none" />
	<path d="M12.25 12.25L12.25 11.75L11.75 11.75L11.75 12.25L12.25 12.25Z" fill="currentColor" stroke="none" />
	<path d="M6.25 12.25L6.25 11.75L5.75 11.75L5.75 12.25L6.25 12.25Z" fill="currentColor" stroke="none" />
	<path d="M18.25 12.25L18.25 11.75L17.75 11.75L17.75 12.25L18.25 12.25Z" vector-effect="non-scaling-stroke" />
	<path d="M12.25 12.25L12.25 11.75L11.75 11.75L11.75 12.25L12.25 12.25Z" vector-effect="non-scaling-stroke" />
	<path d="M6.25 12.25L6.25 11.75L5.75 11.75L5.75 12.25L6.25 12.25Z" vector-effect="non-scaling-stroke" />
</svg>
