<svg xmlns="http://www.w3.org/2000/svg" viewBox="0 0 24 24">
	<path d="M13.75 4.194a8 8 0 0 0-4.812.415l-.301.132a8 8 0 0 0-3.203 2.691L4 6v4h4L6.517 8.515q.333-.525.758-.976l.013-.014a6.5 6.5 0 0 1 2.942-1.78q.033-.008.065-.018.095-.026.19-.049l.082-.018q.104-.024.207-.044l.059-.01q.33-.06.673-.086l.1-.008.131-.006q.102-.004.203-.005L12 5.5h.046l.225.006q.042.002.083.003a7 7 0 0 1 .476.044l.092.012.183.03q.029.004.056.009l.149.027a6.5 6.5 0 0 1 1.607.559l.018.01q.394.2.756.45.086.06.17.12.047.035.093.071a7 7 0 0 1 .381.316l.059.053q.082.075.162.154l.053.052q.293.294.548.627.014.017.028.036l.073.1.096.134.07.106q.047.071.092.142l.069.112a6.7 6.7 0 0 1 .578 1.26 6.5 6.5 0 0 1 .255 1.037l.018.12a6 6 0 0 1 .038.33 7 7 0 0 1 .018.88q-.003.071-.009.142l-.01.133a7 7 0 0 1-.055.453l-.025.144a6.5 6.5 0 0 1-.808 2.153l-.07.112a6 6 0 0 1-.257.383l-.073.1-.028.037q-.255.331-.548.626l-.063.062a7 7 0 0 1-.592.512q-.045.035-.093.071-.077.057-.157.111-.364.253-.76.456l-.027.013a6.5 6.5 0 0 1-1.995.625q-.045.007-.092.012a7 7 0 0 1-.476.044l-.083.003-.225.006L12 18.5l-.06-.002-.203-.006-.132-.006-.1-.008a7 7 0 0 1-.672-.086l-.059-.01-.207-.044-.082-.018-.19-.049-.065-.018a6.5 6.5 0 0 1-3.858-3.004l-1.3.75a8 8 0 0 0 3.565 3.26l.301.131a8 8 0 0 0 11.055-7.061l.007-.33c0-1.76-.581-3.473-1.653-4.87l-.206-.256a8 8 0 0 0-4.07-2.601zM10 14.999l5-3-5-3z" />
</svg>
