<svg xmlns="http://www.w3.org/2000/svg" viewBox="0 0 24 24">
	<path d="M3 6.75C3 5.784 3.784 5 4.75 5H15V7.313l.05.027 5.056 2.73.394.212v3.468a1.75 1.75 0 01-1.75 1.75h-.012a2.5 2.5 0 11-4.975 0H9.737a2.5 2.5 0 11-4.975 0H3V6.75zM13.5 14V6.5H4.75a.25.25 0 00-.25.25V14h.965a2.493 2.493 0 011.785-.75c.7 0 1.332.287 1.785.75H13.5zm4.535 0h.715a.25.25 0 00.25-.25v-2.573l-4-2.16v4.568a2.487 2.487 0 011.25-.335c.7 0 1.332.287 1.785.75zM6.282 15.5a1.002 1.002 0 00.968 1.25 1 1 0 10-.968-1.25zm9 0a1 1 0 101.937.498 1 1 0 00-1.938-.498z" />
</svg>
