<svg xmlns="http://www.w3.org/2000/svg" width="20" height="20"><path fill="#D5D5D5" d="M0 0h20v20H0z"/><path fill="#101517" d="m8.43 18.18-5.05-2.45v-.84l5.05-2.42v1.1l-3.9 1.74 3.9 1.77v1.1zM16.38 15.73l-5.05 2.45v-1.1l3.9-1.77-3.9-1.74v-1.1l5.05 2.42v.84zM4.7 8.1h.94c.08.48.37.72.85.72s.82-.1 1.01-.31c.2-.2.3-.78.3-1.73V1.81h1.07v4.93c0 1.07-.18 1.85-.52 2.33-.35.47-.97.71-1.85.71-.52 0-.94-.15-1.26-.45-.33-.3-.51-.72-.54-1.23zM10.73 9.31l.39-.98c.2.14.45.27.75.36.3.1.57.15.8.15.42 0 .76-.11 1.01-.34s.38-.52.38-.88c0-.26-.07-.5-.2-.73-.15-.23-.5-.48-1.07-.75l-.64-.3a2.53 2.53 0 0 1-1.12-.88 2.31 2.31 0 0 1-.32-1.25c0-.58.2-1.07.62-1.46s.95-.58 1.6-.58c.87 0 1.48.15 1.82.43l-.32.93c-.14-.1-.36-.2-.66-.3s-.56-.14-.81-.14c-.37 0-.65.1-.86.3-.21.22-.32.48-.32.8a1.25 1.25 0 0 0 .43.96c.13.12.4.28.82.48l.65.3c.54.26.91.56 1.13.91.22.36.32.8.32 1.35 0 .59-.23 1.1-.7 1.5a2.8 2.8 0 0 1-1.91.62c-.7 0-1.3-.17-1.8-.5z"/></svg>