<?xml version="1.0" standalone="no"?>
<!DOCTYPE svg PUBLIC "-//W3C//DTD SVG 1.1//EN" "http://www.w3.org/Graphics/SVG/1.1/DTD/svg11.dtd" >
<svg xmlns="http://www.w3.org/2000/svg">
<metadata>Generated by IcoMoon</metadata>
<defs>
<font id="CaGov" horiz-adv-x="512">
<font-face units-per-em="512" ascent="480" descent="-32" />
<missing-glyph horiz-adv-x="512" />
<glyph unicode="&#x20;" horiz-adv-x="256" d="" />
<glyph unicode="&#x32;" glyph-name="caret-up" d="M179.488 146.133l92.512 92.512 92.512-92.512c6.24-6.24 16.384-6.24 22.624 0s6.24 16.384 0 22.624l-103.776 103.776c-3.136 3.136-7.232 4.672-11.36 4.672s-8.224-1.536-11.36-4.672l-103.776-103.776c-6.24-6.24-6.24-16.384 0-22.624s16.384-6.24 22.624 0z" />
<glyph unicode="&#x33;" glyph-name="caret-down" d="M364.512 248.533l-92.512-92.512-92.512 92.512c-6.24 6.24-16.384 6.24-22.624 0s-6.24-16.384 0-22.624l103.776-103.776c3.136-3.136 7.264-4.704 11.36-4.672 4.128 0 8.224 1.536 11.36 4.672l103.776 103.776c6.24 6.24 6.24 16.384 0 22.624s-16.384 6.24-22.624 0z" />
<glyph unicode="&#x34;" glyph-name="caret-left" d="M196.8 185.973l103.776-103.776c6.24-6.24 16.384-6.24 22.624 0s6.24 16.384 0 22.624l-92.512 92.512 92.512 92.512c6.24 6.24 6.24 16.384 0 22.624s-16.384 6.24-22.624 0l-103.776-103.776c-3.136-3.136-4.672-7.232-4.672-11.36s1.536-8.224 4.672-11.36z" />
<glyph unicode="&#x35;" glyph-name="caret-right" d="M220.8 82.197c6.24-6.24 16.384-6.24 22.624 0l103.776 103.776c3.136 3.136 4.704 7.264 4.672 11.36 0 4.128-1.536 8.224-4.672 11.36l-103.776 103.776c-6.24 6.24-16.384 6.24-22.624 0s-6.24-16.384 0-22.624l92.512-92.512-92.512-92.512c-6.24-6.24-6.24-16.384 0-22.624z" />
<glyph unicode="&#x36;" glyph-name="caret-two-up" d="M375.232 241.941l-107.040 94.688c-3.2 3.2-7.392 4.736-11.584 4.672-4.224 0.064-8.416-1.472-11.616-4.672l-107.040-94.688c-6.272-6.272-6.272-16.48 0-22.752s16.48-6.272 22.752 0l95.872 84.832 95.872-84.832c6.272-6.272 16.48-6.272 22.752 0 6.336 6.272 6.336 16.448 0.032 22.752zM268.192 221.877c-3.2 3.2-7.392 4.736-11.584 4.672-4.224 0.064-8.416-1.472-11.616-4.672l-107.040-94.688c-6.272-6.272-6.272-16.48 0-22.752s16.48-6.272 22.752 0l95.872 84.8 95.872-84.8c6.272-6.272 16.48-6.272 22.752 0s6.272 16.48 0 22.752l-107.008 94.688z" />
<glyph unicode="&#x37;" glyph-name="caret-two-down" d="M351.296 207.509l-95.872-84.8-95.872 84.8c-6.272 6.272-16.48 6.272-22.752 0s-6.272-16.48 0-22.752l107.040-94.688c3.2-3.2 7.392-4.736 11.584-4.672 4.192-0.064 8.384 1.44 11.584 4.64l107.040 94.688c6.272 6.272 6.272 16.48 0 22.752s-16.48 6.304-22.752 0.032zM374.048 322.261c-6.272 6.272-16.48 6.272-22.752 0l-95.872-84.8-95.872 84.8c-6.304 6.272-16.512 6.272-22.784 0s-6.272-16.48 0-22.752l107.040-94.688c3.2-3.2 7.392-4.736 11.584-4.672 4.192-0.064 8.416 1.472 11.584 4.672l107.040 94.688c6.336 6.272 6.336 16.448 0.032 22.752z" />
<glyph unicode="&#x38;" glyph-name="caret-two-left" d="M132.704 202.325l94.688-107.040c6.272-6.272 16.48-6.272 22.752 0s6.272 16.48 0 22.752l-84.8 95.872 84.8 95.872c6.272 6.272 6.272 16.48 0 22.752s-16.48 6.272-22.752 0l-94.688-107.008c-3.2-3.2-4.704-7.392-4.672-11.584-0.032-4.192 1.472-8.416 4.672-11.616zM364.928 332.565c-6.272 6.272-16.48 6.272-22.752 0l-94.72-107.040c-3.2-3.2-4.736-7.392-4.672-11.584-0.032-4.192 1.472-8.416 4.672-11.616l94.688-107.040c6.272-6.272 16.48-6.272 22.752 0s6.272 16.48 0 22.752l-84.8 95.872 84.8 95.872c6.304 6.304 6.304 16.512 0.032 22.784z" />
<glyph unicode="&#x39;" glyph-name="caret-two-right" d="M379.296 224.341l-94.688 107.040c-6.272 6.272-16.48 6.272-22.752 0s-6.272-16.48 0-22.752l84.8-95.872-84.8-95.872c-6.272-6.272-6.272-16.48 0-22.752s16.48-6.272 22.752 0l94.688 107.040c3.2 3.2 4.736 7.392 4.672 11.584 0.032 4.192-1.472 8.384-4.672 11.584zM147.072 94.101c6.272-6.272 16.48-6.272 22.752 0l94.688 107.040c3.2 3.2 4.736 7.392 4.672 11.584 0.064 4.192-1.472 8.416-4.672 11.584l-94.656 107.072c-6.272 6.272-16.48 6.272-22.752 0s-6.272-16.48 0-22.752l84.8-95.872-84.8-95.872c-6.304-6.304-6.304-16.512-0.032-22.784z" />
<glyph unicode="&#x3a;" glyph-name="caret-line-up" d="M284.36 271.533c-3.136 3.136-7.232 4.672-11.36 4.672s-8.224-1.536-11.36-4.672l-103.776-103.776c-6.24-6.24-6.24-16.384 0-22.624s16.384-6.24 22.624 0l92.512 92.512 92.512-92.512c6.24-6.24 16.384-6.24 22.624 0s6.24 16.384 0 22.624l-103.776 103.776zM274.056 434.189c-131.968 0-238.944-106.976-238.944-238.944s107.008-238.912 238.944-238.912 238.944 106.976 238.944 238.944-106.976 238.912-238.944 238.912zM274.056-11.667c-114.112 0-206.944 92.832-206.944 206.944s92.832 206.944 206.944 206.944 206.944-92.864 206.944-206.944-92.832-206.944-206.944-206.944z" />
<glyph unicode="&#x3b;" glyph-name="caret-line-down" d="M364.512 248.533l-92.512-92.512-92.512 92.512c-6.24 6.24-16.384 6.24-22.624 0s-6.24-16.384 0-22.624l103.776-103.776c3.136-3.136 7.264-4.704 11.36-4.672 4.128 0 8.224 1.536 11.36 4.672l103.776 103.776c6.24 6.24 6.24 16.384 0 22.624s-16.384 6.24-22.624 0zM273.152 435.061c-131.904 0-238.848-106.944-238.848-238.848-0.032-131.936 106.912-238.88 238.848-238.88 131.904 0 238.848 106.944 238.848 238.848 0 131.936-106.944 238.88-238.848 238.88zM273.152-10.667c-114.048 0-206.848 92.8-206.848 206.848s92.8 206.848 206.848 206.848c114.048 0.032 206.848-92.768 206.848-206.848 0-114.048-92.8-206.848-206.848-206.848z" />
<glyph unicode="&#x3c;" glyph-name="caret-line-left" d="M323.2 312.469c-6.24 6.24-16.384 6.24-22.624 0l-103.776-103.776c-3.136-3.136-4.672-7.232-4.672-11.36s1.536-8.224 4.672-11.36l103.776-103.776c6.24-6.24 16.384-6.24 22.624 0s6.24 16.384 0 22.624l-92.512 92.512 92.512 92.512c6.24 6.24 6.24 16.384 0 22.624zM272 437.333c-132.544 0-240-107.456-240-240s107.456-240 240-240 240 107.456 240 240-107.456 240-240 240zM272-10.667c-114.688 0-208 93.312-208 208s93.312 208 208 208 208-93.312 208-208-93.312-208-208-208z" />
<glyph unicode="&#x3d;" glyph-name="caret-line-right" d="M347.2 208.693l-103.776 103.776c-6.24 6.24-16.384 6.24-22.624 0s-6.24-16.384 0-22.624l92.512-92.512-92.512-92.512c-6.24-6.24-6.24-16.384 0-22.624s16.384-6.24 22.624 0l103.776 103.776c3.136 3.136 4.704 7.264 4.672 11.36 0 4.128-1.536 8.224-4.672 11.36zM273.152 435.029c-131.904 0-238.848-106.944-238.848-238.848s106.944-238.848 238.848-238.848 238.848 106.944 238.848 238.848-106.944 238.848-238.848 238.848zM273.152-10.667c-114.048 0-206.848 92.8-206.848 206.848s92.8 206.848 206.848 206.848 206.848-92.8 206.848-206.848-92.8-206.848-206.848-206.848z" />
<glyph unicode="&#x3e;" glyph-name="caret-line-two-up" d="M284.192 320.629c-3.2 3.2-7.392 4.736-11.584 4.672-4.224 0.064-8.416-1.472-11.616-4.672l-107.040-94.688c-6.272-6.272-6.272-16.48 0-22.752s16.48-6.272 22.752 0l95.872 84.832 95.872-84.832c6.272-6.272 16.48-6.272 22.752 0s6.272 16.48 0 22.752l-107.008 94.688zM284.192 205.877c-3.2 3.2-7.392 4.736-11.584 4.672-4.224 0.064-8.416-1.472-11.616-4.672l-107.040-94.688c-6.272-6.272-6.272-16.48 0-22.752s16.48-6.272 22.752 0l95.872 84.8 95.872-84.8c6.272-6.272 16.48-6.272 22.752 0s6.272 16.48 0 22.752l-107.008 94.688zM273.152 435.029c-131.904 0-238.848-106.944-238.848-238.848s106.944-238.848 238.848-238.848 238.848 106.944 238.848 238.848-106.944 238.848-238.848 238.848zM273.152-10.667c-114.048 0-206.848 92.8-206.848 206.848s92.8 206.848 206.848 206.848 206.848-92.8 206.848-206.848-92.8-206.848-206.848-206.848z" />
<glyph unicode="&#x3f;" glyph-name="caret-line-two-down" d="M367.296 191.509l-95.872-84.8-95.872 84.8c-6.272 6.272-16.48 6.272-22.752 0s-6.272-16.48 0-22.752l107.040-94.688c3.2-3.2 7.392-4.736 11.584-4.672 4.192-0.064 8.416 1.472 11.584 4.672l107.040 94.688c6.272 6.272 6.272 16.48 0 22.752s-16.48 6.272-22.752 0zM367.296 306.261l-95.872-84.8-95.872 84.8c-6.304 6.272-16.512 6.272-22.784 0s-6.272-16.48 0-22.752l107.040-94.688c3.2-3.2 7.392-4.736 11.584-4.672 4.192-0.064 8.416 1.472 11.584 4.672l107.040 94.688c6.272 6.272 6.272 16.48 0 22.752s-16.448 6.272-22.72 0zM273.152 435.029c-131.904 0-238.848-106.944-238.848-238.848s106.944-238.848 238.848-238.848 238.848 106.944 238.848 238.848-106.944 238.848-238.848 238.848zM273.152-10.667c-114.048 0-206.848 92.8-206.848 206.848s92.8 206.848 206.848 206.848 206.848-92.8 206.848-206.848-92.8-206.848-206.848-206.848z" />
<glyph unicode="&#x40;" glyph-name="caret-line-two-left" d="M181.344 197.941l84.8 95.872c6.272 6.272 6.272 16.48 0 22.752s-16.48 6.272-22.752 0l-94.688-107.040c-3.2-3.2-4.736-7.392-4.672-11.584-0.032-4.192 1.472-8.416 4.672-11.616l94.688-107.040c6.272-6.272 16.48-6.272 22.752 0s6.272 16.48 0 22.752l-84.8 95.904zM380.928 316.565c-6.272 6.272-16.48 6.272-22.752 0l-94.72-107.040c-3.2-3.2-4.736-7.392-4.672-11.584-0.032-4.192 1.472-8.416 4.672-11.616l94.688-107.040c6.272-6.272 16.48-6.272 22.752 0s6.272 16.48 0 22.752l-84.8 95.872 84.8 95.872c6.304 6.304 6.304 16.512 0.032 22.784zM272 437.333c-132.544 0-240-107.456-240-240s107.456-240 240-240 240 107.456 240 240-107.456 240-240 240zM272-10.667c-114.688 0-208 93.312-208 208s93.312 208 208 208 208-93.312 208-208-93.312-208-208-208z" />
<glyph unicode="&#x41;" glyph-name="caret-line-two-right" d="M395.296 208.341l-94.688 107.040c-6.272 6.272-16.48 6.272-22.752 0s-6.272-16.48 0-22.752l84.8-95.872-84.8-95.872c-6.272-6.272-6.272-16.48 0-22.752s16.48-6.272 22.752 0l94.688 107.040c3.2 3.2 4.736 7.392 4.672 11.584 0.032 4.192-1.472 8.384-4.672 11.584zM285.216 196.757c0.064 4.192-1.472 8.416-4.672 11.584l-94.688 107.040c-6.272 6.272-16.48 6.272-22.752 0s-6.272-16.48 0-22.752l84.8-95.872-84.8-95.872c-6.272-6.272-6.272-16.48 0-22.752s16.48-6.272 22.752 0l94.688 107.040c3.2 3.168 4.736 7.36 4.672 11.584zM272 437.333c-132.544 0-240-107.456-240-240s107.456-240 240-240 240 107.456 240 240-107.456 240-240 240zM272-10.667c-114.688 0-208 93.312-208 208s93.312 208 208 208 208-93.312 208-208-93.312-208-208-208z" />
<glyph unicode="&#x42;" glyph-name="triangle-up" d="M143.968 149.333h223.456c4.576 0 8.64 2.208 11.52 5.632l0.064-0.064c6.24 6.944 6.24 18.208 0 25.152l-111.968 124.064c-6.24 6.944-16.352 6.944-22.56 0-0.16-0.192-0.224-0.448-0.384-0.64l-111.744-123.424c-6.24-6.944-6.24-18.208 0-25.152 0.064-0.064 0.128-0.096 0.192-0.16 2.912-3.328 6.912-5.408 11.424-5.408z" />
<glyph unicode="&#x43;" glyph-name="triangle-down" d="M266.912 154.549c0.16 0.192 0.224 0.448 0.384 0.64l111.712 123.424c6.24 6.944 6.24 18.208 0 25.152-0.064 0.064-0.128 0.096-0.192 0.128-2.88 3.36-6.912 5.44-11.392 5.44h-223.456c-4.576 0-8.64-2.208-11.552-5.632l-0.064 0.064c-6.24-6.944-6.24-18.208 0-25.152l111.968-124.064c6.24-6.944 16.352-6.944 22.592 0z" />
<glyph unicode="&#x44;" glyph-name="triangle-left" d="M289.28 336.981l-124.064-112c-6.944-6.24-6.944-16.352 0-22.56 0.192-0.16 0.448-0.224 0.64-0.384l123.424-111.712c6.944-6.24 18.208-6.24 25.152 0 0.064 0.064 0.064 0.128 0.128 0.192 3.36 2.88 5.44 6.912 5.44 11.392v223.456c0 4.576-2.208 8.64-5.632 11.52l0.064 0.064c-6.944 6.24-18.208 6.24-25.152 0.032z" />
<glyph unicode="&#x45;" glyph-name="triangle-right" d="M222.304 89.717l122.432 112.256c6.848 6.24 6.848 16.384 0 22.624-0.192 0.16-0.448 0.224-0.64 0.384l-121.792 112c-6.848 6.24-17.984 6.24-24.832 0-0.032-0.064-0.064-0.16-0.128-0.224-3.264-2.88-5.344-6.912-5.344-11.424v-224c0-4.576 2.176-8.64 5.536-11.552l-0.064-0.064c6.88-6.272 17.984-6.272 24.832 0z" />
<glyph unicode="&#x46;" glyph-name="triangle-line-up" d="M272 437.333c-132.544 0-240-107.456-240-240s107.456-240 240-240 240 107.456 240 240-107.456 240-240 240zM272-10.667c-114.688 0-208 93.312-208 208s93.312 208 208 208 208-93.312 208-208-93.312-208-208-208zM281.6 272.117c-5.44 6.944-14.304 6.944-19.744 0-0.16-0.192-0.192-0.448-0.352-0.64l-97.728-123.424c-5.44-6.944-5.44-18.208 0-25.152 0.032-0.064 0.128-0.064 0.16-0.128 2.528-3.36 6.048-5.44 9.984-5.44h195.52c4 0 7.552 2.208 10.080 5.632l0.064-0.064c5.44 6.944 5.44 18.208 0 25.152l-97.984 124.064z" />
<glyph unicode="&#x47;" glyph-name="triangle-line-down" d="M272 437.333c-132.544 0-240-107.456-240-240s107.456-240 240-240 240 107.456 240 240-107.456 240-240 240zM272-10.667c-114.688 0-208 93.312-208 208s93.312 208 208 208 208-93.312 208-208-93.312-208-208-208zM379.744 239.925c-2.528 3.328-6.048 5.408-9.984 5.408h-195.52c-4 0-7.552-2.208-10.080-5.632l-0.064 0.064c-5.44-6.944-5.44-18.208 0-25.152l97.984-124.064c5.44-6.944 14.304-6.944 19.744 0 0.16 0.192 0.192 0.448 0.352 0.64l97.76 123.424c5.44 6.944 5.44 18.208 0 25.152-0.064 0.064-0.128 0.096-0.192 0.16z" />
<glyph unicode="&#x48;" glyph-name="triangle-line-left" d="M272 437.333c-132.544 0-240-107.456-240-240s107.456-240 240-240 240 107.456 240 240-107.456 240-240 240zM272-10.667c-114.688 0-208 93.312-208 208s93.312 208 208 208 208-93.312 208-208-93.312-208-208-208zM314.432 305.557c-6.944 5.44-18.208 5.44-25.152 0l-124.064-97.984c-6.944-5.44-6.944-14.304 0-19.744 0.192-0.16 0.448-0.192 0.64-0.352l123.424-97.76c6.944-5.44 18.208-5.44 25.152 0 0.064 0.032 0.064 0.128 0.128 0.16 3.36 2.56 5.44 6.080 5.44 10.016v195.52c0 4-2.208 7.552-5.632 10.080l0.064 0.064z" />
<glyph unicode="&#x49;" glyph-name="triangle-line-right" d="M272 437.333c-132.544 0-240-107.456-240-240s107.456-240 240-240 240 107.456 240 240-107.456 240-240 240zM272-10.667c-114.688 0-208 93.312-208 208s93.312 208 208 208 208-93.312 208-208-93.312-208-208-208zM378.144 207.797l-123.424 97.76c-6.944 5.44-18.208 5.44-25.152 0-0.064-0.064-0.096-0.128-0.16-0.16-3.328-2.528-5.408-6.048-5.408-9.984v-195.52c0-4 2.208-7.552 5.632-10.080l-0.064-0.064c6.944-5.44 18.208-5.44 25.152 0l124.064 97.984c6.944 5.44 6.944 14.304 0 19.744-0.192 0.16-0.448 0.192-0.64 0.32z" />
<glyph unicode="&#x4b;" glyph-name="minus-mark" d="M115.995 173.332h320.013c11.041 0 20.001 8.961 20.001 20.001s-8.961 20.001-20.001 20.001h-320.013c-11.040 0-20.001-8.961-20.001-20.001s8.96-20.001 20.001-20.001z" />
<glyph unicode="&#x4c;" glyph-name="plus-mark" d="M137.777 179.555h118.223v-118.223c0-9.323 7.566-16.889 16.889-16.889s16.889 7.566 16.889 16.889v118.223h118.223c9.323 0 16.889 7.566 16.889 16.889s-7.566 16.889-16.889 16.889h-118.223v118.223c0 9.323-7.566 16.889-16.889 16.889s-16.889-7.566-16.889-16.889v-118.223h-118.223c-9.323 0-16.889-7.566-16.889-16.889s7.566-16.889 16.889-16.889z" />
<glyph unicode="&#x4d;" glyph-name="close-mark" d="M137.224 94.557c6.665-6.665 17.5-6.665 24.165 0l94.611 94.611 94.611-94.611c6.665-6.665 17.5-6.665 24.165 0s6.665 17.5 0 24.165l-94.611 94.611 94.611 94.611c6.665 6.665 6.665 17.5 0 24.165s-17.5 6.665-24.165 0l-94.611-94.611-94.611 94.611c-6.665 6.665-17.5 6.665-24.165 0s-6.665-17.5 0-24.165l94.611-94.611-94.611-94.611c-6.665-6.665-6.665-17.5 0-24.165z" />
<glyph unicode="&#x4e;" glyph-name="check-mark" d="M221.41 63.399c0.625-0.5 1.001-1.188 1.657-1.658 0.939-0.625 2.001-0.75 3.002-1.188 1.189-0.563 2.345-1.094 3.596-1.438 1.22-0.313 2.408-0.469 3.659-0.563 1.782-0.188 3.503-0.188 5.255 0.063 0.72 0.125 1.407 0.313 2.126 0.5 2.158 0.531 4.16 1.376 6.13 2.565 0.344 0.219 0.625 0.469 0.97 0.688 1.282 0.875 2.659 1.533 3.753 2.721 0.782 0.844 1.126 1.939 1.751 2.877 0.031 0.031 0.094 0.063 0.094 0.094l186.37 298.711c6.63 10.102 3.784 23.675-6.349 30.306s-23.675 3.785-30.306-6.349l-172.139-275.88-95.202 92.606c-8.882 8.226-22.706 7.694-30.931-1.188-8.194-8.882-7.662-22.737 1.219-30.932l114.531-111.434c0.219-0.219 0.531-0.281 0.813-0.5z" />
<glyph unicode="&#x4f;" glyph-name="minus-line" d="M272 437.333c-132.544 0-240-107.456-240-240s107.456-240 240-240 240 107.456 240 240-107.456 240-240 240zM272-10.667c-114.688 0-208 93.312-208 208s93.312 208 208 208 208-93.312 208-208-93.312-208-208-208zM400 213.333h-256c-8.832 0-16-7.168-16-16s7.168-16 16-16h256c8.832 0 16 7.168 16 16s-7.168 16-16 16z" />
<glyph unicode="&#x50;" glyph-name="plus-line" d="M272 437.333c-132.544 0-240-107.456-240-240s107.456-240 240-240 240 107.456 240 240-107.456 240-240 240zM272-10.667c-114.688 0-208 93.312-208 208s93.312 208 208 208 208-93.312 208-208-93.312-208-208-208zM400 213.333h-112v112c0 8.832-7.168 16-16 16s-16-7.168-16-16v-112h-112c-8.832 0-16-7.168-16-16s7.168-16 16-16h112v-112c0-8.832 7.168-16 16-16s16 7.168 16 16v112h112c8.832 0 16 7.168 16 16s-7.168 16-16 16z" />
<glyph unicode="&#x51;" glyph-name="close-line" d="M272 437.333c-132.544 0-240-107.456-240-240s107.456-240 240-240 240 107.456 240 240-107.456 240-240 240zM272-10.667c-114.688 0-208 93.312-208 208s93.312 208 208 208 208-93.312 208-208-93.312-208-208-208zM360.576 308.533l-87.968-87.968-78.88 87.968c-6.24 6.24-16.384 6.24-22.624 0s-6.24-16.384 0-22.624l78.912-87.968-89.184-89.184c-6.24-6.24-6.24-16.384 0-22.624s16.384-6.24 22.624 0l87.968 87.968 78.912-87.968c6.24-6.24 16.384-6.24 22.624 0s6.24 16.384 0 22.624l-78.944 87.968 89.184 89.184c6.24 6.24 6.24 16.384 0 22.624s-16.384 6.24-22.624 0z" />
<glyph unicode="&#x52;" glyph-name="check-line" d="M257.344 469.333c-141.376 0-256-114.624-256-256s114.624-256 256-256 256 114.624 256 256-114.624 256-256 256zM257.344-10.667c-123.52 0-224 100.48-224 224s100.48 224 224 224 224-100.48 224-224-100.512-224-224-224zM369.472 315.157c-10.336 6.784-24.224 3.872-31.008-6.496l-108.032-165.088-51.648 47.808c-9.088 8.384-23.264 7.84-31.68-1.248s-7.84-23.232 1.248-31.648l71.392-66.048c0.256-0.224 0.576-0.288 0.832-0.512 0.64-0.512 1.024-1.216 1.696-1.696 0.96-0.64 2.048-0.768 3.072-1.216 1.216-0.576 2.4-1.12 3.68-1.472 1.248-0.32 2.464-0.48 3.744-0.576 1.824-0.192 3.584-0.192 5.376 0.064 0.736 0.128 1.44 0.32 2.176 0.512 2.208 0.544 4.256 1.408 6.272 2.624 0.352 0.224 0.64 0.48 0.992 0.704 1.312 0.896 2.72 1.568 3.84 2.784 0.8 0.864 1.152 1.984 1.792 2.944 0.032 0.032 0.096 0.064 0.096 0.096l122.624 187.424c6.784 10.368 3.872 24.256-6.464 31.040z" />
<glyph unicode="&#x55;" glyph-name="search-right" d="M298.091 438.501c-101.081 0-183.025-81.944-183.025-183.025 0-43.517 15.269-83.42 40.615-114.874l-120.981-120.981c-7.584-7.584-7.584-19.952 0-27.586 7.584-7.584 19.951-7.584 27.586 0l120.981 120.981c31.404-25.346 71.358-40.615 114.874-40.615 101.081 0 183.025 81.944 183.025 183.025s-81.944 183.075-183.076 183.075v0zM298.091 109.249c-80.62 0-146.226 65.555-146.226 146.227s65.606 146.176 146.226 146.176 146.226-65.555 146.226-146.227-65.555-146.176-146.226-146.176z" />
<glyph unicode="&#x58;" glyph-name="collapse" d="M120.887 314.667v-236.447c0-18.646 15.133-33.778 33.778-33.778h236.447c18.646 0 33.778 15.133 33.778 33.778v236.447c0 18.646-15.133 33.778-33.778 33.778h-236.447c-18.646 0-33.778-15.133-33.778-33.778zM391.113 78.22h-236.447v236.447h236.447v-236.447zM205.333 179.555h135.113c9.323 0 16.889 7.566 16.889 16.889s-7.566 16.889-16.889 16.889h-135.113c-9.323 0-16.889-7.566-16.889-16.889s7.566-16.889 16.889-16.889z" />
<glyph unicode="&#x59;" glyph-name="expand" d="M120.887 314.667v-236.447c0-18.646 15.133-33.778 33.778-33.778h236.447c18.646 0 33.778 15.133 33.778 33.778v236.447c0 18.646-15.133 33.778-33.778 33.778h-236.447c-18.646 0-33.778-15.133-33.778-33.778zM391.113 78.22h-236.447v236.447h236.447v-236.447zM205.333 179.555h50.667v-50.667c0-9.323 7.566-16.889 16.889-16.889s16.889 7.566 16.889 16.889v50.667h50.667c9.323 0 16.889 7.566 16.889 16.889s-7.566 16.889-16.889 16.889h-50.667v50.667c0 9.323-7.566 16.889-16.889 16.889s-16.889-7.566-16.889-16.889v-50.667h-50.667c-9.323 0-16.889-7.566-16.889-16.889s7.566-16.889 16.889-16.889z" />
<glyph unicode="&#x6a;" glyph-name="pencil" d="M455.062 14.272l-29.628 89.422-239.204 239.204-59.794-59.794 239.204-239.204zM86.57 322.969l59.794 59.794-29.6 29.6c-16.519 16.519-43.275 16.519-59.794 0-16.519-16.49-16.519-43.303 0-59.794l29.6-29.6z" />
<glyph unicode="&#x6c;" glyph-name="pencil-edit" d="M332.334 136.999l-26.302 79.405-151.727 151.727-53.104-53.104 151.727-151.727zM30.861 438.472c-14.671-14.671-14.671-38.434 0-53.104l39.083-39.083 53.104 53.104-39.083 39.083c-14.671 14.671-38.434 14.671-53.104 0zM462.63 360.926h-209.258l29.519-29.519h179.74v-324.705h-324.705v179.74l-29.519 29.519v-209.258c0-16.294 13.224-29.519 29.519-29.519h324.705c16.294 0 29.519 13.224 29.519 29.519v324.705c0 16.294-13.224 29.519-29.519 29.519z" />
<glyph unicode="&#xe00a;" glyph-name="science" d="M40.704 74.837c7.68-11.936 23.808-26.144 57.088-26.144 20.928 0 47.712 6.112 77.536 16.768 12.896-56.832 36.608-108.128 80.672-108.128 44.8 0 68.608 53.056 81.344 111.072 29.888-10.112 56.768-15.936 77.792-15.936 35.2 0 51.712 14.976 59.392 27.52 24.832 40.704-13.92 92.384-60.704 135.104 8.64 8.32 16.768 16.64 23.904 24.736 40.448 46.048 51.744 83.712 33.568 112-7.68 11.936-23.808 26.144-57.088 26.144v0c-20.928 0-47.712-6.112-77.536-16.768-12.896 56.832-36.608 108.128-80.672 108.128-44.8 0-68.608-53.056-81.344-111.072-29.888 10.144-56.768 15.936-77.792 15.936v0c-35.2 0-51.744-14.976-59.392-27.52-24.832-40.704 13.92-92.384 60.704-135.104-8.64-8.352-16.768-16.64-23.904-24.736-40.448-46.048-51.744-83.744-33.568-112zM256-10.667c-20.704 0-39.072 34.592-50.784 88 16.832 7.264 34.24 15.744 52.064 25.44 17.088-8.768 33.792-16.416 49.984-23.072-11.648-54.752-30.24-90.368-51.264-90.368zM192 213.333c0 11.744 0.352 23.2 0.832 34.464 9.216 6.528 18.656 12.992 28.544 19.36 11.36 7.296 22.592 14.016 33.728 20.416 11.296-6.144 22.688-12.576 34.208-19.584 10.304-6.304 20.192-12.736 29.792-19.2 0.544-11.584 0.896-23.36 0.896-35.456 0-11.744-0.352-23.2-0.832-34.464-9.216-6.528-18.656-12.992-28.544-19.36-11.36-7.296-22.592-14.016-33.728-20.416-11.296 6.144-22.688 12.576-34.208 19.584-10.304 6.304-20.192 12.736-29.792 19.2-0.544 11.584-0.896 23.36-0.896 35.456zM160.16 201.301c-4.704 3.584-9.312 7.168-13.728 10.72 4.416 3.744 8.992 7.488 13.664 11.232-0.064-4.288-0.096-7.904-0.096-9.92 0-2.336 0.064-6.752 0.16-12.032zM195.744 288.405c0.928 9.088 2.016 17.888 3.264 26.4 7.296-3.104 14.752-6.528 22.368-10.112-5.76-3.52-11.52-6.88-17.312-10.592-2.88-1.888-5.472-3.84-8.32-5.696zM288.48 305.493c8.256 4.16 16.32 8.032 24.224 11.584 1.344-9.056 2.496-18.496 3.488-28.192-4.448 2.848-8.192 5.184-10.176 6.4-5.856 3.584-11.712 6.816-17.536 10.208zM351.84 225.365c4.704-3.584 9.312-7.168 13.728-10.72-4.416-3.744-8.992-7.456-13.696-11.232 0.096 4.288 0.128 7.904 0.128 9.92 0 2.336-0.064 6.752-0.16 12.032zM316.256 138.261c-0.928-9.088-1.984-17.92-3.232-26.4-7.296 3.104-14.784 6.528-22.368 10.112 5.76 3.52 11.52 6.88 17.312 10.592 2.848 1.888 5.44 3.84 8.288 5.696zM205.984 131.381c5.856-3.584 11.68-6.816 17.536-10.208-8.256-4.16-16.32-8.032-24.224-11.584-1.344 9.024-2.496 18.464-3.488 28.192 4.448-2.816 8.192-5.184 10.176-6.4zM447.2 96.661c-5.056-8.256-16.256-12.192-32.064-12.192-18.464 0-43.392 5.632-71.808 15.616 3.392 21.952 5.504 43.392 6.752 61.696 14.304 10.56 27.52 21.248 40.032 32 45.152-40.992 68.64-78.208 57.088-97.12zM414.208 345.973c14.656 0 25.184-3.68 30.176-11.456 12-18.656-10.656-56.448-54.88-98.528-13.76 11.2-27.328 21.44-39.552 30.112-1.312 18.88-3.488 40.896-7.104 63.392 28.384 10.528 53.184 16.48 71.36 16.48zM256 437.333c20.704 0 39.072-34.592 50.784-88-16.832-7.264-34.24-15.744-52.064-25.44-17.12 8.768-33.824 16.448-49.984 23.072 11.648 54.752 30.24 90.368 51.264 90.368zM64.8 330.005c5.056 8.256 16.256 12.192 32.064 12.192 18.464 0 43.392-5.632 71.808-15.616-3.424-21.952-5.504-43.36-6.752-61.696-14.304-10.56-27.52-21.248-40.032-32-45.152 40.992-68.64 78.208-57.088 97.12zM162.016 160.597c1.312-18.88 3.488-40.896 7.104-63.392-28.352-10.528-53.152-16.48-71.328-16.48-14.656 0-25.184 3.68-30.176 11.456-12 18.656 10.656 56.448 54.88 98.528 13.728-11.2 27.296-21.472 39.52-30.112z" />
<glyph unicode="&#xe024;" glyph-name="film" d="M458.997 445.327h-405.991c-16.008 0-29-12.992-29-29v-405.991c0-16.008 12.992-29 29-29h405.991c16.008 0 29 12.992 29 29v405.991c0 16.008-12.992 29-29 29zM111.003 184.333v-58h-58v58h58zM53.003 242.333v58h58v-58h-58zM140.003 155.333h231.994v-144.997h-231.994v144.997zM371.997 184.333h-231.994v231.994h231.994v-231.994zM400.997 184.333h58v-58h-58v58zM400.997 242.333v58h58v-58h-58zM400.997 358.33v58h58v-58h-58zM111.003 358.33h-58v58h58v-58zM53.003 68.336h58v-58h-58v58zM400.997 68.336h58v-58h-58v58z" />
<glyph unicode="&#xe025;" glyph-name="table" d="M498.68 397.312c-1.337 15.657-13.983 28.82-29.882 28.82h-425.596c-15.899 0-28.545-13.163-29.883-28.82h-0.517v-396.776c0-16.781 13.619-30.399 30.399-30.399h425.596c16.781 0 30.399 13.619 30.399 30.399v396.776h-0.517zM195.201 243.733v91.198h121.597v-91.198h-121.597zM316.799 213.333v-93.722h-121.597v93.723h121.597zM164.802 334.931v-91.198h-121.597v91.198h121.597zM43.202 213.333h121.597v-93.722h-121.597v93.723zM43.202 0.535v91.198h121.597v-91.198h-121.597zM195.201 0.535v91.198h121.597v-91.198h-121.597zM468.798 0.535h-121.597v91.198h121.597v-91.198zM468.798 119.611h-121.597v93.723h121.597v-93.722zM468.798 243.733h-121.597v91.198h121.597v-91.198z" />
<glyph unicode="&#xe035;" glyph-name="tools" d="M43.848 60.577c-16.408-16.408-16.408-42.984 0-59.396 8.204-8.204 18.958-12.292 29.712-12.292s21.508 4.088 29.712 12.292l137.916 137.916-59.424 59.396-137.916-137.916zM388.539 316.189l60.012 31.056 31.476 60.796-29.32 29.32-60.796-31.476-31.056-60.012-73.144-73.144 29.684-29.684zM401.672 156.767c-1.904 0.112-3.724 0.56-5.656 0.56-10.248 0-19.967-2.1-29.040-5.46l-172.444 172.444c3.36 9.072 5.46 18.79 5.46 29.040 0 1.932-0.448 3.752-0.56 5.656-2.968 43.712-38.98 78.352-83.448 78.352-12.936 0-25.064-3.164-36.012-8.4l55.809-55.809c2.94-2.94 4.956-6.412 6.3-10.080 3.668-9.94 1.68-21.508-6.3-29.516-5.46-5.46-12.628-8.204-19.799-8.204-3.304 0-6.58 0.728-9.716 1.904-3.668 1.372-7.14 3.36-10.080 6.3l-55.809 55.809c-5.236-10.948-8.4-23.076-8.4-36.012 0-44.468 34.64-80.48 78.352-83.448 1.904-0.112 3.724-0.56 5.656-0.56 10.248 0 19.967 2.1 29.040 5.46l172.444-172.444c-3.36-9.072-5.46-18.79-5.46-29.040 0-1.932 0.448-3.752 0.56-5.656 2.968-43.712 38.98-78.352 83.448-78.352 12.936 0 25.064 3.164 36.012 8.4l-55.81 55.81c-2.94 2.94-4.956 6.412-6.3 10.080-3.668 9.94-1.68 21.508 6.3 29.516 5.46 5.46 12.628 8.204 19.799 8.204 3.304 0 6.58-0.728 9.716-1.904 3.668-1.372 7.14-3.36 10.080-6.3l55.81-55.81c5.236 10.948 8.4 23.076 8.4 36.012 0 44.468-34.64 80.48-78.352 83.448z" />
<glyph unicode="&#xe039;" glyph-name="arrow-fill-up" d="M272 437.333c-132.544 0-240-107.456-240-240s107.456-240 240-240 240 107.456 240 240-107.456 240-240 240zM379.328 218.005c-6.24-6.24-16.384-6.24-22.624 0l-68.704 68.704v-249.376c0-8.832-7.168-16-16-16s-16 7.168-16 16v249.376l-68.672-68.704c-6.24-6.24-16.384-6.24-22.624 0s-6.24 16.384 0 22.624l96 96c0.032 0.064 0.064 0.064 0.096 0.096 1.44 1.408 3.168 2.592 5.056 3.36 3.904 1.632 8.32 1.632 12.224 0 1.984-0.8 3.744-1.952 5.248-3.424l96-96c6.24-6.272 6.24-16.384 0-22.656z" />
<glyph unicode="&#xe03a;" glyph-name="arrow-fill-down" d="M272 437.333c-132.544 0-240-107.456-240-240s107.456-240 240-240 240 107.456 240 240-107.456 240-240 240zM379.328 154.005l-96-96c-1.472-1.472-3.232-2.656-5.184-3.456-3.904-1.632-8.32-1.632-12.224 0-1.92 0.8-3.616 1.952-5.056 3.36-0.032 0.032-0.096 0.032-0.128 0.096l-96 96c-6.24 6.24-6.24 16.384 0 22.624s16.384 6.24 22.624 0l68.64-68.672v249.376c0 8.832 7.168 16 16 16s16-7.168 16-16v-249.376l68.672 68.672c6.24 6.24 16.384 6.24 22.624 0 6.272-6.24 6.272-16.352 0.032-22.624z" />
<glyph unicode="&#xe03b;" glyph-name="arrow-fill-left" d="M272 437.333c-132.544 0-240-107.456-240-240s107.456-240 240-240 240 107.456 240 240-107.456 240-240 240zM448 197.333c0-8.832-7.168-16-16-16h-249.376l68.672-68.672c6.24-6.24 6.24-16.384 0-22.624s-16.384-6.24-22.624 0l-96 96c-0.032 0.032-0.064 0.096-0.096 0.16-1.408 1.44-2.56 3.136-3.328 5.024-0.8 1.952-1.248 4-1.248 6.048 0 0.032 0 0.032 0 0.064v0c0 2.080 0.416 4.16 1.248 6.112 0.768 1.888 1.92 3.584 3.328 5.024 0.064 0.064 0.064 0.128 0.128 0.192l96 96c6.24 6.24 16.384 6.24 22.624 0s6.24-16.384 0-22.624l-68.704-68.704h249.376c8.832 0 16-7.168 16-16z" />
<glyph unicode="&#xe03c;" glyph-name="arrow-fill-right" d="M272 437.333c-132.544 0-240-107.456-240-240s107.456-240 240-240 240 107.456 240 240-107.456 240-240 240zM416 197.333c0-0.032 0-0.032 0-0.064 0-2.080-0.416-4.128-1.216-6.048-0.8-1.952-1.984-3.712-3.456-5.184l-96-96c-6.24-6.24-16.384-6.24-22.624 0s-6.24 16.384 0 22.624l68.672 68.672h-249.376c-8.832 0-16 7.168-16 16s7.168 16 16 16h249.376l-68.704 68.672c-6.24 6.24-6.24 16.384 0 22.624s16.384 6.24 22.624 0l96-96c1.472-1.472 2.656-3.232 3.456-5.184 0.832-1.952 1.248-4.032 1.248-6.112v0z" />
<glyph unicode="&#xe03d;" glyph-name="arrow-fill-left-up" d="M102.304 367.029c-93.728-93.728-93.728-245.696 0-339.424s245.696-93.728 339.424 0c93.728 93.728 93.728 245.696 0 339.424-93.76 93.728-245.696 93.728-339.424 0zM390.976 78.357c-6.24-6.24-16.384-6.24-22.624 0l-176.352 176.352v-97.152c0-8.832-7.168-16-16-16s-16 7.168-16 16v135.776c0 2.080 0.416 4.16 1.248 6.112 0.768 1.888 1.92 3.584 3.328 5.024 0.064 0.064 0.064 0.128 0.128 0.192 0.032 0.032 0.064 0.032 0.096 0.064 1.44 1.408 3.168 2.592 5.056 3.36 1.984 0.832 4.064 1.248 6.144 1.248h135.776c8.832 0 16-7.168 16-16s-7.168-16-16-16h-97.152l176.32-176.32c6.272-6.272 6.272-16.384 0.032-22.656z" />
<glyph unicode="&#xe03e;" glyph-name="arrow-fill-right-up" d="M102.304 367.029c-93.728-93.728-93.728-245.696 0-339.424s245.696-93.728 339.424 0c93.728 93.728 93.728 245.696 0 339.424-93.76 93.728-245.696 93.728-339.424 0zM384 293.333v-135.776c0-8.832-7.168-16-16-16s-16 7.168-16 16v97.152l-176.32-176.32c-6.24-6.24-16.384-6.24-22.624 0s-6.24 16.384 0 22.624l176.32 176.32h-97.152c-8.832 0-16 7.168-16 16s7.168 16 16 16h135.776c2.080 0 4.16-0.416 6.112-1.248 3.904-1.632 7.040-4.736 8.64-8.64 0.832-1.952 1.248-4.032 1.248-6.112v0z" />
<glyph unicode="&#xe03f;" glyph-name="arrow-fill-right-down" d="M102.304 367.029c-93.728-93.728-93.728-245.696 0-339.424s245.696-93.728 339.424 0c93.728 93.728 93.728 245.696 0 339.424-93.76 93.728-245.696 93.728-339.424 0zM384 101.333c0-0.032 0-0.032 0-0.064 0-2.080-0.416-4.128-1.216-6.048-1.632-3.904-4.736-7.040-8.64-8.64-1.984-0.832-4.064-1.248-6.144-1.248h-135.776c-8.832 0-16 7.168-16 16s7.168 16 16 16h97.152l-176.32 176.32c-6.24 6.24-6.24 16.384 0 22.624s16.384 6.24 22.624 0l176.32-176.32v97.152c0 8.832 7.168 16 16 16s16-7.168 16-16v-135.776z" />
<glyph unicode="&#xe040;" glyph-name="arrow-fill-left-down" d="M102.304 367.029c-93.728-93.728-93.728-245.696 0-339.424s245.696-93.728 339.424 0c93.728 93.728 93.728 245.696 0 339.424-93.76 93.728-245.696 93.728-339.424 0zM390.976 293.653l-176.352-176.32h97.152c8.832 0 16-7.168 16-16s-7.168-16-16-16h-135.776c-2.080 0-4.16 0.416-6.112 1.248-1.92 0.8-3.616 1.952-5.056 3.36-0.032 0.032-0.096 0.032-0.128 0.096-0.064 0.064-0.064 0.128-0.128 0.192-1.408 1.44-2.56 3.136-3.328 5.024-0.8 1.92-1.248 3.968-1.248 6.016 0 0.032 0 0.032 0 0.064v135.776c0 8.832 7.168 16 16 16s16-7.168 16-16v-97.152l176.32 176.32c6.24 6.24 16.384 6.24 22.624 0s6.272-16.352 0.032-22.624z" />
<glyph unicode="&#xe043;" glyph-name="caret-fill-up" d="M272-42.667c132.544 0 240 107.456 240 240s-107.456 240-240 240-240-107.456-240-240 107.456-240 240-240zM156.864 168.757l103.776 103.776c3.136 3.136 7.232 4.672 11.36 4.672s8.224-1.536 11.36-4.672l103.776-103.776c6.24-6.24 6.24-16.384 0-22.624s-16.384-6.24-22.624 0l-92.512 92.512-92.512-92.512c-6.24-6.24-16.384-6.24-22.624 0s-6.24 16.384 0 22.624z" />
<glyph unicode="&#xe044;" glyph-name="caret-fill-down" d="M272 437.333c-132.544 0-240-107.456-240-240s107.456-240 240-240 240 107.456 240 240-107.456 240-240 240zM387.136 225.909l-103.776-103.776c-3.136-3.136-7.264-4.704-11.36-4.672-4.128 0-8.224 1.536-11.36 4.672l-103.776 103.776c-6.24 6.24-6.24 16.384 0 22.624s16.384 6.24 22.624 0l92.512-92.512 92.512 92.512c6.24 6.24 16.384 6.24 22.624 0s6.24-16.384 0-22.624z" />
<glyph unicode="&#xe045;" glyph-name="caret-fill-left" d="M272 437.333c-132.544 0-240-107.456-240-240s107.456-240 240-240 240 107.456 240 240-107.456 240-240 240zM323.2 104.821c6.24-6.24 6.24-16.384 0-22.624s-16.384-6.24-22.624 0l-103.776 103.776c-3.136 3.136-4.672 7.232-4.672 11.36s1.536 8.224 4.672 11.36l103.776 103.776c6.24 6.24 16.384 6.24 22.624 0s6.24-16.384 0-22.624l-92.512-92.512 92.512-92.512z" />
<glyph unicode="&#xe046;" glyph-name="caret-fill-right" d="M272 437.333c-132.544 0-240-107.456-240-240s107.456-240 240-240 240 107.456 240 240-107.456 240-240 240zM347.2 185.973l-103.776-103.776c-6.24-6.24-16.384-6.24-22.624 0s-6.24 16.384 0 22.624l92.512 92.512-92.512 92.512c-6.24 6.24-6.24 16.384 0 22.624s16.384 6.24 22.624 0l103.776-103.776c3.136-3.136 4.704-7.264 4.672-11.36 0-4.128-1.536-8.224-4.672-11.36z" />
<glyph unicode="&#xe047;" glyph-name="caret-fill-two-up" d="M272 437.333c-132.544 0-240-107.456-240-240s107.456-240 240-240 240 107.456 240 240-107.456 240-240 240zM391.232 88.405c-6.272-6.272-16.48-6.272-22.752 0l-95.872 84.8-95.872-84.8c-6.272-6.272-16.48-6.272-22.752 0s-6.272 16.48 0 22.752l107.040 94.688c3.2 3.2 7.392 4.736 11.584 4.672 4.192 0.096 8.384-1.44 11.584-4.64l107.040-94.688c6.304-6.304 6.304-16.48 0-22.784zM391.232 203.157c-6.272-6.272-16.48-6.272-22.752 0l-95.904 84.832-95.872-84.832c-6.272-6.272-16.48-6.272-22.752 0s-6.272 16.48 0 22.752l107.040 94.688c3.2 3.2 7.392 4.736 11.584 4.672 4.224 0.096 8.416-1.44 11.616-4.64l107.040-94.688c6.304-6.304 6.304-16.48 0-22.784z" />
<glyph unicode="&#xe048;" glyph-name="caret-fill-two-down" d="M273.056 435.189c-131.968 0-238.944-106.976-238.944-238.944s107.008-238.912 238.944-238.912 238.944 106.976 238.944 238.944-106.976 238.912-238.944 238.912zM390.048 168.725l-107.040-94.688c-3.2-3.2-7.392-4.736-11.584-4.672-4.224-0.032-8.416 1.472-11.616 4.672l-107.040 94.688c-6.272 6.272-6.272 16.48 0 22.752s16.48 6.272 22.752 0l95.872-84.8 95.872 84.8c6.272 6.272 16.48 6.272 22.752 0s6.336-16.448 0.032-22.752zM390.048 283.477l-107.040-94.688c-3.2-3.2-7.392-4.736-11.584-4.672-4.224-0.032-8.416 1.472-11.616 4.672l-107.040 94.688c-6.272 6.272-6.272 16.48 0 22.752 6.272 6.304 16.48 6.304 22.752 0.032l95.872-84.8 95.872 84.8c6.272 6.272 16.48 6.272 22.752 0s6.336-16.48 0.032-22.784z" />
<glyph unicode="&#xe049;" glyph-name="caret-fill-two-left" d="M273.152 435.061c-131.904 0-238.848-106.944-238.848-238.848-0.032-131.936 106.912-238.88 238.848-238.88 131.904 0 238.848 106.944 238.848 238.848 0 131.936-106.944 238.88-238.848 238.88zM266.176 79.285c-6.272-6.272-16.48-6.272-22.752 0l-94.72 107.040c-3.2 3.2-4.736 7.424-4.672 11.616-0.032 4.192 1.472 8.384 4.672 11.584l94.688 107.040c6.272 6.272 16.48 6.272 22.752 0s6.272-16.48 0-22.752l-84.8-95.872 84.8-95.872c6.304-6.304 6.304-16.512 0.032-22.784zM380.928 102.037c6.272-6.272 6.272-16.48 0-22.752s-16.48-6.272-22.752 0l-94.72 107.040c-3.2 3.2-4.736 7.424-4.672 11.616-0.032 4.192 1.472 8.384 4.672 11.584l94.688 107.040c6.272 6.272 16.48 6.272 22.752 0s6.272-16.48 0-22.752l-84.8-95.872 84.832-95.904z" />
<glyph unicode="&#xe04a;" glyph-name="caret-fill-two-right" d="M273.152 435.029c-131.904 0-238.848-106.944-238.848-238.848s106.944-238.848 238.848-238.848 238.848 106.944 238.848 238.848-106.944 238.848-238.848 238.848zM163.072 78.101c-6.272 6.272-6.272 16.48 0 22.752l84.8 95.872-84.8 95.872c-6.272 6.304-6.272 16.512 0 22.784s16.48 6.272 22.752 0l94.688-107.040c3.2-3.2 4.736-7.392 4.672-11.584 0.096-4.224-1.44-8.416-4.64-11.616l-94.688-107.040c-6.304-6.304-16.48-6.304-22.784 0zM395.296 185.141l-94.688-107.040c-6.272-6.272-16.48-6.272-22.752 0s-6.272 16.48 0 22.752l84.8 95.872-84.8 95.872c-6.272 6.272-6.272 16.48 0 22.752s16.48 6.272 22.752 0l94.688-107.040c3.2-3.2 4.736-7.392 4.672-11.584 0.032-4.192-1.472-8.384-4.672-11.584z" />
<glyph unicode="&#xe04b;" glyph-name="arrow-up" d="M272 437.333c-132.544 0-240-107.456-240-240s107.456-240 240-240 240 107.456 240 240-107.456 240-240 240zM379.584 154.901l-0.064 0.064c-2.528-3.424-6.080-5.632-10.080-5.632h-195.52c-3.936 0-7.456 2.080-9.984 5.408-0.032 0.064-0.096 0.096-0.16 0.16-5.44 6.944-5.44 18.208 0 25.152l97.76 123.424c0.128 0.192 0.192 0.448 0.352 0.64 5.44 6.944 14.304 6.944 19.744 0l97.984-124.064c5.44-6.944 5.44-18.208-0.032-25.152z" />
<glyph unicode="&#xe04c;" glyph-name="arrow-down" d="M272 437.333c-132.544 0-240-107.456-240-240s107.456-240 240-240 240 107.456 240 240-107.456 240-240 240zM379.584 214.613l-97.76-123.424c-0.128-0.192-0.192-0.448-0.352-0.64-5.44-6.944-14.304-6.944-19.744 0l-97.952 124.064c-5.44 6.944-5.44 18.208 0 25.152l0.064-0.064c2.528 3.424 6.080 5.632 10.080 5.632h195.52c3.936 0 7.456-2.080 9.984-5.408 0.064-0.064 0.128-0.064 0.16-0.128 5.472-6.976 5.472-18.24 0-25.184z" />
<glyph unicode="&#xe04d;" glyph-name="arrow-left" d="M272 437.333c-132.544 0-240-107.456-240-240s107.456-240 240-240 240 107.456 240 240-107.456 240-240 240zM320 99.893c0-3.936-2.080-7.456-5.408-9.984-0.064-0.064-0.064-0.128-0.128-0.16-6.944-5.44-18.208-5.44-25.152 0l-123.456 97.728c-0.192 0.16-0.448 0.192-0.64 0.352-6.944 5.44-6.944 14.304 0 19.744l124.064 97.984c6.944 5.44 18.208 5.44 25.152 0l-0.064-0.064c3.424-2.528 5.632-6.080 5.632-10.080v-195.52z" />
<glyph unicode="&#xe04e;" glyph-name="arrow-right" d="M272 437.333c-132.544 0-240-107.456-240-240s107.456-240 240-240 240 107.456 240 240-107.456 240-240 240zM378.784 187.733l-124.064-97.984c-6.944-5.44-18.208-5.44-25.152 0l0.064 0.064c-3.424 2.528-5.632 6.080-5.632 10.080v195.52c0 3.936 2.080 7.456 5.408 9.984 0.064 0.032 0.096 0.096 0.16 0.16 6.944 5.44 18.208 5.44 25.152 0l123.424-97.76c0.192-0.16 0.448-0.192 0.64-0.352 6.944-5.44 6.944-14.272 0-19.712z" />
<glyph unicode="&#xe04f;" glyph-name="minus-fill" d="M271.733 433.599c-130.334 0-235.999-105.664-235.999-235.999s105.665-235.999 235.999-235.999 235.999 105.664 235.999 235.999-105.664 235.999-235.999 235.999zM397.599 181.867h-251.732c-8.685 0-15.733 7.048-15.733 15.733s7.048 15.733 15.733 15.733h251.732c8.685 0 15.733-7.048 15.733-15.733s-7.048-15.733-15.733-15.733z" />
<glyph unicode="&#xe050;" glyph-name="plus-fill" d="M271.733 433.599c-130.334 0-235.999-105.664-235.999-235.999s105.665-235.999 235.999-235.999 235.999 105.664 235.999 235.999-105.664 235.999-235.999 235.999zM397.599 181.867h-110.133v-110.133c0-8.685-7.048-15.733-15.733-15.733s-15.733 7.048-15.733 15.733v110.133h-110.133c-8.685 0-15.733 7.048-15.733 15.733s7.048 15.733 15.733 15.733h110.133v110.133c0 8.685 7.048 15.734 15.733 15.734s15.733-7.048 15.733-15.734v-110.133h110.133c8.685 0 15.733-7.048 15.733-15.733s-7.048-15.733-15.733-15.733z" />
<glyph unicode="&#xe051;" glyph-name="close-fill" d="M271.733 433.599c-130.334 0-235.999-105.664-235.999-235.999s105.665-235.999 235.999-235.999 235.999 105.664 235.999 235.999-105.664 235.999-235.999 235.999zM381.079 284.699l-87.697-87.698 77.596-86.501c6.136-6.136 6.136-16.111 0-22.247s-16.111-6.136-22.247 0l-77.596 86.502-86.501-86.501c-6.136-6.136-16.111-6.136-22.247 0s-6.136 16.111 0 22.247l87.697 87.697-77.596 86.502c-6.136 6.136-6.136 16.111 0 22.247s16.111 6.136 22.247 0l77.596-86.502 86.501 86.502c6.136 6.136 16.111 6.136 22.247 0s6.136-16.111 0-22.247z" />
<glyph unicode="&#xe052;" glyph-name="check-fill" d="M257.302 461.331c-136.957 0-247.998-111.041-247.998-247.998s111.041-247.998 247.998-247.998 247.998 111.041 247.998 247.998-111.041 247.998-247.998 247.998zM372.187 281.936l-118.791-181.566c-0.031-0.031-0.093-0.062-0.093-0.093-0.62-0.93-0.961-1.984-1.736-2.852-1.085-1.178-2.48-1.798-3.72-2.697-0.31-0.217-0.62-0.465-0.961-0.682-1.922-1.209-3.906-2.015-6.076-2.542-0.713-0.186-1.364-0.372-2.108-0.496-1.767-0.248-3.441-0.248-5.208-0.062-1.24 0.093-2.418 0.248-3.627 0.558-1.24 0.341-2.387 0.868-3.565 1.426-0.992 0.465-2.046 0.589-2.976 1.178-0.682 0.434-1.054 1.116-1.643 1.643-0.248 0.217-0.558 0.279-0.806 0.496l-69.161 63.953c-8.804 8.153-9.331 21.886-1.209 30.659s21.855 9.331 30.659 1.209l50.065-46.314 104.624 159.928c6.572 10.013 19.995 12.834 30.039 6.293 10.044-6.572 12.865-20.026 6.293-30.039z" />
<glyph unicode="&#xe05c;" glyph-name="folder" d="M467.997 425.33h-151.428c-16.718 0-30.286-13.568-30.286-30.285 0 0-3.937-27.772-30.286-30.286h-211.997c-16.718 0-30.285-13.083-30.285-29.8v-30.771h484.567v90.856c0 16.718-13.568 30.286-30.286 30.286zM13.717 31.621c0-16.717 13.568-30.286 30.285-30.286h423.995c16.718 0 30.286 13.568 30.286 30.286v242.283h-484.567v-242.283z" />
<glyph unicode="&#xe062;" glyph-name="warning-fill" d="M367.816 452.248c-5.828 5.828-13.702 9.083-21.948 9.083h-179.737c-8.215 0-16.12-3.255-21.917-9.083l-127.099-127.13c-5.859-5.797-9.114-13.671-9.114-21.917v-179.768c0-8.215 3.255-16.12 9.083-21.917l127.099-127.13c5.828-5.797 13.702-9.052 21.948-9.052h179.768c8.215 0 16.12 3.255 21.917 9.083l127.099 127.13c5.828 5.797 9.083 13.671 9.083 21.917v179.737c0 8.215-3.255 16.12-9.083 21.917l-127.099 127.13zM256 151.333c-17.112 0-31 13.888-31 31v185.999c0 17.112 13.888 31 31 31s31-13.888 31-31v-185.999c0-17.112-13.888-31-31-31zM287 58.334c0-17.112-13.888-31-31-31s-31 13.888-31 31c0 17.112 13.888 31 31 31s31-13.888 31-31z" />
<glyph unicode="&#xe063;" glyph-name="warning-triangle" d="M40.427-3.199h430.156c10.858 0 20.942 5.692 26.541 15.034 5.599 9.311 5.877 20.88 0.773 30.469l-214.614 402.131c-5.351 10.053-15.838 16.364-27.252 16.364h-0.031c-11.414 0-21.87-6.279-27.252-16.333l-215.573-402.131c-5.135-9.589-4.857-21.158 0.711-30.5 5.599-9.311 15.683-15.034 26.541-15.034zM256 120.534c17.075 0 30.933-13.858 30.933-30.933s-13.858-30.933-30.933-30.933-30.933 13.858-30.933 30.933c0 17.075 13.858 30.933 30.933 30.933zM225.067 181.905v123.733c0 17.075 13.858 30.933 30.933 30.933s30.933-13.858 30.933-30.933v-123.733c0-17.075-13.858-30.933-30.933-30.933s-30.933 13.858-30.933 30.933z" />
<glyph unicode="&#xe064;" glyph-name="question-fill" d="M256-34.665c136.957 0 247.998 111.041 247.998 247.998s-111.041 247.998-247.998 247.998-247.998-111.041-247.998-247.998 111.041-247.998 247.998-247.998zM256 399.332c61.721 0 123.999-35.34 123.999-114.327 0-45.973-22.785-81.87-67.704-106.577-13.020-7.161-25.296-21.328-25.296-27.094 0-17.112-13.888-31-31-31s-31 13.888-31 31c0 39.339 36.084 69.688 57.412 81.405 31.341 17.298 35.588 36.146 35.588 52.266 0 45.539-38.843 52.328-62 52.328-29.853 0-62-19.592-62-62.651 0-17.112-13.888-31-31-31s-31 13.888-31 31c0 80.971 63.891 124.65 123.999 124.65zM256 25.97c-17.639 0-31.93 14.291-31.93 31.93s14.291 31.93 31.93 31.93 31.93-14.291 31.93-31.93-14.291-31.93-31.93-31.93z" />
<glyph unicode="&#xe069;" glyph-name="volume" d="M42.485 87.451h70.002c5.52-5.49 132.714-112.553 132.714-112.553 7.655-4.636 14.153-5.978 19.705-5.459 11.286 1.067 19.216 10.524 21.626 20.498 0.122 0.976 0.122 445.821-0.031 446.797-2.379 10.005-10.341 19.461-21.596 20.528-5.551 0.519-12.049-0.824-19.704-5.459 0 0-127.194-110.966-132.714-116.458h-70.002c-16.837 0-30.502-13.665-30.502-30.502v-186.887c0-16.868 13.665-30.502 30.502-30.502zM333.507 160.045c-7.534-3.813-10.554-12.964-6.771-20.498 2.684-5.307 8.052-8.387 13.604-8.387 2.318 0 4.636 0.519 6.863 1.616 30.838 15.557 49.993 46.394 49.993 80.557s-19.156 65-49.993 80.557c-7.534 3.813-16.654 0.762-20.467-6.771-3.782-7.534-0.762-16.685 6.771-20.497 20.467-10.31 33.187-30.716 33.187-53.288s-12.72-42.978-33.187-53.288zM312.521 38.28c1.433-7.289 7.808-12.324 14.947-12.324 0.976 0 1.952 0.091 2.959 0.274 89.432 17.447 154.342 96.144 154.342 187.101s-64.909 169.653-154.373 187.101c-8.144 1.647-16.288-3.782-17.875-12.049-1.616-8.265 3.782-16.288 12.049-17.905 75.158-14.642 129.695-80.74 129.695-157.148s-54.538-142.506-129.695-157.148c-8.265-1.616-13.666-9.638-12.049-17.905z" />
<glyph unicode="&#xe06a;" glyph-name="quote-fill" d="M256 461.331c-136.957 0-247.998-111.041-247.998-247.998s111.041-247.998 247.998-247.998 247.998 111.041 247.998 247.998-111.041 247.998-247.998 247.998zM380.402 217.859c-1.922-31.806-16.275-79.421-73.718-125.766-2.759-2.201-5.983-3.286-9.207-3.286-4.495 0-8.928 2.077-11.873 6.045-5.084 6.82-3.906 16.616 2.666 21.886 46.779 37.727 59.582 74.679 61.845 100.036-6.603-3.844-14.074-6.2-22.165-6.2-25.234 0-45.663 21.235-45.663 47.43s20.429 47.43 45.663 47.43c5.704 0 10.943-1.488 15.934-3.503l-0.186 0.372c0 0 2.201-0.806 5.27-2.511 0.155-0.093 0.31-0.124 0.465-0.186 0.093-0.062 0.155-0.124 0.248-0.186 2.108-1.209 4.526-2.821 7.223-5.115 1.147-0.992 2.108-2.139 3.162-3.224 11.253-11.191 23.591-32.55 20.336-73.222zM177.632 210.574c-25.234 0-45.663 21.235-45.663 47.43s20.46 47.43 45.663 47.43c5.704 0 10.943-1.488 15.934-3.503l-0.155 0.372c0 0 2.201-0.806 5.27-2.511 0.155-0.093 0.31-0.124 0.465-0.186 0.093-0.062 0.155-0.124 0.248-0.186 2.108-1.209 4.526-2.821 7.223-5.115 1.147-0.992 2.108-2.139 3.162-3.224 11.253-11.191 23.622-32.55 20.336-73.253-1.922-31.806-16.275-79.421-73.718-125.766-2.759-2.201-5.983-3.286-9.207-3.286-4.495 0-8.928 2.077-11.873 6.045-5.084 6.82-3.906 16.616 2.666 21.886 46.779 37.727 59.582 74.679 61.845 100.036-6.634-3.782-14.105-6.169-22.196-6.169z" />
<glyph unicode="&#xe072;" glyph-name="lightbulb" d="M401.243 237.73c1.964 5.22 3.566 10.648 4.962 16.075 0.258 0.93 0.569 1.809 0.775 2.739 1.241 5.117 2.119 10.286 2.843 15.558 0.155 1.189 0.465 2.429 0.62 3.618 0.724 6.358 1.137 12.767 1.137 19.28 0 91.177-74.017 165.35-164.936 165.35s-164.936-74.172-164.936-165.35c0-6.461 0.414-12.922 1.189-19.228 0.155-1.241 0.414-2.429 0.569-3.618 0.724-5.22 1.602-10.441 2.843-15.558 0.207-0.93 0.517-1.861 0.775-2.739 1.396-5.427 3.050-10.854 4.962-16.075 0.207-0.517 0.414-0.982 0.569-1.499 2.171-5.634 4.6-11.165 7.391-16.54 0.103-0.207 0.207-0.414 0.31-0.62 2.895-5.582 6.099-10.958 9.614-16.178 0.103-0.155 0.207-0.31 0.31-0.465 3.411-5.117 7.185-9.976 11.165-14.679 0.31-0.362 0.62-0.724 0.982-1.137 3.618-4.238 7.546-8.218 11.63-12.095 0.93-0.879 1.757-1.706 2.688-2.533 1.189-1.085 2.274-2.274 3.566-3.36 0.724-0.62 1.654-1.034 2.481-1.551 2.739-2.274 5.324-4.652 8.218-6.719 1.137-0.827 1.861-1.602 2.843-2.429 18.969-15.765 9.717-45.33 30.806-45.33 2.946 0 96.45 0 124.154 0 21.089 0 11.837 29.565 30.858 45.33 0.982 0.827 1.706 1.602 2.843 2.429 2.895 2.119 5.479 4.445 8.218 6.719 0.775 0.569 1.706 0.93 2.481 1.551 1.241 1.034 2.326 2.274 3.566 3.36 0.93 0.827 1.809 1.706 2.688 2.533 4.083 3.877 7.96 7.857 11.63 12.095 0.31 0.362 0.62 0.724 0.982 1.137 3.98 4.704 7.701 9.614 11.165 14.679 0.103 0.155 0.207 0.31 0.31 0.465 3.515 5.22 6.668 10.596 9.562 16.178 0.103 0.207 0.207 0.414 0.31 0.62 2.791 5.376 5.22 10.906 7.391 16.54 0.052 0.517 0.258 0.982 0.465 1.447v0zM338.701 299.859c-7.185 0-13.025 5.841-13.025 13.025 0 39.645-35.768 66.316-65.075 66.316-7.185 0-13.025 5.841-13.025 13.025s5.841 13.025 13.025 13.025c44.762 0 91.126-32.977 91.126-92.315-0.052-7.236-5.841-13.077-13.025-13.077zM245.094-2.878h-57.219l46.933-23.983c3.722-1.912 7.805-2.843 11.837-2.843s8.063 0.93 11.733 2.791l47.605 24.087-60.888-0.052zM325.675 33.356c0 7.185-5.841 13.025-13.025 13.025h-130.15c-7.185 0-13.025-5.841-13.025-13.025s5.841-13.025 13.025-13.025h130.15c7.185 0 13.025 5.841 13.025 13.025zM325.675 80.133c0 7.185-5.841 13.025-13.025 13.025h-130.15c-7.185 0-13.025-5.841-13.025-13.025s5.841-13.025 13.025-13.025h130.15c7.185 0 13.025 5.841 13.025 13.025z" />
<glyph unicode="&#xe07c;" glyph-name="tags" d="M455.137 457.336c-0.274 0-0.549 0-0.824 0-0.244 0-0.457 0.030-0.702 0h-161.255c-4.666-0.244-15.281-7.534-16.653-8.906l-194.136-194.105c-11.895-11.895-11.895-31.171 0-43.066l24.217-24.217-24.217-24.217c-11.895-11.895-11.895-31.171 0-43.066l141.704-141.704c5.947-5.947 13.725-8.906 21.533-8.906s15.586 2.959 21.533 8.906l194.105 194.136c1.403 1.373 9.058 10.767 9.058 16.623v253.367c0.427 8.51-6.009 15.159-14.365 15.159zM423.752 426.958c8.418 0 15.25-6.832 15.25-15.25s-6.832-15.25-15.25-15.25-15.25 6.832-15.25 15.25 6.832 15.25 15.25 15.25zM438.91 193.722l-194.044-194.135-141.704 141.644 24.217 24.217 95.924-95.924c5.947-5.947 13.725-8.906 21.533-8.906s15.586 2.959 21.533 8.906l172.631 172.662v-48.221c-0.091-0.152-0.152-0.244-0.091-0.244-0.031 0-0.031 0 0 0z" />
<glyph unicode="&#xe07f;" glyph-name="mic" d="M224 56.405v-67.072h-48c-8.832 0-16-7.168-16-16s7.168-16 16-16h160c8.832 0 16 7.168 16 16s-7.168 16-16 16h-48v67.264c66.656 13.152 128 67.104 128 156.736v48c0 8.832-7.168 16-16 16s-16-7.168-16-16v-48c0-84.032-64.416-128-128-128-61.664 0-128 40.064-128 128v48c0 8.832-7.168 16-16 16s-16-7.168-16-16v-48c0-90.88 60.256-144.192 128-156.928zM256 149.333c35.36 0 64 28.64 64 64v192c0 35.36-28.64 64-64 64s-64-28.64-64-64v-192c0-35.36 28.64-64 64-64z" />
<glyph unicode="&#xe081;" glyph-name="location" d="M244.352-33.995c2.688-2.976 5.28-4.896 7.776-6.24 0.032-0.032 0.096-0.032 0.128-0.064 1.728-0.896 3.424-1.568 5.024-1.568s3.296 0.672 5.024 1.568c0.032 0.032 0.096 0.032 0.128 0.064 2.496 1.344 5.088 3.264 7.776 6.24 0 0 148.736 161.76 163.68 301.92 0.896 7.232 1.504 14.56 1.504 22.016 0 99.072-80.32 179.392-179.392 179.392s-179.392-80.32-179.392-179.392c0-7.584 0.608-14.976 1.536-22.304 15.328-140.096 166.208-301.632 166.208-301.632zM256 405.333c63.616 0 115.392-51.776 115.392-115.392s-51.776-115.392-115.392-115.392-115.392 51.776-115.392 115.392c0 63.616 51.776 115.392 115.392 115.392z" />
<glyph unicode="&#xe082;" glyph-name="pushpin" d="M128 157.109c0-24.544 61.76-37.568 128.032-39.392 0-0.128-0.032-0.256-0.032-0.384v-96c0-17.664 7.168-64 16-64s16 46.336 16 64v96c0 0.128-0.032 0.256-0.032 0.384 66.272 1.824 128.032 14.848 128.032 39.392 0 26.048-23.584 45.056-64 55.296v165.728c40.416 13.696 64 35.744 64 51.424 0 53.024-288 53.024-288 0 0-17.248 23.584-38.816 64-52v-165.152c-40.416-10.272-64-29.248-64-55.296z" />
<glyph unicode="&#xe083;" glyph-name="map" d="M157.963 382.296l-133.964 63.038v-397.717l133.964-63.038zM191.106-14.957l131.876 59.426v397.717l-131.876-59.426zM356.125 43.773l131.876-62.442v397.717l-131.876 62.442z" />
<glyph unicode="&#xe084;" glyph-name="drawer" d="M448 405.333c-8.992 20-25.312 32-43.008 32h-300.992c-17.664 0-32-12-40-32l-64-256v-144.512c0-8.832 7.168-16 16-16h480c8.832 0 16 7.168 16 16v142.528l-0.416 1.472-63.584 256.512zM94.24 394.677c1.472 3.296 5.216 10.656 9.76 10.656h300.992c4.384 0 9.44-4.512 12.992-11.392l56.352-229.024c0-0.064-0.096 0-0.096-0.064 0-8.832-7.168-16-16-16-0.032 0-0.032-0.032-0.064-0.032h-122.176c-8.832 0-16-7.168-16-16v-31.488c0-8.832-7.168-16-16-16-0.32 0-0.64-0.416-0.96-0.512h-94.496c-0.224 0.096-0.224 0.512-0.544 0.512-8.832 0-16 7.168-16 16v31.488c0 8.832-7.168 16-16 16h-122.176c-0.032 0-0.032 0.032-0.064 0.032-8.832 0-16.256 7.168-16.256 16 0 0.224-0.256 0.064-0.32 0.224l57.056 229.6z" />
<glyph unicode="&#xe086;" glyph-name="book" d="M86.152-34.665h293.103c17.112 0 31 13.888 31 31v325.498c0 8.556-6.944 15.5-15.5 15.5 0 0 0 0 0 0h-262.754c-0.775 0-2.294-0.124-3.751-0.217l-42.098 0.217c-26.009 0-47.151 19.871-47.151 45.849 0 26.009 20.491 47.151 46.5 47.151h356.498v-356.498c0-8.556 6.2-15.5 14.787-15.5s16.213 6.944 16.213 15.5v371.998c0 8.556-7.657 15.5-16.213 15.5h-370.634c-42.78 0-77.407-34.379-78.027-77.004l-0.124 0.155v-340.998c0-43.152 34.999-78.15 78.15-78.15z" />
<glyph unicode="&#xe087;" glyph-name="contacts" d="M46.002 453.329c-16.56 0-30-13.44-30-30v-419.994c0-16.56 13.44-30 30-30h30v479.994h-30zM405.998 453.329h-299.996v-479.994h299.996c16.56 0 30 13.44 30 30v419.994c0 16.56-13.44 30-30 30zM269.35 337.711c25.080 0 45.39-20.34 45.39-45.39 0-25.080-20.34-45.42-45.39-45.42-25.080 0-45.42 20.34-45.42 45.42s20.34 45.39 45.42 45.39zM196 129.125c0 55.020 33.27 99.598 74.279 99.598s74.279-44.61 74.279-99.598-148.558-54.99-148.558 0zM465.998 423.331h30v-89.998h-30zM465.998 303.331h30v-89.998h-30zM465.998 183.333h30v-89.998h-30z" />
<glyph unicode="&#xe088;" glyph-name="archive" d="M480 405.333h-448c-17.664 0-32-14.336-32-32v-64h512v64c0 17.664-14.336 32-32 32zM32-10.667c0-17.664 14.336-32 32-32h384c17.664 0 32 14.336 32 32v288h-448v-288zM192 213.333h128c17.664 0 32-14.336 32-32s-14.336-32-32-32h-128c-17.664 0-32 14.336-32 32s14.336 32 32 32z" />
<glyph unicode="&#xe08c;" glyph-name="grid" d="M89.332 246.667h100.001c18.4 0 33.334 14.933 33.334 33.334v100.001c0 18.4-14.933 33.334-33.334 33.334h-100.001c-18.4 0-33.334-14.933-33.334-33.334v-100.001c0-18.4 14.933-33.334 33.334-33.334zM322.667 246.667h100.001c18.4 0 33.334 14.933 33.334 33.334v100.001c0 18.4-14.933 33.334-33.334 33.334h-100.001c-18.4 0-33.334-14.933-33.334-33.334v-100.001c0-18.4 14.933-33.334 33.334-33.334zM55.998 46.665c0-18.4 14.933-33.334 33.334-33.334h100.001c18.4 0 33.334 14.933 33.334 33.334v100.001c0 18.4-14.933 33.334-33.334 33.334h-100.001c-18.4 0-33.334-14.933-33.334-33.334v-100.001zM289.334 46.665c0-18.4 14.933-33.334 33.334-33.334h100.001c18.4 0 33.334 14.933 33.334 33.334v100.001c0 18.4-14.933 33.334-33.334 33.334h-100.001c-18.4 0-33.334-14.933-33.334-33.334v-100.001z" />
<glyph unicode="&#xe08e;" glyph-name="music" d="M27.616-3.843c22.474-29.176 68.896-31.068 103.69-4.266 14.152 10.906 23.948 24.908 29.386 39.602 3.124 6.19 5.168 14.964 5.168 24.998v224.538l270.42 51.11v-118.564c0-41.824-32-51.44-43.328-53.574-0.992-0.12-1.954-0.36-2.944-0.54-0.51-0.060-1.262-0.15-1.262-0.15l0.18-0.060c-13.4-2.434-26.892-8.052-39-17.366-34.794-26.802-44.8-72.172-22.324-101.348s68.896-31.098 103.69-4.296c17.608 13.582 28.814 31.91 32.72 50.478 1.352 4.507 2.314 9.464 2.314 15.084v291.632c0 1.832-0.36 3.396-0.51 5.138 0.060 0.902 0.51 1.923 0.51 2.824v30.046c0 16.586-13.46 25.96-30.046 20.882l-270.42-51.11c-16.586-5.048-30.046-22.626-30.046-39.21v-30.046c0-0.42 0.21-0.722 0.24-1.112-0.030-0.902-0.24-1.682-0.24-2.584v-159.066c0-41.885-32.090-51.47-43.388-53.574-0.57-0.090-1.142-0.27-1.742-0.36-1.472-0.24-2.434-0.33-2.434-0.33l0.33-0.15c-13.28-2.494-26.652-8.052-38.64-17.276-34.794-26.802-44.77-72.172-22.324-101.348z" />
<glyph unicode="&#xe0d8;" glyph-name="wallet" d="M345.299 124.034v89.299c0 16.431 13.336 29.766 29.766 29.766h89.299v59.532c0 16.431-13.336 29.766-29.766 29.766h-34.172l-14.526 86.292c-0.654 3.93-2.888 7.442-6.132 9.704-3.274 2.292-7.352 3.096-11.252 2.47l-293.824-54.056c-3.9-0.714-7.382-2.976-9.614-6.28s-3.066-7.352-2.262-11.282l5.328-26.85h-20.509c-16.431 0-29.766-13.336-29.766-29.766v-267.897c0-16.431 13.336-29.766 29.766-29.766h386.962c16.431 0 29.766 13.336 29.766 29.766v59.532h-89.299c-16.431 0-29.766 13.336-29.766 29.766zM94.934 350.259l264.116 48.608 11.192-66.468h-271.766l-3.542 17.86zM479.248 213.333h-104.182v-89.299h104.182c8.216 0 14.884 6.668 14.884 14.884v59.532c0 8.216-6.668 14.884-14.884 14.884zM419.714 153.801c-8.216 0-14.884 6.668-14.884 14.884s6.668 14.884 14.884 14.884 14.884-6.668 14.884-14.884c0-8.216-6.668-14.884-14.884-14.884z" />
<glyph unicode="&#xe0df;" glyph-name="flowchart" d="M480 149.333v64c0 17.664-14.336 32-32 32h-160v64h96c17.664 0 32 14.336 32 32v32c0 17.664-14.336 32-32 32h-224c-17.664 0-32-14.336-32-32v-32c0-17.664 14.336-32 32-32h96v-64h-160c-17.664 0-32-14.336-32-32v-64c-17.664 0-32-14.336-32-32v-64c0-17.664 14.336-32 32-32h32c17.664 0 32 14.336 32 32v64c0 17.664-14.336 32-32 32v64h160v-64c-17.664 0-32-14.336-32-32v-64c0-17.664 14.336-32 32-32h32c17.664 0 32 14.336 32 32v64c0 17.664-14.336 32-32 32v64h160v-64c-17.664 0-32-14.336-32-32v-64c0-17.664 14.336-32 32-32h32c17.664 0 32 14.336 32 32v64c0 17.664-14.336 32-32 32z" />
<glyph unicode="&#xe0e1;" glyph-name="hourglass" d="M403.498 292.215v127.615h14.543c8.26 0 14.957 6.608 14.957 14.75s-6.697 14.75-14.957 14.75h-294.582c-8.26 0-14.957-6.608-14.957-14.75s6.697-14.75 14.957-14.75h14.543v-127.615c0-8.408 3.599-16.432 9.882-22.036l63.779-56.847-63.779-56.846c-6.284-5.605-9.882-13.629-9.882-22.036v-127.615h-14.543c-8.26 0-14.957-6.608-14.957-14.75s6.697-14.75 14.957-14.75h294.611c8.231 0 14.927 6.608 14.927 14.75s-6.697 14.75-14.957 14.75h-14.543v127.615c0 8.408-3.599 16.432-9.882 22.036l-63.779 56.846 63.779 56.846c6.284 5.605 9.882 13.629 9.882 22.037zM373.998 292.215l-88.498-78.882 88.498-78.882v-127.615h-206.498v127.615l88.498 78.882-88.498 78.882v127.615h206.498v-127.615zM344.498 334.93v25.901h-147.498v-25.901l73.75-65.726zM197 91.619v-55.283h147.498v55.283l-37.258 33.217h-72.983z" />
<glyph unicode="&#xe0e3;" glyph-name="globe" d="M272 437.333c-132.544 0-240-107.456-240-240s107.456-240 240-240 240 107.456 240 240-107.456 240-240 240zM447.008 309.333h-47.68c-9.28 29.184-22.016 54.752-37.376 75.264 34.816-16.8 64.288-42.944 85.056-75.264zM288 309.333v93.376c30.24-8.928 59.712-42.464 77.856-93.376h-77.856zM375.168 277.333c4.512-19.584 7.424-41.024 8.352-64h-95.52v64h87.168zM256 402.709v-93.376h-77.856c18.144 50.912 47.616 84.448 77.856 93.376zM256 277.333v-64h-95.52c0.928 22.976 3.84 44.416 8.352 64h87.168zM128.48 213.333h-63.68c1.728 22.496 6.88 44.064 15.232 64h56.32c-4.288-20.256-6.976-41.664-7.872-64zM128.48 181.333c0.896-22.336 3.584-43.744 7.872-64h-56.32c-8.352 19.936-13.504 41.504-15.232 64h63.68zM160.48 181.333h95.52v-64h-87.168c-4.512 19.584-7.424 41.024-8.352 64zM256 85.333v-93.376c-30.24 8.928-59.712 42.464-77.856 93.376h77.856zM288-8.043v93.376h77.856c-18.144-50.912-47.616-84.448-77.856-93.376zM288 117.333v64h95.52c-0.928-22.976-3.84-44.416-8.352-64h-87.168zM415.52 181.333h63.68c-1.728-22.496-6.88-44.064-15.232-64h-56.32c4.288 20.256 6.976 41.664 7.872 64zM415.52 213.333c-0.896 22.336-3.584 43.744-7.872 64h56.32c8.352-19.936 13.504-41.504 15.232-64h-63.68zM182.048 384.597c-15.328-20.512-28.096-46.080-37.376-75.264h-47.68c20.768 32.32 50.24 58.464 85.056 75.264zM96.992 85.333h47.68c9.28-29.184 22.016-54.752 37.376-75.264-34.816 16.8-64.288 42.944-85.056 75.264zM361.952 10.069c15.328 20.512 28.096 46.080 37.376 75.264h47.68c-20.768-32.32-50.24-58.464-85.056-75.264z" />
<glyph unicode="&#xe0e5;" glyph-name="drive" d="M64-42.667h384c35.36 0 64 28.64 64 64v32c0 1.504-0.352 2.912-0.448 4.352 0.096 1.632 0.448 3.488 0.448 4.992l-32 342.656c-1.984 31.328-28.64 64-64 64h-320c-35.36 0-62.016-32.672-64-64l-32-342.656c0-1.504 0.352-3.36 0.448-4.96-0.096-1.472-0.448-2.88-0.448-4.384v-32c0-35.36 28.64-64 64-64zM32 21.333v32c0 17.632 14.368 32 32 32h384c17.632 0 32-14.368 32-32v-32c0-17.632-14.368-32-32-32h-384c-17.632 0-32 14.368-32 32zM416 37.333c0-8.837 7.163-16 16-16s16 7.163 16 16c0 8.837-7.163 16-16 16s-16-7.163-16-16zM355.328 38.005c0-8.837 7.163-16 16-16s16 7.163 16 16c0 8.837-7.163 16-16 16s-16-7.163-16-16zM80 21.333h224c8.832 0 16 7.168 16 16s-7.168 16-16 16h-224c-8.832 0-16-7.168-16-16s7.168-16 16-16z" />
<glyph unicode="&#xe0e7;" glyph-name="calculator" d="M96-42.667h320c17.664 0 32 14.336 32 32v448c0 17.664-14.336 32-32 32h-320c-17.664 0-32-14.336-32-32v-448c0-17.664 14.336-32 32-32zM352 117.333c-17.664 0-32 14.336-32 32s14.336 32 32 32 32-14.336 32-32c0-17.664-14.336-32-32-32zM384 53.333c0-17.664-14.336-32-32-32s-32 14.336-32 32c0 17.664 14.336 32 32 32s32-14.336 32-32zM352 213.333c-17.664 0-32 14.336-32 32s14.336 32 32 32 32-14.336 32-32c0-17.664-14.336-32-32-32zM128 341.333v64h256v-64h-256zM256 117.333c-17.664 0-32 14.336-32 32s14.336 32 32 32 32-14.336 32-32c0-17.664-14.336-32-32-32zM288 53.333c0-17.664-14.336-32-32-32s-32 14.336-32 32c0 17.664 14.336 32 32 32s32-14.336 32-32zM256 213.333c-17.664 0-32 14.336-32 32s14.336 32 32 32 32-14.336 32-32c0-17.664-14.336-32-32-32zM160 277.333c17.664 0 32-14.336 32-32s-14.336-32-32-32-32 14.336-32 32c0 17.664 14.336 32 32 32zM160 181.333c17.664 0 32-14.336 32-32s-14.336-32-32-32-32 14.336-32 32c0 17.664 14.336 32 32 32zM160 85.333c17.664 0 32-14.336 32-32s-14.336-32-32-32-32 14.336-32 32c0 17.664 14.336 32 32 32z" />
<glyph unicode="&#xe0f3;" glyph-name="currency" d="M272 437.333c-132.544 0-240-107.456-240-240s107.456-240 240-240 240 107.456 240 240-107.456 240-240 240zM299.424 213.333c46.624 0 84.576-35.872 84.576-80s-37.952-80-84.576-80h-11.424v-16c0-8.832-7.168-16-16-16s-16 7.168-16 16v16h-11.424c-46.624 0-84.576 35.872-84.576 80 0 8.832 7.168 16 16 16s16-7.168 16-16c0-26.464 23.584-48 52.576-48h11.424v96h-11.424c-46.624 0-84.576 35.872-84.576 80s37.952 80 84.576 80h11.424v16c0 8.832 7.168 16 16 16s16-7.168 16-16v-16h11.424c46.624 0 84.576-35.872 84.576-80 0-8.832-7.168-16-16-16s-16 7.168-16 16c0 26.464-23.584 48-52.576 48h-11.424v-96h11.424zM192 261.333c0-26.464 23.584-48 52.576-48h11.424v96h-11.424c-28.992 0-52.576-21.536-52.576-48zM299.424 85.333c28.992 0 52.576 21.536 52.576 48s-23.584 48-52.576 48h-11.424v-96h11.424z" />
<glyph unicode="&#xe0f7;" glyph-name="searching" d="M32-10.667h288c17.664 0 32 14.336 32 32v43.2c6.816 3.264 13.184 7.168 19.168 11.68l98.208-98.208c3.136-3.136 7.232-4.672 11.328-4.672s8.192 1.568 11.328 4.672c6.24 6.24 6.24 16.384 0 22.624l-98.272 98.272c13.792 18.624 22.24 41.472 22.24 66.432 0 44.608-26.272 82.784-64 100.8v171.2c0 17.664-14.336 32-32 32h-288c-17.664 0-32-14.336-32-32v-416c0-17.664 14.336-32 32-32zM304 85.333c-44.096 0-80 35.904-80 80s35.904 80 80 80 80-35.904 80-80-35.904-80-80-80zM272 341.333h-192c-8.832 0-16 7.168-16 16s7.168 16 16 16h192c8.832 0 16-7.168 16-16s-7.168-16-16-16zM80 277.333h192c3.104 0 5.824-1.12 8.256-2.624-20.928-4.544-39.68-14.912-54.464-29.376h-145.792c-8.832 0-16 7.168-16 16s7.168 16 16 16zM80 181.333h113.6c-0.736-5.28-1.6-10.528-1.6-16s0.864-10.72 1.6-16h-113.6c-8.832 0-16 7.168-16 16s7.168 16 16 16z" />
<glyph unicode="&#xe0fd;" glyph-name="building" d="M32-42.667h416c17.664 0 32 14.336 32 32v192c0 17.664-14.336 32-32 32h-96c-17.664 0-32-14.336-32-32v256c0 17.664-14.336 32-32 32h-96c-17.664 0-32-14.336-32-32v-128c0 17.664-14.336 32-32 32h-96c-17.664 0-32-14.336-32-32v-320c0-17.664 14.336-32 32-32zM32-10.667v64h32v-64h-32zM64 181.333v-32h-32v32h32zM32 213.333v32h32v-32h-32zM64 117.333v-32h-32v32h32zM96 149.333v32h32v-32h-32zM128 117.333v-32h-32v32h32zM96 213.333v32h32v-32h-32zM96-10.667v64h32v-64h-32zM128 277.333h-32v32h32v-32zM64 277.333h-32v32h32v-32zM256-10.667v64h32v-64h-32zM224 309.333v-32h-32v32h32zM192 341.333v32h32v-32h-32zM224 245.333v-32h-32v32h32zM224 181.333v-32h-32v32h32zM224 117.333v-32h-32v32h32zM256 149.333v32h32v-32h-32zM288 117.333v-32h-32v32h32zM256 213.333v32h32v-32h-32zM256 277.333v32h32v-32h-32zM256 341.333v32h32v-32h-32zM288 405.333h-32v32h32v-32zM224 405.333h-32v32h32v-32zM192 53.333h32v-64h-32v64zM384 85.333h-32v32h32v-32zM416 117.333h32v-32h-32v32zM416 53.333h32v-64h-32v64zM448 149.333h-32v32h32v-32zM384 149.333h-32v32h32v-32zM352 53.333h32v-64h-32v64z" />
<glyph unicode="&#xe600;" glyph-name="logo" d="M319.608 259.11c1.404 4.607 5.002 16.878 10.778 36.834 1.404 5.236 4.985 15.601 10.76 31.111 5.758 16.014 10.365 28.844 13.82 38.507-10.149-6.82-20.441-15.853-30.896-27.081-37.32-40.235-80.667-88.872-96.016-114.387 5.867 1.44 17.543 13.712 54.755 26.469 23.734 8.133 36.798 8.547 36.798 8.547v0zM312.986 233.432c-117.68 0-169.017-187.604-250.619-187.604-18.498 0-32.839 8.313-42.952 24.94-6.478 10.616-9.734 22.745-9.734 36.365 0 34.207 16.159 77.374 48.493 129.484 27.566 44.355 56.626 80.055 87.216 107.135 26.469 23.284 49.124 34.909 67.963 34.909 10.617 0 18.768-3.797 24.471-11.408 4.588-6.010 6.892-13.298 6.892-21.862 0-15.367-5.147-32.875-15.403-52.542-8.997-16.95-20.225-32.173-33.649-45.632-8.853-8.709-15.799-13.082-20.855-13.082-3.328 0-6.387 1.655-9.249 4.984-2.051 2.393-3.077 5.074-3.077 8.079 0 5.56 4.823 11.893 14.467 19.020 13.603 10.149 24.418 21.25 32.478 33.289 11.858 17.436 17.779 32.173 17.779 44.229 0 4.894-1.062 8.547-3.203 10.923-2.142 2.375-5.345 3.545-9.626 3.545-8.709 0-21.053-6.334-37.049-19.019-18.21-14.252-37.445-33.667-57.706-58.228-25.803-31.219-45.416-61.953-58.877-92.237-13.927-31.363-20.89-58.156-20.89-80.361 0-10.616 3.077-19.649 9.249-27.099 6.784-8.404 15.097-12.955 24.886-12.578 37.284 1.368 83.761 86.478 98.102 106.253 142.277 196.368 153.109 196.889 174.666 217.313 12.505 12.038 22.115 18.065 28.755 18.065 4.139 0 7.702-1.673 10.724-4.984 2.537-3.005 3.797-6.334 3.797-9.986 0-4.426-2.213-12.2-6.64-23.284-7.594-19.488-14.863-40.306-21.827-62.493-6.010-19.649-10.059-34.71-12.11-45.165 2.861 0 4.768 0.071 5.687 0.251 4.588 0.144 8.385 0.233 11.389 0.233 9.176 0 13.765-3.473 13.765-10.454 0-3.005-0.99-5.974-2.951-8.906-1.979-2.933-4.211-4.732-6.748-5.363-0.954-0.324-3.545-0.469-7.809-0.469-8.997 0-15.709-0.558-20.117-1.655-1.673-4.984-5.992-47.288-12.416-48.728-19.847-17.238-18.372 38.507-17.274 44.121v0zM196.296 105.1c5.183 0 9.608-1.817 13.262-5.452s5.488-8.061 5.488-13.243c0-5.2-1.835-9.644-5.488-13.316s-8.098-5.507-13.262-5.507c-5.2 0-9.608 1.836-13.28 5.507s-5.506 8.115-5.506 13.316c0 5.183 1.835 9.608 5.506 13.243 3.671 3.652 8.079 5.452 13.28 5.452v0zM311.079 154.853l-13.118-13.027c-8.313 8.781-17.994 13.171-29.042 13.171-9.663 0-17.743-3.185-24.238-9.572-6.514-6.387-9.771-14.161-9.771-23.302 0-9.465 3.383-17.472 10.131-24.041 6.748-6.567 15.079-9.861 24.994-9.861 6.424 0 11.858 1.349 16.284 4.067 4.426 2.717 7.971 6.964 10.706 12.74h-28.394v17.49h49.322l0.126-4.12c0-8.583-2.231-16.716-6.658-24.382-4.462-7.683-10.221-13.549-17.292-17.599s-15.367-6.064-24.904-6.064c-10.166 0-19.272 2.213-27.243 6.622-7.989 4.426-14.305 10.724-18.947 18.894-4.643 8.187-6.982 17.004-6.982 26.469 0 12.991 4.301 24.274 12.884 33.865 10.185 11.426 23.446 17.13 39.767 17.13 8.565 0 16.536-1.584 23.968-4.75 6.262-2.682 12.397-7.251 18.408-13.729v0zM371.395 173.315c13.873 0 25.803-5.020 35.772-15.079 9.986-10.041 14.971-22.259 14.971-36.708 0-14.305-4.913-26.415-14.755-36.329-9.861-9.914-21.791-14.863-35.844-14.863-14.719 0-26.954 5.074-36.672 15.277-9.734 10.149-14.611 22.241-14.611 36.257 0 9.375 2.249 17.994 6.802 25.857 4.534 7.882 10.778 14.089 18.696 18.696s16.483 6.892 25.641 6.892v0zM371.125 155.015c-9.050 0-16.644-3.149-22.798-9.447s-9.249-14.341-9.249-24.058c0-10.85 3.887-19.416 11.624-25.731 6.028-4.93 12.938-7.396 20.729-7.396 8.817 0 16.32 3.204 22.528 9.591 6.19 6.387 9.321 14.287 9.321 23.644 0 9.339-3.13 17.221-9.375 23.68s-13.82 9.716-22.781 9.716v0zM422.498 170.867h19.181l24.634-69.654 25.156 69.654h19.11l-35.375-98.067h-18.012l-34.692 98.067z" />
<glyph unicode="&#xe601;" glyph-name="home" d="M475.543 218.983c0-7.568-6.158-13.748-13.748-13.748-3.531 0-6.682 1.411-9.060 3.595l-197.258 197.259-0.281-0.281-0.060 0.038-197.037-197.016c-2.401-2.157-5.552-3.574-9.060-3.574-7.59 0-13.748 6.174-13.748 13.748 0 3.817 1.535 7.245 4.054 9.731v0l206.341 206.362c2.503 2.503 5.935 4.038 9.731 4.038 3.773 0 7.228-1.535 9.688-4.038l206.38-206.38c2.541-2.46 4.055-5.893 4.055-9.731zM420.519 179.14v-152.712c0-15.218-12.31-27.533-27.533-27.533h-96.298v137.533h-82.572v-137.554h-96.278c-15.218 0-27.533 12.31-27.533 27.533v152.712l165.103 165.125 165.103-165.104z" />
<glyph unicode="&#xe602;" glyph-name="menu" d="M475.575 330.881c0-18.646-14.052-33.778-31.363-33.778h-376.423c-17.328 0-31.363 15.133-31.363 33.778v4.222c0 18.646 14.052 33.778 31.363 33.778h376.407c17.311 0 31.363-15.133 31.363-33.778v-4.222zM475.575 214.769c0-18.646-14.052-33.778-31.363-33.778h-376.423c-17.328 0-31.363 15.133-31.363 33.778v4.222c0 18.646 14.052 33.778 31.363 33.778h376.407c17.311 0 31.363-15.133 31.363-33.778v-4.222zM475.575 98.656c0-18.646-14.052-33.778-31.363-33.778h-376.423c-17.328 0-31.363 15.133-31.363 33.778v4.222c0 18.646 14.052 33.778 31.363 33.778h376.407c17.311 0 31.363-15.133 31.363-33.778v-4.222z" />
<glyph unicode="&#xe603;" glyph-name="apps" d="M161.5 330.037c0-14.856-12.052-26.908-26.908-26.908h-50.476c-14.872 0-26.908 12.052-26.908 26.908v50.476c0 14.856 12.032 26.908 26.908 26.908h50.476c14.856 0 26.908-12.052 26.908-26.908v-50.476zM305.188 330.037c0-14.856-12.052-26.908-26.908-26.908h-50.476c-14.856 0-26.908 12.052-26.908 26.908v50.476c0 14.856 12.052 26.908 26.908 26.908h50.476c14.856 0 26.908-12.052 26.908-26.908v-50.476zM448.856 330.037c0-14.856-12.032-26.908-26.908-26.908h-50.476c-14.856 0-26.908 12.052-26.908 26.908v50.476c0 14.856 12.052 26.908 26.908 26.908h50.476c14.872 0 26.908-12.052 26.908-26.908v-50.476zM161.5 189.745c0-14.856-12.052-26.908-26.908-26.908h-50.476c-14.872 0-26.908 12.052-26.908 26.908v50.456c0 14.856 12.032 26.908 26.908 26.908h50.476c14.856 0 26.908-12.052 26.908-26.908v-50.456zM305.188 189.745c0-14.856-12.052-26.908-26.908-26.908h-50.476c-14.856 0-26.908 12.052-26.908 26.908v50.456c0 14.856 12.052 26.908 26.908 26.908h50.476c14.856 0 26.908-12.052 26.908-26.908v-50.456zM448.856 189.745c0-14.856-12.032-26.908-26.908-26.908h-50.476c-14.856 0-26.908 12.052-26.908 26.908v50.456c0 14.856 12.052 26.908 26.908 26.908h50.476c14.872 0 26.908-12.052 26.908-26.908v-50.456zM161.5 49.417c0-14.856-12.052-26.908-26.908-26.908h-50.476c-14.872 0-26.908 12.052-26.908 26.908v50.476c0 14.856 12.032 26.908 26.908 26.908h50.476c14.856 0 26.908-12.052 26.908-26.908v-50.476zM305.188 49.417c0-14.856-12.052-26.908-26.908-26.908h-50.476c-14.856 0-26.908 12.052-26.908 26.908v50.476c0 14.856 12.052 26.908 26.908 26.908h50.476c14.856 0 26.908-12.052 26.908-26.908v-50.476zM448.856 49.417c0-14.856-12.032-26.908-26.908-26.908h-50.476c-14.856 0-26.908 12.052-26.908 26.908v50.476c0 14.856 12.052 26.908 26.908 26.908h50.476c14.872 0 26.908-12.052 26.908-26.908v-50.476z" />
<glyph unicode="&#xe604;" glyph-name="search" d="M480.531 78.279l-15.089 12.524 0.080 0.080-47.896 38.692-67.608 55.961c13.868 24.803 21.014 52.294 21.014 80.153 0 41.663-15.985 83.308-48.18 115.444-31.421 31.442-73.044 46.776-115.401 46.776-87.686 0-162.197-74.532-162.197-162.216 0-88.42 73.085-162.909 161.443-162.909 32.846 0 65.672 9.855 93.755 29.019l69.541-57.609 47.651-38.488-0.042-0.042 16.372-13.562c8.022-6.68 19.918-5.539 26.494 2.466l22.584 27.226c6.64 7.984 5.459 19.853-2.525 26.494zM278.991 194.823c-19.671-19.713-45.269-29.202-71.537-29.202-53.374 0-99.375 45.289-99.375 100.068 0 53.354 45.29 99.375 99.375 99.375 55.512 0 100.739-45.311 100.739-99.375 0-25.555-10.182-51.134-29.202-70.866z" />
<glyph unicode="&#xe605;" glyph-name="chat" d="M453.042 93.060c30.544 18.383 49.529 43.979 49.529 72.32 0 32.229-24.603 60.893-62.859 79.426-24.020-60.936-112.064-106.277-216.743-106.277-15.186 0-30.197 1.037-44.994 2.915 17.497-44.303 82.451-77.201 159.953-77.201 18.577 0 36.505 1.901 53.18 5.399 53.656-42.164 116.861-12.918 116.861-12.918-43.203-2.571-53.397 19.462-54.931 36.332zM428.634 286.429c0 69.597-94.092 126.236-209.764 126.236s-209.764-56.638-209.764-126.236c0-33.611 21.97-65.298 61.886-89.275l3.651-2.204-0.432-4.19c-1.469-16.373-9.373-41.754-42.402-50.827 8.553-1.534 18.383-2.615 28.922-2.615 31.688 0 59.965 9.589 84.070 28.513l2.484 1.923 3.047-0.605c4.945-1.058 10.066-1.837 15.12-2.635 0.022-0.238 0.022-0.476 0.043-0.692 16.287-2.356 32.918-3.63 49.767-3.63 100.399 0 184.688 42.058 207.39 98.5 0.238-0.106 0.498-0.173 0.733-0.281 3.392 9.029 5.249 18.361 5.249 28.017zM230.921 322.245c18.835 0 34.042-15.207 34.042-34.042s-15.208-34.042-34.042-34.042-34.042 15.208-34.042 34.042 15.208 34.042 34.042 34.042zM107.472 288.201c0 18.835 15.229 34.042 34.042 34.042s34.086-15.207 34.086-34.042-15.271-34.042-34.086-34.042-34.042 15.208-34.042 34.042zM320.348 254.159c-8.057 0-15.12 3.176-20.952 7.798-1.124 0.887-2.074 1.988-3.088 3.047v0c-6.026 6.026-10.087 13.955-10.087 23.2 0 18.835 15.271 34.042 34.108 34.042 18.794 0 34.042-15.208 34.042-34.042 0-7.453-2.872-13.955-6.911-19.548-6.2-8.575-15.769-14.494-27.108-14.494z" />
<glyph unicode="&#xe606;" glyph-name="capitol" d="M111.719 183.733c-0.277-0.831 1.583-2.731 1.583-2.731v-8.587c0 0-3.582-8.548 0-9.815 0 0 34.329 7.856 141.016 7.856 106.707 0 141.016-7.856 141.016-7.856 3.62 1.266 0 9.815 0 9.815v8.587c0 0 1.92 1.899 1.623 2.731-0.337 0.831 12.288 6.292 1.86 9.637-10.406 3.384-48.239 11.733-144.5 11.733s-134.053-8.351-144.48-11.733c-10.406-3.343 2.177-8.805 1.879-9.637zM225.43 377.085c0 0-3.482-3.206 0-4.847v-6.925c0 0 18.678 3.166 28.888 3.166 10.23 0 28.908-3.166 28.908-3.166v6.925c3.483 1.641 0 4.847 0 4.847s-2.177 2.573-3.899 3.541v24.139c0 0 0.851 3.562 0 5.482-0.87 1.958 11.733 6.134 0 10.625-11.752 4.531-16.541 5.164-25.010 5.164-8.489 0-13.257-0.633-24.988-5.164s0.87-8.666 0-10.625c-0.851-1.94 0-5.482 0-5.482v-24.139c-1.722-0.97-3.899-3.541-3.899-3.541zM274.421 441.112c0 0-2.177 6.628-6.094 6.866 0 0-5.005 3.561-4.789 8.231 0 0 1.503 0.613 1.503 3.325l-4.334 5.284h-11.832l-4.353-5.303c0-2.711 1.544-3.325 1.544-3.325 0.218-4.671-4.789-8.232-4.789-8.232-3.879-0.237-6.076-6.866-6.076-6.866v-3.917h39.197v3.937zM254.575 330.032c1.345-0.079 47.627-2.89 47.627 0.020 0 3.026-1.325 5.284-1.979 9.578-0.672 4.313 0 5.975 0 5.975s-9.397 9.181-45.429 9.181h-0.476c-36.031 0-45.41-9.181-45.41-9.181s0.672-1.662 0-5.975c-0.632-4.314-1.958-6.55-1.958-9.577 0-2.909 46.239-0.080 47.626-0.020zM255.723 225.165l137.495-6.43c0 0 1.009 18.343-4.531 20.262-2.375 0.792-5.976 4.195-15.355 8.113-0.435 1.029-1.029 1.899-1.92 2.236-3.046 1.168-14.781 71.805-117.115 71.805s-114.069-70.637-117.094-71.805c-1.286-0.476-1.979-2.058-2.393-3.7-7.004-3.284-9.992-5.976-12.050-6.668-5.56-1.94-4.549-20.262-4.549-20.262l137.514 6.451zM423.332 33.18l-1.049 47.645c0 0 3.483 7.598 1.266 13.059 0 0 9.991 7.637 4.353 15.651l-7.38 4.63 0.455 8.844c0 0-40.82 27.424-166.66 27.878-125.841-0.455-166.679-27.878-166.679-27.878l0.456-8.844-7.419-4.63c-5.62-8.014 4.372-15.651 4.372-15.651-2.195-5.461 1.326-13.059 1.326-13.059l-1.148-50.218c-10.249-10.269 2.949-25.168 2.949-25.168h335.022c0.038-0.020 15.888 17.63 0.139 27.74zM402.774 97.88v-59.122c-5.877 1.068-12.743 2.077-20.144 3.106v56.015h20.144zM361.955 97.88v-53.403c-6.587 0.752-13.355 1.484-20.144 2.177v51.226h20.144zM322.087 97.88v-49.267c-6.966 0.653-13.692 1.266-20.123 1.84v47.428h20.123zM282.238 97.88v-45.766c-8.449 0.672-15.493 1.246-20.144 1.583v44.163h20.144zM242.367 97.88v-44.716c-5.441-0.415-12.308-0.97-20.103-1.623v46.34h20.103zM202.537 97.88v-48.061c-6.511-0.574-13.238-1.227-20.143-1.878v49.921h20.143zM162.688 97.88v-51.939c-6.886-0.731-13.592-1.523-20.143-2.316v54.255h20.143zM124.48 97.88v-56.609c-8.013-1.168-15.077-2.316-20.972-3.523v60.13h20.972z" />
<glyph unicode="&#xe607;" glyph-name="state" d="M213.159 454.463c1.429-49.66 4.174-100.109 5.226-149.628 58.965-53.883 126.302-108.269 189.009-163.298 9.017-7.921 21.969-16.173 26.694-23.805 4.366-7.036 4.104-17.101 7.205-23.305 2.55-5.106 7.471-6.416 11.522-10.447 3.22-16.555-13.047-21.92-8.897-39.144-3.315-1.385-2.148-5.344-4.844-7.107 3.434-5.985 1.861-7.896 0.452-12.476 2.288-7.036 9.688-5.295 11.329-13.404-2.124-5.126-11.522-6.058-12.238-11.999-30.603-5.033-61.78-10.853-92.546-16.099-1.548 8.73-8.158 8.779-10.878 15.478 11.642 19.914-13.572 29.721-24.663 37.949-3.245 1.026-9.18-2.601-12.283-1.409-2.933 5.295 2.457 5.726 0.070 10.658-10.233 8.466-16.964 2.099-27.765 6.129-10.302 3.791-19.155 16.817-29.388 19.25-2.839 0.646-4.844-1.122-7.47-1.072-10.853 0.332-20.754 4.913-31.225 8.134-6.11 11.235-3.96 33.87-16.481 36.232-0.262 20.779-24.307 18.723-24.902 38.832-7.895 7.538-17.174 12.57-20.227 28.48 2.431 3.529 5.772 0.189 9.281 1.503 1.623 13.954-9.587 16.793-18.198 17.389-4.868 10.615-16.674 29.457-9.255 38.212 7.776 1.122 8.064-10.685 14.693-11.594 10.828-11.711 0.262 6.585-0.551 12.952 0.883 3.245 8.949 10.184 9.494 13.286-2.243 6.248-17.031 0.833-18.987 7.607-4.461-13.667-20.846-10.402-27.79-8.158-1.861 5.126 5.344 5.056 5.295 9.179-4.844 8.873-12.263 13.191-18.034 20.322 1.623 9.688-7.681 11.83-10.759 18.391-5.463 11.831 1.98 25.334-6.724 35.994 8.040 16.625-16.41 14.262-15.98 34.37 5.106 9.543 8.491 20.083 12.188 30.365-1.336 3.577 0.214 5.489-1.623 9.349 9.445 9.543 0.834 29.552 1.786 44.058 50.161 1.361 99.514 1.29 147.458-1.191z" />
<glyph unicode="&#xe608;" glyph-name="phone" d="M354.574 97.023c0 0-38.514 61.848-65.892 51.966-29.684-10.656-47.622-28.97-66.568-16.134-10.672 7.244-25.874 23.574-40.972 47.66l-0.022-0.038c-12.858 21.59-23.372 44.586-25.356 57.106-3.668 22.62 20.554 31.052 42.798 53.432 20.554 20.636-19.126 81.748-19.126 81.748s-22.538 43.97-48.81 36.764c-26.332-7.2-57.106-15.638-57.106-15.638s-64.682-19.328-10.018-136.494c26.506-56.746 40.694-85.302 58.158-111.846l0.098 0.038c13.888-23.154 39.364-56.948 79.246-104.646 82.936-99.19 127.8-48.772 127.8-48.772s20.674 24.304 38.372 45.060c17.682 20.712-12.602 59.782-12.602 59.782zM329.79 190.179c11.528 56.114-24.13 110.974-79.704 122.404l8.672 42.144c78.614-16.15 129.070-93.696 112.74-173.122l-41.708 8.574zM267.114 202.759c4.742 23.176-8.906 40.122-28.768 44.21l6.688 33.178c37.996-7.838 62.42-45.3 54.506-83.71l-32.42 6.328zM409.598 173.789c20.614 100.258-43.038 198.080-142.244 218.52l9.326 45.36c124.012-25.498 203.618-147.76 177.842-273.14l-44.924 9.266z" />
<glyph unicode="&#xe609;" glyph-name="email" d="M488.939 333.814c-1.366 21.027-18.021 37.684-39.050 39.073-0.911 0.044-1.8 0.274-2.711 0.274v-0.274l-383.104 0.274c-0.911 0-1.8-0.23-2.711-0.274-21.301-1.411-38.118-18.432-39.144-39.804-0.022-0.637-0.203-1.322-0.203-1.982s0.181-1.3 0.203-1.938v-272.446h466.7v271.694c0.066 0.911 0.296 1.778 0.296 2.689 0 0.933-0.204 1.8-0.274 2.711zM412.476 331.376l-156.91-133.604-156.864 133.604h313.774zM63.754 289.088c0.114 0 0.23-0.022 0.34-0.022v17.247l103.004-87.695-103.344-97.287v167.757zM84.873 98.23l103.915 103.416 66.801-58.394 67.211 58.783 103.37-103.827h-341.298zM447.45 121.354l-103.37 97.286 103.075 87.761v-17.317c0.115 0 0.204 0.022 0.296 0.022v-167.757z" />
<glyph unicode="&#xe60a;" glyph-name="calendar" d="M355.441 389.745v-46.477c0-18.936-15.404-34.295-34.296-34.295-18.937 0-34.317 15.359-34.317 34.296v46.476h-65.228v-46.476c0-18.936-15.359-34.296-34.296-34.296s-34.296 15.359-34.296 34.296v46.476h-108.46v-371.259h424.306v371.259h-113.408zM419.961 69.307h-326.529v207.28h326.529v-207.28zM187.281 334.556c10.162 0 18.438 8.231 18.438 18.438v92.082c0 10.184-8.254 18.438-18.438 18.438s-18.438-8.231-18.438-18.438v-92.102c0.022-10.162 8.254-18.416 18.438-18.416zM321.145 334.6c10.145 0 18.377 8.254 18.377 18.416v92.019c0 10.162-8.231 18.416-18.377 18.416-10.184 0-18.416-8.231-18.416-18.416v-92.019c0-10.162 8.231-18.416 18.416-18.416zM133.34 244.074h58.472v-58.451h-58.472v58.451zM133.34 162.886h58.472v-58.472h-58.472v58.472zM217.067 244.074h58.472v-58.451h-58.472v58.451zM300.711 244.074h58.472v-58.451h-58.472v58.451z" />
<glyph unicode="&#xe60b;" glyph-name="bear" horiz-adv-x="520" d="M67.948 234.491c0-2.71 0-8.132-4.058-6.768-1.364 0-5.422 1.347-6.444 2.694 1.023 1.364-2.694 6.445 1.023 7.792 2.711-1.347 8.132-1.347 9.479-3.716v0zM454.549 149.178c-0.324 0.204-0.461 0.273-0.563 0.29 0.324-0.307 0.563-0.426 0.563-0.29zM504.315 159.68c-15.923 32.836-14.56 57.557-11.849 90.394-4.058 27.415-22.351 51.113-41.974 72.1-26.409 27.415-69.406 28.779-104.954 18.293-56.193-6.445-103.572 55.17-158.418 15.906-25.061-23.698-47.396-48.743-76.174-62.962-9.138-4.041-19.623 6.445-28.779 3.733-9.138-1.347-10.502-11.508-13.196-16.93-3.734 0-3.734 6.445-9.138 4.058-10.502-2.693-9.138-13.196-9.138-22.334-3.733-6.769-12.871-10.502-15.582-17.288 0-19.623-23.698-24.704-32.836-40.627-2.711-2.37 1.347-5.063 1.347-7.774 6.444-10.485 20.988-14.219 32.853-12.872l-4.075-1.364c-4.058-4.058 1.347-9.138 5.404-11.849 5.081-4.058 14.219-1.347 20.646 0 10.502 5.081 14.56-6.752 23.715-4.058 9.138 2.711 20.971 10.502 31.49 4.058 5.404-5.404 20.97-5.404 16.912-15.906-6.427-11.525-12.855-24.721-20.971-35.206-11.525-14.56-30.142-11.849-41.633-25.044-1.347-2.387 0-6.445 0-9.155 3.716-2.693 1.023-3.716 12.855-5.063 11.849-1.364 57.898-1.364 68.383 1.347 2.387 1.023 3.733 2.37 3.733 2.37 16.929 17.27 27.415 35.547 46.032 52.476 10.502 2.693 10.502-10.502 19.641-15.582 0-19.623-26.409-11.832-32.836-30.125-1.364-2.711-1.364-4.058 1.347-6.769 10.485-2.37 20.988 0 31.489 0 12.855 0 27.398 1.347 37.917 1.347 13.196 6.769 32.836 47.396 22.351 73.464 10.485 5.098 23.357 2.711 35.206 2.711l1.347-1.347c1.347-11.849 13.196-22.351 10.485-36.894-3.716-20.646-31.49-14.219-36.57-33.859 0-2.693 0-5.404 1.364-6.752 15.565-5.081 33.842-1.023 51.113-1.023 10.485 0 20.988-1.347 27.414 6.428 10.485 27.414 16.913 51.113 37.917 73.464 2.711 0 6.769 1.364 6.769-1.347 12.854-11.849 24.704-16.93 39.264-26.409 2.37-3.733 1.364-5.081 0-7.791-14.56-14.219-36.894-18.276-40.627-35.189-1.347-4.058 0-4.058 2.387-5.421 19.623-3.716 41.974 0 61.598-1.347 11.849 1.347 18.635 11.849 26.409 20.988 5.081 9.138 12.872 19.623 12.872 32.836l-11.508 22.317zM271.052 114.978c-4.058-7.791-13.196-23.357-23.698-22.351-2.71 0-30.143-2.37-39.263-2.37-9.155 0-10.502 0-11.849 1.347 0 1.023 4.058 5.081 6.428 6.428 1.347 1.364 14.56 4.075 19.623 6.445 5.422 4.058 5.422 17.271 2.71 18.276-2.71 2.693-7.792 10.485-7.792 10.485s16.929 2.711 18.293 5.404c1.347 2.711 13.179 5.081 14.56 5.081 2.369 1.364 11.508 2.711 14.219 2.711 2.693-1.347 11.832 0 11.832 0s0 0 1.364-6.428c0.017-6.735-4.058-17.236-6.428-25.027zM420.349 180.65c-10.485-4.041-25.045-15.906-26.409-22.351-2.37-2.693-14.219-20.971-15.565-28.779-4.058-6.752-2.711-4.058-11.849-28.779-2.711-5.404-1.347-9.138-13.196-13.196-16.93 0-26.050 0-44.361-1.347-2.693 0-7.774 1.347-7.774 2.693 5.081 14.219 26.067 6.445 32.495 22.351 17.271 22.010-10.485 37.934-10.485 61.615 0 19.623 10.485 36.57 18.618 52.136 0 2.71-1.364 1.364-4.058 1.364-6.445-2.387-6.445-6.445-11.849-12.871-2.693-6.769-2.693-5.422-7.774-14.56-1.364-4.058-5.421 9.121-6.445 9.121 0 2.711-5.404-11.832-4.058-19.623 0-2.693-7.774 9.138-10.485 6.445 1.347-2.387 6.428-14.236 15.565-22.010-36.57 0-53.483-2.711-66.695 6.428-14.56 23.698-1.347-9.138-25.044-22.351-11.508-7.774-18.276-10.485-27.415-16.913-15.565-9.138-33.842-46.032-44.362-49.766-14.56-5.421-68.383-2.711-68.383-2.711 0 9.138 19.641 13.196 31.49 19.623 9.138 10.485 30.142 43.339 31.489 47.072l20.988 39.604c2.71 3.716 9.138 24.704 5.081 24.704 0 0-6.428-9.138-7.792-11.849-5.081-6.428-9.138-12.854-16.912-16.913 0 6.428 7.774 10.485 4.041 22.351-5.405-5.421-14.56-23.715-14.56-23.715-2.694-5.081-5.405-6.428-9.138-10.485l2.71 19.623c0 1.364-1.364 1.364-4.058 1.364-5.081-13.196-13.196-15.582-28.779-23.715-11.849-6.428-19.641 6.769-31.489 0-6.444-1.347-14.56-5.081-18.276 0 5.081 4.058 16.913 5.404 16.913 15.923l-5.081 1.347c-11.831-2.693-27.756-9.138-38.24 1.364-2.369 1.023-3.733 3.716-3.733 6.428 11.849 13.196 32.495 20.971 32.495 40.628 13.196 15.565 34.201 24.704 35.547 45.708 2.71 2.711 9.138 1.347 13.196 1.347 11.849-3.733 19.623-16.929 22.351-28.779 1.023-1.364 2.37 0 3.734 0 1.347 0-3.734 20.971-3.734 22.351 3.734 1.347 10.161 7.792 16.929 11.832 9.138 6.445 13.179 10.502 15.566 12.872 13.196 11.849 19.623 18.618 23.698 22.351l18.276 15.906 14.56 7.791c6.428 2.71 15.566 5.081 18.26 5.081 36.587-1.023 62.962-48.402 116.461-31.132 41.974 12.855 78.868 11.508 104.936-15.923 18.276-19.623 37.917-45.708 39.281-66.695 0-9.121-3.733-8.132-14.219-6.751-7.791 2.71-4.058-2.369-4.058-5.081-5.098-11.849-7.791-17.27-11.849-20.988-7.791-14.56-18.276-20.971-23.357-23.698-2.693-2.711-8.115-3.733-13.196-6.445zM493.813 104.493c0 0-8.132-9.138-10.485-10.485-4.058-2.387-23.698-1.364-31.49-2.387-7.791 0-28.779-2.711-28.779 0 0 6.428 21.993 16.93 27.414 18.276 4.058 0 13.179 6.428 15.565 9.138 6.769 6.428 0 16.93 0 16.93s-13.298 13.588-12.070 13.486c-2.864 2.421-15.991 18.685-9.94 24.431 26.067 26.409 27.414 30.125 32.495 47.379 2.711 5.098 6.769 0 6.769 0s-1.347-20.971 3.733-39.264c4.041-11.849 13.179-31.49 14.56-32.836 2.711-2.711 7.791-13.196 7.791-14.56 0-2.37-1.364-10.485-3.733-14.219-1.33-4.041-11.832-15.889-11.832-15.889z" />
<glyph unicode="&#xe60c;" glyph-name="law-enforcement" d="M300.132 283.209c-23.904-7.356-36.776 14.712-55.164 14.712-1.84 0-7.356 0-9.196-1.84l-7.356-1.84-11.032-7.356c-1.84 0-5.516-5.516-12.872-9.196 0 0-1.84-1.84-7.356-5.516-1.84-1.84-5.516-5.516-7.356-5.516l1.84-9.196c-1.84 0-1.84 0-1.84 0 0 7.356-5.516 12.872-9.196 14.712-1.84 0-5.516 1.84-7.356 0 0-9.196-9.196-14.712-16.548-22.068 0-9.196-9.196-12.872-14.712-20.228l1.84-1.84c5.516-5.516 12.872-1.84 16.548 0h1.84c0-5.516-5.516-5.516-7.356-7.356 1.84-1.84 7.356 0 9.196 0 5.516 1.84 9.196-1.84 14.712 0 7.356 5.516 12.872 5.516 14.712 12.872 1.84 0 1.84 0 1.84 0l-1.84-9.196c1.84 1.84 1.84 1.84 5.516 5.516 0 0 5.516 9.196 7.356 12.872 0-5.516-1.84-7.356-1.84-9.196 1.84 0 5.516 5.516 7.356 7.356l1.84 5.516c1.84 0 0-9.196-1.84-12.872l-9.196-20.228c0-1.84-9.196-16.548-14.712-22.068-5.516-1.84-14.712-5.516-14.712-9.196 0 0 23.904 0 33.1 1.84 5.516 1.84 14.712 20.228 22.068 23.904 1.84 1.84 7.356 5.516 12.872 7.356 12.872 5.516 5.516 22.068 12.872 9.196 7.356-5.516 14.712-1.84 33.1-1.84-5.516 1.84-7.356 9.196-7.356 9.196 1.84 1.84 5.516-5.516 5.516-1.84 0 5.516 1.84 12.872 1.84 9.196 0 0 1.84-7.356 1.84-5.516 0 5.516 0 5.516 1.84 7.356s1.84 5.516 5.516 5.516c1.84 0 1.84 1.84 1.84 0-5.516-7.356-9.196-14.712-9.196-23.904 0-12.872 12.872-20.228 5.516-29.42-1.84-7.356-12.872-1.84-14.712-9.196 0-1.84 0-1.84 1.84-1.84 9.196 0 14.712 0 22.068 0 7.356 1.84 5.516 5.516 7.356 7.356 1.84 12.872 1.84 12.872 5.516 14.712 0 5.516 7.356 12.872 7.356 14.712s7.356 7.356 12.872 9.196c1.84 0 5.516 0 5.516 0 1.84 1.84 9.196 5.516 12.872 12.872 1.84 1.84 1.84 5.516 7.356 12.872-1.84 0-5.516 1.84 0 0 5.516 0 7.356 0 9.196-5.516-1.84 9.196-9.196 22.068-20.228 33.1-14.712 7.356-33.1 7.356-51.488 1.84zM360.816 246.433c0 0 0 1.84-1.84 0-1.84-7.356-1.84-9.196-14.712-22.068-1.84-1.84 5.516-12.872 5.516-12.872-1.84 0 5.516-7.356 5.516-7.356s1.84-5.516 0-7.356c0-1.84-5.516-5.516-7.356-5.516-1.84-1.84-12.872-7.356-12.872-9.196s12.872 0 14.712 0c1.84 0 12.872 0 14.712 0l5.516 5.516c0 0 5.516 5.516 5.516 7.356 1.84 1.84 1.84 7.356 1.84 7.356s-1.84 5.516-5.516 9.196c0 0-5.516 9.196-7.356 14.712-3.676 11.032-3.676 20.228-3.676 20.228zM254.16 207.817c0 0-7.356 0-7.356-1.84-1.84 0-9.196-1.84-9.196-1.84s0-1.84 1.84-5.516c0-1.84 0-7.356-1.84-9.196-1.84 0-9.196-1.84-9.196-1.84l-1.84-1.84c0 0 0 0 5.516 0s16.548 0 20.228 0c5.516-1.84 9.196 7.356 12.872 9.196 0 1.84 1.84 7.356 5.516 14.712 0 1.84 0 1.84 0 1.84s-1.84 0-5.516 0c-5.516-1.84-11.032-3.676-11.032-3.676zM509.76 281.369l-130.56 36.776-7.356 137.916-112.172-77.232-114.008 80.908-7.356-137.916-130.56-36.776 101.136-91.944-51.488-126.88 136.076 22.068 66.2-121.364 66.2 119.524 136.076-22.068-55.164 126.88 102.976 90.104zM259.676 93.809c-71.716 0-130.56 58.844-130.56 130.56s58.844 130.56 130.56 130.56 130.56-58.844 130.56-130.56-58.844-130.56-130.56-130.56z" />
<glyph unicode="&#xe60d;" glyph-name="justice-legal" d="M395.598 133.564c48.95 0 88.837 39.887 87.024 90.647l-81.583 163.166-5.44 9.064c-1.813 1.813-5.44 1.813-9.064 1.813l-103.338-10.877v16.318c9.064 5.44 16.318 16.318 16.318 27.195 0 18.128-14.505 32.632-32.632 32.632s-32.632-14.505-32.632-32.632c0-10.877 7.25-23.569 16.318-27.195v-23.569l-99.715-10.877c-1.814 0-5.44-1.813-7.25-5.44l-3.627-9.064-81.583-163.166c1.813-47.137 41.7-87.024 90.647-87.024s88.837 38.073 90.647 87.024l-81.583 163.166v3.627l97.901 10.877v-324.522h-77.956c-7.25 0-10.877-5.44-10.877-10.877 0-1.813 0-1.813 0-5.44h-27.196c-7.25 0-14.505-7.25-14.505-16.318v-9.064c0-9.064 7.25-16.318 14.505-16.318h264.694c7.25 0 14.505 7.25 14.505 16.318v9.064c0 9.064-7.25 16.318-14.505 16.318h-27.195c0 1.813 0 1.813 0 5.44 0 7.25-5.44 10.877-10.877 10.877h-77.956v329.959l97.901 10.878-79.769-163.166c0-48.95 39.887-88.837 88.837-88.837zM219.74 195.205h-141.411l68.892 159.543 72.519-159.543zM391.974 383.753l72.519-163.166h-141.411l68.892 163.166z" />
<glyph unicode="&#xe60e;" glyph-name="at-sign" d="M373.121 311.255h-57.599l-11.522-19.2c-11.522 17.28-28.801 26.882-51.84 26.882-65.281 0-117.121-57.599-117.121-134.401 0-55.679 26.882-82.561 80.642-82.561 28.802 0 49.921 11.522 67.2 36.48 1.92-24.958 21.119-36.48 55.679-36.48 26.882 0 53.76 9.602 76.798 26.882 40.318 30.721 61.442 76.798 61.442 130.562 0 101.76-80.642 174.72-203.521 174.72-78.722 0-147.842-30.721-193.919-86.4-34.56-40.319-51.84-90.239-51.84-145.918 0-63.361 23.038-113.282 69.12-149.762 40.319-32.641 92.159-49.921 153.601-49.921 63.361 0 119.041 19.2 170.88 55.679l-26.882 38.399c-40.319-28.801-86.4-44.162-138.24-44.162-105.6 0-172.8 59.518-172.8 151.681 0 59.518 26.882 111.358 74.879 145.918 30.721 21.119 71.040 32.64 115.201 32.64 92.159 0 149.762-51.84 149.762-122.88 0-63.361-40.318-111.358-78.722-111.358-7.678 0-11.522 3.839-11.522 11.522 0 1.92 0 3.839 1.92 7.678l38.399 143.999zM279.038 194.134c-7.678-30.721-26.882-48.001-49.921-48.001-17.28 0-26.882 13.441-26.882 36.479 0 49.921 26.882 92.159 55.679 92.159 17.28 0 28.801-11.522 30.721-34.56l-9.602-46.082z" />
<glyph unicode="&#xe60f;" glyph-name="attachment" d="M72.052 347.113c-26.012-37.16-42.736-83.612-42.736-133.78s14.864-96.62 42.736-133.78v267.56zM341.472 387.993l96.62-96.62v-211.82c26.012 37.16 42.736 83.612 42.736 133.78 0 126.348-102.192 230.4-226.684 230.4-55.74 0-107.768-20.44-146.788-55.74 1.86 0 234.116 0 234.116 0zM413.936 269.073h-94.76v94.76h-221.108v-314.012c40.876-40.876 96.62-66.892 157.936-66.892s117.060 26.012 157.936 66.892v219.252zM324.748 33.101c-11.148 0-20.44 3.716-31.588 13.008-26.012 22.296-152.36 152.36-157.936 157.936 0 0-14.864 16.724-13.008 37.16 1.86 14.864 7.432 27.872 22.296 39.020 7.432 5.576 13.008 11.148 18.58 14.864 37.16 33.444 59.46 48.308 113.34-9.292l87.328-87.328-14.864-13.008-87.328 87.328c-44.592 46.452-52.024 39.020-85.472 9.292-5.576-5.576-11.148-11.148-18.58-16.724-9.292-7.432-14.864-16.724-14.864-26.012 0-13.008 7.432-22.296 7.432-22.296 1.86-1.86 130.064-135.64 156.076-156.076 13.008-9.292 27.872-16.724 57.6 14.864 13.008 14.864 0 31.588-1.86 33.444-42.736 42.736-109.624 109.624-115.2 115.2-5.576 3.716-14.864-3.716-18.58-7.432-7.432-7.432-5.576-13.008-3.716-14.864l68.748-68.748-14.864-13.008-70.608 70.608c-3.716 7.432-9.292 24.156 5.576 39.020 22.296 22.296 39.020 14.864 44.592 9.292 7.432-5.576 105.908-105.908 117.060-117.060 9.292-11.148 22.296-37.16 1.86-59.46-16.724-18.58-35.304-29.728-52.024-29.728z" />
<glyph unicode="&#xe610;" glyph-name="zipped-file" d="M193.352 48.885h35.24v-19.575h-35.24v19.575zM346.056 397.362l101.803-101.803v-223.185c27.411 39.156 45.028 88.099 45.028 140.959 0 133.129-107.675 242.762-238.846 242.762-58.733 0-113.548-21.534-154.661-58.732 1.957 0 246.677 0 246.677 0zM62.184 354.292c-27.41-39.155-45.028-88.098-45.028-140.959s15.66-101.803 45.028-140.958v281.917zM422.406 272.066h-99.846v99.846h-82.226v-29.368h-29.368v29.368h-121.382v-330.86c25.453-25.453 56.775-45.028 92.016-56.775v88.099h58.733v-97.888c5.873 0 9.787 0 15.66 0 64.605 0 123.339 27.411 166.406 70.478v227.1zM209.014 121.318h-29.368v29.368h29.368v-29.368zM209.014 183.965h-29.368v29.368h29.368v-29.368zM209.014 246.616h-29.368v29.368h29.368v-29.368zM209.014 309.264h-29.368v29.368h29.368v-29.368zM240.34 88.037h-29.368v29.368h29.368v-29.368zM240.34 152.643h-29.368v29.368h29.368v-29.368zM240.34 215.291h-29.368v29.368h29.368v-29.368zM240.34 277.938h-29.368v29.368h29.368v-29.368zM383.256 74.332v-27.411h-105.718v25.453l68.52 107.675h-66.563v27.411h101.803v-25.453l-66.563-107.675h68.52z" />
<glyph unicode="&#xe611;" glyph-name="powerpoint" d="M63.999 352.191c-27.428-39.429-42.858-87.429-42.858-138.858s17.143-99.429 44.572-138.858v277.716zM345.143 396.762l101.143-101.143v-221.144c27.428 39.429 44.572 87.429 44.572 138.858 0 132.001-106.287 240.002-234.859 240.002-58.286 0-111.429-22.286-152.573-58.286 0 1.714 241.716 1.714 241.716 1.714zM194.285 273.333h-8.572v-63.429h8.572c24 0 60-3.428 60 30.858 0 36-36 32.572-60 32.572zM420.573 271.619h-97.715v97.715h-231.43v-327.43c42.858-42.858 101.143-68.572 164.573-68.572 65.143 0 123.429 25.714 164.573 68.572v229.716zM238.857 65.904h-25.714v25.714h25.714v-25.714zM238.857 115.618h-25.714v25.714h25.714v-25.714zM214.857 172.19h-30.858v-108.001h-44.572v246.859h87.429c53.143 0 73.715-37.714 73.715-70.286 0-34.286-20.572-68.572-85.715-68.572zM370.858 65.904h-106.287v25.714h106.287c0 0 0-25.714 0-25.714zM264.572 115.618v25.714h106.287v-25.714h-106.287z" />
<glyph unicode="&#xe612;" glyph-name="excel" d="M62.471 354.082c-27.367-39.096-44.962-87.968-44.962-140.749s15.638-101.653 44.962-140.749v281.497zM345.924 397.092l101.653-101.652v-222.854c27.366 39.096 44.962 87.968 44.962 140.749 0 132.929-107.515 242.401-238.492 242.401-58.643 0-113.382-21.505-154.435-58.644 1.957 0 246.311 0 246.311 0zM154.347 230.929v-7.819l156.387-158.344h13.686v17.596l-148.567 148.568zM422.163 271.977h-99.696v99.696h-232.625v-330.368c43.005-43.005 101.653-70.376 166.163-70.376s123.158 27.366 166.163 70.376v230.673zM312.69 51.080l-76.239 76.239-39.096-41.053h37.143c-5.867-5.867-17.596-17.596-25.415-27.366h-82.105v21.505l74.286 74.286-66.467 66.467v21.505h84.058l50.825-50.825 50.825 50.825h46.915v-21.505l-70.377-74.286h17.596l39.096-39.096 31.276-29.324v-27.366c1.957 0-72.329 0-72.329 0z" />
<glyph unicode="&#xe613;" glyph-name="word" d="M64.064 353.976c-28.129-39.711-44.675-87.695-44.675-140.643s16.546-100.932 44.675-140.643v281.285zM347.004 396.996l102.586-100.932v-221.719c28.129 39.711 44.675 87.695 44.675 140.643 0 132.369-105.896 241.574-236.61 241.574-57.912 0-112.514-21.51-153.879-57.912-1.655-1.655 243.229-1.655 243.229-1.655zM421.462 271.245h-99.277l-1.655 99.277h-229.992v-329.269c43.020-43.020 100.932-69.494 165.462-69.494s122.442 26.474 165.462 69.494v229.992zM376.787 216.642l-79.422-160.498h-38.056v107.55l-59.566-105.896h-57.912v160.498h-18.201v26.474h76.112v-26.474h-18.201v-97.622l72.803 124.096h43.020v-110.859l41.365 84.386h-14.892v26.474h69.494v-26.474h-16.546z" />
<glyph unicode="&#xe614;" glyph-name="pdf" d="M65.588 350.761c-26.492-38.082-43.050-86.1-43.050-137.428s16.558-99.346 43.050-137.428v274.856zM264.279 193.464c0 0-1.656 1.656-1.656 3.312-11.59 16.558-16.558 29.804-18.213 29.804 0 1.656-1.656 3.312-1.656 3.312s0 0 0-1.656-1.656-4.967-3.312-9.935c-8.279-21.525-16.558-39.738-16.558-39.738s-4.967-8.279-6.623-13.246c-4.967-11.59-11.59-21.525-16.558-29.804 28.148 11.59 61.263 21.525 94.378 26.492-4.967 3.312-8.279 6.623-13.246 9.935-4.967 6.623-11.59 13.246-16.558 21.525zM345.411 393.811l101.001-101.001v-218.56c28.148 39.738 43.050 86.1 43.050 137.428 0 130.805-104.313 238.429-233.462 238.429-57.952 0-110.936-21.525-150.674-56.296 0 0 240.085 0 240.085 0zM419.92 269.629h-97.69v97.69h-230.151v-324.529c41.394-43.050 99.346-67.886 163.92-67.886s120.87 26.492 163.92 67.886v226.839zM403.363 143.791v-1.656c-1.656-4.967-4.967-9.935-19.869-9.935-18.213 0-46.361 8.279-71.198 21.525-41.394-4.967-86.1-13.246-117.559-24.836-29.804-51.329-52.984-76.165-69.542-76.165-3.312 0-4.967 0-6.623 1.656l-8.279 3.312c-1.656 3.312-3.312 6.623-1.656 9.935 3.312 13.246 18.213 34.771 54.64 52.984l3.312-4.967c-26.492-18.213-44.706-43.050-46.361-52.984 18.213 4.967 46.361 43.050 81.132 114.247 0 0 0 1.656 1.656 3.312 0 1.656 1.656 1.656 1.656 3.312l1.656 3.312c1.656 1.656 1.656 4.967 4.967 9.935 3.312 6.623 6.623 14.902 11.59 28.148v0l1.656 3.312c3.312 8.279 6.623 16.558 8.279 24.836-9.935 31.459-11.59 64.575-6.623 84.444 1.656 8.279 6.623 9.935 9.935 9.935h4.967c1.656 0 6.623 0 9.935-3.312s3.312-9.935 1.656-18.213h-4.967c-1.656 8.279-3.312 11.59-6.623 14.902 0-1.656-1.656-3.312-3.312-4.967-3.312-9.935-1.656-29.804 1.656-51.329 1.656 8.279 3.312 16.558 3.312 23.181 1.656 6.623 1.656 11.59 3.312 14.902h4.967v-8.279c0-18.213 0-36.427-4.967-57.952 1.656-6.623 4.967-11.59 6.623-18.213v0l1.656-3.312c3.312-8.279 13.246-24.836 13.246-24.836 4.967-8.279 13.246-16.558 21.525-24.836 8.279-6.623 16.558-11.59 24.836-16.558 13.246 1.656 24.836 1.656 34.771 1.656 18.213 0 43.050-1.656 49.673-13.246 4.967-3.312 6.623-6.623 4.967-13.246v0 0zM396.74 148.758c-1.656 1.656-9.935 8.279-43.050 8.279-3.312 0-6.623 0-11.59 0 18.213-8.279 36.427-11.59 48.017-11.59 3.312 0 6.623 0 8.279 1.656v0h-1.656c0 0 0 0 0 1.656z" />
<glyph unicode="&#xe615;" glyph-name="share" d="M491.284 72.841c-8.464-50.781-55.858-84.633-104.947-76.17-50.781 8.464-84.634 55.858-76.17 104.947 0 0 0 0 0 0l-118.488 50.781c-16.927-18.62-44.009-28.775-71.093-23.697-44.009 6.771-72.785 47.395-66.015 91.406s47.395 72.786 91.406 66.015c13.541-1.693 27.084-8.464 37.238-16.927l126.951 74.478c-1.693 6.771-1.693 13.541 0 20.311 6.771 37.239 40.625 62.629 77.863 55.859s62.629-40.625 55.858-77.863c-6.771-37.238-40.625-62.629-77.863-55.858-11.849 1.693-20.312 6.77-28.775 11.849l-126.951-74.478c1.693-8.464 1.693-15.234 1.693-23.698l121.874-50.781c20.312 22.005 50.781 33.854 81.249 28.775 49.088-6.771 84.634-54.166 76.17-104.947z" />
<glyph unicode="&#xe616;" glyph-name="facebook" d="M298.123 197.538h68.447l10.53 78.978h-78.978v50.897c0 21.060 7.020 40.368 40.368 40.368h43.877v70.202c-7.020 0-33.347 3.51-61.428 3.51-61.428 0-105.305-36.857-105.305-108.815v-61.428h-68.447v-78.978h68.447v-203.588h82.488v208.852z" />
<glyph unicode="&#xe617;" glyph-name="linkedin" d="M160.28 380.843c0-27.532-22.319-49.855-49.855-49.855s-49.855 22.318-49.855 49.855c0 27.531 22.319 49.855 49.855 49.855s49.855-22.319 49.855-49.855zM68.55 295.093h83.755v-269.214h-83.755v269.214zM365.68 303.073c-39.885 0-67.8-21.935-77.775-43.87v37.89h-83.755v-269.214h83.755v133.61c0 33.9 5.985 67.8 49.855 67.8s43.87-39.885 43.87-71.79v-131.615h83.755v147.57c0 71.79-15.955 129.62-99.71 129.62z" />
<glyph unicode="&#xe618;" glyph-name="youtube" d="M489.853 327.541c0 0-5.438 34.442-18.127 47.132-18.127 18.127-38.070 18.127-47.132 19.94-68.887 5.438-168.592 5.438-168.592 5.438s-99.705 0-168.592-5.438c-9.065 0-29.005 0-47.133-19.94-14.502-14.502-18.128-47.132-18.128-47.132s-5.438-41.695-5.438-79.763v-36.255c0-41.695 5.438-79.762 5.438-79.762s5.438-34.442 18.128-47.132c18.128-18.127 41.695-18.127 52.572-19.94 38.070-1.813 163.153-5.438 163.153-5.438s99.705 0 168.592 5.438c9.065 0 29.005 0 47.132 19.94 14.502 14.502 18.127 47.132 18.127 47.132s5.438 38.070 5.438 79.762v36.255c0 41.695-5.438 79.763-5.438 79.763zM185.3 129.943v197.597l186.72-97.893-186.72-99.705z" />
<glyph unicode="&#xe619;" glyph-name="twitter" d="M452.38 298.715c0-5.122 0-8.538 0-13.661 0-128.073-97.335-274.931-274.931-274.931-54.644 0-104.167 15.369-148.565 42.691 6.831 0 15.369-1.708 22.2-1.708 46.107 0 87.090 15.369 121.243 40.983-42.691 0-76.844 29.030-90.504 66.599 6.831-1.708 11.953-1.708 18.784-1.708 8.538 0 18.784 1.708 25.614 1.708-42.691 8.538-76.844 47.813-76.844 95.629 0 0 0 0 0 1.708 13.661-6.83 27.322-11.953 42.691-11.953-25.614 18.784-42.691 47.813-42.691 80.26 0 18.784 5.123 34.153 13.661 47.813 47.813-59.768 117.828-97.335 198.087-100.751-5.123 6.831-5.123 13.661-5.123 23.908 0 52.938 42.691 95.628 95.628 95.628 27.322 0 52.938-11.953 70.013-29.030 22.2 5.123 42.691 11.953 61.474 22.2-5.123-23.908-22.2-40.983-42.691-52.938 20.491 1.708 39.276 6.83 54.644 15.369-6.83-15.369-22.2-34.152-42.691-47.814z" />
<glyph unicode="&#xe61a;" glyph-name="pinterest" d="M289.162 102.146c-31.21 0-58.522 15.605-68.276 35.114 0 0-15.605-64.372-19.509-76.079-11.707-44.863-48.767-89.731-50.719-91.683s-5.851-1.952-5.851 1.952c0 5.851-9.755 60.468 0 107.288 5.851 21.456 37.060 154.104 37.060 154.104s-7.803 17.557-7.803 44.863c0 42.916 23.407 72.174 54.618 72.174 25.359 0 39.012-17.557 39.012-42.917s-15.605-64.372-23.407-99.486c-5.851-31.21 13.653-54.618 44.863-54.618 52.666 0 89.731 68.276 89.731 150.2 0 60.468-40.964 107.288-117.038 107.288-89.731 0-142.397-64.372-142.397-134.594 0-23.407 7.802-42.917 17.557-54.618 5.851-5.851 5.851-7.803 3.904-15.605-1.952-5.851-3.904-17.557-5.851-21.455-1.952-9.755-7.802-11.707-13.653-9.755-39.013 15.605-56.569 58.522-56.569 107.289-1.952 78.025 66.324 175.559 198.966 175.559 107.288 0 177.511-76.079 177.511-159.954-1.952-111.187-62.42-195.068-152.151-195.068z" />
<glyph unicode="&#xe61b;" glyph-name="vimeo" d="M393.325 116.833c-63.098-83.508-116.914-122.481-161.45-122.481-25.981 0-50.106 24.125-68.664 74.231-12.992 46.394-24.125 92.789-37.114 139.183-12.992 50.106-27.836 74.231-44.539 74.231-3.711 0-14.847-7.422-37.114-22.269l-22.27 27.836c24.125 20.414 48.25 40.828 70.519 63.097 31.547 25.981 51.961 38.972 68.664 42.683 37.113 3.711 59.383-22.269 68.664-74.231 9.278-57.527 14.847-92.789 20.414-107.633 11.133-48.25 22.269-70.519 35.258-70.519 9.277 0 24.125 14.848 44.539 46.394s31.547 55.672 31.547 70.52c1.856 25.981-7.422 38.972-31.547 38.972-11.133 0-22.269-1.856-35.258-7.422 22.269 74.231 66.808 111.344 131.758 109.489 48.25-1.856 70.519-33.403 68.664-94.644-9.277-44.539-38.972-107.633-102.067-187.43z" />
</font>
</defs>
</svg>
