<?xml version="1.0" encoding="UTF-8"?>
<svg enable-background="new 0 0 205.505 205.505" version="1.1" viewBox="0 0 205.5 205.5" xml:space="preserve" xmlns="http://www.w3.org/2000/svg">

	<g fill="#010002">
		<path d="m118.33 121.08c11.474-12.598 17.783-28.81 17.783-45.713 0-37.531-30.524-68.063-68.052-68.063-37.531 1e-3 -68.059 30.532-68.059 68.063 0 37.524 30.528 68.059 68.059 68.059 16.957 0 33.212-6.342 45.827-17.88l87.217 72.332 0.401 0.329 4.001-4.824-87.177-72.303zm-50.273 16.069c-34.074 0-61.785-27.711-61.785-61.785s27.715-61.782 61.785-61.782c34.067 0 61.785 27.711 61.785 61.785s-27.717 61.782-61.785 61.782z"/>
		<path d="m68.045 57.523c-17.719 0-31.748 16.141-32.349 16.828l-0.863 1.013 0.863 1.013c0.601 0.687 14.63 16.828 32.349 16.828 17.722 0 31.762-16.137 32.353-16.828l0.87-1.013-0.87-1.013c-0.591-0.688-14.631-16.828-32.353-16.828zm29.064 17.84c-3.053 3.167-15.131 14.738-29.064 14.738-13.897 0-26-11.567-29.053-14.738 3.751-3.901 15.389-14.734 29.053-14.734 13.914-3e-3 26.011 11.564 29.064 14.734z"/>
		<path d="m62.132 75.363c0 3.267 2.648 5.923 5.912 5.923 3.275 0 5.93-2.656 5.93-5.923 0-3.26-2.656-5.923-5.93-5.923-3.26 0-5.912 2.663-5.912 5.923z"/>
	</g>

</svg>
