<?xml version="1.0" encoding="utf-8"?>
<!-- Generator: Adobe Illustrator 26.0.0, SVG Export Plug-In . SVG Version: 6.00 Build 0)  -->
<svg version="1.1" id="Layer_1" xmlns="http://www.w3.org/2000/svg" xmlns:xlink="http://www.w3.org/1999/xlink" x="0px" y="0px"
	 viewBox="0 0 440 330" style="enable-background:new 0 0 440 330;" xml:space="preserve">
<style type="text/css">
	.st0{fill:#DCDBFF;}
	.st1{fill:#FFFFFF;}
	.st2{fill:#F0F0FF;}
	.st3{fill:none;}
	.st4{fill:#F9FAFA;}
</style>
<g id="Layer_105">
	<path d="M347.8,114.9l-2.7,120.3H91.6l2.7-120.3H347.8 M349.5,113.2H92.7l-2.8,123.7h256.9L349.5,113.2L349.5,113.2z"/>
</g>
<g id="Layer_103">
	<path d="M347.8,114.9l-2.7,120.3H91.6l2.7-120.3H347.8 M349.5,113.2H92.7l-2.8,123.7h256.9L349.5,113.2L349.5,113.2z"/>
</g>
<g id="Layer_102">
	<polygon points="238.2,220.7 236.6,235.8 286,236.6 294.4,214 	"/>
</g>
<g id="Layer_100">
	<path d="M300.9,208.3l6.1-74.6c0,0,33.3,2.9,41.4-20.4h-57.3l-11,96L300.9,208.3z"/>
</g>
<g id="tint-3">
	<polygon class="st0" points="57.7,81 42.9,81 43.2,68.3 58,68.3 	"/>
</g>
<g id="Layer_97">
	<path d="M58.7,81.9H41.9l0.3-14.6h16.7L58.7,81.9z M43.9,80h13L57,69.2H44.1L43.9,80z"/>
</g>
<g id="tint-3-2">
	<polygon class="st0" points="72.5,81 57.7,81 58,68.3 72.8,68.3 	"/>
</g>
<g id="Layer_95">
	<path d="M73.4,81.9H56.7l0.3-14.6h16.7L73.4,81.9z M58.7,80h12.9l0.2-10.8H58.9L58.7,80z"/>
</g>
<g id="tint-3-3">
	<polygon class="st0" points="57.4,93.7 42.6,93.7 42.9,81 57.7,81 	"/>
</g>
<g id="Layer_93">
	<path d="M58.3,94.6H41.7L42,80h16.7L58.3,94.6z M43.5,92.7h13l0.2-10.8h-13L43.5,92.7z"/>
</g>
<g id="tint-3-4">
	<polygon class="st0" points="72.2,93.7 57.4,93.7 57.7,81 72.5,81 	"/>
</g>
<g id="Layer_91">
	<path d="M73.1,94.6H56.4L56.8,80h16.7L73.1,94.6z M58.3,92.7h13l0.2-10.8H58.7L58.3,92.7z"/>
</g>
<g id="tint-3-5">
	<polygon class="st0" points="57.1,106.4 42.3,106.4 42.6,93.7 57.4,93.7 	"/>
</g>
<g id="Layer_89">
	<path d="M58,107.3H41.3l0.3-14.6h16.7L58,107.3z M43.2,105.4h13l0.2-10.8h-13L43.2,105.4z"/>
</g>
<g id="tint-3-6">
	<polygon class="st0" points="71.9,106.4 57.1,106.4 57.4,93.7 72.2,93.7 	"/>
</g>
<g id="Layer_87">
	<path d="M72.8,107.3H56.2l0.3-14.6h16.6L72.8,107.3z M58,105.4h13l0.2-10.8H58.3L58,105.4z"/>
</g>
<g id="tint-3-7">
	<polygon class="st0" points="56.8,119 42,119 42.3,106.4 57.1,106.4 	"/>
</g>
<g id="Layer_85">
	<path d="M57.7,120H41l0.3-14.6H58L57.7,120z M43,118.1h12.9l0.2-10.8H43.2L43,118.1z"/>
</g>
<g id="tint-3-8">
	<polygon class="st0" points="71.6,119 56.8,119 57.1,106.4 71.9,106.4 	"/>
</g>
<g id="Layer_83">
	<path d="M72.5,120H55.9l0.3-14.6h16.6L72.5,120z M57.8,118.2h13l0.3-10.9H58L57.8,118.2z"/>
</g>
<g id="tint-3-9">
	<polygon class="st0" points="56.5,131.7 41.7,131.7 42,119 56.8,119 	"/>
</g>
<g id="Layer_81">
	<path d="M57.4,132.7H40.8l0.3-14.6h16.7L57.4,132.7z M42.7,130.8h13l0.2-10.8H42.9L42.7,130.8z"/>
</g>
<g id="tint-3-10">
	<polygon class="st0" points="71.3,131.7 56.5,131.7 56.8,119 71.6,119 	"/>
</g>
<g id="Layer_79">
	<path d="M72.3,132.7H55.6l0.3-14.6h16.6L72.3,132.7z M57.5,130.8h13l0.2-10.8H57.7L57.5,130.8z"/>
</g>
<g id="tint-3-11">
	<polygon class="st0" points="56.2,144.4 41.4,144.4 41.7,131.7 56.5,131.7 	"/>
</g>
<g id="Layer_77">
	<path d="M57.2,145.4H40.5l0.3-14.6h16.7L57.2,145.4z M42.4,143.5h12.9l0.2-10.8H42.6L42.4,143.5z"/>
</g>
<g id="Layer_76">
	<polygon class="st0" points="71,144.4 56.2,144.4 56.5,131.7 71.3,131.7 	"/>
</g>
<g id="Layer_75">
	<path d="M72,145.4H55.3l0.3-14.6h16.7L72,145.4z M57.2,143.5h12.9l0.2-10.8H57.4L57.2,143.5z"/>
</g>
<g id="Layer_74">
	<polygon class="st0" points="55.9,157.1 41.1,157.1 41.4,144.4 56.2,144.4 	"/>
</g>
<g id="Layer_73">
	<path d="M56.9,158H40.2l0.3-14.6h16.7L56.9,158z M42.1,156.1H55l0.2-10.8H42.3L42.1,156.1z"/>
</g>
<g id="Layer_72">
	<polygon class="st0" points="70.8,157.1 55.9,157.1 56.2,144.4 71,144.4 	"/>
</g>
<g id="Layer_71">
	<path d="M71.7,158H55l0.3-14.6H72L71.7,158z M57,156.2h12.9l0.2-10.8h-13L57,156.2z"/>
</g>
<g id="Layer_70">
	<polyline class="st1" points="174.6,213.5 145.1,300.7 125.6,317.6 169,314.5 197.5,212.5 	"/>
</g>
<g id="Layer_69">
	<polygon points="123.1,318.6 144.4,300.2 173.8,213.2 175.4,213.8 145.8,301.2 128.1,316.6 168.4,313.7 196.7,212.3 198.3,212.8 
		169.7,315.3 	"/>
</g>
<g id="Layer_68">
	<polyline class="st1" points="238.4,199.9 237.6,300.1 258.6,312.8 204.9,310.5 215.3,210.9 	"/>
</g>
<g id="Layer_67">
	<polygon points="261.9,313.8 203.9,311.2 214.4,210.8 216.1,211 205.8,309.6 255.3,311.9 236.7,300.6 237.6,199.9 239.3,199.9 
		238.5,299.7 	"/>
</g>
<g id="Layer_66">
	<path d="M237.6,227.4c0,0-13.5-6.2-24,2.6c-2.9-7.5,2.3-9.9,2.3-9.9l21.4-2.9L237.6,227.4z"/>
</g>
<g id="Layer_65">
	<path class="st1" d="M300.5,83.6c10.7,2.6,21.9,3.2,32.8,1.5c6.1-0.9,12.5-2.6,16.7-8.5c2.1-3,3.1-6.7,2.6-10.3
		c-0.4-3.3-2.6-5.1-12.3-12.8c-8.2-6.5-10.9-8.4-10.5-10.2s3.8-2.7,6-2.5c2,0.2,3.8,1.2,5.1,2.8c0.1-1,0.1-2,0-3
		c-0.1-1.3-0.4-2.5-0.7-3.7c-1.2-3.9-8.3-7.4-8.1-11.2c0.4-2.3,2.3-4.1,4.7-4.2c1.8,0,3,1.5,6.1,5.1c1.7,1.8,3.9,4.4,6.8,7.3
		c-0.2-1.4-0.6-3.6-1.2-6.3c-1.7-7.5-3.2-10.1-1.7-12c1.3-1.6,3.5-2.2,5.4-1.4c1.7,0.9,1.7,3.5,2.4,7.5c1.1,6.3,3.1,10.7,3.4,10.7
		c2,0.2,2-3.4-0.4-11.5c-0.5-1.7-0.1-3.5,1.1-4.8c0.9-0.9,2.3-1.3,3.6-1.1c2.6,0.7,3.7,4.8,4.3,6.8c3.2,12,6.4,24.2,7.5,36.8
		s-0.3,25.9-5.7,37c-7.1,14.6-20.4,23.7-34.1,27.7c-18.9,5.5-34.7,4.6-42.1,3"/>
</g>
<g id="Layer_64">
	<path d="M305.6,128.4c-4.6,0.1-9.2-0.4-13.7-1.2c-0.5-0.1-0.7-0.5-0.6-1l0,0c0.1-0.5,0.5-0.7,1-0.7c8.3,1.8,24.2,2.1,41.7-3
		c15.1-4.4,27.3-14.3,33.6-27.2c6.1-12.5,6.4-26.7,5.6-36.5c-1-12.6-4.3-24.8-7.4-36.7c-0.4-1.4-1.5-5.5-3.7-6.1
		c-1-0.2-2.1,0.1-2.8,0.9c-1,1.1-1.3,2.6-0.9,3.9c2.6,8.7,2,10.9,1.2,11.9c-0.4,0.5-1.1,0.8-1.7,0.7c-1.5-0.1-3.5-8.1-4.1-11.4
		c-0.2-0.9-0.3-1.7-0.4-2.4c-0.4-2.6-0.6-3.9-1.6-4.4c-1.5-0.6-3.3-0.1-4.3,1.2c-0.8,1-0.5,2.3,0.5,6c0.4,1.5,0.9,3.2,1.4,5.4
		s0.9,4.3,1.2,6.4c0.1,0.4-0.1,0.7-0.4,0.9c-0.3,0.2-0.7,0.1-1-0.2c-2.4-2.4-4.7-4.9-6.9-7.4l-0.7-0.8c-2.7-3.1-3.5-4-4.8-4
		c-1.8,0.2-3.3,1.6-3.7,3.4c-0.1,1.7,1.9,3.7,3.8,5.5c1.8,1.4,3.2,3.2,4.2,5.2c0.7,2.3,0.9,4.6,0.7,7c0,0.5-0.4,0.8-0.9,0.8
		c-0.2,0-0.4-0.1-0.6-0.3c-1.2-1.3-2.8-2.2-4.6-2.4c-2.1-0.1-4.8,0.7-5.1,1.8s2.4,3.2,8.3,7.8l1.9,1.5c9.8,7.7,12.1,9.6,12.6,13.3
		c0.5,3.9-0.5,7.8-2.8,10.9c-4.4,6.2-11.2,8-17.3,8.9c-11,1.6-22.3,1.1-33.1-1.6c-0.4-0.1-0.7-0.5-0.6-1c0,0,0,0,0,0l0,0l0,0
		c0.1-0.4,0.5-0.7,1-0.6c0,0,0,0,0,0l0,0c10.6,2.6,21.6,3.1,32.5,1.6c6-0.9,12.1-2.5,16.2-8.2c2-2.8,2.9-6.3,2.5-9.7
		c-0.4-2.9-2.2-4.5-11.9-12.2l-1.8-1.6c-7.2-5.7-9.4-7.3-8.9-9.5c0.5-2.5,4.4-3.4,6.8-3.2c1.6,0.1,3.1,0.7,4.4,1.7v-1
		c-0.1-1.2-0.3-2.4-0.7-3.5c-0.9-1.8-2.2-3.4-3.8-4.7c-2.2-2.1-4.5-4.3-4.4-6.8c0.4-2.7,2.6-4.7,5.3-5c2.1-0.1,3.4,1.4,6.1,4.6
		l0.7,0.8c1.6,1.8,3.2,3.6,4.9,5.3c-0.2-1.2-0.5-2.4-0.7-3.6c-0.5-2.1-1-3.9-1.4-5.3c-1-3.8-1.5-5.7-0.2-7.4c1.5-2,4.2-2.7,6.5-1.7
		c1.7,1,2,2.9,2.5,5.7c0.1,0.7,0.2,1.5,0.4,2.4c0.6,3.4,1.5,6.7,2.9,9.9c0.3-0.5,0.8-2.4-1.6-10.2c-0.6-2-0.1-4.1,1.3-5.6
		c1.2-1.2,2.8-1.6,4.5-1.3c3.1,0.9,4.4,5.6,4.8,7.3c3.2,11.9,6.5,24.2,7.5,37c0.8,10,0.5,24.6-5.7,37.4
		c-6.5,13.3-19.1,23.6-34.7,28.1C325.1,126.9,315.4,128.4,305.6,128.4z"/>
</g>
<g id="Layer_63">
	<path d="M342.6,47h-0.2c-0.4-0.1-0.7-0.6-0.6-1.1c2.6-8.8,10.7-15.1,18.6-14.3l2.6,0.5c0.5,0.1,0.8,0.5,0.7,1c0,0,0,0,0,0l0,0
		c-0.1,0.5-0.5,0.8-1,0.7c0,0,0,0,0,0l0,0l-2.6-0.6c-7-0.7-14.4,5.1-16.7,13.1C343.3,46.7,343,47,342.6,47z"/>
</g>
<g id="Layer_61">
	<polygon class="st1" points="121.8,216.7 132.7,33.9 301.5,40.4 290.5,223.2 	"/>
</g>
<g id="Layer_60">
	<path d="M133.5,34.8l167.1,6.4l-10.8,181.1l-167.1-6.4L133.5,34.8 M131.9,33.1l-11,184.5l170.5,6.5l11-184.5L131.9,33.1L131.9,33.1
		z"/>
</g>
<g id="tint-2">
	<polygon class="st2" points="138.6,134.1 140.8,197.9 253.8,202.7 256,141.1 	"/>
</g>
<g id="tint-3-12">
	<polygon class="st0" points="139.7,98.5 138.3,127.9 276.1,133.2 276.9,101.7 	"/>
</g>
<g id="tint-2-2">
	<polygon class="st2" points="286.6,223.2 297.5,40.4 307.6,41 296.7,223.8 	"/>
</g>
<g id="Layer_56">
	<path d="M298.3,41.3l8.4,0.5l-10.8,181.1l-8.5-0.5L298.3,41.3 M296.6,39.5L285.6,224l11.9,0.7l11-184.5L296.6,39.5z"/>
</g>
<g id="Layer_55">
	<polygon points="144.8,87.5 144.9,94.4 166,95.5 166.6,88.7 	"/>
</g>
<g id="Layer_54">
	<line class="st3" x1="148.1" y1="103.3" x2="214.4" y2="105.9"/>
</g>
<g id="Layer_53">
	
		<rect x="180.7" y="71.3" transform="matrix(3.995742e-02 -0.9992 0.9992 3.995742e-02 69.8532 281.7663)" width="1.7" height="66.4"/>
</g>
<g id="Layer_52">
	<line class="st3" x1="148.2" y1="110.1" x2="214.6" y2="112.7"/>
</g>
<g id="Layer_51">
	
		<rect x="180.6" y="78.2" transform="matrix(3.891107e-02 -0.9992 0.9992 3.891107e-02 63.0324 288.36)" width="1.7" height="66.4"/>
</g>
<g id="Layer_50">
	<line class="st3" x1="148.4" y1="116.9" x2="214.7" y2="119.5"/>
</g>
<g id="Layer_49">
	
		<rect x="180.7" y="85" transform="matrix(3.891107e-02 -0.9992 0.9992 3.891107e-02 56.3772 295.0708)" width="1.7" height="66.4"/>
</g>
<g id="Layer_48">
	<path d="M122.7,201.1c0,0,21.1,7.8,28.4,0.3c-22.8-7.5-20.5-6.4-20.5-6.4h-7.2L122.7,201.1z"/>
</g>
<g id="Layer_47">
	<path d="M140.8,205.5c-6.3-0.3-12.4-1.5-18.3-3.6l-0.6-0.2l0.7-7.5h8c1.5,0,6,1.5,20.8,6.4l1.3,0.4l-0.9,1
		C149.1,204.6,145.1,205.5,140.8,205.5z M123.6,200.5c3.3,1.1,18.9,6,25.8,1.2c-13.8-4.5-17.6-5.6-18.6-5.9H124L123.6,200.5z"/>
</g>
<g id="Layer_46">
	<path class="st1" d="M139.9,190.2c5.6-0.5,11.2,0.3,16.4,2.3c2.1,0.8,4.4,2.3,4.3,4.7c-0.2,1.7-1.3,3.3-2.9,4
		c-1.5,0.6-3.1,0.9-4.7,0.9c-11.7,0.2-23.1-1.9-34.4-4.6c-10.8-2.6-21.6-5.6-30.8-11.7c-9.2-6.2-16.5-14.8-21-25
		c-3.8-8.6-4.8-18.2-2.8-27.5c1.9-8.7,5.9-14.2,11-21.4c4.2-5.9,15.5-21.2,35.3-29.8c6.4-2.8,13.1-4.6,20-5.4l-3.7,41.9
		c-1.7-0.1-14.5-0.5-23.4,9.5c-3.2,3.6-5.5,7.9-7,12.5c-1,2.9-1.5,6-1.4,9.1c0.1,3.8,1,7.5,2.7,10.9c3.7,6.8,10.3,8.7,17,10.7
		c7.1,2.1,14.6,2.6,22,1.6c2.8-0.6,15.6-3.4,17.9-0.3c0.4,0.5,0.7,1.2,0.6,1.8c-0.3,1.8-3.6,2.4-3.9,2.5"/>
</g>
<g id="Layer_45">
	<path d="M151.2,202.9c-11-0.3-22-1.8-32.7-4.7c-9.9-2.4-21.3-5.4-31.1-11.8c-9.4-6.3-16.8-15.1-21.4-25.5
		c-3.9-8.8-4.9-18.5-2.9-27.9c1.9-8.8,6-14.5,11.1-21.7c3.8-5.2,15.3-21.2,35.7-30.1c6.4-2.8,13.2-4.7,20.2-5.5h1l-3.8,43.7h-0.8
		c-2.3-0.1-14.4-0.3-22.8,9.2c-3,3.6-5.3,7.7-6.8,12.1c-1,2.8-1.5,5.8-1.4,8.8c0,3.7,0.9,7.3,2.6,10.5c3.4,6.4,9.8,8.3,16.5,10.2
		c7,2,14.4,2.5,21.6,1.6c7.2-1.7,16.4-3,18.7,0c0.6,0.7,0.9,1.6,0.8,2.5c-0.4,2.3-3.9,3.1-4.6,3.2l-0.3-1.7c1-0.2,3.1-0.8,3.2-1.8
		c0-0.4-0.2-0.8-0.4-1.2c-1.2-1.7-7.9-1.4-17,0.6c-7.5,1.1-15.1,0.5-22.4-1.6c-6.8-2-13.6-4-17.5-11.1c-1.8-3.5-2.7-7.4-2.8-11.3
		c-0.1-3.1,0.4-6.3,1.4-9.2c1.5-4.8,3.9-9.2,7.2-13c8.2-9.1,19.6-9.8,23.3-9.7l3.5-40.1c-6.4,0.9-12.7,2.6-18.7,5.2
		c-20,8.7-31.3,24.4-34.9,29.5c-5.1,7-9,12.7-10.8,21.2c-2,9-1,18.4,2.7,26.8c4.4,10.1,11.6,18.7,20.7,24.8
		c9.5,6.2,20.8,9.2,30.6,11.6c10.7,2.6,22.2,4.9,34.2,4.6c1.5,0.1,2.9-0.2,4.3-0.8c1.3-0.6,2.2-1.8,2.4-3.2c0-2-2-3.2-3.7-3.9
		c-5.1-1.9-10.6-2.7-16-2.2l-0.1-1.7c5.7-0.5,11.4,0.3,16.8,2.4c3.2,1.2,4.9,3.2,4.8,5.6c-0.2,2.1-1.5,3.9-3.5,4.8
		c-1.6,0.7-3.4,1-5.1,0.9L151.2,202.9z"/>
</g>
<g id="Layer_44">
	<path class="st1" d="M140.4,177.7c1.5-0.1,3-0.3,4.6-0.6c4.3-0.7,8.6-1.1,12.9-1.2c1.2-0.1,2.4,0.2,3.6,0.6c1.2,0.6,1.9,1.7,1.9,3
		c0,1.3-3.1,3.3-4.3,3.1"/>
</g>
<g id="Layer_43">
	<path d="M159.3,183.6H159l0.3-1.7c0.9-0.1,1.8-0.6,2.4-1.2c0.7-0.6,0.9-1,0.9-1.1c0-1-0.6-1.8-1.5-2.2c-1-0.4-2.1-0.6-3.2-0.5
		c-4.3,0.1-8.6,0.5-12.8,1.2c-0.7,0.2-1.4,0.3-2.1,0.3c-0.8,0-1.7,0.1-2.5,0.3l-0.2-1.7c1.6-0.2,2.2-0.2,2.6-0.3
		c0.6,0,1.3-0.1,1.9-0.3c4.3-0.7,8.7-1.1,13.1-1.2c1.3-0.1,2.7,0.2,3.9,0.7c1.5,0.7,2.4,2.2,2.4,3.8c-0.2,1-0.7,1.8-1.5,2.4
		C161.8,182.8,160.6,183.4,159.3,183.6z"/>
</g>
<g id="Layer_42">
	<path class="st1" d="M139.4,182.4c14.4-0.7,24.9,0.1,26.2,2.2c0.6,0.9,0.8,1.8,0.8,2.9c-0.1,0.9-0.4,1.9-1,2.6
		c-1.4,2.1-6.6,2.5-12.8,1h-13.3"/>
</g>
<g id="Layer_41">
	<path d="M159.3,192.8c-2.3,0-4.6-0.3-6.8-0.9h-13.3v-1.7h13.6c6.4,1.6,10.9,0.8,11.9-0.7c0.5-0.7,0.8-1.4,0.9-2.2
		c0-0.8-0.3-1.6-0.7-2.3c-0.7-1.1-8.1-2.6-25.5-1.7v-1.7c7.4-0.3,24.8-0.8,26.9,2.6c0.7,1,1,2.2,1,3.4c-0.1,1.1-0.5,2.2-1.2,3.1
		C165,192.1,162.6,192.8,159.3,192.8z"/>
</g>
<g id="tint-2-3">
	<path class="st4" d="M256.1,246.1h182c-9.3-16.8-31.3-24-47.7-13.4c3.2-18.7-7-38.7-23.8-46.5c-7.7-3.6-14-4.8-19.9-3.6
		c-8.4,1.6-13.4,7-19.9,13.8c-6.4,6.9-11.6,14.8-15.4,23.5c-0.6-0.5-15.3-13-32.9-7.1C265.2,217.2,255.8,230.7,256.1,246.1z"/>
	<circle class="st2" cx="385.2" cy="190.5" r="19.3"/>
</g>
<g id="Layer_39">
	<path d="M439.4,246.8H255.4v-0.7c-0.3-15.4,9.2-29.4,23.1-34.1c15.9-5.3,29.6,4.2,32.8,6.7c3.7-8.4,8.9-16.1,15.2-22.9
		c6.5-6.9,11.6-12.3,20.2-14c6-1.2,12.4,0,20.3,3.7c16.5,7.7,26.8,27.2,24.3,45.7c7.4-4.2,16.1-5.4,24.4-3.2
		c9.8,2.5,18.1,8.9,23,17.7L439.4,246.8z M256.8,245.4H437c-4.8-8-12.5-13.7-21.5-16c-8.4-2.2-17.3-0.8-24.6,3.8l-1.4,0.9l0.3-1.6
		c3.2-18.4-6.9-38.1-23.3-45.7c-7.6-3.6-13.8-4.7-19.5-3.6c-8.2,1.6-13.2,6.9-19.5,13.6c-6.4,6.8-11.5,14.7-15.2,23.3l-0.4,0.9
		l-0.7-0.6c-0.1-0.1-14.8-12.8-32.2-7C265.9,217.7,256.8,230.8,256.8,245.4z"/>
</g>
<g id="Layer_36">
	<path d="M305.9,41.7c-3.3,0-10.3-0.2-25.2-0.8c-16.5-0.6-38.5-1.4-60.4-2.3c-42.5-1.7-85-3.4-87.7-3.5h-0.3v-0.7l-0.1-1
		c0.2-1.5,0.3-3.1,0.3-4.6v-0.9l177,7.1l-0.2,1c-0.4,1.4-0.5,2.9-0.3,4.3l0.5,0.4l-0.3,0.5C308.9,41.5,308.8,41.7,305.9,41.7z"/>
</g>
<g id="Layer_35">
	<path d="M304,112.8c0,0-2.1,15.4,14.9,14.1l-16.5,1.3L304,112.8z"/>
</g>
<g id="Layer_34">
	<path d="M366.2,153.9h-0.5l0.1-3.4c8.2,0.2,14.9-6.9,17.8-13.6c0.5-1.3,1-2.5,1.3-3.9c-3.3-2.3-5.6-5.8-6.2-9.8
		c-0.1-0.8-0.1-1.5,0-2.3c0.2-3.2,3-5.5,6.1-5.3c3.1,0.2,5.4,2.8,5.3,5.9c0,0.1,0,0.1,0,0.2l0,0c-0.2,3.2-0.6,6.4-1.2,9.6
		c0.6,0.2,1.1,0.5,1.7,0.6c9.2,2.8,19.4-3.4,24.6-11.2c5.8-8.5,7.8-19.4,9.6-29l3.4,0.6c-1.8,9.9-3.9,21.2-10.2,30.3
		c-5.9,8.8-17.7,15.8-28.5,12.4c-0.5-0.2-1-0.4-1.5-0.6c-0.4,1.2-0.8,2.3-1.3,3.4C383.5,145.8,375.8,153.9,366.2,153.9z
		 M384.4,119.1c-1.2-0.1-2.2,0.8-2.3,2v0.1c-0.1,0.5-0.1,1,0,1.6c0.4,2.6,1.7,4.9,3.7,6.6c0.5-2.6,0.8-5.2,0.9-7.8
		c0.1-1.2-0.7-2.3-1.9-2.4L384.4,119.1L384.4,119.1z"/>
</g>
<g id="Layer_33">
	<path d="M125.3,302.7c-10.2-17.6-30.9-26.1-50.6-20.9l-1.1,0.3v-1.1c0.3-15.2-6.2-29.8-17.7-39.8c-11.5-9.8-26.8-13.8-41.6-11.1
		l-0.3-1.7c15.4-2.9,31.2,1.3,43.1,11.4c11.6,10.1,18.2,24.7,18.2,40.1c20.1-4.8,41,4.2,51.4,22.1L125.3,302.7z"/>
</g>
<g id="Layer_32">
	<polygon points="19.9,169.1 22.6,182.5 35.7,185.6 22.4,188.6 19.1,202 16.4,188.6 3.3,185.6 16.5,182.5 	"/>
</g>
<g id="Layer_31">
	<path d="M19,205.9l-3.4-16.5l-16-3.8l16.3-3.8l4.1-16.5l3.4,16.5l16.1,3.8l-16.2,3.8L19,205.9z"/>
</g>
<g id="Layer_29">
	<path d="M170.8,224.2c7.4-3.6,16.4-1.7,21.7,4.6c2.9-7.5,2.3-8.7,2.3-8.7l-22.8-1.2L170.8,224.2z"/>
</g>
<g id="Layer_28">
	<path class="st0" d="M153.1,148.8c-4.1-0.1-7.4-3.5-7.4-7.6c0.1-4.1,3.5-7.4,7.6-7.4l0,0l0,0l34.5,1.3c4.1,0.1,7.4,3.5,7.4,7.6
		c-0.1,4.1-3.5,7.4-7.6,7.4L153.1,148.8z"/>
</g>
<g id="Layer_27">
	<path d="M153.3,134.7h0.2l34.3,1.3c3.7-0.1,6.7,2.9,6.8,6.5c0.1,3.7-2.9,6.7-6.5,6.8h-0.7l-34.2-1.3c-3.7-0.2-6.5-3.3-6.3-7
		C147,137.5,149.8,134.8,153.3,134.7 M153.3,133c-4.5,0-8.1,3.5-8.3,8l0,0c-0.2,4.6,3.4,8.4,8,8.6l34.3,1.3h0.3c4.5,0,8.1-3.5,8.4-8
		l0,0c0.2-4.6-3.4-8.4-8-8.6l-34.3-1.4L153.3,133z"/>
</g>
<g id="Layer_26">
	<line class="st3" x1="232.5" y1="155.4" x2="267.7" y2="156.7"/>
</g>
<g id="Layer_25">
	
		<rect x="249.3" y="138.4" transform="matrix(3.699259e-02 -0.9993 0.9993 3.699259e-02 84.9321 400.1801)" width="1.7" height="35.2"/>
</g>
<g id="Layer_22">
	<path d="M170.5,80.3l-6.4-0.6c0.2-3.7,0.3-7.2,0.5-11.1L154.1,68c-0.3,3.7-0.5,7.4-0.8,11.1l-6.8-0.2l1.7-28.4l6.3,0.5V61l10.4,0.6
		c0.3-3.6,0.6-6.8,0.9-10.4l6.4,0.6L170.5,80.3z"/>
</g>
<g id="Layer_21">
	<path d="M195.4,71.8h-13.8c1.4,3.6,5.1,3.9,8.9,1.2l3.5,4.7l-2.7,1.7c-1.6,1-3.6,1.5-5.5,1.5c-5.3-0.2-9.6-2.1-11.3-8.7
		c-0.5-3,0-6,1.4-8.7c2.6-5.1,8.9-7.1,14-4.5c3,1.6,5.1,4.5,5.5,7.8C195.6,68.5,195.6,70.2,195.4,71.8z M184.2,63.8l-2.7,2.4
		l0.2,0.4l7,0.5C188.7,64.7,187,63.6,184.2,63.8L184.2,63.8z"/>
</g>
<g id="Layer_20">
	<path d="M240.7,73.1c-1.1,5.7-6.1,9.7-11.9,9.6c-4.2-0.3-7.9-2.8-9.6-6.6c-2.3-5.4-0.2-11.7,4.9-14.7c5.3-3.1,12.1-1.3,15.2,4
		C240.7,67.7,241.1,70.5,240.7,73.1L240.7,73.1z M226.1,74.2c0.2,0.3,0.4,0.5,0.6,0.8c2.9,3,6.4,0.2,7.2-3.1
		c1.1-4.2-3.3-7.8-6.8-4.4C225.2,69.2,224.8,72,226.1,74.2z"/>
</g>
<g id="Layer_19">
	<path d="M137.9,92.2l0.1-0.9l0.2,0.8L137.9,92.2z"/>
</g>
<g id="Layer_18">
	<path d="M138.5,85.5v-0.3c0,0,0.1,0.1,0.1,0.1S138.6,85.5,138.5,85.5z"/>
</g>
<g id="Layer_17">
	<path class="st1" d="M184.2,63.8c2.8-0.2,4.5,0.9,4.5,3.3l-7-0.5c-0.1-0.7,0.1-1.4,0.5-1.9C182.7,64.1,183.4,63.8,184.2,63.8z"/>
</g>
<g id="Layer_16">
	<polygon points="199,51.8 197.4,81.3 203.7,81.5 205.6,51.8 	"/>
</g>
<g id="Layer_15">
	<polygon points="208.1,51.8 206.4,81.3 212.7,81.5 214.6,51.8 	"/>
</g>
<g id="Layer_13">
	<path class="st1" d="M294.3,95.4L294.3,95.4c2.6,0.1,4.7,2.4,4.6,5c0,0,0,0,0,0l0,0l-1.2,26.9c-0.1,2.6-2.4,4.7-5,4.6c0,0,0,0,0,0
		l0,0c-2.6-0.1-4.7-2.3-4.6-5c0,0,0,0,0,0l0,0l1.2-26.9C289.4,97.3,291.6,95.3,294.3,95.4z"/>
</g>
<g id="Layer_11">
	<path d="M292.8,132.7h-0.2c-3.1-0.1-5.5-2.7-5.4-5.8l0,0v-0.2l1.2-26.9c0.2-3.1,2.8-5.5,5.9-5.3c3.1,0.2,5.5,2.8,5.3,5.9l-1.2,26.9
		C298.3,130.3,295.8,132.7,292.8,132.7z M294,96.3c-2.1,0-3.8,1.6-3.9,3.7l-1.3,26.9c-0.1,2.2,1.6,4,3.7,4.1l0,0
		c2.2,0.1,4-1.6,4.1-3.7l0,0l1.3-26.9c0.1-2.2-1.6-4-3.7-4.1C294.3,96.3,294,96.3,294,96.3z"/>
</g>
<g id="Layer_10">
	<line class="st3" x1="232.5" y1="148.9" x2="267.7" y2="150.2"/>
</g>
<g id="Layer_9">
	
		<rect x="249.2" y="131.9" transform="matrix(3.699259e-02 -0.9993 0.9993 3.699259e-02 91.4124 393.9039)" width="1.7" height="35.2"/>
</g>
<g id="Layer_8">
	<path d="M127.5,96.4c0,0-1.7,24.3-18.2,24.3h17.3L127.5,96.4z"/>
</g>
<g id="Layer_7">
	<line class="st3" x1="174.8" y1="188.4" x2="264.5" y2="190.7"/>
</g>
<g id="Layer_6">
	
		<rect x="218.8" y="144.7" transform="matrix(2.582806e-02 -0.9997 0.9997 2.582806e-02 24.5168 404.2151)" width="1.7" height="89.7"/>
</g>
<g id="Layer_5">
	<line class="st3" x1="177.1" y1="182.6" x2="266.8" y2="184.9"/>
</g>
<g id="Layer_4">
	
		<rect x="222.1" y="139.6" transform="matrix(3.001518e-02 -0.9995 0.9995 3.001518e-02 31.9289 401.7534)" width="1.7" height="89.8"/>
</g>
<g id="tint-3-13">
	<polygon class="st0" points="227.9,90.2 225.3,127.5 270.4,130.1 273,92 	"/>
</g>
<g id="Layer_2_00000129914107271108495600000000673027069982802561_">
	<path d="M271.2,131l-46.8-2.6l2.7-39.1l46.8,1.8L271.2,131z M226.2,126.8l43.4,2.4l2.5-36.4L228.7,91L226.2,126.8z"/>
</g>
</svg>
