<svg viewBox="0 0 360 144" fill="none" xmlns="http://www.w3.org/2000/svg">
<path d="M93.5039 108.536L363.172 108.043C354.475 107.549 343.192 105.147 337.049 95.4546C332.911 88.8725 333.962 83.6233 330.098 77.9791C326.235 72.335 317.813 66.9048 297.574 69.6528C305.656 54.5798 304.04 33.2703 294.858 19.1682C290.713 12.5708 284.804 7.31486 277.825 4.01809C270.847 0.721328 263.089 -0.479294 255.463 0.557319C240.915 2.79523 227.562 13.3759 218.671 27.7413C211.656 39.0954 206.935 53.0166 197.656 61.5897C185.177 73.1084 168.058 71.9401 152.394 71.2819C138.993 70.7224 125.285 71.0021 112.627 76.4324C99.97 81.8626 97.5937 92.9205 93.5039 108.536Z" fill="#DCDBFF"/>
<path d="M0.828125 111.41L92.4203 110.505C94.9421 99.9404 92.1779 89.1129 84.9358 82.3662C83.7234 81.2308 75.6408 73.9905 64.8748 75.7841C60.0972 76.5281 55.7211 78.9357 52.4922 82.5966C45.5412 90.7584 47.9336 101.372 48.1923 102.491C47.9629 101.402 47.5047 100.376 46.8489 99.4839C46.1931 98.5919 45.3555 97.8551 44.3934 97.324C43.3127 96.8547 42.1412 96.642 40.9677 96.7018C39.7942 96.7617 38.6494 97.0926 37.6202 97.6696C36.3102 98.3688 35.1614 99.3437 34.25 100.53C33.3386 101.716 32.6856 103.085 32.3342 104.548C30.9621 103.291 29.2898 102.423 27.4846 102.03C23.5403 101.175 20.1617 103.05 18.0764 104.219C15.296 105.766 14.8434 106.802 12.7904 108.25C9.23117 110.564 5.04335 111.67 0.828125 111.41Z" fill="#9687FF"/>
<path d="M14.8281 110.502H92.4212C94.3287 99.9539 90.5784 89.5871 82.8838 84.1733C82.0917 83.6138 73.7342 77.9861 64.0513 80.8823C61.4061 81.6741 58.9398 82.988 56.7931 84.7492C49.3247 90.8377 48.371 100.168 48.1932 102.488C45.7361 99.6248 43.7639 98.7855 42.1797 98.7691C40.731 98.786 39.3216 99.2509 38.1384 100.102C36.9041 101.045 35.8809 102.244 35.1368 103.62C34.3927 104.996 33.9446 106.517 33.8223 108.083C32.7048 106.826 31.3435 105.819 29.8243 105.125C28.3051 104.431 26.6611 104.066 24.9961 104.051C22.891 104.11 20.8393 104.738 19.0522 105.872C17.265 107.006 15.807 108.604 14.8281 110.502Z" fill="black"/>
<g clip-path="url(#clip0_10993_65304)">
<rect x="77.8281" y="27.8047" width="208" height="106" fill="white"/>
<rect x="90.875" y="38.5" width="81" height="84" stroke="black"/>
<path d="M203.375 41H225.654" stroke="#9687FF" stroke-width="4" stroke-miterlimit="10"/>
<path d="M203.375 49.3555H271.375" stroke="black" stroke-miterlimit="10"/>
<path d="M203.375 57.7109H271.375" stroke="black" stroke-miterlimit="10"/>
<path d="M203.375 72.7109H225.654" stroke="#9687FF" stroke-width="4" stroke-miterlimit="10"/>
<path d="M203.375 81.0664H271.375" stroke="black" stroke-miterlimit="10"/>
<path d="M203.375 89.4219H271.375" stroke="black" stroke-miterlimit="10"/>
<path d="M203.375 104.418H225.654" stroke="#9687FF" stroke-width="4" stroke-miterlimit="10"/>
<path d="M203.375 112.773H271.375" stroke="black" stroke-miterlimit="10"/>
<path d="M203.375 121.129H271.375" stroke="black" stroke-miterlimit="10"/>
<path d="M98.875 55.3545C98.875 51.0166 102.392 47.5 106.729 47.5H142.021C146.358 47.5 149.875 51.0166 149.875 55.3545V58.6455C149.875 62.9834 146.358 66.5 142.021 66.5H98.875V55.3545Z" fill="white"/>
<path d="M98.875 55.3545C98.875 51.0166 102.392 47.5 106.729 47.5H142.021C146.358 47.5 149.875 51.0166 149.875 55.3545V58.6455C149.875 62.9834 146.358 66.5 142.021 66.5H98.875V55.3545Z" stroke="black"/>
<path d="M112.875 81.3545C112.875 77.0166 116.392 73.5 120.729 73.5H156.021C160.358 73.5 163.875 77.0166 163.875 81.3545V92.5H120.73C116.392 92.5 112.875 88.9834 112.875 84.6455V81.3545Z" fill="#DCDBFF"/>
<path d="M112.875 81.3545C112.875 77.0166 116.392 73.5 120.729 73.5H156.021C160.358 73.5 163.875 77.0166 163.875 81.3545V92.5H120.73C116.392 92.5 112.875 88.9834 112.875 84.6455V81.3545Z" stroke="black"/>
<rect x="98.875" y="99.5" width="65" height="14" stroke="black"/>
<path d="M155.514 105.416L160.634 103.028C160.898 102.904 161.155 103.215 161.053 103.536L159.082 109.742C158.969 110.099 158.547 110.081 158.462 109.715L157.92 107.366C157.859 107.103 157.691 106.899 157.474 106.825L155.536 106.168C155.234 106.066 155.219 105.554 155.514 105.416Z" fill="black"/>
</g>
<rect x="78.3281" y="28.3047" width="207" height="105" stroke="black"/>
<path d="M69.8175 24.2468C68.472 14.3251 68.974 13.6241 77.7067 13.2695C68.974 13.6241 68.2866 12.9705 66.9411 3.04881C68.2866 12.9705 67.7846 13.6715 59.0519 14.0261C67.7846 13.6715 68.472 14.3251 69.8175 24.2468Z" fill="#0C0D0E" stroke="black" stroke-width="0.848833" stroke-linecap="round" stroke-linejoin="round"/>
<path d="M47.6985 63C44.7062 40.0657 45.8708 38.4517 66 37.7268C45.8708 38.4517 44.2938 36.9343 41.3015 14C44.2938 36.9343 43.1292 38.5483 23 39.2732C43.1292 38.5483 44.7062 40.0657 47.6985 63Z" fill="black" stroke="black" stroke-width="0.501996" stroke-linecap="round" stroke-linejoin="round"/>
<path d="M286 21.9023H78V27.9023H286V21.9023Z" fill="#9687FF"/>
<path d="M284.857 22.0318V27.7729H79.0681V22.0318H284.857ZM285.981 20.9023H78V28.9023H286V20.9023H285.981Z" fill="black"/>
<defs>
<clipPath id="clip0_10993_65304">
<rect x="77.8281" y="27.8047" width="208" height="106" fill="white"/>
</clipPath>
</defs>
</svg>
