<svg viewBox="0 0 24 24" fill="none" xmlns="http://www.w3.org/2000/svg">
    <path d="M21.6619 2.82096C18.8659 0.0249646 11.6629 -0.252036 5.12389 5.42196C-0.98711 10.725 -0.89011 17.107 3.86989 20.613C8.31289 23.885 14.4119 24.415 19.0609 19.357C24.7089 13.213 24.4599 5.61696 21.6619 2.82096Z"
          fill="#FFCE43"/>
    <path d="M8.10402 14.644C8.05133 14.6969 7.98869 14.739 7.9197 14.7676C7.85071 14.7963 7.77673 14.8111 7.70202 14.8111C7.6273 14.8111 7.55333 14.7963 7.48434 14.7676C7.41535 14.739 7.35271 14.6969 7.30002 14.644H7.29902L4.76902 12.115C4.66478 12.0076 4.60692 11.8636 4.60792 11.714C4.60892 11.5644 4.6687 11.4212 4.77436 11.3153C4.88002 11.2094 5.02309 11.1492 5.17269 11.1479C5.32229 11.1465 5.46644 11.204 5.57402 11.308L7.70202 13.435L13.888 7.24995C13.9965 7.15224 14.1384 7.09989 14.2844 7.10371C14.4303 7.10753 14.5693 7.16722 14.6725 7.27046C14.7758 7.37371 14.8354 7.51265 14.8393 7.65862C14.8431 7.80458 14.7907 7.94645 14.693 8.05495L8.10402 14.644ZM12.999 12.724C12.8914 12.7237 12.7862 12.6917 12.6967 12.6319C12.6072 12.572 12.5374 12.4871 12.4961 12.3877C12.4547 12.2883 12.4437 12.179 12.4643 12.0733C12.4849 11.9677 12.5363 11.8705 12.612 11.794L16.659 7.74695C16.7619 7.64473 16.901 7.58735 17.046 7.58735C17.191 7.58735 17.3302 7.64473 17.433 7.74695C17.5352 7.84981 17.5926 7.98893 17.5926 8.13395C17.5926 8.27897 17.5352 8.41809 17.433 8.52095L13.387 12.568C13.3358 12.6182 13.2752 12.6579 13.2086 12.6846C13.142 12.7114 13.0708 12.7248 12.999 12.724ZM17.963 13.96L16.37 15.551C16.3194 15.602 16.2592 15.6426 16.1929 15.6702C16.1266 15.6979 16.0554 15.7121 15.9835 15.7121C15.9116 15.7121 15.8405 15.6979 15.7741 15.6702C15.7078 15.6426 15.6476 15.602 15.597 15.551C15.4948 15.4481 15.4374 15.309 15.4374 15.1639C15.4374 15.0189 15.4948 14.8798 15.597 14.777L17.191 13.183C17.2396 13.1271 17.2989 13.0816 17.3656 13.0493C17.4322 13.0171 17.5047 12.9987 17.5786 12.9952C17.6525 12.9918 17.7264 13.0034 17.7958 13.0293C17.8651 13.0553 17.9284 13.095 17.9819 13.1462C18.0354 13.1973 18.078 13.2588 18.1071 13.3269C18.1362 13.395 18.1511 13.4682 18.151 13.5423C18.1509 13.6163 18.1358 13.6895 18.1066 13.7575C18.0774 13.8256 18.0347 13.8869 17.981 13.938L17.965 13.955L17.963 13.96ZM17.963 10.975L14.878 14.059C14.7731 14.15 14.6375 14.1979 14.4986 14.193C14.3598 14.188 14.2279 14.1306 14.1297 14.0323C14.0316 13.9339 13.9743 13.802 13.9695 13.6632C13.9647 13.5243 14.0128 13.3888 14.104 13.284L17.191 10.1969C17.296 10.1059 17.4315 10.058 17.5704 10.0629C17.7093 10.0679 17.8411 10.1253 17.9393 10.2236C18.0375 10.322 18.0947 10.4539 18.0995 10.5927C18.1043 10.7316 18.0562 10.8671 17.965 10.972L17.963 10.975Z"
          fill="white"/>
</svg>
