<svg version="1.1" xmlns="http://www.w3.org/2000/svg" width="289" height="448" viewBox="0 0 289 448">
    <title></title>
    <path d="M243.644 250.25c3.393 3.214 4.286 8.214 2.5 12.322-1.786 4.286-5.893 7.143-10.536 7.143h-68.216l35.893 85.001c2.5 5.893-0.357 12.5-6.071 15.001l-31.608 13.393c-5.893 2.5-12.5-0.357-15.001-6.071l-34.108-80.716-55.716 55.716c-2.142 2.142-5 3.393-8.035 3.393-1.428 0-3.035-0.357-4.286-0.893-4.286-1.786-7.143-5.893-7.143-10.536v-268.576c0-4.643 2.857-8.75 7.143-10.536 1.249-0.536 2.857-0.893 4.286-0.893 3.035 0 5.893 1.071 8.035 3.393z"></path>
</svg>
