<svg version="1.1" xmlns="http://www.w3.org/2000/svg" width="448" height="448" viewBox="0 0 384 448">
<title></title>
<g id="icomoon-ignore">
</g>
<path d="M367 95c9.25 9.25 17 27.75 17 41v288c0 13.25-10.75 24-24 24h-336c-13.25 0-24-10.75-24-24v-400c0-13.25 10.75-24 24-24h224c13.25 0 31.75 7.75 41 17zM256 34v94h94c-1.5-4.25-3.75-8.5-5.5-10.25l-78.25-78.25c-1.75-1.75-6-4-10.25-5.5zM352 416v-256h-104c-13.25 0-24-10.75-24-24v-104h-192v384h320zM120 192c2.75-3.5 7.75-4.25 11.25-1.5l12.75 9.5c3.5 2.75 4.25 7.75 1.5 11.25l-45.5 60.75 45.5 60.75c2.75 3.5 2 8.5-1.5 11.25l-12.75 9.5c-3.5 2.75-8.5 2-11.25-1.5l-56.5-75.25c-2-2.75-2-6.75 0-9.5zM320.5 267.25c2 2.75 2 6.75 0 9.5l-56.5 75.25c-2.75 3.5-7.75 4.25-11.25 1.5l-12.75-9.5c-3.5-2.75-4.25-7.75-1.5-11.25l45.5-60.75-45.5-60.75c-2.75-3.5-2-8.5 1.5-11.25l12.75-9.5c3.5-2.75 8.5-2 11.25 1.5zM165.5 382.5c-4.5-0.75-7.25-5-6.5-9.25l34.5-207.75c0.75-4.5 5-7.25 9.25-6.5l15.75 2.5c4.5 0.75 7.25 5 6.5 9.25l-34.5 207.75c-0.75 4.5-5 7.25-9.25 6.5z"></path>
</svg>
