<svg xmlns="http://www.w3.org/2000/svg" viewBox="0 0 75.590554 75.590549">
    <g fill="#39a8ef" fill-rule="evenodd">
        <path d="M48.79525367 19.69869148C43.86310823 14.30427459 36.75671475 10.91895 28.8569608 10.91895c-14.89357147 0-26.967197 12.03291698-26.967197 26.87627322 0 14.84335525 12.07362553 26.87627323 26.967197 26.87627323 7.89975395 0 15.00614743-3.3853245 19.93829287-8.77974218-2.89172428-1.3698268-5.40310078-3.40782928-7.33322758-5.91378297-3.12362093 3.21166268-7.49825333 5.20778178-12.34068085 5.20778178-9.49100206 0-17.18497868-7.66803642-17.18497868-17.12703704 0-9.45900162 7.69397662-17.12703703 17.18497868-17.12703703 4.72679741 0 9.0078732 1.90192802 12.1147894 4.97980187 1.95829657-2.64298481 4.55321967-4.78887696 7.55911903-6.2127894z"/>
        <path d="M57.30896325 53.59908517c-9.05295481 0-16.39182535-7.31412618-16.39182535-16.33655758 0-9.0224324 7.33887054-16.33655859 16.39182535-16.33655859 9.05295581 0 16.39182535 7.31412618 16.39182535 16.33655859 0 9.0224314-7.33886954 16.33655758-16.39182535 16.33655758zm.02132496-7.76107767c4.74035292 0 8.5831683-3.8298583 8.5831683-8.554228 0-4.72436972-3.84281538-8.554228-8.5831683-8.554228-4.74035192 0-8.5831673 3.82985828-8.5831673 8.554228 0 4.7243697 3.84281538 8.554228 8.5831673 8.554228z"/>
    </g>
</svg>