<svg xmlns="http://www.w3.org/2000/svg" height="116.8" width="116.8">
    <!-- Source: https://www.drift.com/brand-assets/ -->
    <path d="M58.4 0a58.4 58.4 0 1 0 0 116.8A58.4 58.4 0 0 0 58.4 0zm-1.8 73.1c0 .9-.5 1.7-1.2 2.2-.8.4-1.7.4-2.4 0l-10.4-6v22.5c0 .9-.5 1.7-1.2 2.2-.4.2-.8.3-1.2.3-.4 0-.9-.1-1.2-.3l-6.2-3.6c-.8-.4-1.2-1.3-1.2-2.2V62.9l-10-5.8c-.8-.4-1.2-1.3-1.2-2.2V45c0-.9.5-1.7 1.2-2.2.8-.4 1.7-.4 2.5 0l31.5 18.4c.8.4 1.2 1.3 1.2 2.2v9.7zm.5-38.8c0 1.2-.7 2.4-1.7 3l-9.1 5.3c-.3.2-.5.5-.5.8v6.8c0 .7-.8 1.2-1.4.8L26.3 40.5c-.6-.4-.6-1.3 0-1.7L53.4 23c.8-.4 1.7-.4 2.5 0s1.2 1.3 1.2 2.2zm3.1-9.1c0-.9.5-1.7 1.2-2.2.8-.4 1.7-.4 2.5 0L91 38.8c.7.4.7 1.3 0 1.7-3.8 2.2-14.2 8.3-18.1 10.5-.7.4-1.5-.1-1.5-.9v-6.7c0-.4-.2-.7-.5-.9l-9.5-5.6c-.8-.4-1.2-1.3-1.2-2.2zm36.5 29.5c0 .9-.5 1.7-1.2 2.2l-10 5.8V88c0 .9-.5 1.7-1.2 2.2l-6.2 3.6c-.4.2-.8.3-1.2.3-.4 0-.9-.1-1.2-.3-.8-.4-1.2-1.3-1.2-2.2V69.1l-10.4 6c-.8.4-1.7.4-2.4 0-.8-.4-1.2-1.3-1.2-2.2v-9.7c0-.9.5-1.7 1.2-2.2l31.5-18.4c.8-.4 1.7-.4 2.5 0s1.2 1.3 1.2 2.2v9.9z"/>
</svg>
