<svg width="56" height="53" viewBox="0 0 56 52" xmlns="http://www.w3.org/2000/svg">
<!-- Source: https://www.etracker.com/wp-content/uploads/img/logo-analytics.svg -->
  <defs>
    <linearGradient id="b" x2="1" gradientUnits="userSpaceOnUse" gradientTransform="rotate(90 13.84 14.284) scale(51.8191)">
      <stop offset="0%" stop-color="#ee7e22"/>
      <stop offset="0%" stop-color="#ee7e22"/>
      <stop offset="61%" stop-color="#e94f25"/>
      <stop offset="100%" stop-color="#e63626"/>
    </linearGradient>
  </defs>
  <clipPath id="a">
    <path d="M26.19 16.864c-4.411.804-8.054 4.492-8.872 8.89a10.864 10.864 0 0 0 .559 5.909 10.585 10.585 0 0 0 3.969 4.877 1.238 1.238 0 0 0 1.804-.42l1.383-2.569a1.227 1.227 0 0 0-.305-1.527 5.211 5.211 0 0 1-1.331-6.442 5.275 5.275 0 0 1 6.679-2.357 5.207 5.207 0 0 1 3.129 4.769c0 .767-.17 1.525-.497 2.219a5.126 5.126 0 0 1-1.421 1.811 1.23 1.23 0 0 0-.31 1.533l2.1 3.928a1.235 1.235 0 0 0 1.814.415c.397-.29.776-.605 1.134-.943 3.321-3.135 4.617-8.171 3.119-12.501-1.562-4.522-6.094-7.685-10.865-7.748h-.155a10.747 10.747 0 0 0-1.936.173m1.81-6.675a2.27 2.27 0 0 1-1.976-1.185 19.276 19.276 0 0 0-3.504.776 19.903 19.903 0 0 0-7.166 4.101c-3.765 3.386-5.8 8.379-5.99 13.397-.172 4.555 1.508 9.111 4.483 12.551l.275.31c.363.401.744.786 1.143 1.154.915.832 1.911 1.57 2.974 2.202a1.229 1.229 0 0 0 1.716-.48l.838-1.566a1.234 1.234 0 0 0-.395-1.599 13.926 13.926 0 0 1-4.131-4.196 14.1 14.1 0 0 1-2.104-8.21 13.796 13.796 0 0 1 7.474-11.437c4.927-2.519 11.195-1.675 15.212 2.153 4.443 4.228 5.431 11.216 2.11 16.416a12.758 12.758 0 0 1-3.995 3.951 1.237 1.237 0 0 0-.447 1.628l2.253 4.21a1.23 1.23 0 0 0 1.742.462 19.675 19.675 0 0 0 9.058-16.528 2.266 2.266 0 0 1-1.775-2.207c0-.887.522-1.695 1.331-2.06a18.8 18.8 0 0 0-.769-2.588c-1.734-4.58-5.263-8.387-9.585-10.637a17.822 17.822 0 0 0-6.741-1.906A2.268 2.268 0 0 1 28 10.188M3.358 14.71C-3.701 27.829.883 44.403 13.681 52.029a1.238 1.238 0 0 0 1.715-.466l1.701-3.181a1.235 1.235 0 0 0-.437-1.622 21.35 21.35 0 0 1-3.25-2.434 21.77 21.77 0 0 1-6.762-19.684c1.367-8.1 7.46-14.896 15.39-17.076a21.163 21.163 0 0 1 3.951-.685 2.259 2.259 0 0 1 4.05.063c4.7.512 9.206 2.551 12.584 5.998a21.57 21.57 0 0 1 5.73 10.921 2.28 2.28 0 0 1 1.995 2.255c0 .993-.652 1.877-1.6 2.17a19.628 19.628 0 0 1-2.436 9.181 21.223 21.223 0 0 1-7.648 7.97 1.232 1.232 0 0 0-.458 1.633l2.4 4.491a1.236 1.236 0 0 0 1.721.476 28.024 28.024 0 0 0 13.676-24.056c0-11.223-6.749-21.408-17.084-25.782A27.63 27.63 0 0 0 28.091 0C18.047 0 8.335 5.415 3.358 14.71"/>
  </clipPath>
  <g clip-path="url(#a)">
    <path fill="url(#b)" d="M-3.852 0h63.924v52.393H-3.852z"/>
  </g>
</svg>
