<svg version="1.1" xmlns="http://www.w3.org/2000/svg" width="512" height="512" viewBox="0 0 512 512">
    <title></title>
    <g id="icomoon-ignore">
    </g>
    <path d="M464 64h-144c0-35.346-28.653-64-64-64s-64 28.654-64 64h-144c-8.836 0-16 7.164-16 16v416c0 8.837 7.164 16 16 16h416c8.837 0 16-7.163 16-16v-416c0-8.836-7.163-16-16-16zM256 32c17.673 0 32 14.327 32 32s-14.327 32-32 32c-17.673 0-32-14.327-32-32s14.327-32 32-32zM448 480h-384v-384h64v48c0 8.836 7.164 16 16 16h224c8.837 0 16-7.164 16-16v-48h64v384z"></path>
    <path d="M224 429.255l-102.627-118.627 29.254-29.255 73.373 57.372 137.371-121.372 29.257 29.254z"></path>
</svg>
