<svg xmlns="http://www.w3.org/2000/svg" height="24" width="24" fill="#4285f4"><path d="M7 22q-.825 0-1.412-.587Q5 20.825 5 20V8.925q0-.4.162-.775.163-.375.438-.65l5.025-4.925Q11.2 2 12.025 2t1.4.575l5 4.925q.275.275.425.65.15.375.15.775V20q0 .825-.575 1.413Q17.85 22 17 22Zm5.05-13q.65 0 1.075-.438.425-.437.425-1.062 0-.65-.425-1.075Q12.7 6 12.05 6q-.625 0-1.062.425-.438.425-.438 1.075 0 .625.438 1.062Q11.425 9 12.05 9Zm.1 10q1.75 0 2.763-1.012 1.012-1.013 1.012-2.688 0-.2-.012-.375-.013-.175-.063-.3H12.1v1.225h2.4q-.125.8-.775 1.287-.65.488-1.575.488-1.125 0-1.862-.75-.738-.75-.738-1.875 0-1.175.725-1.913.725-.737 1.85-.737.6 0 1.075.2t.875.625l1-.975q-.55-.575-1.3-.888Q13.025 11 12.15 11q-1.725 0-2.888 1.137Q8.1 13.275 8.1 14.975q0 1.725 1.162 2.875Q10.425 19 12.15 19Z"/></svg>
