<svg width="400" height="400" viewBox="0 0 400 400" fill="none" xmlns="http://www.w3.org/2000/svg">
<rect width="400" height="400" fill="#FF3C00"/>
<path d="M183.76 178.213C206.756 165.595 238.25 148.308 238.25 98H200.114C200.114 126.148 186.241 133.761 165.24 145.285C142.244 157.908 110.75 175.187 110.75 225.5H148.886C148.886 197.351 162.759 189.738 183.76 178.213Z" fill="#FFFFFF"/>
<path d="M251.116 174.5C251.116 202.649 237.243 210.262 216.241 221.785C193.251 234.404 161.75 251.687 161.75 302H199.885C199.885 273.851 213.759 266.238 234.76 254.713C257.756 242.095 289.25 224.813 289.25 174.5H251.116Z" fill="#FFFFFF"/>
</svg>
