<svg xmlns="http://www.w3.org/2000/svg" height="192" width="192">
    <!-- Source: https://brand.linkedin.com/downloads (converted from eps) -->
    <path fill="#18679e"
          d="M177.8 0H14.16C6.35 0 0 6.2 0 13.84v164.3C0 185.8 6.35 192 14.17 192H177.8c7.83 0 14.21-6.2 14.21-13.85V13.84C192 6.2 185.62 0 177.8 0"/>
    <path fill="#fff"
          d="M42.71 26.43a16.52 16.52 0 1 1-.03 33.04 16.52 16.52 0 0 1 .03-33.04M28.47 71.98h28.48v91.63H28.47V71.98M74.8 71.98h27.32V84.5h.38c3.8-7.2 13.1-14.8 26.95-14.8 28.83 0 34.16 18.98 34.16 43.65v50.26h-28.46v-44.56c0-10.63-.2-24.3-14.8-24.3-14.82 0-17.09 11.58-17.09 23.53v45.33H74.81V71.98"/>
</svg>
