<svg width="100" height="100" viewBox="0 0 100 100" fill="none" xmlns="http://www.w3.org/2000/svg">
<path d="M52.2477 49.9814C52.2477 54.1736 51.7108 57.9938 50.6368 61.4419C49.5879 64.8651 48.002 67.8171 45.8792 70.2977C43.7564 72.7535 41.0966 74.6512 37.8998 75.9907C34.7031 77.3302 30.9569 78 26.6613 78C22.2908 78 18.4946 77.3302 15.2729 75.9907C12.0762 74.6512 9.41641 72.7411 7.29358 70.2605C5.19572 67.7798 3.62232 64.8155 2.57339 61.3674C1.52446 57.9194 1 54.0992 1 49.907C1 44.3008 1.92406 39.414 3.77217 35.2465C5.64526 31.0543 8.47987 27.8047 12.276 25.4977C16.0971 23.1659 20.9172 22 26.7362 22C32.4304 22 37.1631 23.1535 40.9342 25.4605C44.7054 27.7674 47.5275 31.0171 49.4006 35.2093C51.2987 39.3767 52.2477 44.3008 52.2477 49.9814ZM10.4404 49.9814C10.4404 54.1736 11.0148 57.8078 12.1636 60.8837C13.3124 63.9349 15.0731 66.2915 17.4457 67.9535C19.8433 69.5907 22.9151 70.4093 26.6613 70.4093C30.4325 70.4093 33.5043 69.5907 35.8769 67.9535C38.2495 66.2915 39.9977 63.9349 41.1216 60.8837C42.2454 57.8078 42.8073 54.1736 42.8073 49.9814C42.8073 43.6062 41.5212 38.6202 38.9488 35.0233C36.4014 31.4015 32.3305 29.5907 26.7362 29.5907C22.9901 29.5907 19.9057 30.4093 17.4832 32.0465C15.0856 33.6837 13.3124 36.0279 12.1636 39.0791C11.0148 42.1054 10.4404 45.7395 10.4404 49.9814Z" fill="#6ABF4B"/>
<path d="M83.0038 77.2558H73.9755V30.4465H57.9419V22.8558H99V30.4465H83.0038V77.2558Z" fill="#6ABF4B"/>
</svg>
