<svg version="1.1" xmlns="http://www.w3.org/2000/svg" width="1024" height="1024" viewBox="0 0 1024 1024">
<title></title>
<g>
</g>
<path d="M832 96c52.928 0 96 43.072 96 96v736h-608v-832h512zM832 0h-544c-35.328 0-64 28.672-64 64v896c0 35.328 28.672 64 64 64h672c35.328 0 64-28.672 64-64v-768c0-106.048-85.952-192-192-192v0z"></path>
<path d="M837.312 512h-426.624c-14.72 0-26.688 14.336-26.688 32s11.968 32 26.688 32h426.688c14.72 0 26.688-14.336 26.688-32-0.064-17.664-12.032-32-26.752-32z"></path>
<path d="M837.312 640h-426.624c-14.72 0-26.688 14.336-26.688 32s11.968 32 26.688 32h426.688c14.72 0 26.688-14.336 26.688-32-0.064-17.664-12.032-32-26.752-32z"></path>
<path d="M784 768h-373.312c-14.72 0-26.688 14.336-26.688 32s11.968 32 26.688 32h373.312c14.72 0 26.688-14.336 26.688-32s-11.968-32-26.688-32z"></path>
<path d="M384 192h256v256h-256v-256z"></path>
<path d="M837.312 224h-106.688c-14.656 0-26.624 14.336-26.624 32s11.968 32 26.688 32h106.688c14.72 0 26.688-14.336 26.688-32-0.064-17.664-12.032-32-26.752-32z"></path>
<path d="M837.312 352h-106.688c-14.656 0-26.624 14.336-26.624 32s11.968 32 26.688 32h106.688c14.72 0 26.688-14.336 26.688-32-0.064-17.664-12.032-32-26.752-32z"></path>
</svg>
