<svg xmlns="http://www.w3.org/2000/svg" viewBox="0 0 40.9 32" height="32" width="40.9">
    <!-- Source: https://raygun.com (cropped) -->
    <path d="M13.3 0C11 0 8.5.3 6.1 1l1 2.7c2.7-1.3 5.7-2 8.9-2l-.1-.1c.8 0 1.7 0 2.5.2l2.1-.5C18.2.5 15.8.1 13.3 0zm11 1.7c-7.8 0-14.4 4-16.2 9.4 1-.5 2.1-1 3.2-1.3a9 9 0 0 1 8-4.8l-.1-.1a9 9 0 0 1 6.5 2.9l1.5.1.4-5.9c-1-.2-2.2-.3-3.3-.3zm4 .4a153 153 0 0 0 0 23.7 21 21 0 0 0 2-.5c.6-7.6.6-15.2 0-22.8a21 21 0 0 0-2-.4zm-11.4.2c-3.9-.1-7.7 1-11 3l2.8 3.1c1.7-2.7 4.6-4.8 8.2-6zm2.3 3.4c-3 0-5.9 1.7-7.3 4.7a35 35 0 0 0-7.6 3.5l3.2 1.8c-2.7.6-5.2 1.7-7.5 3.1 3.2-1.3 6.6-1.7 10-1.2a10 10 0 0 1-.6-2.2c.1.5.3 1 .6 1.4l1.9.7a8.2 8.2 0 0 0 13.6 1.9l1.8-.2V14h-.1l.1-5.4-1.8-.1c-1.7-2-4-2.9-6.3-2.8zm.1 1.3a7 7 0 1 1 0 14 7 7 0 0 1 0-14zm1.1 1.7l-3.7 5.5 2.1.3-1 4.6 3.6-5.7-2-.3zm11.1 2.9v4.8a8.2 8.2 0 0 1 4.4-1.4l-.2-1 .2-1c-1.6 0-3.1-.5-4.4-1.4zm7 0c-1.1 0-2.3.8-2.3 2.4 0 3.1 4.7 3.1 4.7 0 0-1.6-1.2-2.3-2.3-2.3zm-27.8 6.2l.3.7-1.2-.2-1-.1a12 12 0 0 0 4.1 4.6 7 7 0 0 1 1 7.9c0 .2 0 .6.3.7a7 7 0 0 0 4 .5 7 7 0 0 1 1.7-6.2l2.4.3c0 1 .2 2 .6 2.8l.6-.6c-.2-.6-.2-1.2-.2-1.8v-.3c1.4 0 2.9 0 4.3-.2v-.1l-.4-5.9-1.5.1a9 9 0 0 1-14.4-2z"
          fill="#2c3545"/>
</svg>
