<?xml version="1.0" encoding="UTF-8" standalone="no"?>
<svg
        xmlns="http://www.w3.org/2000/svg"
        height="132.57007"
        width="148.80853"
        version="1.1"
        viewBox="0 0 148.80853 132.57007">
    <!-- Source: https://sentry-brand.storage.googleapis.com/sentry-logo-black.svg -->
    <path style="fill:#221f20"
          d="m 86.319265,6.8700672 a 13.75,13.75 0 0 0 -23.81,0 l -19.6,33.9499998 5,2.87 a 96.14,96.14 0 0 1 47.83,77.400003 h -13.76 a 82.4,82.4 0 0 0 -41,-65.540003 l -5,-2.86 -18.26,31.75 5,2.87 a 46.35,46.35 0 0 1 22.46,33.780003 h -31.43 a 2.27,2.27 0 0 1 -2,-3.41 l 8.76,-15.17 a 31.87,31.87 0 0 0 -10,-5.710003 L 1.8392654,111.94007 a 13.75,13.75 0 0 0 11.9099996,20.62 h 43.25 v -5.73 a 57.16,57.16 0 0 0 -23.74,-46.390003 l 6.88,-11.92 a 70.93,70.93 0 0 1 30.56,58.260003 v 5.74 h 36.650005 v -5.73 A 107.62,107.62 0 0 0 58.509265,36.740067 l 13.91,-24.13 a 2.27,2.27 0 0 1 3.93,0 L 137.00927,117.68007 a 2.27,2.27 0 0 1 -2,3.41 h -14.19 c 0.18,3.83 0.2,7.66 0,11.48 h 14.24 a 13.75,13.75 0 0 0 11.91,-20.62 z"
    />
</svg>
