<svg xmlns="http://www.w3.org/2000/svg" viewBox="0 0 21.507732 21.489332" height="21.489332" width="21.507732">
    <path style="fill:#92ce23;stroke-width:0.13333333"
          d="M 18.804266,2.6758666 H 8.7266661 V 12.758933 H 18.804266 Z M 7.2734661,15.4444 c -0.3276,0 -0.636666,-0.122133 -0.8604,-0.366267 -0.222133,-0.2236 -0.3516,-0.516666 -0.3516,-0.854533 V 1.2118667 C 6.0614661,0.5414667 6.6034661,0 7.2733331,0 H 20.293866 c 0.671333,0 1.213867,0.5414667 1.213867,1.2118667 V 14.2236 c 0,0.679733 -0.542534,1.220667 -1.213867,1.220667 H 7.2734661"/>
    <path style="fill:#3c9c6a;stroke-width:0.13333333"
          d="M 12.758266,8.7226667 H 2.6806666 V 18.8008 H 12.758266 Z M 1.2123999,21.489333 C 0.8852,21.489333 0.5801333,21.3604 0.3516,21.1368 0.1289333,20.915066 0,20.585066 0,20.277466 V 7.2559997 c 0,-0.6728 0.5410666,-1.213866 1.2123999,-1.213866 H 14.232933 c 0.6724,0 1.212933,0.541066 1.212933,1.213866 V 20.274533 c 0,0.663067 -0.540533,1.213867 -1.212933,1.213867 H 1.2123999"/>
    <path style="fill:#92ce23;stroke-width:0.13333333"
          d="M 18.804266,12.7588 H 6.0605331 v 1.4648 c 0,0.337867 0.1304,0.6308 0.352,0.854533 0.224133,0.244134 0.5332,0.366267 0.8608,0.366267 H 20.293866 c 0.6704,0 1.212933,-0.541067 1.212933,-1.220667 v -1.4648 h -2.702533"/>
</svg>
