<!-- Generated by IcoMoon.io -->
<svg version="1.1" xmlns="http://www.w3.org/2000/svg" width="1024" height="1024" viewBox="0 0 1024 1024">
<title></title>
<g id="icomoon-ignore">
</g>
<path d="M513.088 195.84c-282.176 0-510.976 201.344-510.976 316.16 0 118.4 228.736 316.16 510.912 316.16s510.976-200.128 510.976-316.16c0-116.032-228.736-316.16-510.912-316.16zM512 736c-123.712 0-224-100.288-224-224s100.288-224 224-224 224 100.288 224 224c0 123.712-100.288 224-224 224z"></path>
<path d="M640 512c0 70.692-57.308 128-128 128s-128-57.308-128-128c0-70.692 57.308-128 128-128s128 57.308 128 128z"></path>
</svg>
