<svg viewBox="0 0 279 96" xmlns="http://www.w3.org/2000/svg">
    <!-- Source: https://commons.wikimedia.org/wiki/File:VWO-Logo.svg -->
    <!-- CC BY-SA 4.0 by Nitika.g4 -->
    <path d="M229.8 0A48.6 48.6 0 0 1 279 48c0 26.5-22 48-49.2 48A49 49 0 0 1 182 60.1l4.4 2.8 2.2-3.4a42.5 42.5 0 0 0 41 30.1A42.1 42.1 0 0 0 272.5 48a42.1 42.1 0 0 0-48.6-41.2L228 .6l-.8-.5 2.7-.1"
          fill="#BF3078"/>
    <path d="M180.5 0h49.3L164 96l-24.6-36-24.6 36-25-36.4 4-5.9 21 30.8 19.1-28 5.5-8 5.5 8 19.1 28 53.4-78.1h-92l4.2-6.4h50.8"
          fill="#802050"/>
    <path d="M65.7 96L0 0h131.3L65.6 96m0-11.5L119 6.4H12.3l53.3 78" fill="#26134D"/>
</svg>
