<svg height="501" width="780" xmlns="http://www.w3.org/2000/svg"><g fill="none" fill-rule="evenodd"><path d="M54.992 0C24.627 0 0 24.63 0 55.004v390.992C0 476.376 24.619 501 54.992 501h670.016C755.373 501 780 476.37 780 445.996V55.004C780 24.624 755.381 0 725.008 0z" fill="#4d4d4d"/><path d="M415.13 161.213c30.941 0 56.022 23.58 56.022 52.709v.033c0 29.13-25.081 52.742-56.021 52.742s-56.022-23.613-56.022-52.742v-.033c0-29.13 25.082-52.71 56.022-52.71zm-87.978.68c8.837 0 16.248 1.784 25.268 6.09v22.751c-8.544-7.863-15.955-11.154-25.756-11.154-19.264 0-34.414 15.015-34.414 34.05 0 20.075 14.681 34.196 35.37 34.196 9.312 0 16.586-3.12 24.8-10.857v22.763c-9.341 4.14-16.911 5.776-25.756 5.776-31.278 0-55.582-22.596-55.582-51.737 0-28.826 24.951-51.878 56.07-51.878zm-97.113.627c11.546 0 22.11 3.72 30.943 10.994l-10.748 13.248c-5.35-5.646-10.41-8.028-16.564-8.028-8.853 0-15.3 4.745-15.3 10.989 0 5.354 3.619 8.188 15.944 12.482 23.365 8.044 30.29 15.176 30.29 30.926 0 19.193-14.976 32.553-36.32 32.553-15.63 0-26.994-5.795-36.458-18.872l13.268-12.03c4.73 8.61 12.622 13.222 22.42 13.222 9.163 0 15.947-5.952 15.947-13.984 0-4.164-2.055-7.734-6.158-10.258-2.066-1.195-6.158-2.977-14.2-5.647-19.291-6.538-25.91-13.527-25.91-27.185 0-16.225 14.214-28.41 32.846-28.41zm234.723 1.728h22.437l28.084 66.592 28.446-66.592h22.267l-45.494 101.686h-11.053zm-397.348.152h30.15c33.312 0 56.534 20.382 56.534 49.641 0 14.59-7.104 28.696-19.118 38.057-10.108 7.901-21.626 11.445-37.574 11.445H67.414zm96.135 0h20.54v99.143h-20.54zm411.734 0h58.252v16.8H595.81v22.005h36.336v16.791H595.81v26.762h37.726v16.785h-58.252V164.4zm71.858 0h30.455c23.69 0 37.265 10.71 37.265 29.272 0 15.18-8.514 25.14-23.986 28.105l33.148 41.766h-25.26l-28.429-39.828h-2.678v39.828h-20.515zm20.515 15.616v30.025h6.002c13.117 0 20.069-5.362 20.069-15.328 0-9.648-6.954-14.697-19.745-14.697zM87.94 181.199v65.559h5.512c13.273 0 21.656-2.394 28.11-7.88 7.103-5.955 11.376-15.465 11.376-24.98 0-9.499-4.273-18.725-11.376-24.681-6.785-5.78-14.837-8.018-28.11-8.018z" fill="#fff"/><path d="M779.982 288.361c-26.05 18.33-221.077 149.34-558.754 212.623H724.99c30.365 0 54.992-24.63 54.992-55.004z" fill="#f47216"/></g></svg>