<svg height="471" width="750" xmlns="http://www.w3.org/2000/svg"><g fill="none" fill-rule="evenodd"><rect fill="#000" height="471" rx="40" width="750"/><path d="M675 235.506c0 99.134-80.35 179.496-179.483 179.496-99.121 0-179.48-80.362-179.48-179.496 0-99.141 80.359-179.508 179.48-179.508C594.65 55.998 675 136.365 675 235.506" fill="#d9222a"/><path d="M356.87 349.49a177.907 177.907 0 0 1-13.674-19.009h63.612a178.646 178.646 0 0 0 10.342-19.012h-84.292a178.39 178.39 0 0 1-7.596-19h99.476c5.987-17.904 9.229-37.05 9.229-56.963 0-13.046-1.392-25.762-4.03-38.012H320.076a178.242 178.242 0 0 1 5.208-19.009h99.442a181.479 181.479 0 0 0-7.592-19.004H332.88a180.954 180.954 0 0 1 10.338-19.008h63.57a181.425 181.425 0 0 0-13.67-18.992h-36.225a181.098 181.098 0 0 1 18.112-19c-31.854-28.883-74.137-46.483-120.517-46.483C155.358 55.998 75 136.365 75 235.506c0 99.134 80.358 179.496 179.487 179.496 46.388 0 88.667-17.596 120.517-46.475a180.409 180.409 0 0 0 18.134-19.037z" fill="#0097d0"/><path d="M651.075 335.544c0-3.2 2.596-5.796 5.8-5.796 3.2 0 5.792 2.596 5.792 5.796 0 3.204-2.592 5.8-5.792 5.8a5.799 5.799 0 0 1-5.8-5.8zm5.8 4.408a4.401 4.401 0 0 0 4.404-4.408 4.396 4.396 0 0 0-4.404-4.396 4.4 4.4 0 0 0-4.408 4.396 4.405 4.405 0 0 0 4.408 4.408zm-.787-1.862h-1.184v-5.092h2.15c.446 0 .904.004 1.3.258.417.284.646.775.646 1.271 0 .583-.337 1.113-.88 1.317l.934 2.246h-1.316l-.775-2.009h-.875zm0-2.88h.658c.246 0 .504.017.725-.1a.712.712 0 0 0 .3-.591.652.652 0 0 0-.288-.513c-.212-.125-.541-.1-.762-.1h-.633zm-283.642-51.204c-7.671 2.034-15.088 3.025-22.93 3.009-25.016-.025-38.045-11.417-38.045-33.2 0-25.459 16.587-44.184 39.1-44.184 18.416 0 30.175 10.5 30.175 26.946 0 5.458-.796 10.77-2.746 18.296h-44.488c-1.583 10.633 6.188 15.304 19.413 15.304 7.925 0 15.092-1.425 23.025-4.612zm-11.963-44.15c0-1.608 2.475-13.033-10.4-13.283-7.108 0-12.208 4.725-14.27 13.283zm27.034-4.991c0 9.404 5.296 15.9 17.329 20.737 9.2 3.77 10.65 4.858 10.65 8.22 0 4.663-4.067 6.805-13.092 6.747-6.779-.05-12.962-.871-20.262-2.896l-3.23 17.154c6.488 1.504 15.588 2 23.65 2.188 24.026 0 35.117-7.867 35.117-24.867 0-10.217-4.625-16.233-16.033-20.713-9.538-3.808-10.658-4.637-10.658-8.083 0-4.05 3.779-6.1 11.15-6.1 4.462 0 10.579.413 16.379 1.108l3.258-17.241c-5.912-.825-14.883-1.484-20.075-1.484-25.45 0-34.258 11.459-34.183 25.23m-88.242 50.92h-18.662l.445-7.82c-5.691 6.17-13.27 9.041-23.558 9.041-12.175 0-20.517-8.325-20.517-20.296 0-18.195 14.5-28.691 39.43-28.691 2.562 0 5.82.191 9.166.562.692-2.433.88-3.479.88-4.808 0-4.98-3.921-6.813-14.413-6.813-10.342.042-17.321 1.571-23.796 3.313l3.187-16.7c11.196-2.846 18.53-3.942 26.825-3.942 19.305 0 29.5 7.567 29.5 21.796.167 3.796-1.158 11.413-1.82 14.746-.759 4.854-6.109 32.975-6.667 39.612zm-16.38-33.191c-2.366-.242-3.395-.313-5.012-.313-12.729 0-19.183 3.788-19.183 11.267 0 4.692 3.15 7.633 8.058 7.633 9.146 0 15.75-7.65 16.138-18.587zm194.11 32.012c-6.126 1.68-10.897 2.409-16.06 2.409-11.432 0-17.674-5.842-17.674-16.25-.358-2.859 2.433-16.059 3.067-19.738.633-3.692 10.537-57.492 10.537-57.492h22.213l-3.363 17.8h11.392l-3.096 18.171h-11.442s-6.279 31.53-6.279 33.934c0 3.825 2.317 5.487 7.633 5.487 2.546 0 4.509-.237 6.03-.692l-2.959 16.371m99.246-74.975c-16.28 0-29 6.7-36.387 17.892l6.412-16.596c-11.817-4.337-19.433 1.85-26.325 10.65 0 0-1.154 1.463-2.3 2.8v-13.05h-20.858c-2.825 23.03-7.821 46.38-11.73 69.446l-.941 5.02h22.437c2.125-11.708 3.875-21.212 5.617-28.787 4.767-20.787 12.788-27.141 24.83-24.333-2.78 5.98-4.305 12.892-4.305 20.554 0 18.58 10.092 33.788 35.15 33.788 25.288 0 43.596-13.509 43.596-44.309 0-18.579-12.2-33.075-35.196-33.075zm-6.53 59.317c-7.924.125-12.728-6.525-12.728-16.47 0-11.793 7.012-25.113 18.275-25.113 9.087 0 12.2 7.204 12.2 14.879 0 16.779-6.875 26.704-17.746 26.704zm-343.19 16.846h-22.343l13.28-69.954-30.571 69.954h-20.367l-3.725-69.55-13.32 69.55h-20.272l17.267-90.996h34.913l2.912 50.725 22.117-50.725h37.72l-17.612 90.996" fill="#000"/><path d="M613.15 274.385a5.8 5.8 0 0 1 5.796-5.795c3.204 0 5.796 2.6 5.796 5.795a5.796 5.796 0 1 1-11.592 0zm5.796 4.413a4.414 4.414 0 0 0 4.408-4.413 4.406 4.406 0 0 0-4.408-4.404 4.406 4.406 0 0 0-4.408 4.404 4.414 4.414 0 0 0 4.408 4.413zm-.783-1.867h-1.188v-5.083h2.15c.45 0 .908 0 1.304.25.409.28.646.767.646 1.27 0 .58-.337 1.117-.883 1.317l.933 2.246h-1.317l-.77-2.008h-.875zm0-2.887h.658c.242 0 .504.016.725-.096a.702.702 0 0 0 .296-.588.635.635 0 0 0-.284-.512c-.212-.13-.541-.096-.762-.096h-.633zm-240.109 4.354c-7.666 2.033-15.087 3.03-22.925 3.012-25.017-.025-38.046-11.42-38.046-33.208 0-25.45 16.58-44.18 39.096-44.18 18.421 0 30.175 10.497 30.175 26.943 0 5.466-.8 10.77-2.741 18.3h-44.488c-1.583 10.629 6.18 15.308 19.408 15.308 7.925 0 15.088-1.425 23.03-4.617zm-11.962-44.15c0-1.604 2.47-13.033-10.4-13.28-7.109 0-12.204 4.73-14.271 13.28h24.67zm27.037-4.996c0 9.408 5.288 15.9 17.325 20.746 9.204 3.767 10.65 4.858 10.65 8.212 0 4.667-4.066 6.809-13.087 6.75-6.784-.045-12.967-.87-20.263-2.895l-3.237 17.145c6.491 1.517 15.596 2.013 23.654 2.2 24.025 0 35.12-7.87 35.12-24.87 0-10.217-4.628-16.238-16.041-20.713-9.537-3.808-10.654-4.637-10.654-8.083 0-4.05 3.783-6.1 11.146-6.1 4.47 0 10.583.416 16.387 1.112l3.25-17.246c-5.912-.825-14.879-1.483-20.066-1.483-25.459 0-34.263 11.454-34.184 25.225m-88.242 50.93h-18.666l.45-7.822c-5.696 6.159-13.275 9.034-23.558 9.034-12.176 0-20.521-8.325-20.521-20.288 0-18.204 14.495-28.696 39.429-28.696 2.562 0 5.816.192 9.17.563.692-2.433.876-3.475.876-4.808 0-4.984-3.917-6.813-14.409-6.813-10.341.042-17.32 1.575-23.796 3.313l3.184-16.696c11.2-2.85 18.529-3.946 26.829-3.946 19.304 0 29.496 7.567 29.496 21.792.167 3.8-1.159 11.412-1.817 14.754-.762 4.85-6.112 32.97-6.666 39.612zM288.5 246.984c-2.358-.245-3.392-.312-5.012-.312-12.721 0-19.18 3.787-19.18 11.267 0 4.695 3.154 7.633 8.055 7.633 9.154 0 15.758-7.654 16.137-18.588zm194.108 32.017c-6.12 1.675-10.895 2.408-16.054 2.408-11.433 0-17.67-5.845-17.67-16.254-.363-2.854 2.433-16.058 3.062-19.737.633-3.692 10.537-57.492 10.537-57.492h22.209l-3.354 17.8h11.391l-3.096 18.17h-11.441s-6.284 31.53-6.284 33.934c0 3.825 2.321 5.48 7.634 5.48 2.541 0 4.508-.23 6.029-.692zm110.471-42.367c0 16.775-6.879 26.709-17.754 26.709-7.92.112-12.725-6.525-12.725-16.475 0-11.792 7.008-25.113 18.27-25.113 9.093 0 12.21 7.213 12.21 14.88zm23.98.467c0-18.58-12.209-33.08-35.196-33.08-26.45 0-43.55 17.626-43.55 43.597 0 18.579 10.083 33.791 35.15 33.791 25.287 0 43.595-13.512 43.595-44.308zM502.395 205.72c-2.821 23.029-7.817 46.375-11.721 69.45l-.946 5.02h22.434c8.087-44.558 10.8-57.254 27.741-52.783l8.15-21.087c-11.816-4.338-19.425 1.854-26.308 10.658.62-3.962 1.792-7.783 1.508-11.258zm-270.259 74.47H209.8l13.275-69.958L192.5 280.19h-20.363l-3.725-69.555-13.32 69.555H134.82l17.262-91h34.921l1.846 56.333 24.575-56.333h36.325z" fill="#fff"/></g></svg>