<svg height="471" width="750" xmlns="http://www.w3.org/2000/svg"><g fill="none" fill-rule="evenodd"><rect fill="#f4f4f4" height="471" rx="40" width="750"/><path d="M618.579 422.143c-1.213.03-2.213.432-2.998 1.207-.785.776-1.192 1.746-1.22 2.911.028 1.157.435 2.125 1.22 2.904.785.78 1.785 1.184 2.998 1.215 1.185-.03 2.171-.436 2.96-1.215.787-.78 1.196-1.747 1.226-2.904-.03-1.165-.437-2.135-1.223-2.91-.786-.776-1.774-1.179-2.963-1.208zm0 7.329c-.925-.023-1.687-.336-2.287-.94-.6-.602-.91-1.36-.932-2.27.021-.916.332-1.672.932-2.27.6-.599 1.362-.909 2.287-.93.904.021 1.655.331 2.25.93.596.598.905 1.354.927 2.27-.022.91-.33 1.668-.926 2.27-.596.604-1.347.917-2.251.94zm.242-5.139h-1.766v3.826h.817v-1.433h.374l1.16 1.433h.978l-1.25-1.443c.39-.05.69-.176.901-.38.21-.204.317-.465.32-.781-.004-.378-.137-.675-.4-.891-.264-.216-.642-.326-1.134-.33zm-.01.717c.219 0 .39.043.515.127a.434.434 0 0 1 .19.378.446.446 0 0 1-.19.386c-.124.086-.296.129-.515.129h-.939v-1.02zm-458.605 2.703h-8.755V386.87h8.584v4.982s7.539-6.089 12.017-6.013c8.706.148 13.905 7.559 13.905 7.559s4.217-7.559 13.733-7.559c14.073 0 16.137 12.884 16.137 12.884v28.857h-8.412v-25.422s.03-7.73-9.098-7.73c-9.44 0-10.3 7.73-10.3 7.73v25.423h-8.755v-25.595s-.841-8.073-8.756-8.073c-10.278 0-10.471 8.245-10.471 8.245zm266.254-41.92c-4.478-.075-12.016 6.013-12.016 6.013v-4.971h-8.593v40.874h8.76l-.167-25.593s.193-8.228 10.472-8.228c1.909 0 3.391.463 4.565 1.175v-.033l2.853-7.96c-1.722-.725-3.68-1.239-5.874-1.276zm123.33 0c-4.477-.075-12.015 6.013-12.015 6.013v-4.971h-8.593v40.874h8.76l-.167-25.593s.193-8.228 10.472-8.228c1.909 0 3.391.463 4.565 1.175v-.033l2.853-7.96c-1.722-.725-3.68-1.239-5.874-1.276zm-305.653-.167c-13.103 0-20.037 11.784-20.072 21.629-.036 10.091 7.894 21.73 20.44 21.73 7.32 0 13.334-5.407 13.334-5.407l-.016 4.164h8.618V386.86h-8.648v5.155s-5.647-6.348-13.656-6.348zm1.678 8.33c7.04 0 12.754 6.126 12.754 13.668 0 7.543-5.715 13.636-12.754 13.636-7.04 0-12.721-6.093-12.721-13.636 0-7.542 5.681-13.669 12.72-13.669zm249.646-8.33c-13.103 0-20.037 11.784-20.072 21.629-.036 10.091 7.894 21.73 20.44 21.73 7.32 0 13.334-5.407 13.334-5.407l-.016 4.164h8.618V386.86h-8.648v5.155s-5.647-6.348-13.656-6.348zm1.678 8.33c7.04 0 12.754 6.126 12.754 13.668 0 7.543-5.715 13.636-12.754 13.636-7.04 0-12.721-6.093-12.721-13.636 0-7.542 5.681-13.669 12.72-13.669zm81.066-8.33c-13.102 0-20.036 11.784-20.071 21.629-.036 10.091 7.893 21.73 20.44 21.73 7.32 0 13.334-5.407 13.334-5.407l-.016 4.164h8.618v-57.078h-8.648v21.31s-5.648-6.348-13.657-6.348zm1.678 8.33c7.04 0 12.755 6.126 12.755 13.668 0 7.543-5.715 13.636-12.755 13.636s-12.72-6.093-12.72-13.636c0-7.542 5.68-13.669 12.72-13.669zm-287.148 35.13c-8.926 0-17.167-5.497-17.167-5.497l3.777-5.84s7.797 3.607 13.39 3.607c3.634 0 9.712-1.174 9.785-4.81.078-3.842-10.214-4.981-10.214-4.981s-15.364-.21-15.364-12.883c0-7.97 7.673-13.055 17.51-13.055 5.684 0 16.308 4.981 16.308 4.981l-4.291 6.7s-8.204-3.28-12.532-3.436c-3.655-.132-8.069 1.62-8.069 4.81 0 8.668 25.58-.676 25.58 16.834 0 11.487-10.418 13.57-18.713 13.57zm32.93-54.108v11.892h-7.619v8.597h7.62v20.555s-.675 13.904 14.264 13.904c4.13 0 12.218-3.056 12.218-3.056l-3.457-8.934s-3.217 2.745-6.848 2.653c-6.904-.174-6.713-4.6-6.713-4.6v-20.524h14.233v-8.595h-14.232v-11.891h-9.465zm51.858 11.15c-14.05 0-21.07 11.58-21.012 21.63.06 10.335 6.392 21.965 21.85 21.965 6.617 0 15.91-5.81 15.91-5.81L390.277 417s-6.341 4.5-11.915 4.5c-11.16 0-11.882-10.915-11.882-10.915h29.872s2.229-24.416-18.83-24.416zm-1.276 8.028c.331-.02.687 0 1.04 0 10.514 0 10.44 9.94 10.44 9.94H366.48s-.503-9.356 9.767-9.94zm90.132 22.699l4.006 8.017s-6.349 4.13-13.474 4.13c-14.751 0-22.943-11.11-22.943-21.621 0-16.52 13.036-21.378 21.85-21.378 8.001 0 14.931 4.616 14.931 4.616l-4.491 8.016s-2.723-4.25-10.682-4.25c-7.946 0-12.14 6.854-12.14 13.36 0 7.291 4.881 13.483 12.261 13.483 5.79 0 10.682-4.373 10.682-4.373z" fill="#000"/><path d="M624.508 278.631v-5.52h-1.44l-1.658 3.796-1.657-3.796h-1.44v5.52h1.017v-4.164l1.553 3.59h1.055l1.553-3.6v4.174zm-9.123 0v-4.578h1.845v-.933h-4.698v.933h1.845v4.578zm9.412-82.071c0 85.425-69.077 154.676-154.288 154.676-85.21 0-154.288-69.25-154.288-154.676S385.298 41.883 470.51 41.883c85.21 0 154.288 69.251 154.288 154.677z" fill="#f79f1a"/><path d="M434.46 196.56c0 85.425-69.078 154.676-154.288 154.676-85.212 0-154.288-69.25-154.288-154.676S194.96 41.883 280.172 41.883c85.21 0 154.287 69.251 154.287 154.677z" fill="#ea001b"/><path d="M375.34 74.797c-35.999 28.317-59.107 72.318-59.107 121.748s23.108 93.466 59.108 121.782c35.999-28.316 59.107-72.352 59.107-121.782s-23.108-93.431-59.107-121.748z" fill="#ff5f01"/></g></svg>