<svg xmlns="http://www.w3.org/2000/svg" width="23" height="24" fill="none" xmlns:v="https://vecta.io/nano"><path d="M11.5.45a11.26 11.26 0 0 0-5.796 1.564 11.64 11.64 0 0 0-4.14 4.14A11.26 11.26 0 0 0 0 11.95a11.26 11.26 0 0 0 1.564 5.796 11.64 11.64 0 0 0 4.14 4.14c1.779 1.043 3.711 1.564 5.796 1.564s4.017-.521 5.796-1.564a11.64 11.64 0 0 0 4.14-4.14C22.479 15.967 23 14.035 23 11.95s-.521-4.017-1.564-5.796a11.64 11.64 0 0 0-4.14-4.14A11.26 11.26 0 0 0 11.5.45zM8.625 16.734H6.716V7.166h1.909v9.568zm7.659 0h-5.75v-1.909h5.75v1.909zm0-3.818h-5.75v-1.932h5.75v1.932zm0-3.841h-5.75V7.166h5.75v1.909z" fill="black"/></svg>
