<svg xmlns="http://www.w3.org/2000/svg" xmlns:xlink="http://www.w3.org/1999/xlink" width="162" height="134" fill="none" xmlns:v="https://vecta.io/nano"><style><![CDATA[.B{fill:#fff}.C{stroke:#a4afb7}.D{stroke-width:1.397}.E{stroke-linecap:round}.F{stroke-linejoin:round}.G{fill-rule:evenodd}.H{stroke-width:1.398}.I{fill:#a4afb7}]]></style><use xlink:href="#B" class="B"/><g class="C"><g class="D"><use xlink:href="#B" class="E F"/><path d="M37.309 9.379a4.19 4.19 0 0 1 4.19 4.19v24.333a4.19 4.19 0 0 1-4.19 4.19l-1.82-.001v4.162a.84.84 0 0 1-.128.445l-.069.095a.84.84 0 0 1-1.181.101l-5.705-4.803-15.537.001a4.19 4.19 0 0 1-4.19-4.19V13.569a4.19 4.19 0 0 1 4.19-4.19h24.439z" fill="#c2cbd2" class="G"/></g><path d="M3.793 3.095l2.793 3.491M11.125 1v4.19M1 10.776l3.491.698" stroke-width="1.257" class="E"/><path d="M66.772 25.043c-3.543-.056-6.936 1.426-9.303 4.062l-2.89 3.218a16.06 16.06 0 0 0-1.914 2.622c-1.947 3.329-2.985 5.837-3.042 7.537-.703 20.964-.859 36.189-.467 45.675.178 4.303.763 8.13 1.76 11.48a16.04 16.04 0 0 0 15.393 11.478h60.045a16.01 16.01 0 0 0 11.356-4.703c2.906-2.907 4.704-6.922 4.704-11.357V45.183c0-3.475-1.117-6.752-3.061-9.431a16.04 16.04 0 0 0-8.015-5.836l-12.419-4.055-52.147-.818z" class="B D"/></g><path d="M108.061 24.253H69.833a21.79 21.79 0 0 0-21.786 21.786v38.381a21.79 21.79 0 0 0 21.786 21.786h38.228a21.79 21.79 0 0 0 21.785-21.786V46.038a21.79 21.79 0 0 0-21.785-21.786z" class="B"/><path d="M112.39 24.951H65.503c-9.255 0-16.758 7.503-16.758 16.758v47.039c0 9.255 7.503 16.759 16.758 16.759h46.887c9.255 0 16.758-7.503 16.758-16.759V41.709c0-9.255-7.503-16.758-16.758-16.758z" class="B C D"/><use xlink:href="#C" class="B"/><use xlink:href="#C" class="C D E F"/><use xlink:href="#D" class="B"/><use xlink:href="#D" class="C D E F"/><path d="M113.424 28.931H64.518A11.51 11.51 0 0 0 53.01 40.438v48.906a11.51 11.51 0 0 0 11.507 11.507h48.906a11.51 11.51 0 0 0 11.507-11.507V40.438a11.51 11.51 0 0 0-11.507-11.507z" fill="#e6e9ec" fill-opacity=".7"/><g class="B C D G"><path d="M49.964 127.586c2.701-.001 4.84 2.226 4.84 4.694H33.399c0-4.627 3.335-8.024 7.963-8.024 3.11 0 4.725 1.082 6.624 3.627.04.054-1.579 1.245-1.539 1.301-.189.424 1.369-1.598 3.517-1.598zm97.414 4.567h-7.362l-1.268-2.22-6.023-10.091-.084-.154c-.896-1.75-.653-3.895 1.098-4.791a3.12 3.12 0 0 1 .434-.184 3.23 3.23 0 0 1 3.922 1.607c.045.088.102.226.173.414l2.074 6.431c-.091-.562-.567-4.087-1.428-10.574a4.38 4.38 0 0 1 3.989-4.741 4.33 4.33 0 0 1 .558-.012l.252.01a4.47 4.47 0 0 1 4.278 4.652c-.003.083-.009.167-.017.25l-1.916 14.544c.024.799.698-1.639 2.023-7.314a2.66 2.66 0 0 1 3.426-1.558 2.72 2.72 0 0 1 .359.166c1.493.83 1.589 2.233.764 3.728l-5.252 9.837z"/><path d="M135.764 126.694c3.012 0 5.467 2.383 5.582 5.367l.003.218h-11.171a5.59 5.59 0 0 1 5.367-5.581l.219-.004z"/></g><path d="M28.372 132.552h122.894m3.91 0h5.586m-141.328 0h5.586m-10.055 0h1.676" class="E C D"/><use xlink:href="#E" class="B"/><g class="E"><use xlink:href="#E" class="C D F"/><g stroke="#fff" stroke-width="3.352"><path d="M63.556 35.075c-2.261 1.378-3.863 3.131-4.807 5.258"/><path d="M18.087 25.943l5.258 4.807 10.197-11.173" class="F"/></g></g><g class="B"><path d="M57.13 46.777c.733 0 1.327-.594 1.327-1.327s-.594-1.327-1.327-1.327-1.327.594-1.327 1.327.594 1.327 1.327 1.327z"/><path d="M101.596 52.937c3.579 0 6.591 3.053 6.591 7.305 0 2.072-.596 3.671-1.621 4.767-1.658-1.006-3.604-1.584-5.685-1.584-1.455 0-2.845.283-4.117.798-.951-1.174-1.539-2.71-1.539-4.508 0-4.253 2.791-6.777 6.37-6.777z" class="C G H"/></g><path d="M100.882 63.924c1.655 0 2.996-1.341 2.996-2.996s-1.341-2.996-2.996-2.996-2.997 1.342-2.997 2.996 1.341 2.996 2.997 2.996z" class="I"/><path d="M71.563 52.937c-3.579 0-6.591 3.053-6.591 7.305 0 2.072.596 3.671 1.62 4.767 1.658-1.006 3.604-1.584 5.685-1.584 1.456 0 2.846.283 4.117.798.95-1.174 1.539-2.71 1.539-4.508 0-4.253-2.791-6.777-6.37-6.777z" class="B C G H"/><path d="M72.277 63.924c-1.655 0-2.996-1.341-2.996-2.996s1.342-2.996 2.996-2.996 2.996 1.342 2.996 2.996-1.341 2.996-2.996 2.996z" class="I"/><g class="C"><path d="M74.611 43.949c-6.086 1.702-9.129 3.234-9.129 4.597m34.842-4.597c6.086 1.702 9.129 3.234 9.129 4.597" stroke-width="1.394" class="E F"/><g class="G"><path d="M88.415 80.868c5.056 0 8.045-2.648 10.374-4.956-2.759 1.191-4.824 2.66-10.892 2.66s-8.434-1.048-10.987-2.238c3.266 2.986 6.449 4.534 11.505 4.534z" stroke-width=".999" class="F I"/><g class="B"><g class="H"><path d="M82.732 78.487l4.788.251-.157 2.992a1.8 1.8 0 0 1-1.889 1.701l-1.197-.063a1.8 1.8 0 0 1-1.701-1.889l.157-2.992z"/><path d="M92.276 78.487l-4.788.251.157 2.992a1.8 1.8 0 0 0 1.889 1.701l1.197-.063a1.8 1.8 0 0 0 1.701-1.889l-.157-2.992z"/></g><path d="M104.49 48.955c8.741.196 13.198 1.28 13.371 3.252v3.705c-1.065.337-1.67.955-1.815 1.854-1.543 9.527-4.237 13.15-11.878 13.15-7.723 0-14.822-3.84-15.763-14.117-.051-.558-.72-.853-2.006-.887l-.221.009c-1.142.061-1.738.353-1.786.878-.941 10.278-8.04 14.117-15.763 14.117-7.641 0-10.335-3.624-11.877-13.15-.136-.839-.672-1.434-1.609-1.783l-.207-.071v-3.705c.173-1.972 4.63-3.055 13.371-3.252 6.485-.145 11.383.909 14.684 2.67.674.36 1.702.553 3.083.579l.325.003c1.546 0 2.682-.194 3.408-.582 3.3-1.761 8.199-2.815 14.683-2.67zm-34.135 3.068c-4.589-.11-7.715.117-9.076 1.909-.996 1.312-.837 3.449-.603 5.302.298 2.368 1.022 4.483 1.964 5.722 1.061 1.395 3.033 2.556 6.496 2.556 3.87 0 7.51-1.409 9.369-3.605.894-1.056 3.709-5.835 2.478-8.687-.207-.481-.735-2.959-10.628-3.197zm41.317 1.909c-1.362-1.792-4.487-2.019-9.076-1.909-9.894.237-10.421 2.716-10.629 3.197-1.231 2.853 1.584 7.631 2.478 8.687 1.859 2.196 5.499 3.605 9.368 3.605 3.464 0 5.436-1.161 6.496-2.556.943-1.239 1.666-3.354 1.965-5.722.233-1.853.393-3.99-.603-5.302z" stroke-width="1.119"/></g></g></g><defs ><path id="B" d="M61.981 75.275c-8.022 2.543-16.67 10.308-21.961 7.668-3.421-1.707-6.616-13.6-11.274-18.15-2.814-2.749-4.152-3.477-5.389-4.136-3.755-1.999-5.346-1.638-5.346-3.387 0-2.268 4.933-2.785 10.147 2.237.368.354-4.812-4.021-6.085-5.023-1.408-1.108-2.739-2.339-2.027-3.653 1.192-2.201 4.011-.431 5.887 1.844 1.657 2.01 3.473 4.415 2.814 3.276-1.404-2.427 2.049-4.538 3.375-4.957s3.693-.56 4.477.916c.435.817.173 1.607-.785 2.175-1.231.729-3.824 1.085-4.3 3.185-.33 1.456.607 3.039 3.011 1.24 1.465-1.096.518-2.989 2.073-4.264s3.361-.711 3.361 1.1c0 6.018-4.688 7.117-4.469 7.488 2.073 3.515 5.699 10.152 6.776 11.245 5.139 5.215 13.53-9.38 16.52-8.028"/><path id="C" d="M101.036 108.812l.55 18.724h-1.291c-1.434 0-2.596 1.162-2.596 2.596s1.162 2.595 2.596 2.595h4.068c1.929 0 3.493-1.564 3.493-3.493 0-.594-1.434-9.606-1.127-20.422"/><path id="D" d="M77.575 108.812l.55 18.724h-1.291c-1.433 0-2.596 1.162-2.596 2.596s1.162 2.595 2.596 2.595h4.068c1.929 0 3.493-1.564 3.493-3.493 0-.594-1.434-9.606-1.127-20.422"/><path id="E" d="M134.296 71.665c5.477 3.199 16.659 8.085 14.071 9.774-6.701 4.374-9.157 2.803-9.157 8.071 0 9.57 6.258 10.819 9.157 8.299s.316-9.849-3.331-8.299 10.14-5.369 10.14-9.32-16.866-16.835-20.88-17.654"/></defs></svg>