<svg width="72" height="72" viewBox="0 0 72 72" fill="none" xmlns="http://www.w3.org/2000/svg">
<rect width="72" height="72" rx="8" fill="#FF7BE5"/>
<path d="M22.6561 13.4253C22.7433 13.1728 23.1004 13.1728 23.1877 13.4253L25.8479 21.1216C25.8764 21.2039 25.9414 21.2684 26.0239 21.2963L33.8038 23.921C34.059 24.0071 34.059 24.3679 33.8038 24.454L26.0239 27.0787C25.9414 27.1066 25.8764 27.1711 25.8479 27.2534L23.1877 34.9497C23.1004 35.2022 22.7433 35.2022 22.6561 34.9497L19.9958 27.2534C19.9674 27.1711 19.9024 27.1066 19.8199 27.0787L12.0399 24.454C11.7848 24.3679 11.7848 24.0071 12.0399 23.921L19.8199 21.2963C19.9024 21.2684 19.9674 21.2039 19.9958 21.1216L22.6561 13.4253Z" fill="white"/>
<path d="M38.7521 41.0697V32.7816C38.7521 32.5288 38.4446 32.4044 38.2688 32.586L12.5602 59.1482C12.3875 59.3266 12.514 59.625 12.7623 59.625H59.3438C59.4991 59.625 59.625 59.4991 59.625 59.3438V25.9289C59.625 25.6878 59.3415 25.5585 59.1594 25.7165L29.5861 51.3782L38.7521 41.0697Z" fill="white"/>
</svg>
