<svg width="298" height="321" viewBox="0 0 298 321" fill="none" xmlns="http://www.w3.org/2000/svg">
<g clip-path="url(#clip0_38_2198)">
<rect width="298" height="321" rx="8" fill="#FFE1F9"/>
<path opacity="0.8" d="M51.1458 70.0189C51.2625 69.6831 51.7375 69.6831 51.8542 70.0189L65.8221 110.198C65.8602 110.308 65.947 110.394 66.0571 110.431L106.94 124.144C107.281 124.259 107.281 124.741 106.94 124.856L66.0571 138.569C65.947 138.606 65.8602 138.692 65.8221 138.802L51.8542 178.981C51.7375 179.317 51.2625 179.317 51.1458 178.981L37.1779 138.802C37.1398 138.692 37.053 138.606 36.9429 138.569L-3.94012 124.856C-4.2811 124.741 -4.2811 124.259 -3.94012 124.144L36.9429 110.431C37.053 110.394 37.1398 110.308 37.1779 110.198L51.1458 70.0189Z" fill="#FFC5F3"/>
<path opacity="0.8" d="M219.538 217.877V152.719C219.538 150.732 217.12 149.753 215.738 151.181L13.6283 360.001C12.2704 361.404 13.2646 363.75 15.2171 363.75H381.42C382.641 363.75 383.631 362.76 383.631 361.539V98.8461C383.631 96.9507 381.403 95.9338 379.971 97.176L147.479 298.917L219.538 217.877Z" fill="#FFC5F3"/>
</g>
<defs>
<clipPath id="clip0_38_2198">
<rect width="298" height="321" rx="8" fill="white"/>
</clipPath>
</defs>
</svg>
