<?xml version="1.0" encoding="UTF-8"?><svg id="Layer_2" xmlns="http://www.w3.org/2000/svg" viewBox="0 0 53.56 53.56"><g id="Layer_1-2"><path d="M52.67,19.89c-1.19-4.59-3.53-8.59-7.01-11.99-3.4-3.48-7.4-5.82-11.99-7.01-4.59-1.19-9.18-1.19-13.77,0-4.59,1.19-8.61,3.51-12.05,6.95-3.44,3.44-5.76,7.46-6.95,12.05-1.19,4.59-1.19,9.18,0,13.77,1.19,4.59,3.51,8.61,6.95,12.05,3.44,3.44,7.46,5.76,12.05,6.95,4.59,1.19,9.18,1.19,13.77,0,4.59-1.19,8.61-3.51,12.05-6.95s5.76-7.46,6.95-12.05c1.19-4.59,1.19-9.18,0-13.77ZM44.76,31.63h-13.13v13.13h-9.69v-13.13h-13.13v-9.69h13.13v-13.14h9.69v13.14h13.13v9.69Z"/></g></svg>