<?xml version="1.0" encoding="utf-8"?>
<!-- Generator: Adobe Illustrator 27.0.0, SVG Export Plug-In . SVG Version: 6.00 Build 0)  -->
<svg version="1.1" id="Capa_1" xmlns="http://www.w3.org/2000/svg" xmlns:xlink="http://www.w3.org/1999/xlink" x="0px" y="0px"
	 viewBox="0 0 543 112.1" style="enable-background:new 0 0 543 112.1;" xml:space="preserve">
<style type="text/css">
	.st0{fill:#0871C4;}
</style>
<g>
	<path class="st0" d="M253.9,18.3c5.1,0,9.3-4.2,9.3-9.3c-0.1-5-4.3-9.1-9.3-9c-5,0.1-9.1,4.3-9,9.3C245,14.2,249,18.2,253.9,18.3z"
		/>
	<path class="st0" d="M140.7,74.1c10.8,0,17.7-5,20.5-9.3l-10.5-9.6c-2.1,3.1-5.6,5-9.3,5c-6.5,0-11.8-4.6-11.8-12.1
		s5-12.1,11.8-12.1c3.7-0.2,7.2,1.6,9.3,4.6l10.5-9.6c-3.1-4.3-9.6-9.3-20.5-9.3c-15.8,0-27.3,10.5-27.3,26.3S125.2,74.1,140.7,74.1
		L140.7,74.1z"/>
	<path class="st0" d="M107.5,72.8V41.5c0-15.5-11.5-20.1-23.2-20.1c-7.7,0-16.4,2.2-22.6,7.8l5.9,11.2c3.9-3.3,8.9-5.2,14-5.2
		c6.5,0,10.2,3.1,10.2,7.4v5c-3.1-3.7-9-5.9-15.5-5.9c-7.8,0-17.4,4-17.4,16.1c0,11.1,9.6,16.4,17.4,16.4c6.5,0,12.4-2.5,15.5-6.2v5
		L107.5,72.8z M91.4,59.5c-1.5,2.8-5.3,4-9,4v0c-4,0-8-1.9-8-5.9c0-4,3.7-5.9,8-5.9c3.4,0,7.1,1.2,9,3.4V59.5z"/>
	<polygon class="st0" points="217,22.6 197.7,22.6 182.6,42.8 182.6,3.7 166.4,3.7 166.4,72.8 182.6,72.8 182.6,60.7 187.2,55.2 
		198.4,72.8 217.6,72.8 198.4,45.6 	"/>
	<path class="st0" d="M58.9,26.6c0-12.4-8.4-22.9-24.2-22.9H0v69.1h18V49.6h16.7C50.2,49.6,58.9,39,58.9,26.6z M31.9,34.1L31.9,34.1
		l-13.9,0V19.2h14.2c4.7,0,8.7,2.8,8.7,7.4C40.6,31.3,36.9,34.1,31.9,34.1z"/>
	<polygon class="st0" points="495.3,46.2 495.3,46.1 495.3,45.8 495.1,45.8 	"/>
	<path class="st0" d="M440.7,4.2h-21.1V46l10.8,0.2v-14h10.2c9.3,0,14.6-6.2,14.6-14C455.3,10.4,450,4.2,440.7,4.2z M438.9,22.6
		L438.9,22.6l-8.7,0v-9h8.7c2.8,0,5.3,1.6,5.3,4.7C444.2,21.1,442,22.6,438.9,22.6z"/>
	<polygon class="st0" points="236.5,3.7 220.4,3.7 220.4,72.8 236.5,72.8 	"/>
	<rect x="245.5" y="22.9" class="st0" width="16.1" height="49.9"/>
	<polygon class="st0" points="380.6,22.6 361.4,22.6 346.2,42.8 346.2,3.7 330.1,3.7 330.1,72.8 346.2,72.8 346.2,60.7 350.9,55.2 
		362,72.8 381.6,72.8 362,45.6 	"/>
	<path class="st0" d="M520.7,3.4c-12.7,0-22.6,9-22.6,21.7c0,12.7,9.9,21.7,22.6,21.7c12.7,0,22.3-9,22.3-21.7S533.4,3.4,520.7,3.4z
		 M520.7,37.1L520.7,37.1c-6.8,0-11.5-5.2-11.5-12s4.6-12,11.5-12s11.5,5.2,11.5,12C532.2,31.8,527.8,37.1,520.7,37.1z"/>
	<path class="st0" d="M495,18c0-7.8-5.3-14-14.6-14h-21.1v41.8h10.8v-14h5.6l7.1,14h12.2l-8.5-15.1C490.6,29.4,495,25.4,495,18z
		 M478.9,22.6L478.9,22.6l-8.7,0v-9h8.7c2.8,0,5.3,1.6,5.3,4.3C484.2,21.1,481.7,22.6,478.9,22.6z"/>
	<path class="st0" d="M304.4,21.7c-8.4,0-14.6,3.7-17.4,7.4v-6.2h-16.2v49.9H287V40.6c1.9-2.2,5-5,9.6-5c5,0,8.1,2.2,8.1,8.4v28.8
		l16.2,0V37.5C320.8,28.2,315.6,21.7,304.4,21.7z"/>
	<path class="st0" d="M391.4,3.5c-5,0-9.1,4-9.1,9.1c0,5,4.1,9.1,9.1,9.1c5.1,0,9.1-4.1,9.1-9.1C400.4,7.6,396.4,3.5,391.4,3.5z
		 M391.4,20.3c-4.3,0-7.7-3.5-7.7-7.7c0-4.3,3.4-7.7,7.7-7.7c4.2,0,7.7,3.4,7.7,7.7C399.1,16.9,395.6,20.3,391.4,20.3z"/>
	<path class="st0" d="M395.5,10.6c0-1.9-1.6-3.2-3.4-3.2h-4.2v10.4h1.5v-4.1h1.8l2.7,4.1h1.8l-2.8-4.2
		C393.5,13.7,395.5,12.9,395.5,10.6z M389.4,12.4V8.7h2.8c0.9,0,1.9,0.7,1.9,1.9c0,1.1-1,1.8-1.9,1.8H389.4z"/>
</g>
</svg>
