<svg width="121" height="29" viewBox="0 0 121 29" fill="none" xmlns="http://www.w3.org/2000/svg">
<g clip-path="url(#clip0_4001_339933)">
<path d="M25.5715 17.2563C25.5715 14.2347 23.274 11.7624 20.3523 11.4378C19.9278 9.91449 19.0288 8.54102 17.8051 7.54213C16.4067 6.36844 14.6087 5.74414 12.7857 5.74414C10.9628 5.74414 9.16477 6.39342 7.76633 7.54213C6.5427 8.56599 5.6437 9.91449 5.21917 11.4378C2.29744 11.7624 0 14.2596 0 17.2563C0 17.531 0.0249722 19.6037 1.57324 21.2019C2.74693 22.4006 4.44504 23.0249 6.61761 23.0249C8.79019 23.0249 10.788 22.6503 12.7608 21.9511C13.3851 22.1758 14.0094 22.3756 14.6586 22.5254C16.0571 22.85 17.4805 23.0249 18.9039 23.0249C21.0765 23.0249 22.7996 22.4006 23.9483 21.2019C25.5465 19.6037 25.5964 17.5809 25.5715 17.2563ZM23.9732 17.2813C23.9732 17.2813 23.9982 18.9045 22.8245 20.1031C21.9755 20.9771 20.6519 21.4266 18.9289 21.4266C16.0071 21.4266 13.6348 20.6275 12.1864 19.9783C10.8129 19.354 9.93891 18.7296 9.71416 18.5548C9.68919 18.5299 9.66421 18.5299 9.66421 18.5049C9.66421 18.4799 9.63924 18.455 9.63924 18.43V15.0587C9.63924 15.0088 9.66421 14.9339 9.73913 14.9089L12.7358 13.3856C12.7857 13.3606 12.8357 13.3606 12.8856 13.3856L15.8823 14.9089C15.9322 14.9339 15.9822 14.9838 15.9822 15.0587V18.405C15.9822 18.455 15.9572 18.5049 15.9322 18.5049C15.7824 18.6298 15.258 19.0043 14.4589 19.4289C15.1331 19.6286 15.8823 19.8034 16.6814 19.9283C16.8562 19.8034 16.9561 19.7285 16.981 19.7036H17.006C17.2807 19.4788 17.6053 18.9794 17.6053 18.38V15.0587C17.6053 14.3845 17.2308 13.7852 16.6564 13.4855L13.6598 11.9622C13.1603 11.7125 12.561 11.7125 12.0366 11.9622L9.03991 13.4855C8.44058 13.7852 8.09097 14.3845 8.09097 15.0587V18.405C8.09097 19.0043 8.41561 19.4788 8.6903 19.7285H8.71527C8.74024 19.7535 9.41449 20.3029 10.6381 20.9272C9.36455 21.2518 8.066 21.4017 6.74247 21.4017C5.0194 21.4017 3.72085 20.9522 2.84682 20.0781C1.6981 18.9045 1.6981 17.2813 1.6981 17.2563V17.2313C1.6981 14.8839 3.62096 12.9861 5.96834 12.9861H6.61761L6.74247 12.3368C7.01717 10.9383 7.76633 9.66476 8.89008 8.7408C10.0138 7.81683 11.4123 7.29241 12.8856 7.29241C14.359 7.29241 15.7574 7.79186 16.8812 8.7408C17.9799 9.66476 18.7541 10.9383 19.0288 12.3368L19.1536 12.9861H19.8029C22.0754 12.9861 23.9732 14.9089 23.9732 17.2813C23.9732 17.2646 23.9732 17.2646 23.9732 17.2813Z" fill="url(#paint0_linear_4001_339933)"/>
<path d="M32.8458 19.0419C33.0206 18.892 33.2703 18.892 33.4201 19.0668C33.8446 19.5163 34.7436 20.3154 36.0672 20.3154C37.0411 20.3154 38.1399 19.8909 38.1399 19.1168C38.1399 18.2927 37.4406 17.8682 35.9423 17.5685C33.8696 17.144 32.4212 16.3449 32.4212 14.5219C32.4212 13.1235 33.8197 11.75 35.9673 11.75C37.5655 11.75 38.6892 12.4742 39.1887 12.8987C39.3635 13.0486 39.3885 13.3232 39.2137 13.498L38.6393 14.0974C38.4895 14.2472 38.2397 14.2722 38.0899 14.1224C37.7153 13.7977 36.9412 13.3232 35.9423 13.3232C34.7187 13.3232 34.1193 13.9226 34.1193 14.5469C34.1193 15.2711 34.8685 15.6706 36.4418 15.9953C38.2647 16.3948 39.838 17.0691 39.838 19.0419C39.838 20.8898 37.8901 21.8637 36.0172 21.8637C33.9945 21.8637 32.671 20.715 32.1465 20.1656C31.9967 19.9908 31.9967 19.7411 32.1715 19.5912L32.8458 19.0419Z" fill="#002554"/>
<path d="M50.7511 16.8947C50.7511 17.0945 50.7511 17.2193 50.7262 17.469H42.9598C43.0597 18.9174 44.4582 20.2909 46.2811 20.2909C47.6046 20.2909 48.4787 19.6166 48.9032 19.1921C49.078 19.0173 49.3277 19.0423 49.4776 19.1921L50.002 19.7415C50.1518 19.8913 50.1518 20.166 50.002 20.3159C49.4775 20.8403 48.179 21.9141 46.2811 21.9141C43.3594 21.9141 41.2617 19.7165 41.2617 16.8447C41.2617 13.9729 43.1846 11.7754 46.0813 11.7754C48.7534 11.7754 50.7511 13.7981 50.7511 16.8947ZM49.053 15.9957C48.9781 14.9219 48.0042 13.3986 46.0813 13.3986C44.0087 13.3986 43.1346 14.9968 43.0098 15.9957H49.053Z" fill="#002554"/>
<path d="M60.9891 15.4463V21.2149C60.9891 21.4396 60.8143 21.6144 60.5896 21.6144H59.6656C59.4409 21.6144 59.2661 21.4396 59.2661 21.2149V15.746C59.2661 14.0978 58.2422 13.3986 56.9436 13.3986C55.3704 13.3986 54.5463 15.0218 54.5463 15.0218V21.2398C54.5463 21.4646 54.3715 21.6394 54.1468 21.6394H53.2228C52.998 21.6394 52.8232 21.4646 52.8232 21.2398V12.4247C52.8232 12.1999 52.998 12.0251 53.2228 12.0251H54.0219C54.2467 12.0251 54.4215 12.1999 54.4215 12.4247V13.3736C54.4215 13.3736 55.2955 11.7754 57.3682 11.7754C59.2661 11.7754 60.9891 13.0739 60.9891 15.4463Z" fill="#002554"/>
<path d="M70.7282 13.1984V7.25502C70.7282 7.03027 70.903 6.85547 71.1278 6.85547H72.0518C72.2765 6.85547 72.4513 7.03027 72.4513 7.25502V21.2144C72.4513 21.4392 72.2765 21.614 72.0518 21.614H71.2776C71.0529 21.614 70.8781 21.4392 70.8781 21.2144V20.2405C70.8781 20.2405 69.9291 21.8887 67.6317 21.8887C65.0346 21.8887 62.9619 19.6662 62.9619 16.8193C62.9619 13.9725 65.0346 11.75 67.6317 11.75C69.7543 11.775 70.7282 13.1984 70.7282 13.1984ZM70.7282 15.0713C70.7282 15.0713 69.8043 13.3982 67.9064 13.3982C66.0085 13.3982 64.71 14.9464 64.71 16.8443C64.71 18.7422 65.9336 20.2905 67.9064 20.2905C69.8792 20.2905 70.7282 18.6173 70.7282 18.6173V15.0713Z" fill="#002554"/>
<path d="M83.2894 20.3408C82.79 20.8403 81.6413 21.7892 79.9182 21.8891C77.0714 22.0389 74.699 19.7415 74.674 16.8947C74.6491 14.0728 76.7717 11.7754 79.6185 11.7754C81.3915 11.7754 82.6152 12.6744 83.1396 13.1738C83.3144 13.3486 83.3144 13.6233 83.1396 13.7732L82.5652 14.2976C82.4154 14.4474 82.1657 14.4474 82.0159 14.2976C81.6413 13.948 80.8172 13.3986 79.6185 13.3986C77.6707 13.3986 76.4221 14.9469 76.4221 16.8447C76.4221 18.7426 77.6957 20.2909 79.6185 20.2909C80.9171 20.2909 81.7661 19.6416 82.1657 19.2421C82.3155 19.0673 82.5902 19.0922 82.74 19.2421L83.2894 19.7914C83.4642 19.9163 83.4642 20.191 83.2894 20.3408Z" fill="#002554"/>
<path d="M85.7366 6.85547H86.6606C86.8854 6.85547 87.0602 7.03027 87.0602 7.25502V21.2144C87.0602 21.4392 86.8854 21.614 86.6606 21.614H85.7366C85.5119 21.614 85.3371 21.4392 85.3371 21.2144V7.25502C85.3121 7.03027 85.5119 6.85547 85.7366 6.85547Z" fill="#002554"/>
<path d="M99.1722 16.8193C99.1722 19.6412 97.0495 21.8887 94.2277 21.8887C91.4058 21.8887 89.2832 19.6662 89.2832 16.8193C89.2832 13.9725 91.4058 11.75 94.2277 11.75C97.0495 11.775 99.1722 13.9975 99.1722 16.8193ZM97.4241 16.8193C97.4241 14.9215 96.1505 13.3732 94.2277 13.3732C92.3048 13.3732 91.0313 14.9215 91.0313 16.8193C91.0313 18.7172 92.3048 20.2655 94.2277 20.2655C96.1505 20.2655 97.4241 18.7172 97.4241 16.8193Z" fill="#002554"/>
<path d="M101.17 18.1916V12.423C101.17 12.1982 101.345 12.0234 101.569 12.0234H102.493C102.718 12.0234 102.893 12.1982 102.893 12.423V17.8919C102.893 19.54 103.917 20.2393 105.215 20.2393C106.839 20.2393 107.613 18.666 107.613 18.666V12.423C107.613 12.1982 107.788 12.0234 108.012 12.0234H108.936C109.161 12.0234 109.336 12.1982 109.336 12.423V21.2132C109.336 21.4379 109.161 21.6127 108.936 21.6127H108.137C107.912 21.6127 107.738 21.4379 107.738 21.2132V20.1394C107.738 20.1394 106.864 21.8625 104.791 21.8625C102.868 21.8874 101.17 20.5639 101.17 18.1916Z" fill="#002554"/>
<path d="M119.149 13.1984V7.25502C119.149 7.03027 119.324 6.85547 119.549 6.85547H120.473C120.697 6.85547 120.872 7.03027 120.872 7.25502V21.2144C120.872 21.4392 120.697 21.614 120.473 21.614H119.699C119.474 21.614 119.299 21.4392 119.299 21.2144V20.2405C119.299 20.2405 118.35 21.8887 116.053 21.8887C113.455 21.8887 111.383 19.6662 111.383 16.8193C111.383 13.9725 113.455 11.75 116.053 11.75C118.175 11.775 119.149 13.1984 119.149 13.1984ZM119.149 15.0713C119.149 15.0713 118.225 13.3982 116.327 13.3982C114.429 13.3982 113.131 14.9464 113.131 16.8443C113.131 18.7422 114.354 20.2905 116.327 20.2905C118.3 20.2905 119.149 18.6173 119.149 18.6173V15.0713Z" fill="#002554"/>
</g>
<defs>
<linearGradient id="paint0_linear_4001_339933" x1="0.0274693" y1="14.3845" x2="25.6039" y2="14.3845" gradientUnits="userSpaceOnUse">
<stop stop-color="#00D3F7"/>
<stop offset="1" stop-color="#1D96FF"/>
</linearGradient>
<clipPath id="clip0_4001_339933">
<rect width="120.872" height="28.7679" fill="white"/>
</clipPath>
</defs>
</svg>
