<svg width="147" height="116" viewBox="0 0 147 116" fill="none" xmlns="http://www.w3.org/2000/svg">
<rect x="32" y="0.5" width="84" height="115" rx="4.59053" fill="#BFEBFA" fill-opacity="0.5"/>
<g filter="url(#filter0_d_4038_341113)">
<rect width="81.7778" height="92.4444" rx="4.30362" transform="matrix(-1 0 0 1 91.7773 11.3438)" fill="white"/>
</g>
<g clip-path="url(#clip0_4038_341113)">
<path d="M32.7063 28.5738C32.7063 27.0724 31.5647 25.844 30.1129 25.6827C29.902 24.9257 29.4553 24.2433 28.8473 23.7469C28.1524 23.1637 27.259 22.8535 26.3532 22.8535C25.4473 22.8535 24.5539 23.1761 23.859 23.7469C23.251 24.2557 22.8043 24.9257 22.5934 25.6827C21.1416 25.844 20 27.0848 20 28.5738C20 28.7103 20.0124 29.7402 20.7817 30.5344C21.3649 31.13 22.2087 31.4402 23.2883 31.4402C24.3678 31.4402 25.3605 31.2541 26.3407 30.9066C26.651 31.0183 26.9612 31.1176 27.2838 31.192C27.9787 31.3533 28.686 31.4402 29.3932 31.4402C30.4728 31.4402 31.329 31.13 31.8998 30.5344C32.6939 29.7402 32.7187 28.7351 32.7063 28.5738ZM31.9122 28.5862C31.9122 28.5862 31.9246 29.3928 31.3414 29.9884C30.9195 30.4227 30.2618 30.6461 29.4057 30.6461C27.9539 30.6461 26.775 30.249 26.0554 29.9264C25.3729 29.6162 24.9386 29.3059 24.8269 29.2191C24.8145 29.2067 24.8021 29.2067 24.8021 29.1943C24.8021 29.1819 24.7897 29.1694 24.7897 29.157V27.4819C24.7897 27.4571 24.8021 27.4198 24.8393 27.4074L26.3283 26.6505C26.3532 26.6381 26.378 26.6381 26.4028 26.6505L27.8918 27.4074C27.9166 27.4198 27.9414 27.4447 27.9414 27.4819V29.1446C27.9414 29.1694 27.929 29.1943 27.9166 29.1943C27.8422 29.2563 27.5816 29.4424 27.1845 29.6534C27.5196 29.7526 27.8918 29.8395 28.2889 29.9015C28.3757 29.8395 28.4254 29.8023 28.4378 29.7899H28.4502C28.5867 29.6782 28.748 29.43 28.748 29.1322V27.4819C28.748 27.1469 28.5619 26.8491 28.2765 26.7002L26.7875 25.9432C26.5393 25.8191 26.2415 25.8191 25.9809 25.9432L24.4919 26.7002C24.1941 26.8491 24.0204 27.1469 24.0204 27.4819V29.1446C24.0204 29.4424 24.1817 29.6782 24.3182 29.8023H24.3306C24.343 29.8147 24.678 30.0877 25.286 30.3979C24.6532 30.5592 24.0079 30.6337 23.3503 30.6337C22.4941 30.6337 21.8489 30.4103 21.4146 29.976C20.8438 29.3928 20.8438 28.5862 20.8438 28.5738V28.5614C20.8438 27.395 21.7992 26.452 22.9656 26.452H23.2883L23.3503 26.1294C23.4868 25.4345 23.859 24.8017 24.4174 24.3425C24.9758 23.8834 25.6707 23.6228 26.4028 23.6228C27.1349 23.6228 27.8298 23.871 28.3882 24.3425C28.9341 24.8017 29.3188 25.4345 29.4553 26.1294L29.5173 26.452H29.8399C30.9691 26.452 31.9122 27.4074 31.9122 28.5862C31.9122 28.578 31.9122 28.578 31.9122 28.5862Z" fill="url(#paint0_linear_4038_341113)"/>
<path d="M36.3208 29.4612C36.4076 29.3867 36.5317 29.3867 36.6062 29.4736C36.8171 29.6969 37.2638 30.094 37.9215 30.094C38.4054 30.094 38.9514 29.8831 38.9514 29.4984C38.9514 29.0889 38.6039 28.878 37.8594 28.7291C36.8295 28.5181 36.1098 28.1211 36.1098 27.2152C36.1098 26.5204 36.8047 25.8379 37.8718 25.8379C38.666 25.8379 39.2244 26.1977 39.4725 26.4087C39.5594 26.4831 39.5718 26.6196 39.4849 26.7065L39.1995 27.0043C39.1251 27.0787 39.001 27.0912 38.9265 27.0167C38.7404 26.8554 38.3558 26.6196 37.8594 26.6196C37.2514 26.6196 36.9536 26.9174 36.9536 27.2276C36.9536 27.5875 37.3259 27.786 38.1076 27.9473C39.0134 28.1459 39.7951 28.4809 39.7951 29.4612C39.7951 30.3794 38.8273 30.8633 37.8966 30.8633C36.8916 30.8633 36.2339 30.2925 35.9733 30.0196C35.8989 29.9327 35.8989 29.8086 35.9857 29.7342L36.3208 29.4612Z" fill="#002554"/>
<path d="M45.2172 28.3953C45.2172 28.4946 45.2172 28.5566 45.2048 28.6807H41.3457C41.3954 29.4004 42.0902 30.0829 42.9961 30.0829C43.6537 30.0829 44.088 29.7478 44.299 29.5369C44.3858 29.45 44.5099 29.4624 44.5844 29.5369L44.8449 29.8099C44.9194 29.8843 44.9194 30.0208 44.8449 30.0953C44.5844 30.3559 43.9391 30.8894 42.9961 30.8894C41.5443 30.8894 40.502 29.7975 40.502 28.3705C40.502 26.9435 41.4574 25.8516 42.8968 25.8516C44.2245 25.8516 45.2172 26.8567 45.2172 28.3953ZM44.3734 27.9486C44.3362 27.415 43.8523 26.6581 42.8968 26.6581C41.8669 26.6581 41.4326 27.4523 41.3705 27.9486H44.3734Z" fill="#002554"/>
<path d="M50.3047 27.6756V30.542C50.3047 30.6537 50.2178 30.7405 50.1061 30.7405H49.647C49.5353 30.7405 49.4485 30.6537 49.4485 30.542V27.8245C49.4485 27.0056 48.9397 26.6581 48.2945 26.6581C47.5127 26.6581 47.1033 27.4647 47.1033 27.4647V30.5544C47.1033 30.6661 47.0164 30.7529 46.9047 30.7529H46.4456C46.3339 30.7529 46.2471 30.6661 46.2471 30.5544V26.1742C46.2471 26.0625 46.3339 25.9756 46.4456 25.9756H46.8427C46.9544 25.9756 47.0412 26.0625 47.0412 26.1742V26.6457C47.0412 26.6457 47.4755 25.8516 48.5054 25.8516C49.4485 25.8516 50.3047 26.4968 50.3047 27.6756Z" fill="#002554"/>
<path d="M55.1442 26.558V23.6048C55.1442 23.4931 55.2311 23.4062 55.3427 23.4062H55.8019C55.9135 23.4062 56.0004 23.4931 56.0004 23.6048V30.5411C56.0004 30.6528 55.9135 30.7397 55.8019 30.7397H55.4172C55.3055 30.7397 55.2187 30.6528 55.2187 30.5411V30.0572C55.2187 30.0572 54.7471 30.8762 53.6055 30.8762C52.3151 30.8762 51.2852 29.7718 51.2852 28.3572C51.2852 26.9427 52.3151 25.8383 53.6055 25.8383C54.6603 25.8507 55.1442 26.558 55.1442 26.558ZM55.1442 27.4886C55.1442 27.4886 54.6851 26.6573 53.742 26.6573C52.799 26.6573 52.1538 27.4266 52.1538 28.3697C52.1538 29.3127 52.7618 30.082 53.742 30.082C54.7223 30.082 55.1442 29.2507 55.1442 29.2507V27.4886Z" fill="#002554"/>
<path d="M61.3865 30.1077C61.1383 30.3559 60.5676 30.8274 59.7114 30.877C58.2968 30.9515 57.118 29.8099 57.1056 28.3953C57.0932 26.9931 58.1479 25.8516 59.5625 25.8516C60.4435 25.8516 61.0515 26.2983 61.3121 26.5464C61.3989 26.6333 61.3989 26.7698 61.3121 26.8442L61.0267 27.1048C60.9522 27.1793 60.8281 27.1793 60.7537 27.1048C60.5676 26.9311 60.1581 26.6581 59.5625 26.6581C58.5946 26.6581 57.9742 27.4274 57.9742 28.3705C57.9742 29.3135 58.607 30.0829 59.5625 30.0829C60.2077 30.0829 60.6296 29.7602 60.8281 29.5617C60.9026 29.4748 61.0391 29.4873 61.1135 29.5617L61.3865 29.8347C61.4734 29.8967 61.4734 30.0332 61.3865 30.1077Z" fill="#002554"/>
<path d="M62.6019 23.4062H63.061C63.1727 23.4062 63.2596 23.4931 63.2596 23.6048V30.5411C63.2596 30.6528 63.1727 30.7397 63.061 30.7397H62.6019C62.4903 30.7397 62.4034 30.6528 62.4034 30.5411V23.6048C62.391 23.4931 62.4903 23.4062 62.6019 23.4062Z" fill="#002554"/>
<path d="M69.278 28.3568C69.278 29.759 68.2233 30.8757 66.8211 30.8757C65.419 30.8757 64.3643 29.7714 64.3643 28.3568C64.3643 26.9422 65.419 25.8379 66.8211 25.8379C68.2233 25.8503 69.278 26.9547 69.278 28.3568ZM68.4094 28.3568C68.4094 27.4138 67.7766 26.6444 66.8211 26.6444C65.8657 26.6444 65.2329 27.4138 65.2329 28.3568C65.2329 29.2999 65.8657 30.0692 66.8211 30.0692C67.7766 30.0692 68.4094 29.2999 68.4094 28.3568Z" fill="#002554"/>
<path d="M70.2705 29.0376V26.1712C70.2705 26.0595 70.3574 25.9727 70.469 25.9727H70.9282C71.0398 25.9727 71.1267 26.0595 71.1267 26.1712V28.8887C71.1267 29.7076 71.6354 30.0551 72.2807 30.0551C73.0872 30.0551 73.4719 29.2733 73.4719 29.2733V26.1712C73.4719 26.0595 73.5588 25.9727 73.6704 25.9727H74.1296C74.2412 25.9727 74.3281 26.0595 74.3281 26.1712V30.539C74.3281 30.6507 74.2412 30.7375 74.1296 30.7375H73.7325C73.6208 30.7375 73.5339 30.6507 73.5339 30.539V30.0054C73.5339 30.0054 73.0996 30.8616 72.0697 30.8616C71.1143 30.874 70.2705 30.2164 70.2705 29.0376Z" fill="#002554"/>
<path d="M79.2047 26.558V23.6048C79.2047 23.4931 79.2916 23.4062 79.4033 23.4062H79.8624C79.9741 23.4062 80.0609 23.4931 80.0609 23.6048V30.5411C80.0609 30.6528 79.9741 30.7397 79.8624 30.7397H79.4777C79.3661 30.7397 79.2792 30.6528 79.2792 30.5411V30.0572C79.2792 30.0572 78.8077 30.8762 77.6661 30.8762C76.3756 30.8762 75.3457 29.7718 75.3457 28.3572C75.3457 26.9427 76.3756 25.8383 77.6661 25.8383C78.7208 25.8507 79.2047 26.558 79.2047 26.558ZM79.2047 27.4886C79.2047 27.4886 78.7456 26.6573 77.8026 26.6573C76.8595 26.6573 76.2143 27.4266 76.2143 28.3697C76.2143 29.3127 76.8223 30.082 77.8026 30.082C78.7829 30.082 79.2047 29.2507 79.2047 29.2507V27.4886Z" fill="#002554"/>
</g>
<rect x="20" y="84.5" width="62" height="11" rx="1.72145" fill="#049BE4"/>
<rect x="20.3105" y="47.5" width="25.6" height="4.26667" rx="2.13333" fill="#DCDCDE"/>
<rect x="20.3105" y="54.3203" width="61.1556" height="4.26666" rx="2.13333" fill="#DCDCDE"/>
<g opacity="0.4">
<rect x="20" y="68.5" width="3" height="11" fill="#5ECCF3"/>
<rect x="24.5" y="68.5" width="1" height="11" fill="#5ECCF3"/>
<rect x="27" y="68.5" width="5" height="11" fill="#5ECCF3"/>
<rect x="33.5" y="68.5" width="3" height="11" fill="#5ECCF3"/>
<rect x="38" y="68.5" width="3" height="11" fill="#5ECCF3"/>
<rect x="42.5" y="68.5" width="4" height="11" fill="#5ECCF3"/>
<rect x="48" y="68.5" width="3" height="11" fill="#5ECCF3"/>
<rect x="52.5" y="68.5" width="3" height="11" fill="#5ECCF3"/>
<rect x="57" y="68.5" width="5" height="11" fill="#5ECCF3"/>
<rect x="63.5" y="68.5" width="2" height="11" fill="#5ECCF3"/>
<rect x="67" y="68.5" width="3" height="11" fill="#5ECCF3"/>
<rect x="71.5" y="68.5" width="2" height="11" fill="#5ECCF3"/>
<rect x="75" y="68.5" width="4" height="11" fill="#5ECCF3"/>
<rect x="80.5" y="68.5" width="1" height="11" fill="#5ECCF3"/>
</g>
<g filter="url(#filter1_d_4038_341113)">
<rect x="56.2217" y="40.8555" width="81.4222" height="28.4444" rx="4.30362" fill="white" shape-rendering="crispEdges"/>
<rect x="80.6084" y="46.5938" width="6.59889" height="2.29526" rx="1.14763" fill="#DCDCDE"/>
<rect x="80.6084" y="51.1836" width="33.2813" height="2.29526" rx="1.14763" fill="#DCDCDE"/>
<rect x="80.6084" y="55.7754" width="22.0919" height="2.29526" rx="1.14763" fill="#5AC1F4"/>
<circle cx="69" cy="54.5" r="9" fill="#5AC1F4"/>
<mask id="mask0_4038_341113" style="mask-type:luminance" maskUnits="userSpaceOnUse" x="65" y="50" width="7" height="9">
<path fill-rule="evenodd" clip-rule="evenodd" d="M65.292 53.9048L67.4003 56.0132L71.7087 51.7507L70.792 50.834L67.4003 54.2257L66.2087 53.034L65.292 53.9048ZM71.7087 57.2507H65.292V58.1673H71.7087V57.2507Z" fill="white"/>
</mask>
<g mask="url(#mask0_4038_341113)">
<rect x="63" y="49" width="11" height="11" fill="white"/>
</g>
</g>
<defs>
<filter id="filter0_d_4038_341113" x="0.818942" y="2.16269" width="100.139" height="110.807" filterUnits="userSpaceOnUse" color-interpolation-filters="sRGB">
<feFlood flood-opacity="0" result="BackgroundImageFix"/>
<feColorMatrix in="SourceAlpha" type="matrix" values="0 0 0 0 0 0 0 0 0 0 0 0 0 0 0 0 0 0 127 0" result="hardAlpha"/>
<feOffset/>
<feGaussianBlur stdDeviation="4.59053"/>
<feColorMatrix type="matrix" values="0 0 0 0 0 0 0 0 0 0 0 0 0 0 0 0 0 0 0.1 0"/>
<feBlend mode="normal" in2="BackgroundImageFix" result="effect1_dropShadow_4038_341113"/>
<feBlend mode="normal" in="SourceGraphic" in2="effect1_dropShadow_4038_341113" result="shape"/>
</filter>
<filter id="filter1_d_4038_341113" x="47.0406" y="34.5435" width="99.7845" height="46.8074" filterUnits="userSpaceOnUse" color-interpolation-filters="sRGB">
<feFlood flood-opacity="0" result="BackgroundImageFix"/>
<feColorMatrix in="SourceAlpha" type="matrix" values="0 0 0 0 0 0 0 0 0 0 0 0 0 0 0 0 0 0 127 0" result="hardAlpha"/>
<feOffset dy="2.86908"/>
<feGaussianBlur stdDeviation="4.59053"/>
<feComposite in2="hardAlpha" operator="out"/>
<feColorMatrix type="matrix" values="0 0 0 0 0 0 0 0 0 0 0 0 0 0 0 0 0 0 0.1 0"/>
<feBlend mode="normal" in2="BackgroundImageFix" result="effect1_dropShadow_4038_341113"/>
<feBlend mode="normal" in="SourceGraphic" in2="effect1_dropShadow_4038_341113" result="shape"/>
</filter>
<linearGradient id="paint0_linear_4038_341113" x1="20.0136" y1="27.1469" x2="32.7224" y2="27.1469" gradientUnits="userSpaceOnUse">
<stop stop-color="#00D3F7"/>
<stop offset="1" stop-color="#1D96FF"/>
</linearGradient>
<clipPath id="clip0_4038_341113">
<rect width="60.0608" height="14.2946" fill="white" transform="translate(20 20)"/>
</clipPath>
</defs>
</svg>
