<svg width="29" height="28" viewBox="0 0 29 28" fill="none" xmlns="http://www.w3.org/2000/svg">
<rect x="0.644531" width="28" height="28" rx="4" fill="#F6F7F7"/>
<mask id="mask0_887_120535" style="mask-type:alpha" maskUnits="userSpaceOnUse" x="8" y="6" width="13" height="15">
<path fill-rule="evenodd" clip-rule="evenodd" d="M12.6445 6.66699H16.6445V8.00033H12.6445V6.66699ZM13.9779 15.3337V11.3337H15.3112V15.3337H13.9779ZM19.3312 10.927L20.2779 9.98033C19.9912 9.64033 19.6779 9.32033 19.3379 9.04033L18.3912 9.98699C17.3579 9.16033 16.0579 8.66699 14.6445 8.66699C11.3312 8.66699 8.64453 11.3537 8.64453 14.667C8.64453 17.9803 11.3245 20.667 14.6445 20.667C17.9645 20.667 20.6445 17.9803 20.6445 14.667C20.6445 13.2537 20.1512 11.9537 19.3312 10.927ZM9.97786 14.667C9.97786 17.247 12.0645 19.3337 14.6445 19.3337C17.2245 19.3337 19.3112 17.247 19.3112 14.667C19.3112 12.087 17.2245 10.0003 14.6445 10.0003C12.0645 10.0003 9.97786 12.087 9.97786 14.667Z" fill="white"/>
</mask>
<g mask="url(#mask0_887_120535)">
<rect x="6.64453" y="6" width="16" height="16" fill="#A2AAB2"/>
</g>
</svg>
