<svg width="147" height="116" viewBox="0 0 147 116" fill="none" xmlns="http://www.w3.org/2000/svg">
<rect x="32" y="0.5" width="84" height="115" rx="4.59053" fill="#F7EDF7"/>
<g filter="url(#filter0_d_4001_341341)">
<rect width="81.7778" height="92.4444" rx="4.30362" transform="matrix(-1 0 0 1 91.7773 11.3438)" fill="white"/>
</g>
<path fill-rule="evenodd" clip-rule="evenodd" d="M63.6648 22.7227H38.8314C37.2598 22.7227 35.9876 23.9625 36.0001 25.4672V34.6158C36.0001 36.1325 37.2723 37.3603 38.8439 37.3603H50.6058L55.9816 40.2493L54.7592 37.3603H63.6648C65.2364 37.3603 66.5087 36.1325 66.5087 34.6158V25.4672C66.5087 23.9505 65.2364 22.7227 63.6648 22.7227ZM38.3083 24.8416C37.9591 24.8657 37.6971 24.9861 37.5225 25.2148C37.3479 25.4315 37.2855 25.7083 37.3229 26.0213C38.0588 30.5354 38.7448 33.5809 39.3809 35.1578C39.6304 35.7356 39.9173 36.0125 40.254 35.9884C40.7779 35.9523 41.4015 35.2541 42.1374 33.8939C42.5241 33.1235 43.1228 31.9679 43.9335 30.4271C44.607 32.7022 45.53 34.4115 46.69 35.5551C47.0143 35.8801 47.351 36.0245 47.6753 36.0005C47.9622 35.9764 48.1867 35.8319 48.3364 35.5671C48.4611 35.3384 48.511 35.0736 48.4861 34.7726C48.4112 33.6772 48.5235 32.1484 48.8353 30.1863C49.1596 28.164 49.5587 26.7075 50.0451 25.8408C50.1449 25.6602 50.1823 25.4796 50.1699 25.263C50.1449 24.9861 50.0202 24.7574 49.7832 24.5768C49.5462 24.3962 49.2843 24.312 48.9974 24.3361C48.6357 24.3601 48.3613 24.5287 48.1742 24.8657C47.4009 26.226 46.8521 28.4288 46.5278 31.4864C46.0539 30.3308 45.6547 28.9705 45.3429 27.3695C45.2057 26.6593 44.869 26.3223 44.3202 26.3584C43.946 26.3824 43.6342 26.6232 43.3847 27.0806L40.6532 32.1003C40.2041 30.3548 39.7801 28.2242 39.3934 25.7083C39.3061 25.0824 38.9444 24.7935 38.3083 24.8416ZM62.3431 25.7089C63.2287 25.8895 63.8897 26.3469 64.3387 27.1053C64.7378 27.7553 64.9374 28.5378 64.9374 29.4767C64.9374 30.7166 64.6131 31.8481 63.9645 32.8833C63.2162 34.0871 62.2433 34.689 61.0335 34.689C60.8214 34.689 60.5969 34.6649 60.3599 34.6168C59.4744 34.4362 58.8133 33.9788 58.3643 33.2204C57.9652 32.5583 57.7656 31.7639 57.7656 30.837C57.7656 29.5971 58.0899 28.4656 58.7385 27.4424C59.4993 26.2386 60.4722 25.6367 61.6696 25.6367C61.8816 25.6367 62.1061 25.6608 62.3431 25.7089ZM61.8192 32.2213C62.2807 31.824 62.5925 31.2342 62.7672 30.4397C62.8171 30.1629 62.8545 29.8619 62.8545 29.5489C62.8545 29.1998 62.7796 28.8267 62.63 28.4535C62.4429 27.984 62.1934 27.7313 61.8941 27.6711C61.4451 27.5868 61.0085 27.8276 60.5969 28.4174C60.2602 28.8748 60.0481 29.3563 59.9359 29.8499C59.8735 30.1267 59.8486 30.4277 59.8486 30.7286C59.8486 31.0777 59.9234 31.4509 60.0731 31.824C60.2602 32.2935 60.5096 32.5463 60.809 32.6065C61.1208 32.6667 61.4575 32.5343 61.8192 32.2213ZM56.5175 27.1053C56.0684 26.3469 55.3949 25.8895 54.5218 25.7089C54.2848 25.6608 54.0603 25.6367 53.8483 25.6367C52.6509 25.6367 51.678 26.2386 50.9172 27.4424C50.2686 28.4656 49.9443 29.5971 49.9443 30.837C49.9443 31.7639 50.1439 32.5583 50.543 33.2204C50.992 33.9788 51.6531 34.4362 52.5387 34.6168C52.7756 34.6649 53.0001 34.689 53.2122 34.689C54.422 34.689 55.3949 34.0871 56.1433 32.8833C56.7918 31.8481 57.1161 30.7166 57.1161 29.4767C57.1161 28.5378 56.9166 27.7553 56.5175 27.1053ZM54.9459 30.4397C54.7713 31.2342 54.4595 31.824 53.998 32.2213C53.6363 32.5343 53.2995 32.6667 52.9877 32.6065C52.6883 32.5463 52.4389 32.2935 52.2518 31.824C52.1021 31.4509 52.0273 31.0777 52.0273 30.7286C52.0273 30.4277 52.0522 30.1267 52.1146 29.8499C52.2268 29.3563 52.4389 28.8748 52.7756 28.4174C53.1872 27.8276 53.6238 27.5868 54.0728 27.6711C54.3721 27.7313 54.6216 27.984 54.8087 28.4535C54.9584 28.8267 55.0332 29.1998 55.0332 29.5489C55.0332 29.8619 55.0083 30.1629 54.9459 30.4397Z" fill="#7F54B3"/>
<rect x="20" y="68.5" width="3" height="11" fill="#C792E0"/>
<rect x="24.5" y="68.5" width="1" height="11" fill="#C792E0"/>
<rect x="27" y="68.5" width="5" height="11" fill="#C792E0"/>
<rect x="33.5" y="68.5" width="3" height="11" fill="#C792E0"/>
<rect x="38" y="68.5" width="3" height="11" fill="#C792E0"/>
<rect x="42.5" y="68.5" width="4" height="11" fill="#C792E0"/>
<rect x="48" y="68.5" width="3" height="11" fill="#C792E0"/>
<rect x="52.5" y="68.5" width="3" height="11" fill="#C792E0"/>
<rect x="57" y="68.5" width="5" height="11" fill="#C792E0"/>
<rect x="63.5" y="68.5" width="2" height="11" fill="#C792E0"/>
<rect x="67" y="68.5" width="3" height="11" fill="#C792E0"/>
<rect x="71.5" y="68.5" width="2" height="11" fill="#C792E0"/>
<rect x="75" y="68.5" width="4" height="11" fill="#C792E0"/>
<rect x="80.5" y="68.5" width="1" height="11" fill="#C792E0"/>
<rect x="20" y="84.5" width="62" height="11" rx="1.72145" fill="#674399"/>
<rect x="20.3105" y="47.5" width="25.6" height="4.26667" rx="2.13333" fill="#DCDCDE"/>
<rect x="20.3105" y="54.3203" width="61.1556" height="4.26666" rx="2.13333" fill="#DCDCDE"/>
<g filter="url(#filter1_d_4001_341341)">
<rect x="56.2217" y="40.8555" width="81.4222" height="28.4444" rx="4.30362" fill="white" shape-rendering="crispEdges"/>
<rect x="80.6084" y="46.5938" width="6.59889" height="2.29526" rx="1.14763" fill="#DCDCDE"/>
<rect x="80.6084" y="51.1836" width="33.2813" height="2.29526" rx="1.14763" fill="#DCDCDE"/>
<rect x="80.6084" y="55.7754" width="22.0919" height="2.29526" rx="1.14763" fill="#AF7DD1"/>
<circle cx="69" cy="54.5" r="9" fill="#9A69C7"/>
<mask id="mask0_4001_341341" style="mask-type:luminance" maskUnits="userSpaceOnUse" x="65" y="50" width="7" height="9">
<path fill-rule="evenodd" clip-rule="evenodd" d="M65.292 53.9048L67.4003 56.0132L71.7087 51.7507L70.792 50.834L67.4003 54.2257L66.2087 53.034L65.292 53.9048ZM71.7087 57.2507H65.292V58.1673H71.7087V57.2507Z" fill="white"/>
</mask>
<g mask="url(#mask0_4001_341341)">
<rect x="63" y="49" width="11" height="11" fill="white"/>
</g>
</g>
<defs>
<filter id="filter0_d_4001_341341" x="0.818942" y="2.16269" width="100.139" height="110.807" filterUnits="userSpaceOnUse" color-interpolation-filters="sRGB">
<feFlood flood-opacity="0" result="BackgroundImageFix"/>
<feColorMatrix in="SourceAlpha" type="matrix" values="0 0 0 0 0 0 0 0 0 0 0 0 0 0 0 0 0 0 127 0" result="hardAlpha"/>
<feOffset/>
<feGaussianBlur stdDeviation="4.59053"/>
<feColorMatrix type="matrix" values="0 0 0 0 0 0 0 0 0 0 0 0 0 0 0 0 0 0 0.1 0"/>
<feBlend mode="normal" in2="BackgroundImageFix" result="effect1_dropShadow_4001_341341"/>
<feBlend mode="normal" in="SourceGraphic" in2="effect1_dropShadow_4001_341341" result="shape"/>
</filter>
<filter id="filter1_d_4001_341341" x="47.0406" y="34.5435" width="99.7845" height="46.8074" filterUnits="userSpaceOnUse" color-interpolation-filters="sRGB">
<feFlood flood-opacity="0" result="BackgroundImageFix"/>
<feColorMatrix in="SourceAlpha" type="matrix" values="0 0 0 0 0 0 0 0 0 0 0 0 0 0 0 0 0 0 127 0" result="hardAlpha"/>
<feOffset dy="2.86908"/>
<feGaussianBlur stdDeviation="4.59053"/>
<feComposite in2="hardAlpha" operator="out"/>
<feColorMatrix type="matrix" values="0 0 0 0 0 0 0 0 0 0 0 0 0 0 0 0 0 0 0.1 0"/>
<feBlend mode="normal" in2="BackgroundImageFix" result="effect1_dropShadow_4001_341341"/>
<feBlend mode="normal" in="SourceGraphic" in2="effect1_dropShadow_4001_341341" result="shape"/>
</filter>
</defs>
</svg>
