<svg version="1.1" id="Layer_1" xmlns="http://www.w3.org/2000/svg" xmlns:xlink="http://www.w3.org/1999/xlink" x="0px" y="0px"
	 width="512px" height="512px" viewBox="0 0 512 512" enable-background="new 0 0 512 512" xml:space="preserve">
<g id="clean_code">
	<path fill="#2f55d4" d="M32,85.328c0,5.891,4.781,10.656,10.672,10.656s10.656-4.766,10.656-10.656s-4.766-10.672-10.656-10.672
		S32,79.438,32,85.328z"/>
	<path fill="#2f55d4" d="M64,85.328c0,5.891,4.781,10.656,10.672,10.656s10.656-4.766,10.656-10.656s-4.766-10.672-10.656-10.672
		S64,79.438,64,85.328z"/>
	<path fill="#2f55d4" d="M96,85.328c0,5.891,4.781,10.656,10.672,10.656s10.656-4.766,10.656-10.656s-4.766-10.672-10.656-10.672
		S96,79.438,96,85.328z"/>
	<path fill="#2eca8b" d="M53.328,160h319.984c0.016,0,0.016,0,0.031,0c5.891,0,10.672-4.781,10.672-10.672s-4.781-10.672-10.672-10.672l0,0H53.328
		c-5.891,0-10.656,4.781-10.656,10.672S47.438,160,53.328,160z"/>
	<path fill="#2eca8b" d="M53.328,202.656H224c5.891,0,10.672-4.766,10.672-10.656s-4.781-10.672-10.672-10.672H53.328
		c-5.891,0-10.656,4.781-10.656,10.672S47.438,202.656,53.328,202.656z"/>
	<path fill="#2eca8b" d="M53.328,245.328h234.656H288c5.891,0,10.672-4.781,10.672-10.656c0-5.906-4.781-10.672-10.672-10.672l0,0H53.328
		c-5.891,0-10.656,4.766-10.656,10.656S47.438,245.328,53.328,245.328z"/>
	<path fill="#2eca8b" d="M53.328,288h149.344c5.891,0,10.656-4.781,10.656-10.672s-4.766-10.656-10.656-10.656l-149.344-0.016
		c-5.891,0-10.656,4.781-10.656,10.672S47.438,288,53.328,288z"/>
	<path fill="#2eca8b" d="M224,309.328L224,309.328H53.328c-5.891,0-10.656,4.781-10.656,10.672s4.766,10.672,10.656,10.672h170.656H224
		c5.891,0,10.672-4.781,10.672-10.672S229.891,309.328,224,309.328z"/>
	<path fill="#2eca8b" d="M138.672,352H53.328c-5.891,0-10.656,4.766-10.656,10.672c0,5.891,4.766,10.656,10.656,10.656h85.344
		c5.891,0,10.656-4.766,10.656-10.656S144.562,352,138.672,352z"/>
	<path fill="#2f55d4" d="M512,330.672l-42.656-64V74.656c0-11.781-9.547-21.328-21.328-21.328H21.328C9.547,53.328,0,62.875,0,74.656V416h341.312
		L384,458.672L512,330.672z M410.859,341.328l-27.156,67.281l-26.672-67.281H410.859z M356.406,320l27.578-27.578L411.578,320
		H356.406z M433.859,341.328h37.312l-62.562,62.562L433.859,341.328z M448.859,320l16.578-20.719L479.25,320H448.859z
		 M430.516,308.781L409.734,288h37.406L430.516,308.781z M337.484,308.766L320.859,288h37.375L337.484,308.766z M302.562,299.281
		L319.141,320h-30.406L302.562,299.281z M334.078,341.328l24.484,61.75l-61.766-61.75H334.078z M21.328,74.656h21.344h32h32h341.344
		v21.328H106.672h-32h-32H21.328V74.656z M21.328,394.672V117.328h426.688v149.328H298.672l-42.688,64.031l63.984,63.984H21.328z"/>
</g>
</svg>
