<svg version="1.1" id="Layer_1" xmlns="http://www.w3.org/2000/svg" xmlns:xlink="http://www.w3.org/1999/xlink" x="0px" y="0px"
	 width="512px" height="512px" viewBox="0 0 512 512" enable-background="new 0 0 512 512" xml:space="preserve">
<g id="features">
	<path fill="#2f55d4" d="M447.992,0h-96h-192h-96c-5.891,0-10.656,4.773-10.656,10.664v490.68c0,5.875,4.766,10.656,10.656,10.656h384
		c5.891,0,10.672-4.781,10.672-10.656V10.664C458.664,4.773,453.883,0,447.992,0z M223.992,21.336
		c0,5.891,4.781,10.664,10.656,10.664h42.688c5.875,0,10.656-4.773,10.656-10.664h34.406l-7.125,21.328H196.711l-7.125-21.328
		H223.992z M181.336,64h149.312l3.562-10.664h71.125v405.32H106.648V53.336h71.125L181.336,64z M437.32,490.656H74.648V21.336
		h92.453L170.648,32H85.336v448h341.312V32h-85.312l3.547-10.664h92.438V490.656z"/>
	<path fill="#2f55d4" d="M141.773,166.25l22.641,22.625l0,0c4.172,4.164,10.922,4.164,15.078,0l0,0l45.25-45.25c0,0,0,0,0-0.008
		c4.172-4.164,4.172-10.914,0-15.078c-4.156-4.172-10.906-4.172-15.078,0l-0.016,0.008l-37.688,37.703l-15.078-15.07
		c-0.016-0.008-0.016-0.016-0.016-0.016c-4.156-4.164-10.922-4.164-15.094,0C137.617,155.328,137.617,162.086,141.773,166.25
		L141.773,166.25z"/>
	<path fill="#2f55d4" d="M141.773,272.906l22.641,22.625l0,0c4.172,4.188,10.922,4.188,15.078,0l0,0l45.25-45.242l0,0l0,0
		c4.172-4.164,4.172-10.922,0-15.086c-4.156-4.164-10.906-4.164-15.078,0c0,0.008-0.016,0.008-0.016,0.016l-37.688,37.688
		l-15.078-15.062c-0.016-0.008-0.016-0.008-0.016-0.016c-4.156-4.164-10.922-4.164-15.094,0
		C137.617,261.992,137.617,268.75,141.773,272.906L141.773,272.906z"/>
	<path fill="#2f55d4" d="M141.773,379.594l22.641,22.625l0,0c4.172,4.156,10.922,4.156,15.078,0l0,0l45.25-45.266l0,0l0,0
		c4.172-4.172,4.172-10.922,0-15.078c-4.156-4.172-10.906-4.172-15.078,0h-0.016l-37.688,37.719L156.883,364.5
		c-0.016,0-0.016,0-0.016,0c-4.156-4.156-10.922-4.172-15.094,0C137.617,368.656,137.617,375.406,141.773,379.594L141.773,379.594z"
		/>
	<path fill="#2eca8b" d="M266.648,170.664h96c5.906,0,10.688-4.773,10.688-10.664s-4.781-10.664-10.688-10.664h-96
		c-5.875,0-10.656,4.773-10.656,10.664S260.773,170.664,266.648,170.664z"/>
	<path fill="#2eca8b" d="M266.648,277.344h96c5.906,0,10.688-4.781,10.688-10.68c0-5.891-4.781-10.664-10.688-10.664h-96
		c-5.875,0-10.656,4.773-10.656,10.664C255.992,272.562,260.773,277.344,266.648,277.344z"/>
	<path fill="#2eca8b" d="M266.648,384h96c5.906,0,10.688-4.781,10.688-10.656c0-5.906-4.781-10.688-10.688-10.688h-96
		c-5.875,0-10.656,4.781-10.656,10.688C255.992,379.219,260.773,384,266.648,384z"/>
</g>
</svg>
