<svg version="1.1" id="Layer_1" xmlns="http://www.w3.org/2000/svg" xmlns:xlink="http://www.w3.org/1999/xlink" x="0px" y="0px"
	 width="512px" height="512px" viewBox="0 0 512 512" enable-background="new 0 0 512 512" xml:space="preserve">
<g id="site_structure_optimization">
	<path fill="#2f55d4" d="M485.328,426.668v-64h-26.797c-1.141-3.203-2.438-6.344-3.891-9.391l18.953-18.938l-45.25-45.266l-18.953,18.953
		c-3.047-1.453-6.172-2.75-9.391-3.891V277.34h-10.672v-192v-8.836l-6.234-6.25l-64.016-64l-6.234-6.25H304H48H26.672V21.34v426.656
		v21.344H48h228.734l30.922,30.922l18.953-18.953c3.047,1.469,6.188,2.75,9.391,3.891v26.797h64v-26.797
		c3.219-1.141,6.344-2.422,9.391-3.891l18.953,18.953l45.25-45.25l-18.953-18.953c1.453-3.047,2.75-6.188,3.891-9.391H485.328z
		 M357.328,74.668h-42.656V32.004L357.328,74.668z M48,21.34h245.328v74.664H368V277.34h-32v26.797
		c-3.203,1.141-6.344,2.438-9.391,3.891l-18.953-18.953l-45.25,45.266l18.953,18.938c-1.453,3.047-2.75,6.188-3.891,9.391h-26.797
		v64h26.797c1.141,3.203,2.438,6.344,3.891,9.391l-11.953,11.938H48V21.34z M443.438,405.34l-5.016,14.219
		c-0.891,2.5-1.906,4.938-3.016,7.281l-6.531,13.625l10.688,10.688l3.859,3.859l-15.078,15.078l-3.875-3.875l-10.672-10.656
		l-13.625,6.5c-2.328,1.125-4.781,2.141-7.281,3.031l-14.219,5.031v15.078v5.469h-21.344v-5.469v-15.078l-14.219-5.031
		c-2.5-0.891-4.953-1.906-7.281-3.031l-13.625-6.5l-10.672,10.656l-3.875,3.875l-15.078-15.078l3.859-3.859l10.688-10.688
		l-6.516-13.625c-1.125-2.344-2.141-4.781-3.031-7.281l-5.016-14.219h-15.094H272v-21.344h5.469h15.078l5.031-14.219
		c0.891-2.5,1.906-4.938,3.031-7.281l6.5-13.625l-10.672-10.672l-3.859-3.859l15.078-15.094l3.875,3.875l10.672,10.656l13.609-6.5
		c2.344-1.125,4.797-2.141,7.297-3.031l14.219-5.031v-15.078v-5.469h21.344v5.469v15.094l14.219,5.016
		c2.484,0.891,4.938,1.906,7.297,3.031l13.609,6.5l10.672-10.656l3.875-3.875l15.078,15.094l-3.859,3.859l-10.688,10.672
		l6.531,13.625c1.109,2.328,2.125,4.781,3.016,7.281l5.016,14.219h15.094H464v21.344h-5.469H443.438z"/>
	<path fill="#2f55d4" d="M368,351.996c-23.562,0-42.672,19.109-42.672,42.672S344.438,437.34,368,437.34s42.672-19.109,42.672-42.672
		S391.562,351.996,368,351.996z M368,415.996c-11.766,0-21.328-9.562-21.328-21.328S356.234,373.34,368,373.34
		s21.328,9.562,21.328,21.328S379.766,415.996,368,415.996z"/>
	<path fill="#2eca8b" d="M218.672,332.496v-33.828h64c5.891,0,10.656-4.766,10.656-10.672c0-5.875-4.766-10.656-10.656-10.656h-64v-32h42.484
		c5.891,0,10.672-4.781,10.672-10.672V174.91l3.297,3.297c0,0,0,0,0,0.008c4.172,4.164,10.922,4.164,15.078,0
		c4.172-4.164,4.172-10.922,0.016-15.086l0,0l-74.609-74.664c0,0,0,0,0-0.008c-4.172-4.164-10.922-4.164-15.094,0
		c-0.031,0.047-0.078,0.086-0.109,0.133v-0.008l-74.609,74.539l0,0v0.008c-4.172,4.164-4.172,10.922,0,15.086
		c4.156,4.164,10.906,4.164,15.078,0l0,0L144,175.09v59.57c0,0.008,0,0.008,0,0.008c0,5.891,4.781,10.672,10.672,10.672h42.656v32
		H112v55.156c-12.422,4.406-21.328,16.25-21.328,30.172c0,17.672,14.328,32,32,32s32-14.328,32-32
		c0-13.922-8.906-25.766-21.344-30.172v-33.828h64v33.828C184.906,336.902,176,348.746,176,362.668c0,17.672,14.328,32,32,32
		s32-14.328,32-32C240,348.746,231.094,336.902,218.672,332.496z M208.062,111.09l42.422,42.469v70.445H218.75v-32
		c0-5.891-4.766-10.672-10.656-10.672s-10.672,4.781-10.672,10.672v32h-32.094v-70.227L208.062,111.09z M122.672,373.34
		c-5.891,0-10.672-4.781-10.672-10.672s4.781-10.672,10.672-10.672c5.875,0,10.656,4.781,10.656,10.672
		S128.547,373.34,122.672,373.34z M208,373.34c-5.875,0-10.672-4.781-10.672-10.672s4.797-10.672,10.672-10.672
		s10.672,4.781,10.672,10.672S213.875,373.34,208,373.34z"/>
</g>
</svg>
