<?xml version="1.0" encoding="utf-8"?>
<!-- Generator: Adobe Illustrator 16.0.0, SVG Export Plug-In . SVG Version: 6.00 Build 0)  -->
<!DOCTYPE svg PUBLIC "-//W3C//DTD SVG 1.1//EN" "http://www.w3.org/Graphics/SVG/1.1/DTD/svg11.dtd">
<svg version="1.1" id="Layer_1" xmlns="http://www.w3.org/2000/svg" xmlns:xlink="http://www.w3.org/1999/xlink" x="0px" y="0px"
     width="512px" height="512px" viewBox="0 0 512 512" enable-background="new 0 0 512 512" xml:space="preserve">
<g id="eye">
	<path fill="#2f55d4" d="M501.344,218.79H421c-24.812-29.305-54.016-52.391-86.906-68.648c-30.156-14.914-62.742-23.836-96.844-26.523
		c-30.438-2.398-61.266,0.391-89.141,8.062c-25.992,7.156-48.586,18.477-63.609,31.875c-8.883,7.914-16.094,14.953-22.461,21.164
		c-18.711,18.25-29.023,28.297-53.906,34.375l0.008,0.008C3.469,220.243,0,224.438,0,229.454c0,3.531,1.719,6.656,4.367,8.594
		l-0.008,0.008l0.094,0.07c7.555,5.562,48.711,33.969,117.297,47.781c15.992,3.219,32.328,5.406,48.914,6.578v43.641
		c0,3.266,1.477,6.188,3.797,8.156h-0.008c0.141,0.109,14.094,13.375,28.68,58.969c0.016,0.031,0.023,0.062,0.031,0.094l0.008,0.031
		l0,0c1.375,4.297,5.406,7.406,10.164,7.406c5.891,0,10.664-4.766,10.664-10.656V292.767c0.055,0,0.102,0,0.156-0.016
		c27.57,51.531,59.797,90.938,95.938,117.25c40.438,29.438,72.938,32.734,85.047,32.781c0.141,0,0.297,0,0.422,0
		c20.609,0,38.016-6.484,50.344-18.781c11.719-11.641,18.438-28.328,18.438-45.75c0-12.562-4.906-24.375-13.781-33.281
		c-8.891-8.875-20.703-13.781-33.281-13.781c-21.906,0.016-39.75,17.844-39.75,39.781c0,9.062,3.531,17.594,9.938,24
		s14.938,9.938,24,9.938l0,0c15.906,0,28.891-12.75,29.281-28.562c0-0.219,0.031-0.438,0.031-0.656
		c0-5.906-4.781-10.672-10.672-10.672c-5.859,0-10.641,4.734-10.672,10.609l0,0c0,4.375-3.578,7.953-7.969,7.953
		c-3.375,0-6.531-1.312-8.906-3.703c-2.391-2.375-3.703-5.531-3.703-8.906c0-10.156,8.266-18.438,18.422-18.438
		c6.875,0,13.344,2.672,18.188,7.531c4.859,4.859,7.531,11.312,7.531,18.188c0,11.781-4.422,22.969-12.125,30.641
		c-8.438,8.406-20.438,12.609-35.641,12.562c-10.031-0.047-37.188-2.922-72.578-28.703C301,369.72,272.375,335.47,247.375,290.782
		c1.312-0.156,2.617-0.297,3.93-0.453c54.445-6.578,110.633-23.453,167.086-50.203h82.953c5.875,0,10.656-4.781,10.656-10.672
		S507.219,218.79,501.344,218.79z M398.719,225.72c-47.562,21.477-94.75,35.641-140.602,42.188
		C276.266,254.29,288,232.603,288,208.165c0-25-12.281-47.125-31.148-60.68c23.68,3.922,46.398,11.203,67.805,21.781
		C352.297,182.938,377.156,201.892,398.719,225.72z M213.336,154.829c29.406,0,53.328,23.93,53.328,53.336
		s-23.922,53.336-53.328,53.336c-29.414,0-53.336-23.93-53.336-53.336S183.922,154.829,213.336,154.829z M35.086,232.29
		c16.711-7.797,27.875-18.68,41.844-32.297c6.211-6.055,13.242-12.914,21.766-20.516c14.094-12.562,38.492-24.391,69.359-30.688
		c-17.859,13.648-29.391,35.164-29.391,59.375c0,26.57,13.883,49.898,34.789,63.133c-16.133-1.078-31.984-3.188-47.492-6.297
		C83.914,256.532,53.211,242.438,35.086,232.29z M202.664,347.438c-4.359-7.594-8.07-12.531-10.664-15.562v-38.453
		c2.453,0.047,4.906,0.078,7.367,0.078c1.102,0,2.203-0.031,3.297-0.031V347.438z"/>
	<g>
		<path fill="#2f55d4" d="M23.719,137.446L23.719,137.446l0.047-0.062C23.75,137.407,23.727,137.431,23.719,137.446z"/>
		<path fill="#2f55d4" d="M484.281,134.392c-0.031-0.008-0.062-0.023-0.078-0.031c-0.031-0.016-0.047-0.023-0.078-0.039
			c-76.344-33.367-147.781-54.156-212.375-61.766c-52.18-6.156-100.086-3.789-142.391,7.039
			C56.898,98.134,25.625,135.118,23.719,137.446c-1.492,1.836-2.383,4.172-2.383,6.719c0,5.891,4.773,10.664,10.664,10.664
			c3.344,0,6.328-1.539,8.281-3.945c0.273-0.336,27.883-33.617,94.359-50.625c39.758-10.172,85.047-12.367,134.609-6.523
			c62.547,7.375,132.016,27.633,206.469,60.203c1.312,0.57,2.75,0.891,4.281,0.891c5.891,0,10.656-4.773,10.656-10.664
			C490.656,139.798,488.031,136.04,484.281,134.392z"/>
	</g>
	<path fill="#2f55d4" d="M213.336,218.829c5.891,0,10.664-4.773,10.664-10.664s-4.773-10.664-10.664-10.664s-10.672,4.773-10.672,10.664
		S207.445,218.829,213.336,218.829z"/>
</g>
</svg>
