<svg view-box="0 0 24 24" xmlns="http://www.w3.org/2000/svg">
	<path
		fill-rule="evenodd"
		clip-rule="evenodd"
		d="M19 5H5C4.72386 5 4.5 5.22386 4.5 5.5V19.5C4.5 19.7761 4.72386 20 5 20H19C19.2761 20 19.5 19.7761 19.5 19.5V5.5C19.5 5.22386 19.2761 5 19 5ZM5 3.5C3.89543 3.5 3 4.39543 3 5.5V19.5C3 20.6046 3.89543 21.5 5 21.5H19C20.1046 21.5 21 20.6046 21 19.5V5.5C21 4.39543 20.1046 3.5 19 3.5H5Z"
		fill="#1E1E1E"
	/>
	<path
		fill-rule="evenodd"
		clip-rule="evenodd"
		d="M15.4772 10.9623C15.7683 10.6792 16.2317 10.6792 16.5228 10.9623L20.5228 14.8511L19.4772 15.9266L16 12.546L12.5228 15.9266C12.2719 16.1706 11.8857 16.2086 11.5921 16.0183L8.59643 14.0766L4.44186 17.106L3.55811 15.894L8.12953 12.5607C8.38061 12.3776 8.71858 12.3683 8.97934 12.5373L11.906 14.4342L15.4772 10.9623Z"
		fill="#1E1E1E"
	/>
</svg>
