<svg view-box="0 0 24 24" xmlns="http://www.w3.org/2000/svg">
	<path
		fill-rule="evenodd"
		clip-rule="evenodd"
		d="M3.5 7.75C3.5 6.7835 4.2835 6 5.25 6H14.75H15.5V6.75V9H17.25H17.5607L17.7803 9.21967L20.7803 12.2197L21 12.4393V12.75V14.75C21 15.7165 20.2165 16.5 19.25 16.5H19.2377C19.2458 16.5822 19.25 16.6656 19.25 16.75C19.25 18.1307 18.1307 19.25 16.75 19.25C15.3693 19.25 14.25 18.1307 14.25 16.75C14.25 16.6656 14.2542 16.5822 14.2623 16.5H14H10.2377C10.2458 16.5822 10.25 16.6656 10.25 16.75C10.25 18.1307 9.13071 19.25 7.75 19.25C6.36929 19.25 5.25 18.1307 5.25 16.75C5.25 16.6656 5.25418 16.5822 5.26234 16.5H4.25H3.5V15.75V7.75ZM14 15V9.75V9V7.5H5.25C5.11193 7.5 5 7.61193 5 7.75V15H5.96464C6.41837 14.5372 7.05065 14.25 7.75 14.25C8.44935 14.25 9.08163 14.5372 9.53536 15H14ZM18.5354 15H19.25C19.3881 15 19.5 14.8881 19.5 14.75V13.0607L16.9393 10.5H15.5V14.5845C15.8677 14.3717 16.2946 14.25 16.75 14.25C17.4493 14.25 18.0816 14.5372 18.5354 15ZM6.7815 16.5C6.76094 16.5799 6.75 16.6637 6.75 16.75C6.75 17.3023 7.19772 17.75 7.75 17.75C8.30228 17.75 8.75 17.3023 8.75 16.75C8.75 16.6637 8.73906 16.5799 8.7185 16.5C8.60749 16.0687 8.21596 15.75 7.75 15.75C7.28404 15.75 6.89251 16.0687 6.7815 16.5ZM15.7815 16.5C15.7609 16.5799 15.75 16.6637 15.75 16.75C15.75 17.3023 16.1977 17.75 16.75 17.75C17.3023 17.75 17.75 17.3023 17.75 16.75C17.75 16.6637 17.7391 16.5799 17.7185 16.5C17.7144 16.4841 17.7099 16.4683 17.705 16.4526C17.5784 16.0456 17.1987 15.75 16.75 15.75C16.284 15.75 15.8925 16.0687 15.7815 16.5Z"
		fill="#1E1E1E"
	/>
</svg>
