<svg view-box="0 0 24 24" xmlns="http://www.w3.org/2000/svg">
	<path
		fill-rule="evenodd"
		clip-rule="evenodd"
		d="M6 6H18C18.2761 6 18.5 6.22386 18.5 6.5V13.5H15.5H14C14 14.6046 13.1046 15.5 12 15.5C10.8954 15.5 10 14.6046 10 13.5H8.5H5.5V6.5C5.5 6.22386 5.72386 6 6 6ZM5.5 15V18.5C5.5 18.7761 5.72386 19 6 19H18C18.2761 19 18.5 18.7761 18.5 18.5V15H15.1632C14.6015 16.1825 13.3962 17 12 17C10.6038 17 9.39855 16.1825 8.83682 15H5.5ZM4 13.5V6.5C4 5.39543 4.89543 4.5 6 4.5H18C19.1046 4.5 20 5.39543 20 6.5V13.5V15V18.5C20 19.6046 19.1046 20.5 18 20.5H6C4.89543 20.5 4 19.6046 4 18.5V15V13.5Z"
		fill="#1E1E1E"
	/>
</svg>
