<?xml version="1.0" encoding="utf-8"?>
<!-- Generator: Adobe Illustrator 19.1.0, SVG Export Plug-In . SVG Version: 6.00 Build 0)  -->
<!DOCTYPE svg PUBLIC "-//W3C//DTD SVG 1.1//EN" "http://www.w3.org/Graphics/SVG/1.1/DTD/svg11.dtd">
<svg version="1.1" id="Layer_1" xmlns="http://www.w3.org/2000/svg" xmlns:xlink="http://www.w3.org/1999/xlink" width="16px" height="16px"
	 viewBox="0 0 16 16" style="enable-background:new 0 0 16 16;" xml:space="preserve">
<style type="text/css">
	.st0{fill:#FFFFFF;}
</style>
<path class="st0" d="M16,8.1c0,0.6-0.4,1-0.9,1H0.9C0.4,9.1,0,8.6,0,8.1l0,0c0-0.6,0.4-1,0.9-1h14.1C15.6,7.1,16,7.5,16,8.1L16,8.1z
	"/>
<path class="st0" d="M16,3c0,0.6-0.4,1-0.9,1H0.9C0.4,4,0,3.6,0,3l0,0c0-0.6,0.4-1,0.9-1h14.1C15.6,2,16,2.4,16,3L16,3z"/>
<path class="st0" d="M16,13c0,0.6-0.4,1-0.9,1H0.9C0.4,14,0,13.6,0,13l0,0c0-0.6,0.4-1,0.9-1h14.1C15.6,12,16,12.4,16,13L16,13z"/>
</svg>
