<?xml version="1.0" standalone="no"?>
<!DOCTYPE svg PUBLIC "-//W3C//DTD SVG 1.1//EN" "http://www.w3.org/Graphics/SVG/1.1/DTD/svg11.dtd" >
<svg xmlns="http://www.w3.org/2000/svg">
<metadata></metadata>
<defs>
<font id="TitilliumRegular" horiz-adv-x="1146" >
<font-face units-per-em="2048" ascent="1536" descent="-512" />
<missing-glyph horiz-adv-x="450" />
<glyph horiz-adv-x="0" />
<glyph horiz-adv-x="2048" />
<glyph unicode=" "  horiz-adv-x="450" />
<glyph unicode="&#x09;" horiz-adv-x="450" />
<glyph unicode="&#xa0;" horiz-adv-x="450" />
<glyph unicode="!" horiz-adv-x="505" d="M170 0v229h168v-229h-168zM172 1417h162l-10 -950h-142z" />
<glyph unicode="&#x22;" horiz-adv-x="763" d="M135 1417h154l-8 -454h-138zM475 1417h154l-8 -454h-138z" />
<glyph unicode="#" d="M49 356v131h227v381h-227v131h227v365h140v-365h315v365h139v-365h228v-131h-228v-381h228v-131h-228v-356h-139v356h-315v-356h-140v356h-227zM416 487h315v381h-315v-381z" />
<glyph unicode="$" d="M141 1010q0 362 434 362q32 0 48 -2l34 264h105l-35 -270q57 -5 121 -13t100 -13l35 -5l-12 -127q-141 17 -260 27l-62 -477q100 -24 163 -49.5t111 -66t68.5 -99.5t20.5 -144q0 -415 -432 -415h-31l-29 -236q-104 6 -104 14l28 228q-64 5 -137 14.5t-114 15.5l-41 7 l16 125q158 -23 293 -31l67 512q-105 24 -171 50t-118 68.5t-75 105.5t-23 155zM293 1018q0 -110 55.5 -158t198.5 -82l59 461h-20q-293 0 -293 -221zM567 115h4q146 0 217.5 66t71.5 206q0 98 -51 145.5t-178 77.5z" />
<glyph unicode="%" d="M57 1090q0 143 59 212.5t167 69.5t166.5 -69t58.5 -213q0 -145 -59.5 -217t-165.5 -72t-166 72t-60 217zM182 1090q0 -94 23.5 -139.5t77.5 -45.5q55 0 78.5 45.5t23.5 139.5q0 93 -23 135.5t-79 42.5q-54 0 -77.5 -42.5t-23.5 -135.5zM317 -8l420 1403l99 -33 l-420 -1399zM641 270q0 143 58 212t165 69q108 0 167 -69.5t59 -213.5t-60 -216t-166 -72t-164.5 72.5t-58.5 217.5zM764 270q0 -95 23 -140.5t77 -45.5q57 0 80 45t23 139t-23 136t-80 42q-54 0 -77 -42.5t-23 -133.5z" />
<glyph unicode="&#x26;" horiz-adv-x="1409" d="M86 416q0 120 35.5 200.5t102 128t179.5 84.5q-72 83 -94 146t-22 160q0 137 94 219t262 82q176 0 265 -82.5t89 -229.5q0 -141 -71 -224t-244 -163l311 -307q17 49 35 153.5t23 178.5l149 -2q-11 -108 -38 -231t-56 -195l264 -250l-92 -102l-248 231 q-140 -233 -440 -233q-141 0 -240 29.5t-156 88t-82.5 136t-25.5 182.5zM242 426q0 -155 79.5 -231t256.5 -76q250 0 346 184l-432 430q-136 -42 -193 -110.5t-57 -196.5zM440 1110q0 -126 92 -223l60 -58q141 61 196.5 120.5t55.5 164.5q0 94 -48.5 141.5t-152.5 47.5 q-98 0 -150.5 -48t-52.5 -145z" />
<glyph unicode="'" horiz-adv-x="425" d="M137 1417h154l-10 -454h-138z" />
<glyph unicode="(" horiz-adv-x="540" d="M104 616q0 124 22 264t53 252t62.5 206t53.5 146l22 52h148q-8 -21 -21 -59t-46.5 -150t-59.5 -218t-47 -244t-21 -249q0 -109 20 -239.5t49 -238t57.5 -199t48.5 -143.5l20 -52h-148q-9 18 -23 49.5t-51 129.5t-65 196t-51 235.5t-23 261.5z" />
<glyph unicode=")" horiz-adv-x="540" d="M76 -256q8 20 21 54.5t46.5 138.5t59 204t46.5 233t21 242q0 111 -20 246t-48.5 249.5t-57 213t-48.5 155.5l-20 56h147q9 -19 23 -54t51 -141.5t65 -211t51 -247t23 -266.5t-22 -259t-53 -240t-62.5 -192t-53.5 -134l-22 -47h-147z" />
<glyph unicode="*" horiz-adv-x="860" d="M111 938l221 162l-217 157l63 86l217 -159l84 258l101 -33l-82 -260h266v-102h-270l84 -256l-101 -31l-84 258l-219 -162z" />
<glyph unicode="+" d="M113 444v140h387v399h143v-399h391v-140h-391v-403h-143v403h-387z" />
<glyph unicode="," horiz-adv-x="456" d="M70 -252l94 471h170l-137 -471h-127z" />
<glyph unicode="-" horiz-adv-x="897" d="M139 492v143h621v-143h-621z" />
<glyph unicode="." horiz-adv-x="442" d="M137 0v233h168v-233h-168z" />
<glyph unicode="/" horiz-adv-x="843" d="M66 20l577 1430l137 -51l-577 -1428z" />
<glyph unicode="0" d="M80 653q0 165 21.5 288.5t61.5 206t101.5 133t135.5 72t171 21.5q125 0 213 -34.5t153 -115.5t96.5 -222t31.5 -347q0 -191 -32.5 -323.5t-98.5 -209t-153 -109.5t-208 -33t-208.5 32.5t-153.5 108.5t-98.5 208t-32.5 324zM244 653q0 -157 21 -262t64.5 -164.5 t101.5 -83.5t142 -24q67 0 116.5 15t91 51.5t68 97.5t40.5 153.5t14 218.5q0 136 -13 235t-38 165t-66 105.5t-92 56t-121 16.5q-116 0 -185 -48t-106.5 -176.5t-37.5 -355.5z" />
<glyph unicode="1" d="M219 1065l430 287h148v-1352h-158v1176l-348 -230z" />
<glyph unicode="2" d="M141 0v133l396 416q63 65 94.5 99t72.5 84.5t59.5 86.5t32 81.5t13.5 92.5q0 131 -71.5 184.5t-223.5 53.5q-67 0 -154.5 -11.5t-141.5 -22.5l-54 -11l-12 131q22 6 59.5 15t140.5 24.5t191 15.5q217 0 322.5 -87t105.5 -275q0 -99 -33.5 -183t-89.5 -153t-160 -170 l-360 -367h678v-137h-865z" />
<glyph unicode="3" d="M127 35l14 129q221 -45 414 -45q150 1 221.5 66t71.5 196q0 243 -279 254h-272v135h272q86 0 166 69t80 177q0 116 -63 166.5t-213 50.5q-83 0 -177 -10.5t-147 -20.5l-53 -10l-15 125q22 6 59.5 15.5t142.5 25.5t196 16q235 0 333.5 -84t98.5 -268q0 -43 -8.5 -81.5 t-25 -68t-32.5 -51.5t-40 -41.5t-37.5 -29t-35 -22t-22.5 -13.5q58 -21 95.5 -42t72 -57.5t50.5 -93t16 -135.5q0 -206 -106 -306.5t-333 -100.5q-95 0 -206 14t-175 28z" />
<glyph unicode="4" d="M82 264v123l385 965h172l-391 -949h489v422h158v-422h172v-139h-172v-264h-158v264h-655z" />
<glyph unicode="5" d="M129 41l18 125q236 -45 416 -45q142 0 223.5 82.5t81.5 236.5q0 146 -74 208.5t-212 62.5q-75 0 -155.5 -20.5t-123.5 -40.5l-43 -21l-108 20l36 703h789v-144h-658l-36 -440q6 3 17.5 9t47.5 20.5t71.5 25.5t85.5 20t95 9q430 0 430 -399q0 -230 -118.5 -350.5 t-333.5 -120.5q-92 0 -204 15t-178 29z" />
<glyph unicode="6" d="M102 682q0 354 138.5 522t390.5 168q76 0 168.5 -9t146.5 -17l55 -9l-14 -129q-184 25 -356 25q-177 0 -271 -121t-94 -346l20 8l57 19t78 24t92 20.5t91 8.5q455 0 455 -420q0 -215 -123.5 -330.5t-349.5 -115.5q-246 0 -365 182t-119 520zM264 627q1 -112 19 -202 t55 -160t100 -108t148 -38q151 0 230 79t79 228q0 139 -78.5 209t-222.5 70q-70 0 -152.5 -19.5t-129.5 -39.5z" />
<glyph unicode="7" d="M158 1208v144h839v-207l-520 -1165l-149 47l510 1128v53h-680z" />
<glyph unicode="8" d="M66 344q0 62 11.5 112t30 85t50 66.5t63 53t78.5 46.5q-111 55 -161 125.5t-50 191.5q0 171 127.5 260.5t353.5 89.5t358 -89.5t132 -262.5q0 -86 -24.5 -144t-71 -96t-129.5 -75q60 -27 100.5 -54t75.5 -66.5t52 -94t17 -125.5q0 -387 -510 -387q-85 0 -157 10.5 t-137 37t-110.5 67t-72 104t-26.5 145.5zM233 371q0 -248 336 -248q163 0 252.5 59.5t89.5 200.5q0 57 -17.5 99t-52.5 70t-73.5 45.5t-95.5 33.5h-215q-112 -31 -168 -91t-56 -169zM256 1006q0 -91 49 -146.5t152 -91.5h215q110 35 164.5 90.5t54.5 145.5q0 227 -320 227 q-315 0 -315 -225z" />
<glyph unicode="9" d="M84 924q0 206 127.5 327t341.5 121q248 0 368.5 -183.5t120.5 -516.5q0 -193 -36 -328.5t-107.5 -214.5t-167 -114t-225.5 -35q-76 0 -169 9t-147 18l-55 9l15 127q184 -24 356 -24q186 0 279 116t94 355q-23 -9 -61.5 -22t-132.5 -34.5t-159 -21.5q-442 0 -442 412z M248 924q0 -273 291 -273q63 0 148.5 18.5t139.5 36.5l54 19q-7 508 -328 508q-142 0 -223.5 -83t-81.5 -226z" />
<glyph unicode=":" horiz-adv-x="444" d="M137 0v233h168v-233h-168zM137 659v234h168v-234h-168z" />
<glyph unicode=";" horiz-adv-x="507" d="M98 -252h127l137 471h-172zM180 659v234h166v-234h-166z" />
<glyph unicode="&#x3c;" d="M125 446v136l852 415v-159l-694 -322l694 -328v-161z" />
<glyph unicode="=" d="M131 254v141h885v-141h-885zM131 633v141h885v-141h-885z" />
<glyph unicode="&#x3e;" d="M168 27v161l694 328l-694 322v159l852 -415v-136z" />
<glyph unicode="?" horiz-adv-x="915" d="M76 1376q207 62 342 62q211 0 312 -76.5t101 -251.5q0 -133 -35.5 -202.5t-154.5 -168.5q-99 -82 -140.5 -136.5t-41.5 -119.5v-71h-129q-27 55 -27 125q0 69 47.5 130t143.5 142q113 98 147.5 151.5t34.5 137.5q0 107 -66 153.5t-207 46.5q-51 0 -130.5 -12t-132.5 -24 l-54 -11zM307 2v229h168v-229h-168z" />
<glyph unicode="@" horiz-adv-x="2000" d="M104 535q0 250 61.5 432.5t182 294.5t290 165.5t394.5 53.5q457 0 668 -210.5t211 -645.5v-27q0 -155 -17 -265.5t-45.5 -177t-76 -104.5t-98.5 -50.5t-122 -12.5q-42 0 -78 7t-60 17.5t-43 23.5t-30 26.5t-18 24t-9 17.5l-3 7q-23 -14 -60.5 -34t-132.5 -53.5 t-164 -33.5q-59 0 -105.5 10t-96.5 42t-83 86.5t-54 150t-21 225.5q0 134 20.5 229t67.5 164.5t128.5 103t199.5 33.5q44 0 103 -13t95 -27l37 -13v33h154v-391q0 -76 0.5 -126t2 -102.5t3.5 -83.5t7 -64t10.5 -49.5t15 -34t19.5 -24.5t26 -13t32.5 -7.5t40.5 -1.5 q41 0 67.5 7.5t54 35t43 79t25 141t9.5 218.5v29q0 378 -168 548.5t-555 170.5q-393 0 -582.5 -194t-189.5 -617q0 -303 82 -482t248 -256.5t442 -77.5q40 0 113 5.5t127 10.5l53 5l6 -137q-193 -19 -299 -19q-156 0 -279.5 19t-230 63t-182.5 116.5t-130 177.5t-80 248 t-26 327zM750 500q0 -92 12.5 -160.5t32.5 -108.5t49.5 -65t58 -33t62.5 -8q20 0 43.5 4t46.5 9.5t48 14t45.5 16.5t42 17t34.5 15t25.5 12t13.5 6q-5 29 -12 140t-7 214v285q-123 41 -211 41q-86 0 -142.5 -24.5t-87 -78t-42.5 -123t-12 -173.5z" />
<glyph unicode="A" horiz-adv-x="1220" d="M49 0l389 1417h344l389 -1417h-155l-103 365h-606l-102 -365h-156zM342 506h537l-215 776h-107z" />
<glyph unicode="B" horiz-adv-x="1261" d="M174 0v1417h514q211 0 316.5 -87t105.5 -273q0 -132 -45.5 -208t-136.5 -118q105 -36 165 -113.5t60 -220.5q0 -214 -113 -305.5t-325 -91.5h-541zM332 139h377q140 0 212 58t72 206q0 63 -21 110t-51 72.5t-72.5 41t-77.5 20t-73 4.5h-366v-512zM332 788h364 q132 0 192 62.5t60 191.5q0 123 -65 179.5t-201 56.5h-350v-490z" />
<glyph unicode="C" horiz-adv-x="1114" d="M121 705q0 107 6.5 191.5t22 163t41.5 135.5t65.5 104.5t93.5 77t126 45.5t163 16q166 0 391 -45l-6 -133q-207 36 -369 36q-79 0 -137 -15t-99 -49t-67 -79.5t-41 -116t-20.5 -147.5t-5.5 -184q0 -90 3.5 -157t13.5 -131t28 -108t46 -82t67.5 -60t93 -34t122.5 -12 q164 0 365 37l6 -135q-215 -43 -391 -43q-105 0 -185.5 20.5t-137.5 64t-95 102t-60 143.5t-31 178.5t-9 216.5z" />
<glyph unicode="D" horiz-adv-x="1320" d="M174 0v1417h506q121 0 212.5 -33.5t150 -92.5t95.5 -147.5t51.5 -188.5t14.5 -226q0 -129 -14 -232.5t-50.5 -198.5t-94.5 -159t-150.5 -101.5t-214.5 -37.5h-506zM332 139h348q72 0 129 22t96 63.5t66.5 94t42.5 121.5t21.5 138.5t6.5 150.5q0 98 -9 175.5t-33.5 149.5 t-64.5 119.5t-104.5 76t-150.5 28.5h-348v-1139z" />
<glyph unicode="E" horiz-adv-x="1132" d="M174 0v1417h862v-139h-704v-490h581v-137h-581v-512h704v-139h-862z" />
<glyph unicode="F" horiz-adv-x="1077" d="M174 0v1417h848v-139h-690v-553h583v-139h-583v-586h-158z" />
<glyph unicode="G" horiz-adv-x="1261" d="M117 705q0 147 15.5 258t53.5 203t100 150.5t156 90t220 31.5q96 0 212 -13.5t184 -26.5l68 -14l-6 -131q-254 43 -440 43q-98 0 -167.5 -24t-114.5 -68t-71 -118.5t-36 -164t-10 -216.5q0 -125 10 -213t35.5 -162.5t70 -118.5t114 -68t167.5 -24q145 0 293 28v437h-236 v141h391v-696q-67 -12 -213.5 -30.5t-246.5 -18.5q-128 0 -223.5 32t-157.5 90t-99.5 150t-53 200.5t-15.5 252.5z" />
<glyph unicode="H" horiz-adv-x="1382" d="M174 0v1417h158v-635h721v635h155v-1417h-155v641h-721v-641h-158z" />
<glyph unicode="I" horiz-adv-x="503" d="M174 0v1417h158v-1417h-158z" />
<glyph unicode="J" horiz-adv-x="591" d="M37 -6q53 0 82.5 1.5t59.5 9.5t44 21.5t26 39t15.5 61.5t3.5 90v1200h156l2 -1222q0 -77 -9.5 -132t-32 -93t-51 -61t-76.5 -35.5t-97 -16.5t-123 -4v141z" />
<glyph unicode="K" horiz-adv-x="1165" d="M174 0v1417h158v-659l233 8l363 651h180l-406 -712l428 -705h-186l-377 627l-235 -9v-618h-158z" />
<glyph unicode="L" horiz-adv-x="980" d="M174 0v1417h158v-1276h622v-141h-780z" />
<glyph unicode="M" horiz-adv-x="1720" d="M174 0v1417h285l401 -1198l402 1198h284v-1417h-157v1249h-29l-412 -1198h-176l-412 1198h-28v-1249h-158z" />
<glyph unicode="N" horiz-adv-x="1384" d="M174 0v1417h295l543 -1278h43v1278h155v-1417h-288l-551 1278h-39v-1278h-158z" />
<glyph unicode="O" horiz-adv-x="1351" d="M117 702q0 146 16 256.5t55 203.5t102 152t159.5 91.5t226.5 32.5q162 0 272 -47.5t173 -145t89.5 -228t26.5 -315.5q0 -190 -26 -319.5t-89.5 -223t-172.5 -136.5t-273 -43q-131 0 -227 30t-160 86.5t-102 147t-54 200.5t-16 258zM279 702q0 -123 10 -210t35.5 -161.5 t70 -118.5t114 -68.5t167.5 -24.5q82 0 144 15t106 48t72.5 78.5t45 114t23 145.5t6.5 182q0 121 -10 209.5t-36.5 165t-71 123t-114 72.5t-165.5 26q-97 0 -166.5 -26t-114 -72.5t-70.5 -122.5t-36 -164.5t-10 -210.5z" />
<glyph unicode="P" horiz-adv-x="1214" d="M174 0v1417h518q231 0 342 -112.5t111 -343.5q0 -236 -112.5 -360t-340.5 -124h-360v-477h-158zM332 616h358q293 0 293 345q0 164 -69.5 240.5t-223.5 76.5h-358v-662z" />
<glyph unicode="Q" horiz-adv-x="1351" d="M117 702q0 146 16 256.5t55 203.5t102 152t159.5 91.5t226.5 32.5q162 0 272 -47.5t173 -145t89.5 -228t26.5 -315.5q0 -261 -53.5 -417.5t-182.5 -231.5l175 -280l-148 -70l-180 295q-68 -18 -172 -18q-131 0 -227 30t-160 86.5t-102 147t-54 200.5t-16 258zM279 702 q0 -123 10 -210.5t35.5 -162t70 -118.5t114 -68t167.5 -24q99 0 168 23t114 66t70.5 116.5t35 162t9.5 215.5q0 121 -10 209.5t-36.5 165t-71 123t-114 72.5t-165.5 26q-97 0 -166.5 -26t-114 -72.5t-70.5 -122.5t-36 -164.5t-10 -210.5z" />
<glyph unicode="R" horiz-adv-x="1261" d="M174 0v1417h524q226 0 339.5 -104.5t113.5 -325.5q0 -329 -260 -412l272 -575h-174l-256 543h-401v-543h-158zM332 682h368q289 0 289 305q0 147 -71.5 219t-219.5 72h-366v-596z" />
<glyph unicode="S" horiz-adv-x="1110" d="M98 1059q0 381 457 381q75 0 182 -10t177 -20l69 -11l-14 -133q-285 34 -404 34q-307 0 -307 -231q0 -46 7.5 -80t28 -60t43.5 -43t68 -33.5t86 -27t113 -26.5q114 -25 184.5 -51.5t124.5 -69.5t76.5 -105.5t22.5 -154.5q0 -436 -453 -436q-75 0 -187 11t-186 23l-75 11 l16 131q279 -37 424 -37q152 0 227.5 69.5t75.5 215.5q0 116 -67 165t-248 84q-79 17 -135 33t-109 39.5t-87 52t-60.5 68.5t-38 92t-11.5 119z" />
<glyph unicode="T" horiz-adv-x="1077" d="M27 1276v141h1024v-141h-433v-1276h-155v1276h-436z" />
<glyph unicode="U" horiz-adv-x="1318" d="M164 430v987h158v-991q0 -161 84.5 -234t246.5 -73q171 0 258.5 73t87.5 234v991h156v-987q0 -237 -126 -343.5t-376 -106.5q-242 0 -365.5 106.5t-123.5 343.5z" />
<glyph unicode="V" horiz-adv-x="1191" d="M49 1417h164l326 -1278h114l326 1278h164l-371 -1417h-352z" />
<glyph unicode="W" horiz-adv-x="1814" d="M61 1417h164l242 -1278h59l289 1266h184l289 -1266h60l241 1278h162l-287 -1417h-288l-269 1210l-268 -1210h-289z" />
<glyph unicode="X" horiz-adv-x="1142" d="M39 0l438 694l-438 723h178l358 -606l361 606h170l-436 -719l436 -698h-178l-357 588l-362 -588h-170z" />
<glyph unicode="Y" horiz-adv-x="1101" d="M20 1417h179l352 -663l352 663h178l-450 -821v-596h-158v596z" />
<glyph unicode="Z" horiz-adv-x="1097" d="M88 -2v182l739 1053v45h-739v139h922v-184l-742 -1053v-41h742v-141h-922z" />
<glyph unicode="[" horiz-adv-x="673" d="M162 -252v1786h430v-137h-275v-1512h275v-137h-430z" />
<glyph unicode="\" horiz-adv-x="892" d="M61 1389l138 59l630 -1419l-137 -58z" />
<glyph unicode="]" horiz-adv-x="673" d="M82 -115h274v1512h-274v137h430v-1786h-430v137z" />
<glyph unicode="^" d="M119 653l379 699h137l391 -699h-164l-293 547l-286 -547h-164z" />
<glyph unicode="_" horiz-adv-x="1294" d="M209 -188h876v-136h-876v136z" />
<glyph unicode="`" horiz-adv-x="483" d="M-2 1384l53 132l443 -201l-43 -105z" />
<glyph unicode="a" horiz-adv-x="1026" d="M82 293q0 145 76 216.5t237 86.5l322 31v88q0 105 -45 149.5t-140 44.5q-64 0 -160.5 -6.5t-161.5 -12.5l-65 -7l-6 116q226 45 402 45q172 0 250.5 -80t78.5 -249v-525q5 -76 119 -90l-6 -120q-85 0 -142.5 18.5t-101.5 62.5q-21 -9 -56.5 -22.5t-132.5 -36t-179 -22.5 q-140 0 -214.5 79.5t-74.5 233.5zM240 297q0 -91 39 -139.5t116 -48.5q68 0 148.5 15.5t126.5 31.5l47 16v338l-303 -29q-92 -9 -133 -53.5t-41 -130.5z" />
<glyph unicode="b" horiz-adv-x="1077" d="M147 2v1468h152v-497q18 8 47.5 20t109.5 31.5t144 19.5q207 0 290 -118t83 -398q0 -157 -23 -258.5t-79.5 -168t-148 -94t-233.5 -27.5q-55 0 -140.5 5.5t-143.5 10.5zM299 127q133 -10 188 -10q84 0 142 16t95.5 45.5t57.5 82t27.5 114t7.5 153.5q0 204 -50.5 291.5 t-182.5 87.5q-63 0 -134 -14.5t-111 -29.5l-40 -15v-721z" />
<glyph unicode="c" horiz-adv-x="892" d="M104 530q0 278 98.5 396t327.5 118q42 0 111.5 -7.5t118.5 -14.5l49 -8l-6 -125q-164 18 -242 18q-89 0 -146.5 -19.5t-91.5 -66.5t-47.5 -115.5t-13.5 -175.5q0 -96 7 -160t25.5 -115.5t53 -80t86.5 -43t129 -14.5q35 0 95.5 4.5t103.5 8.5l43 5l6 -127 q-191 -28 -285 -28q-123 0 -203.5 29t-129.5 96.5t-69 168.5t-20 256z" />
<glyph unicode="d" horiz-adv-x="1083" d="M102 504q0 276 100 408t328 132q118 0 252 -26v452h152v-1470h-152v70q-18 -10 -48 -25t-112.5 -40t-150.5 -25q-65 0 -116 11.5t-100 46t-81.5 91t-52 151.5t-19.5 224zM260 504q0 -120 18 -200t52 -119t71 -53.5t88 -14.5q64 0 137.5 19t114.5 38l41 19v694 q-132 24 -243 24q-155 0 -217 -99t-62 -308z" />
<glyph unicode="e" horiz-adv-x="1034" d="M102 506q0 538 428 538q207 0 309.5 -115.5t102.5 -363.5l-8 -116h-676q0 -171 61 -252.5t207 -81.5q68 0 162.5 4.5t154.5 8.5l60 5l4 -121q-233 -32 -399 -32q-222 0 -314 128t-92 398zM256 571h532q0 188 -60.5 266t-197.5 78q-135 0 -204 -81.5t-70 -262.5z" />
<glyph unicode="f" horiz-adv-x="677" d="M61 891v133h129v92q0 111 14.5 183t49 115t85 60t128.5 17q31 0 83 -3.5t88 -7.5l36 -3l-2 -127q-115 4 -176 4q-87 0 -119.5 -49.5t-32.5 -190.5v-90h297v-133h-297v-891h-154v891h-129z" />
<glyph unicode="g" horiz-adv-x="1052" d="M102 -172q0 83 36.5 135t125.5 119q-57 39 -57 141q0 17 17 57.5t34 72.5l18 32q-161 73 -161 309q0 181 101.5 265.5t281.5 84.5q45 0 98.5 -6.5t83.5 -13.5l31 -6l303 8v-131l-195 4q68 -68 68 -205q0 -193 -95 -269.5t-300 -76.5q-55 0 -101 8q-37 -89 -37 -116 q0 -45 15 -62.5t64 -25t169 -7.5q114 0 185.5 -12.5t120.5 -46.5t69 -92t20 -150q0 -169 -115.5 -247t-338.5 -78q-246 0 -343.5 66.5t-97.5 242.5zM254 -160q0 -108 60.5 -150t230.5 -42q155 0 226 44.5t71 145.5q0 47 -9 78t-25.5 50t-49.5 28.5t-69.5 12.5t-98.5 3 l-221 10q-67 -49 -91 -85.5t-24 -94.5zM268 694q0 -120 54.5 -171.5t175.5 -51.5q129 0 182 50.5t53 172.5t-53.5 174t-181.5 52q-121 0 -175.5 -52.5t-54.5 -173.5z" />
<glyph unicode="h" horiz-adv-x="1099" d="M147 0v1470h154v-503q18 9 49.5 21.5t114.5 34t151 21.5q85 0 144 -18t99 -53.5t62.5 -97.5t32 -141t9.5 -193v-541h-154v537q0 87 -5 143t-18 103t-38 72t-63 38.5t-95 13.5q-64 0 -136.5 -15.5t-112.5 -30.5l-40 -15v-846h-154z" />
<glyph unicode="i" horiz-adv-x="448" d="M147 0v1024h154v-1024h-154zM147 1255v179h154v-179h-154z" />
<glyph unicode="j" horiz-adv-x="448" d="M-100 -338q56 33 90.5 55.5t65.5 49t47 49.5t28 55.5t15.5 68.5t3.5 87v997h151v-999q0 -129 -29.5 -208.5t-99.5 -140.5t-211 -133zM150 1255v179h151v-179h-151z" />
<glyph unicode="k" horiz-adv-x="980" d="M147 0v1470h154v-868l160 8l293 414h174l-334 -471l348 -553h-174l-305 475l-162 -6v-469h-154z" />
<glyph unicode="l" horiz-adv-x="473" d="M160 0v1470h153v-1470h-153z" />
<glyph unicode="m" horiz-adv-x="1712" d="M147 0v1024h152v-72q17 10 46.5 25.5t109 41t143.5 25.5q103 0 164.5 -24t101.5 -80q7 4 20.5 11t55 25t82.5 32t98.5 25t108.5 11q106 0 172 -25.5t105.5 -88t54 -153.5t14.5 -236v-541h-154v537q0 109 -7.5 173t-31 112t-65.5 66.5t-111 18.5q-68 0 -140 -19t-110 -38 l-38 -19q26 -68 26 -299v-532h-153v528q0 91 -4.5 149t-17.5 106t-37.5 73t-62.5 38t-94 13q-64 0 -132.5 -19t-104.5 -38l-37 -19v-831h-154z" />
<glyph unicode="n" horiz-adv-x="1099" d="M147 0v1024h152v-72q19 10 50.5 25.5t115 41t151.5 25.5q86 0 145 -18t99 -53.5t62.5 -97.5t31.5 -140.5t9 -193.5v-541h-152v537q0 87 -5 143t-18 103t-38 72t-64 38.5t-96 13.5q-65 0 -137.5 -19t-112.5 -38l-39 -19v-831h-154z" />
<glyph unicode="o" horiz-adv-x="1081" d="M102 524q0 270 100.5 395t338.5 125q239 0 338.5 -124.5t99.5 -395.5q0 -146 -20 -243.5t-69.5 -167.5t-134.5 -101.5t-214 -31.5q-128 0 -213.5 31.5t-135 101.5t-70 168t-20.5 243zM260 524q0 -94 6 -155.5t23 -114t48.5 -81.5t81 -44.5t122.5 -15.5q61 0 105.5 9.5 t75.5 32.5t50.5 53.5t30 80t14.5 103.5t4 132q0 217 -59 302t-221 85q-161 0 -221 -85t-60 -302z" />
<glyph unicode="p" horiz-adv-x="1079" d="M147 -455v1479h152v-74q6 4 17.5 10t46.5 22.5t69.5 29t82.5 22.5t91 10q194 0 282.5 -124.5t88.5 -395.5q0 -297 -104 -420.5t-343 -123.5q-123 0 -229 22v-457h-154zM301 135q148 -22 221 -22q167 0 233 93.5t66 317.5q0 204 -60 293.5t-177 89.5q-62 0 -132.5 -20.5 t-110.5 -40.5l-40 -21v-690z" />
<glyph unicode="q" horiz-adv-x="1077" d="M102 496q0 303 107.5 425.5t376.5 122.5q47 0 132.5 -5t147.5 -10l62 -5v-1479h-152v502q-16 -8 -44 -19t-104.5 -29.5t-140.5 -18.5q-208 0 -296.5 121t-88.5 395zM258 496q0 -196 57 -287.5t189 -91.5q63 0 131 14.5t105 29.5l36 15v723q-127 12 -188 12 q-100 0 -164.5 -24t-101 -78t-50.5 -127.5t-14 -185.5z" />
<glyph unicode="r" horiz-adv-x="708" d="M147 0v1024h152v-139q20 14 55 35.5t133.5 65.5t186.5 61v-156q-86 -17 -179 -52t-143 -61l-51 -26v-752h-154z" />
<glyph unicode="s" horiz-adv-x="952" d="M92 745q0 81 31 141t84.5 93.5t116.5 49t137 15.5q68 0 160.5 -9.5t150.5 -18.5l59 -10l-4 -132q-227 33 -358 33q-105 0 -164 -35t-59 -120q0 -71 51 -101.5t215 -58.5q103 -17 164.5 -36t106.5 -52t63 -81.5t18 -123.5q0 -172 -101 -245.5t-296 -73.5q-58 0 -148.5 9.5 t-151.5 18.5l-61 10l9 134q234 -35 338 -35q133 0 195.5 38t62.5 138q0 78 -53.5 109.5t-223.5 58.5q-63 10 -106 19.5t-85 24.5t-67.5 35t-46 48.5t-29 67t-8.5 89.5z" />
<glyph unicode="t" horiz-adv-x="718" d="M55 891v133h146v313h151v-313h326v-133h-326v-490q0 -73 3 -116t11 -80t24.5 -54.5t42.5 -26.5t67 -9q25 0 70.5 3t78.5 6l33 3l10 -127q-137 -23 -209 -23q-109 0 -168 32.5t-86.5 113t-27.5 229.5v539h-146z" />
<glyph unicode="u" horiz-adv-x="1087" d="M137 489v535h154v-532q0 -76 2.5 -126.5t11 -96t23 -71.5t38.5 -46t58 -27.5t82 -7.5q68 0 138 19t106 38l36 19v831h154v-1024h-154v72q-17 -10 -46.5 -25.5t-109.5 -41t-147 -25.5q-87 0 -146.5 17.5t-99 52.5t-61.5 98t-30.5 142.5t-8.5 198.5z" />
<glyph unicode="v" horiz-adv-x="985" d="M51 1024h164l240 -891h75l248 891h158l-289 -1024h-307z" />
<glyph unicode="w" horiz-adv-x="1560" d="M63 1024h154l207 -891h33l243 871h160l244 -871h35l204 891h154l-244 -1024h-256l-217 801l-217 -801h-256z" />
<glyph unicode="x" horiz-adv-x="925" d="M45 0l322 512l-322 512h168l250 -401l250 401h168l-326 -508l324 -516h-168l-248 399l-250 -399h-168z" />
<glyph unicode="y" horiz-adv-x="989" d="M51 1024h154l256 -891h67l258 891h154l-426 -1479h-154l134 455h-152z" />
<glyph unicode="z" horiz-adv-x="931" d="M86 0v137l573 750h-573v137h760v-137l-574 -750h574v-137h-760z" />
<glyph unicode="{" horiz-adv-x="720" d="M49 575v125q117 27 168 81t51 143q0 26 -7 124t-7 138q0 189 87 271t296 89l2 -133q-134 -7 -185 -64t-51 -171q0 -35 7.5 -129.5t7.5 -122.5q0 -131 -44 -190.5t-171 -96.5q125 -36 170 -98.5t45 -192.5q-1 -31 -8 -114t-7 -123q0 -115 50.5 -174t185.5 -66l-4 -133 q-208 7 -294.5 90t-86.5 268q0 44 7 136t7 114q0 88 -51.5 142.5t-167.5 86.5z" />
<glyph unicode="|" horiz-adv-x="471" d="M160 -455v1925h151v-1925h-151z" />
<glyph unicode="}" horiz-adv-x="720" d="M82 -129q134 7 184.5 66t50.5 174q0 40 -6.5 123t-7.5 114q0 130 45 192.5t170 98.5q-127 37 -171 96.5t-44 190.5q0 28 7 122.5t7 129.5q0 115 -50.5 171.5t-184.5 63.5l2 133q209 -7 296 -89t87 -271q0 -40 -7 -138t-7 -124q0 -89 51 -143t168 -81v-125 q-116 -32 -167.5 -86.5t-51.5 -142.5q0 -22 7 -114t7 -136q0 -185 -86.5 -268t-294.5 -90z" />
<glyph unicode="~" d="M137 557q5 4 14.5 11.5t37 26.5t55 33t64 26t67.5 12q49 0 131.5 -31t160.5 -62.5t117 -31.5q34 0 86 23.5t88 47.5l35 23l21 -125q-5 -5 -14 -12t-35.5 -26.5t-53 -34t-62.5 -26.5t-67 -12q-49 0 -133 31.5t-162.5 63.5t-113.5 32q-36 0 -89.5 -24t-88.5 -48l-35 -24z " />
<glyph unicode="&#xa1;" horiz-adv-x="466" d="M147 795v229h168v-229h-168zM152 -393l10 950h141l10 -950h-161z" />
<glyph unicode="&#xa2;" d="M207 508q0 224 89 329.5t273 114.5v242h133v-248q39 -1 91 -7t84 -11l32 -6l-6 -123q-162 14 -264 14q-151 0 -211.5 -69t-60.5 -236q0 -169 60 -233t224 -64q45 0 108.5 3.5t104.5 7.5l41 3l6 -125q-123 -18 -209 -22v-244h-133v240q-190 9 -276 105.5t-86 328.5z" />
<glyph unicode="&#xa3;" d="M164 0v135h174v586h-137v133h137v113q0 124 17 203.5t56 124t92.5 61t137.5 16.5q48 0 116 -9t112 -17l44 -9l-2 -125q-164 23 -256 23q-97 0 -132.5 -58t-35.5 -221v-102h351v-133h-351v-586h316l158 33l26 -131l-168 -37h-655z" />
<glyph unicode="&#xa4;" d="M119 170l143 143q-59 91 -59 203q0 109 59 203l-143 143l108 109l144 -146q91 62 202 62q109 0 203 -62l144 146l108 -109l-145 -143q61 -92 61 -203q0 -114 -61 -203l145 -143l-108 -109l-144 146q-94 -62 -203 -62q-111 0 -202 62l-144 -146zM338 516q0 -97 69 -166 t166 -69t166.5 69t69.5 166t-69.5 166.5t-166.5 69.5t-166 -69.5t-69 -166.5z" />
<glyph unicode="&#xa5;" d="M47 1352h176l352 -553l349 553h176l-350 -574h278v-133h-356l-17 -39v-139h375v-133h-375v-334h-157v334h-379v133h379v139l-17 39h-364v133h286z" />
<glyph unicode="&#xa6;" horiz-adv-x="479" d="M164 319h151v-774h-151v774zM164 705v765h151v-765h-151z" />
<glyph unicode="&#xa7;" horiz-adv-x="1021" d="M106 522q0 80 43.5 156.5t75.5 101.5q-46 33 -68 86.5t-22 141.5q0 163 101 244t292 81q60 0 144 -8.5t138 -17.5l54 -9l-8 -129q-223 31 -321 31q-131 0 -190.5 -45t-59.5 -143q0 -35 7 -61.5t25 -46.5t38.5 -33.5t58 -25.5t72.5 -19.5t92 -18.5q91 -18 146 -36.5 t100 -51.5t64 -83.5t19 -125.5q0 -76 -30.5 -151.5t-59.5 -116.5q39 -34 57.5 -80t18.5 -125q0 -344 -391 -344q-58 0 -148 8.5t-150 17.5l-61 9l15 129q223 -31 336 -31q251 0 251 203q0 20 -2 36.5t-9.5 30.5t-13 24.5t-20.5 21t-24.5 17t-33 14t-37 11.5t-46 11t-50 10.5 t-58.5 11.5q-92 17 -151.5 38t-106 55t-67 86t-20.5 126zM260 545q0 -90 52 -129t180 -62q146 -27 208 -55q6 7 17.5 34t23 73t11.5 86q0 48 -13.5 79.5t-46.5 52t-71 32t-105 24.5q-127 21 -188 45l-4 -7q-5 -7 -9 -14t-11 -19t-12.5 -23.5t-11.5 -27t-10.5 -29.5t-7 -30 t-2.5 -30z" />
<glyph unicode="&#xa8;" horiz-adv-x="483" d="M-25 1272v184h148v-184h-148zM385 1272v184h150v-184h-150z" />
<glyph unicode="&#xa9;" horiz-adv-x="1320" d="M121 889q0 156 69.5 284t193.5 201.5t278 73.5q155 0 279 -75.5t191.5 -203t67.5 -280.5q0 -156 -68 -283t-192.5 -201.5t-280.5 -74.5q-152 0 -275.5 74.5t-193 202.5t-69.5 282zM211 889q0 -128 57.5 -235.5t161 -170.5t229.5 -63q193 0 322 136t129 333 q0 128 -58.5 236t-162.5 171.5t-230 63.5q-191 0 -319.5 -137.5t-128.5 -333.5zM428 891q0 166 54 242.5t188 76.5q38 0 77.5 -5t59.5 -10l20 -5l-8 -109q-77 13 -143 13q-77 0 -100 -46t-23 -157q0 -109 26 -159t97 -50q26 0 62 3.5t58 6.5l23 4l8 -106q-75 -25 -159 -25 q-132 0 -186 77t-54 249z" />
<glyph unicode="&#xaa;" horiz-adv-x="790" d="M111 920q0 84 48 127t148 49l180 12v45q0 45 -24 63.5t-76 18.5q-35 0 -93.5 -3.5t-99.5 -7.5l-42 -3l-5 98q142 31 246 31q116 0 170.5 -45t54.5 -158v-281q18 -24 62 -35l-4 -100q-79 0 -111.5 12t-58.5 41q-13 -6 -34.5 -15t-79.5 -23.5t-105 -14.5q-83 0 -129.5 51 t-46.5 138zM246 922q0 -80 73 -80q32 0 74 8.5t68 17.5l26 9v137l-157 -10q-45 -3 -64.5 -22t-19.5 -60z" />
<glyph unicode="&#xab;" horiz-adv-x="1103" d="M92 446v123l387 293v-157l-254 -193l254 -215v-160zM578 446v123l389 293v-157l-256 -193l256 -215v-160z" />
<glyph unicode="&#xac;" d="M133 561v139h877v-460h-144v321h-733z" />
<glyph unicode="&#xad;" horiz-adv-x="897" d="M139 492v143h621v-143h-621z" />
<glyph unicode="&#xae;" horiz-adv-x="1320" d="M121 889q0 156 69 284t192.5 201.5t276.5 73.5q156 0 280.5 -75.5t192.5 -203t68 -280.5q0 -156 -68 -283t-192.5 -201.5t-280.5 -74.5q-152 0 -275.5 74.5t-193 202.5t-69.5 282zM211 889q0 -195 129 -332t319 -137q193 0 322 136t129 333q0 128 -58.5 236t-162.5 171.5 t-230 63.5q-191 0 -319.5 -137.5t-128.5 -333.5zM436 578v620h226q116 0 174.5 -44.5t58.5 -149.5q0 -77 -23.5 -121t-80.5 -70l112 -235h-125l-102 219h-121v-219h-119zM553 893h121q56 0 80 24.5t24 79.5t-31 80t-96 25h-98v-209z" />
<glyph unicode="&#xaf;" horiz-adv-x="483" d="M-29 1278v121h564v-121h-564z" />
<glyph unicode="&#xb0;" d="M283 1149q0 129 80.5 209t209.5 80t210 -80t81 -209q0 -130 -80.5 -209.5t-210.5 -79.5q-129 0 -209.5 79.5t-80.5 209.5zM387 1149q0 -86 50.5 -138.5t135.5 -52.5t138 52.5t53 138.5q0 85 -53 137.5t-138 52.5q-84 0 -135 -52.5t-51 -137.5z" />
<glyph unicode="&#xb1;" d="M113 78v139h921v-139h-921zM113 600v139h387v258h143v-258h391v-139h-391v-260h-143v260h-387z" />
<glyph unicode="&#xb2;" horiz-adv-x="573" d="M61 979v113l181 178q54 52 79 90t25 80q0 76 -100 76q-26 0 -69.5 -5t-74.5 -9l-30 -5l-4 117q121 24 211 24q105 0 153.5 -45t48.5 -141q0 -68 -28.5 -118t-96.5 -111l-129 -125h262v-119h-428z" />
<glyph unicode="&#xb3;" horiz-adv-x="573" d="M61 979l9 115q116 -17 204 -17q52 0 77.5 23t25.5 63q0 88 -96 88h-134v109h134q29 0 53 26.5t24 63.5q0 36 -21.5 53t-70.5 17q-39 0 -86 -4t-74 -8l-28 -3l-8 113q121 20 209 20q109 0 162 -41.5t53 -130.5q0 -35 -10 -63.5t-25.5 -46t-25.5 -26t-19 -13.5 q50 -16 73 -50.5t23 -109.5q0 -100 -56 -149.5t-161 -49.5q-44 0 -102 5t-94 11z" />
<glyph unicode="&#xb4;" horiz-adv-x="548" d="M53 1315l443 201l53 -132l-453 -174z" />
<glyph unicode="&#xb5;" d="M172 -455v1479h154v-532q0 -76 2.5 -126.5t11 -96t23 -71.5t38.5 -46t58 -27.5t82 -7.5q68 0 138 19t106 38l36 19v831h154v-1024h-154v72q-17 -10 -46.5 -25.5t-109.5 -41t-147 -25.5q-123 0 -192 34v-469h-154z" />
<glyph unicode="&#xb6;" horiz-adv-x="1214" d="M72 1038q0 166 109 272.5t274 106.5h673v-133h-147v-1284h-139v1284h-238v-1284h-137v664h-14q-166 0 -273.5 104t-107.5 270z" />
<glyph unicode="&#xb7;" horiz-adv-x="444" d="M139 469v233h168v-233h-168z" />
<glyph unicode="&#xb8;" horiz-adv-x="538" d="M86 -430l6 98q80 -6 135 -6q90 0 90 78q0 70 -90 70h-86v192h84v-102q121 0 174.5 -33t53.5 -127q0 -93 -50.5 -138.5t-140.5 -45.5q-40 0 -84 3.5t-68 6.5z" />
<glyph unicode="&#xb9;" horiz-adv-x="573" d="M66 1475l206 143h123v-639h-131v496l-139 -97z" />
<glyph unicode="&#xba;" horiz-adv-x="778" d="M109 1044q0 158 70.5 232t211.5 74q140 0 208.5 -74t68.5 -232q0 -313 -277 -313q-282 0 -282 313zM250 1044q0 -100 32 -144t109 -44q75 0 105 44t30 144q0 99 -29.5 140t-105.5 41q-78 0 -109.5 -41t-31.5 -140z" />
<glyph unicode="&#xbb;" horiz-adv-x="1103" d="M137 137v160l256 215l-256 193v157l387 -293v-123zM623 137v160l256 215l-256 193v157l389 -293v-123z" />
<glyph unicode="&#xbc;" horiz-adv-x="1093" d="M72 57l802 1295l82 -54l-804 -1292zM76 1475l207 143h123v-639h-132v496l-139 -97zM555 4l141 430h144l-150 -422h154l10 183h119v-183h55v-118h-55v-99h-129v99h-289v110z" />
<glyph unicode="&#xbd;" horiz-adv-x="1083" d="M68 57l802 1295l82 -54l-805 -1292zM84 1475l207 143h123v-639h-131v496l-140 -97zM567 -92l181 178q54 52 79 90t25 80q0 76 -100 76q-26 0 -69.5 -5t-74.5 -9l-30 -5l-5 117q121 25 211 25q105 0 154 -45.5t49 -141.5q0 -68 -28.5 -118t-96.5 -111l-129 -125h262v-119 h-428v113z" />
<glyph unicode="&#xbe;" horiz-adv-x="1126" d="M100 979l9 115q116 -17 204 -17q52 0 77.5 23t25.5 63q0 88 -97 88h-133v109h133q29 0 53.5 26.5t24.5 63.5q0 36 -21.5 53t-70.5 17q-39 0 -86 -4t-75 -8l-27 -3l-8 113q120 20 208 20q109 0 162 -41.5t53 -130.5q0 -45 -18.5 -81t-32.5 -48t-28 -20q50 -16 73 -50.5 t23 -109.5q0 -100 -56 -149.5t-161 -49.5q-44 0 -102 5t-94 11zM106 57l803 1295l82 -54l-805 -1292zM590 4l141 430h143l-149 -422h154l10 183h119v-183h55v-118h-55v-99h-129v99h-289v110z" />
<glyph unicode="&#xbf;" horiz-adv-x="903" d="M78 -84q0 133 35.5 202.5t154.5 168.5q100 82 141.5 136.5t41.5 119.5v71h129q26 -55 26 -125q0 -69 -47 -130t-143 -142q-113 -98 -148 -151.5t-35 -137.5q0 -107 66 -153.5t207 -46.5q51 0 130.5 11.5t133.5 23.5l53 12l11 -125q-207 -62 -342 -62q-211 0 -312.5 76.5 t-101.5 251.5zM434 795v229h168v-229h-168z" />
<glyph unicode="&#xc0;" horiz-adv-x="1220" d="M49 0l389 1417h344l389 -1417h-155l-103 365h-606l-102 -365h-156zM334 1772l53 135l442 -205l-47 -109zM342 506h537l-215 776h-107z" />
<glyph unicode="&#xc1;" horiz-adv-x="1220" d="M49 0l389 1417h344l389 -1417h-155l-103 365h-606l-102 -365h-156zM342 506h537l-215 776h-107zM381 1702l442 205l54 -135l-449 -179z" />
<glyph unicode="&#xc2;" horiz-adv-x="1220" d="M49 0l389 1417h344l389 -1417h-155l-103 365h-606l-102 -365h-156zM266 1620l275 276h133l274 -276h-172l-168 164l-170 -164h-172zM342 506h537l-215 776h-107z" />
<glyph unicode="&#xc3;" horiz-adv-x="1220" d="M49 0l389 1417h344l389 -1417h-155l-103 365h-606l-102 -365h-156zM256 1772q4 5 11 13t28.5 28t42.5 35.5t48.5 28.5t51.5 13q44 0 114 -27.5t132 -55t86 -27.5q19 0 54 23.5t60 46.5l25 24l37 -115q-4 -5 -10.5 -12.5t-26.5 -27t-39.5 -34.5t-46 -27.5t-49.5 -12.5 q-52 0 -178.5 55t-155.5 55q-22 0 -59 -24.5t-63 -48.5l-27 -25zM342 506h537l-215 776h-107z" />
<glyph unicode="&#xc4;" horiz-adv-x="1220" d="M49 0l389 1417h344l389 -1417h-155l-103 365h-606l-102 -365h-156zM326 1655v184h149v-184h-149zM342 506h537l-215 776h-107zM743 1655v184h148v-184h-148z" />
<glyph unicode="&#xc5;" horiz-adv-x="1220" d="M49 0l377 1370q-61 58 -61 154q0 100 68 157.5t175 57.5q106 0 174 -57.5t68 -157.5q0 -90 -57 -150l378 -1374h-155l-103 365h-606l-102 -365h-156zM342 506h537l-215 776h-107zM481 1524q0 -43 23 -71.5t65 -35.5h76q42 8 66 36.5t24 70.5q0 52 -34 80t-93 28 q-60 0 -93.5 -28t-33.5 -80z" />
<glyph unicode="&#xc6;" horiz-adv-x="1794" d="M41 0l459 1425h1198v-149h-707v-471h584v-150h-584v-505h707v-150h-862v358h-514l-119 -358h-162zM365 510h471l2 766h-224z" />
<glyph unicode="&#xc7;" horiz-adv-x="1114" d="M121 705q0 107 6.5 191.5t22 163t41.5 135.5t65.5 104.5t93.5 77t126 45.5t163 16q166 0 391 -45l-6 -133q-207 36 -369 36q-79 0 -137 -15t-99 -49t-67 -79.5t-41 -116t-20.5 -147.5t-5.5 -184q0 -90 3.5 -157t13.5 -131t28 -108t46 -82t67.5 -60t93 -34t122.5 -12 q164 0 365 37l6 -135q-193 -40 -371 -43v-80q121 0 174.5 -33t53.5 -127q0 -93 -50.5 -138.5t-140.5 -45.5q-40 0 -84 3.5t-68 6.5l-24 4l6 98q81 -6 136 -6q90 0 90 78q0 70 -90 70h-87v172q-110 7 -189.5 43t-130.5 94t-81 148.5t-41.5 194t-11.5 243.5z" />
<glyph unicode="&#xc8;" horiz-adv-x="1132" d="M174 0v1417h862v-139h-704v-490h581v-137h-581v-512h704v-139h-862zM346 1772l53 135l443 -205l-47 -109z" />
<glyph unicode="&#xc9;" horiz-adv-x="1132" d="M174 0v1417h862v-139h-704v-490h581v-137h-581v-512h704v-139h-862zM360 1702l443 205l53 -135l-448 -179z" />
<glyph unicode="&#xca;" horiz-adv-x="1132" d="M174 0v1417h862v-139h-704v-490h581v-137h-581v-512h704v-139h-862zM260 1620l275 276h133l274 -276h-172l-168 164l-170 -164h-172z" />
<glyph unicode="&#xcb;" horiz-adv-x="1132" d="M174 0v1417h862v-139h-704v-490h581v-137h-581v-512h704v-139h-862zM322 1655v184h149v-184h-149zM739 1655v184h148v-184h-148z" />
<glyph unicode="&#xcc;" horiz-adv-x="503" d="M-41 1772l53 135l443 -205l-47 -109zM174 0v1417h158v-1417h-158z" />
<glyph unicode="&#xcd;" horiz-adv-x="503" d="M27 1702l442 205l53 -135l-448 -179zM174 0v1417h158v-1417h-158z" />
<glyph unicode="&#xce;" horiz-adv-x="503" d="M-96 1620l274 276h133l275 -276h-172l-168 164l-170 -164h-172zM174 0v1417h158v-1417h-158z" />
<glyph unicode="&#xcf;" horiz-adv-x="503" d="M-31 1655v184h150v-184h-150zM174 0v1417h158v-1417h-158zM387 1655v184h148v-184h-148z" />
<glyph unicode="&#xd0;" horiz-adv-x="1325" d="M41 637v149h139v639h506q120 0 211.5 -33.5t150.5 -92.5t95.5 -147.5t51.5 -189.5t15 -227q0 -129 -14.5 -234t-50.5 -200.5t-94.5 -160t-150.5 -102.5t-214 -38h-506v637h-139zM336 150h350q361 0 361 585q0 95 -9 171.5t-33.5 147.5t-64.5 118.5t-104 75.5t-150 28 h-350v-490h323v-149h-323v-487z" />
<glyph unicode="&#xd1;" horiz-adv-x="1384" d="M174 0v1417h295l543 -1278h43v1278h155v-1417h-288l-551 1278h-39v-1278h-158zM342 1772q4 5 11 13t28.5 28t42.5 35.5t48.5 28.5t51.5 13q44 0 114 -27.5t132 -55t86 -27.5q19 0 54 23.5t60 46.5l25 24l37 -115q-4 -5 -10.5 -12.5t-26.5 -27t-39.5 -34.5t-46 -27.5 t-49.5 -12.5q-52 0 -178.5 55t-155.5 55q-22 0 -59 -24.5t-63 -48.5l-27 -25z" />
<glyph unicode="&#xd2;" horiz-adv-x="1351" d="M117 702q0 146 16 256.5t55 203.5t102 152t159.5 91.5t226.5 32.5q162 0 272 -47.5t173 -145t89.5 -228t26.5 -315.5q0 -190 -26 -319.5t-89.5 -223t-172.5 -136.5t-273 -43q-131 0 -227 30t-160 86.5t-102 147t-54 200.5t-16 258zM279 702q0 -123 10 -210t35.5 -161.5 t70 -118.5t114 -68.5t167.5 -24.5q82 0 144 15t106 48t72.5 78.5t45 114t23 145.5t6.5 182q0 121 -10 209.5t-36.5 165t-71 123t-114 72.5t-165.5 26q-97 0 -166.5 -26t-114 -72.5t-70.5 -122.5t-36 -164.5t-10 -210.5zM412 1772l53 135l442 -205l-47 -109z" />
<glyph unicode="&#xd3;" horiz-adv-x="1351" d="M117 702q0 146 16 256.5t55 203.5t102 152t159.5 91.5t226.5 32.5q162 0 272 -47.5t173 -145t89.5 -228t26.5 -315.5q0 -190 -26 -319.5t-89.5 -223t-172.5 -136.5t-273 -43q-131 0 -227 30t-160 86.5t-102 147t-54 200.5t-16 258zM279 702q0 -123 10 -210t35.5 -161.5 t70 -118.5t114 -68.5t167.5 -24.5q82 0 144 15t106 48t72.5 78.5t45 114t23 145.5t6.5 182q0 121 -10 209.5t-36.5 165t-71 123t-114 72.5t-165.5 26q-97 0 -166.5 -26t-114 -72.5t-70.5 -122.5t-36 -164.5t-10 -210.5zM406 1702l442 205l53 -135l-448 -179z" />
<glyph unicode="&#xd4;" horiz-adv-x="1351" d="M117 702q0 146 16 256.5t55 203.5t102 152t159.5 91.5t226.5 32.5q162 0 272 -47.5t173 -145t89.5 -228t26.5 -315.5q0 -190 -26 -319.5t-89.5 -223t-172.5 -136.5t-273 -43q-131 0 -227 30t-160 86.5t-102 147t-54 200.5t-16 258zM279 702q0 -123 10 -210t35.5 -161.5 t70 -118.5t114 -68.5t167.5 -24.5q82 0 144 15t106 48t72.5 78.5t45 114t23 145.5t6.5 182q0 121 -10 209.5t-36.5 165t-71 123t-114 72.5t-165.5 26q-97 0 -166.5 -26t-114 -72.5t-70.5 -122.5t-36 -164.5t-10 -210.5zM336 1620l274 276h133l275 -276h-172l-168 164 l-170 -164h-172z" />
<glyph unicode="&#xd5;" horiz-adv-x="1351" d="M117 702q0 146 16 256.5t55 203.5t102 152t159.5 91.5t226.5 32.5q162 0 272 -47.5t173 -145t89.5 -228t26.5 -315.5q0 -190 -26 -319.5t-89.5 -223t-172.5 -136.5t-273 -43q-131 0 -227 30t-160 86.5t-102 147t-54 200.5t-16 258zM279 702q0 -123 10 -210t35.5 -161.5 t70 -118.5t114 -68.5t167.5 -24.5q82 0 144 15t106 48t72.5 78.5t45 114t23 145.5t6.5 182q0 121 -10 209.5t-36.5 165t-71 123t-114 72.5t-165.5 26q-97 0 -166.5 -26t-114 -72.5t-70.5 -122.5t-36 -164.5t-10 -210.5zM326 1772q4 5 11 13t28.5 28t42.5 35.5t48.5 28.5 t51.5 13q44 0 114 -27.5t132 -55t86 -27.5q19 0 54 23.5t60 46.5l25 24l37 -115q-4 -5 -10.5 -12.5t-26.5 -27t-39.5 -34.5t-46 -27.5t-49.5 -12.5q-52 0 -178.5 55t-155.5 55q-22 0 -59.5 -24.5t-64.5 -48.5l-26 -25z" />
<glyph unicode="&#xd6;" horiz-adv-x="1351" d="M117 702q0 146 16 256.5t55 203.5t102 152t159.5 91.5t226.5 32.5q162 0 272 -47.5t173 -145t89.5 -228t26.5 -315.5q0 -190 -26 -319.5t-89.5 -223t-172.5 -136.5t-273 -43q-131 0 -227 30t-160 86.5t-102 147t-54 200.5t-16 258zM279 702q0 -123 10 -210t35.5 -161.5 t70 -118.5t114 -68.5t167.5 -24.5q82 0 144 15t106 48t72.5 78.5t45 114t23 145.5t6.5 182q0 121 -10 209.5t-36.5 165t-71 123t-114 72.5t-165.5 26q-97 0 -166.5 -26t-114 -72.5t-70.5 -122.5t-36 -164.5t-10 -210.5zM393 1655v184h150v-184h-150zM811 1655v184h147v-184 h-147z" />
<glyph unicode="&#xd7;" d="M145 184l332 330l-332 328l101 98l327 -332l330 334l98 -98l-333 -330l333 -330l-98 -98l-330 332l-329 -332z" />
<glyph unicode="&#xd8;" horiz-adv-x="1351" d="M117 702q0 146 16 256.5t55 203.5t102 152t159.5 91.5t226.5 32.5q154 0 258 -43l115 241l118 -49l-120 -260q102 -86 146 -240.5t44 -384.5q0 -190 -26 -319.5t-89.5 -223t-172.5 -136.5t-273 -43q-145 0 -246 34l-117 -252l-116 54l120 258q-109 81 -154.5 234 t-45.5 394zM279 702q0 -182 23 -298t83 -183l487 1039q-75 38 -196 38q-97 0 -166.5 -26t-114 -72.5t-70.5 -122.5t-36 -164.5t-10 -210.5zM494 147q69 -28 182 -28q82 0 144 15t106 48t72.5 78.5t45 114t23 145.5t6.5 182q0 170 -22 286.5t-76 187.5z" />
<glyph unicode="&#xd9;" horiz-adv-x="1318" d="M164 430v987h158v-991q0 -161 84.5 -234t246.5 -73q171 0 258.5 73t87.5 234v991h156v-987q0 -237 -126 -343.5t-376 -106.5q-242 0 -365.5 106.5t-123.5 343.5zM401 1772l54 135l442 -205l-47 -109z" />
<glyph unicode="&#xda;" horiz-adv-x="1318" d="M164 430v987h158v-991q0 -161 84.5 -234t246.5 -73q171 0 258.5 73t87.5 234v991h156v-987q0 -237 -126 -343.5t-376 -106.5q-242 0 -365.5 106.5t-123.5 343.5zM408 1702l442 205l53 -135l-448 -179z" />
<glyph unicode="&#xdb;" horiz-adv-x="1318" d="M164 430v987h158v-991q0 -161 84.5 -234t246.5 -73q171 0 258.5 73t87.5 234v991h156v-987q0 -237 -126 -343.5t-376 -106.5q-242 0 -365.5 106.5t-123.5 343.5zM317 1620l275 276h133l274 -276h-172l-168 164l-170 -164h-172z" />
<glyph unicode="&#xdc;" horiz-adv-x="1318" d="M164 430v987h158v-991q0 -161 84.5 -234t246.5 -73q171 0 258.5 73t87.5 234v991h156v-987q0 -237 -126 -343.5t-376 -106.5q-242 0 -365.5 106.5t-123.5 343.5zM377 1655v184h149v-184h-149zM795 1655v184h147v-184h-147z" />
<glyph unicode="&#xdd;" horiz-adv-x="1101" d="M20 1417h179l352 -663l352 663h178l-450 -821v-596h-158v596zM342 1702l442 205l54 -135l-449 -179z" />
<glyph unicode="&#xde;" horiz-adv-x="1226" d="M174 0v1425h158v-229h360q231 0 343 -112.5t112 -344.5q0 -236 -113.5 -363.5t-341.5 -127.5h-360v-248h-158zM332 399h358q151 0 223 89t72 251q0 159 -70 232t-225 73h-358v-645z" />
<glyph unicode="&#xdf;" horiz-adv-x="1175" d="M147 0v1116q0 207 93 291t309 84q211 0 304 -69t93 -226q0 -108 -39 -166.5t-129 -97.5q-74 -33 -97.5 -52t-23.5 -49q0 -32 34 -58.5t147 -82.5q78 -39 124 -68.5t80.5 -68t48 -83.5t13.5 -108q0 -209 -93.5 -295.5t-318.5 -86.5q-45 0 -112 7.5t-112 14.5l-44 8l6 129 q174 -22 250 -22q148 0 206 54t58 169q0 85 -42.5 129.5t-180.5 110.5q-129 61 -176 110.5t-47 128.5q0 73 37.5 116t119.5 79q77 33 104 71t27 103q0 92 -51.5 129t-185.5 37q-139 0 -193.5 -53t-54.5 -203v-1098h-154z" />
<glyph unicode="&#xe0;" horiz-adv-x="1026" d="M82 293q0 145 76 216.5t237 86.5l322 31v88q0 105 -45 149.5t-140 44.5q-64 0 -160.5 -6.5t-161.5 -12.5l-65 -7l-6 116q226 45 402 45q172 0 250.5 -80t78.5 -249v-525q5 -76 119 -90l-6 -120q-85 0 -142.5 18.5t-101.5 62.5q-21 -9 -56.5 -22.5t-132.5 -36t-179 -22.5 q-140 0 -214.5 79.5t-74.5 233.5zM240 297q0 -91 39 -139.5t116 -48.5q68 0 148.5 15.5t126.5 31.5l47 16v338l-303 -29q-92 -9 -133 -53.5t-41 -130.5zM248 1384l53 132l442 -201l-43 -105z" />
<glyph unicode="&#xe1;" horiz-adv-x="1026" d="M82 293q0 145 76 216.5t237 86.5l322 31v88q0 105 -45 149.5t-140 44.5q-64 0 -160.5 -6.5t-161.5 -12.5l-65 -7l-6 116q226 45 402 45q172 0 250.5 -80t78.5 -249v-525q5 -76 119 -90l-6 -120q-85 0 -142.5 18.5t-101.5 62.5q-21 -9 -56.5 -22.5t-132.5 -36t-179 -22.5 q-140 0 -214.5 79.5t-74.5 233.5zM240 297q0 -91 39 -139.5t116 -48.5q68 0 148.5 15.5t126.5 31.5l47 16v338l-303 -29q-92 -9 -133 -53.5t-41 -130.5zM242 1315l442 201l53 -132l-452 -174z" />
<glyph unicode="&#xe2;" horiz-adv-x="1026" d="M82 293q0 145 76 216.5t237 86.5l322 31v88q0 105 -45 149.5t-140 44.5q-64 0 -160.5 -6.5t-161.5 -12.5l-65 -7l-6 116q226 45 402 45q172 0 250.5 -80t78.5 -249v-525q5 -76 119 -90l-6 -120q-85 0 -142.5 18.5t-101.5 62.5q-21 -9 -56.5 -22.5t-132.5 -36t-179 -22.5 q-140 0 -214.5 79.5t-74.5 233.5zM195 1212l251 287h105l254 -287h-154l-149 179l-154 -179h-153zM240 297q0 -91 39 -139.5t116 -48.5q68 0 148.5 15.5t126.5 31.5l47 16v338l-303 -29q-92 -9 -133 -53.5t-41 -130.5z" />
<glyph unicode="&#xe3;" horiz-adv-x="1026" d="M82 293q0 145 76 216.5t237 86.5l322 31v88q0 105 -45 149.5t-140 44.5q-64 0 -160.5 -6.5t-161.5 -12.5l-65 -7l-6 116q226 45 402 45q172 0 250.5 -80t78.5 -249v-525q5 -76 119 -90l-6 -120q-85 0 -142.5 18.5t-101.5 62.5q-21 -9 -56.5 -22.5t-132.5 -36t-179 -22.5 q-140 0 -214.5 79.5t-74.5 233.5zM158 1366l11.5 11.5t29.5 26t43.5 32.5t49.5 25.5t52 11.5q44 0 150.5 -47.5t134.5 -47.5q19 0 54.5 19.5t60.5 38.5l26 20l35 -98q-11 -12 -28.5 -29.5t-64.5 -46.5t-83 -29q-43 0 -148.5 48.5t-136.5 48.5q-22 0 -59 -20.5t-63 -41.5 l-27 -20zM240 297q0 -91 39 -139.5t116 -48.5q68 0 148.5 15.5t126.5 31.5l47 16v338l-303 -29q-92 -9 -133 -53.5t-41 -130.5z" />
<glyph unicode="&#xe4;" horiz-adv-x="1026" d="M82 293q0 145 76 216.5t237 86.5l322 31v88q0 105 -45 149.5t-140 44.5q-64 0 -160.5 -6.5t-161.5 -12.5l-65 -7l-6 116q226 45 402 45q172 0 250.5 -80t78.5 -249v-525q5 -76 119 -90l-6 -120q-85 0 -142.5 18.5t-101.5 62.5q-21 -9 -56.5 -22.5t-132.5 -36t-179 -22.5 q-140 0 -214.5 79.5t-74.5 233.5zM215 1272v184h147v-184h-147zM240 297q0 -91 39 -139.5t116 -48.5q68 0 148.5 15.5t126.5 31.5l47 16v338l-303 -29q-92 -9 -133 -53.5t-41 -130.5zM625 1272v184h149v-184h-149z" />
<glyph unicode="&#xe5;" horiz-adv-x="1026" d="M82 293q0 145 76 216.5t237 86.5l322 31v88q0 105 -45 149.5t-140 44.5q-64 0 -160.5 -6.5t-161.5 -12.5l-65 -7l-6 116q226 45 402 45q172 0 250.5 -80t78.5 -249v-525q5 -76 119 -90l-6 -120q-85 0 -142.5 18.5t-101.5 62.5q-21 -9 -56.5 -22.5t-132.5 -36t-179 -22.5 q-140 0 -214.5 79.5t-74.5 233.5zM240 297q0 -91 39 -139.5t116 -48.5q68 0 148.5 15.5t126.5 31.5l47 16v338l-303 -29q-92 -9 -133 -53.5t-41 -130.5zM309 1321q0 90 61.5 151.5t151.5 61.5q89 0 150 -62t61 -151q0 -91 -61 -152t-150 -61q-91 0 -152 61t-61 152z M410 1321q0 -49 32.5 -83t79.5 -34t80 34t33 83q0 47 -33 81t-80 34t-79.5 -33.5t-32.5 -81.5z" />
<glyph unicode="&#xe6;" horiz-adv-x="1646" d="M82 293q0 85 21.5 141t71 89.5t113 50.5t165.5 28l264 25v84q0 186 -178 186q-68 0 -165 -5t-160 -10l-64 -5l-7 137q244 30 404 30q209 0 276 -149q98 149 320 149q207 0 309 -115.5t102 -363.5l-8 -119h-676q0 -167 61.5 -247t207.5 -80q68 0 161.5 4.5t153.5 8.5l59 5 l5 -125q-232 -32 -398 -32q-205 0 -301 110l-65 -29q-28 -12 -70.5 -27t-138.5 -34.5t-185 -19.5q-136 0 -207 80t-71 233zM240 297q0 -90 37.5 -137t107.5 -47q94 0 215.5 30t151.5 45q-39 103 -39 314l-299 -25q-90 -8 -132 -50.5t-42 -129.5zM870 571h531 q0 182 -60.5 259t-197.5 77q-136 0 -204.5 -80t-68.5 -256z" />
<glyph unicode="&#xe7;" horiz-adv-x="892" d="M104 530q0 278 98.5 396t327.5 118q42 0 111.5 -7.5t118.5 -14.5l49 -8l-6 -125q-164 18 -242 18q-89 0 -146.5 -19.5t-91.5 -66.5t-47.5 -115.5t-13.5 -175.5q0 -96 7 -160t25.5 -115.5t53 -80t86.5 -43t129 -14.5q35 0 95.5 4.5t103.5 8.5l43 5l6 -127 q-191 -28 -285 -28h-16v-80q121 0 174 -33t53 -127t-50 -139t-140 -45q-40 0 -84 3.5t-68 6.5l-24 4l6 98q80 -6 135 -6q90 0 90 78q0 70 -90 70h-86v176q-181 21 -251.5 146t-70.5 398z" />
<glyph unicode="&#xe8;" horiz-adv-x="1034" d="M102 506q0 538 428 538q207 0 309.5 -115.5t102.5 -363.5l-8 -116h-676q0 -171 61 -252.5t207 -81.5q68 0 162.5 4.5t154.5 8.5l60 5l4 -121q-233 -32 -399 -32q-222 0 -314 128t-92 398zM248 1386l53 132l442 -201l-43 -105zM256 571h532q0 188 -60.5 266t-197.5 78 q-135 0 -204 -81.5t-70 -262.5z" />
<glyph unicode="&#xe9;" horiz-adv-x="1034" d="M102 506q0 538 428 538q207 0 309.5 -115.5t102.5 -363.5l-8 -116h-676q0 -171 61 -252.5t207 -81.5q68 0 162.5 4.5t154.5 8.5l60 5l4 -121q-233 -32 -399 -32q-222 0 -314 128t-92 398zM256 571h532q0 188 -60.5 266t-197.5 78q-135 0 -204 -81.5t-70 -262.5zM297 1315 l442 201l54 -132l-453 -174z" />
<glyph unicode="&#xea;" horiz-adv-x="1034" d="M102 506q0 538 428 538q207 0 309.5 -115.5t102.5 -363.5l-8 -116h-676q0 -171 61 -252.5t207 -81.5q68 0 162.5 4.5t154.5 8.5l60 5l4 -121q-233 -32 -399 -32q-222 0 -314 128t-92 398zM229 1212l252 287h105l254 -287h-154l-149 179l-154 -179h-154zM256 571h532 q0 188 -60.5 266t-197.5 78q-135 0 -204 -81.5t-70 -262.5z" />
<glyph unicode="&#xeb;" horiz-adv-x="1034" d="M102 506q0 538 428 538q207 0 309.5 -115.5t102.5 -363.5l-8 -116h-676q0 -171 61 -252.5t207 -81.5q68 0 162.5 4.5t154.5 8.5l60 5l4 -121q-233 -32 -399 -32q-222 0 -314 128t-92 398zM246 1272v184h147v-184h-147zM256 571h532q0 188 -60.5 266t-197.5 78 q-135 0 -204 -81.5t-70 -262.5zM655 1272v184h150v-184h-150z" />
<glyph unicode="&#xec;" horiz-adv-x="448" d="M-123 1384l53 132l443 -201l-43 -105zM147 0v1024h154v-1024h-154z" />
<glyph unicode="&#xed;" horiz-adv-x="448" d="M78 1315l442 201l53 -132l-452 -174zM147 0h154v1024h-154v-1024z" />
<glyph unicode="&#xee;" horiz-adv-x="448" d="M-86 1212l252 287h104l254 -287h-153l-150 179l-153 -179h-154zM147 0h154v1024h-154v-1024z" />
<glyph unicode="&#xef;" horiz-adv-x="448" d="M-63 1272v184h147v-184h-147zM147 0h154v1024h-154v-1024zM346 1272v184h150v-184h-150z" />
<glyph unicode="&#xf0;" horiz-adv-x="1122" d="M86 440q0 202 113 321.5t317 119.5q68 0 152.5 -18.5t135.5 -36.5l50 -19q-13 266 -281 424l-249 -166l-68 96l195 131q-105 45 -254 84l30 115q207 -41 355 -111l206 140l70 -97l-158 -106q316 -200 316 -596q0 -397 -110 -568t-363 -171q-219 0 -338 117t-119 341z M248 440q0 -154 74.5 -236.5t220.5 -82.5q112 0 178.5 50.5t100 170.5t34.5 328q-21 8 -55.5 20t-123 32.5t-153.5 20.5q-131 0 -203.5 -85t-72.5 -218z" />
<glyph unicode="&#xf1;" horiz-adv-x="1099" d="M147 0h154v831q16 9 43.5 21.5t104 33.5t141.5 21q57 0 96 -13.5t64 -38.5t38 -72t18 -103t5 -143v-537h152v541q0 115 -9 193.5t-31.5 140.5t-62.5 97.5t-99 53.5t-145 18q-68 0 -147 -23t-125 -46l-45 -23v72h-152v-1024zM244 1366l11.5 11.5t29.5 26t43.5 32.5 t49.5 25.5t52 11.5q44 0 150.5 -47.5t134.5 -47.5q19 0 54.5 19.5t60.5 38.5l26 20l35 -98q-11 -12 -28.5 -29.5t-64.5 -46.5t-83 -29q-43 0 -148.5 48.5t-136.5 48.5q-22 0 -59 -20.5t-63 -41.5l-27 -20z" />
<glyph unicode="&#xf2;" horiz-adv-x="1081" d="M102 524q0 270 100.5 395t338.5 125q239 0 338.5 -124.5t99.5 -395.5q0 -146 -20 -243.5t-69.5 -167.5t-134.5 -101.5t-214 -31.5q-128 0 -213.5 31.5t-135 101.5t-70 168t-20.5 243zM260 524q0 -94 6 -155.5t23 -114t48.5 -81.5t81 -44.5t122.5 -15.5q61 0 105.5 9.5 t75.5 32.5t50.5 53.5t30 80t14.5 103.5t4 132q0 217 -59 302t-221 85q-161 0 -221 -85t-60 -302zM289 1384l53 132l442 -201l-43 -105z" />
<glyph unicode="&#xf3;" horiz-adv-x="1081" d="M102 524q0 -145 20.5 -243t70 -168t135 -101.5t213.5 -31.5q129 0 214 31.5t134.5 101.5t69.5 167.5t20 243.5q0 271 -99.5 395.5t-338.5 124.5q-238 0 -338.5 -125t-100.5 -395zM260 524q0 217 60 302t221 85q162 0 221 -85t59 -302q0 -78 -4 -132t-14.5 -103.5t-30 -80 t-50.5 -53.5t-75.5 -32.5t-105.5 -9.5q-73 0 -122.5 15.5t-81 44.5t-48.5 81.5t-23 114t-6 155.5zM315 1315l443 201l53 -132l-453 -174z" />
<glyph unicode="&#xf4;" horiz-adv-x="1081" d="M102 524q0 -145 20.5 -243t70 -168t135 -101.5t213.5 -31.5q129 0 214 31.5t134.5 101.5t69.5 167.5t20 243.5q0 271 -99.5 395.5t-338.5 124.5q-238 0 -338.5 -125t-100.5 -395zM231 1212l252 287h105l254 -287h-154l-149 179l-154 -179h-154zM260 524q0 217 60 302 t221 85q162 0 221 -85t59 -302q0 -78 -4 -132t-14.5 -103.5t-30 -80t-50.5 -53.5t-75.5 -32.5t-105.5 -9.5q-73 0 -122.5 15.5t-81 44.5t-48.5 81.5t-23 114t-6 155.5z" />
<glyph unicode="&#xf5;" horiz-adv-x="1081" d="M102 524q0 -145 20.5 -243t70 -168t135 -101.5t213.5 -31.5q129 0 214 31.5t134.5 101.5t69.5 167.5t20 243.5q0 271 -99.5 395.5t-338.5 124.5q-238 0 -338.5 -125t-100.5 -395zM215 1366l11.5 11.5t29.5 26t43.5 32.5t49.5 25.5t52 11.5q44 0 150.5 -47.5t134.5 -47.5 q19 0 54.5 19.5t61.5 38.5l25 20l35 -98q-11 -12 -28.5 -29.5t-64.5 -46.5t-83 -29q-43 0 -148.5 48.5t-136.5 48.5q-22 0 -59 -20.5t-64 -41.5l-26 -20zM260 524q0 217 60 302t221 85q162 0 221 -85t59 -302q0 -78 -4 -132t-14.5 -103.5t-30 -80t-50.5 -53.5t-75.5 -32.5 t-105.5 -9.5q-73 0 -122.5 15.5t-81 44.5t-48.5 81.5t-23 114t-6 155.5z" />
<glyph unicode="&#xf6;" horiz-adv-x="1081" d="M102 524q0 -145 20.5 -243t70 -168t135 -101.5t213.5 -31.5q129 0 214 31.5t134.5 101.5t69.5 167.5t20 243.5q0 271 -99.5 395.5t-338.5 124.5q-238 0 -338.5 -125t-100.5 -395zM256 1272v184h147v-184h-147zM260 524q0 217 60 302t221 85q162 0 221 -85t59 -302 q0 -78 -4 -132t-14.5 -103.5t-30 -80t-50.5 -53.5t-75.5 -32.5t-105.5 -9.5q-73 0 -122.5 15.5t-81 44.5t-48.5 81.5t-23 114t-6 155.5zM666 1272v184h149v-184h-149z" />
<glyph unicode="&#xf7;" d="M246 575v150h116v98h422v-98h115v-150h-653zM496 61v207h153v-207h-153z" />
<glyph unicode="&#xf8;" horiz-adv-x="1081" d="M102 524q0 270 100.5 395t338.5 125q79 0 151 -16l88 213l103 -39l-88 -213q97 -54 140.5 -168t43.5 -297q0 -146 -20 -243.5t-69.5 -167.5t-134.5 -101.5t-214 -31.5q-84 0 -156 16l-88 -225l-102 36l90 224q-101 55 -142 173.5t-41 319.5zM260 524q0 -149 17.5 -233 t68.5 -127l297 735q-43 12 -102 12q-161 0 -221 -85t-60 -302zM436 123q36 -10 105 -10q61 0 105.5 9.5t75.5 32.5t50.5 53.5t30 80t14.5 103.5t4 132q0 129 -20 208.5t-66 121.5z" />
<glyph unicode="&#xf9;" horiz-adv-x="1087" d="M137 489v535h154v-532q0 -76 2.5 -126.5t11 -96t23 -71.5t38.5 -46t58 -27.5t82 -7.5q68 0 138 19t106 38l36 19v831h154v-1024h-154v72q-17 -10 -46.5 -25.5t-109.5 -41t-147 -25.5q-87 0 -146.5 17.5t-99 52.5t-61.5 98t-30.5 142.5t-8.5 198.5zM233 1384l54 132 l442 -201l-43 -105z" />
<glyph unicode="&#xfa;" horiz-adv-x="1087" d="M137 489q0 -119 8.5 -198.5t30.5 -142.5t61.5 -98t99 -52.5t146.5 -17.5q67 0 142.5 23t118.5 46l42 23v-72h154v1024h-154v-831q-5 -3 -14.5 -8t-40 -18.5t-61.5 -23.5t-76 -18t-88 -8q-48 0 -82 7.5t-58 27.5t-38.5 46t-23 71.5t-11 96t-2.5 126.5v532h-154v-535z M317 1315l443 201l53 -132l-453 -174z" />
<glyph unicode="&#xfb;" horiz-adv-x="1087" d="M137 489q0 -119 8.5 -198.5t30.5 -142.5t61.5 -98t99 -52.5t146.5 -17.5q67 0 142.5 23t118.5 46l42 23v-72h154v1024h-154v-831q-5 -3 -14.5 -8t-40 -18.5t-61.5 -23.5t-76 -18t-88 -8q-48 0 -82 7.5t-58 27.5t-38.5 46t-23 71.5t-11 96t-2.5 126.5v532h-154v-535z M215 1212l252 287h104l254 -287h-153l-150 179l-153 -179h-154z" />
<glyph unicode="&#xfc;" horiz-adv-x="1087" d="M137 489q0 -119 8.5 -198.5t30.5 -142.5t61.5 -98t99 -52.5t146.5 -17.5q67 0 142.5 23t118.5 46l42 23v-72h154v1024h-154v-831q-5 -3 -14.5 -8t-40 -18.5t-61.5 -23.5t-76 -18t-88 -8q-48 0 -82 7.5t-58 27.5t-38.5 46t-23 71.5t-11 96t-2.5 126.5v532h-154v-535z M270 1272v184h148v-184h-148zM680 1272v184h149v-184h-149z" />
<glyph unicode="&#xfd;" horiz-adv-x="989" d="M51 1024h154l256 -891h67l258 891h154l-426 -1479h-154l134 455h-152zM315 1315l443 201l53 -132l-453 -174z" />
<glyph unicode="&#xfe;" horiz-adv-x="1079" d="M147 -455v1925h154v-497q17 8 46.5 20t109 31.5t143.5 19.5q207 0 291 -117.5t84 -396.5q0 -307 -101.5 -428.5t-365.5 -121.5q-36 0 -87.5 3.5t-85.5 6.5l-34 4v-449h-154zM301 125q133 -12 199 -12q100 0 163 23.5t97 78.5t45.5 126t11.5 185q0 205 -50.5 293 t-180.5 88q-63 0 -134 -14.5t-111 -29.5l-40 -15v-723z" />
<glyph unicode="&#xff;" horiz-adv-x="989" d="M51 1024h154l256 -891h67l258 891h154l-426 -1479h-154l134 455h-152zM213 1272v184h147v-184h-147zM623 1272v184h149v-184h-149z" />
<glyph unicode="&#x152;" horiz-adv-x="1894" d="M117 707q0 193 26 326t87.5 228.5t167 140t261.5 44.5t289 -21h850v-151h-694v-469h571v-152h-571v-501h694v-154h-846q-189 -18 -293 -18q-130 0 -224 30.5t-155 86.5t-97.5 148t-51 201.5t-14.5 260.5zM281 709q0 -126 9.5 -213t34.5 -160t70 -115.5t115 -65t170 -22.5 q105 0 268 14v1127q-216 18 -272 18q-96 0 -164 -22.5t-113 -65t-71 -115.5t-36.5 -163t-10.5 -217z" />
<glyph unicode="&#x153;" horiz-adv-x="1755" d="M102 526q0 270 101.5 394t339.5 124q139 0 226.5 -50.5t133.5 -164.5q50 116 137.5 165.5t210.5 49.5q207 0 309.5 -115.5t102.5 -363.5l-8 -119h-676q0 -167 61 -247t207 -80q68 0 162 4.5t153 8.5l60 5l4 -125q-231 -32 -397 -32q-127 0 -207.5 45t-124.5 141 q-44 -99 -128 -142.5t-226 -43.5q-129 0 -214.5 31.5t-135.5 101.5t-70.5 168.5t-20.5 244.5zM260 526q0 -92 6.5 -153.5t24 -113.5t49.5 -81.5t81.5 -45t121.5 -15.5t122 17t80.5 47t47.5 83t22.5 111.5t5.5 146.5q0 204 -64.5 293.5t-213.5 89.5q-161 0 -222 -83t-61 -296 zM977 571h532q0 182 -60.5 259t-197.5 77q-135 0 -204.5 -81t-69.5 -255z" />
<glyph unicode="&#x178;" horiz-adv-x="1101" d="M20 1417h179l352 -663l352 663h178l-450 -821v-596h-158v596zM266 1655v184h150v-184h-150zM684 1655v184h147v-184h-147z" />
<glyph unicode="&#x2c6;" horiz-adv-x="483" d="M-39 1212l252 287h104l254 -287h-153l-150 179l-153 -179h-154z" />
<glyph unicode="&#x2dc;" horiz-adv-x="483" d="M-61 1366l11.5 11.5t29.5 26t43.5 32.5t49.5 25.5t52 11.5q44 0 150.5 -47.5t134.5 -47.5q19 0 54.5 19.5t61.5 38.5l25 20l35 -98q-11 -12 -28.5 -29.5t-64.5 -46.5t-83 -29q-43 0 -148.5 48.5t-136.5 48.5q-22 0 -59.5 -20.5t-63.5 -41.5l-27 -20z" />
<glyph unicode="&#x2000;" horiz-adv-x="953" />
<glyph unicode="&#x2001;" horiz-adv-x="1907" />
<glyph unicode="&#x2002;" horiz-adv-x="953" />
<glyph unicode="&#x2003;" horiz-adv-x="1907" />
<glyph unicode="&#x2004;" horiz-adv-x="635" />
<glyph unicode="&#x2005;" horiz-adv-x="476" />
<glyph unicode="&#x2006;" horiz-adv-x="317" />
<glyph unicode="&#x2007;" horiz-adv-x="317" />
<glyph unicode="&#x2008;" horiz-adv-x="238" />
<glyph unicode="&#x2009;" horiz-adv-x="381" />
<glyph unicode="&#x200a;" horiz-adv-x="105" />
<glyph unicode="&#x2010;" horiz-adv-x="897" d="M139 492v143h621v-143h-621z" />
<glyph unicode="&#x2011;" horiz-adv-x="897" d="M139 492v143h621v-143h-621z" />
<glyph unicode="&#x2012;" horiz-adv-x="897" d="M139 492v143h621v-143h-621z" />
<glyph unicode="&#x2013;" horiz-adv-x="1292" d="M135 481v135h1024v-135h-1024z" />
<glyph unicode="&#x2014;" horiz-adv-x="2316" d="M135 481v135h2048v-135h-2048z" />
<glyph unicode="&#x2018;" horiz-adv-x="448" d="M104 1001l132 449h120l-90 -449h-162z" />
<glyph unicode="&#x2019;" horiz-adv-x="442" d="M109 1001l90 449h161l-131 -449h-120z" />
<glyph unicode="&#x201a;" horiz-adv-x="446" d="M139 -43l27 88h24l-18 -88h-33z" />
<glyph unicode="&#x201c;" horiz-adv-x="763" d="M104 1001l132 449h120l-90 -449h-162zM418 1001l131 449h121l-90 -449h-162z" />
<glyph unicode="&#x201d;" horiz-adv-x="772" d="M109 1004l90 448h161l-131 -448h-120zM436 1004l90 448h162l-131 -448h-121z" />
<glyph unicode="&#x201e;" horiz-adv-x="735" d="M45 -219l131 448h121l-90 -448h-162zM356 -219l131 448h121l-90 -448h-162z" />
<glyph unicode="&#x2022;" horiz-adv-x="968" d="M227 217v586h512v-586h-512z" />
<glyph unicode="&#x2026;" horiz-adv-x="1484" d="M137 0v233h168v-233h-168zM659 0v233h166v-233h-166zM1180 0v233h168v-233h-168z" />
<glyph unicode="&#x202f;" horiz-adv-x="381" />
<glyph unicode="&#x2039;" horiz-adv-x="616" d="M92 446v123l387 293v-157l-254 -193l254 -215v-160z" />
<glyph unicode="&#x203a;" horiz-adv-x="616" d="M137 145v160l254 215l-254 193v157l387 -292v-123z" />
<glyph unicode="&#x205f;" horiz-adv-x="476" />
<glyph unicode="&#x20ac;" d="M61 455v125h123q-2 29 -2 92q0 69 2 102h-123v125h132q12 121 42 206t86.5 146.5t144.5 91t212 29.5q168 0 373 -43l-7 -127q-193 35 -350 35q-172 0 -248.5 -80t-95.5 -258h586v-125h-594q-2 -33 -2 -102v-92h596v-125h-588q10 -89 31 -150t61.5 -105t103 -64.5 t152.5 -20.5q159 0 348 37l7 -129q-206 -43 -373 -43q-124 0 -212.5 30.5t-145 92.5t-87 147.5t-43.5 204.5h-129z" />
<glyph unicode="&#x2122;" horiz-adv-x="1386" d="M186 1188v102h410v-102h-135v-508h-113v508h-162zM659 678v612h148l135 -426l145 426h144v-612h-107v459l-135 -428h-88l-135 428v-459h-107z" />
<glyph unicode="&#xe000;" horiz-adv-x="1024" d="M0 0v1024h1024v-1024h-1024z" />
</font>
</defs>
</svg>
