<svg xmlns="http://www.w3.org/2000/svg" viewBox="0 0 400 400"><path d="M226.153 88.31 355.38 301.446c8.59 14.168 4.069 32.617-10.1 41.207A30 30 0 0 1 329.728 347H71.273c-16.569 0-30-13.431-30-30a30 30 0 0 1 4.347-15.554L174.847 88.31c8.59-14.168 27.039-18.69 41.207-10.1a30 30 0 0 1 10.1 10.1zM184.37 153l2.53 102.024h26.56L215.99 153h-31.62zm15.81 154.723c9.59 0 17.18-7.273 17.18-16.548 0-9.275-7.59-16.547-17.18-16.547-9.591 0-17.18 7.272-17.18 16.547s7.589 16.548 17.18 16.548z" stroke="#979797" fill="#95588A"/></svg>