<svg width="96" height="68" fill="none" xmlns="http://www.w3.org/2000/svg"><path fill="#fff" d="M0 0h96v68H0z"/><g clip-path="url(#a)"><path d="M0 0h96v68H0V0z" fill="#fff"/><g clip-path="url(#b)"><path d="M96 63.366H3v.224h93v-.224z" fill="#7F54B3"/><path d="M90.549 29.889h-31.26v33.523h31.26V29.89z" fill="#F7EDF7"/><path d="M60.736 46.595V31.122h1.78l8.732.28-.39 2.299v12.894H60.737zm16.909 6.839h-5.451V63.3h5.45v-9.866z" fill="#DCDCDE"/><path d="M35.595 45.361h-22.36v18.163h22.36V45.361z" fill="#F7EDF7"/><path d="M25.137 58.255h-3.782v5.157h3.782v-5.157z" fill="#DCDCDE"/><path d="M67.4 35.041c-.843 1.486-6.78-.99-6.78-.99l-11.344-4.605-2.742-2.046-1.747-1.303 3.88-1.095.109.053 2.704 1.3 10.37 6.243s7.75-1.432 5.55 2.443z" fill="#A0616A"/><path d="M38.807 17.784s-1.46.591-1.629 2.25c-.169 1.658-.183 11.012-.183 11.012s3.814-2.213 5.865-2.258c2.05-.046 6.815-3.532 6.815-3.532s-8.976-8.17-10.868-7.472z" fill="#D0CDE1"/><path opacity=".1" d="M38.807 17.784s-1.46.591-1.629 2.25c-.169 1.658-.183 11.012-.183 11.012s3.814-2.213 5.865-2.258c2.05-.046 6.815-3.532 6.815-3.532s-8.976-8.17-10.868-7.472z" fill="#000"/><path d="m53.115 48.388-3.114.225s-.096 5.89-.501 7.4l5.34 4.26-1.113-3.588-.612-8.297z" fill="#A0616A"/><path d="M55.142 60.395c-.221-.079-.191-.122-.191-.122v-.224l-5.442-4.402c-.053.197-.112.326-.176.365-.2.121-.485.516-.769.973a4.393 4.393 0 0 0-.455 3.624l-.222 3.812h.89l.222-3.476h1.113s1.891 2.467 2.447 3.364c.556.897 3.004 1.121 5.451-.56 2.068-1.422-1.662-2.923-2.868-3.354z" fill="#2F2E41"/><path d="M25.75 35.102s-5.452 6.615-.223 10.651c2.3 1.776 4.321 5.137 5.863 8.344a19.152 19.152 0 0 0 5.114 6.534 18.967 18.967 0 0 0 7.378 3.734S62.46 42.502 56.12 36.335c-6.341-6.166-23.472-.785-23.472-.785l-6.898-.448z" fill="#2F2E41"/><path d="M41.182 29.524c.025 1.477-.256 3.098-1.527 3.448-2.447.673-2.67.336-2.67.336s-.445.785-.334 1.682c.112.897-1.056.168-1.056.168s-11.848 1.514-11.403-.168c.445-1.682 4.672-7.512 4.672-7.512s6.897-9.754 8.344-9.418c.049.011.099.025.15.04 1.474.432 3.973 2.342 4.188 3.1.223.784-.667 5.718-.667 5.718.18.857.282 1.73.303 2.606z" fill="#D0CDE1"/><path d="M58.678 43.287c-1.447.897-2.336-5.494-2.336-5.494l-10.457-6.39-2.379-2.466-1.515-1.571 4.005-.448.099.069 2.46 1.724 9.233 7.849s2.336 5.83.89 6.727z" fill="#A0616A"/><path opacity=".1" d="M40.879 26.917c.18.858.282 1.73.303 2.607-.777.143-1.48.194-1.972.084-2.002-.448-6.23.785-6.23.785s2.225-9.082 2.781-10.651a2.747 2.747 0 0 1 1.598-1.643c1.473.433 3.972 2.342 4.187 3.1.223.785-.667 5.718-.667 5.718z" fill="#000"/><path d="M40.828 16.68c-2.403-1.15-3.428-4.052-2.29-6.481 1.137-2.43 4.007-3.466 6.41-2.316 2.403 1.15 3.428 4.052 2.29 6.482-1.137 2.43-4.007 3.466-6.41 2.315z" fill="#2F2E41"/><path opacity=".1" d="M46.663 27.814s-1.466.604-3.157 1.123l-1.515-1.571 4.005-.448.099.069c.358.515.568.827.568.827z" fill="#000"/><path d="m44.065 15.589-1.77 7.578-4.269-3.989s2.186-3.058 2.186-3.855c0-.798 3.853.266 3.853.266z" fill="#A0616A"/><path d="M38.209 17.387s-1.558.225-2.114 1.794c-.556 1.57-2.781 10.652-2.781 10.652s4.227-1.234 6.23-.785c2.002.448 7.453-1.794 7.453-1.794s-6.786-10.09-8.788-9.867z" fill="#D0CDE1"/><path d="M42.025 17.743c-1.857-.889-2.65-3.131-1.77-5.008.88-1.878 3.097-2.679 4.954-1.79 1.856.889 2.649 3.131 1.77 5.009-.88 1.877-3.097 2.678-4.954 1.79z" fill="#9F616A"/><path d="M39.829 15.713c-1.748-.837-2.494-2.947-1.666-4.714a3.484 3.484 0 0 1 4.662-1.684c1.747.836 2.493 2.947 1.666 4.713a3.484 3.484 0 0 1-4.662 1.685z" fill="#2F2E41"/><path d="M37.569 9.31c-1.614-.773-2.303-2.723-1.539-4.355A3.219 3.219 0 0 1 40.337 3.4c1.614.773 2.303 2.723 1.539 4.355a3.219 3.219 0 0 1-4.307 1.556z" fill="#2F2E41"/><path d="M35.392 7.67a3.294 3.294 0 0 0 2.476 1.675 3.22 3.22 0 0 0 1.517-.182 3.19 3.19 0 0 0 1.257-.86 3.19 3.19 0 0 1-2.153 1.44 3.25 3.25 0 0 1-1.328-.047 3.274 3.274 0 0 1-2.08-1.587 3.28 3.28 0 0 1-.401-1.274 3.24 3.24 0 0 1 .14-1.323c.139-.425.363-.816.66-1.149A3.222 3.222 0 0 0 34.985 6a3.275 3.275 0 0 0 .408 1.67zm8.142 7.369c-1.53-.732-2.308-2.31-1.739-3.525.569-1.215 2.27-1.606 3.799-.874 1.529.732 2.307 2.31 1.738 3.525-.569 1.215-2.27 1.606-3.798.874z" fill="#2F2E41"/><path d="M43.752 16.123c-.327-.157-.383-.732-.125-1.284.259-.552.734-.873 1.062-.716.328.157.383.732.125 1.284-.259.552-.734.872-1.062.716z" fill="#A0616A"/><path opacity=".5" d="M70.904 32H61v.576h9.904V32zm0 2.591H61v.576h9.904v-.576zm0 2.591h-5.598v.576h5.598v-.576zm-7.177-.864H61v2.303h2.727v-2.303zm7.177 9.356H65.02v2.303h5.885v-2.303zm0-5.901H61v.575h9.904v-.575zm0 2.591H61v.575h9.904v-.575z" fill="#9A69C7"/></g></g><defs><clipPath id="a"><path d="M0 0h96v68H0V0z" fill="#fff"/></clipPath><clipPath id="b"><path fill="#fff" d="M3-4h88v86H3z"/></clipPath></defs></svg>