<svg viewBox="0 0 998 810" xmlns="http://www.w3.org/2000/svg"><path clip-rule="evenodd" d="M160.7 331.2h199.1c12.6 0 22.8 10.2 22.8 22.8v76c0 12.6-10.2 22.8-22.8 22.8h-71.4l9.8 24-43.1-24h-94.3c-12.6 0-22.8-10.2-22.8-22.8v-76c-.1-12.5 10.1-22.8 22.7-22.8z" fill="#7f54b3" fill-rule="evenodd"/><path d="M150.2 351.9c1.4-1.9 3.5-2.9 6.3-3.1 5.1-.4 8 2 8.7 7.2 3.1 20.9 6.5 38.6 10.1 53.1l21.9-41.7c2-3.8 4.5-5.8 7.5-6 4.4-.3 7.1 2.5 8.2 8.4 2.5 13.3 5.7 24.6 9.5 34.2 2.6-25.4 7-43.7 13.2-55 1.5-2.8 3.7-4.2 6.6-4.4 2.3-.2 4.4.5 6.3 2s2.9 3.4 3.1 5.7c.1 1.8-.2 3.3-1 4.8-3.9 7.2-7.1 19.3-9.7 36.1-2.5 16.3-3.4 29-2.8 38.1.2 2.5-.2 4.7-1.2 6.6-1.2 2.2-3 3.4-5.3 3.6-2.6.2-5.3-1-7.9-3.7-9.3-9.5-16.7-23.7-22.1-42.6-6.5 12.8-11.3 22.4-14.4 28.8-5.9 11.3-10.9 17.1-15.1 17.4-2.7.2-5-2.1-7-6.9-5.1-13.1-10.6-38.4-16.5-75.9-.3-2.6.2-4.9 1.6-6.7zm215 15.7c-3.6-6.3-8.9-10.1-16-11.6-1.9-.4-3.7-.6-5.4-.6-9.6 0-17.4 5-23.5 15-5.2 8.5-7.8 17.9-7.8 28.2 0 7.7 1.6 14.3 4.8 19.8 3.6 6.3 8.9 10.1 16 11.6 1.9.4 3.7.6 5.4.6 9.7 0 17.5-5 23.5-15 5.2-8.6 7.8-18 7.8-28.3 0-7.8-1.6-14.3-4.8-19.7zm-12.6 27.7c-1.4 6.6-3.9 11.5-7.6 14.8-2.9 2.6-5.6 3.7-8.1 3.2-2.4-.5-4.4-2.6-5.9-6.5-1.2-3.1-1.8-6.2-1.8-9.1 0-2.5.2-5 .7-7.3.9-4.1 2.6-8.1 5.3-11.9 3.3-4.9 6.8-6.9 10.4-6.2 2.4.5 4.4 2.6 5.9 6.5 1.2 3.1 1.8 6.2 1.8 9.1 0 2.6-.3 5.1-.7 7.4zm-50.1-27.7c-3.6-6.3-9-10.1-16-11.6-1.9-.4-3.7-.6-5.4-.6-9.6 0-17.4 5-23.5 15-5.2 8.5-7.8 17.9-7.8 28.2 0 7.7 1.6 14.3 4.8 19.8 3.6 6.3 8.9 10.1 16 11.6 1.9.4 3.7.6 5.4.6 9.7 0 17.5-5 23.5-15 5.2-8.6 7.8-18 7.8-28.3 0-7.8-1.6-14.3-4.8-19.7zm-12.6 27.7c-1.4 6.6-3.9 11.5-7.6 14.8-2.9 2.6-5.6 3.7-8.1 3.2-2.4-.5-4.4-2.6-5.9-6.5-1.2-3.1-1.8-6.2-1.8-9.1 0-2.5.2-5 .7-7.3.9-4.1 2.6-8.1 5.3-11.9 3.3-4.9 6.8-6.9 10.4-6.2 2.4.5 4.4 2.6 5.9 6.5 1.2 3.1 1.8 6.2 1.8 9.1 0 2.6-.2 5.1-.7 7.4z" fill="#fff"/><path d="M407.9 366.7c-6.7 6.6-10 15-10 25.2 0 10.9 3.3 19.8 9.9 26.5s15.2 10.1 25.9 10.1c3.1 0 6.6-.5 10.4-1.6v-16.2c-3.5 1-6.5 1.5-9.1 1.5-5.3 0-9.5-1.8-12.7-5.3-3.2-3.6-4.8-8.4-4.8-14.5 0-5.7 1.6-10.4 4.7-14 3.2-3.7 7.1-5.5 11.9-5.5 3.1 0 6.4.5 10 1.5v-16.2c-3.3-.9-7-1.3-10.9-1.3-10.2-.1-18.6 3.2-25.3 9.8zm69.4-9.9c-9.2 0-16.4 3.1-21.6 9.2s-7.7 14.7-7.7 25.7c0 11.9 2.6 21 7.7 27.3s12.6 9.5 22.4 9.5c9.5 0 16.8-3.2 21.9-9.5s7.7-15.2 7.7-26.6-2.6-20.2-7.8-26.4c-5.3-6.1-12.8-9.2-22.6-9.2zm7.9 52c-1.8 2.8-4.5 4.2-7.9 4.2-3.2 0-5.6-1.4-7.3-4.2s-2.5-8.4-2.5-16.9c0-13.1 3.3-19.6 10-19.6 7 0 10.6 6.6 10.6 19.9-.1 8.2-1.1 13.8-2.9 16.6zm71.9-50.1l-3.6 15.3c-.9 3.9-1.8 7.9-2.6 12l-2 10.6c-1.9-10.6-4.5-23.2-7.8-37.9h-23.2l-8.7 68.1h17.4l4.7-46.9 11.9 46.9h12.4L567 380l4.9 46.8h18.2l-9.2-68.1zm83.3 0l-3.6 15.3c-.9 3.9-1.8 7.9-2.6 12l-2 10.6c-1.9-10.6-4.5-23.2-7.8-37.9h-23.2l-8.7 68.1h17.4l4.7-46.9 11.9 46.9h12.4l11.3-46.8 4.9 46.8h18.2l-9.2-68.1zm56.6 41.2h16.3v-14.1H697v-12.5h18.8v-14.5h-37.2v68.1h37.3v-14.5H697zm70.7-10.8c1.9-3.1 2.9-6.3 2.9-9.6 0-6.4-2.5-11.5-7.5-15.2s-11.9-5.6-20.5-5.6h-21.4v68.1h18.4v-31h.3l14.9 31h19.4l-14.7-30.7c3.5-1.6 6.3-3.9 8.2-7zm-28.2-1.1v-16.2c4.4.1 7.5.8 9.4 2.2s2.8 3.6 2.8 6.8c0 4.7-4.1 7.1-12.2 7.2zm41.9-21.3c-6.7 6.6-10 15-10 25.2 0 10.9 3.3 19.8 9.9 26.5s15.2 10.1 25.9 10.1c3.1 0 6.6-.5 10.4-1.6v-16.2c-3.5 1-6.5 1.5-9.1 1.5-5.3 0-9.5-1.8-12.7-5.3-3.2-3.6-4.8-8.4-4.8-14.5 0-5.7 1.6-10.4 4.7-14 3.2-3.7 7.1-5.5 11.9-5.5 3.1 0 6.4.5 10 1.5v-16.2c-3.3-.9-7-1.3-10.9-1.3-10.1-.1-18.6 3.2-25.3 9.8zm59.7 45.5v-12.4h16.3v-14.1h-16.3v-12.5H860v-14.5h-37.2v68.1h37.3v-14.5h-19z"/></svg>