<?xml version="1.0" encoding="UTF-8"?>
<svg width="134px" height="26px" viewBox="0 0 134 26" version="1.1" xmlns="http://www.w3.org/2000/svg" xmlns:xlink="http://www.w3.org/1999/xlink">
    <title>Glamoré</title>
    <g id="页面-1" stroke="none" stroke-width="1" fill="none" fill-rule="evenodd">
        <g id="Glamoré." fill="#000000" fill-rule="nonzero">
            <path d="M12.733477,1 C14.1582854,1 15.5591475,1.1953125 16.9360632,1.5859375 C18.3129789,1.9765625 19.1032088,2.171875 19.3067529,2.171875 C19.8335728,2.171875 20.2077347,2.07125947 20.4292385,1.87002841 C20.6507423,1.66879735 20.8393199,1.37878788 20.9949713,1 L21.8031609,1 L22.0905172,8.65269886 L21.246408,8.65269886 C20.4920977,6.8889678 19.713841,5.57504735 18.9116379,4.7109375 C17.4628831,3.19578598 15.5771073,2.43821023 13.2543103,2.43821023 C10.8955939,2.43821023 8.82124042,3.32303504 7.03125,5.09268466 C5.24125958,6.86233428 4.34626437,9.77722538 4.34626437,13.837358 C4.34626437,17.1872633 5.23826628,19.803267 7.02227011,21.6853693 C8.80627395,23.5674716 11.0093391,24.5085227 13.6314655,24.5085227 C14.0744732,24.5085227 14.5953065,24.4670928 15.1939655,24.384233 C15.7926245,24.3013731 16.3613506,24.1711648 16.9001437,23.993608 C17.7741858,23.709517 18.3189655,23.4638968 18.5344828,23.2567472 C18.75,23.0495975 18.8577586,22.7447917 18.8577586,22.3423295 L18.8577586,16.5362216 C18.8577586,15.1394413 18.6572079,14.2694129 18.2561063,13.9261364 C17.8550048,13.5828598 16.9779693,13.3697917 15.625,13.2869318 L15.625,12.6122159 L25,12.6122159 L25,13.2869318 C24.0900383,13.3461174 23.4853927,13.4940814 23.1860632,13.7308239 C22.6831897,14.1096117 22.4317529,14.8908617 22.4317529,16.0745739 L22.4317529,23.2301136 C22.4317529,23.65625 21.3751197,24.2244318 19.2618534,24.9346591 C17.1485872,25.6448864 15.1161398,26 13.1645115,26 C9.57255747,26 6.54334291,24.9642519 4.07686782,22.8927557 C1.35895594,20.6081913 0,17.5423769 0,13.6953125 C0,10.3098958 1.0835728,7.40980114 3.25071839,4.99502841 C5.63338123,2.33167614 8.79430077,1 12.733477,1 Z" id="路径"></path>
            <path d="M26.0920245,24.5014245 C27.2331288,24.3945869 28.006135,24.1720085 28.4110429,23.8336895 C28.8159509,23.4953704 29.0184049,22.8335708 29.0184049,21.8482906 L29.0184049,4.45156695 C29.0184049,3.66809117 28.9509202,3.12796771 28.8159509,2.83119658 C28.5705521,2.33262108 28.0736196,2.08333333 27.3251534,2.08333333 C27.1533742,2.08333333 26.9662577,2.1011396 26.7638037,2.13675214 C26.5613497,2.17236467 26.3067485,2.22578348 26,2.29700855 L26,1.70940171 C27.6564417,1.28205128 29.6503067,0.712250712 31.9815951,0 C32.0674847,0 32.1196319,0.0356125356 32.1380368,0.106837607 C32.1564417,0.178062678 32.1656442,0.332383666 32.1656442,0.56980057 L32.1656442,21.9195157 C32.1656442,22.9522792 32.3496933,23.6200142 32.7177914,23.9227208 C33.0858896,24.2254274 33.8466258,24.4183286 35,24.5014245 L35,25 L26.0920245,25 L26.0920245,24.5014245 Z" id="路径"></path>
            <path d="M45.253012,14.9553479 C43.8674699,15.4025614 42.7228916,15.8968501 41.8192771,16.4382139 C40.0843373,17.4856352 39.2168675,18.6742818 39.2168675,20.0041537 C39.2168675,21.0751125 39.5783133,21.8636206 40.3012048,22.3696781 C40.7710843,22.6992039 41.2951807,22.8639668 41.873494,22.8639668 C42.6686747,22.8639668 43.4307229,22.6462444 44.1596386,22.2107996 C44.8885542,21.7753548 45.253012,21.2222222 45.253012,20.5514019 L45.253012,14.9553479 Z M36,21.2222222 C36,19.5157494 36.873494,18.0917272 38.6204819,16.9501558 C39.7289157,16.2440291 41.939759,15.2848737 45.253012,14.0726895 L45.253012,12.5721703 C45.253012,11.3717549 45.1325301,10.5361717 44.8915663,10.0654206 C44.4819277,9.27691243 43.6325301,8.88265836 42.3433735,8.88265836 C41.7289157,8.88265836 41.1445783,9.03565247 40.5903614,9.34164071 C40.0361446,9.65939772 39.7590361,10.0948425 39.7590361,10.6479751 C39.7590361,10.7892004 39.7891566,11.0275182 39.8493976,11.3629283 C39.9096386,11.6983385 39.939759,11.9131187 39.939759,12.007269 C39.939759,12.6663205 39.7168675,13.1253029 39.2710843,13.384216 C39.0180723,13.5372101 38.7168675,13.6137072 38.3674699,13.6137072 C37.8253012,13.6137072 37.4096386,13.4401177 37.1204819,13.0929387 C36.8313253,12.7457598 36.686747,12.3603323 36.686747,11.9366563 C36.686747,11.1128418 37.2078313,10.2507788 38.25,9.35046729 C39.2921687,8.45015576 40.8192771,8 42.8313253,8 C45.1686747,8 46.753012,8.74143302 47.5843373,10.2242991 C48.0301205,11.0363448 48.253012,12.219107 48.253012,13.7725857 L48.253012,20.8515057 C48.253012,21.5340948 48.3012048,22.004846 48.3975904,22.2637591 C48.5542169,22.7227414 48.8795181,22.9522326 49.373494,22.9522326 C49.6506024,22.9522326 49.8795181,22.9110419 50.060241,22.8286604 C50.2409639,22.746279 50.5542169,22.5462098 51,22.2284528 L51,23.1464174 C50.6144578,23.6053998 50.1987952,23.9820007 49.753012,24.2762201 C49.0783133,24.7234337 48.3915663,24.9470405 47.6927711,24.9470405 C46.873494,24.9470405 46.2801205,24.6881274 45.9126506,24.1703011 C45.5451807,23.6524749 45.3433735,23.0346141 45.3072289,22.3167186 C44.3915663,23.0934579 43.6084337,23.6701281 42.9578313,24.046729 C41.8614458,24.682243 40.8192771,25 39.8313253,25 C38.7951807,25 37.8975904,24.6439945 37.1385542,23.9319834 C36.3795181,23.2199723 36,22.3167186 36,21.2222222 Z" id="形状"></path>
            <path d="M52,24.5555556 C52.9363344,24.4757835 53.5605573,24.3276353 53.8726688,24.1111111 C54.3528403,23.7806268 54.592926,23.1196581 54.592926,22.1282051 L54.592926,13.2905983 C54.592926,12.4472934 54.4758842,11.8945869 54.2418006,11.6324786 C54.007717,11.3703704 53.6205788,11.2393162 53.0803859,11.2393162 C52.8282958,11.2393162 52.6392283,11.2507123 52.5131833,11.2735043 C52.3871383,11.2962963 52.2400857,11.3361823 52.0720257,11.3931624 L52.0720257,10.7948718 L53.3684887,10.3846154 C53.8366559,10.2364672 54.6049303,9.96866097 55.6733119,9.58119658 C56.7416935,9.19373219 57.305895,9 57.3659164,9 C57.4259378,9 57.4619507,9.02849003 57.473955,9.08547009 C57.4859593,9.14245014 57.4919614,9.25071225 57.4919614,9.41025641 L57.4919614,11.7179487 C58.6803859,10.6923077 59.7067524,9.98290598 60.5710611,9.58974359 C61.4353698,9.1965812 62.323687,9 63.2360129,9 C64.4724544,9 65.456806,9.3988604 66.1890675,10.1965812 C66.5732047,10.6296296 66.8913183,11.2165242 67.1434084,11.957265 C68.0317256,11.1025641 68.8060021,10.4700855 69.4662379,10.0598291 C70.6066452,9.35327635 71.7710611,9 72.9594855,9 C74.8921758,9 76.1826367,9.74643875 76.8308682,11.2393162 C77.2030011,12.0826211 77.3890675,13.4159544 77.3890675,15.2393162 L77.3890675,22.3333333 C77.3890675,23.1424501 77.578135,23.6923077 77.9562701,23.982906 C78.3344051,24.2735043 79.0156484,24.4643875 80,24.5555556 L80,25 L71.8790997,25 L71.8790997,24.5213675 C72.9234727,24.4301994 73.6107181,24.2307692 73.940836,23.9230769 C74.2709539,23.6153846 74.4360129,22.988604 74.4360129,22.042735 L74.4360129,14.6752137 C74.4360129,13.5698006 74.3099678,12.7549858 74.0578778,12.2307692 C73.6137192,11.2962963 72.7434084,10.8290598 71.4469453,10.8290598 C70.6666667,10.8290598 69.8923901,11.0740741 69.1241158,11.5641026 C68.6799571,11.8490028 68.1337621,12.3048433 67.4855305,12.9316239 L67.4855305,21.6837607 C67.4855305,22.6068376 67.6565916,23.3076923 67.9987138,23.7863248 C68.340836,24.2649573 69.0640943,24.5213675 70.1684887,24.5555556 L70.1684887,25 L61.903537,25 L61.903537,24.5555556 C63.0439443,24.4188034 63.7702036,24.1566952 64.0823151,23.7692308 C64.3944266,23.3817664 64.5504823,22.4301994 64.5504823,20.9145299 L64.5504823,16.1282051 C64.5504823,14.3732194 64.4304394,13.1652422 64.1903537,12.5042735 C63.7942122,11.3874644 62.9539121,10.8290598 61.6694534,10.8290598 C60.9371919,10.8290598 60.2169346,11.019943 59.5086817,11.4017094 C58.8004287,11.7834758 58.1762058,12.2820513 57.6360129,12.8974359 L57.6360129,22.2478632 C57.6360129,23.1139601 57.7950697,23.7122507 58.1131833,24.042735 C58.4312969,24.3732194 59.1245445,24.5441595 60.192926,24.5555556 L60.192926,25 L52,25 L52,24.5555556 Z" id="路径"></path>
            <path d="M81,17.3157895 C81,14.9883041 81.7413919,13.0204678 83.2241758,11.4122807 C84.7069597,9.80409357 86.614652,9 88.9472527,9 C91.2681319,9 93.1904762,9.76023392 94.7142857,11.2807018 C96.2380952,12.8011696 97,14.8245614 97,17.3508772 C97,19.6783626 96.2615385,21.7017544 94.7846154,23.4210526 C93.3076923,25.1403509 91.3970696,26 89.0527473,26 C86.8021978,26 84.8974359,25.1754386 83.3384615,23.5263158 C81.7794872,21.877193 81,19.8070175 81,17.3157895 Z M88.4549451,10.0526316 C87.5289377,10.0526316 86.7260073,10.3567251 86.0461538,10.9649123 C84.8739927,12.0292398 84.2879121,13.8654971 84.2879121,16.4736842 C84.2879121,18.5555556 84.759707,20.497076 85.7032967,22.2982456 C86.6468864,24.0994152 87.9567766,25 89.632967,25 C90.9457875,25 91.9567766,24.3976608 92.6659341,23.1929825 C93.3750916,21.9883041 93.7296703,20.4093567 93.7296703,18.4561404 C93.7296703,16.4327485 93.2783883,14.5263158 92.3758242,12.7368421 C91.4732601,10.9473684 90.1663004,10.0526316 88.4549451,10.0526316 Z" id="形状"></path>
            <path d="M98,24.4050901 C99.0823529,24.3089431 99.8,24.1136444 100.152941,23.8191941 C100.505882,23.5247437 100.682353,22.8967833 100.682353,21.9353128 L100.682353,13.804878 C100.682353,12.6150583 100.573529,11.7647579 100.355882,11.2539767 C100.138235,10.7431955 99.7411765,10.4878049 99.1647059,10.4878049 C99.0470588,10.4878049 98.8911765,10.5028279 98.6970588,10.5328738 C98.5029412,10.5629198 98.3,10.6019795 98.0882353,10.650053 L98.0882353,10.0551432 C98.7588235,9.81477554 99.4470588,9.56839873 100.152941,9.31601273 C100.858824,9.06362672 101.347059,8.88335101 101.617647,8.77518558 C102.205882,8.54683634 102.811765,8.28844115 103.435294,8 C103.517647,8 103.567647,8.03004595 103.585294,8.09013786 C103.602941,8.15022976 103.611765,8.27642276 103.611765,8.46871686 L103.611765,11.4252386 C104.364706,10.3556027 105.091176,9.5203252 105.791176,8.91940615 C106.491176,8.3184871 107.217647,8.01802757 107.970588,8.01802757 C108.570588,8.01802757 109.058824,8.20130788 109.435294,8.5678685 C109.811765,8.93442913 110,9.3941322 110,9.94697773 C110,10.4397314 109.855882,10.8543655 109.567647,11.1908802 C109.279412,11.5273948 108.917647,11.6956522 108.482353,11.6956522 C108.035294,11.6956522 107.585294,11.4853305 107.132353,11.0646872 C106.679412,10.6440438 106.323529,10.4337222 106.064706,10.4337222 C105.652941,10.4337222 105.147059,10.7732414 104.547059,11.45228 C103.947059,12.1313185 103.647059,12.8313892 103.647059,13.552492 L103.647059,21.6829268 C103.647059,22.7165076 103.882353,23.4346059 104.352941,23.8372216 C104.823529,24.2398374 105.605882,24.4291269 106.7,24.4050901 L106.7,25 L98,25 L98,24.4050901 Z" id="路径"></path>
            <path d="M117.828467,8.00353357 C119.543796,8.00353357 121.046229,8.57773852 122.335766,9.72614841 C123.625304,10.8745583 124.270073,12.5029446 124.270073,14.6113074 L112.682482,14.6113074 C112.804136,17.343934 113.442822,19.3345112 114.59854,20.5830389 C115.754258,21.8315665 117.122871,22.4558304 118.70438,22.4558304 C119.981752,22.4558304 121.058394,22.1319199 121.934307,21.4840989 C122.810219,20.836278 123.619221,19.9175501 124.361314,18.7279152 L125,18.9399293 C124.501217,20.4358068 123.567518,21.819788 122.198905,23.0918728 C120.830292,24.3639576 119.154501,25 117.171533,25 C114.884428,25 113.117397,24.163722 111.870438,22.4911661 C110.623479,20.8186101 110,18.8928151 110,16.7137809 C110,14.3462898 110.723844,12.3027091 112.171533,10.5830389 C113.619221,8.86336867 115.504866,8.00353357 117.828467,8.00353357 Z M116.770073,9.29328622 C115.383212,9.29328622 114.324818,9.88810365 113.594891,11.0777385 C113.205596,11.7137809 112.925791,12.5147232 112.755474,13.4805654 L120.456204,13.4805654 C120.322384,12.3027091 120.091241,11.4252061 119.762774,10.8480565 C119.166667,9.81154299 118.1691,9.29328622 116.770073,9.29328622 Z M123.357664,1.18374558 C123.357664,1.52532391 123.260341,1.80800942 123.065693,2.03180212 C122.871046,2.25559482 122.585158,2.4852768 122.208029,2.72084806 L116.459854,6.23674912 L114.945255,6.23674912 L120.437956,0.883392226 C120.632603,0.694935218 120.875912,0.500588928 121.167883,0.300353357 C121.459854,0.100117786 121.770073,0 122.09854,0 C122.414842,0 122.703771,0.108951708 122.965328,0.326855124 C123.226886,0.544758539 123.357664,0.830388693 123.357664,1.18374558 Z" id="形状"></path>
            <polygon id="路径" points="131.462687 20 129 22.4444444 131.537313 25 134 22.5185185"></polygon>
        </g>
    </g>
</svg>