<svg xmlns="http://www.w3.org/2000/svg" width="100" height="100"><defs><clipPath id="a"><path d="M0 0h100v100H0z"/></clipPath></defs><g clip-path="url(#a)"><path fill="#fff" d="M0 0h100v100H0z"/><path fill="#eee" d="M0 0h100v100H0z"/><g fill-rule="evenodd"><path d="M59.518 44.844c-4.732 3.488-11.591 5.349-17.5 5.349a31.66 31.66 0 0 1-21.374-8.156c-.443-.4-.046-.946.486-.634a43.018 43.018 0 0 0 21.384 5.671 42.523 42.523 0 0 0 16.312-3.335c.8-.34 1.471.525.688 1.106" fill="#f90"/><path d="M61.484 42.594c-.6-.773-4-.365-5.522-.184-.464.057-.535-.347-.117-.638 2.7-1.9 7.142-1.354 7.66-.716s-.135 5.09-2.676 7.213c-.39.326-.762.152-.588-.28.571-1.425 1.85-4.619 1.244-5.395" fill="#f90"/><path d="M56.068 28.335v-1.85a.457.457 0 0 1 .468-.468h8.284a.461.461 0 0 1 .479.468v1.585a2.605 2.605 0 0 1-.624 1.163l-4.292 6.129a9.146 9.146 0 0 1 4.725 1.014.843.843 0 0 1 .44.72v1.974c0 .269-.3.585-.61.422a9.542 9.542 0 0 0-8.752.014c-.287.156-.588-.156-.588-.425v-1.877a2.238 2.238 0 0 1 .3-1.272l4.973-7.132h-4.328a.458.458 0 0 1-.479-.464M25.851 39.88h-2.52a.476.476 0 0 1-.45-.429V26.517a.473.473 0 0 1 .486-.464h2.35a.475.475 0 0 1 .457.432v1.691h.046a3.463 3.463 0 0 1 6.589 0 3.722 3.722 0 0 1 6.4-.982c.8 1.088.634 2.669.634 4.055v8.163a.476.476 0 0 1-.486.468H36.84a.479.479 0 0 1-.454-.468v-6.856a16.192 16.192 0 0 0-.071-2.424 1.312 1.312 0 0 0-1.482-1.113 1.674 1.674 0 0 0-1.506 1.06 7.831 7.831 0 0 0-.234 2.478v6.855a.476.476 0 0 1-.486.468H30.09a.476.476 0 0 1-.454-.468v-6.855c0-1.443.238-3.566-1.553-3.566-1.811 0-1.74 2.07-1.74 3.566v6.855a.476.476 0 0 1-.486.468M72.43 25.78c3.739 0 5.763 3.211 5.763 7.295 0 3.945-2.237 7.075-5.763 7.075-3.672 0-5.671-3.211-5.671-7.213 0-4.027 2.024-7.156 5.671-7.156m.018 2.639c-1.857 0-1.974 2.531-1.974 4.108s-.025 4.955 1.953 4.955c1.953 0 2.045-2.722 2.045-4.381a11.959 11.959 0 0 0-.376-3.431 1.577 1.577 0 0 0-1.648-1.251M83.042 39.88h-2.51a.479.479 0 0 1-.454-.468V26.474a.477.477 0 0 1 .486-.422H82.9a.482.482 0 0 1 .45.362v1.978h.046c.705-1.769 1.694-2.612 3.435-2.612a3.307 3.307 0 0 1 2.942 1.524c.659 1.035.659 2.775.659 4.027v8.142a.484.484 0 0 1-.486.408h-2.527a.477.477 0 0 1-.447-.408v-7.026c0-1.414.163-3.484-1.577-3.484a1.647 1.647 0 0 0-1.457 1.035 5.724 5.724 0 0 0-.4 2.449v6.965a.485.485 0 0 1-.493.468M49.465 33.701a4.93 4.93 0 0 1-.471 2.673 2.048 2.048 0 0 1-1.744 1.145c-.968 0-1.535-.737-1.535-1.825 0-2.148 1.925-2.538 3.75-2.538v.546m2.541 6.143a.526.526 0 0 1-.6.06 6.143 6.143 0 0 1-1.446-1.68 4.991 4.991 0 0 1-4.154 1.833 3.575 3.575 0 0 1-3.771-3.927 4.277 4.277 0 0 1 2.687-4.119 17.463 17.463 0 0 1 4.739-.876v-.327a3.214 3.214 0 0 0-.308-1.825 1.677 1.677 0 0 0-1.414-.656 1.917 1.917 0 0 0-2.024 1.514.527.527 0 0 1-.439.461l-2.442-.262a.444.444 0 0 1-.376-.528c.563-2.965 3.244-3.858 5.639-3.858a5.714 5.714 0 0 1 3.8 1.255c1.223 1.145 1.105 2.673 1.105 4.335v3.927a3.447 3.447 0 0 0 .95 2.336.477.477 0 0 1-.011.67c-.514.429-1.428 1.226-1.932 1.673v-.007M16.426 33.701a4.93 4.93 0 0 1-.471 2.673 2.043 2.043 0 0 1-1.744 1.145c-.968 0-1.531-.737-1.531-1.825-.001-2.149 1.92-2.539 3.746-2.539v.546m2.541 6.143a.526.526 0 0 1-.6.06 6.2 6.2 0 0 1-1.446-1.68 4.986 4.986 0 0 1-4.15 1.831A3.576 3.576 0 0 1 9 36.129a4.282 4.282 0 0 1 2.687-4.118 17.462 17.462 0 0 1 4.739-.876v-.326a3.243 3.243 0 0 0-.3-1.825 1.686 1.686 0 0 0-1.414-.656 1.921 1.921 0 0 0-2.033 1.513.527.527 0 0 1-.436.461L9.8 30.04a.446.446 0 0 1-.376-.528c.561-2.964 3.238-3.857 5.634-3.857a5.714 5.714 0 0 1 3.8 1.255c1.222 1.145 1.105 2.673 1.105 4.335v3.927a3.447 3.447 0 0 0 .95 2.336.473.473 0 0 1-.007.67c-.514.429-1.428 1.226-1.932 1.673l-.007-.007"/></g><path d="M26.955 60.115c-4.339 0-7.955 1.841-7.955 7.392 0 4.4 2.431 7.171 8.067 7.171 6.633 0 7.059-4.37 7.059-4.37h-3.215s-.689 2.353-4.04 2.353a4.4 4.4 0 0 1-4.693-4.428h12.284v-1.619c0-2.557-1.623-6.5-7.507-6.5zm-.112 2.073c2.6 0 4.37 1.592 4.37 3.977l-8.964-.001c0-2.531 2.312-3.976 4.594-3.976z" fill="#e53238"/><path d="M34.46 54.737v17.154c0 .974-.069 2.341-.069 2.341h3.066s.11-.982.11-1.879c0 0 1.515 2.37 5.633 2.37a6.961 6.961 0 0 0 7.283-7.325 6.922 6.922 0 0 0-7.277-7.241c-4.279 0-5.609 2.311-5.609 2.311v-7.731zm7.955 7.542c2.945 0 4.818 2.186 4.818 5.119a4.857 4.857 0 0 1-4.8 5.2c-3.143 0-4.839-2.454-4.839-5.175.003-2.532 1.524-5.144 4.82-5.144z" fill="#0064d2"/><path d="M58.1 60.115c-6.528 0-6.947 3.574-6.947 4.146h3.249s.17-2.087 3.473-2.087c2.146 0 3.809.982 3.809 2.871v.672h-3.809c-5.057 0-7.731 1.479-7.731 4.482 0 2.955 2.47 4.562 5.809 4.562 4.55 0 6.015-2.514 6.015-2.514 0 1 .077 1.985.077 1.985h2.888s-.112-1.221-.112-2v-6.756c0-4.428-3.572-5.36-6.722-5.36zm3.585 7.619v.9c0 1.169-.721 4.075-4.968 4.075-2.326 0-3.323-1.161-3.323-2.507 0-2.452 3.358-2.468 8.291-2.468z" fill="#f5af02"/><path d="M63.073 60.676h3.655l5.246 10.51 5.234-10.51h3.311l-9.533 18.711h-3.473l2.751-5.216z" fill="#86b817"/></g></svg>