<svg xmlns="http://www.w3.org/2000/svg" width="100" height="100"><defs><clipPath id="a"><path d="M0 0h100v100H0z"/></clipPath></defs><g clip-path="url(#a)"><path fill="#fff" d="M0 0h100v100H0z"/><path d="M100 100H0V0h100v100zM40.665 75.539a6.446 6.446 0 1 0 6.447 6.447 6.376 6.376 0 0 0-.3-1.843l7.346-7.343a19.808 19.808 0 1 0 15.048-35.32h.015v-9.025a6.959 6.959 0 0 0 4.013-6.273v-.211a6.971 6.971 0 0 0-6.952-6.953h-.212a6.97 6.97 0 0 0-6.952 6.953v.211a6.957 6.957 0 0 0 4.013 6.273V37.5a19.745 19.745 0 0 0-9.376 4.126l-24.82-19.331a7.919 7.919 0 0 0-4.148-9.145 7.845 7.845 0 0 0-3.5-.817 7.919 7.919 0 1 0 3.938 14.786l24.4 19a19.775 19.775 0 0 0 .3 22.3l-7.426 7.427a6.362 6.362 0 0 0-1.834-.307zm25.522-8.321h-.023a10.164 10.164 0 0 1 .023-20.328h.013a10.166 10.166 0 0 1-.012 20.333z" fill="#ff7a59"/></g></svg>