<svg width="36" height="36" fill="none" xmlns="http://www.w3.org/2000/svg"><rect width="36" height="36" rx="3" fill="#FFE071"/><path d="M24.053 17.286c.186-.022.365-.024.528 0 .095-.221.111-.604.026-1.02-.126-.619-.298-.993-.652-.935-.355.058-.368.506-.24 1.125.07.348.197.646.338.83zM21.012 17.776c.253.113.409.189.47.123.04-.041.028-.12-.033-.22-.125-.209-.383-.42-.655-.539a1.757 1.757 0 0 0-1.738.213c-.17.127-.33.302-.307.41.007.034.032.06.092.068.14.017.629-.236 1.191-.27.397-.026.727.101.98.215zM20.502 18.073c-.33.053-.512.164-.629.268-.1.089-.161.187-.16.256a.079.079 0 0 0 .08.083c.074 0 .24-.068.24-.068.46-.168.763-.148 1.064-.113.166.019.244.03.28-.028.011-.017.024-.053-.009-.108-.078-.13-.411-.345-.866-.29zM23.026 19.163c.224.112.471.068.552-.099.08-.167-.037-.393-.261-.505-.224-.113-.471-.069-.551.098-.08.167.037.394.26.506zM24.467 17.878c-.182-.003-.333.2-.337.455-.004.255.14.464.322.467.182.003.333-.2.337-.455.005-.255-.14-.464-.322-.467zM12.237 22.474c-.045-.059-.12-.04-.192-.024-.05.012-.107.026-.17.025a.367.367 0 0 1-.31-.161c-.083-.13-.078-.324.013-.546l.043-.1c.146-.334.39-.894.116-1.427-.207-.401-.543-.651-.949-.704-.388-.05-.789.097-1.044.384-.403.454-.466 1.071-.388 1.289.029.08.073.102.105.106.07.01.17-.041.234-.216l.018-.057c.029-.092.081-.263.168-.4a.717.717 0 0 1 1.014-.215c.282.187.39.54.27.877-.063.174-.164.507-.141.78.045.554.379.777.679.8.29.012.495-.155.547-.277.029-.072.004-.116-.013-.134z" fill="#000"/><path d="M29.062 21.46c-.01-.04-.083-.309-.182-.634-.1-.325-.203-.554-.203-.554.399-.609.406-1.153.353-1.461-.056-.383-.212-.708-.527-1.045-.314-.336-.956-.681-1.86-.94l-.474-.134c-.002-.02-.025-1.14-.045-1.621-.015-.348-.044-.891-.21-1.425-.196-.724-.538-1.357-.966-1.762 1.18-1.249 1.917-2.625 1.915-3.805-.004-2.269-2.734-2.956-6.099-1.534-.003.002-.707.306-.713.31l-1.308-1.309C14.907 2.131 2.913 15.74 6.747 19.044l.839.725a4.28 4.28 0 0 0-.233 1.942c.09.91.549 1.782 1.294 2.455.707.64 1.637 1.045 2.54 1.044 1.492 3.51 4.902 5.664 8.9 5.785 4.289.13 7.889-1.924 9.397-5.614.099-.259.518-1.425.518-2.456-.002-1.035-.575-1.464-.94-1.464zm-17.546 2.764c-.13.022-.263.032-.397.028-1.295-.036-2.695-1.226-2.834-2.638-.154-1.56.628-2.76 2.01-3.045.166-.034.365-.054.581-.042.775.043 1.917.65 2.177 2.373.231 1.526-.136 3.08-1.537 3.324zm-1.446-6.588c-.861.171-1.62.67-2.084 1.357-.277-.236-.794-.693-.885-.871-.741-1.436.808-4.227 1.89-5.804 2.675-3.896 6.863-6.844 8.803-6.309.315.091 1.36 1.327 1.36 1.327s-1.939 1.098-3.737 2.628c-2.422 1.903-4.252 4.67-5.347 7.672zm13.596 6.004a.077.077 0 0 0 .044-.077.072.072 0 0 0-.079-.065s-2.029.306-3.945-.41c.208-.693.764-.443 1.602-.374a11.493 11.493 0 0 0 3.87-.427c.868-.254 2.008-.755 2.894-1.469.3.67.404 1.407.404 1.407s.232-.042.425.079c.183.115.316.353.225.97-.187 1.151-.666 2.086-1.472 2.946a6.09 6.09 0 0 1-1.768 1.348 7.391 7.391 0 0 1-1.154.498c-3.038 1.013-6.15-.1-7.152-2.492a3.848 3.848 0 0 1-.2-.565c-.428-1.576-.065-3.467 1.069-4.657.07-.076.14-.165.14-.277a.496.496 0 0 0-.109-.264c-.396-.587-1.77-1.588-1.495-3.525.198-1.391 1.39-2.371 2.502-2.313l.282.016c.482.029.902.092 1.298.109.663.03 1.26-.07 1.967-.67.239-.203.43-.379.753-.435.034-.005.118-.037.288-.029a.94.94 0 0 1 .484.158c.566.385.647 1.317.676 2 .017.389.063 1.33.079 1.6.036.619.195.706.517.814.181.06.35.106.598.177.75.215 1.194.433 1.475.713a.958.958 0 0 1 .269.538c.088.659-.5 1.472-2.06 2.212-1.706.808-3.776 1.012-5.205.85l-.5-.058c-1.145-.157-1.797 1.351-1.11 2.384.442.666 1.647 1.1 2.852 1.1 2.764 0 4.889-1.204 5.678-2.244.024-.031.026-.035.064-.092.038-.06.006-.093-.042-.059-.646.45-3.513 2.24-6.58 1.702 0 0-.374-.062-.714-.197-.27-.107-.836-.373-.905-.966 2.476.783 4.035.044 4.035.044zm-3.922-.472.001.002v-.002zM15.01 12.302c.95-1.121 2.121-2.096 3.17-2.643.036-.02.074.02.055.057-.084.154-.244.483-.295.734-.008.039.034.068.066.045.652-.453 1.787-.94 2.783-1.002.042-.003.063.053.029.08a2.38 2.38 0 0 0-.438.448c-.02.028-.001.069.033.069.7.005 1.685.255 2.327.622.043.025.012.11-.037.1-.972-.228-2.561-.4-4.214.01-1.475.368-2.6.935-3.421 1.545-.042.031-.091-.025-.058-.065z" fill="#000"/></svg>