<svg xmlns="http://www.w3.org/2000/svg" width="50" height="50" viewBox="0 0 50 50" fill="currentColor">
	<path fill-rule="evenodd" clip-rule="evenodd" d="M24.9999 4.31543C25.4805 4.31543 25.9243 4.57296 26.1627 4.99024L36.1067 22.3922C36.3436 22.8067 36.3419 23.316 36.1022 23.7289C35.8626 24.1418 35.4213 24.396 34.9439 24.396H15.0559C14.5785 24.396 14.1372 24.1418 13.8976 23.7289C13.6579 23.316 13.6562 22.8067 13.8931 22.3922L23.8371 4.99024C24.0755 4.57296 24.5193 4.31543 24.9999 4.31543ZM24.9999 8.35413L17.3638 21.7174H32.636L24.9999 8.35413ZM8.98998 31.6843C8.68586 31.6843 8.39419 31.8051 8.17914 32.0202C7.96409 32.2352 7.84327 32.5269 7.84327 32.831V42.775C7.84327 43.0791 7.96409 43.3708 8.17914 43.5858C8.39419 43.8009 8.68586 43.9217 8.98998 43.9217H18.934C19.2381 43.9217 19.5297 43.8009 19.7448 43.5858C19.9598 43.3708 20.0807 43.0791 20.0807 42.775V32.831C20.0807 32.5269 19.9598 32.2352 19.7448 32.0202C19.5297 31.8051 19.2381 31.6843 18.934 31.6843H8.98998ZM6.2851 30.1261C7.00248 29.4088 7.97545 29.0057 8.98998 29.0057H18.934C19.9485 29.0057 20.9215 29.4088 21.6388 30.1261C22.3562 30.8435 22.7592 31.8165 22.7592 32.831V42.775C22.7592 43.7895 22.3562 44.7625 21.6388 45.4799C20.9215 46.1973 19.9485 46.6003 18.934 46.6003H8.98998C7.97545 46.6003 7.00248 46.1973 6.2851 45.4799C5.56772 44.7625 5.1647 43.7895 5.1647 42.775V32.831C5.1647 31.8165 5.56772 30.8435 6.2851 30.1261ZM30.0959 31.5824C31.7457 29.9326 33.9834 29.0058 36.3165 29.0058C38.6497 29.0058 40.8873 29.9326 42.5371 31.5824C44.187 33.2322 45.1138 35.4698 45.1138 37.803C45.1138 40.1362 44.187 42.3738 42.5371 44.0236C40.8873 45.6734 38.6497 46.6003 36.3165 46.6003C33.9834 46.6003 31.7457 45.6734 30.0959 44.0236C28.4461 42.3738 27.5193 40.1362 27.5193 37.803C27.5193 35.4698 28.4461 33.2322 30.0959 31.5824ZM36.3165 31.6843C34.6938 31.6843 33.1374 32.329 31.99 33.4764C30.8425 34.6239 30.1978 36.1802 30.1978 37.803C30.1978 39.4258 30.8425 40.9821 31.99 42.1296C33.1374 43.2771 34.6938 43.9217 36.3165 43.9217C37.9393 43.9217 39.4956 43.2771 40.6431 42.1296C41.7906 40.9821 42.4352 39.4258 42.4352 37.803C42.4352 36.1802 41.7906 34.6239 40.6431 33.4764C39.4956 32.329 37.9393 31.6843 36.3165 31.6843Z" fill="currentColor"/>
</svg>
