<?xml version="1.0" encoding="UTF-8"?>
<svg xmlns="http://www.w3.org/2000/svg" xmlns:xlink="http://www.w3.org/1999/xlink" width="16pt" height="16pt" viewBox="0 0 16 16" version="1.1">
	<g id="surface1">
		<path style="fill:#FFF; stroke: #000; stroke-width: .7px;" d="M 12.273438 1.265625 C 12.929688 1.265625 13.472656 1.472656 13.9375 1.9375 C 14.398438 2.398438 14.609375 2.929688 14.609375 3.601562 C 14.609375 4.273438 14.464844 4.863281 14 5.328125 L 12.335938 6.992188 L 13.136719 7.792969 C 13.199219 7.871094 13.199219 7.9375 13.199219 8 C 13.199219 8.0625 13.199219 8.128906 13.136719 8.191406 L 11.601562 9.726562 C 11.535156 9.792969 11.472656 9.792969 11.40625 9.792969 C 11.34375 9.792969 11.265625 9.792969 11.199219 9.726562 L 10.398438 8.929688 L 5.871094 13.328125 C 5.664062 13.535156 5.472656 13.601562 5.199219 13.601562 L 3.726562 13.601562 L 1.9375 14.527344 C 1.871094 14.527344 1.808594 14.527344 1.808594 14.527344 L 1.472656 14.207031 C 1.328125 14.128906 1.328125 14.0625 1.40625 14 L 2.335938 12.191406 L 2.335938 10.671875 C 2.335938 10.398438 2.398438 10.191406 2.609375 10 L 7.070312 5.535156 L 6.273438 4.734375 C 6.207031 4.671875 6.207031 4.671875 6.207031 4.59375 C 6.207031 4.527344 6.207031 4.464844 6.273438 4.398438 L 7.808594 2.863281 C 7.871094 2.800781 7.9375 2.800781 8 2.800781 C 8.0625 2.800781 8.128906 2.800781 8.207031 2.863281 L 9.007812 3.664062 L 10.671875 2 C 11.070312 1.472656 11.601562 1.265625 12.273438 1.265625 Z M 5.199219 12.128906 L 9.472656 7.871094 L 8 6.464844 L 3.808594 10.671875 C 3.726562 10.734375 3.726562 10.800781 3.726562 10.863281 L 3.726562 12.0625 C 3.726562 12.128906 3.808594 12.191406 3.871094 12.191406 L 5.136719 12.191406 C 5.136719 12.191406 5.136719 12.191406 5.199219 12.128906 Z M 5.199219 12.128906 "/>
	</g>
</svg>
