<svg version="1.1" id="Layer_1" xmlns="http://www.w3.org/2000/svg" x="0" y="0" viewBox="0 0 465.1 246.9" style="enable-background:new 0 0 465.1 246.9" xml:space="preserve"><style>.st0,.st1{stroke:#000;stroke-width:1.0315;stroke-miterlimit:10}.st1{fill:#f0f0f1}.st2{fill:#f9e1f6}.st3{fill:#f0f0f1}.st4{stroke:#000;stroke-width:1.0315;stroke-miterlimit:10}.st4,.st5,.st7{fill:none}.st7{stroke:#000;stroke-width:1.0315;stroke-linecap:round;stroke-linejoin:round}.st8{fill:#ffc5f3}.st10{fill:none}.st10,.st12{stroke:#000;stroke-width:1.0315;stroke-linejoin:round}.st14{fill-rule:evenodd;clip-rule:evenodd}</style><path d="m235.9 134.6-1.3-6.9 1.1.1.9 5.3h.1l2-5 1.1.1.8 5.3h.1l2-5 1.1.1-2.8 6.5-1-.1-.9-5.3h-.1l-2.1 5-1-.1zm10 1.2-1.3-6.9 1.1.1.9 5.3h.1l2-5 1.1.1.8 5.3h.1l2-5 1.1.1-2.8 6.5-1-.1-.9-5.3h-.1l-2.1 5-1-.1zm10 1.1-1.3-6.9 1.1.1.9 5.3h.1l2-5 1.1.1.8 5.3h.1l2-5 1.1.1-2.8 6.5-1-.1-.9-5.3h-.1l-2.1 5-1-.1z"/><path class="st0" d="M347.8 29.2H74.7v20.5h273.1V29.2z"/><path class="st1" d="M343.2 38h4.6v176.7h-264V38h259.4z"/><path class="st2" d="M353.1 43.3h-264v167.6h264V43.3z"/><path class="st1" d="M250.8 187.1 176.4 38.5l-89.8.2 164.2 148.4z"/><path class="st3" d="m85.9 120.7 164.9 66.4L85.9 38.5"/><path class="st4" d="m85.9 120.7 164.9 66.4L85.9 38.5"/><path class="st1" d="M250.8 187.1 234.7 37.9h-58.3l74.4 149.2z"/><path class="st5" d="M138.8 0h149.6v224.9H138.8z"/><path d="M89 29.2H78.5v10.9H89V29.2z" style="fill:#f9e1f6;stroke:#000;stroke-width:1.0315;stroke-miterlimit:10"/><path class="st3" d="m367.3 109.6-110.1 74.3 196.9-13.7"/><path class="st7" d="m367.3 109.6-110.1 74.3 196.9-13.7M367.3 169.2l-110.1 14.7"/><path class="st3" d="M138.8 103.5 4.3 101.6V14.4h134.6v89.1z"/><path d="m139.3 104-4.7-.1v-1l3.7.1v-3.7h1v4.7zM126.2 103.9l-8.4-.1v-1l8.4.1v1zm-16.8-.3-8.4-.1v-1l8.4.1v1zm-16.9-.2-8.4-.1v-1l8.4.1v1zm-16.8-.3-8.4-.1v-1l8.4.1v1zm-16.8-.2-8.4-.1v-1l8.4.1v1zm-16.9-.3-8.4-.1v-1l8.4.1v1zm-16.8-.2-8.4-.1v-1l8.4.1v1zM8.5 102.1l-4.7-.1v-4.7h1v3.7l3.7.1v1zM4.8 88.6h-1v-8.8h1v8.8zm0-17.5h-1v-8.8h1v8.8zm0-17.5h-1v-8.8h1v8.8zm0-17.5h-1v-8.8h1v8.8zM4.8 18.6h-1v-4.7h4.7v1H4.8v3.7zM126.2 14.9h-8.4v-1h8.4v1zm-16.8 0H101v-1h8.4v1zm-16.8 0h-8.4v-1h8.4v1zm-16.8 0h-8.4v-1h8.4v1zm-16.9 0h-8.4v-1h8.4v1zm-16.8 0h-8.4v-1h8.4v1zm-16.8 0h-8.4v-1h8.4v1zM139.3 18.6h-1v-3.7h-3.7v-1h4.7v4.7zM139.3 90.4h-1v-9h1v9zm0-18h-1v-9h1v9zm0-17.9h-1v-9h1v9zm0-18h-1v-9h1v9z"/><path class="st0" d="M400.8 208.4c-.3-11.6-1.1-12.4-12.4-12.4 11.3 0 12.1-.8 11.8-12.4.3 11.6 1.1 12.4 12.4 12.4-11.3.1-12.1.9-11.8 12.4z"/><path class="st3" d="m275.7 215.5-16.1-50.9c-2.5-7.9-4-16.1-4.6-24.3l-.3-3.9-60.1 4.5s-1.6 5.6 3.8 13.7c5.6 8.3 9.7 17.7 11.5 27.8 3.2 18.3 6.3 35.5 6.3 35.5"/><path class="st4" d="m275.7 215.5-16.1-50.9c-2.5-7.9-4-16.1-4.6-24.3l-.3-3.9-60.1 4.5s-1.6 5.6 3.8 13.7c5.6 8.3 9.7 17.7 11.5 27.8 3.2 18.3 6.3 35.5 6.3 35.5"/><path class="st5" d="M157.2 99.6h155.7v156H157.2z"/><path class="st3" d="m301.8 90.5.8-2.3s-1.4 1.3-13.5 2.5c-3.6.9-8.5 6.1-8.5 6.1l-1.8-.1-101.9 10.5-4.4.5-1.6-1.8-2.6-1.7-3.5-.7-12.3.1-.8 2.3 1.3 2.1-.8 2.3 1.3 2.1-.8 2.3 1.3 2.1-.8 2.3 1.3 2.1-.8 2.3 1.3 2.1-.8 2.3 1.3 2.1-.8 2.3 1.3 2.1-.8 2.4 1.3 2.1-.8 2.4 1.3 2.1-.8 2.4 1.3 2.1-.8 2.4 1.3 2.1-.8 2.4 1.3 2.1c8.3-1.6 10.5-1.1 10.5-1.1l4.4-1.1 4.7-4.1 105.5-10.9 2-.8s3.8 1.8 5.5 3.1c1.8 1.3 5 .4 5.1.6l11.4-2.6-.5-.8-.1-2.6-.4-1.9.8-2.4-1.3-2.1.8-2.4-1.3-2.1.8-2.4-1.3-2.1.8-2.4-1.3-2.1.8-2.3-1.3-2.1.8-2.3-1.3-2.1.8-2.3-1.3-2.1.8-2.3-1.3-2.1.8-2.3-1.3-2.1.8-2.3-1.1-1.9z"/><path class="st8" d="M199.4 105.7 158 157.2l-5.6-53.6 14.4.5 4.1 3.4 28.5-1.8zM290.9 90.5c-3.8.9-7.1 3.1-9.9 6.3l-35 47.1 38.6-4.4 7.6 3.5h4.1l10.8-2.6-4.7-52.2-11.5 2.3z"/><path class="st5" d="M114.8 50.8H345v143.6H114.8z"/><path d="m310.9 61.1.6 2.8 3.1.5-3.1.5-.6 2.8-.6-2.8-3.1-.5 3.1-.5.6-2.8z"/><path d="m300.5 67.9.8 4.3 4.7.8-4.7.8-.8 4.3-.8-4.3-4.7-.8 4.7-.8.8-4.3z" style="stroke:#000;stroke-width:.7736;stroke-miterlimit:10"/><path d="m114.1 149.1.8 4.3 4.7.8-4.7.8-.8 4.3-.8-4.3-4.7-.8 4.7-.8.8-4.3z"/><path class="st3" d="m257.2 77.4.5 2.6 2.8.5-2.8.5-.5 2.6-.5-2.6-2.8-.5 2.8-.5.5-2.6zM274 150.8l.6 2.8 3.1.5-3.1.5-.6 2.8-.5-2.8-3.1-.5 3.1-.5.5-2.8zM154.6 220.8c2.7-24.3 33.3-43.1 53.9-44.3 20.6-1.2 35.2 12.7 32.2 30.6 6.7-4.2 15.1-5.5 20.5-3s7.6 8.6 5.2 14.8c6.1-8.4 19.4-11.8 27.8-9.4 8.5 2.5 13.5 8.9 17.9 15.2"/><path class="st4" d="M154.6 220.8c2.7-24.3 33.3-43.1 53.9-44.3 20.6-1.2 35.2 12.7 32.2 30.6 6.7-4.2 15.1-5.5 20.5-3s7.6 8.6 5.2 14.8c6.1-8.4 19.4-11.8 27.8-9.4 8.5 2.5 13.5 8.9 17.9 15.2"/><path class="st10" d="M295 122.7c.8 8 1.2 15.5.9 20.3-.1-.2-3.3.7-5.1-.6-1.8-1.3-5.5-3.1-5.5-3.1l-2 .8L177.7 151l-4.7 4.1-4.4 1.1-1.8-33.5M164.8 103.5l3.5.7 2.5 1.7 1.6 1.8 4.4-.5 101.9-10.5 1.8.1s4.9-5.3 8.5-6.1c1.3 3.8 2.5 9.1 3.5 15.1M168.6 156.2s-2.3-.5-10.5 1.1l-1.3-2.1.8-2.4-1.3-2.1.8-2.4-1.3-2.1.8-2.4-1.3-2.1.8-2.4-1.3-2.1.8-2.4-1.3-2.1.8-2.3-1.3-2.1.8-2.3-1.3-2.1.8-2.3-1.3-2.1.8-2.3-1.3-2.1.8-2.3-1.3-2.1.8-2.3-1.3-2.1.8-2.3 12.3-.1"/><path d="m295.9 143 11.4-2.6-.5-.8-.1-2.6-.4-1.9.8-2.4-1.3-2.1.8-2.4-1.3-2.1.8-2.4-1.3-2.1.8-2.4-1.3-2.1.8-2.3-1.3-2.1.8-2.3-1.3-2.1.8-2.3-1.3-2.1.8-2.3-1.3-2.1.8-2.3-1.3-2.1.8-2.3-1.3-2.1.8-2.3s-1.4 1.3-13.5 2.5" style="fill:none;stroke:#000;stroke-width:.7736;stroke-linejoin:round"/><path class="st12" d="m172.5 107.7 2.9 4.1-1.4-4.3-1.5.2zM286.9 134.3c-.2 1.1-.3 2.2-.2 3.4.1 1.1.5 2.3 1.2 3.1l-2.7-1.3c-.1 0-.2-.1-.3-.1-.1 0-.2 0-.3.1-.4.2-.8.4-1.2.5-.3.1-.6.3-.5-.1 0-.2.6-.7.7-.8.3-.3.5-.6.7-.9.5-.6.9-1.2 1.3-1.9.4-.4.9-1.4 1.3-2z"/><path class="st10" d="M181.2 150.6s-3.6-2.6-6.5-2.8"/><path class="st0" d="m178.6 137.2 1.9-22.1 8-.7c1.5-.1 2.8 0 3.8.5 1 .4 1.8 1.1 2.4 1.9.6.8.9 1.8 1 2.8.1 1.6-.1 3-.8 4.2-.7 1.2-1.7 2.2-3 2.9-1.3.7-2.8 1.2-4.6 1.3l-4.1.4-.7 8.6-3.9.2zm5-12.2 3.8-.3c1.4-.1 2.5-.6 3.3-1.3.7-.8 1.1-1.8.9-3.1-.1-.8-.4-1.5-1-2s-1.5-.6-2.7-.5l-3.8.3-.5 6.9zM197.9 135.4l1.9-22.1 7.9-.7c1.5-.1 2.8 0 3.9.5 1 .4 1.8 1.1 2.4 1.9.6.8.9 1.7 1 2.8.2 1.7-.2 3.2-1.1 4.5-.9 1.3-2.1 2.3-3.7 2.9l3.7 8.8-4.4.4-3.3-8.3-3.5.3-.8 8.7-4 .3zm5-12 3.8-.3c1.4-.1 2.5-.6 3.2-1.4.8-.8 1.1-1.8 1-3.1-.1-.8-.4-1.5-1-2s-1.5-.7-2.6-.6l-3.8.3-.6 7.1zM228.1 133.1c-1.8.2-3.5-.1-5-.8-1.5-.7-2.7-1.7-3.6-3-.9-1.4-1.5-2.9-1.6-4.7-.2-1.8 0-3.6.6-5.2.5-1.6 1.3-3.1 2.4-4.4 1.1-1.3 2.4-2.4 3.9-3.2 1.5-.8 3.2-1.3 5-1.5 1.8-.2 3.5.1 5 .8 1.5.7 2.7 1.7 3.6 3 .9 1.3 1.5 2.9 1.6 4.7.2 1.8 0 3.6-.5 5.2-.5 1.7-1.3 3.1-2.4 4.4-1.1 1.3-2.4 2.4-3.9 3.2-1.7.9-3.3 1.4-5.1 1.5zm.1-3.6c1.2-.1 2.2-.4 3.2-1s1.8-1.3 2.5-2.2c.7-.9 1.2-2 1.6-3.1.3-1.2.5-2.4.3-3.7-.2-1.9-.8-3.3-1.9-4.3-1.1-1-2.6-1.4-4.4-1.3-1.2.1-2.3.4-3.2 1-1 .6-1.8 1.3-2.5 2.2-.7.9-1.2 1.9-1.6 3.1-.4 1.2-.5 2.4-.4 3.7.2 1.9.8 3.3 1.9 4.3 1.3 1 2.7 1.5 4.5 1.3z"/><path class="st10" d="m159.1 104.1.9 17.3M163.5 156.3l-.3-22"/><path class="st3" d="M222.2 99.2c-.5-1.3-.1-2.9.8-4 .9-1.2 2.2-2 3.4-2.8 3.7-2.3 7.8-4.4 12.2-4.4.6 0 8.7.7 11.9 7.5 2.2 4.7 1.4 10.6-1.8 13.8-.6.7-2.5 2.5-5.1 2.4-2.3-.1-4.3-1.8-5.2-3.7-1.2-2.8-.2-6.4 2.8-8.6"/><path class="st4" d="M222.2 99.2c-.5-1.3-.1-2.9.8-4 .9-1.2 2.2-2 3.4-2.8 3.7-2.3 7.8-4.4 12.2-4.4.6 0 8.7.7 11.9 7.5 2.2 4.7 1.4 10.6-1.8 13.8-.6.7-2.5 2.5-5.1 2.4-2.3-.1-4.3-1.8-5.2-3.7-1.2-2.8-.2-6.4 2.8-8.6"/><path class="st3" d="M204 102.1c.6-1.7 1.4-2.6 2.6-4.1 3.3-4.2 7.3-8.4 12.5-10.2.7-.2 10.5-2.8 17.1 3.9 4.5 4.5 6 11.8 3.6 17-.5 1-1.9 4-5 4.9-2.8.8-5.8-.3-7.6-2.2-2.6-2.7-2.9-7.4-.3-11.2"/><path class="st4" d="M204 102.1c.6-1.7 1.4-2.6 2.6-4.1 3.3-4.2 7.3-8.4 12.5-10.2.7-.2 10.5-2.8 17.1 3.9 4.5 4.5 6 11.8 3.6 17-.5 1-1.9 4-5 4.9-2.8.8-5.8-.3-7.6-2.2-2.6-2.7-2.9-7.4-.3-11.2"/><path class="st3" d="M191.7 105.2c-.1-1.8.8-4.5 2-5.9 3.5-4.1 8.6-7.7 13.8-9.3.7-.2 10.5-2.4 16.9 4.6 4.3 4.7 5.6 12 2.9 17.1-.5 1-2 3.9-5.2 4.7-2.8.7-5.8-.5-7.5-2.5-2.5-2.8-2.6-7.6.1-11.2"/><path class="st4" d="M191.7 105.2c-.1-1.8.8-4.5 2-5.9 3.5-4.1 8.6-7.7 13.8-9.3.7-.2 10.5-2.4 16.9 4.6 4.3 4.7 5.6 12 2.9 17.1-.5 1-2 3.9-5.2 4.7-2.8.7-5.8-.5-7.5-2.5-2.5-2.8-2.6-7.6.1-11.2"/><path class="st3" d="M248.6 143.9c4.8-.2-26.4 1-23.4-10.2 2.7-10.1 26.1-6.6 31.6-2.4 13.1 9.8-3.4 20.1-3.9 20.4"/><path class="st10" d="M248.6 143.9c4.8-.2-26.4 1-23.4-10.2 2.7-10.1 26.1-6.6 31.6-2.4 13.1 9.8-3.4 20.1-3.9 20.4"/><path class="st3" d="M231.3 156.3s-5.6-8.4 18.2-12.5l-18.2 12.5z"/><path class="st10" d="M231.3 156.3s-5.6-8.4 18.2-12.5"/><path class="st1" d="m152.4 186.7-5.6.5-.2-2.7-.5-4.6c-.4-5.8-5.5-10.1-11.3-9.7-5.8.5-10.2 5.6-9.7 11.4l.3 4.6 1.7 25.9-5.5 1.2-1.8-26.6-.3-4.6c-.7-8.9 6-16.7 14.9-17.4 8.9-.7 16.6 5.9 17.3 14.8l.5 4.6.1 2 .1.6z"/><path class="st0" d="m118.4 224.8 38.4-3.2c1.4-.1 2.4-1.3 2.3-2.7l-1.5-19.7c-.1-1.3-1.2-2.2-2.5-2.1l-38.4 3.2c-1.4.1-2.4 1.3-2.3 2.7l1.5 19.7c.1 1.2 1.2 2.2 2.5 2.1z"/><path class="st1" d="m124.7 224.2 33.1-2.7c1.3-.1 2.3-1.3 2.2-2.6l-1.5-19.9c-.1-1.2-1.2-2.1-2.4-2l-33.1 2.7c-1.3.1-2.3 1.3-2.2 2.6l1.5 19.9c.1 1.2 1.2 2.1 2.4 2z"/><path class="st3" d="m128.4 222.5 4.1-8h5.8l5.4 2.3 7.4 8.2 7-2.5 4.2-1.5 5.8.9 4.1 2.1.6 4.9-5.2 1.9h-18.7l-16.8-6.8-3.7-1.5z"/><path class="st2" d="m134 223.6 23.4-1.9c.9-.1 1.6-1.1 1.5-2.3l-1.4-18.1c-.1-1.1-.8-2-1.7-1.9l-23.4 1.9c-.9.1-1.6 1.1-1.5 2.3l1.4 18.1c.1 1.1.8 2 1.7 1.9z"/><path class="st3" d="M170.3 224.8c-14-14-30.4-1.2-30.4-1.5-9.2-13.3-19.2-14.8-27.2-12.4 0 0-18.4 6.6-15.8 15.4 2.6 8.8 11.9 17.4 23.9 15.9 12.1-1.6 60.9 1.9 49.5-17.4z"/><path d="M170.6 224.3c-14-14-30.4-1.2-30.4-1.5C131 209.5 121 208 113 210.4c0 0-9.1 3.1-14.5 7.6" style="fill:none;stroke:#f0f0f1;stroke-width:1.0315;stroke-miterlimit:10"/><path class="st4" d="M170.3 225.3c-14-14-30.4-1.2-30.4-1.5-9.2-13.3-19.2-14.8-27.2-12.4 0 0-7.1 2.3-13.8 7.5"/><path class="st7" d="m393.5 108.2 60.6 62"/><path class="st14" d="M268.8 107.7c.4 0 .8.2 1.1.5l4.8 6.3 5-4.7c.4-.4 1-.5 1.5-.2.5.2.8.8.7 1.3l-1.7 13.1c-.1.6-.6 1.1-1.2 1.1l-18 1.3c-.6 0-1.2-.4-1.3-.9l-3.5-12.7c-.1-.5.1-1.1.5-1.4.4-.3 1-.3 1.5 0l5.7 3.9 3.9-6.9c.2-.4.5-.7 1-.7z"/><path class="st0" d="m40.4 100.1-4.1 2.9h8l1.1-6.4-5 3.5z"/><path d="m33.2 107.5-6.8 9 4.2 2 6.6-9.4 4.2 2.7 2.9-16.9-15.7 11 4.6 1.6z" style="fill:#f0f0f1;stroke:#000;stroke-width:1.0315;stroke-linecap:round;stroke-linejoin:round"/><path class="st4" d="M13.8 35.6h50.5M13.8 44.6h50.5M13.8 53.5h50.5M32.8 62.5h31.6"/><path class="st14" d="M71.6 14.4H57.1l3.6-6.6c.2-.5.7-.8 1.3-.8h9.6v7.4zm0 0H86l-3.6-6.6c-.2-.5-.7-.8-1.3-.8h-9.6v7.4z"/><path class="st2" d="M59.7 74H36.5c-2.6 0-4.7 2.1-4.7 4.7s2.1 4.7 4.7 4.7h23.1c2.6 0 4.7-2.1 4.7-4.7S62.2 74 59.7 74z"/><path class="st1" d="m454.3 170.1-82 .5c-4.1 0-7.4-3.3-7.4-7.5l-.1-47.1c0-4.2 3.3-7.6 7.4-7.6l82-.5c4.1 0 7.4 3.3 7.4 7.5l.1 47.1c0 4.2-3.3 7.6-7.4 7.6z"/><path class="st1" d="M432.8 126.6h-5.4c-.4 0-.7.3-.7.7v15.3c0 .4.3.7.7.7h5.4c.4 0 .7-.3.7-.7v-15.3c.1-.3-.3-.7-.7-.7zM399.4 126.6h-5.8c-.4 0-.7.3-.7.7v15.3c0 .4.3.7.7.7h5.8c.4 0 .7-.3.7-.7v-15.3c.1-.3-.3-.7-.7-.7z"/><path class="st1" d="M427.7 124.2h-28.5c-.4 0-.7.3-.7.7V145c0 .4.3.7.7.7h28.5c.4 0 .7-.3.7-.7v-20c0-.4-.3-.8-.7-.8z"/><path d="M407.4 154.2c1 0 1.9-.8 1.9-1.9 0-1-.8-1.9-1.9-1.9s-1.9.8-1.9 1.9c.1 1.1.9 1.9 1.9 1.9zM413.4 154.2c1 0 1.9-.8 1.9-1.9 0-1-.8-1.9-1.9-1.9-1 0-1.9.8-1.9 1.9.1 1.1.9 1.9 1.9 1.9zM419.4 154.2c1 0 1.9-.8 1.9-1.9 0-1-.8-1.9-1.9-1.9-1 0-1.9.8-1.9 1.9 0 1.1.9 1.9 1.9 1.9z"/><path class="st2" d="M428.4 127.6H402v17.5h26.4v-17.5zM138.8 15.3H71.6v86.9h67.3V15.3z"/><path class="st0" d="M298.6 37.8h9c.1 0 .2-.1.3-.2l2.2-6.9h-13.7l2.1 6.9c0 .1.1.2.1.2z"/><path class="st0" d="M288.5 50.9h27.7c2.4 0 4.3-1.9 4.3-4.3V30.8h-9.4l-2.3 7.2c-.1.3-.2.5-.5.6-.2.2-.5.2-.7.2h-8.8c-.3 0-.5-.1-.7-.3-.2-.2-.4-.4-.5-.6l-2.2-7.2h-11.1v15.8c-.1 2.4 1.9 4.4 4.2 4.4zm16.8-10.7c.3-.3.6-.4 1-.4s.7.1 1 .4c.3.3.4.6.4 1s-.1.7-.4 1c-.3.3-.6.4-1 .4s-.8-.1-1-.4c-.3-.3-.4-.6-.4-1s.1-.7.4-1zm-5.8 0c.3-.3.6-.4 1-.4s.7.1 1 .4c.3.3.4.6.4 1s-.1.7-.4 1c-.3.3-.6.4-1 .4s-.8-.1-1-.4c-.3-.3-.4-.6-.4-1s.1-.7.4-1z"/><path d="M300.5 43.2c-.5 0-1-.2-1.4-.6-.4-.4-.6-.8-.6-1.4 0-.5.2-1 .6-1.4.4-.4.9-.6 1.4-.6.5 0 1 .2 1.4.6.4.4.6.8.6 1.4 0 .6-.2 1-.6 1.4-.4.4-.8.6-1.4.6z"/><path d="M300.5 39.8c.4 0 .7.1 1 .4.3.3.4.6.4 1s-.1.7-.4 1c-.3.3-.6.4-1 .4s-.8-.1-1-.4c-.3-.3-.4-.6-.4-1s.1-.7.4-1c.3-.3.6-.4 1-.4zm0-1c-.7 0-1.3.2-1.8.7-.5.5-.8 1.1-.8 1.8s.3 1.3.8 1.8 1.1.7 1.8.7 1.3-.3 1.8-.7c.5-.5.7-1.1.7-1.8s-.3-1.3-.8-1.8c-.4-.5-1-.7-1.7-.7zM306.3 43.2c-.5 0-1-.2-1.4-.6-.4-.4-.6-.8-.6-1.4s.2-1 .6-1.4c.4-.4.9-.6 1.4-.6.5 0 1 .2 1.4.6.4.4.6.8.6 1.4 0 .5-.2 1-.6 1.4-.4.4-.9.6-1.4.6z"/><path d="M306.3 39.8c.4 0 .7.1 1 .4.3.3.4.6.4 1s-.1.7-.4 1c-.3.3-.6.4-1 .4s-.8-.1-1-.4c-.3-.3-.4-.6-.4-1s.1-.7.4-1 .6-.4 1-.4zm0-1c-.7 0-1.3.2-1.8.7-.5.5-.8 1.1-.8 1.8s.3 1.3.8 1.8 1.1.7 1.8.7 1.3-.3 1.8-.7c.5-.5.7-1.1.7-1.8s-.3-1.3-.8-1.8c-.4-.5-1-.7-1.7-.7z"/><path d="M298.8 39.4c-.4 0-.7-.1-1.1-.4-.3-.2-.5-.5-.7-.9l-2.4-7.8h2.1l2.2 7.1h8.5l2.3-7.1h2.1l-2.5 7.8c-.1.4-.3.7-.6.9-.3.2-.7.3-1.1.3h-8.8v.1z"/><path d="m311.1 30.8-2.3 7.2c-.1.3-.2.5-.5.6-.2.2-.5.2-.7.2h-8.8c-.3 0-.5-.1-.7-.3-.2-.2-.4-.4-.5-.6l-2.2-7.2h1l2.1 6.9c0 .1.1.1.1.2h9c.1 0 .2-.1.3-.2l2.2-6.9h1zm1.4-1h-3.2l-.2.7-2 6.4h-7.8l-2-6.4-.2-.7h-3.2l.4 1.3 2.2 7.2c.1.5.4.9.8 1.2.4.3.9.5 1.4.5h8.8c.5 0 .9-.1 1.3-.4.4-.3.7-.7.9-1.2l2.3-7.2.5-1.4z"/><path class="st3" d="M110.2 65.4c4 1.5 6.5 3.9 6.5 6.6 0 4.6-7.4 8.3-16.5 8.3S83.7 76.6 83.8 72c0-2.7 2.6-5.1 6.5-6.6-4-1.5-6.5-3.9-6.5-6.6 0-2.7 2.6-5.1 6.5-6.6-4-1.5-6.5-3.9-6.5-6.6 0-4.6 7.4-8.3 16.5-8.3s16.4 3.7 16.4 8.3c0 2.7-2.6 5.1-6.5 6.6 4 1.5 6.5 3.9 6.5 6.6 0 2.7-2.6 5.1-6.5 6.6z"/><path class="st4" d="M115.1 63.8c4 1.5 6.5 3.9 6.5 6.6 0 4.6-7.4 8.3-16.5 8.3S88.7 75 88.7 70.4c0-2.7 2.6-5.1 6.5-6.6-4-1.5-6.5-3.9-6.5-6.6 0-2.7 2.6-5.1 6.5-6.6-4-1.5-6.5-3.9-6.5-6.6 0-4.6 7.4-8.3 16.5-8.3s16.4 3.7 16.4 8.3c0 2.7-2.6 5.1-6.5 6.6 4 1.5 6.5 3.9 6.5 6.6 0 2.6-2.5 5.1-6.5 6.6z"/><path class="st1" d="M313.3 9.8h-27.7c-2.4 0-4.3 1.9-4.3 4.3v27.7c0 2.4 1.9 4.3 4.3 4.3h27.7c2.4 0 4.3-1.9 4.3-4.3V14.1c0-2.3-2-4.3-4.3-4.3z"/><path d="M297.5 35.1c.4 0 .7.1 1 .4.3.3.4.6.4 1s-.1.7-.4 1c-.3.3-.6.4-1 .4s-.8-.1-1-.4c-.3-.3-.4-.6-.4-1s.1-.7.4-1c.3-.3.6-.4 1-.4zm5.8 0c.4 0 .7.1 1 .4.3.3.4.6.4 1s-.1.7-.4 1c-.3.3-.6.4-1 .4s-.8-.1-1-.4c-.3-.3-.4-.6-.4-1s.1-.7.4-1c.3-.3.6-.4 1-.4zm-11-12.6 3.2 10.5c0 .1.1.1.1.2h9c.1 0 .2-.1.3-.2l3.2-10.1v-.1c0-.1 0-.2-.1-.2-.1-.1-.1-.1-.2-.1h-15.5zm-.3-1h15.9c.4 0 .7.1.9.4.2.2.4.5.4.9 0 .1 0 .3-.1.4l-3.2 10.1c-.1.3-.2.5-.5.6-.2.2-.5.2-.7.2h-8.8c-.3 0-.5-.1-.7-.3-.2-.2-.4-.4-.5-.6l-3.4-11.1c-.2-.8-.6-1.6-1.1-2.3-.5-.6-1-.9-1.7-.9-.1 0-.3-.1-.4-.1-.1-.1-.1-.2-.1-.4 0-.1.1-.3.1-.4.1-.1.2-.1.4-.1 1.1 0 1.9.5 2.5 1.4.4.8.8 1.5 1 2.2z"/><path d="M321.1 13.9c1.6-3.1.4-7-2.8-8.6-3.1-1.6-7-.4-8.6 2.8-1.6 3.1-.4 7 2.8 8.6 3.1 1.6 7 .3 8.6-2.8z" style="fill:#f0f0f1;stroke:#212121;stroke-width:.7736;stroke-miterlimit:10"/><path class="st2" d="M320.7 13.7c1.4-2.7.3-6-2.4-7.4-2.7-1.4-6-.3-7.4 2.4s-.3 6 2.4 7.4c2.7 1.3 6 .3 7.4-2.4z"/><path d="M317.5 12.3c0 1.2-1 2.2-2.3 2.2-1.2 0-1.9-.5-2.2-1 .2-.3.5-.6.9-.6.3 0 .5.1.7.4.3.6.5.8.9.8s.8-.4.8-1.3c0-1.2-1.1-1.8-1.9-1.8v-.3c.6-.2 1.5-.6 1.5-1.5 0-.5-.4-.9-1-.9-.7 0-1 .4-1.3.7l-.3-.2c.3-.7.9-1.5 2.2-1.5 1.3 0 1.9.7 1.9 1.5 0 .9-.7 1.4-1.3 1.6.7.3 1.4 1 1.4 1.9z"/></svg>