<svg xmlns="http://www.w3.org/2000/svg" width="162" height="134"><style><![CDATA[.B{fill:#fff}.C{fill-rule:nonzero}.D{stroke-linecap:round}.E{stroke:#a4afb7}.F{stroke-linejoin:round}.G{stroke-width:1.397}.H{stroke-width:1.398}.I{fill:#a4afb7}]]></style><g fill="none" fill-rule="evenodd"><g class="E"><g class="G"><path d="M61.98 75.275c-8.022 2.542-16.67 10.308-21.96 7.668-3.42-1.707-6.616-13.6-11.274-18.15-2.814-2.75-4.152-3.477-5.39-4.136-3.755-2-5.346-1.638-5.346-3.387 0-2.268 4.933-2.786 10.147 2.237.368.354-4.812-4.02-6.085-5.023-1.408-1.108-2.738-2.34-2.027-3.653 1.192-2.2 4.01-.432 5.886 1.844 1.657 2 3.473 4.415 2.814 3.276-1.404-2.427 2.05-4.538 3.375-4.957s3.693-.56 4.477.916c.435.817.173 1.607-.785 2.174-1.23.73-3.824 1.085-4.3 3.185-.33 1.456.607 3.04 3.01 1.24 1.465-1.096.518-2.99 2.073-4.264s3.36-.71 3.36 1.1c0 6.018-4.688 7.117-4.47 7.488 2.073 3.515 5.7 10.152 6.776 11.245 5.14 5.215 13.53-9.38 16.52-8.028" class="B C D F"/><path d="M37.3 9.38a4.19 4.19 0 0 1 4.19 4.19V37.9a4.19 4.19 0 0 1-4.19 4.19L35.5 42.1v4.162a.84.84 0 0 1-.128.445l-.07.095a.84.84 0 0 1-1.181.101L28.408 42.1l-15.537.001a4.19 4.19 0 0 1-4.19-4.19V13.57a4.19 4.19 0 0 1 4.19-4.19H37.3z" fill="#c2cbd2"/></g><path d="M3.793 3.095l2.793 3.5M11.125 1v4.2M1 10.776l3.5.698" stroke-width="1.257" class="D"/><path d="M118.92 25.86l-52.147-.818c-3.543-.056-6.936 1.426-9.303 4.062l-2.9 3.218a16.06 16.06 0 0 0-1.914 2.622c-1.978 3.38-2.987 5.913-3.042 7.537-.703 20.972-.86 36.2-.467 45.675.178 4.312.766 8.138 1.76 11.48a16.06 16.06 0 0 0 15.393 11.479h60.045c8.87 0 16.06-7.2 16.06-16.06V45.183a16.06 16.06 0 0 0-11.076-15.267l-12.42-4.055z" class="B C G"/></g><rect x="48.047" y="24.253" width="81.799" height="81.952" rx="21.786" class="B C"/><g class="E G B C"><rect x="48.745" y="24.951" width="80.403" height="80.556" rx="16.758"/><path d="M101.036 108.812l.55 18.724h-1.292c-1.433 0-2.596 1.162-2.596 2.596s1.162 2.596 2.596 2.596h4.068c1.93 0 3.493-1.564 3.493-3.493 0-.594-1.434-9.606-1.127-20.422m-29.153-.001l.55 18.724h-1.292c-1.433 0-2.596 1.162-2.596 2.596s1.162 2.596 2.596 2.596H80.9c1.93 0 3.493-1.564 3.493-3.493 0-.594-1.434-9.606-1.127-20.422" class="D F"/></g><rect fill-opacity=".7" fill="#e6e9ec" x="53.01" y="28.93" width="71.921" height="71.921" rx="11.507" class="C"/><g class="E G"><g class="B"><path d="M49.964 127.586c2.7-.001 4.84 2.226 4.84 4.694H33.4c0-4.628 3.335-8.024 7.963-8.024 3.1 0 4.725 1.082 6.624 3.627.04.054-1.58 1.245-1.54 1.3-.2.424 1.37-1.597 3.517-1.598zm97.414 4.567h-7.362l-1.268-2.22-6.023-10.1-.084-.154c-.896-1.75-.653-3.896 1.097-4.792a3.23 3.23 0 0 1 4.357 1.424 4.79 4.79 0 0 1 .173.414l2.074 6.43c-.1-.562-.567-4.087-1.428-10.574a4.38 4.38 0 0 1 3.989-4.741c.186-.016.372-.02.56-.012l.25.01a4.47 4.47 0 0 1 4.261 4.902l-1.915 14.544c.024.8.698-1.64 2.023-7.314a2.66 2.66 0 0 1 3.785-1.392c1.493.83 1.6 2.232.764 3.727l-5.252 9.837z"/><path d="M135.764 126.694a5.59 5.59 0 0 1 5.582 5.367l.003.218h-11.17a5.59 5.59 0 0 1 5.367-5.581l.22-.004z"/></g><g class="D"><path d="M28.372 132.552h122.894m3.9 0h5.586m-141.328 0h5.586m-10.055 0h1.676"/><path d="M134.296 71.665c5.477 3.2 16.66 8.085 14.07 9.774-6.7 4.374-9.157 2.803-9.157 8.07 0 9.57 6.257 10.82 9.157 8.3s.316-9.85-3.33-8.3 10.14-5.37 10.14-9.32-16.866-16.835-20.88-17.654" class="B C F"/></g></g><g stroke="#fff" stroke-width="3.352" class="D"><path d="M63.556 35.075c-2.26 1.378-3.863 3.13-4.807 5.258"/><path d="M18.088 25.943l5.258 4.807 10.197-11.173" class="F"/></g><g class="B"><circle cx="57.13" cy="45.451" r="1.327"/><path d="M101.596 52.937c3.58 0 6.59 3.053 6.59 7.305 0 2.072-.596 3.67-1.62 4.767-1.658-1.006-3.604-1.584-5.685-1.584-1.456 0-2.846.283-4.117.797-.95-1.174-1.54-2.7-1.54-4.508 0-4.253 2.79-6.777 6.37-6.777z" class="E H"/></g><circle cx="100.882" cy="60.928" r="2.996" class="I"/><path d="M71.563 52.937c-3.58 0-6.59 3.053-6.59 7.305 0 2.072.596 3.67 1.62 4.767 1.658-1.006 3.604-1.584 5.685-1.584 1.456 0 2.846.283 4.117.797.95-1.174 1.54-2.7 1.54-4.508 0-4.253-2.79-6.777-6.37-6.777z" class="B E H"/><circle transform="matrix(-1 0 0 1 143.553672 1)" cx="71.277" cy="59.928" r="2.996" class="I"/><g class="E"><path d="M74.6 43.95c-6.086 1.702-9.13 3.235-9.13 4.597m34.844-4.597c6.086 1.702 9.13 3.235 9.13 4.597" stroke-width="1.394" class="D F"/><path d="M88.415 80.868c5.056 0 8.045-2.648 10.374-4.956-2.76 1.2-4.824 2.66-10.892 2.66s-8.434-1.048-10.987-2.238c3.266 2.986 6.45 4.534 11.505 4.534z" stroke-width=".999" class="F I"/><g class="B H"><path d="M82.732 78.487l4.788.25-.157 2.992a1.8 1.8 0 0 1-1.889 1.701l-1.197-.063a1.8 1.8 0 0 1-1.701-1.889l.157-2.992z"/><path d="M6.006 1H10.8v2.996a1.8 1.8 0 0 1-1.798 1.798h-1.2a1.8 1.8 0 0 1-1.798-1.798V1z" transform="matrix(-.99863 .052336 .052336 .99863 98.220958 77.17487)"/></g><path d="M104.49 48.955c8.74.196 13.197 1.28 13.37 3.252v3.705c-1.065.337-1.67.955-1.816 1.854-1.542 9.527-4.236 13.15-11.877 13.15-7.723 0-14.822-3.84-15.763-14.117-.05-.558-.72-.854-2.006-.887l-.22.01c-1.142.06-1.738.353-1.786.878-.94 10.278-8.04 14.117-15.763 14.117-7.64 0-10.335-3.624-11.877-13.15-.136-.84-.672-1.434-1.61-1.783l-.207-.07v-3.705c.173-1.972 4.63-3.055 13.37-3.252 6.485-.146 11.384.91 14.684 2.67.674.36 1.702.553 3.083.58l.325.003c1.546 0 2.682-.194 3.408-.582 3.3-1.76 8.2-2.815 14.684-2.67zm-34.136 3.068c-4.59-.1-7.715.117-9.076 1.91-.996 1.312-.837 3.45-.603 5.302.298 2.368 1.022 4.483 1.964 5.722 1.06 1.395 3.033 2.556 6.496 2.556 3.87 0 7.5-1.41 9.37-3.605.894-1.056 3.71-5.835 2.478-8.687-.207-.48-.735-2.96-10.628-3.196zm41.316 1.91c-1.36-1.792-4.487-2.02-9.076-1.91-9.893.237-10.42 2.716-10.628 3.196-1.23 2.853 1.584 7.63 2.478 8.687 1.86 2.196 5.5 3.605 9.37 3.605 3.463 0 5.436-1.16 6.496-2.556.942-1.24 1.666-3.354 1.964-5.722.234-1.853.393-4-.603-5.302z" stroke-width="1.119" class="B"/></g></g></svg>