	<svg
		width="96"
		height="32"
		viewBox="0 0 96 32"
		fill="none"
		xmlns="http://www.w3.org/2000/svg"
	>
		<rect width="32" height="32" rx="16" fill="#8E9196" />
		<mask
			id="cod-mask-0"
			mask-type="alpha"
			maskUnits="userSpaceOnUse"
			x="7"
			y="10"
			width="18"
			height="12"
		>
			<path
				fill-rule="evenodd"
				clip-rule="evenodd"
				d="M22 13H19.75V10H9.25C8.425 10 7.75 10.675 7.75 11.5V19.75H9.25C9.25 20.995 10.255 22 11.5 22C12.745 22 13.75 20.995 13.75 19.75H18.25C18.25 20.995 19.255 22 20.5 22C21.745 22 22.75 20.995 22.75 19.75H24.25V16L22 13ZM21.625 14.125L23.095 16H19.75V14.125H21.625ZM10.75 19.75C10.75 20.1625 11.0875 20.5 11.5 20.5C11.9125 20.5 12.25 20.1625 12.25 19.75C12.25 19.3375 11.9125 19 11.5 19C11.0875 19 10.75 19.3375 10.75 19.75ZM13.165 18.25C12.7525 17.7925 12.1675 17.5 11.5 17.5C10.8325 17.5 10.2475 17.7925 9.835 18.25H9.25V11.5H18.25V18.25H13.165ZM19.75 19.75C19.75 20.1625 20.0875 20.5 20.5 20.5C20.9125 20.5 21.25 20.1625 21.25 19.75C21.25 19.3375 20.9125 19 20.5 19C20.0875 19 19.75 19.3375 19.75 19.75Z"
				fill="white"
			/>
		</mask>
		<g mask="url(#cod-mask-0)">
			<rect x="7" y="7" width="18" height="18" fill="white" />
		</g>
		<mask
			id="cod-mask-1"
			mask-type="alpha"
			maskUnits="userSpaceOnUse"
			x="39"
			y="10"
			width="18"
			height="12"
		>
			<path
				d="M39 17L53.17 17L49.59 20.59L51 22L57 16L51 10L49.59 11.41L53.17 15L39 15L39 17Z"
				fill="white"
			/>
		</mask>
		<g mask="url(#cod-mask-1)">
			<rect
				x="60"
				y="28"
				width="24"
				height="24"
				transform="rotate(-180 60 28)"
				fill="#8E9196"
			/>
		</g>
		<rect x="64" width="32" height="32" rx="16" fill="#8E9196" />
		<mask
			id="cod-mask-2"
			mask-type="alpha"
			maskUnits="userSpaceOnUse"
			x="76"
			y="9"
			width="8"
			height="14"
		>
			<path
				d="M80.2926 15.175C78.5901 14.7325 78.0426 14.275 78.0426 13.5625C78.0426 12.745 78.8001 12.175 80.0676 12.175C81.4026 12.175 81.8976 12.8125 81.9426 13.75H83.6001C83.5476 12.46 82.7601 11.275 81.1926 10.8925V9.25H78.9426V10.87C77.4876 11.185 76.3176 12.13 76.3176 13.5775C76.3176 15.31 77.7501 16.1725 79.8426 16.675C81.7176 17.125 82.0926 17.785 82.0926 18.4825C82.0926 19 81.7251 19.825 80.0676 19.825C78.5226 19.825 77.9151 19.135 77.8326 18.25H76.1826C76.2726 19.8925 77.5026 20.815 78.9426 21.1225V22.75H81.1926V21.1375C82.6551 20.86 83.8176 20.0125 83.8176 18.475C83.8176 16.345 81.9951 15.6175 80.2926 15.175Z"
				fill="white"
			/>
		</mask>
		<g mask="url(#cod-mask-2)">
			<rect x="71" y="7" width="18" height="18" fill="white" />
		</g>
	</svg>