<svg fill="none" viewBox="0 0 677 200" height="30" width="100" xmlns="http://www.w3.org/2000/svg"><g fill="#000"><path d="M286.342 65.313c-37.175 0-67.35 30.242-67.35 67.344 0 37.101 30.245 67.343 67.35 67.343 37.106 0 67.35-30.242 67.35-67.343 0-37.102-30.174-67.344-67.35-67.344zm0 102.835c-19.533 0-35.425-15.89-35.425-35.421s15.892-35.422 35.425-35.422 35.426 15.891 35.426 35.422-15.893 35.421-35.426 35.421z" fill-rule="evenodd"/><path d="M510.375 42.002c11.6 0 21.003-9.402 21.003-21.001C531.378 9.402 521.975 0 510.375 0c-11.599 0-21.003 9.402-21.003 21.001 0 11.599 9.404 21.001 21.003 21.001z"/><path d="M148.842 65.383c-1.75-.14-3.431-.21-5.181-.21-16.242 0-31.644 6.65-42.706 18.411-11.062-11.69-26.394-18.41-42.496-18.41C26.254 65.173 0 91.353 0 123.555v73.714h31.505v-72.804c0-13.37 10.991-25.691 23.943-27.021.91-.07 1.82-.14 2.66-.14 14.563 0 26.465 11.9 26.535 26.461v73.504h32.204v-72.944c0-13.3 10.922-25.621 23.944-26.951.91-.07 1.82-.14 2.66-.14 14.562 0 26.534 11.83 26.604 26.321v73.714h32.205v-72.804a59.782 59.782 0 00-15.332-39.972c-9.872-11.06-23.384-17.85-38.086-19.11z" fill-rule="evenodd"/><path d="M403.26 3.15h-32.205v194.26h32.205zM464.869 3.15h-32.205v194.26h32.205zM526.478 68.533h-32.205V197.34h32.205z"/><path d="M677 129.646c0-17.08-6.651-33.181-18.693-45.432-12.112-12.25-28.074-19.04-45.086-19.04h-.841c-17.642.21-34.305 7.21-46.766 19.74-12.462 12.53-19.463 29.122-19.673 46.833-.21 18.06 6.721 35.141 19.533 48.092 12.811 12.951 29.754 20.091 47.817 20.091h.07c23.663 0 45.856-12.671 57.968-33.042l1.54-2.59-26.604-13.09-1.33 2.17c-6.651 10.99-18.202 17.501-31.014 17.501-16.383 0-30.525-10.921-34.866-26.462H677zm-65.04-35.211c14.703 0 27.864 9.66 32.485 23.381h-64.899c4.55-13.721 17.712-23.381 32.414-23.381z" fill-rule="evenodd"/></g></svg>
