<svg
    xmlns="http://www.w3.org/2000/svg"
    width="1333.333"
    version="1"
    viewBox="0 0 1000 1000"
>
    <path
        d="M8987 7472c-15-16-17-45-17-194 0-157 2-177 18-191s44-17 189-17c152 0 172 2 186 18 15 16 17 45 17 194 0 157-2 177-18 191s-44 17-189 17c-152 0-172-2-186-18zM9413 7046l-28-24v-520l24-26 24-26h518l24 25 25 24v250c0 162-4 259-11 274-20 43-45 47-304 47-243 0-244 0-272-24zM8623 6435c-44-19-64-54-70-123l-6-59-106-6c-182-11-261-50-293-145-9-28-14-251-18-912l-5-875-29-62c-47-102-124-160-256-194-83-21-356-19-440 4-131 36-203 90-249 187l-26 55-5 875c-5 669-9 884-19 913-20 62-75 115-140 135-82 25-431 25-513-1-70-21-110-54-134-109-18-41-19-90-22-888-2-567 1-877 8-942 45-397 254-684 606-832 100-41 240-81 369-103 156-27 570-24 725 5 224 41 398 107 541 202 92 62 216 193 273 288 27 45 64 126 82 179 61 180 64 217 64 936v647h165c128 0 173 3 195 15 61 31 60 27 60 398 0 377-2 386-65 413-49 20-645 20-692-1zM322 6230c-114-24-221-100-268-192-55-108-54-73-54-1379V3453l23-34c29-44 72-58 172-58s143 14 172 58l23 34v935l473 5c379 4 489 8 557 21 374 72 570 244 656 573 36 135 45 410 20 562-64 379-252 580-626 667-65 15-141 18-590 20-283 1-534-2-558-6zm1107-388c75-27 103-44 154-91 88-82 127-217 127-438-1-343-95-479-370-529-56-10-188-13-513-14H389l3 503c3 457 5 505 21 534 35 64 26 63 512 60 429-2 442-3 504-25zM2665 5600c-114-13-234-38-274-58-62-31-76-61-76-167 0-79 3-98 21-121 32-43 65-49 163-30 175 33 251 40 441 40 272 0 384-28 473-121 62-63 78-123 84-309l6-162-369-5c-387-5-459-12-604-58-155-49-291-151-353-263-56-102-72-176-71-341 0-135 3-158 27-231 64-192 211-329 422-393 123-38 231-52 407-51 526 0 804 152 895 490 16 59 18 123 18 650v585l-23 75c-52 167-144 281-288 357-168 88-292 113-594 118-124 2-261 0-305-5zm832-1452c-7-243-17-288-83-358-49-52-106-81-211-106-89-22-373-25-453-5-198 49-277 155-268 355 3 80 8 99 34 146 50 87 142 139 289 160 27 4 196 8 374 9l324 1-6-202zM4073 5535c-46-20-67-57-59-105 9-57 420-1575 458-1690 42-130 91-221 152-283 64-64 123-94 228-115 68-13 95-14 171-4 50 6 93 10 95 8 7-7-80-211-113-266-37-61-97-122-155-157-48-29-155-60-232-68-130-14-162-36-160-115 2-84 30-166 69-200 32-28 38-30 121-30 98 0 228 26 318 63 229 93 393 294 499 613 53 161 565 2215 565 2269 0 50-21 80-64 91-14 3-70 4-125 2-116-4-142-16-179-89-14-27-95-348-212-837-104-437-198-812-209-835-37-83-92-117-188-117-113 0-163 31-204 126-9 23-106 367-214 765-245 906-247 910-285 943-17 14-47 30-68 36-52 14-171 12-209-5z"
        transform="matrix(.1 0 0 -.1 0 1000)"
    ></path>
</svg>