<svg
	width="100"
	height="64"
	viewBox="-10 0 120 64"
	fill="none"
	xmlns="http://www.w3.org/2000/svg"
>
	<path
		fill-rule="evenodd"
		clip-rule="evenodd"
		d="M9.78073 0.5H91.1787C96.3299 0.5 100.5 4.77335 100.5 10.0522V41.8929C100.5 47.1717 96.3299 51.4451 91.1787 51.4451H61.9883L65.9948 61.5L48.3742 51.4451H9.82161C4.67036 51.4451 0.500298 47.1717 0.500298 41.8929V10.0522C0.459415 4.81524 4.62947 0.5 9.78073 0.5Z"
		fill="#7F54B3"
	/>
	<path
		d="M5.48791 9.1725C6.06028 8.37648 6.91882 7.95752 8.06354 7.87373C10.1486 7.70615 11.3342 8.71165 11.6204 10.8902C12.8877 19.6464 14.2778 27.0619 15.7495 33.1368L24.7029 15.6663C25.5206 14.0743 26.5426 13.2364 27.7691 13.1526C29.568 13.0269 30.6718 14.2 31.1215 16.6718C32.1436 22.2439 33.4519 26.9781 35.0054 31.0001C36.0684 20.3586 37.8672 12.6917 40.402 7.95753C41.0152 6.78445 41.9146 6.19791 43.1002 6.11412C44.0405 6.03033 44.8991 6.3236 45.6759 6.95203C46.4526 7.58047 46.8615 8.37648 46.9432 9.34008C46.9841 10.0942 46.8615 10.7226 46.5344 11.3511C44.94 14.3676 43.6317 19.4369 42.5688 26.4754C41.5467 33.3044 41.1787 38.6251 41.424 42.4376C41.5058 43.485 41.3423 44.4067 40.9334 45.2027C40.4428 46.1244 39.707 46.6272 38.7666 46.711C37.7037 46.7948 36.5998 46.292 35.5369 45.1608C31.7348 41.1807 28.7094 35.2316 26.5018 27.3133C23.8444 32.6759 21.882 36.6979 20.6146 39.3792C18.2025 44.1134 16.1584 46.5434 14.4413 46.6691C13.3374 46.7529 12.3971 45.7893 11.5795 43.7783C9.49445 38.2899 7.24589 27.6904 4.83379 11.9795C4.71114 10.8902 4.91555 9.92662 5.48791 9.1725Z"
		fill="white"
	/>
	<path
		d="M93.3864 15.7499C91.9146 13.1105 89.7478 11.5185 86.8451 10.89C86.0683 10.7225 85.3324 10.6387 84.6374 10.6387C80.7127 10.6387 77.5238 12.7335 75.0299 16.923C72.904 20.4841 71.8411 24.4223 71.8411 28.7376C71.8411 31.9635 72.4952 34.7286 73.8034 37.0329C75.2752 39.6723 77.442 41.2644 80.3447 41.8928C81.1215 42.0604 81.8574 42.1442 82.5524 42.1442C86.518 42.1442 89.7069 40.0494 92.1599 35.8598C94.2858 32.2568 95.3488 28.3186 95.3488 24.0034C95.3488 20.7355 94.6946 18.0123 93.3864 15.7499ZM88.2351 27.355C87.6628 30.1201 86.6407 32.173 85.128 33.5556C83.9424 34.6449 82.8386 35.1057 81.8165 34.8962C80.8353 34.6868 80.0177 33.8069 79.4044 32.173C78.9138 30.8742 78.6685 29.5755 78.6685 28.3605C78.6685 27.3131 78.7503 26.2657 78.9547 25.3021C79.3226 23.5844 80.0177 21.9086 81.1215 20.3166C82.4706 18.2637 83.9015 17.4258 85.3733 17.719C86.3545 17.9285 87.1722 18.8083 87.7854 20.4422C88.276 21.741 88.5213 23.0398 88.5213 24.2547C88.5213 25.344 88.3987 26.3914 88.2351 27.355Z"
		fill="white"
	/>
	<path
		d="M67.7528 15.7499C66.281 13.1105 64.0734 11.5185 61.2116 10.89C60.4348 10.7225 59.6989 10.6387 59.0039 10.6387C55.0791 10.6387 51.8903 12.7335 49.3964 16.923C47.2705 20.4841 46.2075 24.4223 46.2075 28.7376C46.2075 31.9635 46.8616 34.7286 48.1699 37.0329C49.6417 39.6723 51.8085 41.2644 54.7112 41.8928C55.488 42.0604 56.2238 42.1442 56.9189 42.1442C60.8845 42.1442 64.0734 40.0494 66.5263 35.8598C68.6523 32.2568 69.7152 28.3186 69.7152 24.0034C69.7152 20.7355 69.0611 18.0123 67.7528 15.7499ZM62.6016 27.355C62.0292 30.1201 61.0071 32.173 59.4945 33.5556C58.3089 34.6449 57.205 35.1057 56.183 34.8962C55.2018 34.6868 54.3841 33.8069 53.7709 32.173C53.2803 30.8742 53.035 29.5755 53.035 28.3605C53.035 27.3131 53.1167 26.2657 53.3212 25.3021C53.6891 23.5844 54.3841 21.9086 55.4879 20.3166C56.8371 18.2637 58.268 17.4258 59.7398 17.719C60.721 17.9285 61.5386 18.8083 62.1519 20.4422C62.6425 21.741 62.8878 23.0398 62.8878 24.2547C62.8878 25.344 62.806 26.3914 62.6016 27.355Z"
		fill="white"
	/>
</svg>
