<svg version="1.1" id="Layer_1" xmlns="http://www.w3.org/2000/svg" xmlns:xlink="http://www.w3.org/1999/xlink" x="0px" y="0px"
	 width="30px" height="30px" viewBox="0 0 30 30" enable-background="new 0 0 30 30" xml:space="preserve">
<path fill="#FFFFFF" d="M0,15v-4L11,0h4L0,15z M10,0H6L0,6v4L10,0z M20,0h-4L0,16v4L20,0z M25,0h-4L0,21v4L25,0z M26,0L0,26v4L30,0
	H26z M5,0H1L0,1v4L5,0z M5,30L30,5V1L1,30H5z M10,30l20-20V6L6,30H10z M15,30l15-15v-4L11,30H15z M20,30l10-10v-4L16,30H20z M25,30
	l5-5v-4l-9,9H25z M30,30v-4l-4,4H30z"/>
</svg>
