<svg xmlns="http://www.w3.org/2000/svg" xmlns:xlink="http://www.w3.org/1999/xlink" viewBox="0 0 242.5 239.46"><defs><style>.cls-1,.cls-6{fill:none;}.cls-2{clip-path:url(#clip-path);}.cls-3{fill:#33c6f4;}.cls-4{fill:#1b447e;}.cls-5{fill:#fff;}.cls-6{stroke:#221e1f;stroke-miterlimit:10;stroke-width:7.16px;}</style><clipPath id="clip-path" transform="translate(1.72)"><circle class="cls-1" cx="119.73" cy="119.73" r="116.15"/></clipPath></defs><g id="Layer_2" data-name="Layer 2"><g id="Layer_1" data-name="Layer 1"><g class="cls-2"><circle class="cls-3" cx="121.45" cy="119.73" r="116.15"/><path class="cls-4" d="M239.32,167.79c-53.41-24-108.37-91.46-113-94.55s-10.84.77-10.84.77c-3.87-6.19-10.06.77-10.06.77C76.77,123.55.14,170.11.14,170.11S36.94,237.79,122,237.79C208.48,237.79,239.32,167.79,239.32,167.79Z" transform="translate(1.72)"/><path class="cls-5" d="M67.48,116.58s15.48-7,12.38,4.65-15.48,28.64-11.61,29.41S83,140.58,86.06,142.12s5.42.78,3.87,6.2-3.1,9.29,0,9.29,5.42-7,9.29-13.94,10.06-3.87,12.38-1.55,9.29,15.49,14.71,13.94,8.51-8.52,6.19-24,1.55-20.12,1.55-20.12,4.64-2.32,13.16,8.51,24,27.09,26.31,26.32-10.83-17.8-7.74-19.35,15.48,2.32,21.68,7.74c0,0,2.12,8.87,2.12.36L126.31,73.24,115.47,74l-10.06.77S80.64,111.94,67.48,116.58Z" transform="translate(1.72)"/><path class="cls-6" d="M239.32,170.11c-53.41-24-108.37-93.78-113-96.87s-10.84.77-10.84.77c-3.87-6.19-10.06.77-10.06.77C76.77,123.55.14,170.11.14,170.11" transform="translate(1.72)"/></g><circle class="cls-6" cx="121.45" cy="119.73" r="116.15"/></g></g></svg>
