<svg width="892" height="830" fill="none" xmlns="http://www.w3.org/2000/svg"><rect y="108" width="203" height="204" rx="2" fill="#E5E5E5"/><rect y="339" width="203" height="204" rx="2" fill="#E5E5E5"/><rect y="570" width="203" height="204" rx="2" fill="#E5E5E5"/><rect x="230" y="108" width="203" height="204" rx="2" fill="#E5E5E5"/><rect x="230" y="339" width="203" height="204" rx="2" fill="#E5E5E5"/><rect x="230" y="570" width="203" height="204" rx="2" fill="#E5E5E5"/><rect x="459" y="108" width="203" height="204" rx="2" fill="#E5E5E5"/><rect x="459" y="339" width="203" height="204" rx="2" fill="#E5E5E5"/><rect x="459" y="570" width="203" height="204" rx="2" fill="#E5E5E5"/><rect x="689" y="108" width="203" height="204" rx="2" fill="#E5E5E5"/><rect x="689" y="339" width="203" height="204" rx="2" fill="#E5E5E5"/><rect x="689" y="570" width="203" height="204" rx="2" fill="#E5E5E5"/><rect width="304" height="71" rx="2" fill="#E5E5E5"/><rect x="631" y="47" width="261" height="24" rx="2" fill="#E5E5E5"/><rect x="399" y="806" width="25" height="24" rx="2" fill="#E5E5E5"/><rect x="434" y="806" width="25" height="24" rx="2" fill="#E5E5E5"/><rect x="469" y="806" width="25" height="24" rx="2" fill="#E5E5E5"/></svg>
