<svg width="902" height="1159" fill="none" xmlns="http://www.w3.org/2000/svg"><rect width="455.04" height="453" rx="2" fill="#E5E5E5"/><rect x="474.211" width="426.789" height="71.315" rx="2" fill="#E5E5E5"/><rect x="474.211" y="147.652" width="426.789" height="17.075" rx="2" fill="#E5E5E5"/><rect x="475" y="175" width="426.789" height="17.075" rx="2" fill="#E5E5E5"/><rect y="605" width="801" height="17" rx="2" fill="#E5E5E5"/><rect y="633" width="801" height="17" rx="2" fill="#E5E5E5"/><rect y="661" width="801" height="17" rx="2" fill="#E5E5E5"/><rect y="689" width="801" height="17" rx="2" fill="#E5E5E5"/><rect x="474.211" y="255" width="141.254" height="53.235" rx="2" fill="#E5E5E5"/><rect x="474.211" y="90" width="83.744" height="18.08" rx="2" fill="#E5E5E5"/><rect y="882" width="276.939" height="276.939" rx="2" fill="#E5E5E5"/><rect x="312.031" y="882" width="276.939" height="276.939" rx="2" fill="#E5E5E5"/><rect x="624.061" y="882" width="276.939" height="276.939" rx="2" fill="#E5E5E5"/><rect x="1" y="810" width="264" height="36" rx="2" fill="#E5E5E5"/><rect x="1" y="535" width="202" height="36" rx="2" fill="#E5E5E5"/><rect x="228" y="535" width="202" height="36" rx="2" fill="#E5E5E5"/><rect x="455" y="535" width="202" height="36" rx="2" fill="#E5E5E5"/></svg>
