<svg width="108" height="28" viewBox="0 0 108 28" fill="none" xmlns="http://www.w3.org/2000/svg">
<g clip-path="url(#clip0_4001_340353)">
<path d="M10.1455 19.1252L13.0944 5.05078H16.1238L14.9749 10.5733L15.0285 10.6001C15.4282 10.1406 15.9228 9.77328 16.4782 9.52336C17.0335 9.27344 17.6365 9.14691 18.2455 9.15248C19.8272 9.15248 20.7387 10.0908 20.7387 11.6457C20.7243 12.245 20.6512 12.8415 20.5204 13.4265L19.3408 19.1252H16.3115L17.4604 13.6027C17.5529 13.1977 17.6054 12.7847 17.6174 12.3695C17.6174 11.7797 17.3493 11.3508 16.6791 11.3508C15.714 11.3508 14.6685 12.4767 14.2932 14.2729L13.2744 19.0984L10.1455 19.1252Z" fill="#010101"/>
<path d="M26.4717 23.0392L28.5896 12.9592C28.8308 11.8332 29.0721 10.3051 29.2061 9.31319H31.887L31.7261 10.7877H31.7874C32.1627 10.2879 32.6473 9.88071 33.2043 9.59725C33.7613 9.31379 34.3757 9.1616 35.0006 9.15234C37.2257 9.15234 38.1104 10.8145 38.1104 12.6643C38.1104 16.0153 35.7781 19.3396 32.2164 19.3396C31.6081 19.3552 31.0039 19.2362 30.447 18.9911H30.3934L29.5547 23.066L26.4908 23.0392H26.4717ZM30.8147 16.8464C31.1779 17.1155 31.6231 17.2508 32.0747 17.2294C33.7636 17.2294 34.9125 14.6826 34.9125 12.9132C34.9125 12.1472 34.6215 11.3813 33.71 11.3813C32.6644 11.3813 31.6725 12.5072 31.324 14.2498L30.8147 16.8464Z" fill="#010101"/>
<path d="M54.268 6.73828L53.705 9.36551H55.9148L55.4858 11.4298H53.2607L52.4948 15.0757C52.4067 15.4453 52.3528 15.8222 52.3339 16.2017C52.3339 16.711 52.602 17.0327 53.2454 17.0327C53.5146 17.04 53.7838 17.022 54.0497 16.9791L53.7012 19.1238C53.1144 19.2735 52.5105 19.3456 51.905 19.3383C50.1088 19.3383 49.2241 18.4804 49.2241 17.2204C49.2282 16.6421 49.3002 16.0662 49.4386 15.5047L50.2965 11.4566H48.9561L49.4041 9.39232H50.7446L51.1275 7.59615L54.268 6.73828Z" fill="#010101"/>
<path d="M61.9622 19.1233C61.989 18.5604 62.0426 17.9438 62.0962 17.2736H62.0426C61.1043 18.8055 59.8175 19.311 58.6916 19.311C56.8686 19.311 55.7158 17.9974 55.7158 16.0404C55.7158 12.3408 57.4584 9.25781 62.9541 9.25781C64.0775 9.26176 65.1954 9.41502 66.2784 9.71356L65.1792 14.7804C64.8929 16.2012 64.7492 17.6471 64.7503 19.0965H61.9622V19.1233ZM62.8737 11.4293C62.6223 11.373 62.3653 11.346 62.1077 11.3489C59.8558 11.3489 58.8103 13.5204 58.8103 15.4774C58.8103 16.4157 59.132 17.0591 59.9592 17.0591C60.8707 17.0591 61.8741 16.0404 62.3452 13.8153L62.8737 11.4293Z" fill="#010101"/>
<path d="M72.6321 6.73828L72.0959 9.36551H74.321L73.8921 11.4298H71.667L70.8512 15.0757C70.7631 15.4453 70.7093 15.8222 70.6904 16.2017C70.6904 16.711 70.9585 17.0327 71.6019 17.0327C71.871 17.0398 72.1403 17.0219 72.4061 16.9791L72.0576 19.1238C71.4708 19.2735 70.867 19.3456 70.2614 19.3383C68.4653 19.3383 67.5806 18.4804 67.5806 17.2204C67.5827 16.6419 67.6548 16.0659 67.7951 15.5047L68.6529 11.4566H67.3125L67.7414 9.39232H69.0819L69.4648 7.59615L72.6321 6.73828Z" fill="#010101"/>
<path d="M91.9873 19.1251L93.3813 12.5302C93.6494 11.3238 93.8103 10.2515 93.9443 9.36683H96.5984L96.4107 10.8681H96.4643C96.8738 10.333 97.4014 9.8997 98.0059 9.60208C98.6105 9.30446 99.2756 9.15055 99.9494 9.15236C101.638 9.15236 102.523 10.1443 102.523 11.6724C102.51 12.2486 102.447 12.8227 102.335 13.3881L101.129 19.1711H98.0996L99.2792 13.5681C99.3398 13.2136 99.3756 12.8553 99.3865 12.4958C99.3865 11.8792 99.1452 11.4502 98.4482 11.4502C97.5367 11.4502 96.4375 12.5226 96.0086 14.6136L95.0703 19.2094L91.9873 19.1558V19.1251Z" fill="#010101"/>
<path d="M25.2767 8.06377H25.3303C26.2686 8.06377 27.0729 7.50079 27.0997 6.48207C27.0988 6.29119 27.0584 6.10256 26.9809 5.92813C26.9033 5.75371 26.7904 5.59728 26.6493 5.46875C26.5082 5.34022 26.3419 5.2424 26.161 5.18148C25.9801 5.12056 25.7885 5.09786 25.5984 5.11483C25.3838 5.10349 25.169 5.13466 24.9665 5.20656C24.764 5.27846 24.5776 5.38966 24.4182 5.53379C24.2588 5.67792 24.1294 5.85213 24.0375 6.04641C23.9456 6.2407 23.893 6.45122 23.8827 6.6659V6.69654C23.8684 6.88205 23.8949 7.06843 23.9603 7.24261C24.0257 7.4168 24.1284 7.57457 24.2612 7.70484C24.3941 7.83512 24.5538 7.93476 24.7292 7.99676C24.9046 8.05877 25.0915 8.08164 25.2767 8.06377Z" fill="#010101"/>
<path d="M26.3375 9.28516H23.3885L22.1285 15.34C21.9864 15.8918 21.9143 16.4592 21.9141 17.029C21.9141 18.2622 22.7719 19.12 24.5681 19.12C25.1635 19.1342 25.7583 19.0711 26.3375 18.9324L26.686 16.8145C26.4201 16.8571 26.1509 16.8751 25.8817 16.8681C25.2383 16.8681 24.997 16.5732 24.997 16.0639C24.9999 15.6893 25.054 15.3169 25.1579 14.9571L26.3375 9.28516Z" fill="#010101"/>
<path d="M77.8597 8.06377H77.9133C78.8516 8.06377 79.6559 7.50079 79.6827 6.48207C79.6819 6.29119 79.6414 6.10256 79.5639 5.92813C79.4863 5.75371 79.3734 5.59728 79.2323 5.46875C79.0912 5.34022 78.9249 5.2424 78.744 5.18148C78.5631 5.12056 78.3715 5.09786 78.1814 5.11483C77.9668 5.10349 77.752 5.13466 77.5495 5.20656C77.347 5.27846 77.1606 5.38966 77.0012 5.53379C76.8418 5.67792 76.7124 5.85213 76.6205 6.04641C76.5286 6.2407 76.476 6.45122 76.4657 6.6659V6.69654C76.4514 6.88205 76.4779 7.06843 76.5433 7.24261C76.6087 7.4168 76.7114 7.57457 76.8442 7.70484C76.9771 7.83512 77.1368 7.93476 77.3122 7.99676C77.4876 8.05877 77.6745 8.08164 77.8597 8.06377Z" fill="#010101"/>
<path d="M78.9586 9.28516H76.0096L74.7496 15.34C74.6112 15.8925 74.5392 16.4595 74.5352 17.029C74.5352 18.2622 75.393 19.12 77.1892 19.12C77.7846 19.1342 78.3794 19.0711 78.9586 18.9324L79.3071 16.8145C79.0439 16.8581 78.7772 16.8773 78.5105 16.872C77.8671 16.872 77.6258 16.5771 77.6258 16.0677C77.6331 15.696 77.6871 15.3267 77.7866 14.9686L78.9586 9.28516Z" fill="#010101"/>
<path d="M6.51028 11.4566C5.27709 10.6907 4.55326 10.0894 4.55326 9.36558C4.55326 8.53451 5.31922 7.8643 6.72475 7.8643C7.69703 7.90292 8.64507 8.17905 9.48602 8.66856L10.0758 6.2826V6.22898C9.09975 5.71908 8.01361 5.4561 6.91241 5.46302C3.4273 5.46302 1.38985 7.04473 1.38985 9.806C1.38985 11.3877 2.62305 12.5673 4.0439 13.4252C5.27709 14.1222 5.89368 14.4975 5.89368 15.2749C5.89368 16.3205 4.84815 16.9103 3.61496 16.8834C2.38177 16.8566 1.2022 16.2132 0.451557 15.8111L-0.165039 18.3311C0.925082 18.9434 2.15035 19.2751 3.40049 19.2962C6.72475 19.2962 9.0839 18.0362 9.0839 14.7924C9.12603 13.3332 8.16092 12.3681 6.51028 11.4566Z" fill="#010101"/>
<path d="M44.8849 11.4567C43.6517 10.6907 42.9279 10.0894 42.9279 9.36561C42.9279 8.53454 43.6938 7.86433 45.0994 7.86433C46.1181 7.83752 47.1368 8.29327 47.8874 8.66859L48.4504 6.28263V6.22901C47.4746 5.71838 46.3883 5.45535 45.287 5.46306C41.8019 5.46306 39.7645 7.04476 39.7645 9.80603C39.7645 11.3877 40.9977 12.5673 42.4185 13.4252C43.6517 14.1222 44.2683 14.4975 44.2683 15.275C44.2683 16.3205 43.2228 16.9103 41.9704 16.8835C40.7181 16.8567 39.5577 16.2133 38.807 15.8111L38.1904 18.3043C39.281 18.9156 40.506 19.2472 41.756 19.2694C45.0802 19.2694 47.4394 18.0094 47.4394 14.7656C47.4892 13.3333 46.4934 12.3682 44.8849 11.4567Z" fill="#010101"/>
<path d="M103.622 8.53407C103.613 8.30331 103.653 8.07321 103.741 7.85965C103.829 7.64609 103.963 7.45414 104.132 7.29704C104.29 7.13061 104.482 6.99928 104.694 6.91155C104.907 6.82381 105.135 6.78161 105.365 6.78768C105.677 6.78458 105.983 6.86811 106.25 7.02896C106.515 7.18865 106.737 7.41253 106.893 7.68002C107.053 7.94718 107.137 8.25325 107.134 8.5647C107.11 9.01626 106.913 9.44109 106.583 9.7509C106.254 10.0607 105.818 10.2316 105.366 10.2282C104.913 10.2247 104.48 10.0472 104.155 9.73237C103.831 9.41757 103.64 8.98977 103.622 8.5379V8.53407ZM103.837 8.53407C103.829 8.73538 103.866 8.93595 103.944 9.12137C104.023 9.30679 104.142 9.47244 104.293 9.60641C104.43 9.75233 104.597 9.86816 104.781 9.9466C104.966 10.025 105.164 10.0644 105.365 10.0622C105.769 10.0574 106.154 9.89363 106.437 9.60641C106.712 9.31684 106.865 8.93305 106.865 8.53407C106.865 8.13508 106.712 7.75129 106.437 7.46173C106.3 7.31599 106.133 7.20028 105.949 7.12185C105.764 7.04343 105.566 7.00398 105.365 7.00598C104.965 7.00358 104.58 7.15751 104.293 7.43492C104.001 7.72638 103.837 8.12175 103.837 8.53407ZM104.695 9.55279V7.54215H105.499C105.665 7.54289 105.825 7.59957 105.955 7.703C106.016 7.75635 106.064 7.82244 106.096 7.89657C106.129 7.9707 106.145 8.05105 106.142 8.13194C106.148 8.21719 106.134 8.3026 106.102 8.3816C106.069 8.46061 106.019 8.5311 105.955 8.58768C105.866 8.67227 105.754 8.7283 105.633 8.74853L106.169 9.55279H105.848L105.338 8.74853H104.955V9.55279H104.695ZM104.963 8.50726H105.526C105.571 8.50654 105.616 8.49668 105.657 8.47825C105.699 8.45983 105.736 8.43322 105.767 8.40002C105.837 8.32843 105.877 8.23218 105.877 8.13194C105.877 8.03169 105.837 7.93544 105.767 7.86385C105.737 7.82993 105.7 7.80283 105.658 7.78434C105.616 7.76586 105.571 7.75641 105.526 7.75662H104.963V8.50726Z" fill="#010101"/>
<path d="M86.76 20.2507H84.8451L84.577 18.5886C84.1499 18.4854 83.7424 18.3134 83.3706 18.0792L82.0034 19.0979L80.6362 17.7307L81.6549 16.3635C81.442 15.9809 81.2713 15.5764 81.1455 15.1571L79.4834 14.9158V13.0009L81.1455 12.7596C81.2487 12.3325 81.4207 11.925 81.6549 11.5533L80.6362 10.186L82.0034 8.81878L83.3706 9.83751C83.752 9.62229 84.1568 9.45139 84.577 9.32814L84.8183 7.66602H86.7332L86.9745 9.32814C87.4027 9.42792 87.8107 9.60019 88.1808 9.83751L89.5481 8.81878L90.9153 10.186L89.8966 11.5533C90.1085 11.9363 90.2793 12.3406 90.406 12.7596L92.0681 13.0009V14.9158L90.406 15.1571C90.3021 15.584 90.1301 15.9913 89.8966 16.3635L90.9153 17.7307L89.5481 19.0979L88.1808 18.0792C87.7975 18.2905 87.3932 18.4612 86.9745 18.5886L86.76 20.2507ZM85.7872 11.8596C85.3748 11.8649 84.9732 11.992 84.6329 12.225C84.2926 12.458 84.0287 12.7864 83.8746 13.1689C83.7204 13.5514 83.6828 13.971 83.7665 14.3748C83.8502 14.7787 84.0514 15.1488 84.3449 15.4385C84.6384 15.7283 85.011 15.9248 85.4159 16.0033C85.8207 16.0819 86.2398 16.0389 86.6203 15.8799C87.0009 15.7209 87.3259 15.4529 87.5545 15.1096C87.7831 14.7663 87.9051 14.3631 87.9051 13.9507C87.8981 13.3937 87.6718 12.8618 87.2754 12.4704C86.879 12.079 86.3443 11.8596 85.7872 11.8596Z" fill="#70BF46"/>
</g>
<defs>
<clipPath id="clip0_4001_340353">
<rect width="107.234" height="18" fill="white" transform="translate(0 5)"/>
</clipPath>
</defs>
</svg>
