<svg width="268" height="174" viewBox="0 0 268 174" fill="none" xmlns="http://www.w3.org/2000/svg">
<g clip-path="url(#clip0_739_56022)">
<rect width="266.544" height="172.8" transform="translate(0.728516 0.799805)" fill="white"/>
<path d="M267.233 167.983H262.049V173.167H267.233V167.983Z" fill="white"/>
<path d="M249.129 18.9416V62.1416H253.449V18.9416H249.129Z" fill="#BEA0F2"/>
<path d="M257.77 5.9816V62.1416H262.09V5.9816H257.77Z" fill="#BEA0F2"/>
<path d="M240.488 31.4696V62.1416H244.808V31.4696H240.488Z" fill="#BEA0F2"/>
<path d="M109.883 164.298L120.327 135.583H147.242L157.686 164.298H177.849V168.415H133.785H89.7207V164.298H109.883Z" fill="#BEA0F2"/>
<path d="M114.651 49.2402H41.2109V122.68H114.651V49.2402Z" fill="#BEA0F2"/>
<path d="M59.5837 87.0293L50.8789 90.1743C47.6777 91.332 47.371 93.3797 48.1961 94.7751C49.1941 96.4555 51.5744 96.2957 54.175 94.5591C56.5985 92.9391 60.3137 90.3471 61.519 89.4787L59.5837 87.0293Z" fill="#271B3D"/>
<path d="M96.2732 87.0293C96.2732 87.0293 103.531 89.6515 104.978 90.1743C108.179 91.332 108.486 93.3797 107.661 94.7751C106.663 96.4555 104.283 96.2957 101.682 94.5591C99.2584 92.9391 95.5432 90.3471 94.3379 89.4787L96.2732 87.0293Z" fill="#271B3D"/>
<path d="M57.6523 79.3276L68.3357 93.5793L68.7807 93.3288L65.9208 77.1201L57.6523 79.3276Z" fill="white"/>
<path d="M64.6686 93.2444C59.9295 93.2444 56.75 89.054 56.75 84.8506C56.75 80.2585 60.8886 78.457 64.7506 78.457C68.6127 78.457 72.9889 80.4745 72.9889 84.5569C72.9889 89.2397 69.5502 93.2444 64.6686 93.2444Z" fill="#BEA0F2"/>
<path d="M67.3937 92.7951C67.6961 92.6914 67.9856 92.5705 68.2664 92.4322L65.8083 78.5089C65.4541 78.4743 65.0998 78.457 64.7499 78.457C62.3782 78.457 59.9029 79.1396 58.3477 80.725L67.3937 92.7951Z" fill="white"/>
<path d="M82.8691 84.5559C82.8691 80.4735 87.2453 78.4561 91.1074 78.4561C94.9695 78.4561 99.108 80.2575 99.108 84.8497C99.108 89.0573 95.9242 93.2434 91.1895 93.2434C86.3079 93.2434 82.8691 89.2388 82.8691 84.5559Z" fill="#BEA0F2"/>
<path d="M88.4625 92.7941C88.1601 92.6905 87.8706 92.5695 87.5898 92.4313L90.0479 78.5079C90.4022 78.4733 90.7564 78.4561 91.1063 78.4561C93.478 78.4561 95.9534 79.1386 97.5086 80.7241L88.4625 92.7941Z" fill="white"/>
<path d="M91.2708 75.9609C82.6481 75.9609 80.2678 82.2163 77.9264 82.2163C75.5849 82.2163 73.2089 75.9609 64.5819 75.9609C59.1214 75.9609 53.4147 79.4731 50.4512 80.8987V85.1798H53.635C54.0757 87.923 56.2918 95.8416 64.664 95.8416C74.0211 95.8416 74.2285 86.3117 77.9221 86.3117C81.6157 86.3117 81.8273 95.8416 91.1801 95.8416C99.5523 95.8416 101.768 87.923 102.209 85.1798H105.393V80.8987C102.429 79.4731 96.7227 75.9609 91.2622 75.9609H91.2708ZM64.6683 93.2453C59.9292 93.2453 56.7497 89.0549 56.7497 84.8515C56.7497 80.2593 60.8883 78.4579 64.7504 78.4579C68.6124 78.4579 72.9886 80.4753 72.9886 84.5577C72.9886 89.2406 69.5499 93.2453 64.6683 93.2453ZM91.1888 93.2453C86.3072 93.2453 82.8685 89.2406 82.8685 84.5577C82.8685 80.4753 87.2446 78.4579 91.1067 78.4579C94.9688 78.4579 99.1073 80.2593 99.1073 84.8515C99.1073 89.0592 95.9235 93.2453 91.1888 93.2453Z" fill="#271B3D"/>
<path d="M193.352 57.9258H119.912V62.2458H193.352V57.9258Z" fill="#271B3D"/>
<path d="M156.632 66.3779H119.912V70.6979H156.632V66.3779Z" fill="#271B3D"/>
<path d="M193.352 49.2871H119.912V53.6071H193.352V49.2871Z" fill="#271B3D"/>
<path d="M197.613 91.6751V103.542H217.516C217.516 103.542 215.377 107.901 215.377 112.778C215.377 117.656 218.526 122.554 224.596 122.554C230.666 122.554 233.815 117.491 233.815 112.778C233.815 108.065 231.676 103.542 231.676 103.542H246.226V96.0297V91.6751C253.48 95.7791 261.968 94.3881 261.968 85.869C261.968 77.35 253.48 75.959 246.226 80.063V68.1959H231.676C231.676 68.1959 233.815 63.837 233.815 58.9598C233.815 54.0825 230.666 49.1836 224.596 49.1836C218.526 49.1836 215.377 54.2466 215.377 58.9598C215.377 63.6729 217.516 68.1959 217.516 68.1959H197.613V80.063C204.867 75.959 213.355 77.35 213.355 85.869C213.355 94.3881 204.867 95.7791 197.613 91.6751Z" fill="#271B3D"/>
<path d="M193.352 111.822H119.912V122.622H193.352V111.822Z" fill="#BEA0F2"/>
<path d="M42.6321 152.136V147.111L38.4747 146.567C38.1017 144.824 37.4185 143.197 36.4747 141.745L39.0275 138.419L35.4769 134.868L32.151 137.421C30.6992 136.477 29.0722 135.794 27.3284 135.421L26.7845 131.264H21.7597L21.2159 135.421C19.472 135.794 17.845 136.477 16.3933 137.421L13.0673 134.868L9.51669 138.419L12.0696 141.745C11.1257 143.197 10.4426 144.824 10.0695 146.567L5.91211 147.111V152.136L10.0695 152.68C10.4471 154.424 11.1347 156.051 12.0696 157.503L9.51669 160.828L13.0673 164.379L16.3933 161.826C17.845 162.77 19.472 163.453 21.2203 163.826L21.7597 167.984H26.7845L27.3284 163.826C29.0722 163.453 30.6992 162.77 32.151 161.826L35.4769 164.379L39.0275 160.828L36.4747 157.503C37.4185 156.051 38.1017 154.424 38.4747 152.68L42.6321 152.136ZM24.3485 157.615C19.7192 157.615 15.9663 153.862 15.9663 149.233C15.9663 144.603 19.7192 140.85 24.3485 140.85C28.9778 140.85 32.7307 144.603 32.7307 149.233C32.7307 153.862 28.9778 157.615 24.3485 157.615Z" fill="#271B3D"/>
<path d="M226.716 31.501H41.2109V44.461H226.716V31.501Z" fill="#271B3D"/>
<path d="M46.3476 39.8671C47.4738 39.8671 48.3867 38.9542 48.3867 37.8281C48.3867 36.702 47.4738 35.7891 46.3476 35.7891C45.2215 35.7891 44.3086 36.702 44.3086 37.8281C44.3086 38.9542 45.2215 39.8671 46.3476 39.8671Z" fill="white"/>
<path d="M53.7383 39.8671C54.8644 39.8671 55.7773 38.9542 55.7773 37.8281C55.7773 36.702 54.8644 35.7891 53.7383 35.7891C52.6121 35.7891 51.6992 36.702 51.6992 37.8281C51.6992 38.9542 52.6121 39.8671 53.7383 39.8671Z" fill="white"/>
<path d="M61.1347 39.8671C62.2609 39.8671 63.1738 38.9542 63.1738 37.8281C63.1738 36.702 62.2609 35.7891 61.1347 35.7891C60.0086 35.7891 59.0957 36.702 59.0957 37.8281C59.0957 38.9542 60.0086 39.8671 61.1347 39.8671Z" fill="white"/>
<path d="M41.3359 128.36V129.4C41.3359 133.118 44.442 136.136 48.2782 136.136H219.899C223.731 136.136 226.841 133.122 226.841 129.4V128.36H41.3359Z" fill="#BEA0F2"/>
<path d="M226.841 26.7184V25.6788C226.841 21.9606 223.735 18.9424 219.899 18.9424H48.2782C44.4463 18.9424 41.3359 21.9564 41.3359 25.6788V26.7184H226.841Z" fill="#BEA0F2"/>
<path d="M261.973 157.597C261.973 163.278 257.411 167.896 251.752 167.982H207.999C202.262 167.982 197.613 163.334 197.613 157.597C197.613 151.86 202.262 147.212 207.999 147.212H251.773C257.424 147.212 261.977 151.925 261.977 157.597H261.973Z" fill="#BEA0F2"/>
<path d="M251.535 164.98C255.613 164.98 258.918 161.674 258.918 157.597C258.918 153.519 255.613 150.214 251.535 150.214C247.458 150.214 244.152 153.519 244.152 157.597C244.152 161.674 247.458 164.98 251.535 164.98Z" fill="#271B3D"/>
<path d="M144.394 81.9736H119.912V106.455H144.394V81.9736Z" fill="#BEA0F2"/>
<path d="M125.516 94.2119H138.791" stroke="#271B3D" stroke-width="1.188" stroke-miterlimit="10"/>
<path d="M132.15 87.5771V100.853" stroke="#271B3D" stroke-width="1.188" stroke-miterlimit="10"/>
<path d="M10.0679 125.393C7.79563 125.393 5.94667 123.569 5.91211 121.301V10.1392C5.91211 7.84532 7.77403 5.9834 10.0679 5.9834C12.3619 5.9834 14.2238 7.84532 14.2238 10.1392V121.31C14.2238 123.569 12.3403 125.393 10.0679 125.393Z" fill="#BEA0F2"/>
<path d="M14.2238 42.9194V38.7117L5.91211 32.9834V37.1911L14.2238 42.9194Z" fill="#271B3D"/>
<path d="M14.2238 51.0874V46.8797L5.91211 41.1514V45.359L14.2238 51.0874Z" fill="#271B3D"/>
<path d="M14.2238 59.253V55.0496L5.91211 49.3213V53.529L14.2238 59.253Z" fill="#271B3D"/>
<path d="M14.2238 67.4209V63.2176L5.91211 57.4893V61.6969L14.2238 67.4209Z" fill="#271B3D"/>
<path d="M14.2238 75.5918V71.3885L5.91211 65.6602V69.8678L14.2238 75.5918Z" fill="#271B3D"/>
<path d="M14.2238 83.7598V79.5564L5.91211 73.8281V78.0315L14.2238 83.7598Z" fill="#271B3D"/>
<path d="M14.2238 91.9297V87.722L5.91211 81.998V86.2014L14.2238 91.9297Z" fill="#271B3D"/>
<path d="M14.2238 100.098V95.89L5.91211 90.166V94.3694L14.2238 100.098Z" fill="#271B3D"/>
<path d="M14.2238 108.269V104.061L5.91211 98.3369V102.54L14.2238 108.269Z" fill="#271B3D"/>
<path d="M14.2238 116.438V112.23L5.91211 106.502V110.71L14.2238 116.438Z" fill="#271B3D"/>
<path d="M5.91211 114.67V118.878L13.2475 123.932C13.8566 123.224 14.2238 122.312 14.2238 121.31V120.398L5.91211 114.67Z" fill="#271B3D"/>
<circle cx="22.9772" cy="15.2702" r="1.944" fill="#BEA0F2"/>
<circle cx="210.465" cy="13.5426" r="1.944" fill="#BEA0F2"/>
<circle cx="99.4401" cy="10.0856" r="1.944" fill="#BEA0F2"/>
<circle cx="32.4811" cy="57.1745" r="1.944" fill="#BEA0F2"/>
<circle cx="32.4811" cy="17.4313" r="1.944" fill="#271B3D"/>
<circle cx="236.817" cy="15.2702" r="1.944" fill="#BEA0F2"/>
<circle cx="247.184" cy="9.65494" r="1.944" fill="#271B3D"/>
<circle cx="260.143" cy="69.2702" r="1.944" fill="#271B3D"/>
<circle cx="234.225" cy="35.1432" r="1.944" fill="#271B3D"/>
<circle cx="219.969" cy="7.9274" r="1.944" fill="#271B3D"/>
<circle cx="30.321" cy="29.527" r="1.944" fill="#271B3D"/>
<circle cx="39.3913" cy="7.9274" r="1.944" fill="#271B3D"/>
</g>
<defs>
<clipPath id="clip0_739_56022">
<rect width="266.544" height="172.8" fill="white" transform="translate(0.728516 0.799805)"/>
</clipPath>
</defs>
</svg>
