<svg
	width="148"
	height="101"
	viewBox="0 0 148 101"
	fill="none"
	xmlns="http://www.w3.org/2000/svg"
>
	<path
		d="M144.539 40.4651C144.28 40.2653 143.976 40.1317 143.653 40.0756C143.314 39.9973 142.967 39.9482 142.622 39.8936L138.152 39.2474C137.7 39.1634 137.24 39.139 136.783 39.1746C136.553 39.1935 136.329 39.2579 136.125 39.3641C135.921 39.4704 135.739 39.6163 135.591 39.7935C135.458 39.9583 135.385 40.1638 135.384 40.3759C135.409 40.5894 135.479 40.7953 135.588 40.9802C135.631 41.0667 135.668 41.1561 135.699 41.2478C135.741 41.4537 135.795 41.6572 135.858 41.8576C135.878 41.901 135.904 41.9414 135.935 41.9777C135.935 41.988 135.935 41.9984 135.935 42.0087C135.886 42.2599 136.044 42.522 135.973 42.7641C135.911 42.9716 135.709 43.0972 135.582 43.2701C135.498 43.3927 135.451 43.5377 135.447 43.6869C135.444 43.8361 135.485 43.983 135.564 44.1092C135.7 44.3203 135.947 44.4641 136.018 44.7062C136.111 45.0248 135.86 45.3324 135.637 45.5781C135.226 46.0305 134.846 46.5103 134.5 47.0143C134.403 47.1382 134.34 47.2858 134.319 47.442C134.299 47.7587 134.602 48.0372 134.549 48.3521C134.507 48.5997 134.266 48.7507 134.057 48.8982C133.285 49.4078 132.666 50.2269 132.605 51.1534C132.406 49.6793 131.797 48.2913 130.847 47.1489C130.587 46.8359 130.302 46.521 130.195 46.1242C130.155 45.9658 130.148 45.7965 130.093 45.6436C129.912 45.1613 129.334 44.9538 129.082 44.5096C128.9 44.1966 128.9 43.7943 128.675 43.5194C128.45 43.2446 128.096 43.1827 127.902 42.917C127.805 42.7369 127.722 42.5495 127.655 42.3563C127.573 42.1988 127.459 42.061 127.319 41.9522C127.292 41.9308 127.264 41.9107 127.235 41.8922C127.266 41.8651 127.29 41.832 127.306 41.795C127.323 41.758 127.332 41.718 127.332 41.6774C127.332 41.4644 127.121 41.3243 126.938 41.2187C126.702 41.084 126.471 40.9384 126.246 40.7873C126.491 40.6727 126.704 40.498 126.865 40.2795C127.067 39.9534 127.15 39.5678 127.101 39.1873C127.089 38.8803 126.974 38.5862 126.776 38.3519C126.662 38.2299 126.518 38.1425 126.398 38.0279C126.088 37.7239 125.983 37.2743 125.854 36.8593C125.683 36.3132 125.416 35.7399 124.919 35.4504C124.679 35.3103 124.399 35.2448 124.165 35.0973C123.931 34.9499 123.735 34.6714 123.816 34.4038C123.871 34.2218 124.04 34.0962 124.154 33.9415C124.291 33.7414 124.343 33.4955 124.3 33.2569C124.257 33.0184 124.121 32.8066 123.924 32.6673C123.789 32.5818 123.624 32.5072 123.597 32.3506C123.492 32.3232 123.396 32.2667 123.322 32.1875C123.247 32.1083 123.197 32.0096 123.175 31.9028C123.135 31.6888 123.135 31.4689 123.175 31.2548C123.223 30.9163 123.269 30.5789 123.315 30.2428C123.395 30.2762 123.481 30.2933 123.568 30.2933C123.654 30.2933 123.74 30.2762 123.82 30.2428C123.977 30.4984 124.16 30.7375 124.365 30.9563C124.918 31.6109 125.348 32.3601 125.636 33.1679C125.739 33.4591 125.845 33.7849 126.113 33.9397C126.206 33.9925 126.311 34.0198 126.402 34.0762C126.514 34.1544 126.61 34.2532 126.685 34.3674C126.903 34.6568 127.121 34.9444 127.337 35.2338L127.348 35.2775C127.354 35.3031 127.364 35.3277 127.377 35.3503C127.417 35.3957 127.473 35.4243 127.533 35.4304C128.201 35.5851 128.951 35.7271 129.53 35.3612C130.053 35.0336 130.282 34.3856 130.725 33.9524C131.039 33.6448 131.484 33.4063 131.573 32.9731C131.467 32.9403 131.363 32.9021 131.261 32.8585C131.352 32.7674 131.442 32.6619 131.566 32.5417C131.745 32.3657 131.907 32.1724 132.049 31.9647C132.202 31.7085 132.324 31.4347 132.412 31.1493C132.762 30.1494 133.113 29.1489 133.465 28.1477C133.632 27.6745 133.799 27.1976 134.01 26.7371C134.228 26.2383 134.486 25.7596 134.723 25.27C135.337 23.9966 135.811 22.66 136.136 21.2837C136.194 21.096 136.213 20.8985 136.192 20.7031C136.142 20.3882 135.904 20.1406 135.677 19.9167C135.449 19.6691 135.188 19.453 134.903 19.2742C134.76 19.1849 134.601 19.1251 134.434 19.0983C134.268 19.0714 134.098 19.078 133.934 19.1177C133.469 19.2542 133.176 19.7311 133.069 20.2098C132.962 20.6885 133.002 21.1818 132.957 21.666C132.891 22.3668 132.652 23.0439 132.594 23.7465C132.563 24.1524 132.594 24.5637 132.545 24.9697C132.455 25.5009 132.271 26.0115 132 26.4768C131.411 27.5865 130.614 28.5717 129.652 29.3782C129.541 29.471 129.427 29.5602 129.318 29.6603C129.318 29.5821 129.331 29.502 129.342 29.4237C129.263 29.4443 129.185 29.4717 129.111 29.5056C129.12 29.4137 129.111 29.3209 129.084 29.2326C128.939 28.7976 128.292 28.6865 128.176 28.2442C128.157 28.1348 128.146 28.024 128.145 27.9129C128.107 27.5252 127.844 27.1976 127.753 26.8208C127.669 26.4732 127.733 26.0927 127.571 25.7705C127.434 25.5691 127.271 25.3857 127.088 25.2245C126.87 24.9747 126.713 24.6774 126.629 24.3562C126.605 24.2671 126.584 24.1742 126.558 24.085C126.586 23.8831 126.563 23.6774 126.493 23.4862C126.328 23.0748 125.901 22.8109 125.747 22.3941C125.627 22.0701 125.679 21.666 125.452 21.4148C125.332 21.2948 125.184 21.2055 125.022 21.1545C124.191 20.8301 123.319 20.6236 122.431 20.5411C121.933 20.4956 121.385 20.4701 121.029 20.1188C120.613 19.7111 120.593 18.9775 120.107 18.6626C119.678 18.3841 119.072 18.5898 118.74 18.9812C118.69 19.0387 118.644 19.0995 118.602 19.1632C118.541 18.9192 118.528 18.6658 118.563 18.4169C118.563 18.355 118.576 18.2913 118.582 18.2349C119.401 17.9663 120.099 17.414 120.55 16.6768C120.55 16.6768 120.55 16.6768 120.55 16.6877L120.572 16.7441C120.624 16.877 120.708 17.0044 120.831 17.019C120.913 17.018 120.993 16.9891 121.056 16.9371C121.166 16.8607 121.267 16.7729 121.358 16.6749C121.404 16.624 121.447 16.5712 121.489 16.5166C121.572 16.4029 121.644 16.2809 121.703 16.1525C121.793 15.9594 121.854 15.7539 121.884 15.5428C121.917 15.3316 121.921 15.115 121.957 14.9039C121.991 14.7404 122.035 14.5793 122.09 14.4215C122.108 14.3687 122.126 14.3159 122.142 14.2632C122.159 14.2104 122.182 14.1394 122.2 14.0811C122.314 13.7068 122.375 13.3184 122.382 12.9271C122.382 12.8616 122.382 12.7961 122.382 12.7305C122.375 12.4752 122.318 12.2237 122.213 11.9909C122.108 11.758 121.958 11.5485 121.772 11.3745C121.46 11.1178 121.046 11.0104 120.817 10.6628C120.668 10.4298 120.635 10.1295 120.548 9.85643C120.454 9.52968 120.27 9.23592 120.018 9.00846C119.766 8.78101 119.455 8.62895 119.121 8.56954C118.719 8.52531 118.315 8.63664 117.992 8.8808L117.966 8.90082C117.786 9.03865 117.633 9.20904 117.516 9.4032C117.276 9.33695 117.056 9.21183 116.877 9.03915C116.695 8.86987 116.555 8.65691 116.372 8.49309C116.201 8.33575 115.99 8.22741 115.763 8.17939C115.535 8.13136 115.299 8.14541 115.079 8.22006C114.852 8.31112 114.65 8.45477 114.49 8.63923C114.329 8.8237 114.214 9.04372 114.155 9.28124C114.055 9.6562 114.073 10.0876 113.864 10.4007C113.703 10.6446 113.438 10.7647 113.252 10.9868C113.137 11.1274 113.059 11.2943 113.024 11.4728C113.002 11.5726 112.991 11.6746 112.993 11.7768C112.993 11.8223 112.993 11.8678 113.004 11.9115C113.004 11.9115 113.004 11.926 113.004 11.9333C113.01 11.9832 113.02 12.0325 113.035 12.0807C113.086 12.2653 113.179 12.4357 113.305 12.5795C113.425 12.7171 113.575 12.8255 113.743 12.8962C113.811 12.923 113.882 12.9455 113.953 12.9635L114.169 13.0127L114.246 13.0309C113.985 13.5217 113.84 14.0659 113.823 14.6217C113.805 15.1775 113.915 15.7299 114.144 16.2363C114.144 16.2872 114.131 16.3382 114.126 16.3892C114.096 17.1059 114.128 17.8239 114.22 18.5352C114.246 18.8173 114.26 19.1286 114.088 19.3525C114.009 19.4405 113.921 19.5193 113.824 19.5873C113.922 19.4599 114.022 19.3343 114.124 19.2087C113.868 18.9502 113.463 18.9174 113.1 18.9429C112.397 18.9956 111.715 19.2045 111.103 19.5545C110.696 19.7893 110.278 20.1006 109.813 20.046C109.539 20.015 109.269 19.864 109.002 19.9368C108.852 19.9983 108.712 20.0817 108.586 20.1843C108.487 20.2557 108.367 20.2928 108.245 20.2899C107.96 19.9386 107.518 19.7001 107.177 19.4144C106.789 19.0677 106.433 18.6856 106.115 18.2731C105.527 17.5614 104.94 16.8479 104.363 16.1289C103.876 15.5246 103.377 14.8711 103.291 14.0975C103.283 14.0208 103.278 13.9436 103.279 13.8664C103.29 13.4988 103.337 13.1331 103.417 12.7742C103.438 12.6876 103.438 12.5969 103.417 12.5103C103.362 12.3283 103.153 12.2609 102.974 12.2209C102.997 12.0807 103.014 11.9369 103.023 11.8004C103.124 10.235 103.014 8.64417 103.344 7.11155C103.469 6.5218 103.674 5.92477 104.098 5.49702C104.76 4.82536 105.87 4.66336 106.378 3.86793C106.803 3.20537 106.634 2.26796 106.1 1.68367C105.566 1.09938 104.744 0.860937 103.961 0.89006C103.742 0.882505 103.525 0.940812 103.339 1.05752C103.164 1.21259 103.034 1.411 102.961 1.63271L102.182 3.53119C101.956 4.02546 101.766 4.53519 101.612 5.05653C101.394 5.85378 101.345 6.69472 101.172 7.49925C101.172 8.11812 100.775 8.8899 100.557 9.45962C100.314 10.1003 100.05 10.7338 99.8306 11.3872C99.7761 11.551 99.5855 12.037 99.4675 12.4794C99.4228 12.5054 99.3814 12.5365 99.344 12.5722C99.2492 12.694 99.163 12.8223 99.0862 12.9563C98.9209 13.1747 98.6522 13.2912 98.4706 13.5023C98.289 13.7135 98.2509 14.1012 98.5033 14.2067C98.5545 14.224 98.6075 14.2356 98.6613 14.2413C98.6943 14.2441 98.7271 14.2496 98.7593 14.2577C99.0317 14.3342 99.1388 14.6782 99.0989 14.9621C99.0589 15.2461 98.9173 15.5082 98.8937 15.7921C98.8447 16.2945 99.1388 16.7623 99.4221 17.1846C99.7153 17.6424 100.039 18.0796 100.392 18.4933C100.648 18.7809 100.936 19.0394 101.194 19.3161C102.177 20.3281 102.957 21.5113 103.84 22.6107C104.157 23.0256 104.518 23.4052 104.916 23.7428C105.177 23.9468 105.449 24.1346 105.732 24.3053L107.25 25.27C107.422 25.3965 107.617 25.4885 107.823 25.5412C107.891 25.5503 107.959 25.5503 108.027 25.5412C108.036 25.5867 108.043 25.6304 108.054 25.6759C108.172 26.1528 108.432 26.586 108.461 27.072C108.49 27.558 108.446 28.0549 108.481 28.5464C108.513 28.9996 108.613 29.4565 108.639 29.9024C108.69 30.7616 108.479 31.6098 108.276 32.4507C107.969 33.6812 107.783 34.9371 107.186 36.0529C107.019 36.3605 106.823 36.6736 106.823 37.0249C106.823 37.0668 106.823 37.1105 106.834 37.1523L106.562 37.3071C106.482 37.3526 106.402 37.3981 106.329 37.4454C105.984 37.6711 105.616 37.9205 105.474 38.31C105.36 38.6249 105.412 38.9853 105.274 39.2911C105.268 39.3048 105.26 39.3182 105.252 39.3311C105.107 39.6151 104.818 39.8262 104.753 40.1375C104.704 40.3759 104.798 40.6289 104.753 40.8656C104.753 40.8656 104.753 40.8656 104.753 40.8747C104.712 40.9935 104.679 41.1152 104.655 41.2387C104.653 41.2791 104.657 41.3195 104.666 41.3589C104.7 41.4968 104.777 41.6207 104.884 41.7138C104.949 41.7767 105.02 41.8334 105.096 41.8831C105.174 41.934 105.254 41.9814 105.336 42.0251L105.383 42.0505C105.452 42.0869 105.521 42.1215 105.592 42.1543L105.639 42.1743C105.721 42.2107 105.804 42.2435 105.888 42.2726L105.946 42.2908C106.011 42.3126 106.079 42.3327 106.146 42.349L106.191 42.3636L106.233 42.3727L106.414 42.4109L106.482 42.4237C106.562 42.437 106.643 42.4479 106.727 42.4564H106.799C106.861 42.4564 106.921 42.4655 106.981 42.4674H107.066C107.13 42.4674 107.192 42.4674 107.248 42.4674H107.313C107.399 42.4674 107.484 42.4546 107.569 42.4437H107.596C107.673 42.4328 107.749 42.42 107.825 42.4037L107.883 42.3909C107.954 42.3745 108.025 42.3582 108.096 42.3363L108.134 42.3254C108.219 42.2999 108.305 42.2726 108.388 42.2398C108.677 42.1208 108.957 41.9815 109.227 41.823C109.409 41.7229 109.59 41.621 109.772 41.5281C109.906 41.4601 110.045 41.3993 110.186 41.3461C110.529 41.199 110.903 41.1366 111.275 41.1641C111.459 41.1892 111.641 41.2263 111.82 41.2751C111.82 41.2951 111.82 41.3152 111.82 41.3352C111.968 42.2089 112.113 43.0826 112.257 43.9563C112.495 43.7847 112.747 43.6332 113.009 43.5031C112.96 43.635 112.928 43.7726 112.913 43.9126C112.902 44.0209 112.902 44.1301 112.913 44.2384C112.929 44.4114 112.966 44.6025 112.862 44.739C112.799 44.8227 112.681 44.87 112.646 44.9647C112.621 45.0615 112.615 45.1622 112.628 45.2614C112.62 45.3745 112.573 45.4812 112.493 45.5621C112.414 45.6429 112.308 45.6925 112.196 45.7019C112.248 45.8484 112.249 46.0082 112.199 46.1555C112.149 46.3028 112.052 46.429 111.922 46.5137C111.846 46.5503 111.775 46.5968 111.711 46.652C111.649 46.7325 111.607 46.8268 111.589 46.9269C111.349 47.8283 110.856 48.6415 110.168 49.2695C109.909 49.4729 109.674 49.7035 109.465 49.9575C109.336 50.1542 109.229 50.3649 109.147 50.5855C108.663 51.7723 108.171 52.9597 107.673 54.1477C107.397 54.812 107.128 55.4873 107.041 56.2027C106.823 58.1649 105.08 59.8286 105.407 61.7762C105.473 62.2627 105.668 62.7224 105.973 63.1068C106.336 63.5454 106.881 63.7966 107.426 64.0005C108.826 64.5465 110.302 64.8451 111.773 65.1454L114.082 65.6205C114.535 65.725 114.995 65.798 115.459 65.8389C116.016 65.8771 116.588 65.8243 117.131 65.9663C117.467 66.0537 117.788 66.2157 118.135 66.2339C118.433 66.2503 118.8 66.1866 118.976 66.4305C119.152 66.6744 119.016 66.9966 119.183 67.2132C119.451 67.5572 120.107 67.2132 120.399 67.5371C120.479 67.6616 120.54 67.7971 120.581 67.9394C120.625 68.0274 120.687 68.1054 120.762 68.1688C120.78 68.2715 120.787 68.3758 120.784 68.48C120.746 68.9027 120.658 69.3194 120.523 69.7214C120.305 70.4604 120.087 71.2 119.871 71.9402C119.788 72.2017 119.727 72.4696 119.689 72.7411C119.676 72.8731 119.676 73.006 119.689 73.1379C119.727 73.5402 119.958 73.9552 120.341 74.0863C120.638 74.165 120.954 74.1259 121.224 73.9771C121.483 73.8411 121.727 73.6763 121.95 73.4856C122.352 73.1807 122.705 72.8161 122.998 72.4044C123.905 71.0429 123.611 69.2008 124.249 67.6955C124.672 66.6908 125.496 65.8753 125.77 64.8159C125.834 64.6144 125.842 64.399 125.792 64.1934C125.678 63.8294 125.291 63.6219 124.929 63.4908H124.913C124.616 63.3849 124.313 63.2979 124.005 63.2305C123.929 63.2141 123.851 63.2014 123.773 63.1887C123.6 63.0478 123.463 62.8682 123.372 62.6644C123.357 62.5561 123.329 62.4502 123.286 62.3495C123.257 62.3062 123.219 62.2703 123.173 62.245C123.128 62.2197 123.077 62.2056 123.025 62.2039C122.843 62.1857 122.6 62.2513 122.402 62.2367C121.997 62.2076 121.728 61.8089 121.365 61.6251C121.002 61.4413 120.608 61.4868 120.221 61.5141C120.083 61.533 119.942 61.5244 119.807 61.4886C119.646 61.4141 119.499 61.3125 119.371 61.1882C119.148 61.0139 118.887 60.8941 118.61 60.8382C118.332 60.7822 118.045 60.7918 117.772 60.8661C117.598 60.9364 117.414 60.9782 117.227 60.9898C116.873 60.9698 116.622 60.6531 116.361 60.4128C115.646 59.7557 114.627 59.5828 113.759 59.1514C113.626 59.1019 113.515 59.0063 113.447 58.882C113.347 58.6345 113.572 58.3869 113.775 58.2177L115.268 56.9745C116.902 55.6129 118.945 54.5882 119.704 52.5914C119.783 52.3237 119.906 52.0709 120.067 51.8433C120.126 51.7738 120.193 51.7126 120.268 51.6613C120.599 51.4468 120.999 51.3685 121.385 51.4428C121.856 51.5485 122.302 51.7437 122.7 52.018C123.35 52.4124 123.982 52.8371 124.597 53.2922C125.206 53.7285 125.786 54.2053 126.331 54.7192C127.284 55.6293 128.078 56.7087 128.966 57.6898C129.854 58.6709 130.869 59.5865 132.102 60.0561C133.334 60.5257 134.825 60.5057 135.884 59.7175C137.106 58.8074 137.498 57.1801 137.807 55.6876C138.487 55.0287 138.693 54.0257 139.025 53.1393C139.234 52.5768 139.501 52.0471 139.726 51.4865C139.995 50.8276 140.205 50.1468 140.416 49.4679C140.654 48.7861 140.816 48.0797 140.899 47.3619C140.986 46.2279 140.683 45.0211 141 43.9563C141.42 43.8635 141.801 43.6268 142.213 43.4885C142.827 43.2865 143.484 43.3192 144.134 43.3229H144.176C144.4 43.3468 144.626 43.2935 144.815 43.1718C145.033 42.9898 145.068 42.6785 145.079 42.3964C145.104 41.6992 145.06 40.9165 144.539 40.4651ZM118.231 9.41593C118.081 9.45317 117.926 9.46426 117.772 9.4487L118.231 9.41593Z"
		fill="url(#paint0_linear)"
	/>
	<path
		d="M118.945 20.9303C118.726 21.1175 118.468 21.2548 118.19 21.3326L116.903 21.7949C116.204 22.0461 115.474 22.2992 114.737 22.2081C114.324 22.1572 112.558 21.8969 112.291 21.5747C111.884 21.076 113.309 20.3424 113.796 19.922C113.906 19.8425 114.009 19.7522 114.101 19.6526C114.283 19.4305 114.259 19.1192 114.234 18.8389C114.141 18.1288 114.11 17.4121 114.139 16.6965C114.153 16.526 114.178 16.3564 114.212 16.1887C114.393 15.3514 115.171 15.6572 115.784 15.8793C116.523 16.1198 117.237 16.43 117.918 16.8057C118.125 16.9129 118.305 17.066 118.444 17.2535C118.713 17.6613 118.606 18.1964 118.562 18.7097C118.524 19.1083 118.526 19.4906 118.775 19.78C118.9 19.8906 119.015 20.0125 119.118 20.144C119.176 20.2765 119.191 20.4241 119.16 20.5654C119.129 20.7067 119.054 20.8345 118.945 20.9303Z"
		fill="#BE6F72"
	/>
	<path
		d="M101.163 7.81254C101.345 7.00619 101.385 6.17436 101.603 5.37528C101.757 4.85573 101.947 4.34781 102.173 3.8554L102.974 1.98241C103.047 1.76124 103.177 1.56343 103.351 1.40904C103.538 1.29314 103.755 1.2349 103.974 1.24158C104.757 1.21246 105.579 1.45636 106.113 2.03337C106.647 2.61038 106.816 3.54415 106.391 4.20488C105.883 5.00032 104.773 5.1605 104.11 5.83034C103.687 6.25809 103.482 6.8533 103.357 7.44122C103.026 8.9702 103.137 10.5556 103.036 12.1174C103.003 12.6033 102.908 13.1585 102.491 13.4097C102.238 13.5337 101.958 13.5883 101.677 13.5681L100.486 13.5881C100.286 13.5881 99.562 13.7137 99.4295 13.5626C99.1971 13.2987 99.7272 11.9845 99.8235 11.6914C100.038 11.0416 100.301 10.4082 100.55 9.76927C100.766 9.19955 101.163 8.4296 101.163 7.81254Z"
		fill="#BE6F72"
	/>
	<path
		d="M125.759 64.9959C125.485 66.048 124.661 66.8671 124.237 67.87C123.6 69.3717 123.887 71.2083 122.986 72.5662C122.694 72.9786 122.341 73.3438 121.939 73.6492C121.716 73.8393 121.472 74.0035 121.212 74.1389C120.943 74.2877 120.627 74.3268 120.33 74.2481C119.947 74.117 119.716 73.702 119.678 73.3016C119.665 73.1703 119.665 73.0379 119.678 72.9066C119.716 72.6356 119.777 72.3683 119.86 72.1075C120.078 71.3709 120.295 70.6331 120.512 69.8941C120.647 69.4933 120.735 69.0779 120.773 68.6564C120.797 68.1977 120.506 67.6006 120.63 67.1729C120.686 66.9799 120.897 66.8089 120.993 66.6469C121.129 66.4137 121.234 66.1633 121.305 65.9024C121.454 65.3945 121.556 64.8521 121.868 64.4244C122.072 64.1707 122.31 63.947 122.576 63.76C122.772 63.5875 123.002 63.4579 123.252 63.3796C123.493 63.337 123.741 63.3488 123.978 63.4142C124.286 63.4801 124.589 63.5664 124.886 63.6726H124.902C125.265 63.8037 125.65 64.0057 125.765 64.3734C125.82 64.5774 125.818 64.7929 125.759 64.9959Z"
		fill="#40464D"
	/>
	<path
		d="M145.077 42.619C145.066 42.9011 145.031 43.216 144.813 43.3926C144.624 43.5143 144.398 43.5675 144.174 43.5437H144.125C143.477 43.5437 142.818 43.5073 142.204 43.7093C141.738 43.864 141.309 44.148 140.822 44.2044C140.152 44.2808 139.522 43.9132 138.929 43.5928C138.37 43.2909 137.796 43.0175 137.209 42.7737C136.824 42.6153 136.038 42.5134 135.853 42.0911C135.789 41.8913 135.736 41.6884 135.693 41.4832C135.663 41.3914 135.626 41.302 135.582 41.2156C135.473 41.0312 135.404 40.826 135.379 40.6131C135.38 40.401 135.453 40.1955 135.586 40.0306C135.734 39.8549 135.915 39.7102 136.119 39.6049C136.324 39.4996 136.546 39.4359 136.775 39.4172C137.233 39.3816 137.693 39.4061 138.144 39.49L142.615 40.1344C142.96 40.1835 143.306 40.2327 143.646 40.3164C143.968 40.3725 144.272 40.5062 144.532 40.7059C145.06 41.1501 145.104 41.9309 145.077 42.619Z"
		fill="#40464D"
	/>
	<path
		d="M141.148 43.7832C140.604 44.9354 140.996 46.2987 140.898 47.5729C140.815 48.2889 140.653 48.9935 140.415 49.6734C140.204 50.3505 139.993 51.0295 139.725 51.6866C139.5 52.2326 139.233 52.7787 139.024 53.3357C138.692 54.2239 138.479 55.2232 137.806 55.884C137.497 57.3729 137.105 59.0002 135.883 59.903C134.82 60.6893 133.341 60.7166 132.101 60.2416C130.86 59.7665 129.853 58.8564 128.965 57.8753C128.077 56.8942 127.283 55.8257 126.33 54.912C125.784 54.398 125.203 53.9218 124.592 53.4867C123.978 53.039 123.345 52.6179 122.695 52.2235C122.297 51.9505 121.851 51.7559 121.38 51.6502C120.994 51.5759 120.594 51.6541 120.264 51.8686C120.189 51.9199 120.121 51.9811 120.062 52.0506C119.901 52.2774 119.778 52.5296 119.699 52.7969C118.936 54.7882 116.89 55.8112 115.256 57.169L113.763 58.4086C113.56 58.5779 113.335 58.8254 113.435 59.0712C113.503 59.1954 113.614 59.291 113.747 59.3406C114.615 59.7701 115.634 59.943 116.349 60.5983C116.611 60.8386 116.861 61.1553 117.215 61.1735C117.402 61.1625 117.586 61.1213 117.76 61.0515C118.033 60.9775 118.32 60.9678 118.597 61.0234C118.875 61.079 119.136 61.1983 119.36 61.3719C119.487 61.4962 119.634 61.5978 119.795 61.6722C119.93 61.708 120.071 61.7167 120.209 61.6977C120.596 61.6704 121.006 61.6358 121.353 61.8088C121.7 61.9817 121.985 62.3894 122.39 62.4185C122.588 62.4331 122.824 62.3676 123.013 62.3858C123.065 62.3874 123.116 62.4015 123.161 62.4268C123.207 62.4522 123.245 62.488 123.274 62.5314C123.317 62.6314 123.345 62.7367 123.36 62.8445C123.434 63.1011 123.685 63.2577 123.848 63.4688C124.099 63.7928 124.135 64.2333 124.109 64.6428C124.027 65.9234 123.458 67.1235 122.519 67.9957C122.252 68.2689 121.912 68.4586 121.54 68.5417C121.354 68.5808 121.16 68.5602 120.986 68.4828C120.812 68.4054 120.667 68.2751 120.571 68.1103C120.53 67.9686 120.469 67.8337 120.389 67.7099C120.097 67.3877 119.441 67.7299 119.173 67.3859C119.005 67.1711 119.125 66.8271 118.966 66.605C118.806 66.383 118.421 66.423 118.125 66.4103C117.778 66.3921 117.457 66.2282 117.121 66.1427C116.576 66.0007 116.006 66.0535 115.448 66.0153C114.985 65.9743 114.525 65.9013 114.072 65.7968L111.763 65.3236C110.292 65.0233 108.816 64.7193 107.416 64.1823C106.88 63.9785 106.341 63.7273 105.963 63.2904C105.659 62.9065 105.463 62.4475 105.397 61.9617C105.068 60.0195 106.811 58.3595 107.031 56.4027C107.109 55.6892 107.394 55.0157 107.663 54.3532C108.155 53.1688 108.647 51.9839 109.137 50.7983C109.216 50.5775 109.32 50.3663 109.446 50.1685C109.655 49.9151 109.89 49.685 110.148 49.4823C110.836 48.8563 111.33 48.0449 111.57 47.1451C111.588 47.045 111.63 46.9507 111.692 46.8703C111.756 46.8163 111.827 46.7704 111.902 46.7338C112.032 46.6491 112.13 46.5232 112.179 46.3763C112.229 46.2294 112.228 46.07 112.177 45.9238C112.289 45.9144 112.395 45.8648 112.474 45.784C112.553 45.7031 112.601 45.5964 112.609 45.4833C112.595 45.3847 112.602 45.2846 112.627 45.1884C112.67 45.0938 112.779 45.0464 112.843 44.9627C112.946 44.8262 112.91 44.6351 112.894 44.464C112.883 44.3556 112.883 44.2465 112.894 44.1381C112.933 43.7527 113.105 43.3931 113.38 43.1206C113.814 42.6929 114.432 42.8039 115.031 42.702C115.629 42.5727 116.212 42.3855 116.774 42.1432C118.349 41.5209 120.008 41.1363 121.696 41.0019C123.393 40.8682 125.097 41.1402 126.668 41.7955C126.896 41.8883 127.112 42.0107 127.309 42.1596C127.449 42.2676 127.563 42.4049 127.645 42.5618C127.712 42.7545 127.794 42.9414 127.892 43.1206C128.086 43.3864 128.453 43.4719 128.665 43.7231C128.878 43.9743 128.896 44.3984 129.072 44.7097C129.324 45.1538 129.909 45.3595 130.083 45.8419C130.138 45.9948 130.145 46.1622 130.185 46.3206C130.283 46.7174 130.577 47.0305 130.837 47.3435C131.789 48.4849 132.398 49.8734 132.594 51.348C132.652 50.4252 133.272 49.6079 134.047 49.0982C134.256 48.9617 134.497 48.8106 134.539 48.5631C134.592 48.25 134.288 47.9715 134.308 47.653C134.33 47.4974 134.393 47.3505 134.49 47.227C134.836 46.7243 135.216 46.2456 135.627 45.7945C135.85 45.5488 136.101 45.2485 136.008 44.9245C135.937 44.6824 135.69 44.5404 135.554 44.3293C135.475 44.2034 135.434 44.0568 135.437 43.9079C135.44 43.7589 135.487 43.6143 135.572 43.492C135.699 43.319 135.901 43.1934 135.963 42.9878C136.033 42.7457 135.875 42.4836 135.924 42.2342C135.991 42.0345 136.123 41.8632 136.298 41.7482C136.539 41.5283 136.813 41.3477 137.11 41.2131C137.589 41.031 138.123 41.0984 138.632 41.1694C139.481 41.2877 140.435 41.4697 140.914 42.1832C141.221 42.6292 141.377 43.3063 141.148 43.7832Z"
		fill="#65617D"
	/>
	<path
		opacity="0.1"
		d="M145.078 42.619C145.067 42.9011 145.033 43.216 144.815 43.3926C144.625 43.5143 144.4 43.5675 144.176 43.5437H144.127C144.201 43.165 144.661 42.9484 144.741 42.5644C144.754 42.4464 144.744 42.3269 144.709 42.2132C144.675 42.0995 144.617 41.9942 144.541 41.9036C144.152 41.3776 143.528 41.0864 142.907 40.8734C141.152 40.2705 139.273 40.1294 137.449 40.4639C136.952 40.5449 136.47 40.6937 136.014 40.9062C135.863 41.0009 135.718 41.1042 135.578 41.2156C135.469 41.0312 135.4 40.826 135.375 40.6131C135.376 40.401 135.449 40.1955 135.582 40.0306C135.73 39.8549 135.911 39.7102 136.116 39.6049C136.32 39.4996 136.543 39.4359 136.771 39.4172C137.229 39.3816 137.689 39.4061 138.14 39.49L142.611 40.1344C142.956 40.1835 143.302 40.2327 143.642 40.3164C143.964 40.3725 144.269 40.5062 144.528 40.7059C145.062 41.1501 145.105 41.9309 145.078 42.619Z"
		fill="black"
	/>
	<path
		opacity="0.1"
		d="M125.759 64.9966C125.485 66.0486 124.661 66.8677 124.237 67.8707C123.6 69.3724 123.887 71.2089 122.986 72.5668C122.694 72.9793 122.341 73.3445 121.939 73.6499C121.716 73.8399 121.472 74.0042 121.212 74.1395C120.943 74.2884 120.627 74.3275 120.33 74.2487C119.947 74.1177 119.716 73.7027 119.678 73.3022C119.665 73.1709 119.665 73.0385 119.678 72.9072L119.689 72.9363C119.847 73.3186 120.105 73.719 120.512 73.7864C120.664 73.7974 120.818 73.7767 120.962 73.7257C121.106 73.6746 121.239 73.5943 121.35 73.4897C121.95 73.0073 122.298 72.2883 122.631 71.5948C122.891 71.0947 123.096 70.5681 123.244 70.024C123.317 69.7146 123.351 69.3978 123.426 69.0884C123.771 67.5849 124.946 66.3581 125.205 64.8346C125.226 64.7298 125.231 64.6223 125.22 64.516C125.186 64.3774 125.133 64.2439 125.064 64.1192C125.001 63.9783 124.954 63.8305 124.926 63.6787C125.289 63.8098 125.674 64.0118 125.788 64.3795C125.835 64.584 125.825 64.7974 125.759 64.9966Z"
		fill="black"
	/>
	<path
		opacity="0.1"
		d="M123.018 62.3861C122.85 62.8265 122.567 63.2137 122.199 63.5074C121.682 63.9022 121.077 64.1646 120.436 64.2719C120.137 64.3482 119.824 64.3444 119.528 64.2609C119.125 64.1208 118.834 63.7422 118.422 63.633C118.128 63.5529 117.812 63.6239 117.514 63.5802C116.979 63.5056 116.563 63.096 116.131 62.7684C114.807 61.7709 113.069 61.4487 111.746 60.4512C111.687 60.415 111.638 60.3642 111.604 60.3038C111.579 60.2384 111.569 60.1679 111.577 60.0981C111.582 59.4931 111.717 58.8963 111.974 58.3489C112.185 57.967 112.436 57.6088 112.722 57.2804C113.908 55.8243 115.099 54.3572 116.519 53.1285C117.115 52.6134 117.765 52.1329 118.516 51.8999C118.934 51.7706 119.758 51.6487 120.267 51.8671C120.192 51.9185 120.124 51.9797 120.065 52.0491C119.904 52.2759 119.781 52.5281 119.702 52.7954C118.938 54.7886 116.891 55.8115 115.257 57.1694L113.765 58.409C113.561 58.5782 113.336 58.8258 113.436 59.0715C113.505 59.1958 113.615 59.2914 113.748 59.3409C114.616 59.7705 115.635 59.9434 116.35 60.5987C116.612 60.8389 116.862 61.1557 117.216 61.1739C117.403 61.1629 117.587 61.1217 117.761 61.0519C118.034 60.9778 118.321 60.9682 118.598 61.0238C118.876 61.0794 119.137 61.1986 119.361 61.3723C119.488 61.4966 119.635 61.5982 119.797 61.6726C119.931 61.7084 120.072 61.7171 120.211 61.6981C120.597 61.6708 121.008 61.6362 121.354 61.8091C121.701 61.982 121.986 62.3898 122.391 62.4189C122.593 62.4335 122.829 62.3643 123.018 62.3861Z"
		fill="black"
	/>
	<path
		d="M106.319 37.682C105.974 37.9041 105.608 38.1553 105.466 38.5412C105.35 38.8561 105.404 39.2165 105.264 39.5223C105.125 39.828 104.81 40.041 104.741 40.3686C104.692 40.6071 104.789 40.8583 104.741 41.0967C104.7 41.2207 104.667 41.3472 104.642 41.4753C104.623 41.7465 104.856 41.9668 105.083 42.1179C105.566 42.4329 106.116 42.63 106.689 42.6932C107.262 42.7565 107.842 42.6841 108.382 42.4819C108.867 42.2999 109.304 42.0032 109.769 41.7702C110.223 41.5085 110.741 41.3822 111.264 41.4062C111.563 41.4389 111.85 41.5481 112.15 41.5882C112.298 41.6175 112.45 41.6103 112.595 41.5672C112.74 41.524 112.872 41.4463 112.979 41.3406C113.072 41.2126 113.134 41.065 113.161 40.9093C113.413 39.91 113.299 38.8506 113.059 37.8458C112.82 36.8411 112.457 35.8745 112.2 34.8752C112.019 34.1344 111.879 33.3754 111.576 32.6746C111.273 31.9738 110.762 31.3222 110.049 31.0546C109.993 31.0269 109.929 31.0186 109.867 31.031C109.822 31.0501 109.781 31.0801 109.749 31.1183C109.185 31.718 108.759 32.4353 108.504 33.2189C108.219 34.0907 108.141 35.0154 107.879 35.8909C107.766 36.255 107.621 36.7428 107.334 37.0213C107.047 37.2998 106.644 37.4727 106.319 37.682Z"
		fill="#40464D"
	/>
	<path
		opacity="0.1"
		d="M113.163 40.9041C113.132 41.0604 113.067 41.2079 112.972 41.3355C112.865 41.4415 112.733 41.5193 112.588 41.5622C112.443 41.605 112.29 41.6116 112.142 41.5812C111.845 41.5448 111.558 41.4338 111.258 41.3992C110.736 41.375 110.217 41.5013 109.764 41.7633C109.299 41.9962 108.856 42.2857 108.375 42.4731C107.671 42.7407 106.902 42.7846 106.172 42.5987C105.785 42.5011 105.416 42.3386 105.083 42.1182C104.854 41.9689 104.623 41.7542 104.642 41.4757C104.667 41.3481 104.7 41.2223 104.741 41.0989C104.789 40.8604 104.694 40.6092 104.741 40.3708C104.81 40.0432 105.126 39.8247 105.264 39.5226C105.402 39.2204 105.35 38.8582 105.464 38.5433C105.606 38.1556 105.974 37.9062 106.319 37.6823C106.664 37.4585 107.075 37.2874 107.351 37.0161C107.386 36.9739 107.419 36.9289 107.447 36.8814C107.646 36.5737 107.792 36.2347 107.879 35.8785C108.146 35.0012 108.219 34.0783 108.502 33.2046C108.759 32.4217 109.185 31.7051 109.749 31.1059C109.779 31.0668 109.82 31.0367 109.865 31.0185C109.927 31.006 109.99 31.0137 110.047 31.0404C110.759 31.3098 111.269 31.9614 111.574 32.6622C111.879 33.363 112.008 34.1184 112.199 34.861C112.453 35.8603 112.818 36.8305 113.057 37.8334C113.297 38.8364 113.415 39.903 113.163 40.9041Z"
		fill="black"
	/>
	<path
		opacity="0.1"
		d="M118.564 18.7046C117.71 18.9766 116.786 18.9226 115.97 18.553C115.153 18.1834 114.502 17.5243 114.141 16.7024C114.155 16.5318 114.179 16.3622 114.213 16.1946C114.395 15.3573 115.172 15.6631 115.786 15.8851C116.524 16.1257 117.239 16.4359 117.919 16.8116C118.126 16.9187 118.307 17.0719 118.446 17.2594C118.714 17.6617 118.607 18.1968 118.564 18.7046Z"
		fill="black"
	/>
	<path
		d="M117.467 18.6939C119.473 18.6939 121.099 17.0641 121.099 15.0535C121.099 13.043 119.473 11.4131 117.467 11.4131C115.462 11.4131 113.836 13.043 113.836 15.0535C113.836 17.0641 115.462 18.6939 117.467 18.6939Z"
		fill="#BE6F72"
	/>
	<path
		opacity="0.1"
		d="M127.324 42.258C127.324 42.5602 126.916 42.6567 126.613 42.6403C125.523 42.5766 124.457 42.2762 123.379 42.3673C122.015 42.491 120.762 43.2464 119.395 43.3156C118.869 43.3429 118.333 43.2646 117.814 43.3611C117.142 43.4867 116.543 43.8962 115.858 43.9545C115.264 44.0054 114.678 43.7816 114.084 43.8052C113.669 43.83 113.264 43.9456 112.898 44.1438C112.938 43.7583 113.11 43.3987 113.385 43.1263C113.819 42.6985 114.436 42.8096 115.036 42.7076C115.633 42.5783 116.217 42.3912 116.779 42.1488C118.354 41.5265 120.013 41.1419 121.701 41.0076C123.396 40.8724 125.1 41.1425 126.671 41.7957C126.899 41.8885 127.115 42.0109 127.312 42.1597C127.322 42.1915 127.326 42.2248 127.324 42.258Z"
		fill="black"
	/>
	<path
		d="M115.788 21.7002L114.317 21.1542L113.696 20.9248C113.443 20.8185 113.176 20.7475 112.904 20.7137C112.192 20.6591 111.522 21.1341 111.143 21.7403C110.763 22.3464 110.62 23.069 110.498 23.7734C110.331 24.7369 110.19 25.7041 110.073 26.6749C109.948 27.5515 109.885 28.4359 109.883 29.3214C109.925 31.5749 110.4 33.7973 110.923 35.9907C111.179 36.9632 111.373 37.9512 111.502 38.9485C111.546 39.3599 111.566 39.7731 111.61 40.1863C111.657 40.6505 111.733 41.1091 111.809 41.5697L112.247 44.1853C112.792 43.7976 113.411 43.4572 114.081 43.4372C114.675 43.4154 115.263 43.6374 115.855 43.5865C116.536 43.53 117.138 43.1205 117.81 42.9949C118.33 42.8984 118.865 42.9749 119.394 42.9494C120.759 42.8802 122.014 42.123 123.375 42.001C124.456 41.9028 125.529 42.2086 126.611 42.2723C126.913 42.2905 127.321 42.194 127.321 41.89C127.321 41.6789 127.11 41.5387 126.927 41.4331C126.063 40.9114 125.24 40.3229 124.467 39.673C123.751 39.1051 123.025 38.5226 122.533 37.7545C121.347 35.907 121.754 33.4078 120.743 31.4584C119.92 29.8748 120.743 27.7997 120.743 26.0141C120.743 25.124 120.743 24.223 120.534 23.3584C120.403 22.8749 120.241 22.4005 120.047 21.9387L119.341 20.1458C119.326 20.0934 119.297 20.0461 119.257 20.0092C119.21 19.9764 119.153 19.9593 119.096 19.9601C118.672 19.9346 118.253 20.069 117.923 20.3369C117.591 20.6081 117.378 20.9976 117.051 21.2797C116.694 21.591 116.232 21.864 115.788 21.7002Z"
		fill="#E3E8F4"
	/>
	<path
		d="M118.159 20.6667C118.276 20.1679 118.401 19.6492 118.733 19.2596C119.065 18.8701 119.672 18.6644 120.1 18.9429C120.587 19.2596 120.607 19.9914 121.023 20.3991C121.386 20.7486 121.931 20.7759 122.425 20.8214C123.313 20.9024 124.185 21.1083 125.016 21.433C125.178 21.4833 125.325 21.5719 125.446 21.6914C125.673 21.9499 125.627 22.3467 125.74 22.6689C125.894 23.0839 126.321 23.3478 126.486 23.761C126.668 24.2197 126.486 24.733 126.334 25.2044C126.06 26.0508 125.887 26.93 125.62 27.78C125.353 28.6301 124.974 29.4674 124.349 30.1081C124.073 30.392 123.663 30.6542 123.3 30.4849L123.16 31.4951C123.119 31.7085 123.119 31.9278 123.16 32.1413C123.181 32.2481 123.232 32.3467 123.306 32.4259C123.381 32.5051 123.476 32.5617 123.581 32.589C123.608 32.7456 123.774 32.8202 123.908 32.9058C124.007 32.9738 124.092 33.0608 124.157 33.1619C124.223 33.2629 124.267 33.376 124.289 33.4945C124.31 33.6131 124.308 33.7347 124.282 33.8523C124.256 33.97 124.208 34.0813 124.139 34.1799C124.024 34.3346 123.855 34.4566 123.801 34.6404C123.719 34.9062 123.913 35.1865 124.149 35.3321C124.386 35.4777 124.663 35.5451 124.903 35.6852C125.401 35.9728 125.667 36.5389 125.838 37.0886C125.965 37.5036 126.071 37.9532 126.383 38.2554C126.503 38.37 126.646 38.4574 126.761 38.5775C126.959 38.8121 127.073 39.106 127.086 39.413C127.135 39.7935 127.052 40.1794 126.849 40.5051C126.486 41.0257 125.809 41.1804 125.215 41.4153C124.251 41.8121 123.458 42.5219 122.608 43.1263C122.262 43.4057 121.854 43.5979 121.419 43.6869C120.83 43.7651 120.251 43.5049 119.659 43.4812C119.305 43.4845 118.953 43.5309 118.61 43.6195L117.52 43.8562C117.578 43.0098 117.114 42.1615 116.854 41.3552C116.364 39.8371 116.273 38.2135 116.389 36.6226C116.505 35.0318 116.828 33.4627 117.148 31.901C117.371 30.8089 117.35 29.6676 117.693 28.6064C118.014 27.5853 118.474 26.6042 118.642 25.5412C118.918 23.8211 117.771 22.3631 118.159 20.6667Z"
		fill="#40464D"
	/>
	<path
		d="M126.422 24.0319C126.522 24.2168 126.593 24.4165 126.631 24.6235C126.715 24.9441 126.872 25.2407 127.09 25.4899C127.273 25.6514 127.435 25.8348 127.573 26.0359C127.74 26.3527 127.677 26.7385 127.755 27.0844C127.845 27.4612 128.109 27.7888 128.147 28.1765C128.148 28.2876 128.158 28.3984 128.178 28.5078C128.296 28.9483 128.942 29.0539 129.086 29.4943C129.182 29.7801 129.017 30.0914 129.047 30.3917C129.07 30.4846 129.075 30.5808 129.064 30.6757C129.023 30.7829 128.951 30.8755 128.857 30.9414C128.256 31.5169 127.84 32.259 127.662 33.0729C127.487 33.8823 127.395 34.7075 127.388 35.5356L126.678 34.5946C126.603 34.4804 126.507 34.3816 126.395 34.3033C126.304 34.2487 126.199 34.2214 126.106 34.1668C125.837 34.0139 125.732 33.6899 125.628 33.3987C125.341 32.5925 124.91 31.8451 124.357 31.1926C124.069 30.8522 123.733 30.51 123.669 30.0677C123.65 29.8646 123.661 29.6597 123.702 29.4598C123.883 28.2675 124.078 27.0462 124.657 25.9886C124.928 25.4935 125.278 25.0457 125.538 24.5434C125.712 24.2103 125.957 23.3438 126.422 24.0319Z"
		fill="#40464D"
	/>
	<path
		d="M108.51 25.1774C108.513 25.3306 108.474 25.4818 108.397 25.6142C108.328 25.6948 108.237 25.7545 108.136 25.7867C108.035 25.8188 107.927 25.8221 107.823 25.7962C107.617 25.7442 107.422 25.6527 107.25 25.5268C106.744 25.2065 106.238 24.8855 105.732 24.5639C105.449 24.3933 105.177 24.2061 104.916 24.0033C104.518 23.6663 104.157 23.2873 103.84 22.873C102.957 21.7808 102.177 20.5959 101.194 19.5966C100.927 19.3235 100.65 19.0614 100.392 18.7757C100.039 18.3626 99.7153 17.9259 99.4221 17.4687C99.1388 17.0483 98.8447 16.5823 98.8937 16.0799C98.9227 15.796 99.0589 15.5339 99.0989 15.2517C99.1388 14.9696 99.0317 14.6256 98.7593 14.5491C98.7271 14.541 98.6943 14.5355 98.6613 14.5327C98.6075 14.527 98.5545 14.5154 98.5033 14.4982C98.2509 14.3926 98.289 14.0012 98.4706 13.7956C98.6522 13.5899 98.9209 13.4752 99.0862 13.2495C99.163 13.1156 99.2492 12.9872 99.344 12.8654C99.4656 12.7609 99.6108 12.6878 99.7671 12.6525C100.814 12.3431 101.922 12.3011 102.99 12.5305C103.172 12.5706 103.379 12.6434 103.433 12.8199C103.455 12.9059 103.455 12.996 103.433 13.082C103.353 13.4409 103.307 13.8066 103.295 14.1742C103.295 14.2508 103.299 14.3274 103.308 14.4035C103.393 15.1753 103.892 15.8287 104.379 16.4312C104.956 17.1484 105.543 17.8601 106.131 18.57C106.449 18.9813 106.805 19.3622 107.193 19.7076C107.557 20.0098 108.027 20.2537 108.31 20.6414C108.541 20.9545 108.466 21.3822 108.492 21.759C108.576 22.8967 108.582 24.0388 108.51 25.1774Z"
		fill="#40464D"
	/>
	<path
		d="M131.57 32.7714C131.749 32.5966 131.911 32.4046 132.053 32.198C132.206 31.9421 132.328 31.669 132.416 31.3844L133.469 28.3902C133.636 27.9169 133.803 27.4418 134.014 26.9813C134.232 26.4844 134.49 26.0057 134.728 25.5251C135.339 24.2606 135.812 22.9331 136.138 21.5662C136.196 21.3784 136.215 21.1809 136.195 20.9855C136.144 20.6706 135.906 20.4249 135.679 20.201C135.451 19.9539 135.191 19.7384 134.906 19.5603C134.762 19.4711 134.603 19.4112 134.436 19.3844C134.27 19.3575 134.1 19.3641 133.936 19.4038C133.471 19.5403 133.179 20.0172 133.072 20.4959C132.965 20.9746 133.004 21.4643 132.959 21.9521C132.894 22.651 132.654 23.3263 132.596 24.0271C132.565 24.433 132.596 24.8426 132.547 25.2467C132.458 25.7773 132.273 26.2873 132.002 26.752C131.412 27.8589 130.615 28.8415 129.654 29.6461C129.391 29.8409 129.154 30.0691 128.95 30.3251C128.779 30.5811 128.664 30.8699 128.61 31.1733C128.49 31.6352 128.542 32.1253 128.757 32.5512C129.053 33.0572 129.622 33.2793 130.165 33.3921C130.898 33.545 131.067 33.2938 131.57 32.7714Z"
		fill="#BE6F72"
	/>
	<path
		d="M117.489 9.77855C117.645 9.48408 117.885 9.24229 118.177 9.08335C118.47 8.92441 118.803 8.85536 119.134 8.88482C119.468 8.94409 119.778 9.09588 120.031 9.32299C120.283 9.55011 120.467 9.84348 120.561 10.1699C120.647 10.4411 120.681 10.7414 120.83 10.9744C121.055 11.3257 121.473 11.4277 121.785 11.6825C121.971 11.8561 122.122 12.0654 122.226 12.2979C122.331 12.5305 122.388 12.7817 122.395 13.0367C122.412 13.5577 122.33 14.0773 122.154 14.5675C122.079 14.7767 122.018 14.9908 121.972 15.2082C121.936 15.4194 121.932 15.6342 121.899 15.8453C121.859 16.1191 121.765 16.382 121.622 16.6187C121.478 16.8553 121.29 17.0609 121.066 17.2232C121.002 17.2753 120.923 17.3041 120.841 17.3051C120.699 17.2887 120.612 17.1231 120.559 16.9738C120.271 16.1384 120.34 15.1172 119.808 14.451C119.566 14.1823 119.273 13.964 118.947 13.8085C118.814 13.7225 118.664 13.666 118.508 13.6429C118.277 13.6553 118.056 13.7364 117.872 13.8758C117.489 14.1335 117.064 14.322 116.616 14.4328C116.392 14.4859 116.159 14.4883 115.935 14.4398C115.71 14.3913 115.499 14.2932 115.317 14.1525C115.067 13.945 114.883 13.6338 114.606 13.4718C114.328 13.3098 114.037 13.3189 113.763 13.2078C113.588 13.1333 113.433 13.0198 113.309 12.876C113.184 12.7321 113.094 12.5617 113.046 12.3777C112.997 12.1937 112.991 12.001 113.028 11.8143C113.065 11.6276 113.143 11.4518 113.258 11.3002C113.44 11.0818 113.709 10.958 113.87 10.716C114.079 10.4029 114.061 9.9733 114.161 9.59834C114.22 9.36111 114.335 9.14143 114.495 8.95751C114.656 8.77359 114.858 8.63074 115.085 8.5408C115.305 8.46591 115.541 8.45157 115.768 8.49927C115.996 8.54698 116.206 8.65498 116.378 8.81201C116.559 8.97583 116.705 9.18698 116.883 9.35808C117.058 9.52666 117.273 9.64832 117.508 9.71193C117.743 9.77553 117.99 9.77904 118.226 9.72212"
		fill="#40464D"
	/>
	<path
		opacity="0.1"
		d="M120.474 36.5701C120.369 36.6645 120.294 36.7886 120.259 36.9262C120.225 37.0639 120.233 37.2087 120.282 37.3419C120.322 37.4274 122.196 37.0652 122.393 37.0379C122.887 36.9669 123.753 37.0015 124.086 36.5483C124.678 35.7456 122.844 35.9239 122.508 35.9531C121.869 36.0077 120.961 36.095 120.474 36.5701Z"
		fill="black"
	/>
	<path
		d="M103.428 13.0893C103.348 13.4482 103.302 13.8139 103.29 14.1814C102.746 14.2925 102.179 14.1105 101.656 13.9284L100.155 13.4151C100.063 13.3566 99.9531 13.3351 99.8466 13.3551C99.74 13.375 99.645 13.4349 99.5809 13.5225C99.3394 13.7737 99.0071 14.2506 98.673 14.5327C98.6192 14.527 98.5663 14.5154 98.515 14.4982C98.2626 14.3926 98.3008 14.0012 98.4823 13.7956C98.6639 13.5899 98.9326 13.4752 99.0979 13.2495C99.1747 13.1156 99.2609 12.9872 99.3557 12.8654C99.4773 12.7609 99.6225 12.6878 99.7788 12.6525C100.826 12.3431 101.934 12.3011 103.002 12.5305C103.183 12.5706 103.39 12.6434 103.445 12.8199C103.462 12.9096 103.457 13.0024 103.428 13.0893Z"
		fill="#40464D"
	/>
	<path
		opacity="0.1"
		d="M103.428 13.0893C103.348 13.4482 103.302 13.8139 103.29 14.1814C102.746 14.2925 102.179 14.1105 101.656 13.9284L100.155 13.4151C100.063 13.3566 99.9531 13.3351 99.8466 13.3551C99.74 13.375 99.645 13.4349 99.5809 13.5225C99.3394 13.7737 99.0071 14.2506 98.673 14.5327C98.6192 14.527 98.5663 14.5154 98.515 14.4982C98.2626 14.3926 98.3008 14.0012 98.4823 13.7956C98.6639 13.5899 98.9326 13.4752 99.0979 13.2495C99.1747 13.1156 99.2609 12.9872 99.3557 12.8654C99.4773 12.7609 99.6225 12.6878 99.7788 12.6525C100.826 12.3431 101.934 12.3011 103.002 12.5305C103.183 12.5706 103.39 12.6434 103.445 12.8199C103.462 12.9096 103.457 13.0024 103.428 13.0893Z"
		fill="black"
	/>
	<path
		opacity="0.1"
		d="M117.162 47.6463C117.424 47.7337 117.707 47.8611 117.796 48.1232L115.694 47.588L114.604 47.3095C114.412 47.2604 113.722 47.204 113.595 47.0529C113.413 46.8308 114.058 46.9837 114.174 47.0001C114.526 47.0529 114.878 47.1075 115.229 47.1712C115.89 47.2895 116.525 47.4843 117.162 47.6463Z"
		fill="black"
	/>
	<path
		opacity="0.1"
		d="M117.979 49.512C117.798 49.39 117.276 49.4046 117.053 49.3518C116.726 49.2735 116.405 49.1698 116.084 49.0697C115.432 48.8567 114.785 48.6146 114.115 48.4581C113.992 48.4308 113.571 48.4235 113.591 48.2669C113.611 48.1104 114.012 48.0558 114.112 48.0485C114.705 48.0048 115.446 48.2833 115.998 48.4817C116.702 48.7343 117.368 49.0809 117.979 49.512Z"
		fill="black"
	/>
	<path
		opacity="0.1"
		d="M116.646 45.9816C115.979 45.7996 115.375 45.3846 114.688 45.3045C114.509 45.3113 114.333 45.2574 114.189 45.1516C114.108 45.0721 114.052 44.971 114.027 44.8604C114.487 44.8367 115.021 45.0315 115.438 45.2153C115.668 45.3141 115.889 45.4323 116.099 45.5684C116.252 45.6613 116.48 45.9288 116.646 45.9816Z"
		fill="black"
	/>
	<path
		d="M129.352 29.6846C129.24 30.4413 129.403 31.2134 129.811 31.8596C130.22 32.5057 130.847 32.9826 131.578 33.203C131.489 33.6344 131.044 33.8729 130.73 34.1805C130.287 34.6119 130.058 35.2581 129.536 35.5857C128.953 35.9497 128.203 35.8078 127.538 35.6549C127.478 35.6481 127.422 35.6189 127.382 35.573C127.368 35.5511 127.359 35.5271 127.353 35.502C127.133 34.6956 126.99 33.8347 127.215 33.0265C127.397 32.3384 127.832 31.7523 128.181 31.1444C128.53 30.5364 128.562 29.8848 129.352 29.6846Z"
		fill="#40464D"
	/>
	<path
		d="M113.116 19.2472C112.414 19.2985 111.731 19.5068 111.119 19.857C110.712 20.0899 110.295 20.403 109.83 20.3466C109.556 20.3157 109.285 20.1646 109.018 20.2374C108.868 20.2982 108.728 20.3817 108.603 20.4849C108.539 20.5356 108.464 20.569 108.383 20.5817C108.303 20.5945 108.221 20.5862 108.145 20.5577L107.963 23.0769C107.894 24.0343 107.827 25.0118 108.056 25.9456C108.174 26.4225 108.434 26.8557 108.463 27.3398C108.492 27.824 108.448 28.3209 108.483 28.8106C108.515 29.2638 108.615 29.7098 108.641 30.163C108.692 31.0185 108.481 31.8667 108.278 32.6986C107.971 33.9254 107.785 35.1795 107.188 36.2898C107.021 36.5974 106.825 36.9105 106.825 37.26C106.825 37.3037 106.825 37.3456 106.836 37.3874C106.654 37.4875 106.485 37.5822 106.331 37.6805C105.986 37.9044 105.618 38.1537 105.476 38.5414C105.361 38.8563 105.414 39.2167 105.276 39.5207C105.138 39.8247 104.822 40.0413 104.753 40.3689C104.704 40.6074 104.799 40.8586 104.753 41.097C104.712 41.2204 104.679 41.3462 104.653 41.4738C104.635 41.7468 104.866 41.9671 105.095 42.1163C105.428 42.3368 105.797 42.4992 106.184 42.5969L107.268 38.283C108.256 36.4511 109.079 34.534 109.725 32.5548C109.91 31.9078 110.147 31.2771 110.435 30.669C110.64 30.325 110.822 29.9674 110.979 29.5987C111.145 29.14 111.161 28.6431 111.241 28.1589C111.336 27.5938 111.478 27.0379 111.668 26.4971C111.864 25.9128 112.091 25.3303 112.131 24.7169C112.19 23.8396 111.873 22.9131 112.21 22.1013C112.354 21.7974 112.54 21.516 112.764 21.2658C113.233 20.6906 113.659 20.0881 114.128 19.5129C113.885 19.2526 113.48 19.2253 113.116 19.2472Z"
		fill="#40464D"
	/>
	<g opacity="0.1">
		<path
			opacity="0.1"
			d="M118.233 9.17969L118.006 9.19607L117.98 9.21427C118.065 9.2108 118.15 9.19922 118.233 9.17969Z"
			fill="black"
		/>
		<path
			opacity="0.1"
			d="M122.388 12.958C122.35 13.3198 122.272 13.6764 122.156 14.021C122.081 14.2301 122.02 14.4442 121.974 14.6617C121.938 14.8728 121.934 15.0876 121.901 15.2987C121.861 15.5725 121.767 15.8355 121.624 16.0721C121.48 16.3087 121.291 16.5143 121.068 16.6766C121.004 16.7287 120.925 16.7576 120.843 16.7586C120.701 16.7422 120.614 16.5765 120.561 16.4273C120.273 15.5918 120.342 14.5707 119.81 13.9045C119.568 13.6357 119.275 13.4174 118.949 13.2619C118.816 13.1759 118.666 13.1194 118.51 13.0963C118.279 13.1087 118.058 13.1898 117.874 13.3293C117.491 13.587 117.066 13.7755 116.618 13.8863C116.394 13.9394 116.161 13.9417 115.937 13.8932C115.712 13.8447 115.501 13.7466 115.319 13.6059C115.069 13.3984 114.885 13.0872 114.608 12.9252C114.33 12.7632 114.039 12.7723 113.765 12.6613C113.594 12.5879 113.441 12.4769 113.319 12.3363C113.196 12.1958 113.107 12.0294 113.057 11.8494C113.051 11.8267 113.046 11.8036 113.042 11.7803C112.997 11.9835 113.002 12.1947 113.057 12.3955C113.107 12.5754 113.196 12.7419 113.319 12.8824C113.441 13.0229 113.594 13.134 113.765 13.2073C114.039 13.3184 114.348 13.3202 114.608 13.4713C114.867 13.6223 115.069 13.9445 115.319 14.152C115.501 14.2927 115.712 14.3908 115.937 14.4393C116.161 14.4878 116.394 14.4854 116.618 14.4323C117.066 14.3215 117.491 14.133 117.874 13.8753C118.058 13.7359 118.279 13.6548 118.51 13.6423C118.666 13.6655 118.816 13.722 118.949 13.808C119.271 13.9665 119.559 14.1866 119.797 14.456C120.329 15.1222 120.26 16.1433 120.549 16.9788C120.601 17.1299 120.688 17.2937 120.83 17.3101C120.917 17.3105 121.002 17.2795 121.068 17.2227C121.292 17.0599 121.482 16.8536 121.626 16.6159C121.769 16.3783 121.863 16.1142 121.903 15.8393C121.936 15.6282 121.939 15.4134 121.976 15.2023C122.022 14.9848 122.082 14.7707 122.157 14.5616C122.334 14.0713 122.416 13.5518 122.399 13.0308C122.395 13.0089 122.392 12.9834 122.388 12.958Z"
			fill="black"
		/>
	</g>
	<path
		d="M110.898 27.5635L110.775 29.2253C110.756 29.451 110.326 34.8243 107.152 41.104C104.429 46.4901 99.1286 53.5052 89.1221 57.4477C88.3413 57.7572 87.5309 58.046 86.6908 58.3142L85.7539 55.3654C88.1061 54.6233 90.3718 53.6299 92.512 52.4021C97.6124 49.4497 101.578 45.2359 104.343 39.8135C105.811 36.9265 106.856 33.8431 107.448 30.6578H96.0636V27.5635H110.898Z"
		fill="#3858E9"
	/>
	<path
		opacity="0.1"
		d="M87.8988 57.4498C97.9035 53.5072 103.205 46.494 105.927 41.1079C109.101 34.8282 109.533 29.4586 109.55 29.2292L109.673 27.5674H110.944L110.821 29.2292C110.804 29.4549 110.372 34.8282 107.198 41.1079C104.475 46.494 99.1745 53.5072 89.1698 57.4498C88.3891 57.7593 87.578 58.0487 86.7367 58.3181L86.6133 57.9304C87.0515 57.7738 87.48 57.6136 87.8988 57.4498Z"
		fill="white"
	/>
	<path
		d="M67.8669 55.3654L66.93 58.3142C66.0887 58.0448 65.2776 57.7553 64.4969 57.4459C54.4922 53.5033 49.1903 46.4901 46.4685 41.104C43.2946 34.8243 42.8625 29.4547 42.8461 29.2253L42.7227 27.5635H57.5499V30.6578H46.1635C46.7587 33.8435 47.8074 36.9269 49.2774 39.8135C52.0428 45.2359 56.0065 49.4497 61.1069 52.4003C63.2474 53.6293 65.5138 54.6235 67.8669 55.3654Z"
		fill="#3858E9"
	/>
	<path
		opacity="0.1"
		d="M65.721 57.4498C55.7163 53.5072 50.4144 46.494 47.6926 41.1079C44.5187 34.8282 44.0866 29.4586 44.0703 29.2292L43.9468 27.5674H42.6758L42.7992 29.2292C42.8156 29.4549 43.2477 34.8282 46.4216 41.1079C49.1452 46.494 54.4453 53.5072 64.45 57.4498C65.2308 57.7593 66.0418 58.0487 66.8831 58.3181L67.0066 57.9304C66.5696 57.7738 66.1411 57.6136 65.721 57.4498Z"
		fill="white"
	/>
	<path
		d="M93.937 83.8701V100.556H59.6797V83.8701L60.7691 82.4139C71.8705 78.4641 74.1202 68.1635 74.5686 64.088C74.6354 63.5249 74.6736 62.9587 74.683 62.3916H78.9191C78.9286 62.9587 78.9668 63.5249 79.0335 64.088C79.4893 68.1635 81.739 78.4677 92.8331 82.4139L93.937 83.8701Z"
		fill="#3858E9"
	/>
	<path
		opacity="0.1"
		d="M93.937 83.8701H59.6797V85.9634H93.937V83.8701Z"
		fill="black"
	/>
	<path
		opacity="0.1"
		d="M62.5849 82.4139C73.6862 78.4641 75.9359 68.1635 76.3844 64.088C76.4511 63.5249 76.4893 62.9587 76.4988 62.3916H74.6831C74.6736 62.9587 74.6354 63.5249 74.5687 64.088C74.1129 68.1635 71.8632 78.4677 60.7691 82.4139L59.6797 83.8701V100.556H61.4954V83.8701L62.5849 82.4139Z"
		fill="white"
	/>
	<path
		opacity="0.1"
		d="M54.4766 27.5635H57.5488V30.6578H54.7489C54.6388 29.6385 54.548 28.6071 54.4766 27.5635Z"
		fill="black"
	/>
	<path
		opacity="0.1"
		d="M67.8654 55.3655L66.9285 58.3143C66.0872 58.0449 65.2762 57.7555 64.4954 57.446C63.2111 55.8737 62.0762 54.1845 61.1055 52.4004C63.2459 53.6294 65.5124 54.6236 67.8654 55.3655Z"
		fill="black"
	/>
	<path
		opacity="0.1"
		d="M85.75 55.3657C88.1022 54.6236 90.3679 53.6301 92.5081 52.4023C91.5369 54.1867 90.402 55.8765 89.1182 57.4498C88.3374 57.7592 87.527 58.048 86.6869 58.3162L85.75 55.3657Z"
		fill="black"
	/>
	<path
		opacity="0.1"
		d="M99.1407 27.5635C99.0693 28.6071 98.9785 29.6385 98.8683 30.6578H96.0703V27.5635H99.1407Z"
		fill="black"
	/>
	<path
		opacity="0.1"
		d="M79.043 64.088C77.5684 64.3744 76.0527 64.3744 74.5781 64.088C74.6449 63.5249 74.6831 62.9587 74.6925 62.3916H78.9286C78.9381 62.9587 78.9763 63.5249 79.043 64.088Z"
		fill="black"
	/>
	<path
		d="M54.8398 22.4375C54.9179 45.3831 64.7229 63.9384 76.8102 63.9384C88.8975 63.9384 98.7006 45.3831 98.7805 22.4375H54.8398Z"
		fill="#3858E9"
	/>
	<path
		opacity="0.1"
		d="M58.7437 22.4375H54.8398C54.9179 45.3831 64.7228 63.9384 76.8101 63.9384C77.4642 63.9372 78.1171 63.8818 78.7621 63.7727C67.5881 61.9015 58.8181 44.1344 58.7437 22.4375Z"
		fill="white"
	/>
	<path
		d="M88.4614 90.2568H65.1602V96.2635H88.4614V90.2568Z"
		fill="#40464D"
	/>
	<path
		opacity="0.1"
		d="M66.2496 91.0759H88.4614V90.2568H65.1602V96.2635H66.2496V91.0759Z"
		fill="white"
	/>
	<path
		d="M42.4129 44.5912C41.9935 44.4511 39.5241 42.4925 39.3371 41.6061C39.15 40.7196 40.6426 32.4613 40.6426 32.4613C40.6426 32.4613 40.5046 32.4613 40.2794 32.434V32.3012L40.5863 21.4527C40.5863 21.4527 41.8446 14.1718 39.4678 14.596C37.091 15.0201 38.5817 21.4527 38.5817 21.4527C38.5817 21.4527 38.3112 24.7182 38.1205 25.6974C37.9389 26.6421 37.1073 30.4901 37.6738 31.6859C37.6946 31.7284 37.7176 31.7697 37.7428 31.8097C37.7428 31.8097 37.8373 35.9143 36.8114 36.4749C35.8327 37.0082 35.426 39.693 35.3915 39.9333L35.3388 39.9115C35.0466 39.7282 34.7901 39.4932 34.5817 39.218C34.5599 39.1907 34.5435 39.1615 34.5236 39.1324C35.1916 38.379 35.5516 37.4007 35.5318 36.3929C35.5119 35.3851 35.1136 34.4218 34.4164 33.6954C34.0923 33.3579 33.7119 33.0795 33.2925 32.8727C33.2803 32.5249 33.1982 32.1832 33.051 31.868C32.5789 30.8559 29.9643 29.5326 28.1068 29.5017C27.2498 29.4762 26.5471 29.7201 26.291 30.3918C26.1603 30.7321 26.2003 31.1198 26.1458 31.473C26.0368 32.2011 25.5702 32.7708 24.971 33.224C24.7291 32.9532 24.4675 32.7008 24.1884 32.4686C23.582 32.0027 22.3727 30.4664 22.3727 30.4664C22.3727 30.4664 18.5978 26.5475 18.3182 25.4735C18.0386 24.3996 14.2673 17.9506 13.4284 19.0737C12.5896 20.1968 16.3173 25.0913 16.3173 25.0913C16.3173 25.0913 17.0254 26.8696 17.5701 27.4703C18.1148 28.071 22.291 34.1505 22.291 34.1505L22.4907 34.5655C21.6083 35.0315 20.8021 35.6249 20.517 36.5495C20.0994 37.9111 21.0127 39.2799 21.6446 40.554C22.8757 43.0404 23.0518 46.2112 21.463 48.4828C20.0395 50.4887 17.5701 51.4425 15.2587 52.2762C16.375 53.1549 17.7618 53.6164 19.1807 53.5813C18.6468 55.1321 16.7548 55.6454 15.1425 55.933C15.9886 56.7484 17.1997 57.0451 18.3618 57.2253C18.9309 57.3224 19.5076 57.3681 20.0849 57.3619H20.2265L20.3681 57.3509C20.5649 57.3378 20.7608 57.3129 20.9546 57.2763C21.7935 57.1052 22.6087 56.6465 23.0373 55.9039C23.4004 55.2686 23.5275 54.4022 24.1866 54.0836C24.3582 54.006 24.5432 53.9621 24.7313 53.9544H24.7114C24.8348 53.9544 24.9619 53.9544 25.0854 53.9544L27.8326 53.9817C27.947 53.9817 28.065 53.9817 28.183 53.9817C28.9584 53.9635 29.7863 53.8288 30.1803 53.1863C30.3424 52.8742 30.4277 52.5279 30.4291 52.1761C30.4872 51.3042 30.4291 50.4068 30.4527 49.5277C30.6869 51.1276 30.9321 53.6213 30.3492 54.5423C29.8757 55.2402 29.3017 55.864 28.646 56.3935C28.4811 56.5324 28.3303 56.6872 28.1957 56.8558C28.1068 56.9195 28.0541 56.9541 28.0541 56.9541L27.9978 57.1234C27.7909 57.438 27.6409 57.7868 27.5548 58.1536C27.5231 58.2479 27.5114 58.3477 27.5203 58.4467C27.5838 58.5759 27.0664 59.1092 27.2171 59.3331C25.9243 60.853 25.6791 63.1556 25.6791 63.1556L23.3187 66.7487C22.1058 69.9432 20.2901 70.2708 20.2901 70.2708C20.2901 70.2708 16.0249 67.4021 15.9087 67.262C15.7925 67.1218 14.162 66.421 14.162 66.421C13.9697 66.0831 13.6762 65.8143 13.3231 65.6529C12.7639 65.4199 12.7167 64.5608 12.7167 64.5608C12.6477 62.5313 11.4584 62.3765 11.4584 62.3765C10.4997 62.2946 9.76792 62.4657 9.20504 62.7788L9.03437 62.7915C8.21002 62.8589 7.21864 62.9335 6.1292 63.0063C3.09875 63.2066 2.3779 65.1742 2.3779 65.1742C2.3779 65.1742 2.00568 65.5947 2.49411 66.0497C2.98254 66.5048 6.10923 66.0497 6.24177 66.0388C6.00348 66.0647 5.76251 66.048 5.53001 65.9897C6.02207 65.9715 6.69934 65.9533 7.27674 65.9533H7.41655C7.3802 66.2601 7.36262 66.5689 7.36389 66.8779C7.36389 67.4604 8.97081 67.8335 8.97081 67.8335L13.8642 72.202C13.8642 72.202 16.94 73.5799 18.8974 75.5622C20.8548 77.5444 22.5851 75.8334 22.5851 75.8334C24.6569 75.3201 30.6179 68.0956 30.6234 68.0884C30.6234 68.2995 30.7487 75.3255 30.9865 76.7362C30.996 76.8078 31.0136 76.878 31.0392 76.9455C31.3188 77.5516 30.9448 79.208 30.7832 79.907C30.6801 80.492 30.6405 81.0864 30.6651 81.6799C30.6651 81.6799 28.43 90.2349 28.6152 90.9866C28.8004 91.7384 27.4041 95.2314 27.4041 95.2314V98.1437L27.6474 98.131C27.6157 98.1779 27.5867 98.2265 27.5602 98.2766L27.5439 98.3075C27.5439 98.3075 29.0346 98.6333 30.0369 98.5405C31.0392 98.4477 32.7605 99.3141 32.7605 99.3141C32.7605 99.3141 33.3433 99.5908 35.1373 99.7073C36.9312 99.8238 36.9312 98.9137 36.9312 98.9137C36.726 97.6741 33.8917 97.2591 33.8045 97.2464C33.5758 97.1026 33.3615 96.946 33.1854 96.8113L33.1491 96.7822C33.1609 96.7549 33.1712 96.7269 33.1799 96.6985C33.4831 95.4607 31.8054 94.9238 31.8054 94.9238V94.6216C32.8948 94.061 33.1109 90.213 33.1109 90.213C33.1109 90.213 34.7451 85.455 34.9739 84.6614C35.2026 83.8678 34.9739 82.6792 34.9739 82.6792L35.1373 81.6526C35.1373 81.6526 35.4877 80.9536 35.4877 80.8135C35.5331 80.4583 35.6694 80.1209 35.8835 79.8342C36.1396 79.5302 35.6039 78.8076 35.6039 78.8076L36.0706 77.5953V76.2648L37.16 71.4375C37.16 71.4375 38.3021 65.8149 37.9063 63.9747C37.5104 62.1344 38.3729 61.1989 38.3729 61.1989C38.2952 61.2398 38.2151 61.2763 38.1332 61.3081C38.2423 61.0554 38.3362 60.7965 38.4147 60.5327L40.8659 60.8366V60.873H41.7502C41.7502 60.873 41.4705 57.4146 41.4705 56.0204C41.4705 54.6261 42.4129 49.6223 42.4129 49.6223C42.4129 49.6223 42.8323 44.7314 42.4129 44.5912ZM31.5312 40.554C31.5312 40.6905 31.5185 40.8325 31.5094 40.9781L31.4604 41.0527L31.3696 40.9763L31.2589 41.1492L31.2262 41.1656C30.9865 41.0418 30.8631 40.3338 30.6906 40.4867L30.667 40.5067C30.6288 40.463 30.5907 40.4503 30.5507 40.4867L30.5144 40.5176C30.5144 40.4648 30.5144 40.4102 30.5144 40.3556C30.8466 40.4413 31.1882 40.4847 31.5312 40.4848C31.5331 40.5085 31.5312 40.5322 31.5312 40.554ZM39.6839 56.6592H39.7365L39.6494 56.8886C39.6603 56.8121 39.6712 56.7375 39.6839 56.6592ZM30.7341 97.9362L30.4 97.8525L30.5816 97.8215L30.7505 97.9326L30.7705 97.9471L30.7341 97.9362ZM34.1477 97.4466C34.0369 97.3883 33.9244 97.321 33.8154 97.2518C33.8517 97.2718 33.9952 97.3465 34.1477 97.4466Z"
		fill="url(#paint1_linear)"
	/>
	<path
		d="M40.8894 53.2207L38.6905 58.9653H39.2244L37.1562 60.618L40.8894 61.084V53.2207Z"
		fill="#F86D70"
	/>
	<path
		opacity="0.1"
		d="M40.8894 53.2207L38.6905 58.9653L38.1367 58.816L37.1562 60.618L40.8894 61.084V53.2207Z"
		fill="black"
	/>
	<path
		d="M37.4414 56.8959H40.8895L42.155 46.457H37.4414V56.8959Z"
		fill="#F86D70"
	/>
	<path
		opacity="0.1"
		d="M37.4414 56.8959H40.8895L42.155 46.457H37.4414V56.8959Z"
		fill="black"
	/>
	<path
		d="M30.7065 48.9296L31.451 48.804L33.1614 48.5128C33.1614 48.5128 38.2981 47.3515 39.3585 47.2569C40.0008 47.1718 40.6273 46.9927 41.2178 46.7253C41.4956 46.6052 41.6717 46.5142 41.6717 46.5142L39.8215 43.1268L36.9508 40.9935C36.9508 40.9935 35.1351 40.6058 34.367 39.5464C34.1956 39.3185 34.084 39.0511 34.0424 38.7687C34.0009 38.4863 34.0307 38.1979 34.1292 37.9301C34.5976 36.4739 31.3311 39.3225 31.3311 39.3225C31.3311 39.3225 31.362 40.0051 31.3311 40.8752C31.3311 41.0463 31.3148 41.2247 31.3021 41.4067C31.3021 41.5268 31.2857 41.647 31.273 41.7707C31.1931 42.6353 31.0297 43.5254 30.7065 44.0569C29.9167 45.3566 30.7065 48.9296 30.7065 48.9296Z"
		fill="#FBBEBE"
	/>
	<path
		opacity="0.1"
		d="M31.332 40.9477H31.4047C31.5354 40.9477 31.6407 40.6692 31.7678 40.6564C32.7901 40.5581 33.7233 40.3433 34.3716 39.6171C34.2006 39.3893 34.0893 39.1222 34.0477 38.8401C34.0062 38.5581 34.0357 38.2702 34.1337 38.0025C34.6021 36.5464 31.3357 39.3932 31.3357 39.3932C31.3357 39.3932 31.3702 40.0776 31.332 40.9477Z"
		fill="black"
	/>
	<path
		d="M27.3555 36.8191C27.3552 37.3432 27.458 37.8621 27.6579 38.3463C27.8579 38.8305 28.151 39.2704 28.5207 39.641C28.8903 40.0115 29.3292 40.3054 29.8122 40.5058C30.2951 40.7062 30.8128 40.8093 31.3356 40.809C31.4663 40.809 31.5952 40.809 31.7241 40.7908C32.491 40.7154 33.2196 40.4184 33.8214 39.936C34.4232 39.4535 34.8724 38.8063 35.1143 38.0729C35.3563 37.3395 35.3807 36.5514 35.1845 35.8044C34.9884 35.0573 34.5801 34.3834 34.0093 33.8645C33.4385 33.3455 32.7297 33.0039 31.9689 32.8809C31.2082 32.758 30.4282 32.8591 29.7236 33.172C29.019 33.4848 28.4202 33.996 27.9999 34.6434C27.5795 35.2908 27.3556 36.0466 27.3555 36.8191Z"
		fill="#FBBEBE"
	/>
	<path
		d="M26.1348 30.7637C26.0041 31.1023 26.044 31.4809 25.9914 31.8395C25.7971 33.1337 24.4843 33.9091 23.2968 34.4515C22.1093 34.9939 20.7693 35.6364 20.3917 36.8869C19.9777 38.2394 20.8819 39.5954 21.5102 40.8641C22.734 43.336 22.9083 46.4886 21.3286 48.7493C19.925 50.7515 17.4792 51.7016 15.1769 52.5353C16.285 53.4092 17.6622 53.8687 19.0716 53.8349C18.5433 55.3767 16.664 55.8881 15.0625 56.1721C15.9032 56.9839 17.107 57.2788 18.26 57.4572C19.1007 57.5882 19.9632 57.6738 20.802 57.5045C21.6409 57.3352 22.4362 56.8783 22.8683 56.1393C23.2315 55.5077 23.3549 54.6467 24.0104 54.3282C24.3063 54.2115 24.625 54.1647 24.9419 54.1917L27.6655 54.2208C28.5134 54.2208 29.5175 54.1553 29.9551 53.429C30.1165 53.1188 30.2012 52.7742 30.202 52.4243C30.3201 50.6332 29.9769 48.7402 30.7123 47.1056C30.9338 46.6123 29.5121 45.8315 29.661 45.3091C30.173 43.5125 30.3019 42.0982 30.2965 40.2288C30.2965 38.7818 31.2352 37.5349 32.0105 36.3136C32.7858 35.0922 33.434 33.5505 32.8221 32.2399C32.1322 30.7783 26.9501 28.6541 26.1348 30.7637Z"
		fill="#40464D"
	/>
	<path
		d="M29.7617 97.413L30.4553 97.8735L30.5625 97.9445L30.5824 97.9572L31.405 98.5033L33.326 98.8273L35.0146 98.7108C35.0146 98.7108 35.5012 97.6915 34.7368 97.7151C34.492 97.7025 34.2533 97.6334 34.0396 97.5131L33.9343 97.4603C33.8235 97.402 33.7127 97.3365 33.6038 97.2673C33.3768 97.1235 33.1626 96.967 32.9901 96.8341C32.7359 96.6375 32.567 96.4883 32.567 96.4883L29.7617 97.413Z"
		fill="#FBBEBE"
	/>
	<path
		opacity="0.1"
		d="M30.4609 97.8731L30.5681 97.9441L30.588 97.9568L31.4106 98.5029L33.3316 98.8269L35.0202 98.7104C35.0202 98.7104 35.5068 97.6911 34.7424 97.7147C34.4976 97.7022 34.259 97.633 34.0452 97.5127C34.1795 97.6183 34.2921 97.733 34.303 97.8294C34.3339 98.0897 33.0538 98.5575 33.0538 98.5575L31.249 98.0788C31.249 98.0788 30.9421 97.9914 30.5227 97.8822L30.4827 97.8713L30.4609 97.8731Z"
		fill="black"
	/>
	<path
		d="M27.375 98.3172C27.375 98.3172 28.8548 98.6412 29.8498 98.5483C30.8449 98.4555 32.5589 99.3147 32.5589 99.3147C32.5589 99.3147 33.1381 99.5877 34.9194 99.7042C36.7006 99.8207 36.7006 98.9142 36.7006 98.9142C36.4972 97.6819 33.6828 97.276 33.5957 97.2578C33.6302 97.276 33.7773 97.3506 33.9261 97.4508C34.1259 97.5818 34.342 97.7529 34.3583 97.8912C34.3892 98.1497 33.1091 98.6193 33.1091 98.6193L31.3042 98.1424C31.3042 98.1424 30.9974 98.0532 30.5779 97.944H30.538C29.9161 97.7742 29.2842 97.6435 28.646 97.5527C27.8689 97.469 27.4712 98.1315 27.3895 98.2808C27.3836 98.2924 27.3787 98.3046 27.375 98.3172Z"
		fill="#40464D"
	/>
	<path
		d="M4.05078 65.5844L4.83699 66.1887C4.83699 66.1887 5.06577 66.1778 5.40713 66.1669H5.51608C6.00451 66.1487 6.67814 66.1305 7.2501 66.1305C7.61983 66.1138 7.99029 66.1345 8.35587 66.1924C8.74807 66.3307 9.44531 63.9426 9.44531 63.9426L8.65729 63.7606L8.39582 63.6987L8.21425 63.655L7.5733 63.5039L5.63047 63.726L4.26504 64.607L4.05078 65.5844Z"
		fill="#FBBEBE"
	/>
	<path
		opacity="0.1"
		d="M4.05078 65.5844L4.83699 66.1887C4.83699 66.1887 5.06577 66.1778 5.40713 66.1669C5.25049 66.1063 5.12133 65.9904 5.04398 65.8411C4.53558 64.4268 7.05763 63.8224 7.05763 63.8224L8.2324 63.7715L8.46119 63.7606H8.64276L8.38129 63.6987L8.19972 63.655L7.55877 63.5039L5.61594 63.726L4.25051 64.607L4.05078 65.5844Z"
		fill="black"
	/>
	<path
		d="M2.50162 66.2231C2.97734 66.6636 6.09313 66.2231 6.22386 66.2122C5.9874 66.2389 5.74806 66.2223 5.51755 66.1631C5.40342 66.1426 5.29529 66.0968 5.20106 66.0291C5.10682 65.9614 5.02885 65.8735 4.97283 65.7717C4.46442 64.3556 6.98647 63.7531 6.98647 63.7531L8.16125 63.7021L8.38821 63.6912L11.2444 63.5674L11.3824 62.7793C11.3824 62.7793 10.4545 62.8667 8.9983 62.9832C8.1794 63.0505 7.18257 63.1251 6.10584 63.1961C3.09718 63.3963 2.38178 65.3531 2.38178 65.3531C2.38178 65.3531 2.01682 65.7717 2.50162 66.2231Z"
		fill="#40464D"
	/>
	<path
		d="M37.444 32.0571C37.4634 32.1003 37.4864 32.1417 37.513 32.1808L38.2066 33.2002L40.0115 33.3822L40.0314 32.665L40.3347 21.8748C40.3347 21.8748 41.5839 14.6376 39.2234 15.0544C36.863 15.4713 38.3446 21.8748 38.3446 21.8748C38.3446 21.8748 38.0759 25.122 37.8871 26.0977C37.7037 27.0406 36.8812 30.8739 37.444 32.0571Z"
		fill="#FBBEBE"
	/>
	<path
		d="M33.3945 58.858L33.9084 59.739L35.0577 61.7102C35.0577 61.7102 37.1422 62.4765 37.676 61.8923C37.9684 61.5737 38.2843 60.4616 38.5058 59.526C38.6874 58.7688 38.809 58.1299 38.809 58.1299L33.3945 58.858Z"
		fill="#FBBEBE"
	/>
	<path
		opacity="0.1"
		d="M33.3945 58.8586L33.9084 59.7396C33.9406 59.7118 33.9698 59.6807 33.9955 59.6468C34.5766 58.9041 37.1349 59.4884 38.5058 59.5358C38.6874 58.7785 38.809 58.1396 38.809 58.1396L33.3945 58.8586Z"
		fill="black"
	/>
	<path
		opacity="0.1"
		d="M7.25 66.1267C7.61973 66.11 7.9902 66.1307 8.35578 66.1886C8.74797 66.3269 9.44521 63.9388 9.44521 63.9388L8.39572 63.6912L11.2519 63.5674L11.3899 62.7793C11.3899 62.7793 10.462 62.8667 9.00581 62.9832C8.70491 63.1569 8.43642 63.3817 8.21234 63.6475L8.16876 63.7021C7.56049 64.4502 7.33534 65.415 7.25 66.1267Z"
		fill="black"
	/>
	<path
		opacity="0.1"
		d="M29.7617 97.4124L30.5625 97.9439C31.7572 97.7273 32.8485 97.3869 32.9774 96.8518C32.978 96.8433 32.978 96.8348 32.9774 96.8263C32.7232 96.6297 32.5543 96.4805 32.5543 96.4805L29.7617 97.4124Z"
		fill="black"
	/>
	<path
		opacity="0.1"
		d="M27.3906 98.2858C28.4457 98.2331 29.4969 98.1201 30.5391 97.9472C29.9167 97.7761 29.2842 97.6442 28.6453 97.5522C27.87 97.4685 27.4723 98.131 27.3906 98.2858Z"
		fill="black"
	/>
	<path
		d="M7.33594 67.0455C7.33594 67.6261 8.93196 67.9974 8.93196 67.9974L13.7927 72.335C13.7927 72.335 16.8467 73.7038 18.7896 75.6751C20.7324 77.6464 22.4464 75.9536 22.4464 75.9536C24.5055 75.4439 30.4356 68.2523 30.4356 68.2523C30.4356 68.2523 30.5736 76.4651 30.8514 77.0676C31.1292 77.6701 30.7588 79.3173 30.5972 80.0145C30.4953 80.5959 30.4563 81.1867 30.481 81.7765C30.481 81.7765 28.2604 90.2896 28.4456 91.0322C28.6308 91.7749 27.2418 95.2551 27.2418 95.2551V98.1547C27.2418 98.1547 32.6799 97.9454 32.9795 96.7168C33.2791 95.4881 31.6159 94.953 31.6159 94.953V94.6508C32.7053 94.0938 32.9105 90.2677 32.9105 90.2677C32.9105 90.2677 34.5319 85.5352 34.7625 84.747C34.9931 83.9589 34.7625 82.7739 34.7625 82.7739L34.9241 81.7546C34.9241 81.7546 35.2709 81.0575 35.2709 80.9191C35.3163 80.5659 35.452 80.2304 35.6649 79.9453C35.9191 79.6432 35.3871 78.9242 35.3871 78.9242L35.8501 77.7174V76.3959L36.9396 71.5942C36.9396 71.5942 38.0744 66.0025 37.6804 64.1695C37.2864 62.3366 38.1434 61.4101 38.1434 61.4101C36.2859 62.3857 35.349 60.2142 35.0421 59.2804C34.9641 59.0402 34.9259 58.88 34.9259 58.88C34.9259 58.88 32.3748 57.9371 29.9999 58.1628C29.5175 58.202 29.0422 58.303 28.5854 58.4632C25.9472 59.4151 25.5314 63.3577 25.5314 63.3577L23.1945 66.9308C21.9907 70.1089 20.1859 70.4329 20.1859 70.4329C20.1859 70.4329 15.9516 67.5806 15.8281 67.4405C15.7046 67.3003 14.0923 66.605 14.0923 66.605C13.9016 66.2686 13.61 66.0011 13.2588 65.8405C12.7032 65.6075 12.6578 64.7484 12.6578 64.7484C12.5888 62.7297 11.4086 62.5641 11.4086 62.5641C7.31234 62.2219 7.33594 66.4666 7.33594 67.0455Z"
		fill="#40464D"
	/>
	<path
		d="M30.8961 55.7041H33.3945V47.9336H30.8961V55.7041Z"
		fill="#F86D70"
	/>
	<path
		opacity="0.1"
		d="M30.8961 55.7041H33.3945V47.9336H30.8961V55.7041Z"
		fill="black"
	/>
	<path
		opacity="0.1"
		d="M37.4417 32.041C37.4413 32.0465 37.4413 32.0519 37.4417 32.0574C37.461 32.1006 37.4841 32.142 37.5107 32.1812L38.2043 33.2005L40.0092 33.3825L40.0291 32.6653C39.4663 32.6217 38.1843 32.4669 37.4417 32.041Z"
		fill="black"
	/>
	<path
		d="M37.5123 32.1816C37.5123 32.1816 37.605 36.2626 36.5863 36.8195C35.5677 37.3765 35.1719 40.278 35.1719 40.278C35.1719 40.278 38.2586 42.3129 38.9468 43.2085C39.6349 44.104 41.2146 46.2373 40.8896 46.747C40.5646 47.2566 41.6776 49.5774 41.6776 49.5774C41.6776 49.5774 39.6404 53.753 40.1034 55.3311C40.5664 56.9092 40.6118 61.083 40.6118 61.083H41.4924C41.4924 61.083 41.2146 57.6501 41.2146 56.2576C41.2146 54.8651 42.1388 49.9014 42.1388 49.9014C42.1388 49.9014 42.5564 45.0305 42.1388 44.8922C41.7212 44.7539 39.27 42.8044 39.0848 41.9216C38.8996 41.0388 40.3812 32.8205 40.3812 32.8205C40.3812 32.8205 38.4838 32.7386 37.5123 32.1816Z"
		fill="#F86D70"
	/>
	<path
		opacity="0.1"
		d="M30.8477 47.2122C30.9321 47.7801 31.1384 48.3228 31.4523 48.8031L33.1627 48.5119C33.1627 48.5119 38.2994 47.3506 39.3598 47.2559C40.0022 47.1709 40.6286 46.9918 41.2191 46.7244C40.8121 45.2787 40.0177 43.9724 38.9222 42.9475L38.2704 42.3413C37.3098 41.4473 36.1966 40.734 34.9839 40.2354C35.0601 40.2991 40.4492 44.9115 39.269 45.8161C38.0888 46.7208 34.9113 44.5183 34.9113 44.5183L31.298 41.4057L31.1672 41.2929L30.9584 41.6187C31.0647 41.6625 31.1683 41.7124 31.2689 41.768C32.5004 42.4456 33.4143 43.5842 33.8109 44.9351C34.5536 47.4379 30.8477 47.2122 30.8477 47.2122Z"
		fill="black"
	/>
	<path
		d="M29.7344 58.811C29.7344 58.811 33.1588 60.7131 33.9904 59.6464C34.172 59.4116 34.5551 59.3097 35.0327 59.2824C34.9546 59.0421 34.9165 58.8819 34.9165 58.8819C34.9165 58.8819 32.3654 57.9391 29.9904 58.1648C29.8342 58.5579 29.7344 58.811 29.7344 58.811Z"
		fill="#444053"
	/>
	<path
		d="M31.3104 41.2969L35.0545 44.526C35.0545 44.526 38.2193 46.7357 39.4122 45.8238C40.6051 44.9119 35.1253 40.2412 35.1253 40.2412C36.3354 40.7413 37.4475 41.4525 38.4099 42.3417L39.0618 42.9479C40.7758 44.5406 41.1626 44.5406 41.2207 46.8813C41.2352 47.4584 41.0391 48.2866 40.8884 48.4358C40.3328 48.9819 39.9442 52.9481 40.0296 53.4123C40.1149 53.8764 38.9946 57.8827 39.3577 58.9967C39.7209 60.1107 34.8184 58.4397 33.9886 59.5082C33.1588 60.5766 29.7344 58.6727 29.7344 58.6727C29.7344 58.6727 31.6318 53.8 32.0948 53.476C32.5578 53.152 33.1134 50.6455 32.0948 49.4861C31.0762 48.3266 30.9854 47.2126 30.9854 47.2126C30.9854 47.2126 34.6895 47.442 33.9469 44.9392C33.7379 44.2137 33.3755 43.542 32.8842 42.9697C32.3929 42.3974 31.7842 41.938 31.0998 41.6228L31.3104 41.2969Z"
		fill="#E8E8F0"
	/>
	<path
		opacity="0.1"
		d="M36.3082 49.5098C36.3082 49.5098 34.872 52.2237 33.0145 52.9281C32.9546 52.95 32.8965 52.97 32.8329 52.9882C30.8937 53.5798 36.4535 50.3507 36.3082 49.5098Z"
		fill="black"
	/>
	<path
		d="M16.2246 25.499C16.2246 25.499 16.9182 27.2628 17.4738 27.8653C18.0294 28.4678 22.1475 34.5 22.1475 34.5L22.4961 35.2281L22.7957 35.8487L25.434 35.5702L25.6156 34.5036L25.5139 34.3798C25.2488 34.0613 24.5261 33.2058 24.0413 32.8326C23.4403 32.3703 22.2365 30.8395 22.2365 30.8395C22.2365 30.8395 18.4888 26.9406 18.211 25.874C17.9332 24.8073 14.1837 18.4111 13.3521 19.5178C12.5205 20.6245 16.2246 25.499 16.2246 25.499Z"
		fill="#FBBEBE"
	/>
	<g opacity="0.1">
		<path
			opacity="0.1"
			d="M23.8793 54.1913C23.5626 54.1638 23.2438 54.2099 22.9478 54.326C22.2941 54.6445 22.1707 55.5055 21.8075 56.1371C21.3827 56.8761 20.5728 57.333 19.7394 57.5023C19.5738 57.5345 19.4065 57.5576 19.2383 57.5714C19.7691 57.6232 20.3045 57.5999 20.8289 57.5023C21.6623 57.333 22.4721 56.8761 22.897 56.1371C23.2601 55.5055 23.3836 54.6445 24.0372 54.326C24.2089 54.2486 24.3939 54.2053 24.582 54.1986L23.8793 54.1913Z"
			fill="black"
		/>
		<path
			opacity="0.1"
			d="M30.3272 40.2283C30.3272 38.7812 31.2659 37.5344 32.0394 36.313C32.8129 35.0917 33.4629 33.55 32.851 32.2394C32.3281 31.12 29.176 29.6183 27.3566 29.915C29.1379 30.1462 31.3331 31.322 31.7616 32.2394C32.3735 33.55 31.7235 35.0917 30.95 36.313C30.1765 37.5344 29.2341 38.7812 29.2377 40.2283C29.2377 42.0959 29.1125 43.5047 28.6004 45.3085C28.4533 45.8273 29.8714 46.6118 29.6535 47.1033C28.9164 48.7414 29.2613 50.6308 29.1433 52.4219C29.1409 52.7719 29.0556 53.1162 28.8946 53.4267C28.5314 54.0255 27.787 54.1802 27.0625 54.213H27.6962C28.5423 54.213 29.5464 54.1475 29.984 53.4212C30.1451 53.1107 30.2303 52.7664 30.2328 52.4165C30.3508 50.6254 30.0058 48.7342 30.743 47.0978C30.9645 46.6063 29.5428 45.8236 29.6899 45.3031C30.2019 43.512 30.3308 42.0959 30.3272 40.2283Z"
			fill="black"
		/>
	</g>
	<path
		opacity="0.1"
		d="M22.4961 35.2252L22.7957 35.8459L25.4339 35.5674L25.6155 34.5007L25.5138 34.377C25.2324 34.5153 23.1243 35.5328 22.4961 35.2252Z"
		fill="black"
	/>
	<path
		opacity="0.1"
		d="M32.2352 42.2013C32.2352 42.2013 31.587 41.182 31.2166 41.4587C30.8462 41.7353 30.7027 40.6232 30.4903 40.8089C30.2778 40.9945 29.6587 41.5115 29.4008 40.7888C29.1993 40.2136 27.0059 36.575 26.1162 35.1116C25.8874 34.733 25.744 34.5 25.744 34.5C25.744 34.5 23.2455 35.7523 22.6445 35.3355V36.2165L23.1529 36.2638L25.8765 41.3604C25.8765 41.3604 26.7335 42.7274 26.6754 43.2043C26.6173 43.6811 27.774 45.7689 27.9592 45.9073C28.1444 46.0456 30.138 48.3664 30.138 48.3664C30.138 48.3664 31.1567 53.3774 30.276 54.7699C29.3954 56.1624 27.8702 57.1817 27.8702 57.1817C27.8702 57.1817 27.4108 58.5268 27.478 58.667C27.5452 58.8071 26.9442 59.4096 27.222 59.5953C27.4998 59.7809 27.8702 61.0787 27.8702 61.0787C27.8702 61.0787 29.1666 58.991 29.8675 58.667C30.5684 58.343 31.4653 54.0727 31.4653 54.0727C31.4653 54.0727 31.7213 51.5572 31.7413 49.9336C31.7613 48.3099 31.6796 42.2013 32.2352 42.2013Z"
		fill="black"
	/>
	<path
		d="M32.0946 42.2013C32.0946 42.2013 31.4482 41.182 31.0778 41.4587C30.7074 41.7353 30.5621 40.6232 30.3515 40.8089C30.1409 40.9945 29.5217 41.5115 29.262 40.7888C29.0587 40.2136 26.8653 36.575 25.9774 35.1116L25.6052 34.5C25.6052 34.5 23.1067 35.7523 22.5039 35.3355V36.2165L23.0141 36.2638L25.7377 41.3604C25.7377 41.3604 26.5966 42.7274 26.5366 43.2043C26.4767 43.6811 27.6261 45.7689 27.8204 45.9073C28.0146 46.0456 29.9992 48.3664 29.9992 48.3664C29.9992 48.3664 31.0179 53.3774 30.139 54.7699C29.6748 55.4693 29.1101 56.0961 28.4631 56.6301C27.9197 57.0795 27.5372 57.6943 27.3737 58.3812C27.3422 58.4748 27.331 58.5741 27.341 58.6724C27.4082 58.8107 26.8072 59.4151 27.085 59.6007C27.3628 59.7864 27.7368 61.0897 27.7368 61.0897C27.7368 61.0897 29.0333 59.0019 29.7341 58.6779C30.435 58.3539 31.3338 54.0837 31.3338 54.0837C31.3338 54.0837 31.588 51.5681 31.6098 49.9445C31.6316 48.3209 31.5499 42.2013 32.0946 42.2013Z"
		fill="#F86D70"
	/>
	<path
		opacity="0.1"
		d="M25.7535 63.3125C25.7535 63.3125 27.6981 63.6765 28.4771 64.239C29.256 64.8014 25.5156 63.358 25.5156 63.358L25.7535 63.3125Z"
		fill="black"
	/>
	<path
		opacity="0.1"
		d="M30.4297 68.2529C30.4297 68.2529 32.4579 69.9476 32.0947 71.4783C31.7316 73.0091 30.7947 76.8607 30.7947 76.8607L30.4297 68.2529Z"
		fill="black"
	/>
	<path
		opacity="0.1"
		d="M12.6931 64.9941C12.6931 64.9941 9.83514 65.3072 10.0203 65.6785C10.2056 66.0499 12.6931 65.3363 12.6931 65.3363V64.9941Z"
		fill="black"
	/>
	<path
		opacity="0.1"
		d="M34.6378 79.0863C34.6378 79.0863 34.8194 79.3174 33.759 79.0863C32.6987 78.8551 33.4812 78.1416 33.4812 78.1416L34.6378 79.0863Z"
		fill="black"
	/>
	<path
		opacity="0.1"
		d="M34.2743 82.2883C34.2743 82.2883 32.8217 82.5195 32.0428 82.2883C31.2638 82.0571 34.2743 82.2883 34.2743 82.2883Z"
		fill="black"
	/>
	<path
		opacity="0.1"
		d="M31.2886 94.8152C31.2886 94.8152 31.0344 94.5367 29.7615 95.0464C28.4887 95.556 27.9803 95.5797 27.6099 95.4104C27.2395 95.2411 31.2886 94.8152 31.2886 94.8152Z"
		fill="black"
	/>
	<path
		opacity="0.1"
		d="M32.6994 64.5996L30.8945 67.117C30.8945 67.117 31.8659 64.9127 32.6994 64.5996Z"
		fill="black"
	/>
	<path
		opacity="0.1"
		d="M29.1899 41.459C29.1899 41.459 29.1118 42.2945 27.9479 42.6203C26.784 42.9461 26.5625 43.21 26.5625 43.21"
		fill="black"
	/>
	<path
		opacity="0.1"
		d="M26.1667 35.4033C26.1667 35.4033 24.6306 36.4955 23.0273 36.2643L26.1667 35.4033Z"
		fill="black"
	/>
	<path
		opacity="0.1"
		d="M27.3359 58.7879C27.3359 58.7879 27.7844 59.0701 28.8611 57.8359L27.3359 58.7879Z"
		fill="black"
	/>
	<path
		opacity="0.1"
		d="M38.5181 45.702C38.5616 45.4763 38.4055 45.2669 38.2584 45.0904L37.957 44.7263C37.8981 44.6518 37.8318 44.5835 37.7591 44.5225C37.5775 44.3823 37.3451 44.3404 37.1562 44.2148"
		fill="black"
	/>
	<defs>
		<linearGradient
			id="paint0_linear"
			x1="121.703"
			y1="74.1354"
			x2="121.703"
			y2="0.908262"
			gradientUnits="userSpaceOnUse"
		>
			<stop
				stopColor="#808080"
				stopOpacity="0.25"
			/>
			<stop
				offset="0.54"
				stopColor="#808080"
				stopOpacity="0.12"
			/>
			<stop
				offset="1"
				stopColor="#808080"
				stopOpacity="0.1"
			/>
		</linearGradient>
		<linearGradient
			id="paint1_linear"
			x1="7210.83"
			y1="45594"
			x2="16179"
			y2="45594"
			gradientUnits="userSpaceOnUse"
		>
			<stop
				stopColor="#808080"
				stopOpacity="0.25"
			/>
			<stop
				offset="0.54"
				stopColor="#808080"
				stopOpacity="0.12"
			/>
			<stop
				offset="1"
				stopColor="#808080"
				stopOpacity="0.1"
			/>
		</linearGradient>
	</defs>
</svg>