<svg width="272" height="260" viewBox="0 0 272 260" fill="none" xmlns="http://www.w3.org/2000/svg">
<g clip-path="url(#clip0_2269_119804)">
<g filter="url(#filter0_d_2269_119804)">
<path d="M103.297 186.005H34.1019C28.6893 186.005 24.2632 181.606 24.2632 176.234V92.1946C24.2632 86.8226 28.6893 82.4234 34.1019 82.4234H103.297C108.709 82.4234 113.135 86.8226 113.135 92.1946V176.234C113.135 181.606 108.709 186.005 103.297 186.005Z" fill="white" stroke="#F6F7F7" stroke-width="0.52642"/>
</g>
<path d="M90.5872 154.927H37.6332C35.9689 154.927 34.8594 153.673 34.8594 152.419C34.8594 150.913 36.245 149.91 37.6332 149.91H90.5872C92.2515 149.91 93.3585 151.165 93.3585 152.419C93.3585 153.673 91.9728 154.927 90.5872 154.927Z" fill="#E8E8E8"/>
<path d="M58.5981 169.226H37.386C35.87 169.226 34.8594 167.972 34.8594 166.718C34.8594 165.463 36.1215 164.209 37.386 164.209H58.5981C60.1141 164.209 61.1247 165.463 61.1247 166.718C61.1247 168.223 60.1141 169.226 58.5981 169.226Z" fill="#E8E8E8"/>
<path d="M82.8412 135.36L74.2553 136.614C73.75 136.614 73.4962 136.363 73.2447 136.113L72.9932 135.109L67.4369 113.535L66.9316 109.521L61.3753 134.607L61.1238 135.862C61.1238 136.363 60.6185 136.614 60.1131 136.363L52.7894 135.611H52.0326C51.5272 135.611 51.2734 135.109 51.2734 134.607L51.5272 133.604L57.0812 97.9815L57.335 96.4763C57.335 96.2254 57.5865 95.9746 58.0918 95.9746H75.5175C75.769 95.9746 76.2743 96.2254 76.2743 96.4763L76.5281 97.7304V97.9815L83.598 133.604V134.106C83.598 134.858 83.3465 135.109 82.8412 135.36Z" fill="#DCDCDE"/>
<path d="M76.5286 104.505C74.2558 103.502 72.4883 101.996 70.9724 99.9894C70.7186 99.7386 70.9724 99.4875 71.2239 99.2367C71.4777 98.9859 71.7292 99.2367 71.983 99.4875C73.2452 101.495 74.7612 102.749 76.7802 103.502C77.034 103.752 77.2855 104.003 77.034 104.254C77.034 104.254 76.7802 104.505 76.5286 104.505Z" fill="#C3C4C7"/>
<path d="M57.586 104.505C59.8588 103.502 61.6263 101.996 63.1423 99.9894C63.3938 99.7386 63.1423 99.4875 62.8908 99.2367C62.6369 98.9859 62.3854 99.2367 62.1316 99.4875C60.8695 101.495 59.3535 102.749 57.3345 103.502C57.0807 103.752 56.8292 104.003 57.0807 104.254C57.0807 104.254 57.3345 104.505 57.586 104.505Z" fill="#C3C4C7"/>
<path d="M66.9311 106.512C66.6773 106.512 66.4258 106.261 66.4258 106.01V98.4841C66.4258 98.2333 66.6773 97.9824 66.9311 97.9824C67.1826 97.9824 67.4364 98.2333 67.4364 98.4841V106.01C67.4364 106.261 67.1826 106.512 66.9311 106.512Z" fill="#C3C4C7"/>
<path d="M76.527 98.2334H57.0801L57.3339 96.7282C57.3339 96.4774 57.5854 96.2266 58.0907 96.2266H75.5163C75.7701 96.2266 76.2732 96.4774 76.2732 96.7282L76.527 98.2334Z" fill="#C3C4C7"/>
<path d="M61.1234 134.857L60.8696 136.111C60.8696 136.613 60.3642 136.864 59.8589 136.613L52.5352 135.86H51.7783C51.273 135.86 51.0215 135.359 51.0215 134.857L51.273 133.854L61.1234 134.857Z" fill="#C3C4C7"/>
<path d="M82.8406 135.36L74.2547 136.614C73.7493 136.614 73.4956 136.363 73.244 136.112L72.9902 135.109L83.3459 134.105V134.607C83.5974 134.858 83.3459 135.109 82.8406 135.36Z" fill="#C3C4C7"/>
<path d="M287.357 186.005H218.162C212.75 186.005 208.324 181.606 208.324 176.234V92.1946C208.324 86.8226 212.75 82.4234 218.162 82.4234H287.357C292.77 82.4234 297.196 86.8226 297.196 92.1946V176.234C297.196 181.606 292.77 186.005 287.357 186.005Z" fill="white" stroke="#F6F7F7" stroke-width="0.52642"/>
<path d="M276.186 106.178L276.199 106.191L276.214 106.203C276.692 106.559 276.876 106.875 276.898 107.142C276.921 107.408 276.791 107.712 276.438 108.062L276.431 108.07L276.425 108.077C274.912 109.831 273.399 111.584 271.886 113.338C271.492 113.728 271.301 113.903 271.053 113.948C270.8 113.994 270.431 113.91 269.67 113.532L269.653 113.524L269.635 113.518C269.279 113.4 268.794 113.16 268.155 112.843L268.154 112.842C267.523 112.529 266.759 112.149 265.868 111.77L265.501 111.614V112.012V134.339C265.501 134.776 265.485 135.1 265.439 135.344C265.393 135.586 265.322 135.724 265.232 135.814C265.141 135.904 265.002 135.975 264.757 136.02C264.511 136.067 264.184 136.083 263.745 136.083H263.7H263.656H263.611H263.567H263.523H263.478H263.434H263.389H263.345H263.301H263.256H263.212H263.167H263.123H263.079H263.034H262.99H262.945H262.901H262.857H262.812H262.768H262.723H262.679H262.635H262.59H262.546H262.502H262.457H262.413H262.368H262.324H262.28H262.235H262.191H262.146H262.102H262.058H262.013H261.969H261.924H261.88H261.836H261.791H261.747H261.702H261.658H261.614H261.569H261.525H261.481H261.436H261.392H261.347H261.303H261.259H261.214H261.17H261.125H261.081H261.037H260.992H260.948H260.903H260.859H260.815H260.77H260.726H260.681H260.637H260.593H260.548H260.504H260.46H260.415H260.371H260.326H260.282H260.238H260.193H260.149H260.104H260.06H260.016H259.971H259.927H259.882H259.838H259.794H259.749H259.705H259.66H259.616H259.572H259.527H259.483H259.439H259.394H259.35H259.305H259.261H259.217H259.172H259.128H259.083H259.039H258.995H258.95H258.906H258.861H258.817H258.773H258.728H258.684H258.639H258.595H258.551H258.506H258.462H258.418H258.373H258.329H258.284H258.24H258.196H258.151H258.107H258.062H258.018H257.974H257.929H257.885H257.84H257.796H257.752H257.707H257.663H257.618H257.574H257.53H257.485H257.441H257.396H257.352H257.308H257.263H257.219H257.175H257.13H257.086H257.041H256.997H256.953H256.908H256.864H256.819H256.775H256.731H256.686H256.642H256.597H256.553H256.509H256.464H256.42H256.375H256.331H256.287H256.242H256.198H256.154H256.109H256.065H256.02H255.976H255.932H255.887H255.843H255.798H255.754H255.71H255.665H255.621H255.576H255.532H255.488H255.443H255.399H255.354H255.31H255.266H255.221H255.177H255.133H255.088H255.044H254.999H254.955H254.911H254.866H254.822H254.777H254.733H254.689H254.644H254.6H254.555H254.511H254.467H254.422H254.378H254.333H254.289H254.245H254.2H254.156H254.112H254.067H254.023H253.978H253.934H253.89H253.845H253.801H253.756H253.712H253.668H253.623H253.579H253.534H253.49H253.446H253.401H253.357H253.312H253.268H253.224H253.179H253.135H253.091H253.046H253.002H252.957H252.913H252.869H252.824H252.78H252.735H252.691H252.647H252.602H252.558H252.513H252.469H252.425H252.38H252.336H252.291H252.247H252.203H252.158H252.114H252.069H252.025H251.981H251.936H251.892H251.848H251.803H251.759H251.714H251.67H251.626H251.581H251.537H251.492H251.448H251.404H251.359H251.315H251.27H251.226H251.182H251.137H251.093H251.048H251.004H250.96H250.915H250.871H250.827H250.782H250.738H250.693H250.649H250.605H250.56H250.516H250.471H250.427H250.383H250.338H250.294H250.249H250.205H250.161H250.116H250.072H250.027H249.983H249.939H249.894H249.85H249.806H249.761H249.717H249.672H249.628H249.584H249.539H249.495H249.45H249.406H249.362H249.317H249.273H249.228H249.184H249.14H249.095H249.051H249.006H248.962H248.918H248.873H248.829H248.785H248.74H248.696H248.651H248.607H248.563H248.518H248.474H248.429H248.385H248.341H248.296H248.252H248.207H248.163H248.119H248.074H248.03H247.985H247.941H247.897H247.852H247.808H247.764H247.719H247.675H247.63H247.586H247.542H247.497H247.453H247.408H247.364H247.32H247.275H247.231H247.186H247.142H247.098H247.053H247.009H246.964H246.92H246.876H246.831H246.787H246.742H246.698H246.654H246.609H246.565H246.521H246.476H246.432H246.387H246.343H246.299H246.254H246.21H246.165H246.121H246.077H246.032H245.988H245.943H245.899H245.855H245.81H245.766H245.721H245.677H245.633H245.588H245.544H245.5H245.455H245.411H245.366H245.322H245.278H245.233H245.189H245.144H245.1H245.056H245.011H244.967H244.922H244.878H244.834H244.789H244.745H244.7H244.656H244.612H244.567H244.523H244.479H244.434H244.39H244.345H244.301H244.257H244.212H244.168H244.123H244.079H244.035H243.99H243.946H243.901H243.857H243.813H243.768H243.724H243.679H243.635H243.591H243.546H243.502H243.458H243.413H243.369H243.324H243.28H243.236H243.191H243.147H243.102H243.058H243.014H242.969H242.925H242.88H242.836H242.792H242.747H242.703H242.658H242.614H242.57H242.525H242.481H242.437H242.392H242.348H242.303H242.259H242.215H242.17H242.126H242.081H242.037H241.993H241.948H241.904H241.859H241.815H241.771H241.726H241.682H241.637H241.593H241.549H241.504H241.46H241.415H241.371H241.327H241.282H241.238H241.194H241.149H241.105H241.06H241.016C240.132 136.083 239.738 135.951 239.538 135.73C239.438 135.62 239.366 135.466 239.321 135.236C239.275 135.004 239.259 134.711 239.259 134.339V112.012V111.588L238.879 111.776C238.326 112.051 237.805 112.326 237.333 112.576C237.155 112.67 236.985 112.76 236.822 112.845C236.219 113.16 235.732 113.401 235.377 113.518L235.36 113.524L235.343 113.532C234.582 113.91 234.213 113.994 233.96 113.948C233.713 113.904 233.523 113.731 233.136 113.346C231.869 111.587 230.353 109.83 228.846 108.084C228.471 107.585 228.346 107.284 228.367 107.05C228.387 106.835 228.541 106.594 228.993 106.247C229.167 106.217 229.27 106.115 229.327 106.058C229.329 106.056 229.331 106.054 229.332 106.053C229.384 106.001 229.388 106.002 229.395 106.003C229.396 106.003 229.398 106.004 229.399 106.004H229.493L229.565 105.945C232.332 103.696 235.349 101.199 238.365 98.702L238.395 98.6773C239.131 98.1908 239.581 97.9771 240.254 97.9761C242.024 98.0388 243.383 98.0388 244.429 98.0388H244.429C245.483 98.0388 246.197 98.0393 246.698 98.0997C247.199 98.1599 247.416 98.2731 247.543 98.438C247.686 98.6227 247.762 98.926 247.825 99.4982C248.094 101.902 250.239 103.746 252.885 103.746C255.325 103.746 257.176 101.603 257.44 99.2474L257.442 99.2328V99.2181C257.442 98.7573 257.557 98.4601 257.743 98.2759C257.929 98.0914 258.229 97.9761 258.694 97.9761H258.707H258.72H258.734H258.747H258.76H258.773H258.787H258.8H258.813H258.827H258.84H258.853H258.867H258.88H258.893H258.907H258.92H258.933H258.947H258.96H258.973H258.987H259H259.013H259.027H259.04H259.053H259.066H259.08H259.093H259.106H259.12H259.133H259.146H259.16H259.173H259.186H259.2H259.213H259.226H259.24H259.253H259.266H259.28H259.293H259.306H259.32H259.333H259.346H259.359H259.373H259.386H259.399H259.413H259.426H259.439H259.453H259.466H259.479H259.493H259.506H259.519H259.533H259.546H259.559H259.573H259.586H259.599H259.613H259.626H259.639H259.652H259.666H259.679H259.692H259.706H259.719H259.732H259.746H259.759H259.772H259.786H259.799H259.812H259.826H259.839H259.852H259.866H259.879H259.892H259.906H259.919H259.932H259.945H259.959H259.972H259.985H259.999H260.012H260.025H260.039H260.052H260.065H260.079H260.092H260.105H260.119H260.132H260.145H260.159H260.172H260.185H260.199H260.212H260.225H260.238H260.252H260.265H260.278H260.292H260.305H260.318H260.332H260.345H260.358H260.372H260.385H260.398H260.412H260.425H260.438H260.452H260.465H260.478H260.492H260.505H260.518H260.531H260.545H260.558H260.571H260.585H260.598H260.611H260.625H260.638H260.651H260.665H260.678H260.691H260.705H260.718H260.731H260.745H260.758H260.771H260.785H260.798H260.811H260.824H260.838H260.851H260.864H260.878H260.891H260.904H260.918H260.931H260.944H260.958H260.971H260.984H260.998H261.011H261.024H261.038H261.051H261.064H261.078H261.091H261.104H261.117H261.131H261.144H261.157H261.171H261.184H261.197H261.211H261.224H261.237H261.251H261.264H261.277H261.291H261.304H261.317H261.331H261.344H261.357H261.371H261.384H261.397H261.41H261.424H261.437H261.45H261.464H261.477H261.49H261.504H261.517H261.53H261.544H261.557H261.57H261.584H261.597H261.61H261.624H261.637H261.65H261.663H261.677H261.69H261.703H261.717H261.73H261.743H261.757H261.77H261.783H261.797H261.81H261.823H261.837H261.85H261.863H261.877H261.89H261.903H261.917H261.93H261.943H261.956H261.97H261.983H261.996H262.01H262.023H262.036H262.05H262.063H262.076H262.09H262.103H262.116H262.13H262.143H262.156H262.17H262.183H262.196H262.21H262.223H262.236H262.249H262.263H262.276H262.289H262.303H262.316H262.329H262.343H262.356H262.369H262.383H262.396H262.409H262.423H262.436H262.449H262.463H262.476H262.489H262.503H262.516H262.529H262.542H262.556H262.569H262.582H262.596H262.609H262.622H262.636H262.649H262.662H262.676H262.689H262.702H262.716H262.729H262.742H262.756H262.769H262.782H262.795H262.809H262.822H262.835H262.849H262.862H262.875H262.889H262.902H262.915H262.929H262.942H262.955H262.969H262.982H262.995H263.009H263.022H263.035H263.049H263.062H263.075H263.088H263.102H263.115H263.128H263.142H263.155H263.168H263.182H263.195H263.208H263.222H263.235H263.248H263.262H263.275H263.288H263.302H263.315H263.328H263.342H263.355H263.368H263.381H263.395H263.408H263.421H263.435H263.448H263.461H263.475H263.488H263.501H263.515H263.528H263.541H263.555H263.568H263.581H263.595H263.608H263.621H263.634H263.648H263.661H263.674H263.688H263.701H263.714H263.728H263.741H263.754H263.768H263.781H263.794H263.808H263.821H263.834H263.848H263.861H263.874H263.888H263.901H263.914H263.927H263.941H263.954H263.967H263.981H263.994H264.007H264.021H264.034H264.047H264.061H264.074H264.087H264.101H264.114H264.127H264.141H264.154H264.167H264.181H264.194H264.207H264.22H264.234H264.247H264.26H264.274H264.287H264.3H264.314H264.327H264.34H264.354H264.367H264.38H264.394H264.407H264.42H264.434H264.447H264.46H264.473H264.487H264.5H264.513H264.527H264.54H264.553H264.567H264.58H264.593H264.607H264.62H264.633H264.647H264.66H264.673H264.687H264.7H264.713H264.727H264.74H264.753H264.766H264.78H264.793H264.806H264.82H264.833H264.846H264.86H264.873H264.886H264.9H264.913H264.926H264.94H264.953H264.966H264.98H264.993H265.006H265.019H265.033H265.046H265.059H265.073H265.086H265.099H265.113H265.126H265.139H265.153H265.166H265.179H265.193H265.206H265.219H265.233H265.246H265.259H265.273H265.286H265.299H265.312H265.326H265.339H265.352H265.366H265.379H265.392H265.406H265.419H265.432H265.446H265.459H265.472H265.486H265.499H265.512C265.944 97.9761 266.383 98.1964 266.589 98.4013L266.603 98.4145L266.618 98.4256C268.684 99.9654 270.629 101.619 272.624 103.315C273.548 104.1 274.483 104.895 275.446 105.692L275.519 105.753H275.614C275.655 105.753 275.724 105.775 275.835 105.857C275.944 105.938 276.056 106.049 276.186 106.178Z" fill="#DCDCDE" stroke="#F6F7F7" stroke-width="0.52642"/>
<path d="M256.432 113.021C256.432 113.016 256.431 113.012 256.431 113.01V109.002C256.431 108.962 256.454 108.901 256.511 108.844C256.569 108.786 256.632 108.763 256.673 108.763H262.481C262.523 108.763 262.586 108.786 262.643 108.844C262.701 108.901 262.723 108.962 262.723 109.002V113.015C262.723 113.061 262.696 113.133 262.642 113.214C262.617 113.25 262.593 113.281 262.574 113.302C262.569 113.308 262.565 113.312 262.561 113.317L260.058 115.057L260.039 115.07L260.023 115.087C260.003 115.106 259.955 115.136 259.868 115.161C259.785 115.185 259.683 115.198 259.577 115.198C259.471 115.198 259.37 115.185 259.286 115.161C259.199 115.136 259.151 115.106 259.131 115.087L259.115 115.07L259.096 115.057L256.591 113.315C256.507 113.227 256.468 113.145 256.449 113.088C256.439 113.058 256.434 113.035 256.432 113.021Z" fill="#C3C4C7" stroke="#F6F7F7" stroke-width="0.52642"/>
<path d="M229.359 108.095L229.359 108.095L229.356 108.09C228.976 107.588 228.849 107.285 228.871 107.05C228.891 106.835 229.045 106.593 229.497 106.246C229.661 106.218 229.761 106.126 229.821 106.068L235.56 113.669C234.989 113.93 234.682 113.987 234.464 113.948C234.216 113.903 234.024 113.728 233.631 113.337C232.117 111.582 230.612 109.838 229.359 108.095Z" fill="#C3C4C7" stroke="#F6F7F7" stroke-width="0.52642"/>
<path d="M276.69 108.061L276.683 108.068L276.676 108.076C275.164 109.829 273.651 111.583 272.138 113.336C271.766 113.704 271.573 113.828 271.328 113.85C271.195 113.862 271.029 113.845 270.793 113.789C270.634 113.751 270.45 113.698 270.232 113.629L275.9 105.887C275.961 105.943 276.024 105.997 276.087 106.044C276.206 106.133 276.355 106.22 276.525 106.246C276.959 106.584 277.129 106.885 277.15 107.141C277.172 107.406 277.043 107.71 276.69 108.061Z" fill="#C3C4C7" stroke="#F6F7F7" stroke-width="0.52642"/>
<path d="M274.646 154.927H221.692C220.027 154.927 218.918 153.673 218.918 152.419C218.918 150.913 220.304 149.91 221.692 149.91H274.646C276.31 149.91 277.417 151.165 277.417 152.419C277.417 153.673 276.031 154.927 274.646 154.927Z" fill="#E8E8E8"/>
<path d="M242.657 169.226H221.445C219.929 169.226 218.918 167.972 218.918 166.718C218.918 165.463 220.18 164.209 221.445 164.209H242.657C244.173 164.209 245.183 165.463 245.183 166.718C245.183 168.223 244.173 169.226 242.657 169.226Z" fill="#E8E8E8"/>
<g filter="url(#filter1_d_2269_119804)">
<path d="M207.77 199.343H113.969C106.399 199.343 100.347 193.329 100.347 185.814V71.7928C100.347 64.2773 106.399 58.2632 113.969 58.2632H207.77C215.34 58.2632 221.392 64.2772 221.392 71.7928V185.808C221.085 193.336 215.025 199.343 207.77 199.343Z" fill="white" stroke="#F6F7F7" stroke-width="0.52642"/>
</g>
<path d="M193.482 161.938H118.748C116.622 161.938 114.852 160.406 114.852 158.567C114.852 156.728 116.622 155.195 118.748 155.195H193.482C195.607 155.195 197.378 156.728 197.378 158.567C197.378 160.406 195.607 161.938 193.482 161.938Z" fill="#DCDBDE"/>
<path d="M146.941 181.249H118.246C116.394 181.249 114.852 179.716 114.852 177.877C114.852 176.038 116.394 174.506 118.246 174.506H146.941C148.792 174.506 150.335 176.038 150.335 177.877C150.027 179.716 148.792 181.249 146.941 181.249Z" fill="#DCDBDE"/>
<path d="M199.086 117.801C198.778 117.188 198.469 116.575 198.16 116.269C196.926 114.736 195.384 113.204 192.607 112.284C188.904 111.058 185.818 110.752 183.041 110.445C182.424 110.445 181.498 110.445 180.882 110.139C172.551 109.219 165.762 107.993 150.952 89.6026C149.409 87.7635 148.792 85.9246 146.94 84.0855C145.398 82.5529 142.621 84.392 139.227 85.005C138.609 85.3115 137.684 85.3114 137.067 85.3114C134.29 85.3114 131.204 85.005 128.427 84.6985C124.416 84.392 126.884 82.2465 121.947 112.284C121.639 114.43 121.33 116.882 121.022 119.027C121.022 120.866 120.713 123.012 121.022 124.851C121.022 125.771 121.022 126.996 122.256 126.996C134.907 128.223 142.929 127.61 162.985 127.61C173.167 127.61 183.041 127.61 192.915 125.771L195.383 125.464C197.235 125.158 199.703 124.544 199.703 123.012C200.012 121.479 199.703 119.64 199.086 117.801Z" fill="#C792E0"/>
<path d="M183.35 110.447L181.19 117.19C168.231 116.577 154.963 108.607 148.175 98.1863C145.706 94.5081 143.855 90.5237 141.078 87.4585C141.078 87.4585 140.152 86.5391 139.227 85.6196C142.621 85.0064 145.089 82.8609 146.941 84.7C148.175 85.9261 148.792 87.152 149.718 88.3781C150.026 88.6846 150.335 89.2976 150.643 89.6041L150.952 89.9105C151.877 91.1367 152.803 92.0561 153.729 92.9758C154.037 93.2822 154.346 93.5887 154.655 93.8952C155.58 95.1213 156.506 96.0408 157.431 96.9602C157.74 97.2669 158.049 97.5734 158.357 97.8799C159.283 98.7993 160.208 99.7189 161.134 100.638C161.443 100.945 161.751 101.251 162.06 101.558C162.985 102.477 163.911 103.09 164.837 103.703C165.145 104.01 165.762 104.317 166.071 104.623C166.688 105.236 167.614 105.542 168.231 106.155C168.848 106.462 169.156 106.769 169.774 107.075C171.316 107.688 172.551 108.301 173.785 108.914C174.402 109.221 174.711 109.221 175.327 109.221C177.487 109.834 179.339 109.834 181.499 110.14C181.807 110.447 182.424 110.447 183.35 110.447Z" fill="#7F54B3"/>
<path d="M200.012 123.624C200.012 125.156 197.53 125.769 195.668 126.076L193.185 126.382C183.256 128.221 173.016 128.221 163.086 128.221C142.916 128.221 134.848 128.834 122.126 127.608C121.195 127.608 121.195 126.382 120.885 125.463C120.885 123.624 120.885 121.478 120.885 119.639C128.022 120.252 158.431 121.785 181.394 119.333C187.91 118.72 193.496 117.8 198.15 116.268C198.46 116.881 198.771 117.187 199.081 117.8C199.702 119.639 200.012 121.478 200.012 123.624Z" fill="#F2E9ED"/>
<path d="M199.049 117.473C194.421 119.006 189.484 119.925 184.547 120.539C183.622 120.539 183.005 120.539 182.387 120.232C182.079 119.925 181.77 119.312 181.77 119.006C181.77 118.699 181.77 118.393 181.77 118.393C181.462 115.634 181.153 112.876 181.462 110.117C184.856 110.424 188.559 110.73 193.187 112.263C195.964 113.182 197.507 114.408 198.741 116.247C198.432 116.247 198.741 116.86 199.049 117.473Z" fill="#F2E9ED"/>
<path d="M150.643 89.2943C150.643 89.6007 150.643 89.6007 150.643 89.2943L147.249 92.0528C147.249 92.0528 146.94 92.3595 146.632 92.3595C146.323 92.3595 146.015 92.3593 146.015 92.0528C145.706 91.7463 145.706 91.1334 146.015 90.8269L149.409 88.0684C149.409 88.0684 149.409 88.0684 149.717 88.0684C150.026 88.6813 150.334 88.9878 150.643 89.2943Z" fill="#F7EDF7"/>
<path d="M154.346 93.8941C154.346 93.8941 154.346 94.2006 154.038 94.2006C153.112 95.4267 151.878 96.3461 150.643 97.2656C150.643 97.2656 150.335 97.5721 150.026 97.5721C149.718 97.5721 149.409 97.5723 149.409 97.2656C149.101 96.9591 149.101 96.3462 149.409 96.0397C150.643 95.12 151.569 94.2006 152.803 92.9747C153.112 92.668 153.112 92.668 153.42 92.668C153.729 93.2812 154.038 93.5876 154.346 93.8941Z" fill="#F7EDF7"/>
<path d="M158.047 97.8785C158.047 98.185 158.047 98.185 157.739 98.185C156.504 99.4109 155.579 100.637 154.345 101.556C154.036 101.863 154.036 101.863 153.727 101.863C153.419 101.863 153.419 101.863 153.11 101.556C152.802 101.25 152.802 100.637 153.11 100.331C154.345 99.1044 155.27 97.8785 156.504 96.9588C156.504 96.9588 156.813 96.6523 157.122 96.6523C157.43 97.2655 157.739 97.572 158.047 97.8785Z" fill="#F7EDF7"/>
<path d="M162.059 101.556C162.059 101.863 162.059 101.863 161.75 101.863C160.516 102.782 159.282 104.008 158.048 105.541C157.739 105.847 157.739 105.847 157.431 105.847C157.122 105.847 157.122 105.847 156.813 105.541C156.505 105.234 156.505 104.621 156.813 104.315C158.048 102.782 159.282 101.556 160.516 100.33H160.825C161.133 100.943 161.442 101.556 162.059 101.556Z" fill="#F7EDF7"/>
<path d="M165.762 104.927C164.836 106.46 163.911 107.992 163.294 109.525C163.294 109.831 162.985 109.831 162.677 109.831H162.368C162.059 109.525 161.751 109.218 162.059 108.605C162.985 107.073 163.602 105.54 164.528 104.008C164.528 104.008 164.528 103.701 164.836 103.701C165.145 104.314 165.454 104.621 165.762 104.927Z" fill="#F7EDF7"/>
<path d="M169.464 107.074L168.847 111.978C168.847 112.285 168.539 112.591 167.922 112.591C167.613 112.591 167.305 111.978 167.305 111.672L168.23 106.461C168.23 106.461 168.23 106.154 168.539 106.154C168.539 106.461 168.847 106.767 169.464 107.074Z" fill="#F7EDF7"/>
<path d="M175.019 109.219C174.711 110.751 174.711 111.977 174.402 113.51C174.402 113.816 174.093 114.123 173.476 114.123C173.476 114.123 173.476 114.123 173.168 114.123C172.859 114.123 172.551 113.51 172.551 113.203C172.859 111.671 173.168 110.445 173.168 108.912C173.785 108.912 174.402 109.219 175.019 109.219Z" fill="#F7EDF7"/>
<path d="M135.524 104.928C139.103 104.928 142.004 102.046 142.004 98.4914C142.004 94.9366 139.103 92.0547 135.524 92.0547C131.946 92.0547 129.045 94.9366 129.045 98.4914C129.045 102.046 131.946 104.928 135.524 104.928Z" fill="white"/>
<path d="M135.525 101.249C137.059 101.249 138.302 100.014 138.302 98.4909C138.302 96.9674 137.059 95.7324 135.525 95.7324C133.991 95.7324 132.748 96.9674 132.748 98.4909C132.748 100.014 133.991 101.249 135.525 101.249Z" fill="#7F54B3"/>
<path d="M216.589 191.216C216.408 191.578 216.227 191.759 215.865 191.939L210.976 193.929C210.252 194.291 209.527 194.653 208.984 195.196C208.441 195.739 208.079 196.281 207.898 197.005L205.906 201.89C205.725 202.613 204.82 202.975 204.276 202.613C204.095 202.432 203.733 202.251 203.733 202.07L194.317 181.447C194.136 181.085 194.136 180.723 194.317 180.542C194.499 180.18 195.042 179.999 195.585 180.18L216.227 189.588C216.589 189.949 216.77 190.673 216.589 191.216Z" fill="#172D45"/>
<path d="M220.21 203.879C220.029 203.879 219.848 203.879 219.667 203.698L212.967 196.824C212.605 196.462 212.605 195.919 212.967 195.738C213.329 195.376 213.872 195.376 214.053 195.738L220.753 202.432C221.115 202.794 221.115 203.336 220.753 203.517C220.753 203.879 220.391 203.879 220.21 203.879Z" fill="#172D45"/>
<path d="M213.329 203.879C213.147 203.879 212.966 203.879 212.785 203.698L209.707 200.622C209.345 200.261 209.345 199.718 209.707 199.537C210.069 199.175 210.613 199.175 210.794 199.537L213.872 202.612C214.234 202.974 214.234 203.517 213.872 203.698C213.872 203.879 213.691 203.879 213.329 203.879Z" fill="#172D45"/>
<path d="M208.803 195.197C208.259 195.739 207.897 196.282 207.716 197.006L205.724 201.89C205.543 202.614 204.638 202.976 204.095 202.614C203.914 202.433 203.551 202.252 203.551 202.071L194.136 181.448C193.955 181.086 193.955 180.724 194.136 180.543L208.803 195.197Z" fill="#172D45"/>
</g>
<defs>
<filter id="filter0_d_2269_119804" x="-30.8275" y="54.7464" width="199.053" height="213.762" filterUnits="userSpaceOnUse" color-interpolation-filters="sRGB">
<feFlood flood-opacity="0" result="BackgroundImageFix"/>
<feColorMatrix in="SourceAlpha" type="matrix" values="0 0 0 0 0 0 0 0 0 0 0 0 0 0 0 0 0 0 127 0" result="hardAlpha"/>
<feOffset dy="27.4138"/>
<feGaussianBlur stdDeviation="27.4138"/>
<feColorMatrix type="matrix" values="0 0 0 0 0.768627 0 0 0 0 0.596078 0 0 0 0 0.85098 0 0 0 0.15 0"/>
<feBlend mode="normal" in2="BackgroundImageFix" result="effect1_dropShadow_2269_119804"/>
<feBlend mode="normal" in="SourceGraphic" in2="effect1_dropShadow_2269_119804" result="shape"/>
</filter>
<filter id="filter1_d_2269_119804" x="76.6843" y="46.3002" width="168.37" height="188.405" filterUnits="userSpaceOnUse" color-interpolation-filters="sRGB">
<feFlood flood-opacity="0" result="BackgroundImageFix"/>
<feColorMatrix in="SourceAlpha" type="matrix" values="0 0 0 0 0 0 0 0 0 0 0 0 0 0 0 0 0 0 127 0" result="hardAlpha"/>
<feOffset dy="11.6998"/>
<feGaussianBlur stdDeviation="11.6998"/>
<feColorMatrix type="matrix" values="0 0 0 0 0.397708 0 0 0 0 0.47749 0 0 0 0 0.575 0 0 0 0.1 0"/>
<feBlend mode="normal" in2="BackgroundImageFix" result="effect1_dropShadow_2269_119804"/>
<feBlend mode="normal" in="SourceGraphic" in2="effect1_dropShadow_2269_119804" result="shape"/>
</filter>
<clipPath id="clip0_2269_119804">
<rect width="271.419" height="260" fill="white" transform="translate(0.582031)"/>
</clipPath>
</defs>
</svg>
