<?xml version="1.0" encoding="UTF-8" standalone="no"?><!DOCTYPE svg PUBLIC "-//W3C//DTD SVG 1.1//EN" "http://www.w3.org/Graphics/SVG/1.1/DTD/svg11.dtd"><svg width="130" height="60" viewBox="0 0 339 157" version="1.1" xmlns="http://www.w3.org/2000/svg" xmlns:xlink="http://www.w3.org/1999/xlink" xml:space="preserve" xmlns:serif="http://www.serif.com/" style="fill-rule:evenodd;clip-rule:evenodd;stroke-linejoin:round;stroke-miterlimit:1.41421;"><g><path d="M206.613,15.378c-9.499,-9.502 -22.628,-15.378 -37.125,-15.378c-14.501,0 -27.628,5.876 -37.13,15.378c-9.504,9.502 -15.38,22.631 -15.38,37.13c0,14.499 5.876,27.628 15.378,37.13c9.502,9.504 22.631,15.378 37.132,15.378c14.499,0 27.628,-5.879 37.127,-15.378c9.502,-9.504 15.378,-22.631 15.378,-37.13c0,-14.499 -5.878,-27.628 -15.38,-37.13Zm-1.732,72.524c-9.057,9.058 -21.572,14.661 -35.395,14.661c-13.823,0 -26.339,-5.603 -35.397,-14.661c-9.058,-9.058 -14.661,-21.572 -14.661,-35.394c0,-13.823 5.603,-26.337 14.661,-35.395c9.058,-9.058 21.572,-14.661 35.395,-14.661c13.823,0 26.337,5.603 35.395,14.661c9.058,9.058 14.66,21.572 14.66,35.395c0.002,13.822 -5.601,26.337 -14.658,35.394Z" style="fill:#35495c;fill-rule:nonzero;"/><path d="M214.656,52.07c-0.236,-24.746 -20.367,-44.734 -45.168,-44.734c-24.803,0 -44.936,19.99 -45.168,44.736l20.712,-20.712l6.946,6.946l-15.157,15.157l65.333,0l-15.157,-15.157l6.946,-6.946l20.713,20.71Zm-45.17,-7.762l-19.246,-20.196l12.79,0l0,-9.955c0,-2.584 2.906,-4.702 6.456,-4.702c3.55,0 6.456,2.116 6.456,4.702l0,9.955l12.79,0l-19.246,20.196Z" style="fill:#35495c;fill-rule:nonzero;"/><path d="M175.1,77.93c-1.026,-0.667 -2.326,-1.267 -3.894,-1.788c-1.199,-0.413 -2.186,-0.803 -2.956,-1.179c-0.764,-0.372 -1.328,-0.785 -1.689,-1.221c-0.37,-0.444 -0.543,-0.976 -0.543,-1.586c0,-0.488 0.147,-0.952 0.462,-1.391c0.309,-0.438 0.792,-0.803 1.448,-1.079c0.663,-0.28 1.507,-0.431 2.555,-0.436c0.844,0.004 1.615,0.072 2.312,0.193c0.689,0.125 1.3,0.276 1.823,0.449c0.53,0.179 0.958,0.348 1.295,0.507l1.166,-3.516c-0.705,-0.354 -1.588,-0.648 -2.66,-0.886c-0.91,-0.201 -1.952,-0.317 -3.135,-0.357l0,-3.638l-3.205,0l0,3.82c-0.514,0.083 -1.007,0.195 -1.473,0.33c-1.179,0.348 -2.192,0.831 -3.03,1.462c-0.831,0.628 -1.475,1.363 -1.917,2.205c-0.444,0.842 -0.663,1.77 -0.672,2.768c0.006,1.155 0.309,2.173 0.906,3.052c0.597,0.88 1.448,1.643 2.547,2.297c1.094,0.652 2.4,1.214 3.91,1.687c1.133,0.363 2.057,0.742 2.761,1.131c0.705,0.387 1.221,0.814 1.542,1.28c0.328,0.466 0.49,1.006 0.484,1.61c0,0.663 -0.195,1.238 -0.575,1.735c-0.376,0.49 -0.932,0.875 -1.663,1.148c-0.731,0.276 -1.623,0.411 -2.669,0.42c-0.851,-0.006 -1.676,-0.079 -2.481,-0.217c-0.799,-0.144 -1.549,-0.33 -2.24,-0.562c-0.698,-0.232 -1.308,-0.484 -1.838,-0.766l-1.127,3.662c0.51,0.28 1.146,0.532 1.925,0.764c0.779,0.234 1.636,0.42 2.575,0.562c0.932,0.138 1.89,0.208 2.864,0.217l0.171,-0.002l0,3.761l3.205,0l0,-4.063c0.407,-0.079 0.794,-0.173 1.162,-0.282c1.286,-0.387 2.354,-0.915 3.199,-1.591c0.851,-0.67 1.481,-1.446 1.899,-2.321c0.416,-0.875 0.624,-1.801 0.624,-2.787c0,-1.155 -0.247,-2.177 -0.757,-3.056c-0.515,-0.887 -1.281,-1.664 -2.311,-2.336Z" style="fill:#35495c;fill-rule:nonzero;"/></g><g><path d="M3.999,141.181c0,0.701 0.099,1.38 0.298,2.034c0.198,0.655 0.496,1.228 0.894,1.719c0.397,0.491 0.9,0.883 1.508,1.175c0.608,0.293 1.333,0.439 2.175,0.439c1.169,0 2.11,-0.251 2.824,-0.754c0.713,-0.502 1.245,-1.256 1.596,-2.262l3.788,0c-0.21,0.982 -0.573,1.859 -1.087,2.631c-0.515,0.772 -1.135,1.421 -1.859,1.946c-0.725,0.526 -1.538,0.924 -2.438,1.193c-0.901,0.268 -1.842,0.403 -2.824,0.403c-1.427,0 -2.689,-0.234 -3.788,-0.701c-1.1,-0.468 -2.029,-1.123 -2.789,-1.965c-0.76,-0.842 -1.333,-1.847 -1.719,-3.016c-0.385,-1.17 -0.578,-2.456 -0.578,-3.859c0,-1.286 0.205,-2.508 0.614,-3.665c0.409,-1.157 0.994,-2.175 1.754,-3.052c0.76,-0.877 1.678,-1.573 2.754,-2.087c1.075,-0.514 2.291,-0.772 3.648,-0.772c1.426,0 2.706,0.298 3.841,0.894c1.134,0.596 2.075,1.386 2.824,2.368c0.748,0.982 1.292,2.111 1.631,3.385c0.339,1.275 0.427,2.59 0.263,3.946l-13.33,0Zm9.33,-2.631c-0.047,-0.631 -0.182,-1.239 -0.404,-1.824c-0.223,-0.584 -0.526,-1.093 -0.912,-1.526c-0.386,-0.432 -0.854,-0.783 -1.403,-1.052c-0.55,-0.269 -1.163,-0.404 -1.841,-0.404c-0.702,0 -1.339,0.123 -1.912,0.369c-0.573,0.245 -1.064,0.585 -1.473,1.017c-0.409,0.433 -0.737,0.942 -0.982,1.526c-0.246,0.585 -0.38,1.216 -0.403,1.894l9.33,0Z" style="fill:#35495c;fill-rule:nonzero;"/><path d="M35.567,145.18c0,0.491 0.064,0.842 0.193,1.052c0.128,0.21 0.38,0.316 0.754,0.316c0.117,0 0.257,0 0.421,0c0.163,0 0.351,-0.023 0.561,-0.07l0,2.771c-0.14,0.047 -0.322,0.099 -0.544,0.158c-0.223,0.058 -0.45,0.111 -0.684,0.158c-0.234,0.047 -0.468,0.081 -0.702,0.105c-0.234,0.024 -0.433,0.035 -0.596,0.035c-0.819,0 -1.497,-0.164 -2.034,-0.491c-0.538,-0.327 -0.889,-0.9 -1.052,-1.719c-0.795,0.771 -1.771,1.333 -2.929,1.683c-1.157,0.351 -2.274,0.526 -3.35,0.526c-0.819,0 -1.602,-0.111 -2.35,-0.333c-0.749,-0.222 -1.409,-0.549 -1.982,-0.982c-0.573,-0.433 -1.029,-0.982 -1.368,-1.649c-0.339,-0.666 -0.509,-1.444 -0.509,-2.333c0,-1.122 0.204,-2.034 0.614,-2.736c0.409,-0.701 0.947,-1.251 1.613,-1.649c0.666,-0.397 1.414,-0.684 2.245,-0.859c0.83,-0.175 1.666,-0.31 2.508,-0.404c0.725,-0.14 1.415,-0.239 2.069,-0.298c0.654,-0.058 1.233,-0.158 1.736,-0.298c0.503,-0.14 0.9,-0.356 1.193,-0.649c0.292,-0.292 0.438,-0.73 0.438,-1.315c0,-0.514 -0.123,-0.935 -0.368,-1.263c-0.246,-0.327 -0.55,-0.579 -0.912,-0.754c-0.363,-0.175 -0.766,-0.292 -1.21,-0.351c-0.445,-0.058 -0.865,-0.088 -1.263,-0.088c-1.122,0 -2.047,0.234 -2.771,0.702c-0.725,0.468 -1.135,1.193 -1.228,2.175l-3.999,0c0.07,-1.169 0.351,-2.14 0.842,-2.911c0.491,-0.772 1.117,-1.391 1.877,-1.859c0.76,-0.467 1.619,-0.795 2.578,-0.982c0.958,-0.187 1.941,-0.281 2.946,-0.281c0.888,0 1.765,0.094 2.631,0.281c0.865,0.188 1.643,0.491 2.333,0.912c0.689,0.421 1.245,0.965 1.666,1.631c0.421,0.666 0.631,1.479 0.631,2.438l0,9.331l0.002,0Zm-3.998,-5.052c-0.608,0.398 -1.356,0.638 -2.245,0.719c-0.889,0.082 -1.777,0.205 -2.666,0.369c-0.421,0.07 -0.83,0.17 -1.228,0.298c-0.398,0.129 -0.749,0.304 -1.052,0.526c-0.304,0.223 -0.544,0.515 -0.719,0.877c-0.175,0.363 -0.263,0.801 -0.263,1.315c0,0.445 0.128,0.819 0.386,1.123c0.257,0.304 0.567,0.543 0.93,0.719c0.362,0.175 0.759,0.298 1.193,0.368c0.432,0.071 0.824,0.105 1.175,0.105c0.444,0 0.924,-0.058 1.438,-0.175c0.514,-0.117 1,-0.316 1.456,-0.596c0.456,-0.28 0.836,-0.636 1.14,-1.07c0.304,-0.432 0.456,-0.964 0.456,-1.596l0,-2.982l-0.001,0Z" style="fill:#35495c;fill-rule:nonzero;"/><path d="M42.898,143.39c0.117,1.17 0.561,1.988 1.333,2.456c0.772,0.468 1.695,0.701 2.771,0.701c0.374,0 0.801,-0.029 1.28,-0.088c0.479,-0.058 0.93,-0.169 1.351,-0.333c0.421,-0.163 0.766,-0.403 1.035,-0.719c0.268,-0.316 0.391,-0.731 0.368,-1.245c-0.024,-0.514 -0.21,-0.935 -0.561,-1.263c-0.351,-0.327 -0.801,-0.59 -1.35,-0.789c-0.55,-0.198 -1.175,-0.369 -1.877,-0.509c-0.702,-0.14 -1.415,-0.292 -2.14,-0.456c-0.749,-0.163 -1.468,-0.362 -2.157,-0.596c-0.69,-0.234 -1.31,-0.549 -1.859,-0.947c-0.55,-0.397 -0.988,-0.906 -1.315,-1.526c-0.328,-0.619 -0.491,-1.386 -0.491,-2.298c0,-0.982 0.239,-1.806 0.719,-2.473c0.479,-0.666 1.087,-1.204 1.824,-1.613c0.737,-0.409 1.555,-0.696 2.455,-0.859c0.9,-0.163 1.759,-0.245 2.578,-0.245c0.935,0 1.829,0.1 2.683,0.298c0.853,0.199 1.625,0.521 2.315,0.965c0.689,0.445 1.263,1.023 1.719,1.736c0.456,0.714 0.742,1.573 0.86,2.578l-4.174,0c-0.188,-0.958 -0.626,-1.601 -1.316,-1.929c-0.69,-0.327 -1.479,-0.491 -2.368,-0.491c-0.281,0 -0.614,0.024 -0.999,0.07c-0.386,0.047 -0.749,0.135 -1.087,0.263c-0.339,0.129 -0.626,0.316 -0.859,0.561c-0.234,0.246 -0.351,0.567 -0.351,0.965c0,0.491 0.169,0.889 0.509,1.193c0.339,0.304 0.783,0.556 1.333,0.754c0.549,0.199 1.175,0.368 1.876,0.508c0.702,0.14 1.426,0.293 2.175,0.456c0.724,0.164 1.438,0.363 2.14,0.596c0.701,0.234 1.327,0.55 1.877,0.947c0.549,0.397 0.994,0.9 1.333,1.508c0.339,0.609 0.508,1.356 0.508,2.245c0,1.076 -0.246,1.988 -0.737,2.736c-0.491,0.749 -1.128,1.357 -1.912,1.824c-0.784,0.468 -1.654,0.807 -2.613,1.017c-0.959,0.21 -1.906,0.316 -2.841,0.316c-1.146,0 -2.204,-0.129 -3.174,-0.386c-0.971,-0.257 -1.812,-0.649 -2.525,-1.175c-0.714,-0.526 -1.275,-1.18 -1.684,-1.964c-0.409,-0.784 -0.626,-1.713 -0.649,-2.789l3.997,0Z" style="fill:#35495c;fill-rule:nonzero;"/><path d="M56.086,131.079l4.385,0l4.735,13.539l0.07,0l4.595,-13.539l4.174,0l-7.05,19.116c-0.328,0.818 -0.649,1.601 -0.965,2.35c-0.316,0.748 -0.701,1.408 -1.157,1.982c-0.456,0.573 -1.023,1.029 -1.701,1.368c-0.678,0.339 -1.543,0.509 -2.596,0.509c-0.936,0 -1.859,-0.07 -2.771,-0.21l0,-3.368c0.327,0.047 0.643,0.1 0.947,0.158c0.304,0.058 0.619,0.088 0.947,0.088c0.467,0 0.853,-0.058 1.157,-0.175c0.304,-0.118 0.555,-0.287 0.754,-0.509c0.198,-0.223 0.368,-0.486 0.509,-0.79c0.14,-0.304 0.268,-0.655 0.386,-1.052l0.456,-1.403l-6.875,-18.064Z" style="fill:#35495c;fill-rule:nonzero;"/><path d="M90.18,149.213l0,-3.438l-0.07,0c-0.234,0.585 -0.579,1.123 -1.035,1.614c-0.456,0.491 -0.976,0.907 -1.561,1.245c-0.585,0.339 -1.21,0.602 -1.877,0.789c-0.666,0.187 -1.327,0.281 -1.982,0.281c-1.38,0 -2.578,-0.251 -3.595,-0.754c-1.017,-0.502 -1.865,-1.192 -2.543,-2.069c-0.679,-0.877 -1.181,-1.894 -1.508,-3.052c-0.328,-1.158 -0.491,-2.379 -0.491,-3.666c0,-1.286 0.163,-2.508 0.491,-3.665c0.327,-1.157 0.83,-2.175 1.508,-3.052c0.678,-0.877 1.526,-1.573 2.543,-2.087c1.017,-0.514 2.215,-0.772 3.595,-0.772c0.678,0 1.339,0.082 1.982,0.245c0.643,0.164 1.245,0.415 1.807,0.754c0.561,0.339 1.058,0.754 1.491,1.245c0.432,0.491 0.766,1.064 1,1.719l0.07,0l0,-10.382l2.21,0l0,25.044l-2.035,0l0,0.001Zm-12.119,-6.261c0.222,0.924 0.573,1.748 1.052,2.473c0.479,0.725 1.093,1.315 1.842,1.771c0.748,0.456 1.649,0.684 2.701,0.684c1.169,0 2.157,-0.228 2.964,-0.684c0.807,-0.456 1.461,-1.046 1.964,-1.771c0.503,-0.725 0.865,-1.549 1.087,-2.473c0.222,-0.924 0.333,-1.853 0.333,-2.789c0,-0.935 -0.111,-1.864 -0.333,-2.788c-0.223,-0.923 -0.585,-1.748 -1.087,-2.473c-0.503,-0.725 -1.157,-1.316 -1.964,-1.772c-0.807,-0.456 -1.795,-0.684 -2.964,-0.684c-1.052,0 -1.953,0.228 -2.701,0.684c-0.749,0.456 -1.363,1.047 -1.842,1.772c-0.48,0.725 -0.83,1.549 -1.052,2.473c-0.222,0.924 -0.333,1.853 -0.333,2.788c0,0.936 0.111,1.866 0.333,2.789Z" style="fill:#35495c;fill-rule:nonzero;"/><path d="M98.668,124.169l0,3.543l-2.21,0l0,-3.543l2.21,0Zm0,6.945l0,18.099l-2.21,0l0,-18.099l2.21,0Z" style="fill:#35495c;fill-rule:nonzero;"/><path d="M117.767,151.353c-0.293,1.076 -0.754,1.988 -1.386,2.736c-0.632,0.748 -1.456,1.321 -2.473,1.719c-1.017,0.397 -2.263,0.596 -3.736,0.596c-0.912,0 -1.801,-0.105 -2.666,-0.316c-0.865,-0.21 -1.643,-0.538 -2.332,-0.982c-0.69,-0.445 -1.263,-1.012 -1.719,-1.701c-0.456,-0.69 -0.719,-1.514 -0.789,-2.473l2.21,0c0.117,0.678 0.345,1.245 0.684,1.702c0.339,0.456 0.748,0.824 1.228,1.105c0.479,0.281 1.011,0.485 1.596,0.614c0.584,0.128 1.18,0.193 1.789,0.193c2.057,0 3.543,-0.585 4.455,-1.754c0.912,-1.17 1.368,-2.853 1.368,-5.051l0,-2.456l-0.07,0c-0.515,1.123 -1.269,2.023 -2.262,2.701c-0.994,0.678 -2.157,1.017 -3.49,1.017c-1.45,0 -2.689,-0.24 -3.718,-0.719c-1.029,-0.479 -1.877,-1.14 -2.543,-1.982c-0.666,-0.842 -1.152,-1.829 -1.456,-2.964c-0.304,-1.134 -0.456,-2.344 -0.456,-3.63c0,-1.239 0.181,-2.414 0.544,-3.525c0.362,-1.11 0.888,-2.081 1.578,-2.911c0.689,-0.83 1.543,-1.485 2.561,-1.964c1.017,-0.479 2.18,-0.719 3.49,-0.719c0.678,0 1.315,0.094 1.912,0.281c0.596,0.188 1.14,0.45 1.631,0.789c0.491,0.339 0.93,0.731 1.316,1.175c0.386,0.445 0.684,0.912 0.894,1.403l0.07,0l0,-3.122l2.21,0l0,16.626c-0.001,1.332 -0.148,2.536 -0.44,3.612Zm-5.068,-4.823c0.724,-0.409 1.333,-0.947 1.824,-1.613c0.491,-0.666 0.859,-1.432 1.105,-2.297c0.246,-0.865 0.368,-1.754 0.368,-2.666c0,-0.888 -0.105,-1.777 -0.316,-2.666c-0.21,-0.888 -0.55,-1.695 -1.017,-2.42c-0.468,-0.724 -1.07,-1.309 -1.806,-1.754c-0.737,-0.444 -1.631,-0.666 -2.683,-0.666c-1.052,0 -1.953,0.216 -2.701,0.649c-0.749,0.433 -1.368,1 -1.859,1.701c-0.491,0.701 -0.848,1.503 -1.07,2.403c-0.223,0.9 -0.333,1.818 -0.333,2.754c0,0.912 0.117,1.801 0.351,2.666c0.233,0.865 0.596,1.631 1.087,2.297c0.491,0.666 1.11,1.205 1.859,1.613c0.748,0.41 1.636,0.614 2.666,0.614c0.958,-0.001 1.8,-0.205 2.525,-0.615Z" style="fill:#35495c;fill-rule:nonzero;"/><path d="M124.66,124.169l0,3.543l-2.21,0l0,-3.543l2.21,0Zm0,6.945l0,18.099l-2.21,0l0,-18.099l2.21,0Z" style="fill:#35495c;fill-rule:nonzero;"/><path d="M136.094,131.114l0,1.859l-3.683,0l0,12.207c0,0.725 0.099,1.292 0.298,1.701c0.198,0.41 0.696,0.638 1.491,0.684c0.631,0 1.263,-0.035 1.894,-0.105l0,1.859c-0.328,0 -0.655,0.011 -0.982,0.035c-0.328,0.023 -0.655,0.035 -0.982,0.035c-1.473,0 -2.503,-0.286 -3.087,-0.86c-0.585,-0.573 -0.865,-1.631 -0.842,-3.174l0,-12.382l-3.157,0l0,-1.859l3.157,0l0,-5.437l2.21,0l0,5.437l3.683,0Z" style="fill:#35495c;fill-rule:nonzero;"/><path d="M139.742,133.92c0.374,-0.772 0.883,-1.403 1.526,-1.894c0.643,-0.491 1.397,-0.853 2.262,-1.087c0.865,-0.233 1.824,-0.351 2.877,-0.351c0.794,0 1.59,0.076 2.385,0.228c0.795,0.152 1.508,0.439 2.14,0.859c0.631,0.421 1.146,1.012 1.543,1.772c0.397,0.76 0.596,1.748 0.596,2.964l0,9.611c0,0.888 0.433,1.332 1.298,1.332c0.257,0 0.491,-0.047 0.701,-0.14l0,1.859c-0.257,0.047 -0.486,0.082 -0.684,0.105c-0.199,0.024 -0.45,0.035 -0.754,0.035c-0.561,0 -1.011,-0.075 -1.35,-0.228c-0.34,-0.152 -0.602,-0.369 -0.79,-0.649c-0.187,-0.281 -0.31,-0.614 -0.368,-1c-0.059,-0.386 -0.088,-0.812 -0.088,-1.281l-0.07,0c-0.398,0.585 -0.801,1.105 -1.21,1.561c-0.409,0.456 -0.865,0.837 -1.368,1.14c-0.503,0.304 -1.076,0.538 -1.719,0.701c-0.643,0.163 -1.409,0.246 -2.297,0.246c-0.842,0 -1.631,-0.1 -2.367,-0.298c-0.737,-0.198 -1.38,-0.514 -1.929,-0.947c-0.55,-0.432 -0.982,-0.982 -1.298,-1.649c-0.316,-0.666 -0.474,-1.455 -0.474,-2.367c0,-1.263 0.281,-2.251 0.842,-2.964c0.562,-0.713 1.303,-1.256 2.227,-1.631c0.924,-0.374 1.965,-0.637 3.122,-0.789c1.157,-0.152 2.333,-0.298 3.525,-0.438c0.467,-0.047 0.877,-0.105 1.228,-0.175c0.351,-0.07 0.643,-0.193 0.877,-0.368c0.233,-0.175 0.414,-0.415 0.543,-0.719c0.128,-0.304 0.193,-0.702 0.193,-1.193c0,-0.748 -0.123,-1.362 -0.369,-1.841c-0.246,-0.479 -0.585,-0.86 -1.017,-1.14c-0.433,-0.281 -0.936,-0.474 -1.508,-0.579c-0.573,-0.105 -1.188,-0.158 -1.842,-0.158c-1.403,0 -2.549,0.333 -3.437,1c-0.889,0.666 -1.356,1.736 -1.404,3.209l-2.21,0c0.071,-1.052 0.293,-1.964 0.668,-2.736Zm11.049,5.402c-0.141,0.258 -0.41,0.445 -0.807,0.561c-0.397,0.117 -0.748,0.199 -1.052,0.245c-0.936,0.164 -1.9,0.311 -2.894,0.439c-0.994,0.129 -1.9,0.322 -2.718,0.579c-0.819,0.258 -1.491,0.626 -2.017,1.105c-0.526,0.48 -0.789,1.163 -0.789,2.052c0,0.562 0.111,1.059 0.333,1.491c0.222,0.433 0.52,0.807 0.894,1.123c0.374,0.316 0.807,0.556 1.298,0.719c0.491,0.164 0.994,0.246 1.508,0.246c0.842,0 1.649,-0.128 2.42,-0.386c0.772,-0.257 1.444,-0.632 2.017,-1.123c0.572,-0.491 1.029,-1.087 1.368,-1.789c0.339,-0.702 0.509,-1.496 0.509,-2.385l0,-2.876l-0.07,0l0,-0.001Z" style="fill:#35495c;fill-rule:nonzero;"/><rect x="157.525" y="124.169" width="2.21" height="25.044" style="fill:#35495c;fill-rule:nonzero;"/><path d="M181.061,149.213l-3.788,0l0,-2.455l-0.07,0c-0.538,1.052 -1.321,1.806 -2.35,2.262c-1.029,0.456 -2.117,0.684 -3.262,0.684c-1.427,0 -2.672,-0.251 -3.736,-0.754c-1.064,-0.502 -1.947,-1.186 -2.648,-2.052c-0.702,-0.865 -1.228,-1.888 -1.578,-3.069c-0.351,-1.18 -0.526,-2.449 -0.526,-3.806c0,-1.636 0.222,-3.052 0.666,-4.244c0.444,-1.193 1.035,-2.175 1.772,-2.946c0.737,-0.772 1.578,-1.338 2.525,-1.701c0.947,-0.362 1.912,-0.544 2.894,-0.544c0.562,0 1.134,0.052 1.719,0.158c0.584,0.105 1.145,0.275 1.683,0.509c0.538,0.234 1.035,0.532 1.491,0.894c0.456,0.363 0.836,0.789 1.14,1.28l0.071,0l0,-9.26l3.998,0l0,25.044l-0.001,0Zm-13.96,-8.874c0,0.772 0.099,1.532 0.298,2.28c0.198,0.748 0.503,1.415 0.912,1.999c0.409,0.585 0.93,1.053 1.561,1.404c0.632,0.35 1.379,0.526 2.245,0.526c0.888,0 1.654,-0.187 2.298,-0.561c0.643,-0.374 1.169,-0.865 1.578,-1.473c0.409,-0.608 0.713,-1.292 0.912,-2.052c0.198,-0.76 0.298,-1.538 0.298,-2.333c0,-2.01 -0.45,-3.577 -1.351,-4.7c-0.901,-1.123 -2.122,-1.684 -3.665,-1.684c-0.936,0 -1.725,0.193 -2.368,0.579c-0.644,0.386 -1.169,0.889 -1.578,1.508c-0.409,0.62 -0.701,1.321 -0.877,2.105c-0.175,0.783 -0.263,1.584 -0.263,2.402Z" style="fill:#35495c;fill-rule:nonzero;"/><path d="M193.724,149.704c-1.45,0 -2.742,-0.24 -3.876,-0.719c-1.135,-0.479 -2.093,-1.14 -2.876,-1.982c-0.784,-0.842 -1.38,-1.847 -1.789,-3.017c-0.409,-1.169 -0.613,-2.455 -0.613,-3.859c0,-1.379 0.204,-2.653 0.613,-3.823c0.409,-1.169 1.006,-2.175 1.789,-3.017c0.783,-0.842 1.742,-1.502 2.876,-1.982c1.134,-0.479 2.426,-0.719 3.876,-0.719c1.45,0 2.742,0.24 3.876,0.719c1.134,0.48 2.093,1.14 2.877,1.982c0.783,0.842 1.379,1.848 1.789,3.017c0.409,1.17 0.614,2.444 0.614,3.823c0,1.404 -0.205,2.69 -0.614,3.859c-0.409,1.17 -1.006,2.175 -1.789,3.017c-0.784,0.842 -1.743,1.503 -2.877,1.982c-1.134,0.479 -2.427,0.719 -3.876,0.719Zm0,-3.157c0.888,0 1.66,-0.187 2.315,-0.561c0.655,-0.374 1.193,-0.865 1.614,-1.473c0.421,-0.608 0.731,-1.292 0.93,-2.052c0.198,-0.76 0.298,-1.538 0.298,-2.333c0,-0.771 -0.1,-1.543 -0.298,-2.315c-0.199,-0.772 -0.509,-1.456 -0.93,-2.052c-0.421,-0.596 -0.959,-1.081 -1.614,-1.456c-0.655,-0.374 -1.427,-0.561 -2.315,-0.561c-0.889,0 -1.66,0.188 -2.315,0.561c-0.655,0.374 -1.192,0.859 -1.613,1.456c-0.421,0.596 -0.731,1.28 -0.93,2.052c-0.199,0.772 -0.299,1.543 -0.299,2.315c0,0.795 0.1,1.573 0.299,2.333c0.198,0.76 0.509,1.444 0.93,2.052c0.421,0.608 0.958,1.099 1.613,1.473c0.654,0.375 1.426,0.561 2.315,0.561Z" style="fill:#35495c;fill-rule:nonzero;"/><path d="M204.562,131.079l4.244,0l3.543,13.539l0.071,0l3.402,-13.539l4.034,0l3.262,13.539l0.071,0l3.683,-13.539l4.069,0l-5.682,18.134l-4.104,0l-3.367,-13.469l-0.07,0l-3.332,13.469l-4.209,0l-5.615,-18.134Z" style="fill:#35495c;fill-rule:nonzero;"/><path d="M233.499,131.079l3.788,0l0,2.666l0.07,0.07c0.608,-1.005 1.403,-1.795 2.385,-2.368c0.982,-0.573 2.069,-0.859 3.262,-0.859c1.987,0 3.554,0.515 4.7,1.543c1.146,1.029 1.719,2.573 1.719,4.63l0,12.452l-3.998,0l0,-11.4c-0.047,-1.426 -0.351,-2.461 -0.912,-3.104c-0.562,-0.643 -1.438,-0.965 -2.631,-0.965c-0.678,0 -1.286,0.123 -1.824,0.369c-0.538,0.245 -0.994,0.585 -1.368,1.017c-0.374,0.433 -0.666,0.942 -0.877,1.526c-0.211,0.585 -0.316,1.205 -0.316,1.859l0,10.698l-3.998,0l0,-18.134Z" style="fill:#35495c;fill-rule:nonzero;"/><rect x="253.738" y="124.169" width="3.999" height="25.044" style="fill:#35495c;fill-rule:nonzero;"/><path d="M270.399,149.704c-1.45,0 -2.742,-0.24 -3.876,-0.719c-1.135,-0.479 -2.093,-1.14 -2.876,-1.982c-0.784,-0.842 -1.38,-1.847 -1.789,-3.017c-0.409,-1.169 -0.613,-2.455 -0.613,-3.859c0,-1.379 0.204,-2.653 0.613,-3.823c0.409,-1.169 1.006,-2.175 1.789,-3.017c0.783,-0.842 1.742,-1.502 2.876,-1.982c1.134,-0.479 2.426,-0.719 3.876,-0.719c1.45,0 2.742,0.24 3.876,0.719c1.134,0.48 2.093,1.14 2.877,1.982c0.783,0.842 1.379,1.848 1.789,3.017c0.409,1.17 0.614,2.444 0.614,3.823c0,1.404 -0.205,2.69 -0.614,3.859c-0.409,1.17 -1.006,2.175 -1.789,3.017c-0.784,0.842 -1.743,1.503 -2.877,1.982c-1.135,0.479 -2.427,0.719 -3.876,0.719Zm0,-3.157c0.888,0 1.66,-0.187 2.315,-0.561c0.655,-0.374 1.193,-0.865 1.614,-1.473c0.421,-0.608 0.731,-1.292 0.93,-2.052c0.198,-0.76 0.298,-1.538 0.298,-2.333c0,-0.771 -0.099,-1.543 -0.298,-2.315c-0.199,-0.772 -0.509,-1.456 -0.93,-2.052c-0.421,-0.596 -0.959,-1.081 -1.614,-1.456c-0.655,-0.374 -1.427,-0.561 -2.315,-0.561c-0.889,0 -1.66,0.188 -2.315,0.561c-0.655,0.374 -1.192,0.859 -1.613,1.456c-0.421,0.596 -0.731,1.28 -0.93,2.052c-0.199,0.772 -0.299,1.543 -0.299,2.315c0,0.795 0.1,1.573 0.299,2.333c0.198,0.76 0.509,1.444 0.93,2.052c0.421,0.608 0.958,1.099 1.613,1.473c0.654,0.375 1.426,0.561 2.315,0.561Z" style="fill:#35495c;fill-rule:nonzero;"/><path d="M298.073,145.18c0,0.491 0.064,0.842 0.193,1.052c0.128,0.21 0.38,0.316 0.754,0.316c0.117,0 0.257,0 0.421,0c0.163,0 0.35,-0.023 0.561,-0.07l0,2.771c-0.14,0.047 -0.321,0.099 -0.543,0.158c-0.223,0.058 -0.451,0.111 -0.684,0.158c-0.234,0.047 -0.468,0.081 -0.702,0.105c-0.234,0.024 -0.433,0.035 -0.596,0.035c-0.818,0 -1.497,-0.164 -2.034,-0.491c-0.538,-0.327 -0.889,-0.9 -1.052,-1.719c-0.795,0.771 -1.772,1.333 -2.929,1.683c-1.158,0.351 -2.274,0.526 -3.349,0.526c-0.819,0 -1.602,-0.111 -2.35,-0.333c-0.749,-0.222 -1.409,-0.549 -1.982,-0.982c-0.573,-0.433 -1.029,-0.982 -1.368,-1.649c-0.339,-0.666 -0.509,-1.444 -0.509,-2.333c0,-1.122 0.205,-2.034 0.614,-2.736c0.409,-0.701 0.947,-1.251 1.614,-1.649c0.666,-0.397 1.414,-0.684 2.244,-0.859c0.83,-0.175 1.666,-0.31 2.508,-0.404c0.725,-0.14 1.415,-0.239 2.069,-0.298c0.655,-0.058 1.233,-0.158 1.736,-0.298c0.503,-0.14 0.9,-0.356 1.193,-0.649c0.292,-0.292 0.439,-0.73 0.439,-1.315c0,-0.514 -0.123,-0.935 -0.369,-1.263c-0.246,-0.327 -0.55,-0.579 -0.912,-0.754c-0.363,-0.175 -0.766,-0.292 -1.21,-0.351c-0.445,-0.058 -0.865,-0.088 -1.263,-0.088c-1.123,0 -2.047,0.234 -2.771,0.702c-0.725,0.468 -1.135,1.193 -1.228,2.175l-3.999,0c0.071,-1.169 0.351,-2.14 0.842,-2.911c0.491,-0.772 1.116,-1.391 1.877,-1.859c0.759,-0.467 1.618,-0.795 2.578,-0.982c0.959,-0.187 1.941,-0.281 2.947,-0.281c0.888,0 1.765,0.094 2.631,0.281c0.865,0.188 1.643,0.491 2.333,0.912c0.689,0.421 1.245,0.965 1.666,1.631c0.421,0.666 0.631,1.479 0.631,2.438l0,9.331l-0.001,0Zm-3.998,-5.052c-0.609,0.398 -1.357,0.638 -2.245,0.719c-0.889,0.082 -1.777,0.205 -2.666,0.369c-0.421,0.07 -0.83,0.17 -1.228,0.298c-0.398,0.129 -0.749,0.304 -1.053,0.526c-0.304,0.223 -0.543,0.515 -0.719,0.877c-0.175,0.363 -0.263,0.801 -0.263,1.315c0,0.445 0.128,0.819 0.386,1.123c0.257,0.304 0.566,0.543 0.929,0.719c0.363,0.175 0.76,0.298 1.193,0.368c0.432,0.071 0.824,0.105 1.175,0.105c0.444,0 0.923,-0.058 1.438,-0.175c0.515,-0.117 1,-0.316 1.456,-0.596c0.456,-0.28 0.835,-0.636 1.14,-1.07c0.304,-0.432 0.456,-0.964 0.456,-1.596l0,-2.982l0.001,0Z" style="fill:#35495c;fill-rule:nonzero;"/><path d="M319.47,149.213l-3.788,0l0,-2.455l-0.07,0c-0.538,1.052 -1.321,1.806 -2.35,2.262c-1.029,0.456 -2.117,0.684 -3.262,0.684c-1.427,0 -2.672,-0.251 -3.736,-0.754c-1.064,-0.502 -1.947,-1.186 -2.648,-2.052c-0.702,-0.865 -1.228,-1.888 -1.578,-3.069c-0.351,-1.18 -0.526,-2.449 -0.526,-3.806c0,-1.636 0.222,-3.052 0.666,-4.244c0.444,-1.193 1.035,-2.175 1.772,-2.946c0.737,-0.772 1.578,-1.338 2.525,-1.701c0.947,-0.362 1.912,-0.544 2.894,-0.544c0.562,0 1.134,0.052 1.719,0.158c0.584,0.105 1.145,0.275 1.683,0.509c0.538,0.234 1.035,0.532 1.491,0.894c0.456,0.363 0.836,0.789 1.14,1.28l0.071,0l0,-9.26l3.998,0l0,25.044l-0.001,0Zm-13.96,-8.874c0,0.772 0.099,1.532 0.298,2.28c0.198,0.748 0.503,1.415 0.912,1.999c0.409,0.585 0.93,1.053 1.561,1.404c0.632,0.35 1.379,0.526 2.245,0.526c0.888,0 1.654,-0.187 2.298,-0.561c0.643,-0.374 1.169,-0.865 1.578,-1.473c0.409,-0.608 0.713,-1.292 0.912,-2.052c0.198,-0.76 0.298,-1.538 0.298,-2.333c0,-2.01 -0.45,-3.577 -1.351,-4.7c-0.901,-1.123 -2.122,-1.684 -3.665,-1.684c-0.936,0 -1.725,0.193 -2.368,0.579c-0.644,0.386 -1.169,0.889 -1.578,1.508c-0.409,0.62 -0.701,1.321 -0.877,2.105c-0.176,0.783 -0.263,1.584 -0.263,2.402Z" style="fill:#35495c;fill-rule:nonzero;"/><path d="M326.836,143.39c0.117,1.17 0.561,1.988 1.333,2.456c0.772,0.468 1.695,0.701 2.771,0.701c0.373,0 0.801,-0.029 1.28,-0.088c0.479,-0.058 0.93,-0.169 1.351,-0.333c0.421,-0.163 0.765,-0.403 1.034,-0.719c0.269,-0.316 0.392,-0.731 0.369,-1.245c-0.024,-0.514 -0.211,-0.935 -0.561,-1.263c-0.351,-0.327 -0.801,-0.59 -1.351,-0.789c-0.55,-0.198 -1.175,-0.369 -1.876,-0.509c-0.702,-0.14 -1.415,-0.292 -2.14,-0.456c-0.749,-0.163 -1.468,-0.362 -2.157,-0.596c-0.69,-0.234 -1.31,-0.549 -1.859,-0.947c-0.55,-0.397 -0.988,-0.906 -1.315,-1.526c-0.328,-0.619 -0.491,-1.386 -0.491,-2.298c0,-0.982 0.24,-1.806 0.719,-2.473c0.479,-0.667 1.087,-1.204 1.824,-1.613c0.737,-0.409 1.555,-0.696 2.455,-0.859c0.9,-0.163 1.76,-0.245 2.578,-0.245c0.935,0 1.83,0.1 2.684,0.298c0.853,0.199 1.625,0.521 2.315,0.965c0.689,0.445 1.263,1.023 1.719,1.736c0.456,0.714 0.742,1.573 0.86,2.578l-4.174,0c-0.187,-0.958 -0.626,-1.601 -1.315,-1.929c-0.69,-0.327 -1.479,-0.491 -2.367,-0.491c-0.281,0 -0.614,0.024 -1,0.07c-0.386,0.047 -0.749,0.135 -1.087,0.263c-0.339,0.129 -0.626,0.316 -0.86,0.561c-0.234,0.245 -0.35,0.567 -0.35,0.965c0,0.491 0.169,0.889 0.508,1.193c0.339,0.304 0.784,0.556 1.333,0.754c0.549,0.199 1.175,0.368 1.877,0.508c0.701,0.14 1.426,0.293 2.174,0.456c0.725,0.164 1.438,0.363 2.14,0.596c0.701,0.234 1.326,0.55 1.876,0.947c0.549,0.397 0.994,0.9 1.333,1.508c0.339,0.609 0.509,1.356 0.509,2.245c0,1.076 -0.246,1.988 -0.737,2.736c-0.492,0.749 -1.129,1.357 -1.912,1.824c-0.784,0.468 -1.655,0.807 -2.613,1.017c-0.959,0.21 -1.906,0.316 -2.841,0.316c-1.146,0 -2.204,-0.129 -3.174,-0.386c-0.971,-0.257 -1.813,-0.649 -2.526,-1.175c-0.714,-0.526 -1.275,-1.18 -1.683,-1.964c-0.41,-0.784 -0.626,-1.713 -0.649,-2.789l3.996,0Z" style="fill:#35495c;fill-rule:nonzero;"/></g></svg>