<svg role="img" aria-hidden="true" focusable="false" xmlns="http://www.w3.org/2000/svg" viewBox="0 0 1000 1000"><path fill="#fff" d="M500 0C223.9 0 0 223.9 0 500s223.9 500 500 500 500-223.9 500-500S776.1 0 500 0Zm87.2 412.4c0-21.9 4.3-40.2 13.1-54.4s24-27.1 45.9-38.2l10.1-4.9c17.8-9 22.4-16.7 22.4-26 0-11.1-9.5-19.1-25-19.1-18.3 0-32.2 9.5-41.8 28.9l-24.7-24.8c5.4-11.6 14.1-20.9 25.8-28.1a70.8 70.8 0 0 1 38.9-11.1c17.8 0 33.3 4.6 45.9 14.2s19.4 22.7 19.4 39.4c0 26.6-15 42.9-43.1 57.3l-15.7 8c-16.8 8.5-25.1 16-27.4 29.4h85.4v35.4H587.2Zm-82.1 373.3c-157.8 0-285.7-127.9-285.7-285.7s127.9-285.7 285.7-285.7a286.4 286.4 0 0 1 55.9 5.5l-55.9 116.9c-90 0-163.3 73.3-163.3 163.3s73.3 163.3 163.3 163.3a162.8 162.8 0 0 0 106.4-39.6l61.8 107.2a283.9 283.9 0 0 1-168.2 54.8ZM705 704.1l-70.7-122.5H492.9l70.7-122.4H705l70.7 122.4Z"/></svg>