<svg width="42" height="42" viewBox="0 0 42 42" fill="none" xmlns="http://www.w3.org/2000/svg">
	<g clip-path="url(#clip0_765_890)">
		<path d="M42.42 -0.419922H-0.420044V42.4201H42.42V-0.419922Z" fill="#760B65"/>
		<path d="M27.5603 18.375C29.7359 18.375 31.4999 16.611 31.4999 14.4396C31.4999 12.264 29.7359 10.5042 27.5645 10.5C25.3889 10.5 23.6249 12.264 23.6249 14.4354C23.6249 14.5992 23.6333 14.7588 23.6543 14.9226L17.1695 18.165C15.6029 16.6572 13.1123 16.6992 11.6003 18.2658C10.0925 19.8324 10.1345 22.323 11.7011 23.835C13.2257 25.305 15.6407 25.305 17.1695 23.835L23.6543 27.0774C23.3855 29.2362 24.9185 31.2018 27.0731 31.4706C29.2319 31.7394 31.1975 30.2064 31.4663 28.0518C31.7351 25.893 30.2021 23.9274 28.0475 23.6586C26.8673 23.5116 25.6829 23.9064 24.8261 24.7296L18.3413 21.4872C18.3791 21.1638 18.3791 20.8404 18.3413 20.517L24.8261 17.2746C25.5317 17.955 26.4977 18.375 27.5603 18.375Z" fill="white"/>
	</g>
	<defs>
		<clipPath id="clip0_765_890">
			<rect width="42" height="42" rx="6" fill="white"/>
		</clipPath>
	</defs>
</svg>
