<svg width="42" height="42" viewBox="0 0 42 42" fill="none" xmlns="http://www.w3.org/2000/svg">
	<g clip-path="url(#clip0_765_884)">
		<path d="M42.4201 -0.419922H-0.419922V42.4201H42.4201V-0.419922Z" fill="#2F4A54"/>
		<path d="M29.6099 13.2048L27.4805 11.0754C27.1109 10.7058 26.6111 10.5 26.0903 10.5H19.0301C17.9423 10.5 17.0603 11.382 17.0603 12.4698V14.4396H13.7801C12.6923 14.4396 11.8103 15.3216 11.8103 16.4094V29.5344C11.8103 30.6222 12.6923 31.5042 13.7801 31.5042H22.9655C24.0533 31.5042 24.9353 30.6222 24.9353 29.5344V27.5646H28.2155C29.3033 27.5646 30.1853 26.6826 30.1853 25.5948V14.5992C30.1853 14.0784 29.9795 13.5744 29.6099 13.209M22.7219 29.5302H14.0279C13.8935 29.5302 13.7801 29.421 13.7801 29.2824V16.6488C13.7801 16.5144 13.8893 16.401 14.0279 16.401H17.0645V25.5906C17.0645 26.6784 17.9465 27.5604 19.0343 27.5604H22.9697V29.2824C22.9697 29.4168 22.8605 29.5302 22.7219 29.5302ZM27.9719 25.5948H19.2779C19.1435 25.5948 19.0301 25.4856 19.0301 25.347V12.7134C19.0301 12.579 19.1393 12.4656 19.2779 12.4656H23.6249V16.0734C23.6249 16.6152 24.0659 17.0562 24.6077 17.0562H28.2155V25.3428C28.2155 25.4772 28.1063 25.5906 27.9677 25.5906M28.2197 15.0948H25.5947V12.4698H25.9895C26.0567 12.4698 26.1155 12.495 26.1617 12.5412L28.1441 14.5236C28.1903 14.5698 28.2155 14.6328 28.2155 14.6958V15.0906L28.2197 15.0948Z" fill="white"/>
	</g>
	<defs>
		<clipPath id="clip0_765_884">
			<rect width="42" height="42" rx="6" fill="white"/>
		</clipPath>
	</defs>
</svg>
