<svg width="42" height="42" viewBox="0 0 42 42" fill="none" xmlns="http://www.w3.org/2000/svg">
	<g clip-path="url(#clip0_765_858)">
		<path d="M42.4201 -0.419922H-0.419922V42.4201H42.4201V-0.419922Z" fill="url(#paint0_linear_765_858)"/>
		<path d="M22.0584 31.5C21.6468 31.5 21.2814 31.2354 21.1512 30.849L18.8706 24.0072L13.2384 21.8946C12.8646 21.756 12.621 21.399 12.621 21C12.621 20.601 12.8688 20.244 13.2384 20.1054L18.8706 17.9928L21.1512 11.151C21.2814 10.7604 21.6468 10.5 22.0584 10.5C22.47 10.5 22.8354 10.7646 22.9656 11.151L25.2462 17.9928L30.8826 20.1054C31.2564 20.244 31.5 20.601 31.5 21C31.5 21.399 31.2522 21.756 30.8826 21.8946L25.2462 24.0072L22.9656 30.849C22.8354 31.2396 22.47 31.5 22.0584 31.5ZM16.296 21L19.9752 22.3776C20.244 22.4784 20.454 22.6968 20.5464 22.9698L22.0668 27.5268L23.5872 22.9698C23.6796 22.6968 23.8896 22.4784 24.1584 22.3776L27.8376 21L24.1584 19.6224C23.8896 19.5216 23.6796 19.3032 23.5872 19.0302L22.0668 14.4732L20.5464 19.0302C20.454 19.3032 20.244 19.5216 19.9752 19.6224L16.296 21ZM14.637 31.5C14.1078 31.5 13.6836 31.0716 13.6836 30.5466V29.379H12.516C11.9868 29.379 11.5626 28.9506 11.5626 28.4256C11.5626 27.9006 11.991 27.4722 12.516 27.4722H13.6836V26.3046C13.6836 25.7754 14.112 25.3512 14.637 25.3512C15.162 25.3512 15.5904 25.7796 15.5904 26.3046V27.4722H16.758C17.2872 27.4722 17.7114 27.9006 17.7114 28.4256C17.7114 28.9506 17.283 29.379 16.758 29.379H15.5904V30.5466C15.5904 31.0758 15.162 31.5 14.637 31.5ZM13.5744 16.653C13.0452 16.653 12.621 16.2246 12.621 15.6996V14.532H11.4534C10.9242 14.532 10.5 14.1036 10.5 13.5786C10.5 13.0536 10.9284 12.6252 11.4534 12.6252H12.621V11.4576C12.621 10.9284 13.0494 10.5042 13.5744 10.5042C14.0994 10.5042 14.5278 10.9326 14.5278 11.4576V12.6252H15.6954C16.2246 12.6252 16.6488 13.0536 16.6488 13.5786C16.6488 14.1036 16.2204 14.532 15.6954 14.532H14.5278V15.6996C14.5278 16.2288 14.0994 16.653 13.5744 16.653Z" fill="white"/>
	</g>
	<defs>
		<linearGradient id="paint0_linear_765_858" x1="-3.43552" y1="16.6909" x2="45.4357" y2="25.3093" gradientUnits="userSpaceOnUse">
			<stop stop-color="#A61E69"/>
			<stop offset="1" stop-color="#6366F1"/>
		</linearGradient>
		<clipPath id="clip0_765_858">
			<rect width="42" height="42" rx="6" fill="white"/>
		</clipPath>
	</defs>
</svg>
