<svg xmlns="http://www.w3.org/2000/svg" viewBox="0 0 1600 1600" role="img" aria-hidden="true" focusable="false"><g fill="none" fill-rule="evenodd"><path fill="#1877f2" d="M1600 800a800 800 0 1 0-925 790v-559H472V800h203V624c0-201 119-311 302-311 88 0 179 15 179 15v197h-101c-99 0-130 62-130 125v150h222l-36 231H925v559a800 800 0 0 0 675-790"/><path fill="#fff" d="M1147 800H925V650c0-63 31-125 130-125h101V328s-91-15-179-15c-183 0-302 110-302 311v176H472v231h203v559a806 806 0 0 0 250 0v-559h186z"/></g></svg>