<svg width="42" height="42" viewBox="0 0 42 42" fill="none" xmlns="http://www.w3.org/2000/svg">
	<g clip-path="url(#clip0_765_877)">
		<path d="M42.42 -0.419922H-0.420044V42.4201H42.42V-0.419922Z" fill="#0E1E65"/>
		<path d="M24.3894 10.5H17.5014C15.5778 10.5882 14.049 12.1464 13.9944 14.07V27.888C13.9776 29.8662 15.5652 31.4832 17.5434 31.5C17.5518 31.5 17.556 31.5 17.5644 31.5H24.3894C26.3676 31.5168 27.9846 29.9292 28.0014 27.951C28.0014 27.93 28.0014 27.909 28.0014 27.888V14.07C27.9384 12.1086 26.3508 10.5378 24.3894 10.5ZM26.3844 27.384C26.3844 28.749 25.284 29.862 23.919 29.8704H18.0516C16.6866 29.8578 15.582 28.749 15.5862 27.384V14.553C15.5862 13.188 16.6866 12.075 18.0516 12.0666H23.919C25.284 12.0792 26.3886 13.188 26.3844 14.553V27.384Z" fill="white"/>
		<path d="M20.979 23.2344C22.2247 23.2344 23.2344 22.2247 23.2344 20.979C23.2344 19.7334 22.2247 18.7236 20.979 18.7236C19.7334 18.7236 18.7236 19.7334 18.7236 20.979C18.7236 22.2247 19.7334 23.2344 20.979 23.2344Z" fill="white"/>
		<path d="M20.979 17.6778C22.2247 17.6778 23.2344 16.668 23.2344 15.4224C23.2344 14.1768 22.2247 13.167 20.979 13.167C19.7334 13.167 18.7236 14.1768 18.7236 15.4224C18.7236 16.668 19.7334 17.6778 20.979 17.6778Z" fill="white"/>
		<path d="M20.979 28.8289C22.2247 28.8289 23.2344 27.8191 23.2344 26.5735C23.2344 25.3279 22.2247 24.3181 20.979 24.3181C19.7334 24.3181 18.7236 25.3279 18.7236 26.5735C18.7236 27.8191 19.7334 28.8289 20.979 28.8289Z" fill="white"/>
	</g>
	<defs>
		<clipPath id="clip0_765_877">
			<rect width="42" height="42" rx="6" fill="white"/>
		</clipPath>
	</defs>
</svg>
