<svg width="16" height="15" viewBox="0 0 16 15" fill="none" xmlns="http://www.w3.org/2000/svg">
<path fill-rule="evenodd" clip-rule="evenodd" d="M7.99993 14.7001C11.9764 14.7001 15.1999 11.4766 15.1999 7.50011C15.1999 3.52366 11.9764 0.30011 7.99993 0.30011C4.02348 0.30011 0.799927 3.52366 0.799927 7.50011C0.799927 11.4766 4.02348 14.7001 7.99993 14.7001ZM11.3363 6.33651C11.6878 5.98503 11.6878 5.41519 11.3363 5.06371C10.9849 4.71224 10.415 4.71224 10.0635 5.06371L7.09993 8.02732L5.93632 6.86371C5.58485 6.51224 5.015 6.51224 4.66353 6.86371C4.31206 7.21519 4.31206 7.78503 4.66353 8.13651L6.46353 9.93651C6.815 10.288 7.38485 10.288 7.73632 9.93651L11.3363 6.33651Z" fill="#22C55E"/>
</svg>
