<?xml version="1.0" encoding="UTF-8" standalone="no"?>
<svg
   xmlns:dc="http://purl.org/dc/elements/1.1/"
   xmlns:cc="http://creativecommons.org/ns#"
   xmlns:rdf="http://www.w3.org/1999/02/22-rdf-syntax-ns#"
   xmlns:svg="http://www.w3.org/2000/svg"
   xmlns="http://www.w3.org/2000/svg"
   xmlns:sodipodi="http://sodipodi.sourceforge.net/DTD/sodipodi-0.dtd"
   xmlns:inkscape="http://www.inkscape.org/namespaces/inkscape"
   version="1.1"
   width="153"
   height="108"
   id="svg8"
   viewBox="0 0 595.27557 841.88977"
   sodipodi:docname="Jetpack_Logo.cdr">
  <metadata
     id="metadata14">
    <rdf:RDF>
      <cc:Work
         rdf:about="">
        <dc:format>image/svg+xml</dc:format>
        <dc:type
           rdf:resource="http://purl.org/dc/dcmitype/StillImage" />
      </cc:Work>
    </rdf:RDF>
  </metadata>
  <defs
     id="defs12" />
  <sodipodi:namedview
     pagecolor="#ffffff"
     bordercolor="#666666"
     borderopacity="1"
     objecttolerance="10"
     gridtolerance="10"
     guidetolerance="10"
     inkscape:pageopacity="0"
     inkscape:pageshadow="2"
     inkscape:window-width="640"
     inkscape:window-height="480"
     id="namedview10" />
  <path
     d="m -81.1429,289.2353 c 26.6704,-1.36 53.7098,5.8403 76.0802,20.4506 27.8192,17.89 48.2397,46.8998 55.4701,79.1994 8.2,35.4807 0.5094,74.3199 -21.0305,103.7401 -19.5197,27.2404 -50.08,46.2895 -83.1898,51.6093 -26.43,4.3906 -54.2293,0.4005 -78.2198,-11.5898 -25.2096,-12.4302 -46.11,-33.3802 -58.4201,-58.6502 -13.5198,-27.3197 -16.6504,-59.5196 -8.9092,-88.9792 7.1699,-27.76 24.0593,-52.8602 46.9995,-70.0603 20.4194,-15.4902 45.5995,-24.6092 71.2196,-25.7199 z m -0.4198,25.3506 c -21.3301,41.5298 -42.7504,83.0199 -64.1302,124.5194 21.39,-0.0201 42.7899,0.0102 64.1798,-0.01 -0.0192,-41.5097 0.0907,-83.01 -0.0496,-124.5095 z m 13.0496,81.4997 c -0.0099,41.5094 0.0204,83.0293 -0.0099,124.5399 21.5501,-41.44 42.7606,-83.0506 64.2501,-124.5206 -21.4098,-0.0698 -42.8199,-0.0295 -64.2402,-0.0193 z"
     style="fill:#00be28;fill-rule:evenodd"
     id="path2" />
  <path
     d="m -81.5627,314.5859 c 0.1403,41.4995 0.0304,82.9998 0.0496,124.5095 -21.3899,0.0201 -42.7898,-0.0102 -64.1798,0.01 21.3798,-41.4995 42.8001,-82.9896 64.1302,-124.5194 z m 13.0496,81.4997 c 21.4203,-0.0102 42.8304,-0.0505 64.2402,0.0193 -21.4895,41.47 -42.7,83.0806 -64.2501,124.5206 0.0303,-41.5106 0,-83.0305 0.0099,-124.5399 z"
     style="fill:#ffffff;fill-rule:evenodd"
     id="path4" />
  <path
     d="m 120.6967,334.5554 c 15.1701,-0.0698 30.3406,-0.0102 45.5108,-0.0304 -0.0202,37.1603 0.009,74.3208 -0.0202,111.4801 -0.0898,10.5597 -1.4306,21.5008 -6.7011,30.8509 -6.7592,12.0991 -19.0187,19.6191 -31.0697,25.6793 -3.6895,-5.5102 -7.0197,-11.2405 -10.6798,-16.7601 7.7905,-4.8002 15.8301,-10.1996 20.3103,-18.4399 2.8995,-5.2903 3.8701,-11.3899 3.9194,-17.3605 -0.019,-32.2997 0,-64.6093 -0.009,-96.9191 -7.0609,-0.01 -14.1211,0 -21.1811,0 -0.0796,-6.1702 0.0303,-12.3404 -0.0796,-18.5003 z m 535.2063,0.0501 c 7.6068,-0.1601 15.2237,-0.0603 22.8305,-0.0603 -0.0907,25.501 0.1715,51.01 -0.1312,76.5099 10.7342,-12.8891 21.1053,-26.0802 31.8396,-38.9693 9.8163,0.0796 19.6225,-0.0303 29.4386,0.0595 -12.3384,14.2997 -24.5052,28.7405 -36.8436,43.0299 13.428,15.9804 26.9164,31.9102 40.3747,47.8806 -9.8971,-0.0102 -19.7838,0 -29.6807,-0.0102 -11.6524,-14.3399 -23.3249,-28.6707 -35.0076,-42.9905 0.0201,14.2906 -0.01,28.5698 0.0201,42.8604 -7.5764,0.2897 -15.173,0.0697 -22.7596,0.1202 -0.0808,-42.81 0.0805,-85.6199 -0.0808,-128.4302 z m -359.8866,11.81 c 7.6107,0.0502 15.2308,-0.1797 22.8407,0.1097 -0.1604,8.53 -0.0505,17.0601 -0.0607,25.5799 9.4802,0.0201 18.9698,-0.009 28.4599,0.0201 -0.0301,5.8705 -0.0301,11.74 -0.01,17.6097 -9.4893,0.0402 -18.9797,0 -28.4701,0.0201 0.0505,16.0903 -0.0697,32.1908 0.0604,48.28 -0.0805,4.0203 2.8704,7.8006 6.8604,8.5209 6.6696,1.3893 13.3594,-0.9303 19.8099,-2.4103 -0.0706,5.7696 -0.0504,11.5294 -0.011,17.3001 -8.6097,2.9296 -17.7792,4.2098 -26.8589,3.7599 -6.021,-0.3903 -12.3304,-2.2105 -16.5807,-6.7008 -4.4702,-4.6094 -6.0097,-11.27 -6.0199,-17.5099 -0.01,-17.0787 0.0102,-34.1598 -0.01,-51.2399 -4.1797,-0.009 -8.3597,0.011 -12.5303,-0.0201 0,-5.8102 -0.03,-11.619 0.0204,-17.4393 4.1706,0 8.3492,0 12.53,-0.01 -0.0303,-8.6298 0.0201,-17.2496 -0.0303,-25.8701 z m -93.4002,32.47 c 10.6807,-8.8304 25.6108,-10.9703 38.9106,-8.2099 9.3198,1.8198 17.9195,7.52 22.6398,15.84 6.37,10.7594 6.2005,23.79 4.8203,35.8197 -19.4598,0.0201 -38.9208,-0.0304 -58.3696,0.03 0.2897,6.4398 1.5599,13.4603 6.4497,18.1001 5.7101,5.4093 14.0394,6.2699 21.5492,6.3204 9.6509,0.229 19.0908,-2.3304 28.1109,-5.5406 -0.01,6.2802 0,12.5603 0,18.8393 -14.5406,4.5108 -30.0801,6.5002 -45.2109,4.3402 -9.9697,-1.499 -19.8898,-6.0591 -26.0498,-14.2592 -7.4191,-9.68 -9.3694,-22.32 -9.2492,-34.2104 0.1392,-13.8496 5.4689,-28.1594 16.399,-37.0696 z m 14.811,12.8702 c -4.1998,4.0796 -5.8303,9.9402 -6.6806,15.5494 11.8006,0.0808 23.6001,0.0102 35.3999,0.0403 -0.1798,-6.4698 -1.1997,-14.0403 -6.8593,-18.1199 -6.6504,-4.32 -16.3001,-3.0498 -21.86,2.5302 z m 170.0595,-11.5203 c 8.5691,-6.6606 19.1894,-10.8998 30.1499,-10.6696 10.4598,-0.1604 21.1002,4.4198 27.3693,12.9597 8.3007,11.1903 9.7606,25.9296 8.5612,39.4101 -1.2611,14.5094 -8.3211,29.2399 -21.2405,36.7395 -13.1304,7.9399 -29.3196,7.3698 -43.8401,4.3504 -0.0102,16.0299 -0.0102,32.0697 0,48.0994 -7.5603,0.0102 -15.1197,0 -22.6803,0.0102 0.0303,-46.4298 -0.0391,-92.8494 0.0405,-139.2693 7.2003,0.11 14.4094,0.0797 21.6097,0.009 0.0303,2.7805 0.0496,5.5701 0.0303,8.3605 z m 0.9896,17.9104 c -0.0493,15.7198 0.1202,31.4501 -0.0896,47.1691 5.9502,1.4598 12.1193,1.9806 18.2299,1.8706 6.9996,-0.1301 14.2795,-3.06 18.2798,-9.0102 5.0604,-7.3293 5.7997,-16.63 5.4901,-25.27 -0.3197,-6.5999 -1.2501,-13.68 -5.5196,-18.9797 -3.3605,-4.2503 -8.9898,-5.94 -14.2308,-5.6699 -8.3494,0.2795 -15.8998,4.6602 -22.1598,9.8901 z m 83.3802,-22.6006 c 11.4801,-3.9396 23.6296,-5.9995 35.7693,-5.9695 9.1706,0.1301 19.0806,1.8595 26.0104,8.3495 6.7805,6.37 8.9102,16.0701 9.11,25.0398 0.0403,20.0208 0.0102,40.0507 0.0102,60.0707 -7.0197,0.0402 -14.0403,0 -21.0501,0.0292 -0.2401,-3.4291 -0.1601,-6.8695 -0.1601,-10.2994 -8.3101,6.4698 -18.1103,11.8298 -28.9001,11.9095 -8.7698,0.5802 -17.7698,-3.7591 -22.3299,-11.3497 -4.6803,-7.8398 -4.9204,-17.9195 -1.6396,-26.3202 3.1992,-7.9195 10.9605,-12.8699 18.8901,-15.1702 10.5798,-3.0396 21.6692,-3.53 32.4893,-5.3399 -0.0394,-4.8192 0.1403,-10.1996 -2.9792,-14.2098 -2.9004,-3.7803 -8.0306,-4.5196 -12.4705,-4.6398 -10.5899,0.0596 -20.9602,2.6998 -30.9498,5.9897 -0.3804,-6.0492 -1.1602,-12.07 -1.8,-18.0899 z m 28.8797,48.0702 c -4.5902,0.6497 -9.0403,3.7298 -10.2198,8.3696 -1.8399,5.9805 0.6497,14.2602 7.5504,15.4 8.1295,0.9899 15.5597,-3.67 21.9892,-8.0696 -0.0899,-6.2501 -0.0292,-12.4898 -0.0394,-18.7297 -6.4205,1.0795 -12.8701,1.9392 -19.2804,3.0297 z m 75.6283,-43.9398 c 9.8567,-7.9005 22.9111,-10.5305 35.29,-10.0798 7.8791,0.1191 15.6172,1.8998 23.0825,4.3492 0.0204,6.4307 -0.01,12.86 0.0204,19.2804 -10.7547,-3.8296 -22.5581,-6.8096 -33.908,-4.1201 -8.0808,1.9097 -14.1744,8.9101 -15.8593,16.9004 -1.9066,8.8093 -1.715,18.3402 1.5134,26.8297 2.4415,6.5304 8.3129,11.5203 15.1228,12.99 11.5515,2.6201 23.4763,-0.4195 34.2811,-4.6003 -0.0201,6.29 -0.0102,12.5906 0,18.8909 -14.7597,5.2098 -31.0629,7.0792 -46.3068,2.9296 -8.9889,-2.3899 -17.312,-7.8701 -22.2352,-15.8703 -6.5293,-10.4003 -7.8086,-23.1795 -6.9993,-35.1902 0.9198,-12.2595 6.152,-24.6191 15.9984,-32.3095 z"
     style="fill:#000000;fill-rule:evenodd"
     id="path6" />
</svg>
