<?xml version="1.0" encoding="UTF-8"?> <svg xmlns="http://www.w3.org/2000/svg" fill="none" height="30" viewBox="0 0 30 30" width="30"><g fill="#fff"><path d="m26.0539 8.87178h-4.4729c.1264-.70757.556-1.09926 1.4278-1.54149l.8213-.41697c1.4783-.75811 2.2617-1.60467 2.2617-3.00717 0-.88446-.3412-1.56677-1.0108-2.07217-.6571-.50541-1.4783-.74548-2.4007-.74548-.7455 0-1.4151.18953-2.0469.58122-.6065.37906-1.074.85919-1.352 1.47832l1.2888 1.30142c.5054-1.01081 1.2256-1.51622 2.1859-1.51622.8087 0 1.3141.41696 1.3141.99818 0 .49277-.2401.8971-1.1751 1.3646l-.5307.2527c-1.1498.58122-1.9458 1.23825-2.4007 1.99636-.4548.74548-.6949 1.70575-.6949 2.85552v.3159h6.7725v-1.84472zm-.6065 3.99272h-7.4169l-3.7021 6.4187h7.4169l3.7021 6.4187 3.7021-6.4187z"></path><path d="m14.9727 23.554c-4.7129 0-8.55402-3.8411-8.55402-8.5541 0-4.7129 3.84112-8.554 8.55402-8.554l2.9314-6.128069c-.9603-.189528-1.9459-.2906093-2.9314-.2906093-8.26341 0-14.9727 6.7092883-14.9727 14.9726783 0 8.2761 6.70929 14.9727 14.9727 14.9727 3.2978 0 6.3429-1.0613 8.8194-2.8682l-3.2473-5.6226c-1.4909 1.2888-3.4368 2.0722-5.5721 2.0722z"></path></g></svg> 