<svg role="img" aria-hidden="true" focusable="false" xmlns="http://www.w3.org/2000/svg" viewBox="0 0 277.7 317.3">
  <circle cx="146.5" cy="186.1" r="131.2" fill="#f0ecf0"/>
  <path fill="#54311e" d="M95 41.1c4.8-22 19-41.6 42.7-38.8 21 2.4 34.5 17.4 47.4 33.6 16.5 20.8 14.7 46.5 22.6 71.8.5 1.9 1.4 4.1 1 6-.6 2.4-.6 3.8-2.6 5.3-15.6 11.7-21.5 26-32.4 42.2-2.7 4-5.3 8-9.3 10.5-2.5 1.5-.3.5-2.7 2.2-14.8 10.2-41.3 11-56.6 8.4 5.9-26 6.3-38.3 6.3-38.3l-15 39.3c-8 4.8-20.8 1.4-28.8-3.4C80 155.6 89 112.6 90.2 82.6c.5-14.4 1.8-27.4 4.8-41.5Z"/>
  <path fill="#54311e" d="M93.9 43.6c-4 34.7-3.2 73-15 105.8 3-4.8 5.4-9.2 8.5-14 3.9-6 4.3-15 6.2-22 2-7.2-.3-16-.5-23.5-.6-17 .9-34 2.2-51"/>
  <path fill="#ce6d42" d="M21 236.3c7.5-7.6 35.2-26.2 43.7-33.2 11.1-9.3 52.2 8.7 37.4 21.9-32.5 29-93.9 58.6-99.6 43-2.8-7.4 13.4-26.8 18.4-31.8Z"/>
  <path fill="#77375a" d="M138 152c-11.1-2.1-35.6 6.3-43.7 14.4C86 174.6 81.6 189 59 206.8c6.7 6.3 15.9 28.4 19.8 36.5 16.2-9.8 29-22.6 40.2-32.4 1.5-1.4-5-22.8-4.2-24.4.5-1.1-1.1-5.7-1-7.2 0-4 24.1-20.5 15-17.7Z"/>
  <path fill="#f0ecf0" d="M262.1 248.1c-10.1-3.4-25-8.2-31.7-10.6a216.5 216.5 0 0 1-2.9 34.8c-.9 5.1.5 10.2 2.7 14.7a131.6 131.6 0 0 0 32-38.9Z"/>
  <path fill="#a52a6a" d="M227.5 272.3a216.5 216.5 0 0 0 2.9-34.8l-3.4-1.2a51.7 51.7 0 0 0 3.4-5c0-7.6-.1-15.3.2-24 .5-18 1.3-22.5-17-41.6-22.8-24-91-23.3-111.5 5.6-17.8 25.2-7.7 40.4-9.9 58C90.1 246 65 286 112.6 295.5c1.9 4.5 7.5 13 12.2 19.9A131.3 131.3 0 0 0 230.2 287a24.5 24.5 0 0 1-2.7-14.7Z"/>
  <path fill="#f4a269" d="M256.7 192.5c-7.3 9.2-20.2 29.5-26.3 38.8v6.2l31.7 10.6a130.3 130.3 0 0 0 13.7-39.5c-7.9-6.3-16-12.9-19.1-16.1Z"/>
  <path fill="#f4a269" d="M230.4 231.3a51.7 51.7 0 0 1-3.4 5l3.4 1.2v-6.2Z"/>
  <path fill="#a52a6a" d="M248.8 243.2c-36.8-3.1-61.4-25.4-95.7-33.9 9-20.8 16.4-62 45-58.4 52.2 6.6 47 33.3 74.9 54.8-2.9 9-17.5 31.4-24.2 37.5Z"/>
  <path fill="#f4a269" d="M204.4 160c-8.8 25.2-10 40.6-21.1 56.5-12 0-76.7.7-79.8-6.4-.3-.7 6-18.4 13.4-30.3 9.2-14.9 25.4-21 27-25.4 1.7-4.7-6.5-26-5.3-28.7.7-1.4-3.7.9 44.8-38.9 2.8 7.6 6 42.2 6 55.5 0 17.7 3.1 13.4 15 17.7Z"/>
  <path fill="#ce6d42" d="M185.5 105.9c-12 11-29.5 23-46.1 25.5 1.5 6.3 4.6 16 4.7 20.8 21-1.9 41.3-46.2 41.4-46.3Z"/>
  <path fill="#54311e" d="M163.5 2.5c27 4.9 45.3 49 44.8 72.9-1 52.3 34.6 49 34.3 94.3-35.3-32.2-45.6-3-59.3 25-7.8-2.9-18.4-5-22-6.4-.6-25.4 7.1-31.8 8.7-43.9-7.2 12.5-11 15.4-15.7 29 .3-31.8 16-39 26.7-66.6v-1.3c.4-8.2 1-13.8 1.5-22.5s5.2-12.5 5.6-23.6c.6-17.6-19.9-40.5-24.6-57Z"/>
  <path fill="#7c2050" d="M190.6 257.2c2.5 5.3.4 11.5-1.8 16.9a27.4 27.4 0 0 1-6.9 11.2c-3 2.5-6.8 3.7-10.6 4.4a65.3 65.3 0 0 1-27.1-.8c19-1.8 37.8-10.5 46.4-31.7Z"/>
  <path fill="#f4a269" d="M98 72.3c-3.3 4.1-3.4 9.9-3 18.7.6 11.2 13.6 31.2 16.4 39.3 4.2 12.1 15.3 12.1 28.4 6.3 10.9-4.9 36.1-18.3 41-29.7A74.3 74.3 0 0 0 187 81s9.4-25.8 6.2-47.1-55.7-21.8-55.7-21.8S87 23.6 98 72.3Z"/>
  <path fill="#d17154" d="M110.2 109.8c.8-2.6 7.5-.3 27-1.9-7.5 3.2-11.5 9.2-17 10-4.5.6-6 .7-8.3-.9-3.3-2.3-3.9-5-1.8-7.3Z"/>
  <path fill="#b24736" d="M140.8 106.7c-10 1.6-16.7-1.6-21.9-1.4-1.7 0-2.5 1.8-3.7 1.5s-2.8-1.9-4.1-2c-1 0-2.8.1-3.5 2.8-.8 1.5 1 3 2.2 2.9-.1-.6 2-1 3.3-.4.8.4 1.8 2.6 4.7-.2 3.7 1 13 1 23-3.2Z"/>
  <path fill="#54311e" d="M151.6 5c46.8-13.5 65.1 42.1 55.6 76.3-2.7 1.3-12.1-9.3-19-3.9-20.4-11.8-18.4-31-21-37.5-12-14.2-59-27.4-68.2-1.4-2-18.3 24.8-51 52.6-33.5Z"/>
  <path d="M102.8 50.2c-4 .8-6.7 5.5-6.5 10.5.9-1.3 3.6-7.1 6.4-7.4 2.5-.2 4.9 1.6 6.6 2 1 .2 1.3-1.2.6-3-2.6-2.4-4.4-2.6-7-2.1Z"/>
  <path fill="#ce6d42" d="M186.8 86.6c11-14 16-6.7 11.5.8-.3-10.5-5-4.4-9.8-1 5.8 3.4.9 8.1-.7 7s-4.8-.8-3.4 2c-1.8 0-1.2-1.6-1.3-2.8 0-1.8 1.6-.7 4-1.6 3.4-1.2 0-4-.3-4.4Z"/>
  <path fill="#f4a269" d="M183.5 82.6c2.4-5.6 8.2-12.7 16.8-9.8 4.3 1.5 7.2 6.2-.5 19.2-3.5 6-8 15.4-15.1 15-5.1-.4-5.6-7-4-15Z"/>
  <path fill="#ce6d42" d="M187 85.1c8.6-15.6 16.6-10 13.2-1.9-2-10.3-7.4-2.6-11.6 1.5 6.3 2.4 2.2 7.8.5 7s-4.9 0-3 2.4c-1.8.3-1.5-1.3-1.7-2.5-.4-1.7 1.4-1 3.6-2.2 3.1-1.7-.7-4-1-4.3Z"/>
  <path fill="#fff" d="M104.6 65.4c-3.4-.8-5 .6-6.5 3.7.3 3 1 6 3.7 6.8s10.4.3 13.5-1c-4.2-7-4.4-8-10.7-9.5Z"/>
  <path d="M97.6 71c.1 2.4 2.6 5.1 5 5s3.7-3 3.6-5.5a4 4 0 0 0-4-3.8h-.4a4.1 4.1 0 0 0-4.2 4Z"/>
  <path fill="#fff" d="M140.6 66.3c-3.5 1.2-5.2 5.1-6.4 8.6 1.3 4 17.6 3 21.7-3-6.6-3.4-9.8-7.6-15.3-5.6Z"/>
  <path d="M134.5 72.2c-1.6 4 1.9 5.2 4.6 5a5.1 5.1 0 0 0 4.6-5.4c-.2-2.7-2.2-5.4-4.9-5.2s-2.8 2-4.3 5.6Z"/>
  <path fill="#ce6d42" d="M144.5 60c7.3.5 10 9.9 11.2 12-9.9-8.3-17.7-5.1-21.5-.2-.2-5.5 4-12 10.3-11.7Z"/>
  <path d="M159.8 70.8c-8.9 0-6.5-8-16.7-6.4-6 1.1-9.7 7.6-9.3 11.3.5.2 1.8-10 12-8.2 4.5.7 6.7 6 10.7 5 .9-.2 3.5-1.3 3.3-1.7Z"/>
  <path fill="#ce6d42" d="M108.1 59.2c-9.4-4.4-10.4 9.2-10.1 10 1.4-4.5 10.5-4.5 16.4 4.1-.2-3.8-3.2-12.6-6.3-14Z"/>
  <path d="M115.1 74.8c-2-5.7-4.4-10.6-9.7-11.5a7.2 7.2 0 0 0-8.1 5.3c-.4 1.4-2.8.3-3.4.3.4.9 3 3.5 4 2.8 1.7-1 2.6-4.7 4.5-4.7a17.2 17.2 0 0 1 7.4 2c3.5 1.9 4.7 6 5.3 5.8Z"/>
  <path fill="#ce6d42" d="M115.3 72c-4 6-13.5 23.7-10.1 27.8 1.8 2.4 13.2 0 19.9-2.8-5.3-.7-14.1 1.5-15.9 0-3.3-5.6 7.5-21.1 9.4-26.7 1.6-4.5.5-9.4-6.2-13.9 8.7 7.4 5.7 11 2.9 15.7Z"/>
  <path fill="#54311e" d="M148.3 48.7c-21.5-2.5-33.3-17.5-15.9-33.4 2.4 13.5 0 25.4 16 33.4Z"/>
  <path fill="#54311e" d="M127.7 21c-19.9 4.7-16.4 27.6-6.7 41-5.7-12.7.3-30 5.7-39.5"/>
  <path fill="#f4a269" d="M39.8 236c-5.6 35.6-27.5 41.4-35.4 37-6.4-3.4-4.1-8.3-3.5-14.8.7-7.4-1.2-11.5 0-21 1.3-11.3 27.3-62 37.3-80.4 7.8-14 25.3-4.8 20.3 2.8-20.4 40.6-14 46.3-18.7 76.3Z"/>
  <path fill="#f4a269" d="M54.6 162.1c6.3.9 4.7 1.8 13.3-4.4 5.7-4.2 1.3-3.4 6.4-8.4 8.3-8.2 7.4-21.2 19.6-24.1 7.5-1.9 19 5 23.5-4.2-10.5-1.5-14.5-2.9-21.9-4.7a6.3 6.3 0 0 0-3.5.2c-5.1 2-7.6 2.8-10.2 4.3-3.5-.1-6.3-.5-9.5 3-9.5 10.6-25.2 19.7-32.2 30.2-6.7 10 4.5 7.4 14.5 8.1Z"/>
  <path fill="#f4a269" d="M67.7 138.5a35 35 0 0 1 10.3 6.9c2.9 4.1 6 8.8 5.8 10.3-.4 4.3-3.6 5.2-6 5.6-2.4.4-8.4 2.6-9.4 1.6-3.5-3.7-3.2-5-3.4-7.5-.3-5 3.3-4.4 4.5-2.7-2.8-3.2-2-2.5-2.6-6.9-.5-4.2-3.5-6.9.8-7.3Z"/>
  <path fill="#f4a269" d="M79 127.3c3.7 2 5.2 8 7.3 11.5 1.7 2.7 5.3 9.8 5.2 13.1-.2 4-12 5-14.4 4.2a87.6 87.6 0 0 1-7.2-13.9C67 135 76.4 132 80.5 127.1a5.5 5.5 0 0 0 1 .5"/>
  <path fill="#f4a269" d="M84.8 152.3c3.4-.6 13.6-1.2 12-6.5-1-3.5-4-8.3-6.2-11.4-2.5-3.5-3.6-10.3-7.7-8.3-13.8 6.8-4.7 27.8 1.9 26.2Z"/>
  <path fill="#ce6d42" d="M87.5 129.2c-.6-2.4-1.5-3.6.5-6 0 4-.5 6 1.6 9.6Zm4 22.9c-2-8.5-15.8-16.4-10.5-23.2-1.6 5.2 3 7.7 5.9 12 2.3 3.3 4.8 7.9 4.6 11.2Zm-7.8 4.3c.5-3-1.7-8.3-4.3-12.4a9 9 0 0 0-7-4.6c3.2 1.3 3.5 2.2 5.2 4.8 2 3 5.4 7.9 6 12.2Zm-7.5 3.6c-2-.6-5.1-1-6.6-2.7-2-2.1-2.5-9-2.5-11.8.3 2 1.2 6.5 2.6 8.2s5.1 4.3 6.5 6.2Z"/>
  <path fill="#ce6d42" d="M69.1 155.7c-1 1.2-1 5.2.6 6.1-.3-1.4-.5-3.9 1-4.7m-3.3-8.1c.8 6-6.4 12.5-17.9 10.4 3.4 2 7.8 4.4 11.3 3.1a14.8 14.8 0 0 0 7.8-7.3c.6-1.4-1-3.7-1.2-6.2Zm49-24.3a3.1 3.1 0 0 0 1.7-2.3c-.1-.5-.4-.9-1.8-1.1-4.2-.7-10.5-1.4-14-3.3 5.7 1.8 15.8 2.7 16.6 3a1.2 1.2 0 0 1 .7 1.4c-2 6.3-13.2 3.8-21.4 2.4 4.8.4 12 2.2 18.2-.1Zm22.3-17.7c2-.7 3.2-2.5 2.5-5.8 1.6.7 4.5 5.8 4.8 7.8-2.4-2.7-4.6-1.7-6-2"/>
  <path d="M144.3 56.5c-3-.3-10 2.4-12.7 2.6-1.7 0-2 1.6-.6 3 5.4.8 10-3 13.5-3 3.7 0 9.4.6 14.1 3.3-2.1-3.9-10.3-5.7-14.3-6Z"/>
</svg>
