<svg fill="none" height="24" viewBox="0 0 182 36" width="124" xmlns="http://www.w3.org/2000/svg" xmlns:xlink="http://www.w3.org/1999/xlink"><clipPath id="a"><path d="m0 0h32.9412v35h-32.9412z"/></clipPath><path d="m152.456 3.4409h4.989v.16421l-11.147 12.85579 11.89 16.7884v.1643h-4.73l-9.762-13.9855-4.606 5.3203v8.6668h-3.861v-29.9743h3.859v15.4601h.164zm12.962 2.38592c0 .7455-.272 1.40069-.799 1.92943-.529.52875-1.166.80133-1.931.80133-.747 0-1.403-.27258-1.93-.80133-.258-.24965-.463-.5497-.601-.88158-.137-.33188-.206-.68852-.2-1.04785 0-.7652.273-1.40232.801-1.93107.527-.52874 1.166-.80133 1.93-.80133.747 0 1.402.27259 1.931.80133.545.54681.799 1.18229.799 1.93107zm-.781 7.08228v20.5225h-3.861v-20.5225zm12.328 20.8509c-1.674 0-3.06-.509-4.17-1.5484-1.11-1.0378-1.675-2.4763-1.693-4.3154v-11.4731h-3.606v-3.514h3.606v-6.28423h3.858v6.28423h5.027v3.514h-5.025v10.2169c0 1.3646.273 2.294.801 2.785.528.4926 1.129.729 1.802.729.31 0 .601-.0361.911-.11.309-.0722.565-.1642.82-.2726l1.22 3.4418c-1.038.3646-2.204.5468-3.551.5468zm-122.0758-1.931c-2.1314-1.5485-3.5879-3.7341-4.3892-6.5388l4.7341-1.931c.4745 1.7668 1.312 3.1856 2.532 4.3153 1.202 1.1117 2.6586 1.6749 4.3515 1.6749 1.5846 0 2.9131-.4006 4.0231-1.2184 1.1117-.821 1.6585-1.9491 1.6585-3.3695 0-1.3104-.4926-2.3859-1.4565-3.2414-.9656-.8556-2.6602-1.7111-5.0806-2.5682l-2.0033-.7094c-2.1495-.7455-3.9508-1.8194-5.409-3.2217-1.4565-1.4024-2.1839-3.2415-2.1839-5.53381 0-1.58624.4368-3.04275 1.2923-4.38924.8555-1.34814 2.0575-2.40399 3.606-3.20696 1.5287-.78163 3.2595-1.18229 5.2069-1.18229 2.8047 0 5.0445.67325 6.7013 2.03945 1.6749 1.3662 2.7866 2.8769 3.3498 4.58958l-4.514 1.90972c-.3284-1.01972-.9458-1.91137-1.8752-2.67657-.9278-.78327-2.1117-1.16587-3.5683-1.16587-1.4565 0-2.6946.36454-3.6962 1.11004-1.0017.74714-1.4943 1.69461-1.4943 2.86048 0 1.11007.4565 2.00337 1.3465 2.73077.8933.7094 2.2956 1.4023 4.2086 2.0575l2.0033.6732c2.7488.9475 4.8605 2.2037 6.3712 3.7341 1.5124 1.5288 2.2595 3.5863 2.2595 6.1545 0 2.0936-.5287 3.8424-1.6026 5.2431-1.0615 1.3957-2.4757 2.4834-4.097 3.1511-1.6204.678-3.3602 1.0247-5.1167 1.0197-2.6601 0-5.0444-.7652-7.1561-2.312zm21.833-25.45701c-.3126-.30489-.5594-.67048-.7255-1.07429-.166-.40381-.2477-.83732-.2401-1.27387 0-.92941.3284-1.71267.9656-2.34979.3049-.31253.6705-.55941 1.0743-.725449.4038-.166043.8373-.247747 1.2738-.240091.9294 0 1.7127.32841 2.3482.96554.6387.63712.9655 1.42038.9655 2.34815 0 .92941-.3284 1.71268-.9639 2.34816-.3047.31282-.6703.56-1.0741.72633s-.8374.24829-1.274.24085c-.9294-.01971-1.7127-.32842-2.3498-.96554zm-.11 4.26121h4.9163v22.7968h-4.9163zm15.6045 22.6703c-.8916-.3284-1.6191-.7652-2.1839-1.2939-1.2743-1.2743-1.9311-3.0214-1.9311-5.2251v-11.8179h-3.9869v-4.3351h3.9869v-6.4254h4.9163v6.4468h5.5371v4.3334h-5.5371v10.7243c0 1.2201.2381 2.0953.7111 2.5863.4548.601 1.22.8916 2.3317.8916.509 0 .9458-.0722 1.3465-.2003.3826-.1265.8013-.3449 1.2562-.6552v4.7899c-.9836.4549-2.1676.6733-3.5682.6733-.9813.0087-1.9561-.1581-2.8786-.4927zm13.4943-.7274c-1.76-1.0219-3.199-2.517-4.153-4.3154-1.001-1.8391-1.492-3.8966-1.492-6.1905 0-2.1873.492-4.189 1.456-6.0642.966-1.8588 2.314-3.3498 4.043-4.4434 1.729-1.0937 3.696-1.65852 5.9-1.65852 2.294 0 4.279.51072 5.972 1.51232 1.652.9875 2.985 2.4282 3.843 4.1512.873 1.7668 1.312 3.734 1.312 5.9557 0 .4188-.038.9459-.128 1.5649h-17.482c.182 2.1134.93 3.7522 2.258 4.8983 1.275 1.1268 2.924 1.7375 4.626 1.7127 1.402 0 2.622-.3104 3.642-.9655 1.04-.643 1.894-1.5471 2.476-2.6224l4.151 1.9672c-1.074 1.8752-2.476 3.3498-4.205 4.4237-1.731 1.0756-3.806 1.6027-6.21 1.6027-2.24.0361-4.242-.473-6.009-1.5288zm11.872-13.2203c-.067-.8438-.329-1.6605-.765-2.3859-.455-.7833-1.128-1.4565-2.039-1.9836-.91-.5288-2.02-.8014-3.334-.8014-1.583 0-2.911.473-4.005 1.4007-1.092.9294-1.839 2.2037-2.258 3.7702z" fill="#5f6368"/><g clip-path="url(#a)" clip-rule="evenodd" fill-rule="evenodd"><path d="m1.726 10.0322 5.66818 4.3345c-.33215 1.0112-.50077 2.0689-.49948 3.1332 0 1.0955.17543 2.1489.49948 3.1333l-5.66894 4.3344c-1.140431-2.3239-1.73073182-4.8791-1.7252015-7.4677 0-2.6858.6205195-5.22 1.7259615-7.4677z" fill="#fbbc05"/><path d="m7.39453 14.3669-5.66894-4.3344c1.38949-2.82438 3.54433-5.2017 6.21904-6.86114 2.67467-1.65943 5.76177-2.534254 8.90937-2.5248 4.29 0 8.1204 1.60876 11.1081 4.21341l-4.9029 4.90287c-1.6854-1.37893-3.8304-2.22162-6.2052-2.22162-4.4202 0-8.15101 2.85358-9.45947 6.82568z" fill="#ea4335"/><path d="m1.72363 24.9629 5.66589-4.3436c.65417 1.9927 1.92193 3.7275 3.62188 4.956 1.6999 1.2285 3.7448 1.8877 5.8422 1.8835 4.673 0 8.197-2.3748 9.0397-6.5116h-9.0397v-6.5117h15.7045c.2298.9959.383 2.0684.383 3.0643 0 10.7251-7.6607 16.8537-16.0875 16.8537-3.1484.0093-6.2361-.8661-8.91115-2.5264s-4.82986-4.0387-6.21882-6.8642z" fill="#34a853"/><path d="m27.839 30.1554-5.3817-4.1652c1.7597-1.1108 2.9839-2.8229 3.4359-5.043h-9.0397v-6.5117h15.7045c.2299.9959.3831 2.0684.3831 3.0643 0 5.4928-2.0094 9.7805-5.1021 12.6556z" fill="#4285f4"/></g></svg>