<?xml version="1.0" encoding="UTF-8"?>
<!-- Generated by Pixelmator Pro 3.1.1 -->
<svg width="280" height="50" viewBox="0 0 280 50" xmlns="http://www.w3.org/2000/svg" xmlns:xlink="http://www.w3.org/1999/xlink">
    <path id="Path" fill="#2a2a2a" stroke="none" d="M 107.36734 25 C 107.36734 37.90543 96.905426 48.367348 84 48.367348 C 71.094574 48.367348 60.632652 37.90543 60.632652 25 C 60.632652 12.09457 71.094574 1.632652 84 1.632652 C 96.905426 1.632652 107.36734 12.09457 107.36734 25 Z"/>
    <path id="path1" fill="#2a2a2a" fill-rule="evenodd" stroke="none" d="M 84 50 C 97.807144 50 109 38.807144 109 25 C 109 11.192875 97.807144 0 84 0 C 70.192879 0 59 11.192875 59 25 C 59 38.807144 70.192879 50 84 50 Z M 84 48.979591 C 97.243469 48.979591 107.979599 38.243469 107.979599 25 C 107.979599 11.756432 97.243469 1.020409 84 1.020409 C 70.756432 1.020409 60.020409 11.756432 60.020409 25 C 60.020409 38.243469 70.756432 48.979591 84 48.979591 Z"/>
    <path id="path2" fill="#ffffff" fill-rule="evenodd" stroke="none" d="M 72.282471 16.767059 C 72.576691 16.588104 72.956955 16.356773 73.387756 16.42857 C 73.623169 16.467796 73.873627 16.657875 74.162415 16.876999 C 74.62468 17.227814 75.185089 17.653061 75.938782 17.653061 C 76.808289 17.653061 77.26619 17.447247 77.531647 17.327919 C 77.640045 17.279202 77.716339 17.2449 77.775513 17.2449 C 77.979599 17.2449 78.285721 17.551022 77.877548 17.857143 C 77.810303 17.90757 77.726456 17.977406 77.626404 18.060673 C 77.119308 18.482878 76.196823 19.250917 74.918365 19.591837 C 74.67543 19.656633 74.45047 19.711123 74.242691 19.761471 C 73.141464 20.028288 72.522842 20.178164 72.265305 21.12245 C 71.959183 22.244898 72.163269 26.734694 75.938782 26.734694 C 77.502655 26.734694 78.733871 26.121838 80.176331 25.404083 C 82.216324 24.388775 84.678772 23.163265 89.102036 23.163265 C 96.653061 23.163265 98.18367 29.591837 98.18367 32.857143 C 98.18367 36.122448 94.510208 40.612244 88.18367 40.612244 C 83.733261 40.612244 82.217758 39.113266 81.431229 38.335102 C 81.323273 38.228367 81.228973 38.135101 81.142853 38.061226 C 81.653061 39.387756 84.204086 42.224487 89.102036 42.142857 C 89.034088 42.516937 87.346939 43.265305 81.142853 43.265305 C 73.387756 43.265305 67.367348 36.32653 67.367348 30.102041 C 67.367348 25.671429 68.504753 23.102039 69.160347 21.621019 C 69.425797 21.021429 69.612244 20.600206 69.612244 20.306122 C 69.612244 19.355593 68.549713 18.405062 67.579391 17.537003 C 67.508064 17.473183 67.437225 17.409817 67.367348 17.346939 C 66.346939 16.42857 66.14286 14.693878 66.244896 14.387756 C 66.346939 14.081635 66.755104 13.979591 66.85714 14.591835 C 66.959183 15.204082 67.979591 15.816326 68.693878 15.816326 C 68.98645 15.816326 69.142059 15.782082 69.293938 15.748672 C 69.512878 15.700508 69.72406 15.654041 70.32653 15.714287 C 70.836304 15.765266 71.452957 16.410797 71.809486 16.784061 C 71.866554 16.843777 71.916962 16.896549 71.959183 16.938774 C 72.049911 16.908531 72.158554 16.842449 72.282471 16.767059 Z M 81.755096 35.306122 C 82.149597 35.306122 82.469391 34.986328 82.469391 34.591835 C 82.469391 34.19735 82.149597 33.877548 81.755096 33.877548 C 81.360611 33.877548 81.040817 34.19735 81.040817 34.591835 C 81.040817 34.986328 81.360611 35.306122 81.755096 35.306122 Z"/>
    <path id="path3" fill="#cf3529" stroke="none" d="M 78.18367 12.448978 C 77.775513 12.766426 77.713882 13.572571 78.133331 13.984653 C 78.553329 14.460693 79.102036 14.452061 79.668976 14.035 C 83.489792 11.224491 93.591843 11.32653 97.979599 13.984653 C 98.476532 14.285713 99.070404 14.358795 99.450821 13.971615 C 99.450821 13.971615 99.450821 13.971615 99.482452 13.939346 C 99.894485 13.519897 99.918365 12.763142 99.404892 12.404797 C 94.204086 8.775509 82.775513 8.877552 78.18367 12.448978 Z"/>
    <path id="path4" fill="#cf3529" stroke="none" d="M 80.63266 16.122448 C 80.020401 16.42857 80.020401 17.142857 80.326538 17.653061 C 80.63266 18.163265 81.276932 18.173552 81.857147 17.857143 C 86.174896 15.928654 91.316742 15.710407 95.734695 17.959183 C 96.228363 18.210409 97.061218 18.265306 97.36734 17.653061 C 97.659592 17.068653 97.673462 16.530613 96.959183 16.122448 C 92.583466 13.622063 85.619598 13.331001 80.63266 16.122448 Z"/>
    <path id="path5" fill="#cf3529" stroke="none" d="M 82.877548 20.102041 C 82.265305 20.408163 82.163269 21.071428 82.469391 21.530613 C 82.945511 22.244898 83.591843 22.025309 84.14183 21.822653 C 87.877548 20.445713 89.918365 20.510204 93.489792 21.772243 C 94.213669 22.027958 94.714279 22.040817 95.122452 21.530613 C 95.428574 21.020409 95.366943 20.331713 94.612244 20 C 90.227753 18.072918 86.551025 18.061224 82.877548 20.102041 Z"/>
    <path id="Seriously-Simple" fill="#000000" fill-rule="evenodd" stroke="none" d="M 208.695313 24.455078 L 208.695313 13.416016 L 210.199219 13.416016 L 210.296875 14.167969 C 210.638199 13.858635 211.010681 13.629803 211.416016 13.480469 C 211.82135 13.331135 212.300797 13.255859 212.855469 13.255859 C 213.943466 13.255859 214.792389 13.552528 215.400391 14.144531 C 216.008392 14.736534 216.3125 15.714737 216.3125 17.080078 C 216.3125 18.44541 215.996521 19.467196 215.367188 20.144531 C 214.737854 20.821869 213.880966 21.160156 212.792969 21.160156 C 211.875626 21.160156 211.090118 20.946199 210.439453 20.519531 L 210.439453 24.455078 L 208.695313 24.455078 Z M 175.224609 23.816406 C 174.648605 23.816406 174.157288 23.741133 173.751953 23.591797 L 173.751953 22.296875 C 173.933289 22.360876 174.101196 22.402494 174.255859 22.423828 C 174.410538 22.445162 174.568512 22.455078 174.728516 22.455078 C 175.059189 22.455078 175.324677 22.403543 175.527344 22.296875 C 175.730011 22.190208 175.90979 22.022303 176.064453 21.792969 C 176.219131 21.563635 176.387039 21.266966 176.568359 20.904297 L 173.191406 13.416016 L 175 13.416016 L 177.431641 19.048828 L 179.896484 13.416016 L 181.6875 13.416016 L 178.599609 20.568359 C 178.332932 21.208363 178.048141 21.770523 177.744141 22.255859 C 177.44014 22.741194 177.087494 23.123056 176.6875 23.400391 C 176.287491 23.677725 175.800613 23.816406 175.224609 23.816406 Z M 151.576172 21.160156 C 150.210831 21.160156 149.210831 20.819389 148.576172 20.136719 C 147.941498 19.454048 147.623047 18.47637 147.623047 17.207031 C 147.623047 15.937691 147.943985 14.961967 148.583984 14.279297 C 149.223984 13.596626 150.221497 13.255859 151.576172 13.255859 C 152.941513 13.255859 153.943985 13.596626 154.583984 14.279297 C 155.223984 14.961967 155.544922 15.937691 155.544922 17.207031 C 155.544922 18.47637 155.226471 19.454048 154.591797 20.136719 C 153.957138 20.819389 152.952179 21.160156 151.576172 21.160156 Z M 159.015625 21.160156 C 158.108948 21.160156 157.413071 20.909538 156.927734 20.408203 C 156.442398 19.906866 156.199219 19.169888 156.199219 18.199219 L 156.199219 13.416016 L 157.943359 13.416016 L 157.943359 18.199219 C 157.943359 18.764553 158.082047 19.180597 158.359375 19.447266 C 158.636703 19.713934 159.064621 19.847656 159.640625 19.847656 C 160.067291 19.847656 160.461548 19.767424 160.824219 19.607422 C 161.18689 19.447422 161.5009 19.23542 161.767578 18.96875 L 161.767578 13.416016 L 163.496094 13.416016 L 163.496094 21 L 161.912109 21 L 161.832031 20.216797 C 161.490692 20.483465 161.084579 20.707336 160.615234 20.888672 C 160.145905 21.070005 159.612961 21.160156 159.015625 21.160156 Z M 167.095703 21.160156 C 166.573044 21.160156 166.07428 21.123495 165.599609 21.048828 C 165.124939 20.974161 164.73317 20.882059 164.423828 20.775391 L 164.423828 19.304688 C 164.786499 19.443354 165.185715 19.54838 165.623047 19.623047 C 166.060394 19.697714 166.476425 19.736328 166.871094 19.736328 C 167.46843 19.736328 167.896347 19.682838 168.152344 19.576172 C 168.408356 19.469505 168.535156 19.260508 168.535156 18.951172 C 168.535156 18.727173 168.459351 18.55183 168.304688 18.423828 C 168.150024 18.295826 167.919235 18.178936 167.615234 18.072266 C 167.311234 17.965599 166.924423 17.836834 166.455078 17.6875 C 166.00708 17.538166 165.617783 17.375217 165.287109 17.199219 C 164.956451 17.023216 164.700867 16.796867 164.519531 16.519531 C 164.338196 16.242195 164.248047 15.879642 164.248047 15.431641 C 164.248047 14.738304 164.498657 14.202885 165 13.824219 C 165.501343 13.445549 166.306671 13.255859 167.416016 13.255859 C 167.853348 13.255859 168.269394 13.28756 168.664063 13.351563 C 169.058731 13.415562 169.394547 13.495796 169.671875 13.591797 L 169.671875 15.048828 C 169.373215 14.931496 169.04483 14.83939 168.6875 14.775391 C 168.330154 14.711388 167.996826 14.679688 167.6875 14.679688 C 167.132828 14.679688 166.714294 14.728218 166.431641 14.824219 C 166.148972 14.920219 166.007813 15.112389 166.007813 15.400391 C 166.007813 15.699059 166.153931 15.908581 166.447266 16.03125 C 166.740601 16.153915 167.212616 16.321823 167.863281 16.535156 C 168.460617 16.716492 168.93512 16.908661 169.287109 17.111328 C 169.639114 17.313995 169.89415 17.557175 170.048828 17.839844 C 170.203491 18.122513 170.279297 18.487545 170.279297 18.935547 C 170.279297 19.682217 170.008835 20.23942 169.464844 20.607422 C 168.920837 20.975424 168.130386 21.160156 167.095703 21.160156 Z M 172.919922 21.160156 C 172.301254 21.160156 171.831726 21.007126 171.511719 20.703125 C 171.191727 20.399122 171.03125 19.895411 171.03125 19.191406 L 171.03125 10.216797 L 172.775391 10.216797 L 172.775391 19.03125 C 172.775391 19.329918 172.828873 19.533958 172.935547 19.640625 C 173.042206 19.747293 173.202682 19.800781 173.416016 19.800781 C 173.672012 19.800781 173.917679 19.767124 174.152344 19.703125 L 174.152344 20.96875 C 173.949677 21.043417 173.755035 21.092472 173.568359 21.119141 C 173.381699 21.145807 173.165253 21.160156 172.919922 21.160156 Z M 187.960938 21.160156 C 186.627594 21.160156 185.55481 20.989771 184.744141 20.648438 L 184.744141 19.111328 C 185.202805 19.281996 185.696609 19.420677 186.224609 19.527344 C 186.752609 19.63401 187.278107 19.6875 187.800781 19.6875 C 188.622116 19.6875 189.237778 19.592392 189.648438 19.400391 C 190.059113 19.208389 190.263672 18.824047 190.263672 18.248047 C 190.263672 17.896046 190.178482 17.613724 190.007813 17.400391 C 189.837143 17.187054 189.554825 17.002323 189.160156 16.847656 C 188.765488 16.692989 188.220688 16.530041 187.527344 16.359375 C 186.417999 16.071373 185.639404 15.706341 185.191406 15.263672 C 184.743408 14.821003 184.519531 14.210312 184.519531 13.431641 C 184.519531 12.524971 184.850388 11.816689 185.511719 11.304688 C 186.173065 10.792683 187.160645 10.535156 188.472656 10.535156 C 189.069992 10.535156 189.632156 10.578728 190.160156 10.664063 C 190.688156 10.749393 191.10173 10.844505 191.400391 10.951172 L 191.400391 12.488281 C 190.589722 12.178947 189.694229 12.023438 188.712891 12.023438 C 187.944885 12.023438 187.346588 12.125458 186.919922 12.328125 C 186.493256 12.530792 186.279297 12.898304 186.279297 13.431641 C 186.279297 13.740974 186.354568 13.991596 186.503906 14.183594 C 186.653244 14.375595 186.911301 14.541019 187.279297 14.679688 C 187.647293 14.818356 188.157928 14.973862 188.808594 15.144531 C 189.65126 15.357864 190.303574 15.610962 190.767578 15.904297 C 191.231583 16.197632 191.557465 16.538399 191.744141 16.927734 C 191.930801 17.31707 192.023438 17.757378 192.023438 18.248047 C 192.023438 19.154716 191.687622 19.86743 191.015625 20.384766 C 190.343613 20.902102 189.326263 21.160156 187.960938 21.160156 Z M 218.935547 21.160156 C 218.316879 21.160156 217.847351 21.007126 217.527344 20.703125 C 217.207336 20.399122 217.048828 19.895411 217.048828 19.191406 L 217.048828 10.216797 L 218.792969 10.216797 L 218.792969 19.03125 C 218.792969 19.329918 218.844513 19.533958 218.951172 19.640625 C 219.057846 19.747293 219.218292 19.800781 219.431641 19.800781 C 219.687637 19.800781 219.933304 19.767124 220.167969 19.703125 L 220.167969 20.96875 C 219.965302 21.043417 219.770645 21.092472 219.583984 21.119141 C 219.397324 21.145807 219.180878 21.160156 218.935547 21.160156 Z M 224.408203 21.160156 C 223.085526 21.160156 222.061279 20.834263 221.335938 20.183594 C 220.610596 19.532925 220.248047 18.535406 220.248047 17.191406 C 220.248047 15.975399 220.557114 15.016502 221.175781 14.3125 C 221.794449 13.608498 222.733505 13.255859 223.992188 13.255859 C 225.144196 13.255859 226.010468 13.557487 226.591797 14.160156 C 227.173141 14.762825 227.464844 15.538944 227.464844 16.488281 L 227.464844 17.896484 L 221.912109 17.896484 C 221.997437 18.632488 222.264877 19.138681 222.712891 19.416016 C 223.160889 19.69335 223.842438 19.832031 224.759766 19.832031 C 225.143768 19.832031 225.538025 19.79537 225.943359 19.720703 C 226.348694 19.646036 226.701324 19.548975 227 19.431641 L 227 20.712891 C 226.658661 20.862225 226.266876 20.974161 225.824219 21.048828 C 225.381546 21.123495 224.909531 21.160156 224.408203 21.160156 Z M 139.560547 21 L 139.560547 13.416016 L 141.160156 13.416016 L 141.255859 14.296875 C 141.61853 14.062206 142.051392 13.848251 142.552734 13.65625 C 143.054062 13.464252 143.548401 13.330524 144.039063 13.255859 L 144.039063 14.226563 L 144.136719 13.416016 L 146.871094 13.416016 L 146.871094 21 L 145.128906 21 L 145.128906 14.744141 L 143.976563 14.744141 L 143.994141 14.59375 C 143.707718 14.646713 143.402161 14.719975 143.072266 14.816406 C 142.725586 14.91774 142.397232 15.029675 142.087891 15.152344 C 141.778564 15.275009 141.518021 15.399342 141.304688 15.527344 L 141.304688 21 L 139.560547 21 Z M 193.144531 21 L 193.144531 14.744141 L 191.992188 14.744141 L 192.152344 13.416016 L 194.888672 13.416016 L 194.888672 21 L 193.144531 21 Z M 195.960938 21 L 195.960938 13.416016 L 197.560547 13.416016 L 197.640625 14.216797 C 198.013962 13.918129 198.423096 13.682384 198.871094 13.511719 C 199.319107 13.341049 199.800507 13.255859 200.3125 13.255859 C 200.856506 13.255859 201.279984 13.343529 201.583984 13.519531 C 201.887985 13.69553 202.119293 13.938709 202.279297 14.248047 C 202.631302 13.960045 203.03743 13.721825 203.496094 13.535156 C 203.954758 13.348488 204.504532 13.255859 205.144531 13.255859 C 206.019211 13.255859 206.664078 13.479733 207.080078 13.927734 C 207.496078 14.375736 207.703125 15.064182 207.703125 15.992188 L 207.703125 21 L 205.992188 21 L 205.992188 16.167969 C 205.992188 15.581299 205.868393 15.170216 205.623047 14.935547 C 205.377716 14.700878 204.9785 14.583984 204.423828 14.583984 C 204.061157 14.583984 203.717911 14.647388 203.392578 14.775391 C 203.067245 14.903389 202.787399 15.095558 202.552734 15.351563 C 202.584732 15.468895 202.604568 15.592701 202.615234 15.720703 C 202.6259 15.848701 202.632813 15.987385 202.632813 16.136719 L 202.632813 21 L 201.015625 21 L 201.015625 16.183594 C 201.015625 15.628925 200.920517 15.224754 200.728516 14.96875 C 200.536514 14.712749 200.173965 14.583984 199.640625 14.583984 C 199.267288 14.583984 198.91217 14.671658 198.576172 14.847656 C 198.240173 15.023659 197.938553 15.235134 197.671875 15.480469 L 197.671875 21 L 195.960938 21 Z M 212.34375 19.847656 C 213.815765 19.847656 214.552734 18.920458 214.552734 17.064453 C 214.552734 16.168449 214.387314 15.531013 214.056641 15.152344 C 213.725967 14.773674 213.171249 14.583984 212.392578 14.583984 C 211.613907 14.583984 210.962112 14.851429 210.439453 15.384766 L 210.439453 19.175781 C 210.684784 19.378448 210.959656 19.541395 211.263672 19.664063 C 211.567673 19.78673 211.92775 19.847656 212.34375 19.847656 Z M 151.576172 19.6875 C 152.376175 19.6875 152.943298 19.492851 153.279297 19.103516 C 153.615295 18.71418 153.783203 18.081703 153.783203 17.207031 C 153.783203 16.332359 153.615295 15.704315 153.279297 15.320313 C 152.943298 14.93631 152.376175 14.744141 151.576172 14.744141 C 150.786835 14.744141 150.22467 14.93631 149.888672 15.320313 C 149.552673 15.704315 149.384766 16.332359 149.384766 17.207031 C 149.384766 18.081703 149.552673 18.71418 149.888672 19.103516 C 150.22467 19.492851 150.786835 19.6875 151.576172 19.6875 Z M 221.912109 16.759766 L 225.927734 16.759766 L 225.927734 16.232422 C 225.927734 15.709755 225.784088 15.301147 225.496094 15.007813 C 225.208084 14.714478 224.721741 14.568359 224.039063 14.568359 C 223.228394 14.568359 222.671188 14.743702 222.367188 15.095703 C 222.063187 15.447704 221.912109 16.00243 221.912109 16.759766 Z M 144.984375 11.832031 L 144.984375 10.392578 L 146.888672 10.392578 L 146.888672 11.832031 L 144.984375 11.832031 Z M 193 11.832031 L 193 10.392578 L 194.904297 10.392578 L 194.904297 11.832031 L 193 11.832031 Z M 135.768005 21.16 C 134.445328 21.16 133.421341 20.834669 132.695999 20.184 C 131.970673 19.533331 131.608002 18.536007 131.608002 17.192001 C 131.608002 15.975994 131.917328 15.016003 132.536011 14.312 C 133.154678 13.607998 134.093338 13.256001 135.352005 13.256001 C 136.504013 13.256001 137.370667 13.557331 137.952011 14.16 C 138.53334 14.762669 138.824005 15.538662 138.824005 16.487999 L 138.824005 17.896 L 133.272003 17.896 C 133.35733 18.632004 133.624008 19.138666 134.072006 19.416 C 134.520004 19.693335 135.202667 19.832001 136.12001 19.832001 C 136.504013 19.832001 136.898666 19.794666 137.304001 19.719999 C 137.709335 19.645332 138.06134 19.549334 138.360001 19.431999 L 138.360001 20.712 C 138.018661 20.861334 137.626678 20.973333 137.184006 21.048 C 136.741333 21.122667 136.269333 21.16 135.768005 21.16 Z M 133.272003 16.759998 L 137.28801 16.759998 L 137.28801 16.231998 C 137.28801 15.709332 137.144012 15.301334 136.856003 15.007999 C 136.568008 14.714664 136.082672 14.568001 135.400009 14.568001 C 134.58934 14.568001 134.032013 14.743999 133.727997 15.096001 C 133.423996 15.448002 133.272003 16.002663 133.272003 16.759998 Z M 127.127998 21.16 C 125.794662 21.16 124.722672 20.989334 123.912003 20.648001 L 123.912003 19.112 C 124.370667 19.282667 124.863998 19.421333 125.391998 19.528 C 125.920006 19.634666 126.445328 19.688 126.968002 19.688 C 127.789337 19.688 128.405334 19.592001 128.81601 19.4 C 129.226669 19.207998 129.432007 18.824001 129.432007 18.248001 C 129.432007 17.896 129.346664 17.613335 129.17601 17.400002 C 129.005341 17.186665 128.722672 17.002666 128.328003 16.848 C 127.933334 16.693333 127.389336 16.530666 126.695999 16.360001 C 125.586662 16.071999 124.807999 15.706669 124.360001 15.264 C 123.911995 14.821331 123.688004 14.21067 123.688004 13.431999 C 123.688004 12.52533 124.018661 11.816002 124.68 11.304001 C 125.341339 10.791996 126.327995 10.535999 127.639999 10.535999 C 128.237335 10.535999 128.800003 10.578667 129.328003 10.664001 C 129.856003 10.749332 130.269333 10.845333 130.568008 10.952 L 130.568008 12.487999 C 129.757339 12.178665 128.861343 12.023998 127.879997 12.023998 C 127.112 12.023998 126.514671 12.125332 126.087997 12.327999 C 125.661331 12.530666 125.447998 12.898663 125.447998 13.431999 C 125.447998 13.741333 125.522667 13.992001 125.671997 14.183998 C 125.821335 14.375999 126.080002 14.541332 126.447998 14.68 C 126.816002 14.818668 127.325333 14.973331 127.975998 15.144001 C 128.81868 15.357334 129.472 15.610664 129.936005 15.903999 C 130.400009 16.197334 130.725342 16.538666 130.912003 16.928001 C 131.098679 17.317337 131.192001 17.757332 131.192001 18.248001 C 131.192001 19.154671 130.856003 19.866665 130.184006 20.384001 C 129.511993 20.901337 128.493347 21.16 127.127998 21.16 Z"/>
    <path id="Podcasting" fill="#000000" fill-rule="evenodd" stroke="none" d="M 206.400391 38.816406 C 205.835068 38.816406 205.268463 38.782227 204.703125 38.712891 C 204.137787 38.643555 203.65834 38.539059 203.263672 38.400391 L 203.263672 37.056641 C 203.690338 37.195309 204.181671 37.302284 204.736328 37.376953 C 205.291 37.451622 205.81897 37.488281 206.320313 37.488281 C 207.088303 37.488281 207.647995 37.44471 208 37.359375 C 208.352005 37.27404 208.527344 37.081871 208.527344 36.783203 C 208.527344 36.5592 208.442154 36.403168 208.271484 36.3125 C 208.100815 36.221832 207.776871 36.175781 207.296875 36.175781 L 205.248047 36.175781 C 203.87204 36.175781 203.183594 35.691376 203.183594 34.720703 C 203.183594 34.411369 203.273743 34.122135 203.455078 33.855469 C 203.636414 33.588799 203.925644 33.386715 204.320313 33.248047 C 203.882965 33.034714 203.559555 32.740524 203.351563 32.367188 C 203.143555 31.993853 203.039063 31.546106 203.039063 31.023438 C 203.039063 30.052767 203.330765 29.349443 203.912109 28.912109 C 204.493439 28.474773 205.36467 28.255859 206.527344 28.255859 C 206.772675 28.255859 207.030197 28.275166 207.296875 28.3125 C 207.563538 28.349833 207.770584 28.384016 207.919922 28.416016 L 210.703125 28.416016 L 210.65625 29.552734 L 209.376953 29.552734 C 209.57962 29.723402 209.72821 29.935406 209.824219 30.191406 C 209.920212 30.447409 209.96875 30.72477 209.96875 31.023438 C 209.96875 31.834108 209.723099 32.471542 209.232422 32.935547 C 208.74176 33.399548 207.999817 33.632813 207.007813 33.632813 C 206.837143 33.632813 206.679169 33.623421 206.535156 33.607422 C 206.391159 33.591423 206.235123 33.574066 206.064453 33.552734 C 205.744461 33.584732 205.455215 33.669926 205.199219 33.808594 C 204.943222 33.947258 204.816406 34.132519 204.816406 34.367188 C 204.816406 34.527187 204.879822 34.643555 205.007813 34.712891 C 205.135818 34.782227 205.349777 34.816406 205.648438 34.816406 L 207.775391 34.816406 C 208.53273 34.816406 209.116669 34.979355 209.527344 35.304688 C 209.938019 35.630024 210.144531 36.102036 210.144531 36.720703 C 210.144531 37.467373 209.821121 38.002789 209.175781 38.328125 C 208.530457 38.653458 207.605743 38.816406 206.400391 38.816406 Z M 182.960938 36.160156 C 182.438263 36.160156 181.939514 36.123497 181.464844 36.048828 C 180.990173 35.974159 180.596451 35.882057 180.287109 35.775391 L 180.287109 34.304688 C 180.64978 34.443356 181.050934 34.548378 181.488281 34.623047 C 181.925613 34.697716 182.34166 34.736328 182.736328 34.736328 C 183.333679 34.736328 183.759613 34.682838 184.015625 34.576172 C 184.271622 34.469505 184.400391 34.260506 184.400391 33.951172 C 184.400391 33.727173 184.322632 33.551826 184.167969 33.423828 C 184.013306 33.29583 183.78447 33.178932 183.480469 33.072266 C 183.176468 32.965599 182.789642 32.836834 182.320313 32.6875 C 181.872299 32.538166 181.483017 32.375221 181.152344 32.199219 C 180.821686 32.023216 180.566101 31.796865 180.384766 31.519531 C 180.20343 31.242195 180.111328 30.879644 180.111328 30.431641 C 180.111328 29.738304 180.361954 29.202888 180.863281 28.824219 C 181.364624 28.445551 182.169952 28.255859 183.279297 28.255859 C 183.716629 28.255859 184.132675 28.287563 184.527344 28.351563 C 184.922012 28.415564 185.257828 28.495798 185.535156 28.591797 L 185.535156 30.048828 C 185.236496 29.931494 184.910065 29.839392 184.552734 29.775391 C 184.195404 29.711391 183.862061 29.679688 183.552734 29.679688 C 182.998062 29.679688 182.579544 29.728218 182.296875 29.824219 C 182.014206 29.920219 181.871094 30.112391 181.871094 30.400391 C 181.871094 30.699059 182.019165 30.908583 182.3125 31.03125 C 182.605835 31.153917 183.07785 31.321823 183.728516 31.535156 C 184.325851 31.716492 184.800354 31.908661 185.152344 32.111328 C 185.504349 32.313995 185.757446 32.557175 185.912109 32.839844 C 186.066772 33.122513 186.144531 33.487541 186.144531 33.935547 C 186.144531 34.682217 185.872131 35.239418 185.328125 35.607422 C 184.784119 35.975426 183.995605 36.160156 182.960938 36.160156 Z M 189.552734 36.160156 C 188.742065 36.160156 188.136337 35.943722 187.736328 35.511719 C 187.336334 35.079716 187.136719 34.49081 187.136719 33.744141 L 187.136719 29.775391 L 186.015625 29.775391 L 186.015625 28.416016 L 187.136719 28.416016 L 187.136719 26.671875 L 188.863281 26.144531 L 188.863281 28.416016 L 190.880859 28.416016 L 190.767578 29.775391 L 188.863281 29.775391 L 188.863281 33.648438 C 188.863281 34.085773 188.965302 34.392357 189.167969 34.568359 C 189.370636 34.744362 189.701477 34.832031 190.160156 34.832031 C 190.448151 34.832031 190.752258 34.778542 191.072266 34.671875 L 191.072266 35.904297 C 190.65625 36.074966 190.15007 36.160156 189.552734 36.160156 Z M 192.224609 36 L 192.224609 29.744141 L 191.072266 29.744141 L 191.232422 28.416016 L 193.96875 28.416016 L 193.96875 36 L 192.224609 36 Z M 195.039063 36 L 195.039063 28.416016 L 196.640625 28.416016 L 196.720703 29.216797 C 197.062042 28.950129 197.468689 28.721825 197.943359 28.535156 C 198.41803 28.34849 198.943527 28.255859 199.519531 28.255859 C 200.50087 28.255859 201.216064 28.48469 201.664063 28.943359 C 202.112061 29.402029 202.335938 30.117222 202.335938 31.087891 L 202.335938 36 L 200.607422 36 L 200.607422 31.167969 C 200.607422 30.581301 200.488052 30.170214 200.248047 29.935547 C 200.008041 29.700878 199.557831 29.583984 198.896484 29.583984 C 198.501816 29.583984 198.115005 29.664219 197.736328 29.824219 C 197.357666 29.984221 197.039215 30.191265 196.783203 30.447266 L 196.783203 36 L 195.039063 36 Z M 206.527344 32.527344 C 207.220688 32.527344 207.704559 32.410446 207.976563 32.175781 C 208.248566 31.941113 208.384766 31.541899 208.384766 30.976563 C 208.384766 30.411226 208.248566 30.000143 207.976563 29.744141 C 207.704559 29.48814 207.220688 29.359375 206.527344 29.359375 C 205.876678 29.359375 205.402176 29.483181 205.103516 29.728516 C 204.80484 29.97385 204.65625 30.389893 204.65625 30.976563 C 204.65625 31.520565 204.797409 31.914822 205.080078 32.160156 C 205.362747 32.405491 205.844681 32.527344 206.527344 32.527344 Z M 192.080078 26.832031 L 192.080078 25.392578 L 193.984375 25.392578 L 193.984375 26.832031 L 192.080078 26.832031 Z M 175.007996 36.16 C 174.528 36.16 174.082672 36.074669 173.671997 35.903999 C 173.261337 35.733334 172.933334 35.47467 172.688004 35.127998 C 172.442673 34.781334 172.320007 34.352001 172.320007 33.84 C 172.320007 33.114662 172.567993 32.53067 173.063995 32.087997 C 173.559998 31.64533 174.325333 31.424 175.360001 31.424 L 177.792007 31.424 L 177.792007 31.087999 C 177.792007 30.725332 177.736008 30.437334 177.623993 30.224001 C 177.511993 30.010666 177.309341 29.856001 177.016006 29.76 C 176.722672 29.664 176.293335 29.615999 175.727997 29.615999 C 174.832001 29.615999 173.994675 29.749332 173.216003 30.016001 L 173.216003 28.719999 C 173.557343 28.581333 173.973328 28.469334 174.464005 28.384001 C 174.954666 28.298666 175.482666 28.256001 176.048004 28.256001 C 177.157333 28.256001 178.00267 28.479998 178.584 28.927999 C 179.165329 29.376001 179.455994 30.106661 179.455994 31.120001 L 179.455994 36 L 177.968002 36 L 177.856003 35.232002 C 177.546661 35.53067 177.165329 35.759998 176.712006 35.919998 C 176.258667 36.080002 175.690674 36.16 175.007996 36.16 Z M 175.472 34.911999 C 175.994675 34.911999 176.450668 34.824001 176.839996 34.647999 C 177.22934 34.472 177.546661 34.234669 177.792007 33.936001 L 177.792007 32.608002 L 175.391998 32.608002 C 174.880005 32.608002 174.509338 32.706665 174.279999 32.903999 C 174.050659 33.101334 173.936005 33.402664 173.936005 33.807999 C 173.936005 34.202667 174.069336 34.485332 174.335999 34.655998 C 174.602661 34.826668 174.981339 34.911999 175.472 34.911999 Z M 169.744003 36.16 C 168.41066 36.16 167.402664 35.821335 166.720001 35.144001 C 166.037323 34.466663 165.695999 33.488007 165.695999 32.208 C 165.695999 30.87466 166.071991 29.882669 166.824005 29.232 C 167.576004 28.581329 168.581329 28.256001 169.839996 28.256001 C 170.362671 28.256001 170.802658 28.293333 171.160004 28.368 C 171.517334 28.442667 171.861328 28.559999 172.192001 28.719999 L 172.192001 30.016001 C 171.637329 29.738665 170.965332 29.6 170.175995 29.6 C 169.301331 29.6 168.629333 29.794664 168.160004 30.184 C 167.690659 30.573336 167.455994 31.247995 167.455994 32.208 C 167.455994 33.11467 167.664001 33.778664 168.080002 34.200001 C 168.496002 34.621334 169.18399 34.832001 170.143997 34.832001 C 170.901337 34.832001 171.589325 34.688004 172.207993 34.400002 L 172.207993 35.728001 C 171.856003 35.866669 171.479996 35.973335 171.080002 36.048 C 170.679993 36.122665 170.234665 36.16 169.744003 36.16 Z M 160.960007 36.16 C 160.277328 36.16 159.674667 36.042667 159.151993 35.807999 C 158.629333 35.573334 158.223999 35.184002 157.936005 34.639999 C 157.647995 34.095997 157.503998 33.365337 157.503998 32.447998 C 157.503998 31.541328 157.658661 30.776003 157.968002 30.152 C 158.277328 29.527996 158.706665 29.056002 159.255997 28.736 C 159.805344 28.415998 160.426666 28.256001 161.119995 28.256001 C 161.578674 28.256001 161.986664 28.309332 162.343994 28.416 C 162.70134 28.522667 163.045334 28.688 163.376007 28.912001 L 163.376007 25.216 L 165.119995 25.216 L 165.119995 36 L 163.632004 36 L 163.520004 35.248001 C 163.178665 35.557335 162.805328 35.786667 162.399994 35.936001 C 161.994659 36.085335 161.514664 36.16 160.960007 36.16 Z M 161.423996 34.848 C 162.202667 34.848 162.853333 34.581337 163.376007 34.048 L 163.376007 30.256001 C 162.874664 29.807999 162.245331 29.584 161.488007 29.584 C 160.751999 29.584 160.197342 29.82933 159.824005 30.32 C 159.450668 30.810669 159.264008 31.52533 159.264008 32.464001 C 159.264008 33.37067 159.437332 33.994667 159.783997 34.335999 C 160.130661 34.677334 160.677322 34.848 161.423996 34.848 Z M 153.119995 36.16 C 151.754654 36.16 150.754669 35.818672 150.119995 35.136002 C 149.485336 34.453331 149.167999 33.477341 149.167999 32.208 C 149.167999 30.93866 149.487991 29.962669 150.128006 29.280001 C 150.768005 28.59733 151.76532 28.256001 153.119995 28.256001 C 154.485336 28.256001 155.487991 28.59733 156.128006 29.280001 C 156.768005 29.962669 157.087997 30.93866 157.087997 32.208 C 157.087997 33.477341 156.770676 34.453331 156.136002 35.136002 C 155.501328 35.818672 154.496002 36.16 153.119995 36.16 Z M 153.119995 34.688 C 153.919998 34.688 154.487991 34.493336 154.824005 34.104 C 155.160004 33.714664 155.328003 33.082672 155.328003 32.208 C 155.328003 31.333328 155.160004 30.704002 154.824005 30.32 C 154.487991 29.935999 153.919998 29.743999 153.119995 29.743999 C 152.330658 29.743999 151.768005 29.935999 151.432007 30.32 C 151.095993 30.704002 150.927994 31.333328 150.927994 32.208 C 150.927994 33.082672 151.095993 33.714664 151.432007 34.104 C 151.768005 34.493336 152.330658 34.688 153.119995 34.688 Z M 141.007996 36 L 141.007996 25.695999 L 145.600006 25.695999 C 146.389343 25.695999 147.039993 25.845331 147.552002 26.143999 C 148.063995 26.442669 148.442673 26.850664 148.688004 27.368 C 148.933334 27.885336 149.056 28.474663 149.056 29.136 C 149.056 30.160006 148.738663 30.981331 148.104004 31.6 C 147.46933 32.21867 146.613342 32.528 145.535995 32.528 L 142.751999 32.528 L 142.751999 36 Z M 142.751999 31.152 L 145.216003 31.152 C 145.909332 31.152 146.431992 30.970669 146.783997 30.608 C 147.136002 30.245331 147.311996 29.754669 147.311996 29.136 C 147.311996 28.474663 147.143997 27.962669 146.807999 27.6 C 146.472 27.237331 145.968002 27.056 145.296005 27.056 L 142.751999 27.056 Z"/>
</svg>
