<?xml version="1.0" encoding="UTF-8"?> <svg xmlns="http://www.w3.org/2000/svg" id="Layer_1" data-name="Layer 1" viewBox="0 0 500 475.53"><defs><style>.cls-1{fill:#fbbf24;}.cls-2{fill:#f3f4f6;}</style></defs><polygon class="cls-1" points="250 392.04 98.15 471.87 127.15 302.78 4.3 183.03 174.07 158.36 250 4.52 325.93 158.36 495.7 183.03 372.85 302.78 401.85 471.87 250 392.04"></polygon><path class="cls-1" d="M250,33.51l73.67,149.27.93,1.88,2.08.3L491.4,208.9,372.21,325.09l-1.51,1.47.36,2.07L399.2,492.69,251.86,415.23l-1.86-1-1.86,1L100.8,492.69l28.14-164.06.36-2.07-1.51-1.47L8.6,208.9,173.32,185l2.08-.3.93-1.88L250,33.51m0-9L172.75,181,0,206.11,125,328,95.49,500,250,418.77,404.51,500,375,328,500,206.11,327.25,181,250,24.47Z" transform="translate(0 -24.47)"></path><polygon class="cls-2" points="500 181.64 327.25 156.53 250 0 250 394.3 404.51 475.53 375 303.48 500 181.64"></polygon></svg> 