<svg role="img" aria-hidden="true" focusable="false" xmlns="http://www.w3.org/2000/svg" viewBox="0 0 448 360"><circle cx="226" cy="211" r="149" fill="#f0ecf0"/><path d="M173.53,189.38s-35.47-5.3-41.78-11c-9.39-24.93-29.61-48-35.47-66.21-.71-2.24,3.72-11.39,3.53-15.41s-5.34-11.64-5.23-14-.09-15.27-.09-15.27l-4.75-.72s-5.13,6.07-3.56,9.87c-1.73-4.19,4.3,7.93.5,9.35,0,0-6-5.94-11.76-8.27s-19.57-3.65-19.57-3.65L43.19,73l-4.42.6L31,69.7l-2.85,5.12,7.53,5.29L40.86,92,58.05,102.2l10.2,10.56,9.86,3.56s26.49,79.67,45,92c17,11.33,37.23,15.92,37.23,15.92Z" fill="#fbd2a6"/><path d="M270.52,345.13c2.76-14.59,15.94-35.73,30.24-54.58,16.22-21.39,14-79.66-33.19-91.46-17.3-4.32-52.25-1-59.85-3.41C186.54,189,170,187,168,190.17c-5,10.51-7.73,27.81-5.51,36.26,1.18,4.73,3.54,5.91,20.49,13.4-5.12,15-16.35,26.3-22.86,37s7.88,27.2,7.1,33.51c-.48,3.8-4.26,21.13-7.18,34.25a149.47,149.47,0,0,0,110.3,8.66A25.66,25.66,0,0,1,270.52,345.13Z" fill="#a4286a"/><path d="M206.76,66.43c-5,14.4-1.42,25.67-3.93,40.74-10,60.34-24.08,43.92-31.44,93.6,7.24-14.19,14.32-15.82,20.63-23.11-.83,3.09-10.25,13.75-8.05,34.81,9.85-8.51,6.35-8.75,11.86-8.54.36,3.25,3.53,3.22-3.59,10.53,2.52.69,17.42-14.32,20.16-12.66s0,5.72-6,7.76c2.15,2.2,30.47-3.87,43.81-14.71,4.93-4,10-13.16,13.38-18.2,7.17-10.62,12.38-24.77,17.71-36.6,8.94-19.87,15.09-39.34,16.11-61.31C297.94,68.3,294,60.3,293,49.88,290.43,22.08,225.37,12.62,206.76,66.43Z" fill="#9a5815"/><path d="M277.74,179.06c.62-.79,1.24-1.59,1.84-2.39C278.73,179.26,278.06,180.4,277.74,179.06Z" fill="#efb17c"/><path d="M216.1,206.72c3.69-5.42,8.28-3.35,15.57-8.28,3.76-3.06,1.57-9.46,1.77-11.82,18.25,4.56,37.38-1.18,49.07-16,.62,5.16-2.77,22.27-.2,27,4.73,8.67,13.4,18.92,13.4,18.92-35.47-2.76-63.45,39-89.86,44.54C211.37,232.34,203.49,225.24,216.1,206.72Z" fill="#fbd2a6"/><path d="M235.21,167.9l53.21-25.23s-3.65,24-6.5,32.72C217.87,238.05,235.45,168.06,235.21,167.9Z" fill="#f6b488"/><path d="M277.68,178.82v0Z" fill="#efb17c"/><path d="M226.86,50.64C215,59.31,206.37,93.21,204,95.57c-19.46,19.47-3.59,41.39-3.94,51.24-.2,5.52-4.14,25.42,5.72,29.36,22.22,8.89,60-3.48,67.19-12.61,13.28-16.75,40.89-94.78,17.74-108.19C282.79,50.79,247.93,35.19,226.86,50.64Z" fill="#fbd2a6"/><path d="M243.69,143.66c-10.7-6.16-8.56-6.73-19.76-12.71-3.86-2.07-3.94.64-6.32,0-2.91-.79-1.39-2.74-5.37-3.48-6.52-1.21-3.67,3.63-3.15,6,1.32,6.15-8.17,17.3,3.26,21.42C225,159.44,233.73,145.48,243.69,143.66Z" fill="#e5766c"/><path d="M240.68,143.9c-11.49-5.53-11.65-8.17-24.64-11.69-8.6-2.32-5.53,1-5.69,4.42-.2,4.16-1.26,9.87,4.9,12.66C224.25,153.38,233.41,143.27,240.68,143.9Z" fill="#fff"/><path d="M241.38,103c-.16,1.26-.06,4.9,5.46,8.25,11.43-4.73,16.36-2.56,17-3.33,1.48-1.76-2-8.87-7.88-9.85C250.38,97.13,241.82,99.31,241.38,103Z" fill="#fff"/><path d="M263.53,108.19c-4.32-4.33-6.85-6.24-12.26-8.21-2.77-1-6.18.18-8.65,1.67a3.65,3.65,0,0,0-1.24,1.23l-.12,0a3.73,3.73,0,0,1,1-1.52,12.53,12.53,0,0,1,11.93-3c4.73,1,9.43,4.63,9.42,9.82Z" fill="#000001"/><circle cx="254.13" cy="104.05" r="4.19" fill="#000001"/><path d="M225.26,99.22c-.29,1-6.6,3.45-10.92,1.48-1.15-3.24-5-6.43-5.25-6.71-.5-2.86,5.55-8,10.06-6.3A10.21,10.21,0,0,1,225.26,99.22Z" fill="#fff"/><path d="M209.29,94.21c-.19-2.34,1.84-4.1,3.65-5.2,7-3.87,13.18,3,12.43,10h-.12c-.14-4-2.38-8.44-6.47-9.11a3.19,3.19,0,0,0-2.42.31c-1.37.85-2.38,2-3.89,2.56-1,.45-1.92.42-3,1.4l-.22,0Z" fill="#000001"/><circle cx="219.55" cy="95.28" r="4" fill="#000001"/><path d="M218.66,120.27a27.32,27.32,0,0,0,4.54,3.45c-2.29-.72-4.28-.69-6.32-2.27-2.53-2-3.39-5.16-.73-7.72,10.24-9.82,12.56-13.82,14.77-24.42-1,12.37-6,17.77-10.63,23.18C217.76,115.46,215.61,117.55,218.66,120.27Z" fill="#efb17c"/><path d="M231.22,69.91c-.67-3.41-8.78-2.83-11.06-1.93-3.48,1.39-6.08,5.22-7.13,8.53,2.9-4.3,6.74-8.12,12.46-6,1.16.42,3.18,2.35,4.48,1.85S231,70.16,231.22,69.91Z" fill="#a57c52"/><path d="M263.38,78.47c-2.75-1.66-12.24-5.08-12.18.82,2.56.24,5-.19,7.64.95C270.06,85,271.61,97.85,271.69,98.1c.2-.53.1,1.26.23.7C271.9,99,272.87,86.68,263.38,78.47Z" fill="#a57c52"/><path d="M53.43,250.73c6.29,0-.6-.17,7.34,0,1.89.05-2.38-.7,0-.69,4.54-4.2,12.48-.74,20.6-2.45,4.55.35,3.93,1.35,5.59,4.19,4.89,8.38,4.78,14.21,14,19.56,16.42,8.38,66,12.92,88.49,18.86,5.52.83,42.64-20.15,61-23.75,6.51,10.74,11.46,28.68,8.39,34.93-6.54,13.3-57.07,25.4-75.91,25.15C156.47,326.18,94,294,92.2,293c-.94-.57.7-.7-7.68,0s-10.15.72-17.47-1.4c-3-.87-4.61-1.33-6.33-3.54-2,.22-3.39.2-4.78-1-3.15-2.74-4.84-6.61-2.73-10.06,0,0-.08,0-.12,0-3.35-2.48-6.54-7.69-3.08-11.72,1-1.18,6.06-1.94,7.77-2.28-1.58-.29-6.37.19-7.49-.72C47.23,259.78,45.33,250.73,53.43,250.73Z" fill="#fbd2a6"/><path d="M303.22,237.52c-9.87-11.88-41.59,8.19-47.8,12.34s-14.89,17.95-14.89,17.95c6,9.43,8.36,31,5.65,46.34l30.51-3s18-15.62,22.59-28.7,6.3-42.54,6.3-42.54" fill="#a4286a"/><path d="M278.63,31.67c-6.08,0-22.91,4.07-22.93,12.91,0,11,47.9,38.38,16.14,85.85,10.21-.79,10.79-8.12,14.92-14.93-3.66,77-49.38,93.58-40.51,142.25,7.68-25.81,20.3-11.62,38.13-33.84,3.45,4.88,9,18.28-9.46,33.78,50-31.26,57.31-56.6,51.92-95C319.93,113.53,348.7,42,278.63,31.67Z" fill="#cb9833"/><path d="M283.64,126.83c-2.42,9.67-8,15.76-1.48,16.46A21.26,21.26,0,0,0,302,132.6c5.17-8.52,3.93-16.44-2.46-18S286.06,117.16,283.64,126.83Z" fill="#fbd2a6"/><path d="M38,73.45c1.92,2,4.25,9.21,6.32,10.91,2.25,1.85,5.71,2.12,8.1,4.45,3.66-2,6-8.72,10-9.31C59.83,80.81,58,83,55.49,84.38c-1.42.8-3,1.31-4.38,2.25-2.16-1.46-4.27-1.77-6.26-3.38C42.33,81.23,39.54,75.25,38,73.45Z" fill="#efb17c"/><path d="M39,74.4c4.83,1.1,12.52,6.44,15.89,10C51.67,83.06,40.16,78.25,39,74.4Z" fill="#efb17c"/><path d="M39.62,72.9c6.71-.79,18,1.54,23.29,5.9-3.85-.2-5.42-1.48-9-2.94C49.83,74.17,45.08,73.83,39.62,72.9Z" fill="#efb17c"/><path d="M86.05,87.48C82.33,86.16,75.53,86.35,72.83,91c2-1.16,1.84-2.11,4.18-1.72-3.81-4.15,8.16-.74,11.6-.24" fill="#efb17c"/><path d="M85.83,102.19c.56-3.29-8-7.81-10.58-9.17C69,89.73,63.09,94.38,55.92,88.49c5.94,6.1,14.23,2.5,19.55,5.76,3.06,1.88,8.65,6.09,9.35,9.38C84.59,103.23,86.11,102.19,85.83,102.19Z" fill="#efb17c"/><circle cx="38.13" cy="30.03" r="3.14" fill="#b89ac8"/><circle cx="60.26" cy="39.96" r="3.14" fill="#e31e0c"/><circle cx="50.29" cy="25.63" r="3.14" fill="#3baa45"/><circle cx="22.19" cy="19.21" r="3.14" fill="#2ca9e1"/><circle cx="22.19" cy="30.03" r="3.14" fill="#e31e0c"/><circle cx="26.86" cy="8.28" r="3.14" fill="#3baa45"/><circle cx="49.32" cy="39.99" r="3.14" fill="#e31e0c"/><circle cx="63.86" cy="59.52" r="3.14" fill="#f8ad39"/><circle cx="50.88" cy="50.72" r="3.14" fill="#3baa45"/><circle cx="63.47" cy="76.17" r="3.14" fill="#e31e0c"/><circle cx="38.34" cy="14.83" r="3.14" fill="#2ca9e1"/><circle cx="44.44" cy="5.92" r="3.14" fill="#f8ad39"/><circle cx="57.42" cy="10.24" r="3.14" fill="#e31e0c"/><circle cx="66.81" cy="12.4" r="3.14" fill="#2ca9e1"/><circle cx="77.95" cy="5.14" r="3.14" fill="#b89ac8"/><circle cx="77.95" cy="30.34" r="3.14" fill="#e31e0c"/><circle cx="80.97" cy="16.55" r="3.14" fill="#f8ad39"/><circle cx="62.96" cy="27.27" r="3.14" fill="#3baa45"/><circle cx="75.36" cy="48.67" r="3.14" fill="#2ca9e1"/><circle cx="76.11" cy="65.31" r="3.14" fill="#3baa45"/><path d="M78.58,178.43C54.36,167.26,32,198.93,5,198.93c19.56,20.49,63.53,1.52,69,15.5C75.48,200.42,78.11,183.53,78.58,178.43Z" fill="#71b026"/><path d="M67.75,251.08c0-4.65,10.13-72.65,10.13-72.65h2.8l-9.09,72.3Z" fill="#074a67"/><ellipse cx="255.38" cy="103.18" rx="1.84" ry="1.77" fill="#fff"/><ellipse cx="221.24" cy="94.75" rx="1.84" ry="1.77" fill="#fff"/></svg>