<svg xmlns="http://www.w3.org/2000/svg" viewBox="0 0 566 122" width="140" height="100%"><g fill="none" fill-rule="evenodd"><g transform="translate(183.8 37)" fill-rule="nonzero"><circle fill="#FFA23A" cx="375.8" cy="58.2" r="5.6"></circle><path d="M31.805 62.112a2.4 2.4 0 01-2.282 1.656h-7.337a2.4 2.4 0 01-2.277-1.641L.323 3.365A2.4 2.4 0 012.6.206h8.895a2.4 2.4 0 012.298 1.708l12.37 41.04 13.974-41.12A2.4 2.4 0 0142.409.206h4.7a2.4 2.4 0 012.268 1.616l14.228 41.131 12.2-41.03A2.4 2.4 0 0178.107.205H87a2.4 2.4 0 012.278 3.156L69.77 62.124a2.4 2.4 0 01-2.278 1.644h-7.335a2.4 2.4 0 01-2.282-1.656L44.84 22.139 31.805 62.112zm74.538-45.22a2.4 2.4 0 012.4 2.4v42.076a2.4 2.4 0 01-2.4 2.4H98.95a2.4 2.4 0 01-2.4-2.4V19.292a2.4 2.4 0 012.4-2.4h7.393zM102.555 0c3.095 0 5.605 2.496 5.605 5.575s-2.51 5.574-5.605 5.574c-3.095 0-5.605-2.495-5.605-5.574 0-3.08 2.51-5.575 5.605-5.575zm29.076 61.368a2.4 2.4 0 01-2.4 2.4h-7.392a2.4 2.4 0 01-2.4-2.4V19.292a2.4 2.4 0 012.4-2.4h7.133a2.4 2.4 0 012.4 2.4v4.937c1.268-2.35 3.228-4.243 5.88-5.677 2.651-1.433 5.62-2.15 8.906-2.15 5.13 0 9.483 1.692 13.057 5.075s5.361 8.2 5.361 14.45v25.44a2.4 2.4 0 01-2.4 2.4h-7.392a2.4 2.4 0 01-2.4-2.4V39.196c0-3.67-.894-6.523-2.68-8.558-1.788-2.036-4.209-3.054-7.264-3.054-3.228 0-5.837.304-7.826 2.512-1.989 2.207-2.983 5.86-2.983 9.358v21.915zM198.736 64c-7.131 0-13.018-2.242-17.66-6.725-4.584-4.427-6.876-10.172-6.876-17.233s2.32-12.806 6.962-17.233C185.86 18.27 191.83 16 199.076 16c4.754 0 9.07 1.12 12.947 3.363 3.38 1.953 5.996 4.589 7.849 7.905.643 1.151.272 1.78-.517 2.208l-6.947 3.774c-1.003.545-1.63.246-2.293-.654-2.74-3.722-6.363-5.584-10.87-5.584-3.848 0-6.99 1.261-9.423 3.783-2.49 2.466-3.736 5.548-3.736 9.247 0 3.81 1.217 6.95 3.65 9.415 2.491 2.466 5.576 3.699 9.255 3.699 2.434 0 4.754-.645 6.962-1.934 1.73-1.01 3.094-2.243 4.094-3.7.47-.685 1.14-1.03 2.077-.484l7.195 4.187c.738.43.968 1.038.538 1.742-1.954 3.2-4.679 5.784-8.173 7.755C207.806 62.907 203.49 64 198.736 64zm44.522-2.632a2.4 2.4 0 01-2.4 2.4h-7.393a2.4 2.4 0 01-2.4-2.4V2.4a2.4 2.4 0 012.4-2.4h7.047a2.4 2.4 0 012.4 2.4v21.399c1.268-2.179 3.257-3.957 5.966-5.333 2.71-1.376 5.679-2.064 8.907-2.064 5.073 0 9.396 1.692 12.97 5.075 3.575 3.383 5.362 8.2 5.362 14.45v25.44a2.4 2.4 0 01-2.4 2.4h-7.393a2.4 2.4 0 01-2.4-2.4V39.196c0-3.67-.879-6.523-2.637-8.558-1.758-2.036-4.165-3.054-7.22-3.054-3.229 0-5.837 1.104-7.826 3.312-1.989 2.207-2.983 5.06-2.983 8.558v21.915zM311.177 64c-8.045 0-14.233-2.326-18.564-6.977-4.275-4.596-6.413-10.256-6.413-16.981 0-7.005 2.222-12.75 6.666-17.233C297.31 18.27 303.076 16 310.164 16c6.694 0 12.207 2.074 16.539 6.22 4.331 4.148 6.497 9.752 6.497 16.813 0 1.087-.085 2.375-.254 3.866-.104.92-.483 1.346-1.483 1.346h-33.197c1.688 6.501 6.16 9.752 13.417 9.752 4.807 0 9.295-1.247 13.464-3.74.787-.471 1.621-.471 2.059.299l3.324 5.854c.565.997.43 1.514-.38 2.05-5.582 3.693-11.907 5.54-18.973 5.54zM321.2 36c-.554-3.1-1.827-5.54-3.82-7.325-1.992-1.783-4.483-2.675-7.472-2.675-2.934 0-5.439.892-7.515 2.675-2.076 1.784-3.473 4.226-4.193 7.325h23zm34.954 25.368a2.4 2.4 0 01-2.4 2.4h-7.393a2.4 2.4 0 01-2.4-2.4V19.292a2.4 2.4 0 012.4-2.4h6.874a2.4 2.4 0 012.4 2.4v5.472c2.825-5.046 7.148-7.57 12.97-7.57 1.491 0 2.982.212 4.472.635.86.243 1.193.871 1.11 1.796l-.778 8.712c-.097 1.091-.567 1.348-1.636 1.091-1.487-.357-2.86-.536-4.119-.536-3.574 0-6.384 1.19-8.43 3.57-2.047 2.38-3.07 5.92-3.07 10.622v18.284z" fill="#37343B"></path></g><path d="M154.949.162a3.423 3.423 0 012.235 4.308l-37.107 115.146a3.446 3.446 0 01-3.285 2.384H94.376c-.356 0-.71-.055-1.049-.162a3.423 3.423 0 01-2.235-4.308L128.199 2.384A3.446 3.446 0 01131.484 0h24.485c.356 0-1.36.055-1.02.162zm-70.7 14.231c.355 0 .707.055 1.046.162a3.423 3.423 0 012.24 4.305L55.247 119.613A3.446 3.446 0 0151.962 122H29.545c-.355 0-.708-.055-1.047-.162a3.423 3.423 0 01-2.239-4.305L58.545 16.78a3.446 3.446 0 013.286-2.387h22.417z" fill="#FF8F3B"></path><path d="M107.849 65.53l14.936 45.68-2.708 8.406a3.446 3.446 0 01-3.285 2.384l-11.788-47.64 2.845-8.83zm-64.877-.151l14.976 45.805-2.7 8.429a3.425 3.425 0 01-.157.4l-15.13-45.236 3.011-9.398z" fill="#FF7F3B"></path><path d="M84.376 14.393c1.501 0 2.83.966 3.285 2.387l32.287 100.753a3.423 3.423 0 01-2.24 4.305 3.468 3.468 0 01-1.046.162H94.245a3.446 3.446 0 01-3.286-2.387L58.673 18.86a3.423 3.423 0 012.24-4.305 3.468 3.468 0 011.045-.162zM26.454 37.011c1.497 0 2.823.96 3.282 2.376l25.363 78.135a3.423 3.423 0 01-2.224 4.313c-.342.11-.699.165-1.058.165H29.408a3.446 3.446 0 01-3.282-2.376L.763 41.49a3.423 3.423 0 012.224-4.314 3.485 3.485 0 011.058-.165z" fill="#FFA23A"></path></g></svg>