<svg width="64" height="64" viewBox="0 0 64 64" fill="none" xmlns="http://www.w3.org/2000/svg">
	<g clip-path="url(#clip0_2032_522)">
		<path d="M64 64H10.24C4.5856 64 0 59.4144 0 53.76V10.24C0 4.5856 4.5856 0 10.24 0H53.76C59.4144 0 64 4.5856 64 10.24V64Z" fill="#0E1E65"/>
		<path d="M56.0159 0.252808L19.9551 64H63.9999V10.24C63.9999 5.36001 60.5855 1.28001 56.0159 0.252808Z" fill="#0075B3"/>
		<path d="M9.52341 43.1744V47.6416C12.2882 47.5264 14.4514 46.6176 16.2818 44.7616C18.1122 42.9056 19.789 39.8976 21.389 35.4304L33.2418 3.6864H27.5074L17.9586 30.208L13.2226 15.3344H7.97461L14.9378 33.2288C15.6098 34.9504 15.6098 36.8576 14.9378 38.5792C14.2338 40.3968 12.9666 42.5344 9.52341 43.1744Z" fill="white"/>
		<path d="M53.2738 5.11037C47.2834 1.72797 39.6834 3.83997 36.2978 9.83037C32.9122 15.8208 35.0274 23.4208 41.0178 26.8064C47.0082 30.192 54.6082 28.0768 57.9938 22.0864C61.3762 16.096 59.2642 8.49597 53.2738 5.11037Z" fill="#9FDA4F"/>
		<path d="M37.7314 32.608C37.7314 32.608 37.7186 32.6016 37.7122 32.5952C37.7058 32.5952 37.7026 32.5888 37.6962 32.5856C33.565 30.3008 28.7266 31.9104 26.605 35.6704C24.3938 39.5872 25.7762 44.5504 29.6898 46.7648C29.6898 46.7648 29.6962 46.768 29.6994 46.7712C29.6994 46.7712 29.7058 46.7744 29.709 46.7776C33.6226 48.976 38.5762 47.5936 40.7842 43.6832C42.989 39.7792 41.6226 34.832 37.7346 32.6112" fill="#FEC228"/>
		<path d="M28.4542 57.6096C28.4542 55.9072 27.5614 54.2528 25.9774 53.3536C25.219 52.9248 24.3934 52.72 23.5774 52.72C20.8862 52.72 18.6846 54.8992 18.6846 57.6032C18.6846 60.3072 20.8638 62.496 23.5678 62.496C26.2718 62.496 28.4606 60.3168 28.4606 57.6128" fill="#FF4E47"/>
		<path d="M53.2736 5.11035L41.0176 26.8063C47.008 30.1919 54.608 28.0767 57.9936 22.0863C61.376 16.096 59.264 8.49595 53.2736 5.11035Z" fill="#77B227"/>
		<path d="M37.6961 32.5856L29.6865 46.7648C33.6001 48.976 38.5697 47.5936 40.7809 43.68C42.9921 39.7632 41.6097 34.7968 37.6961 32.5856Z" fill="#F49A00"/>
		<path d="M25.9714 53.3503L21.165 61.8591C23.5138 63.1871 26.4962 62.3583 27.821 60.0063C29.149 57.6575 28.3202 54.6751 25.9682 53.3503" fill="#ED261F"/>
		<path d="M58.1023 46.8064C57.5295 46.8064 57.0303 47.1904 56.8831 47.744L56.7263 48.3264C53.0655 48.2592 49.4143 48.6848 45.8687 49.5872C45.8559 49.5872 45.8463 49.5936 45.8335 49.5968C45.5679 49.6864 45.4271 49.9712 45.5167 50.2368C46.0735 51.8976 46.7391 53.5232 47.5071 55.0976C47.5903 55.2704 47.7663 55.3792 47.9615 55.3792H55.5039C56.1439 55.3792 56.7167 55.7824 56.9311 56.3872H46.9311C46.6527 56.3872 46.4255 56.6144 46.4255 56.8928C46.4255 57.1712 46.6527 57.3984 46.9311 57.3984H57.5231C57.8015 57.3984 58.0287 57.1712 58.0287 56.8928C58.0287 55.744 57.2543 54.7424 56.1407 54.4512L57.8623 48C57.8911 47.8912 57.9903 47.8144 58.1055 47.8144H59.0367C59.3151 47.8144 59.5423 47.5872 59.5423 47.3088C59.5423 47.0304 59.3151 46.8032 59.0367 46.8032H58.1055L58.1023 46.8064ZM57.0175 59.92C56.4607 59.92 56.0095 59.4688 56.0095 58.912C56.0095 58.3552 56.4607 57.904 57.0175 57.904C57.5743 57.904 58.0255 58.3552 58.0255 58.912C58.0255 59.4688 57.5743 59.92 57.0175 59.92ZM48.4447 59.92C47.8879 59.92 47.4367 59.4688 47.4367 58.912C47.4367 58.3552 47.8879 57.904 48.4447 57.904C49.0015 57.904 49.4527 58.3552 49.4527 58.912C49.4527 59.4688 49.0015 59.92 48.4447 59.92Z" fill="#A1CCE3"/>
	</g>
	<path d="M10 0.5H54C59.2467 0.5 63.5 4.7533 63.5 10V63.5H10C4.7533 63.5 0.5 59.2467 0.5 54V10C0.5 4.7533 4.7533 0.5 10 0.5Z" stroke="white"/>
	<defs>
		<clipPath id="clip0_2032_522">
			<path d="M0 10C0 4.47715 4.47715 0 10 0H54C59.5228 0 64 4.47715 64 10V64H10C4.47715 64 0 59.5228 0 54V10Z" fill="white"/>
		</clipPath>
	</defs>
</svg>
