<svg width="175" role="img" aria-hidden="true" focusable="false" xmlns="http://www.w3.org/2000/svg" xmlns:xlink="http://www.w3.org/1999/xlink" viewBox="0 0 2061.74 426.45"><defs><linearGradient id="a" x1="1417.76" x2="1417.76" y1="315.03" y2="101.98" gradientUnits="userSpaceOnUse"><stop offset="0" stop-color="#570732"/><stop offset=".04" stop-color="#600b39"/><stop offset=".15" stop-color="#79154a"/><stop offset=".29" stop-color="#8c1d58"/><stop offset=".44" stop-color="#992362"/><stop offset=".63" stop-color="#a12768"/><stop offset="1" stop-color="#a4286a"/></linearGradient><linearGradient xlink:href="#a" id="b" x1="1996.44" x2="1996.44" y1="356.5" y2="52.62"/><linearGradient xlink:href="#a" id="c" x1="1633.06" x2="1633.06" y1="314.32" y2="101.34"/><linearGradient xlink:href="#a" id="d" x1="1831.95" x2="1831.95" y1="315.16" y2="100.24"/><linearGradient id="e" x1="1227.17" x2="1227.17" y1="-11.46" y2="325.55" gradientUnits="userSpaceOnUse"><stop offset="0" stop-color="#77b227"/><stop offset=".47" stop-color="#75b027"/><stop offset=".64" stop-color="#6eaa27"/><stop offset=".75" stop-color="#62a027"/><stop offset=".85" stop-color="#519227"/><stop offset=".93" stop-color="#3b7f28"/><stop offset="1" stop-color="#246b29"/></linearGradient></defs><path fill="none" stroke="#374151" stroke-miterlimit="10" stroke-width="6.29" d="M938.79 3.5v419.46"/><path fill="url(#a)" d="M1417.92 101.98c-74.32 0-104.05 49.88-104.05 105.43s29.29 107.62 104.05 107.62 103.87-52.24 103.73-104.23c-.17-63.32-32.21-108.82-103.73-108.82Zm-45.03 108.56c1.81-74.32 58.89-74.24 77.96-47.61 17.38 24.26 20.95 107.21-32.93 106.6-24.81-.27-44.3-17.05-45.03-58.99Z"/><path fill="url(#b)" d="M2020.74 263.49V155.82h38.49v-46.74h-38.49V52.63h-59.45v56.45h-30.16v46.74h30.16v101.56c0 57.73 40.25 92.03 82.72 99.13l17.74-47.8c-24.76-3.14-40.78-21.64-41.01-45.21Z"/><path fill="url(#c)" d="M1720.78 246.43v-80.94c0-2.95-.19-5.73-.47-8.44-5.15-65.38-98.01-65.25-169.93-40.15l20.79 41.84c46.83-22.24 74.87-16.51 84.66-5.55.25.28.51.56.73.86l.08.11c5 6.75 3.8 17.39 3.8 25.75-61.21 0-126.34 8.13-126.34 75.25 0 51.02 63.94 83.85 130.74 35.22l9.91 23.91h57.26c-5.12-28.08-11.23-52.14-11.23-67.89Zm-59.88-.44c-47.09 52.69-90.21 3.09-46.05-18.55 13-4.43 30.64-4.62 46.05-4.62v23.17Z"/><path fill="url(#d)" d="M1812.16 161.14c0-19.93 31.92-29.26 82.26-6.27l17.41-42.28c-67.76-20.48-160.28-22.32-160.88 48.55-.29 33.96 21.5 52.24 52.86 63.9 21.73 8.08 53.09 12.26 53 29.56-.12 22.61-48.74 26.07-93.01-4.34l-17.88 45.85c60.37 30.05 172.64 30.9 172.04-44.41-.59-74.45-105.8-61.69-105.8-90.56Z"/><path fill="url(#e)" d="m1288.75 0-86.18 239.37-41.27-129.26h-61.38l68.72 176.53a64.434 64.434 0 0 1 0 46.74c-7.68 19.7-20.46 36.55-51.62 40.74v52.33c60.66 0 93.46-37.29 122.72-119.02L1354.41 0h-65.67Z"/><path fill="#873eff" d="M672.07 251.82c-21.52 0-35.87-16.07-35.87-38.45s14.64-38.74 35.87-38.74 36.44 16.36 36.44 38.74-14.92 38.45-36.44 38.45Zm0 61.41c57.11 0 100.72-42.47 100.72-99.86s-43.62-100.15-100.72-100.15-100.44 42.47-100.44 100.15 43.62 99.86 100.44 99.86Zm-215.22-61.41c-21.52 0-36.16-16.07-36.16-38.45s14.64-38.74 36.16-38.74 36.16 16.36 36.16 38.74-14.35 38.45-36.16 38.45Zm0 61.41c56.82 0 100.44-42.47 100.72-99.86 0-57.68-43.91-100.15-100.72-100.15s-100.72 42.47-100.72 100.15 43.91 99.86 100.72 99.86Zm-358.13 0c22.38 0 40.75-10.9 54.24-36.73l30.42-56.82v48.21c0 28.41 18.37 45.34 46.78 45.34 22.38 0 38.74-9.76 54.52-36.73l70.02-117.94c15.21-26.11 4.3-45.34-29.27-45.34-18.08 0-29.84 5.74-40.46 25.54l-48.21 90.39V148.8c0-24.11-11.48-35.58-32.43-35.58-16.93 0-30.13 7.17-40.46 27.26l-45.34 88.67v-79.49c0-25.83-10.62-36.44-36.16-36.44H29.84C10.04 113.22 0 122.4 0 139.33s10.62 26.69 29.84 26.69h21.52v101.59c0 28.7 19.23 45.63 47.35 45.63Z"/></svg>