<svg viewBox="0 0 331 100" fill="none" xmlns="http://www.w3.org/2000/svg" width="140" height="100%"><rect width="100" height="100" rx="2" fill="#2000FF"></rect><path d="M81.9995 24.6154C83.3174 24.6154 84.2751 25.868 83.9295 27.1398L70.8032 75.4475C70.5665 76.3185 69.7758 76.9231 68.8732 76.9231H57.4891L50.7693 49.6795H61.3784L64.0335 62.108L74.5165 24.6154H81.9995Z" fill="white"></path><path opacity="0.8" d="M45.2764 24.6154L34.8392 62.0208L26.7866 24.6154H17.9375C16.6391 24.6154 15.6849 25.8333 15.9956 27.094L27.9026 75.4017C28.1228 76.2952 28.9243 76.9231 29.8445 76.9231H39.6469C40.5495 76.9231 41.3403 76.3184 41.5769 75.4474L54.699 27.1397C55.0444 25.8678 54.0868 24.6154 52.7689 24.6154H45.2764Z" fill="white"></path><path d="M141.36 35.28L136.8 54.04L132.16 35.28H125.24L132.92 64H139.36L144.08 45.64L148.88 64H155.32L162.96 35.28H156.2L151.6 54.04L147 35.28H141.36ZM183.786 53.48C183.786 46.92 179.426 42.48 173.226 42.48C166.986 42.48 162.666 46.92 162.666 53.48C162.666 60.04 166.986 64.44 173.226 64.44C179.426 64.44 183.786 60.04 183.786 53.48ZM169.026 53.48C169.026 49.8 170.666 47.72 173.226 47.72C175.786 47.72 177.426 49.8 177.426 53.48C177.426 57.16 175.786 59.24 173.226 59.24C170.666 59.24 169.026 57.16 169.026 53.48ZM200.804 42.88C200.404 42.84 200.004 42.8 199.404 42.8C196.964 42.8 194.924 44 193.964 45.68V42.92H187.564V64H193.964V53.64C193.964 50.6 196.164 48.88 198.924 48.88C199.644 48.88 200.124 48.92 200.804 49.04V42.88ZM211.723 64.44C214.243 64.44 216.243 63.4 217.443 61.92V64H223.843V35.28H217.443V45.04C216.243 43.52 214.243 42.48 211.723 42.48C205.923 42.48 202.643 47.44 202.643 53.48C202.643 59.48 205.923 64.44 211.723 64.44ZM217.483 52.92V54.04C217.483 57.2 215.763 59 213.363 59C210.563 59 209.083 56.72 209.083 53.48C209.083 50.24 210.563 47.96 213.363 47.96C215.763 47.96 217.483 49.72 217.483 52.92ZM235.67 54H241.11C247.87 54 252.07 50.76 252.07 44.64C252.07 38.48 247.87 35.28 241.11 35.28H228.99V64H235.67V54ZM235.67 48.4V40.92H240.75C243.91 40.92 245.51 42.28 245.51 44.64C245.51 47 243.91 48.4 240.75 48.4H235.67ZM268.424 42.88C268.024 42.84 267.624 42.8 267.024 42.8C264.584 42.8 262.544 44 261.584 45.68V42.92H255.184V64H261.584V53.64C261.584 50.6 263.784 48.88 266.544 48.88C267.264 48.88 267.744 48.92 268.424 49.04V42.88ZM291.226 53.48C291.226 46.92 286.866 42.48 280.666 42.48C274.426 42.48 270.106 46.92 270.106 53.48C270.106 60.04 274.426 64.44 280.666 64.44C286.866 64.44 291.226 60.04 291.226 53.48ZM276.466 53.48C276.466 49.8 278.106 47.72 280.666 47.72C283.226 47.72 284.866 49.8 284.866 53.48C284.866 57.16 283.226 59.24 280.666 59.24C278.106 59.24 276.466 57.16 276.466 53.48ZM315.042 53.48C315.042 46.92 310.682 42.48 304.482 42.48C298.242 42.48 293.922 46.92 293.922 53.48C293.922 60.04 298.242 64.44 304.482 64.44C310.682 64.44 315.042 60.04 315.042 53.48ZM300.282 53.48C300.282 49.8 301.922 47.72 304.482 47.72C307.042 47.72 308.682 49.8 308.682 53.48C308.682 57.16 307.042 59.24 304.482 59.24C301.922 59.24 300.282 57.16 300.282 53.48ZM329.94 35.04C329.06 34.96 328.46 34.92 327.58 34.92C322.06 34.92 319.62 37.44 319.62 41.92V42.92H316.9V48.2H319.62V64H326.02V48.2H329.9V42.92H326.02V42.28C326.02 40.44 326.86 40 328.5 40C329.1 40 329.46 40 329.94 40.04V35.04Z" fill="#2000FF"></path></svg>