<svg width="185" role="img" aria-hidden="true" focusable="false" xmlns="http://www.w3.org/2000/svg" viewBox="0 0 1488.21 189.15"><rect width="23.81" height="26.01" x="113.83" y="17.03" fill="#3a5160" rx="4" ry="4" transform="rotate(-10 125.733 30.062)"/><rect width="23.81" height="26.01" x="119.56" y="49.62" fill="#3a5160" rx="4" ry="4" transform="rotate(-10 131.463 62.64)"/><path fill="#010101" d="M1120.63 107.35c-2.45 8.59-4.88 17.07-7.33 25.62-3.61-.29-7.03-.55-10.43-.83-1.86-.15-3.71-.42-5.57-.45-1.3-.02-1.94-.36-2.25-1.74-3.51-15.67-7.15-31.32-10.65-47-2.81-12.58-5.48-25.18-8.27-37.77-.26-1.17-.89-2.26-1.69-3.33.53 34.76 1.77 69.45 3.62 104.35-8.55-.78-16.89-1.54-25.37-2.31-1.24-42.47-3.33-84.87 1.77-127.36 3.42.26 6.78.51 10.13.77 8.19.65 16.38 1.33 24.58 1.92 1.11.08 1.54.43 1.82 1.46 4.04 14.57 7.19 29.33 9.99 44.17 1.23 6.51 2.43 13.02 3.64 19.53.03.18.1.35.27.93 7.73-24.53 13.76-49.07 18.93-73.99 2.23.17 4.42.31 6.61.5 8.44.73 16.87 1.47 25.31 2.21 1.05.09 2.11.21 3.17.25.97.03 1.37.34 1.39 1.41.21 8.53.65 17.05.74 25.58.26 23.65.55 47.3.48 70.95-.03 11.06-.84 22.13-1.31 33.19-.03.73-.14 1.45-.22 2.28-8.85-.83-17.5-1.63-26.35-2.46 3.22-33.66 3.51-67.33 4.22-100.99-.27-.06-.54-.13-.81-.19-.52 1.33-1.18 2.62-1.53 3.99-1.39 5.46-2.64 10.95-4.02 16.42-3.6 14.26-7.23 28.51-10.87 42.88ZM265.8 87.29c-2.62 11.14-5.09 22.19-7.86 33.17-1.9 7.51-4.21 14.92-6.35 22.37-.08.28-.24.53-.4.89-3.54-.27-7.05-.53-10.56-.8-2.11-.16-4.22-.4-6.33-.49-1.11-.05-1.61-.3-1.85-1.54-2.74-14.44-5.65-28.85-8.35-43.29-2.31-12.35-4.52-24.72-6.57-37.11-1.61-9.76-2.95-19.56-4.35-29.35-.85-5.96-1.59-11.93-2.36-17.9-.06-.48 0-.98 0-1.63 8.26.69 16.46 1.38 24.63 2.06 3.21 29.25 6.41 58.4 9.61 87.54.24.02.47.03.71.05 3.2-12.67 5.75-25.49 8.2-38.32 2.46-12.87 4.49-25.83 6.73-38.86 6.2.55 12.56 1.12 19.02 1.7 2.28 25.19 5.32 50.17 8.09 75.17.25 0 .5.02.76.03 7.1-29.92 13.76-59.93 17.67-90.72 8.43.7 16.82 1.39 25.32 2.09-.87 4.78-1.66 9.33-2.54 13.86-4.56 23.44-9.8 46.74-16.01 69.81-3.96 14.69-8.3 29.28-12.41 43.93-.38 1.34-.9 1.62-2.31 1.47-5.21-.56-10.44-.94-15.66-1.32-.85-.06-1.19-.3-1.4-1.15-3.78-14.91-7.62-29.81-11.4-44.72-.93-3.65-1.66-7.36-2.49-11.04-.06-.28-.23-.54-.44-1.02-.39 1.82-.74 3.41-1.11 5.13ZM583.7 120.05c4.39 6.04 8.71 11.99 13.09 18.03-6.24 4.56-12.38 9.05-18.32 13.39-14.44-19.46-28.78-38.78-43.12-58.11-.16.08-.32.15-.48.23-.58 17.99-1.16 35.99-1.74 54.13-8.88-.97-17.46-1.9-25.78-2.81 0-3.14-.13-6.08.02-9 1.29-25.57 1.83-51.15 1.74-76.75-.05-13.67.09-27.34.09-41.01 0-1.21.45-1.72 1.52-2.18 10.29-4.43 21.01-7.33 32.16-8.52 7.54-.81 15.09-1.09 22.51 1.03 14.48 4.15 23.19 13.68 26.52 28.08 2.34 10.1 1.28 19.78-4.3 28.79-3.46 5.59-7.73 10.49-12.74 14.71-4.37 3.68-8.98 7.08-13.47 10.6l22.3 29.38m-15.29-80.78c-2.59-6.62-7.63-9.99-15.03-10.21-5.83-.18-11.4 1.07-16.93 2.68-1.11.32-1.49.79-1.49 1.95-.02 14.86-.1 29.71-.15 44.57 0 .47.05.94.09 1.68 2.3-1.2 4.41-2.23 6.46-3.37 9.2-5.15 17.52-11.34 23.96-19.78 4-5.25 5.34-10.95 3.1-17.51ZM378.34 8.76c9.83-1.09 19.28-.47 28.16 3.98 13.54 6.79 21.67 17.63 24.2 32.39 2.72 15.86-2.85 28.92-14.5 39.69-8.92 8.25-19.54 13.61-31 17.5-1.8.61-3.61 1.25-5.46 1.69-1.04.25-1.22.73-1.2 1.66.16 9.93.28 19.86.41 29.78.05 3.69.1 7.38.14 11.08 0 .34-.05.67-.08 1.15-8.68-.82-17.28-1.63-25.92-2.44-.1-2.25-.23-4.39-.29-6.52-.63-24.35-.69-48.69-.14-73.04.28-12.47.64-24.94.99-37.4.12-4.34.34-8.67.49-13.01.03-.78.23-1.22 1.08-1.51 7.48-2.51 15.12-4.24 23.12-5m11.61 68.82c1.39-.99 2.84-1.91 4.15-2.99 9.26-7.68 13.24-18.64 9.7-30.14-1.47-4.78-4.18-8.72-8.41-11.53-4.72-3.12-9.85-2.69-15.01-1.49-.33.08-.66.89-.68 1.38-.18 4.03-.31 8.07-.4 12.1-.29 12.36-.56 24.72-.83 37.08 0 .24.04.49.07.83 4.01-1.24 7.74-2.94 11.42-5.25ZM893.36 78.78c.89 5.83.84 11.57.28 17.28-.97 9.85-3.39 19.35-7.54 28.38-2.81 6.12-6.3 11.76-11.28 16.45-4.45 4.2-9.67 5.49-15.58 4.64-2.72-.39-5.42-.91-8.27-1.4.43 14.95.87 29.85 1.3 45.02-7.34-.73-14.77-1.46-22.39-2.21-1.11-46.35-2-92.64 1.68-139.13 6.73.77 13.3 1.53 20.11 2.31-.2 5.13-.4 10.22-.61 15.52 1.57-1.65 2.9-3.25 4.43-4.63 4.64-4.2 10.02-6.6 16.45-6.23 6.49.37 11.49 3.39 15.26 8.48 3.18 4.29 4.97 9.17 5.9 14.38.06.34.16.68.26 1.15m-33.25-3.25c-3.68 3.79-5.8 8.45-7.53 13.3-.66 1.85-1.25 3.82-1.3 5.75-.24 9.12-.29 18.24-.4 27.37 0 .34.02.72.18 1.01 2.28 4.2 6.74 4.88 10.26 1.62 3.54-3.28 5.38-7.54 6.89-11.93 3.1-9.04 4.05-18.33 2.74-27.8-.47-3.4-1.34-6.73-3.24-9.7-1.19-1.85-2.59-2.36-4.63-1.49-1 .43-1.87 1.14-2.96 1.87Z"/><path fill="#020202" d="M1307.39 122.54c-4.09-4.4-8.1-8.72-12.12-13.04-.13.05-.27.11-.4.16.26 12.07.51 24.13.77 36.33-7.46-.69-14.9-1.39-22.48-2.09-1.58-46.55-.61-92.99 1.71-139.57 7.62.58 15.04 1.15 22.22 1.7-.99 29.54-1.98 58.88-2.97 88.23.22.05.45.11.67.16 11.62-14.1 21.84-29.09 29.48-46.04 5.39 4.5 10.64 8.88 15.99 13.35-6.1 13.98-13.95 26.91-22.87 39.14 4.19 5.22 8.5 10.29 12.47 15.62 3.97 5.32 7.6 10.9 11.43 16.43-5.06 4.7-9.91 9.2-14.91 13.85-5.74-8.57-12.06-16.56-18.99-24.21ZM1242.27 129.14l-1.25 17.55c-2.51-.14-4.87-.27-7.22-.42-2.72-.18-5.43-.34-8.14-.61-.43-.04-1.04-.55-1.18-.96-.51-1.55-.85-3.16-1.27-4.82-2.52 1.06-4.86 2.17-7.29 3.04-5.96 2.15-12 2.34-18.07.46-8.06-2.5-13.54-9.59-14.3-17.91-1.04-11.52 4.12-19.78 13.51-25.88 5.95-3.87 12.56-5.98 19.6-6.82l4.69-.55c.08-4.79.21-9.47-.99-14.05-.26-1-.76-1.97-1.32-2.84-2.02-3.17-5.77-3.61-8.52-1.02-3.26 3.07-4.74 7.11-6.04 11.23-.34 1.09-.41 2.55-1.16 3.13-.65.5-2.1.02-3.19-.07-4.71-.41-9.42-.83-14.45-1.28.73-2.67 1.34-5.26 2.15-7.79 2.55-7.94 6.21-15.24 12.46-21.07 9.36-8.75 24.76-8.96 33.63-.29 4.33 4.24 6.71 9.6 7.92 15.38.89 4.22 1.58 8.55 1.71 12.86.43 14.22-.32 28.42-1.29 42.75m-30.89-1.07c2.98-.63 5.97-1.23 8.94-1.94.33-.08.69-.78.71-1.21.14-3.53.21-7.07.28-10.6.03-1.48 0-2.95 0-4.55-2.22.45-4.3.79-6.32 1.31-4.43 1.15-8.39 3.07-10.92 7.1-2.63 4.19-.79 8.59 4.04 9.62.97.21 1.99.18 3.27.26ZM1371.79 57.82c8.98-6.55 18.49-7.72 28.52-3.01 4.13 1.94 6.94 5.4 9.16 9.29 3.27 5.71 5.06 11.94 5.77 18.39.77 6.97 1 14 1.5 21.01.07.96-.17 1.34-1.2 1.59-11.84 2.91-23.83 5.07-35.89 6.86-.93.14-1.85.33-2.92.52.63 5.04 1.1 10 4.13 14.24 1.56 2.19 3.14 2.71 5.76 1.99 3.43-.94 5.86-3.28 8-5.88 1.96-2.39 3.66-4.99 5.6-7.67 4.79 2.81 9.66 5.66 14.63 8.56-5.15 8.94-10.94 17.18-21.11 20.95-14 5.18-27.62.46-34.85-13.06-3.12-5.83-4.61-12.13-4.89-18.64-.56-13.37 1.19-26.44 6.29-38.94 2.54-6.23 6.12-11.79 11.5-16.2m13.65 38.82c3.16-.74 6.31-1.47 9.73-2.27-.41-4.68-.62-9.31-1.28-13.87-.37-2.61-1.2-5.23-2.29-7.64-1.23-2.71-3.63-3.09-5.88-1.06a15.806 15.806 0 0 0-3.3 4.2c-3.7 6.95-4.77 14.55-5.43 22.39 2.83-.6 5.51-1.17 8.45-1.76ZM662.46 58.62c5.16 5.37 7.48 11.97 9.02 18.88 1.99 8.95 2.28 18.05 2.26 27.28-13.11 3.37-26.44 5.61-39.9 7.64.55 4.32.98 8.51 2.94 12.35 2.14 4.2 4.64 5.91 10.18 2.42 3.65-2.3 6.08-5.77 8.4-9.29.6-.91 1.2-1.82 1.85-2.82 4.93 2.89 9.77 5.72 14.72 8.63-5.15 9.05-11.04 17.34-21.36 21.04-13.9 4.98-27.46.44-34.72-13.4-3.78-7.21-4.95-14.99-4.88-23.01.1-11.04 1.74-21.83 5.6-32.22 2.44-6.59 5.86-12.58 11.2-17.34 5.32-4.74 11.59-6.87 18.7-6.72 6.15.13 11.54 2.1 15.98 6.58m-27.88 35.11c-.16 1.51-.33 3.01-.52 4.72 6.16-1.36 12.07-2.67 18.31-4.04-.54-5.21-.9-10.32-1.65-15.36-.35-2.3-1.28-4.59-2.32-6.71-.96-1.97-2.75-2.41-4.57-1.16-1.41.96-2.73 2.26-3.62 3.7-3.51 5.69-4.81 12.08-5.64 18.86Z"/><path fill="#010101" d="M926.11 142.76c-6.82-4.43-10.73-10.77-13.02-18.22-2.25-7.3-2.43-14.78-1.91-22.33.5-7.21 1.61-14.31 3.71-21.24 2.46-8.09 5.94-15.64 12.2-21.65 8.54-8.2 22.19-9.77 31.91-3.54 4.52 2.89 7.31 7.22 9.39 12.01 2.69 6.18 4 12.71 4.56 19.38.48 5.81.69 11.63 1.02 17.53-13.29 3.43-26.63 5.68-40.17 7.71.69 5.07 1.11 10.09 4.18 14.37 1.51 2.1 3.16 2.63 5.65 1.93 4.12-1.17 6.78-4.18 9.25-7.35 1.53-1.96 2.87-4.07 4.38-6.24 4.84 2.84 9.67 5.68 14.63 8.59-3.06 5.33-6.32 10.41-10.89 14.59-6.25 5.71-13.56 8.6-22.11 8.33-4.57-.14-8.82-1.35-12.78-3.86m11.79-63.33c-2.35 6.08-3.34 12.41-3.81 19.02l18.22-4.04c-.44-4.8-.64-9.44-1.35-14-.43-2.75-1.43-5.47-2.58-8.02-.94-2.08-2.67-2.37-4.69-1.2-.85.49-1.73 1.14-2.25 1.94-1.27 1.96-2.34 4.04-3.55 6.3Z"/><path fill="#020202" d="M714.55 110.73c.03 3.69.1 7.24 1.51 10.56.51 1.21 1.25 2.4 2.14 3.38 1.73 1.91 3.74 2.13 5.98.81 3.13-1.84 5.16-4.73 7.06-7.66 2.39-3.67 4.59-7.47 6.94-11.33 4.68 3.34 9.4 6.71 14.16 10.12-3.09 7.86-6.75 15.32-12.56 21.6-10.5 11.33-24.8 10.15-34.82 3.47-6.67-4.44-10.21-10.98-11.89-18.58-1.53-6.9-1.26-13.85-.65-20.83.72-8.31 2.2-16.45 4.89-24.37 2.26-6.66 5.24-12.93 10.19-18.13 7.32-7.69 18.53-9.76 27.48-4.89 5.24 2.85 8.71 7.36 11.2 12.59 3.44 7.25 5.07 14.87 4.04 22.9-.24 1.89-.75 3.75-1.13 5.62-6.29-.59-12.34-1.16-18.19-1.71 0-2.32.05-4.5-.01-6.68-.1-3.57-.73-7.03-2.51-10.19-2.07-3.66-5.08-3.78-7.55-.35-2.46 3.42-3.31 7.42-4.13 11.41-1.5 7.29-1.91 14.7-2.13 22.27ZM1478.68 74.89c-5.02-1.18-8.22 1.08-10.32 5.16-2.82 5.49-4.74 11.24-4.7 17.53.08 11.92.08 23.84.02 35.76-.02 4.38-.32 8.76-.5 13.35-7.53-.61-14.93-1.2-22.48-1.81.75-28.07 1.59-55.97-2.83-83.89 2.83.27 5.42.51 8.01.76 1.75.17 3.5.43 5.26.52.99.05 1.4.46 1.65 1.34.79 2.72 1.64 5.43 2.5 8.23 1.62-2.77 3.14-5.46 4.74-8.1 1.99-3.27 4.39-6.23 7.39-8.64 4.54-3.64 9.55-3.86 15.17-.59 1.81 1.05 3.4 2.47 5.04 3.79.32.26.64.88.54 1.23-1.53 5.58-3.13 11.14-4.74 16.82-1.61-.5-3.13-.96-4.77-1.46Z"/><path fill="#010101" d="M775.99 52.99c.82-.19 1.63-.32 2.43-.25 6.42.59 12.84 1.21 19.25 1.83.09 0 .17.09.31.17v91.03c-7.34-.7-14.59-1.38-22.01-2.09 0-30.22 0-60.38.01-90.69Z"/><path fill="#020202" d="M798.68 26.96c-.47 5.38-.93 10.63-1.41 16.04-7.27-.88-14.35-1.73-21.71-2.62.63-7.04 1.26-14.05 1.91-21.28 7.31.83 14.48 1.65 21.74 2.48-.19 1.88-.36 3.56-.53 5.38Z"/><path fill="#607983" d="m8.856 20.455 97.89-17.26c6.795-1.199 13.282 3.344 14.48 10.139l20.88 118.413c1.198 6.795-3.344 13.283-10.14 14.48l-97.89 17.261a7.097 7.097 0 0 1-8.213-5.75L3.105 28.667a7.097 7.097 0 0 1 5.75-8.213Z"/><path fill="#3a5160" d="M21.37 18.25 8.86 20.46c-3.84.68-6.43 4.37-5.75 8.21l22.76 129.08c.68 3.84 4.37 6.43 8.21 5.75l12.51-2.21L21.37 18.25Z"/><path fill="#d2e0e4" d="M89.24 39.48c-1.9.34-3.17 2.15-2.84 4.05l3.83 21.7c.45 2.57-1.29 5.02-3.85 5.47s-4.99-1.26-5.44-3.83l-3.83-21.7c-.34-1.9-2.15-3.17-4.05-2.84s-3.17 2.15-2.84 4.05l3.83 21.7c.45 2.57-1.29 5.02-3.85 5.47s-4.99-1.26-5.44-3.83l-3.83-21.7c-.34-1.9-2.15-3.17-4.05-2.84s-3.17 2.15-2.84 4.05l4.46 25.28c1.49 8.45 8.11 14.69 16.08 16.14l6.09 34.55c.66 3.75 4.24 6.26 8 5.6s6.26-4.24 5.6-8l-6.09-34.55c7-4.09 11.08-12.21 9.59-20.66l-4.46-25.28a3.507 3.507 0 0 0-4.05-2.84Z"/></svg>