<svg xmlns="http://www.w3.org/2000/svg" role="img" aria-hidden="true" viewBox="0 0 500 500" focusable="false"><path d="M80 0h340a80 80 0 0 1 80 80v420H80a80 80 0 0 1-80-80V80A80 80 0 0 1 80 0z" fill="#a4286a"/><path d="M437.61 2L155.89 500H500V80a80 80 0 0 0-62.39-78z" fill="#6c2548"/><path d="M74.4 337.3v34.9c21.6-.9 38.5-8 52.8-22.5s27.4-38 39.9-72.9l92.6-248h-44.8L140.3 236l-37-116.2h-41l54.4 139.8a57.54 57.54 0 0 1 0 41.8c-5.5 14.2-15.4 30.9-42.3 35.9z" fill="#fff"/><circle cx="368.33" cy="124.68" r="97.34" transform="rotate(-45 368.335 124.68)" fill="#9fda4f"/><path d="M416.2 39.93l-95.74 169.51A97.34 97.34 0 1 0 416.2 39.93z" fill="#77b227"/><path d="M294.78 254.75l-.15-.08-.13-.07a63.6 63.6 0 0 0-62.56 110.76h.13a63.6 63.6 0 0 0 62.71-110.67z" fill="#fec228"/><path d="M294.5 254.59l-62.56 110.76a63.6 63.6 0 1 0 62.56-110.76z" fill="#f49a00"/><path d="M222.31 450.07A38.16 38.16 0 0 0 203 416.83a38.18 38.18 0 1 0 19.41 33.27z" fill="#ff4e47"/><path d="M202.9 416.8l-37.54 66.48a38.17 38.17 0 0 0 37.54-66.48z" fill="#ed261f"/></svg>