<svg fill="none" viewBox="0 0 252 60" xmlns="http://www.w3.org/2000/svg" xmlns:xlink="http://www.w3.org/1999/xlink"><linearGradient id="a"><stop offset="0" stop-color="#570732"/><stop offset=".04" stop-color="#610b39"/><stop offset=".15" stop-color="#79164b"/><stop offset=".29" stop-color="#8c1e59"/><stop offset=".44" stop-color="#9a2463"/><stop offset=".63" stop-color="#a22768"/><stop offset="1" stop-color="#a4286a"/></linearGradient><linearGradient id="b" gradientUnits="userSpaceOnUse" x1="49.5558" x2="49.5558" xlink:href="#a" y1="36.2667" y2="23.1523"/><linearGradient id="c" gradientUnits="userSpaceOnUse" x1="82.8013" x2="82.8013" xlink:href="#a" y1="38.8191" y2="20.1133"/><linearGradient id="d" gradientUnits="userSpaceOnUse" x1="62.5036" x2="62.5036" xlink:href="#a" y1="36.2222" y2="23.1126"/><linearGradient id="e" gradientUnits="userSpaceOnUse" x1="73.9514" x2="73.9514" xlink:href="#a" y1="36.2756" y2="23.0464"/><linearGradient id="f" gradientUnits="userSpaceOnUse" x1="25.237" x2="25.237" y1="16.1693" y2="36.9142"><stop offset="0" stop-color="#77b227"/><stop offset=".47" stop-color="#75b027"/><stop offset=".64" stop-color="#6eab27"/><stop offset=".75" stop-color="#63a027"/><stop offset=".85" stop-color="#529228"/><stop offset=".93" stop-color="#3c8028"/><stop offset="1" stop-color="#246b29"/></linearGradient><clipPath id="g"><path d="m169.334 22h14.9732v15.909h-14.9732z"/></clipPath><path clip-rule="evenodd" d="m36.7646 29.6426c0-3.4198 1.8307-6.4903 6.4051-6.4903 4.4026 0 6.3754 2.8005 6.386 6.6987.0083 3.2007-1.7845 6.4157-6.386 6.4157-4.6016 0-6.4051-3.0717-6.4051-6.6241zm8.4322-2.7393c-1.1735-1.64-4.688-1.64-4.7993 2.9319.045 2.5815 1.2445 3.614 2.772 3.6306 3.3168.0379 3.093-5.0681 2.0273-6.5625z" fill="url(#b)" fill-rule="evenodd"/><path d="m80.2779 33.0938v-6.6312h2.3683v-2.8739h-2.3683v-3.4754h-3.659v3.4754h-1.8567v2.8763h1.8567v6.2582c0 3.5524 2.4773 5.6649 5.0918 6.1018l1.0918-2.9485c-1.524-.193-2.5104-1.3321-2.5246-2.7827z" fill="url(#c)"/><path clip-rule="evenodd" d="m61.8102 27.0617v4.9817c0 .7001.1963 1.6692.4257 2.8023.0884.4365.1817.8974.2706 1.3765h-3.524l-.611-1.4719c-4.1173 2.9935-8.0522.9734-8.0522-2.1681 0-4.1315 4.0095-4.6324 7.7763-4.6324 0-.0801.0017-.1634.0034-.2485.0095-.4657.0201-.9854-.2402-1.3359-.0004-.0023-.0004-.0047 0-.0071-.0108-.0143-.0223-.0273-.0339-.0405-.0037-.0042-.0074-.0085-.0111-.0128-.6016-.6749-2.3269-1.0278-5.2103.3411l-1.2824-2.5755c4.4275-1.5453 10.1434-1.5548 10.4607 2.4713.0182.1727.0277.3462.0284.5198zm-6.5205 3.8094c-2.7176 1.3322-.064 4.3849 2.8348 1.1415v-1.4257c-.9485 0-2.0344.0119-2.8348.2842z" fill="url(#d)" fill-rule="evenodd"/><path d="m67.4388 26.7942c0-1.2268 1.9657-1.8011 5.0646-.3861l1.0716-2.6051c-4.1705-1.2623-9.8662-1.3712-9.9041 2.9912-.0166 2.0911 1.3238 3.2161 3.2552 3.9337 1.3369.4973 3.2682.7543 3.2623 1.82-.0071 1.3914-3.0006 1.6045-5.7253-.2676l-1.1013 2.823c3.7159 1.8496 10.6277 1.9017 10.591-2.7342-.0308-4.5826-6.514-3.7976-6.514-5.5749z" fill="url(#e)"/><path d="m35.2178 16.875-5.305 14.7342-2.54-7.9562h-3.7786l4.2298 10.8657c.3612.9251.3612 1.9523 0 2.8774-.4737 1.2126-1.2599 2.2499-3.1771 2.508v3.2209c3.7336 0 5.7526-2.2949 7.5537-7.3263l7.0598-18.9237z" fill="url(#f)"/><path d="m124.088 57.3571c15.427 0 27.934-12.5062 27.934-27.9334s-12.507-27.93347-27.934-27.93347-27.9332 12.50627-27.9332 27.93347 12.5062 27.9334 27.9332 27.9334z" fill="#f0ecf0"/><path d="m122.68 23.4219c5.075-5.6621 3.282-.1959 13.081-2.2593 2.792-.5877 7.802-1.9058 9.067.8326 1.427 3.0919 4.014 3.4709 3.211 5.4704-1.412 3.5114-6.46 4.5186-7.887.5558-1.819-1.2329-8.98 2.2401-11.167 2.7746-.813.198-.868-2.0378-1.675-2.1677-.529-.0852-.462-.1704-.939-.575-4.613-3.918-4.904-3.2771-5.22-4.1267.482-.115.95-.3961 1.531-.5026z" fill="#9e005d"/><path d="m145.465 25.2702c-1.744-.5558-3.859.7878-3.015 2.6681.204.4557 1.233 2.3913 1.665 2.5361 1.633.5515 5.651-2.2273 1.35-5.2042z" fill="#6c2548"/><path d="m145.972 26.652c-.452-.2257-2.526.3131-2.3 1.1882.281 1.0839.758 1.6546 1.395 1.9974 1.627.8752 1.365 2.5319 3.684 2.4999 1.12-.0149 4.022-1.5566 4.118-.4557.157 1.8228.464 3.5646.792 3.1707.792-.9518 1.109-1.0306 1.188-4.2013.021-.8858-2.14-1.5055-3.013-2.8534-.473-.7325-2.932-.7133-5.866-1.3479z" fill="#ffc399"/><path d="m109.348 16.3454c-2.102-1.7972-8.454 4.229-7.974 6.1369.479-.511 1.186-1.5054 1.973-1.3159-2.719 1.8376-3.191 6.484-1.784 9.2586.158-.7347.439-1.5247.897-2.123-.778 3.0365.466 8.2556 4.271 10.8727-.26-1.9144-1.201-5.0275.477-6.2668 2.485-1.8356 5.651-2.3977 7.153-5.43 3.716-7.5061-7.675-12.9127-5.013-11.1346z" fill="#be1e2d"/><path d="m111.503 27.2272c-1.65.1363-7.152 11.6329.475 20.3613 1.067 1.2223 2.372 3.5689 3.92 3.7797 3.256.4429 11.848-1.8121 15.059-3.1877 12.146-5.2021 1.267-10.8429-.308-16.7924-1.421-5.3661-1.725-8.7625-7.928-8.9967-2.92-.1108-11.15 1.7674-11.95 5.0573-.224.1086-.109-.0788.732-.2236z" fill="#9e005d"/><path d="m123.196 23.8174c3.828 1.233 6.256 5.3746 7.755 8.771-1.38-4.3163-2.059-8.262-7.932-8.9498-.013-.0724.419-.6942.177.1788z" fill="#6c2548"/><path d="m127.718 23.3623c1.071.8922 1.961 2.7938 2.438 3.9841.522 1.3053.088 3.3283.571 4.6378-1.292-3.2324-1.307-5.1403-3.007-8.6219z" fill="#6c2548"/><path d="m125.772 33.4681c-1.058.3748-2.898.6772-4.103 1.2479-2.187 1.037-4.936-1.7249-7.313-1.1883-.858.1938-3.845-.873-4.082-1.942-.293-1.3244-.745-1.3521-.078-2.2188 2.619-3.4028 2.815-1.5672 2.932-6.8971.019-.8858-.2-1.3117.079-2.0613.279-.7495.21.0171 1.09-.1426.879-.1597 2.996-1.0498 3.869-.6516 1.533.6984.513 3.9713 1.61 5.1063 1.139 1.1775 3.841-.0277 4.989 1.1285 1.439 1.4502 1.324 6.8482 1.005 7.6212z" fill="#ffc399"/><path d="m123.021 27.8809c.285-.5707.221-1.5651-.026-2.5872-1.175-.0341-2.504.1639-3.217-.575-.65-.6707-.558-2.0847-.692-3.2771-.19-.0213-.39-.0575-.607-.1214-1.263-.3726-2.67-.8347-4.069-1.0775-.039.0085-.077.0171-.111.0235-.405.0745-.605-.0575-.733-.1427-.07-.0064-.14-.0128-.213-.0171-.04.049-.085.1406-.144.3024-.271.7283-.073 1.1563-.079 1.9953 1.386 3.6136 6.644 11.9799 9.895 5.4768z" fill="#e57c57"/><path d="m116.06 33.6479c7.293 3.4879 11.969 5.4704 13.635 9.989-1.031-4.7571-.893-8.6219-4.459-15.1613.675 7.4252-8.761 5.3703-9.176 5.1723z" fill="#f1f2f2"/><path d="m129.697 43.0022c.157-3.884-1.057-18.564-4.44-20.0568-1.056-.4663-10.726 1.1733-7.768 1.348 4.625.2704 7.293 2.7746 7.928 4.28.792 1.1095 3.081 8.5985 4.28 14.4267z" fill="#6c2548"/><path d="m129.616 43.0012c.157-3.884-1.93-18.7237-5.311-20.2143-1.056-.4664-9.776 1.333-6.819 1.5055 4.626.2704 7.294 2.7746 7.928 4.28.792 1.1095 3.003 8.5986 4.202 14.4267z" fill="#9e005d"/><path d="m126.288 12.8771c.555 2.4573-.397 1.9016.078 3.488.375 1.2499.729 2.0655.635 3.4879-.241 3.6562-2.983 6.8758-3.086 6.978-1.45 1.4502-3.132 1.2947-5.476.0767-4.364-2.2657-6.898-4.9934-7.532-11.8224-.471-5.0722 3.763-8.84764 9.014-8.31317 3.249.33219 5.449 2.03997 6.367 6.10287z" fill="#ffc399"/><path d="m114.461 9.38899c3.944-.17887 3.02 1.92501 6.539 2.97261 2.794.8326 5.707-1.0114 5.173 3.7456-.475 4.212 9.401-4.1161 1.46-7.59127-1.269-.55577-1.137-1.41392-2.378-3.01309-2.598-3.34316-11.337-7.05469-15.061-.87306-.944 1.56724 2.657 4.10122 4.265 4.75708z" fill="#be1e2d"/><path d="m114.282 9.50832c.912 3.59658-.161 4.22898-.653 5.47038-.541 1.3629-.803 2.649-1.487 3.9245-.992-2.0698-2.184-.3173-5.276-4.361-5.537-7.23993 9.782-16.91378 7.416-5.03388z" fill="#be1e2d"/><path d="m112.336 19.4974c.617-1.6333-4.029-4.4313-3.599-1.0434.209 1.6417 1.516 2.5744 2.913 3.1515 2.294.9454 1.195-1.6759.569-3.0578l.119.9518z" fill="#ffc399"/><path d="m113.168 14.0264c.309 1.2499-.03 6.814 1.785 8.9967-3.152-1.7142-2.37-5.1297-1.785-8.9967z" fill="#be1e2d"/><path d="m112.691 15.5732c-.728.4153-1.441 3.3879-.323 5.7047.006-.0213.483-4.9104.323-5.7047z" fill="#be1e2d"/><path d="m117.012 34.1212c-2.877-1.7397-5.509-2.0677-4.725-7.1995.867-1.0051.747-1.8973.807-3.3836-1.109.3961-4.086 1.9484-5.434 2.6553-1.985 1.0392-4.361 3.4092-2.458 5.3895.703.7304-1.758 1.9229.937 6.7587 1.506-2.617 2.711-4.855 3.661-4.9338 3.33-.0787 4.431 1.6674 7.372 2.3786 7.214 1.7439 11.654 6.501 12.525 8.1641.036-1.0519-1.269-4.9147-12.683-9.8293z" fill="#9e005d"/><path d="m108.45 34.2021c-8.258 11.4285 2.709 12.4315 5.351 22.9975.119.4813.656 1.1712 1.503 1.3224 5.051.9028 10.884-1.744 15.862-6.9206 1.408-1.4628.247-4.9018-1.546-5.6471-2.319-1.546-7.378 4.0224-13.006 2.9918-.677-1.02-1.505-13.477-8.164-14.744z" fill="#9e005d"/><path d="m155.213 40.4252-.27 9.989-6.399-1.3671-.094-9.7121z" fill="#a0c9cb"/><path d="m155.48 50.2346-.509.2385c.085-11.0963-.171-10.2999.509-10.1658v9.9294z" fill="#75b0b3"/><path d="m150.965 40.9588c2.473.2768 3.211 6.5394 2.498 9.0371-.119-.1192-3.567-.8326-3.686-.7133-1.718-1.9633-.992-8.5687 1.188-8.3238z" fill="#66a7ab"/><path d="m154.983 40.7829s.153-1.9015 0-2.0208c-.153-.1192-6.641-.6537-6.641-.6537-.776 1.7056-.431 1.2819 6.641 2.6745z" fill="#467d7f"/><path d="m152.371 30.4356 2.881 8.443-6.729-1.1498-3.307-9.0159z" fill="#67a8ac"/><path d="m152.988 32.5181c.035.0064.069.0128.101.0192l-.716-2.0996-7.155-1.7248.656 1.7866z" fill="#55989b"/><path d="m148.766 37.7892-1.127.7134-2.679-8.541 1.25-.8923z" fill="#519093"/><path d="m152.794 30.0798-.922 1.0689-6.552-1.0093.869-1.0115z" fill="#b1d3d4"/><path d="m155.648 39.9882c0 1.0519-1.046 1.0519-1.046 0 0-1.052 1.046-1.052 1.046 0z" fill="#a0c9cb"/><path d="m147.639 38.5022c1.501-.9497.058-.8816 7.713.3173-1.38 1.1882-.053 1.0689-7.713-.3173z" fill="#a0c9cb"/><path d="m155.354 38.8789-1.037.8325-2.444-8.6815.922-1.069z" fill="#75b0b3"/><path d="m117.374 55.1095c1.071-.2982.06-1.9612.713-4.8615-1.972 4.0416-1.699 5.134-.713 4.8615z" fill="#6b1523"/><path d="m119.989 48.095c.059-.5941-2.913-8.9179-9.097-9.2757 3.448.1193 10.494 9.1756 8.452 9.3949-1.853.5345-6.076 2.3189-4.41 3.9245 1.307.773 1.605-3.1515 4.627-3.8947 4.567.8816 7.438-3.9393 10.415-1.8738-2.809-3.5029-5.362 2.14-9.989 1.7248z" fill="#6b1523"/><path d="m127.793 46.6472c.309-.6388 1.427-.3961 2.336-1.5609.449-.5749.948-.2023 1.687-.2214 1.541-.0426 2.544 2.996 1.737 4.1502-.445.6345-2.745 1.2968-3.62 1.5182-1.771.4451-3.511-3.0365-2.14-3.884z" fill="#6c2548"/><path d="m123.081 15.0986c-.993 1.1094 1.35 4.64.988 6.2626-.284 1.2691-1.827.7048-2.617-.1576.694.0277 1.78.4451 1.982.0788.76-1.3841-1.539-4.9146-.353-6.1838z" fill="#c44c31"/><path d="m124.031 23.0737c-2.5.5046-4.483.5046-5.69-.1938.579.5494 1.976 1.9058 3.268 1.8866 1.293-.0191 1.235-.5685 1.355-1.1094.076-.2065.528-.3258 1.064-.5856z" fill="#be1e2d"/><path d="m117.389 23.0448c0-.6154.545-.8305 1.075-.9305-.441.2959-.092.8815-.098.905-.481-.2726-.62-.1747-.977.0255z" fill="#e57c57"/><path d="m150.614 40.4996-2.973-.3961.428 8.8391 2.736-.0234c2.241-.23 2.479-8.0768-.191-8.4196z" fill="#35602c"/><path d="m149.867 44.4269c.285 5.8792-3.738 6.0751-4.023.1937-.285-5.8792 3.737-6.0751 4.023-.1937z" fill="#569d48"/><path d="m136.434 42.2879c5.055-.658 5.866-2.9322 6.341-1.1094.315.7857-1.069 1.4416-1.903 1.7546-.443.1639-1.044-.0554-1.551-.1044-1.12-.1086-1.822.5622-2.885.6495-.123-.6303.296-1.0455 0-1.1882z" fill="#e57c57"/><path d="m139.873 43.1843c.168-.905 5.647-1.7845 7.051-1.8675 1.803-.1065 2.161 6.0666.475 6.1838-2.362.1639-4.487.3577-6.872-.3919-1.388-.4343-1.904-.5877-1.927-2.1059-.017-1.1201.749-2.0677 1.273-1.8185z" fill="#35602c"/><g fill="#ffc399"><path d="m131.123 45.5969c3.759-1.0732 7.006-4.7826 7.689-4.0224 1.091 1.2116-.543 2.1592-1.06 3.488-.698 1.7972 1.054-.0362-.403 1.7844-.634.7921-1.961.1789-2.793.1789-.556.1575-1.863 1.3287-2.498 1.4863-1.031-.1576-2.364-2.0421-.937-2.913z"/><path d="m138.898 41.2432c3.239.6814 4.923-.098 5.189 1.152.181.856 1.606 3.358 1.559 4.3226-1.725.4621-2.504-2.683-3.13-3.1557-.426-.3216-2.909.1874-3.733.0766-.824-.1107-1.378-2.1911.115-2.3955z"/><path d="m141.004 43.0424c.573 1.9824 2.144 3.1451 1.51 3.7903-.848.8624-1.691 1.4033-2.013 1.2627-1.976-.8709.322-1.169-.004-1.4969-.326-.328-1.995-2.1188-2.34-2.1976.24-.9241-.094-1.2627-.303-2.2124.211.0702 2.865.3513 3.152.8539z"/><path d="m137.707 42.4457c.958-.115 1.457 1.4799 1.546 1.7844.166.5664 1.348 1.8057 1.427 2.3785.179 1.2777-1.071 1.1882-1.755 1.4565-.564.2982-1.991-.7431-.683-1.5757-.935-.0192-3.073-1.497-2.694-2.0166.241-.0042 1.148-2.3828 2.157-2.025z"/><path d="m137.599 43.0807c.556 1.1094 1.03 3.9628.873 4.2801-.271.543-.865 1.0689-1.51 1.3394-.645.2704-1.026-.9433-1.978-1.8931.792-.7133 1.691-.1277 1.665.2385-.03.4387.079-.3172.396-.2385-.238-.3172-.884-1.3649-1.188-1.9824-.434-.8795.635-2.5361 1.744-1.744z"/><path d="m143.91 28.315c.475 1.7439-.187 2.4999-.238 3.0919-.085.9901.758 1.2052 1.348 1.9015.873 1.0306.792 2.2188 1.505 2.7746 1.983-.873.015-3.2644-.193-3.7861-.158-.396.034-2.8746 2.016-3.0322-1.348-1.6652-3.249-2.2188-4.44-.9519z"/></g><path d="m112.653 25.4826c-1.903.9306-5.883 2.4744-6.737 4.5186-.599 1.4309 5.707 1.1094 13.081 5.3107-3.805-2.7746-9.996-4.0118-10.307-4.9934-.106-.3343 2.715-4.87 3.963-4.8359z" fill="#6b1523"/><path d="m105.279 31.5068c.839 1.118 2.3 1.1095 4.202 1.5864-.878-.4344-4.779.8369-4.361 0 .157-.3172-.167-.8751.157-1.5864z" fill="#6b1523"/><path d="m116.341 17.6386c.007-.0298.462-.8475 2.206-1.0136.678-.0639 1.896.5089 1.795 1.169-1.007.4302-1.888.6751-4.001-.1554z" fill="#f1f2f2"/><path d="m120.347 17.6878c-.062-.3365-.441-.7538-.918-.7666-.526-.0149-1.035.5494-1.044.8965-.004.1533.086.2768.224.3705.684.0149 1.19-.1619 1.733-.394.007-.0362.007-.0702.005-.1064z" fill="#231f20"/><path d="m120.368 17.6674c-.102-.7687-1.512-1.301-2.404-1.3031-1.244 0-1.491 1.1711-2.272.7346.177.7027 1.141.9284 1.801.9327-2.327-.6942 2.14-2.3019 2.875-.3642z" fill="#231f20"/><path d="m123.27 17.5486c.977.3322 2.076-.1895 2.44-.741.592-.8986-1.629-2.0655-2.44.741z" fill="#f1f2f2"/><path d="m124.226 17.2382c-.044.1619.009.2854.122.3727.604-.115 1.132-.4515 1.365-.8028.053-.0809.083-.164.093-.2449-.323-.5856-1.245-.5387-1.58.675z" fill="#231f20"/><path d="m123.249 17.568c.092-.724.417-1.4778 1.329-1.8866 1.175-.5281 1.537.9199 1.938-.2683-.147 1.4671-.592 1.4757-1.523 1.9867 1.022-.3556.958-1.9058-.373-1.4033-1.062.4025-1.196 1.152-1.369 1.5715z" fill="#231f20"/><path d="m126.024 14.621c.517.5855-.337-.1704-1.304-.0597-.321.0384-.841.3514-1.122.3642.554-1.0754 1.663-1.1691 2.426-.3045z" fill="#be1e2d"/><path d="m119.708 14.9385c-3.103-.7751-3.531.1767-4.685 1.7908 2.238-2.4467 3.518-.5877 5.132-1.9399-.245.0234-.473.1022-.447.1491z" fill="#be1e2d"/><path d="m106.375 37.808c.416-1.4267 1.651-3.4795 2.315-3.6072 4.108-.7922 14.097 5.0339 17.246 5.8665-5.053-1.2479-12.544-5.4108-17.122-4.8764-.586.1917-2.081 1.9016-2.439 2.6171z" fill="#6b1523"/><path d="m140.501 28.7129c-.421-1.2563-1.179-2.5872-.805-4.0416.379-1.4756 2.232-2.0506 2.815-3.4304-1.65-.7134-1.58 1.9228-2.468 2.3487-.038-.7815-.142-1.5161-.129-2.3232-1.54 2.0272-.703 4.9126.589 7.4487z" fill="#642243"/><path d="m127.184 21.2217c7.849.7133 7.253 7.1356 12.485 6.303-5.471 1.4267-7.017-6.303-12.485-6.303z" fill="#642243"/><path d="m120.525 19.4966c0 .2364-.594.2364-.594 0s.594-.2364.594 0z" fill="#c44c31"/><path d="m118.622 19.8521c0 .2363-.358.2363-.358 0 0-.2364.358-.2364.358 0z" fill="#c44c31"/><path d="m124.39 19.0205c0 .3152-.474.3152-.474 0 0-.3151.474-.3151.474 0z" fill="#c44c31"/><path d="m125.28 19.9722c0 .2364-.475.2364-.475 0s.475-.2364.475 0z" fill="#c44c31"/><path d="m125.638 18.7837c0 .2364-.474.2364-.474 0 0-.2363.474-.2363.474 0z" fill="#c44c31"/><path d="m120.406 20.6851c0 .2363-.475.2363-.475 0 0-.2364.475-.2364.475 0z" fill="#c44c31"/><path d="m136.975 46.8021c-.364-.2683-.53-.6558-.498-1.1605-4.862.7623-12.996 10.236-26.102 8.0704.919.6133 1.743 1.0817 2.706 1.382 10.638 1.3373 19.676-7.3315 23.896-8.2919z" fill="#569d48"/><path d="m238.632 23.5645h2.267v.0746l-5.066 5.8435 5.405 7.6311v.0746h-2.151l-4.437-6.357-2.094 2.4183v3.9395h-1.754v-13.6246h1.754v7.0272h.074zm5.892 1.0845c0 .3388-.124.6367-.364.877s-.529.3642-.877.3642c-.34 0-.638-.1239-.877-.3642-.118-.1135-.211-.2499-.273-.4007-.063-.1509-.094-.313-.092-.4763 0-.3478.124-.6374.365-.8778.239-.2403.53-.3642.877-.3642.339 0 .637.1239.877.3642.248.2486.364.5374.364.8778zm-.355 3.2192v9.3283h-1.755v-9.3283zm5.604 9.4776c-.762 0-1.392-.2314-1.896-.7038-.505-.4717-.762-1.1256-.77-1.9615v-5.2151h-1.639v-1.5972h1.639v-2.8565h1.754v2.8565h2.285v1.5972h-2.284v4.6441c0 .6202.124 1.0427.364 1.2659.24.2239.513.3314.819.3314.141 0 .273-.0165.414-.0501.141-.0328.257-.0746.373-.1239l.554 1.5645c-.471.1657-1.001.2485-1.613.2485zm-55.489-.8777c-.969-.7039-1.631-1.6973-1.995-2.9722l2.151-.8777c.216.8031.597 1.448 1.151 1.9615.547.5053 1.209.7613 1.978.7613.721 0 1.324-.1821 1.829-.5538.505-.3732.754-.886.754-1.5316 0-.5956-.224-1.0845-.662-1.4734-.439-.3888-1.209-.7777-2.31-1.1673l-.91-.3225c-.977-.3388-1.796-.827-2.459-1.4644-.662-.6374-.992-1.4733-.992-2.5153 0-.721.198-1.3831.587-1.9951.389-.6128.935-1.0927 1.639-1.4577.695-.3553 1.482-.5374 2.367-.5374 1.275 0 2.293.306 3.046.927.761.621 1.266 1.3077 1.522 2.0862l-2.051.868c-.15-.4635-.43-.8688-.853-1.2166-.421-.356-.96-.5299-1.622-.5299s-1.224.1657-1.68.5045c-.455.3396-.679.7703-.679 1.3002 0 .5046.207.9106.612 1.2413.406.3224 1.043.6374 1.913.9352l.911.306c1.249.4307 2.209 1.0017 2.896 1.6973.687.6949 1.027 1.6301 1.027 2.7975 0 .9516-.241 1.7465-.729 2.3832-.482.6344-1.125 1.1288-1.862 1.4323-.737.3082-1.527.4658-2.326.4635-1.209 0-2.293-.3478-3.253-1.0509zm9.924-11.5713c-.142-.1386-.255-.3048-.33-.4883-.076-.1836-.113-.3806-.109-.579 0-.4225.149-.7785.439-1.0681.138-.1421.304-.2543.488-.3298s.381-.1126.579-.1091c.422 0 .778.1493 1.067.4389.291.2896.439.6456.439 1.0673 0 .4225-.149.7785-.438 1.0673-.138.1422-.305.2546-.488.3302-.184.0756-.381.1128-.579.1095-.423-.009-.779-.1493-1.068-.4389zm-.05 1.9369h2.234v10.3621h-2.234zm7.093 10.3046c-.406-.1492-.736-.3478-.993-.5881-.579-.5792-.878-1.3734-.878-2.375v-5.3718h-1.812v-1.9705h1.812v-2.9206h2.235v2.9303h2.517v1.9698h-2.517v4.8746c0 .5546.108.9524.323 1.1756.207.2732.555.4053 1.06.4053.231 0 .43-.0329.612-.0911.174-.0575.364-.1567.571-.2978v2.1772c-.447.2068-.985.306-1.622.306-.446.004-.889-.0718-1.308-.2239zm6.133-.3306c-.8-.4645-1.454-1.1441-1.887-1.9615-.455-.836-.679-1.7712-.679-2.8139 0-.9942.224-1.9041.662-2.7564.439-.845 1.052-1.5227 1.838-2.0198s1.68-.7538 2.682-.7538c1.043 0 1.945.2321 2.714.6874.751.4489 1.357 1.1037 1.747 1.8869.397.8031.596 1.6973.596 2.7071 0 .1904-.017.4299-.058.7113h-7.946c.083.9606.423 1.7055 1.026 2.2265.58.5122 1.33.7898 2.103.7785.637 0 1.192-.1411 1.655-.4389.473-.2922.861-.7032 1.126-1.192l1.887.8942c-.488.8524-1.126 1.5227-1.912 2.0108-.786.4889-1.73.7285-2.823.7285-1.018.0164-1.927-.215-2.731-.6949zm5.397-6.0092c-.031-.3835-.15-.7548-.348-1.0845-.207-.356-.513-.6621-.927-.9016-.413-.2404-.918-.3643-1.515-.3643-.72 0-1.324.215-1.821.6367-.496.4224-.836 1.0016-1.026 1.7137z" fill="#5f6368"/><g clip-path="url(#g)" clip-rule="evenodd" fill-rule="evenodd"><path d="m170.119 26.5605 2.576 1.9702c-.151.4597-.227.9404-.227 1.4242 0 .498.08.9768.227 1.4242l-2.576 1.9702c-.519-1.0563-.787-2.2177-.785-3.3944 0-1.2208.283-2.3727.785-3.3944z" fill="#fbbc05"/><path d="m172.696 28.5305-2.577-1.9702c.632-1.2838 1.611-2.3644 2.827-3.1187s2.619-1.1519 4.05-1.1476c1.95 0 3.691.7312 5.049 1.9152l-2.229 2.2285c-.766-.6268-1.741-1.0098-2.82-1.0098-2.01 0-3.705 1.2971-4.3 3.1026z" fill="#ea4335"/><path d="m170.118 33.3467 2.576-1.9744c.297.9058.873 1.6943 1.646 2.2527s1.702.8581 2.655.8562c2.124 0 3.726-1.0795 4.109-2.9599h-4.109v-2.9598h7.139c.104.4527.174.9402.174 1.3929 0 4.875-3.482 7.6607-7.313 7.6607-1.431.0042-2.834-.3937-4.05-1.1484-1.216-.7546-2.195-1.8357-2.827-3.12z" fill="#34a853"/><path d="m181.988 35.7069-2.446-1.8933c.8-.5049 1.357-1.2831 1.562-2.2923h-4.109v-2.9598h7.138c.105.4527.175.9402.175 1.3929 0 2.4967-.914 4.4456-2.32 5.7525z" fill="#4285f4"/></g></svg>