<?xml version="1.0" encoding="UTF-8"?>
<!DOCTYPE svg  PUBLIC '-//W3C//DTD SVG 1.1//EN'  'http://www.w3.org/Graphics/SVG/1.1/DTD/svg11.dtd'>
<svg fill="#177bff" version="1.1" viewBox="0 0 493.12 493.12" xml:space="preserve" xmlns="http://www.w3.org/2000/svg">

	<path d="m277.66 86.329c-25.554-25.554-59.53-39.627-95.669-39.627s-70.114 14.073-95.668 39.627-39.627 59.53-39.627 95.668c0 36.139 14.073 70.115 39.627 95.669s59.529 39.626 95.668 39.626 70.115-14.073 95.669-39.627c52.751-52.751 52.752-138.58 0-191.34zm-209.96 95.669c0-30.529 11.889-59.231 33.477-80.819 21.587-21.587 50.289-33.477 80.819-33.477s59.232 11.889 80.819 33.477c18.403 18.403 29.199 41.574 32.402 65.574-25.861-2.979-40.504-20.845-40.504-50.05 0-5.799-4.701-10.5-10.5-10.5h-117.06c-16.967 0-30.771 13.804-30.771 30.771v80.071c0 16.968 13.804 30.772 30.771 30.772h31.877v46.178c-21.774-4.418-41.788-15.108-57.857-31.178-21.587-21.587-33.476-50.29-33.476-80.819zm195.11 80.818c-21.587 21.588-50.29 33.477-80.819 33.477-0.655 0-1.308-0.013-1.962-0.024v-58.952c0-5.799-4.701-10.5-10.5-10.5h-42.377c-5.388 0-9.771-4.384-9.771-9.772v-80.071c0-5.388 4.383-9.771 9.771-9.771h107.1c1.779 16.614 7.866 30.723 17.869 41.222 10.91 11.451 26.005 18.114 43.951 19.497-1.402 27.263-12.487 54.116-33.266 74.894z"/>
	<path d="m484.71 411.9-63.471-63.471h1.458c11.218 0 20.344-9.126 20.344-20.344v-87.449h12.146c11.536 0 20.92-9.385 20.92-20.921v-41.16c0-11.536-9.385-20.92-20.92-20.92h-61.034c-5.799 0-10.5 4.701-10.5 10.5 0 11.889-8.621 21.796-19.938 23.815 0.177-3.303 0.274-6.621 0.274-9.954 0-48.613-18.931-94.317-53.306-128.69-34.374-34.373-80.077-53.305-128.69-53.305s-94.317 18.932-128.69 53.306c-34.375 34.375-53.306 80.078-53.306 128.69s18.931 94.317 53.305 128.69c34.375 34.375 80.078 53.306 128.69 53.306 37.646 0 73.542-11.361 103.79-32.447l32.259 32.259c-1.822 3.813-2.786 8.017-2.786 12.368 0 7.671 2.987 14.882 8.411 20.307l88.232 88.232c5.424 5.423 12.636 8.41 20.306 8.41s14.882-2.987 20.306-8.411l32.202-32.201c5.424-5.424 8.411-12.636 8.411-20.306 1e-3 -7.67-2.986-14.881-8.41-20.306zm-81.288-233.26h51.685v41.001h-22.566c-5.799 0-10.5 4.701-10.5 10.5v97.293h-21.802l-3.762-3.762c-5.424-5.424-12.636-8.412-20.306-8.412-4.353 0-8.556 0.964-12.37 2.787l-32.258-32.259c15.149-21.73 25.281-46.374 29.781-72.492 20.481-0.836 37.49-15.365 42.098-34.656zm-335.27 117.2c-30.409-30.408-47.155-70.838-47.155-113.84s16.746-83.434 47.155-113.84c30.408-30.409 70.838-47.156 113.84-47.156s83.434 16.747 113.84 47.155 47.155 70.838 47.155 113.84-16.747 83.434-47.155 113.84c-30.409 30.41-70.839 47.157-113.84 47.157s-83.433-16.747-113.84-47.156zm242.53 14.849c2.692-2.692 5.277-5.461 7.778-8.288l29.335 29.336-16.064 16.064-29.335-29.335c2.825-2.5 5.594-5.086 8.286-7.777zm159.18 126.98-32.201 32.201c-1.458 1.457-3.396 2.26-5.457 2.26-2.062 0-4-0.803-5.457-2.26l-88.232-88.232c-1.458-1.458-2.261-3.396-2.261-5.457s0.803-3.999 2.261-5.457l32.201-32.202c1.457-1.457 3.396-2.26 5.457-2.26s3.999 0.803 5.457 2.261l88.232 88.233c1.458 1.457 2.261 3.396 2.261 5.457-1e-3 2.061-0.804 3.999-2.261 5.456z"/>

</svg>
