<?xml version="1.0" encoding="UTF-8"?>
<svg fill="#177bff" version="1.1" viewBox="0 0 118.78 118.78" xml:space="preserve" xmlns="http://www.w3.org/2000/svg">

	<path d="m115.97 101.6-27.309-27.311c4.64-7.387 7.333-16.118 7.333-25.488 0-26.509-21.49-47.996-47.998-47.996s-47.996 21.487-47.996 47.996c0 26.51 21.487 47.995 47.996 47.995 10.197 0 19.642-3.188 27.414-8.605l26.984 26.986c1.875 1.873 4.333 2.806 6.788 2.806 2.458 0 4.913-0.933 6.791-2.806 3.747-3.751 3.747-9.827-3e-3 -13.577zm-67.974-20.354c-17.917 0-32.443-14.525-32.443-32.443s14.526-32.444 32.443-32.444c17.918 0 32.443 14.526 32.443 32.444s-14.525 32.443-32.443 32.443z"/>


</svg>
