<svg viewBox="0 0 24 24" xmlns="http://www.w3.org/2000/svg">
<path d="M12.5939 21C14.1472 21 16.1269 20.5701 17.0711 20.1975L16.6447 18.879C16.0964 19.051 14.3299 19.6242 12.6548 19.6242C7.4467 19.6242 4.67513 16.8726 4.67513 12C4.67513 7.21338 7.50762 4.34713 12.2893 4.34713C17.132 4.34713 19.4162 7.55732 19.4162 10.7675C19.4162 14.035 19.0508 15.4968 17.4975 15.4968C16.5838 15.4968 16.0964 14.7803 16.0964 13.9777V7.5H14.4822V8.30255H14.3909C14.1777 7.67198 12.9898 7.12739 11.467 7.2707C9.18274 7.5 7.4467 9.27707 7.4467 11.8567C7.4467 14.5796 8.81726 16.672 11.467 16.758C13.203 16.8153 14.1168 16.0127 14.4822 15.1815H14.5736C14.7563 16.414 16.401 16.8439 17.467 16.8439C20.6954 16.8439 21 13.5764 21 10.7962C21 6.86943 18.0761 3 12.3807 3C6.50254 3 3 6.3535 3 11.9427C3 17.7325 6.38071 21 12.5939 21ZM11.7107 15.2962C9.73096 15.2962 9.03046 13.6051 9.03046 11.7707C9.03046 10.1083 10.0355 8.67516 11.7716 8.67516C13.599 8.67516 14.5736 9.36306 14.5736 11.7707C14.5736 14.1497 13.7513 15.2962 11.7107 15.2962Z" />
</svg>