<svg xmlns="http://www.w3.org/2000/svg" viewBox="0 0 24 24">
	<path d="m6.6 15.6-1.2.8c.6.9 1.3 1.6 2.2 2.2l.8-1.2c-.7-.5-1.3-1.1-1.8-1.8zM5.5 12c0-.4 0-.9.1-1.3l-1.5-.3c0 .5-.1 1.1-.1 1.6s.1 1.1.2 1.6l1.5-.3c-.2-.4-.2-.9-.2-1.3zm11.9-3.6 1.2-.8c-.6-.9-1.3-1.6-2.2-2.2l-.8 1.2c.7.5 1.3 1.1 1.8 1.8zM5.3 7.6l1.2.8c.5-.7 1.1-1.3 1.8-1.8l-.7-1.3c-.9.6-1.7 1.4-2.3 2.3zm14.5 2.8-1.5.3c.1.4.1.8.1 1.3s0 .9-.1 1.3l1.5.3c.1-.5.2-1 .2-1.6s-.1-1.1-.2-1.6zM12 18.5c-.4 0-.9 0-1.3-.1l-.3 1.5c.5.1 1 .2 1.6.2s1.1-.1 1.6-.2l-.3-1.5c-.4.1-.9.1-1.3.1zm3.6-1.1.8 1.2c.9-.6 1.6-1.3 2.2-2.2l-1.2-.8c-.5.7-1.1 1.3-1.8 1.8zM10.4 4.2l.3 1.5c.4-.1.8-.1 1.3-.1s.9 0 1.3.1l.3-1.5c-.5-.1-1.1-.2-1.6-.2s-1.1.1-1.6.2z" />
</svg>
