<svg xmlns="http://www.w3.org/2000/svg" viewBox="0 0 24 24">
<path d="M17.3 10.1002C17.3 7.6002 15.2 5.7002 12.5 5.7002C10.3 5.7002 8.4 7.1002 7.9 9.0002H7.7C5.7 9.0002 4 10.7002 4 12.8002C4 14.9002 5.7 16.6002 7.7 16.6002V15.2002C6.5 15.2002 5.5 14.1002 5.5 12.9002C5.5 11.7002 6.5 10.5002 7.7 10.5002H9L9.3 9.4002C9.7 8.1002 11 7.2002 12.5 7.2002C14.3 7.2002 15.8 8.5002 15.8 10.1002V11.4002L17.1 11.6002C17.9 11.7002 18.5 12.5002 18.5 13.4002C18.5 14.4002 17.7 15.2002 16.8 15.2002H16.5V16.6002H16.7C18.5 16.6002 19.9 15.1002 19.9 13.3002C20 11.7002 18.8 10.4002 17.3 10.1002Z M9.8806 13.7576L8.81995 14.8182L12.0019 18.0002L15.1851 14.8171L14.1244 13.7564L12.7551 15.1257L12.7551 10.0002L11.2551 10.0002V15.1321L9.8806 13.7576Z" />
</svg>