<svg viewBox="0 0 24 24" xmlns="http://www.w3.org/2000/svg">
<path d="M6.68822 10.625L6.24878 11.0649L5.5 11.8145L5.5 5.5L12.5 5.5V8L14 6.5V5C14 4.44772 13.5523 4 13 4H5C4.44772 4 4 4.44771 4 5V13.5247C4 13.8173 4.16123 14.086 4.41935 14.2237C4.72711 14.3878 5.10601 14.3313 5.35252 14.0845L7.31 12.125H8.375L9.875 10.625H7.31H6.68822ZM14.5605 10.4983L11.6701 13.75H16.9975C17.9963 13.75 18.7796 14.1104 19.3553 14.7048C19.9095 15.2771 20.2299 16.0224 20.4224 16.7443C20.7645 18.0276 20.7543 19.4618 20.7487 20.2544C20.7481 20.345 20.7475 20.4272 20.7475 20.4999L19.2475 20.5001C19.2475 20.4191 19.248 20.3319 19.2484 20.2394V20.2394C19.2526 19.4274 19.259 18.2035 18.973 17.1307C18.8156 16.5401 18.586 16.0666 18.2778 15.7483C17.9909 15.4521 17.5991 15.25 16.9975 15.25H11.8106L14.5303 17.9697L13.4696 19.0303L8.96956 14.5303L13.4394 9.50171L14.5605 10.4983Z" />
</svg>