<svg xmlns="http://www.w3.org/2000/svg" viewBox="0 0 24 24" fill-rule="evenodd">
	<path d="M19.53 4.47a.75.75 0 0 1 0 1.06L17.06 8l.77.769a3.155 3.155 0 0 1 .685 3.439 3.15 3.15 0 0 1-.685 1.022v.001L13.23 17.83v.001a3.15 3.15 0 0 1-4.462 0L8 17.06l-2.47 2.47a.75.75 0 0 1-1.06-1.06L6.94 16l-.77-.769a3.154 3.154 0 0 1-.685-3.439 3.15 3.15 0 0 1 .685-1.023l4.599-4.598a3.152 3.152 0 0 1 4.462 0l.769.768 2.47-2.47a.75.75 0 0 1 1.06 0Zm-2.76 7.7L15 13.94 10.06 9l1.771-1.77a1.65 1.65 0 0 1 2.338 0L16.77 9.83a1.649 1.649 0 0 1 0 2.338h-.001ZM13.94 15 9 10.06l-1.77 1.771a1.65 1.65 0 0 0 0 2.338l2.601 2.602a1.649 1.649 0 0 0 2.338 0v-.001L13.94 15Z" />
</svg>
