<svg xmlns="http://www.w3.org/2000/svg" viewBox="0 0 24 24">
	<path fill-rule="evenodd" d="M14.4 14.5H11c.3-.4.5-1 .5-1.6v-.1h1c.2 0 .4 0 .5-.2.1-.1.2-.3.2-.5s0-.4-.2-.5c-.1-.1-.3-.2-.5-.2h-1.3c0-.1-.1-.3-.2-.4 0-.1-.1-.2-.1-.4v-.3c0-.8.6-1.4 1.4-1.4s.6 0 .8.2c.2.2.4.4.5.6 0 .2.2.3.4.4h.6c.2 0 .3-.2.4-.4v-.6c-.3-.6-.7-1.2-1.3-1.5-.6-.3-1.3-.4-2-.3s-1.3.5-1.7 1c-.4.5-.7 1.2-.7 1.9 0 .3 0 .5.2.8 0 0 0 .2.1.3-.2 0-.4 0-.5.2-.1.1-.2.3-.2.5s0 .4.2.5c.1.1.3.2.5.2h.5v.1c0 .4-.2.8-.5 1.2l-.6.6c-.1 0-.2.2-.3.4v.5c0 .1.1.3.3.4.1 0 .3.1.4.1h5.1c.2 0 .4 0 .5-.2.1-.1.2-.3.2-.5s0-.4-.2-.5c-.1-.1-.3-.2-.5-.2ZM12 4c-4.4 0-8 3.6-8 8s3.6 8 8 8 8-3.6 8-8-3.6-8-8-8Zm0 14.5c-3.6 0-6.5-2.9-6.5-6.5S8.4 5.5 12 5.5s6.5 2.9 6.5 6.5-2.9 6.5-6.5 6.5Z" />
</svg>
