<svg xmlns="http://www.w3.org/2000/svg" viewBox="0 0 24 24">
	<path d="M11 16.8c-.1-.1-.2-.3-.3-.5v-2.6c0-.9-.1-1.7-.3-2.2-.2-.5-.5-.9-.9-1.2-.4-.2-.9-.3-1.6-.3-.5 0-1 .1-1.5.2s-.9.3-1.2.6l.2 1.2c.4-.3.7-.4 1.1-.5.3-.1.7-.2 1-.2.6 0 1 .1 1.3.4.3.2.4.7.4 1.4-1.2 0-2.3.2-3.3.7s-1.4 1.1-1.4 2.1c0 .7.2 1.2.7 1.6.4.4 1 .6 1.8.6.9 0 1.7-.4 2.4-1.2.1.3.2.5.4.7.1.2.3.3.6.4.3.1.6.1 1.1.1h.1l.2-1.2h-.1c-.4.1-.6 0-.7-.1zM9.2 16c-.2.3-.5.6-.9.8-.3.1-.7.2-1.1.2-.4 0-.7-.1-.9-.3-.2-.2-.3-.5-.3-.9 0-.6.2-1 .7-1.3.5-.3 1.3-.4 2.5-.5v2zm10.6-3.9c-.3-.6-.7-1.1-1.2-1.5-.6-.4-1.2-.6-1.9-.6-.5 0-.9.1-1.4.3-.4.2-.8.5-1.1.8V6h-1.4v12h1.3l.2-1c.2.4.6.6 1 .8.4.2.9.3 1.4.3.7 0 1.2-.2 1.8-.5.5-.4 1-.9 1.3-1.5.3-.6.5-1.3.5-2.1-.1-.6-.2-1.3-.5-1.9zm-1.7 4c-.4.5-.9.8-1.6.8s-1.2-.2-1.7-.7c-.4-.5-.7-1.2-.7-2.1 0-.9.2-1.6.7-2.1.4-.5 1-.7 1.7-.7s1.2.3 1.6.8c.4.5.6 1.2.6 2s-.2 1.4-.6 2z" />
</svg>
