<svg xmlns="http://www.w3.org/2000/svg" viewBox="0 0 24 24">
<path d="M15.333 4C16.6677 4 17.75 5.0823 17.75 6.41699V6.75C17.75 7.20058 17.6394 7.62468 17.4473 8H18.5C19.2767 8 19.9154 8.59028 19.9922 9.34668L20 9.5V18.5C20 19.3284 19.3284 20 18.5 20H5.5C4.72334 20 4.08461 19.4097 4.00781 18.6533L4 18.5V9.5L4.00781 9.34668C4.07949 8.64069 4.64069 8.07949 5.34668 8.00781L5.5 8H6.55273C6.36065 7.62468 6.25 7.20058 6.25 6.75V6.41699C6.25 5.0823 7.3323 4 8.66699 4C10.0436 4.00011 11.2604 4.68183 12 5.72559C12.7396 4.68183 13.9564 4.00011 15.333 4ZM5.5 18.5H11.25V9.5H5.5V18.5ZM12.75 18.5H18.5V9.5H12.75V18.5ZM8.66699 5.5C8.16073 5.5 7.75 5.91073 7.75 6.41699V6.75C7.75 7.44036 8.30964 8 9 8H11.2461C11.2021 6.61198 10.0657 5.50017 8.66699 5.5ZM15.333 5.5C13.9343 5.50017 12.7979 6.61198 12.7539 8H15C15.6904 8 16.25 7.44036 16.25 6.75V6.41699C16.25 5.91073 15.8393 5.5 15.333 5.5Z" />
</svg>