<svg xmlns="http://www.w3.org/2000/svg" viewBox="0 0 24 24">
	<path d="M12 4c-4.4 0-8 3.6-8 8s3.6 8 8 8 8-3.6 8-8-3.6-8-8-8Zm6.5 8c0 .6 0 1.2-.2 1.8h-2.7c0-.6.2-1.1.2-1.8s0-1.2-.2-1.8h2.7c.2.6.2 1.1.2 1.8Zm-.9-3.2h-2.4c-.3-.9-.7-1.8-1.1-2.4-.1-.2-.2-.4-.3-.5 1.6.5 3 1.6 3.8 3ZM12.8 17c-.3.5-.6 1-.8 1.3-.2-.3-.5-.8-.8-1.3-.3-.5-.6-1.1-.8-1.7h3.3c-.2.6-.5 1.2-.8 1.7Zm-2.9-3.2c-.1-.6-.2-1.1-.2-1.8s0-1.2.2-1.8H14c.1.6.2 1.1.2 1.8s0 1.2-.2 1.8H9.9ZM11.2 7c.3-.5.6-1 .8-1.3.2.3.5.8.8 1.3.3.5.6 1.1.8 1.7h-3.3c.2-.6.5-1.2.8-1.7Zm-1-1.2c-.1.2-.2.3-.3.5-.4.7-.8 1.5-1.1 2.4H6.4c.8-1.4 2.2-2.5 3.8-3Zm-1.8 8H5.7c-.2-.6-.2-1.1-.2-1.8s0-1.2.2-1.8h2.7c0 .6-.2 1.1-.2 1.8s0 1.2.2 1.8Zm-2 1.4h2.4c.3.9.7 1.8 1.1 2.4.1.2.2.4.3.5-1.6-.5-3-1.6-3.8-3Zm7.4 3c.1-.2.2-.3.3-.5.4-.7.8-1.5 1.1-2.4h2.4c-.8 1.4-2.2 2.5-3.8 3Z" />
</svg>
