<svg xmlns="http://www.w3.org/2000/svg" viewBox="0 0 24 24">
<path d="M9 11H5V7H3v10h2v-4h4v4h2V7H9v4zm11.3 1.7c-.4-.4-1-.7-1.6-.8v-.1c.6-.2 1.1-.5 1.5-.9.3-.4.5-.8.5-1.3 0-.4-.1-.8-.3-1.1-.2-.3-.5-.6-.8-.8-.4-.2-.8-.4-1.2-.5-.6-.1-1.1-.2-1.6-.2-.6 0-1.3.1-1.8.3s-1.1.5-1.6.9l1.2 1.4c.4-.2.7-.4 1.1-.6.3-.2.7-.3 1.1-.3.4 0 .8.1 1.1.3.3.2.4.5.4.8 0 .4-.2.7-.6.9-.7.3-1.5.5-2.2.4v1.6c.5 0 1 0 1.5.1.3.1.7.2 1 .3.2.1.4.2.5.4s.1.4.1.6c0 .3-.2.7-.5.8-.4.2-.9.3-1.4.3s-1-.1-1.4-.3c-.4-.2-.8-.4-1.2-.7L13 15.6c.5.4 1 .8 1.6 1 .7.3 1.5.4 2.3.4.6 0 1.1-.1 1.6-.2.4-.1.9-.2 1.3-.5.4-.2.7-.5.9-.9.2-.4.3-.8.3-1.2 0-.6-.3-1.1-.7-1.5z" />
</svg>