<svg xmlns="http://www.w3.org/2000/svg" viewBox="0 0 24 24">
<path d="M20.7 12.4c-.2-.3-.4-.6-.7-.9s-.6-.5-1-.6c-.4-.2-.8-.2-1.2-.2-.5 0-.9.1-1.3.3s-.8.5-1.2.8c0-.5 0-.9.2-1.4l.6-.9c.2-.2.5-.4.8-.5.6-.2 1.3-.2 1.9 0 .3.1.6.3.8.5 0 0 1.3-1.3 1.3-1.4-.4-.3-.9-.6-1.4-.8-.6-.2-1.3-.3-2-.3-.6 0-1.1.1-1.7.4-.5.2-1 .5-1.4.9-.4.4-.8 1-1 1.6-.3.7-.4 1.5-.4 2.3s.1 1.5.3 2.1c.2.6.6 1.1 1 1.5.4.4.9.7 1.4.9 1 .3 2 .3 3 0 .4-.1.8-.3 1.2-.6.3-.3.6-.6.8-1 .2-.5.3-.9.3-1.4s-.1-.9-.3-1.3zm-2 2.1c-.1.2-.3.4-.4.5-.1.1-.3.2-.5.2-.2.1-.4.1-.6.1-.2.1-.5 0-.7-.1-.2 0-.3-.2-.5-.3-.1-.2-.3-.4-.4-.6-.2-.3-.3-.7-.3-1 .3-.3.6-.5 1-.7.3-.1.7-.2 1-.2.4 0 .8.1 1.1.3.3.3.4.7.4 1.1 0 .2 0 .5-.1.7zM9 11H5V7H3v10h2v-4h4v4h2V7H9v4z" />
</svg>