<svg xmlns="http://www.w3.org/2000/svg" viewBox="-2 -2 24 24">
	<path d="M18,0 L2,0 C0.9,0 0.01,0.9 0.01,2 L0,12 C0,13.1 0.9,14 2,14 L18,14 C19.1,14 20,13.1 20,12 L20,2 C20,0.9 19.1,0 18,0 Z M18,12 L2,12 L2,2 L18,2 L18,12 Z M9,3 L11,3 L11,5 L9,5 L9,3 Z M9,6 L11,6 L11,8 L9,8 L9,6 Z M6,3 L8,3 L8,5 L6,5 L6,3 Z M6,6 L8,6 L8,8 L6,8 L6,6 Z M3,6 L5,6 L5,8 L3,8 L3,6 Z M3,3 L5,3 L5,5 L3,5 L3,3 Z M6,9 L14,9 L14,11 L6,11 L6,9 Z M12,6 L14,6 L14,8 L12,8 L12,6 Z M12,3 L14,3 L14,5 L12,5 L12,3 Z M15,6 L17,6 L17,8 L15,8 L15,6 Z M15,3 L17,3 L17,5 L15,5 L15,3 Z M10,20 L14,16 L6,16 L10,20 Z" />
</svg>
