<svg viewBox="0 0 24 24" xmlns="http://www.w3.org/2000/svg">
<path d="M18.1823 11.6392C18.1823 13.0804 17.0139 14.2487 15.5727 14.2487C14.3579 14.2487 13.335 13.4179 13.0453 12.2922L13.0377 12.2625L13.0278 12.2335L12.3985 10.377L12.3942 10.3785C11.8571 8.64997 10.246 7.39405 8.33961 7.39405C5.99509 7.39405 4.09448 9.29465 4.09448 11.6392C4.09448 13.9837 5.99509 15.8843 8.33961 15.8843C8.88499 15.8843 9.40822 15.781 9.88943 15.5923L9.29212 14.0697C8.99812 14.185 8.67729 14.2487 8.33961 14.2487C6.89838 14.2487 5.73003 13.0804 5.73003 11.6392C5.73003 10.1979 6.89838 9.02959 8.33961 9.02959C9.55444 9.02959 10.5773 9.86046 10.867 10.9862L10.8772 10.9836L11.4695 12.7311C11.9515 14.546 13.6048 15.8843 15.5727 15.8843C17.9172 15.8843 19.8178 13.9837 19.8178 11.6392C19.8178 9.29465 17.9172 7.39404 15.5727 7.39404C15.0287 7.39404 14.5066 7.4968 14.0264 7.6847L14.6223 9.20781C14.9158 9.093 15.2358 9.02959 15.5727 9.02959C17.0139 9.02959 18.1823 10.1979 18.1823 11.6392Z" />
</svg>