<svg xmlns="http://www.w3.org/2000/svg" viewBox="0 0 24 24">
	<path d="m7 6.5 4 2.5-4 2.5z" />
	<path fill-rule="evenodd" clip-rule="evenodd" d="m5 3c-1.10457 0-2 .89543-2 2v14c0 1.1046.89543 2 2 2h14c1.1046 0 2-.8954 2-2v-14c0-1.10457-.8954-2-2-2zm14 1.5h-14c-.27614 0-.5.22386-.5.5v10.7072l3.62953-2.6465c.25108-.1831.58905-.1924.84981-.0234l2.92666 1.8969 3.5712-3.4719c.2911-.2831.7545-.2831 1.0456 0l2.9772 2.8945v-9.3568c0-.27614-.2239-.5-.5-.5zm-14.5 14.5v-1.4364l4.09643-2.987 2.99567 1.9417c.2936.1903.6798.1523.9307-.0917l3.4772-3.3806 3.4772 3.3806.0228-.0234v2.5968c0 .2761-.2239.5-.5.5h-14c-.27614 0-.5-.2239-.5-.5z" />
</svg>
