<svg xmlns="http://www.w3.org/2000/svg" viewBox="0 0 24 24">
	<path d="M19.75 9c0-1.257-.565-2.197-1.39-2.858-.797-.64-1.827-1.017-2.815-1.247-1.802-.42-3.703-.403-4.383-.396L11 4.5V6l.177-.001c.696-.006 2.416-.02 4.028.356.887.207 1.67.518 2.216.957.52.416.829.945.829 1.688 0 .592-.167.966-.407 1.23-.255.281-.656.508-1.236.674-1.19.34-2.82.346-4.607.346h-.077c-1.692 0-3.527 0-4.942.404-.732.209-1.424.545-1.935 1.108-.526.579-.796 1.33-.796 2.238 0 1.257.565 2.197 1.39 2.858.797.64 1.827 1.017 2.815 1.247 1.802.42 3.703.403 4.383.396L13 19.5h.714V22L18 18.5 13.714 15v3H13l-.177.001c-.696.006-2.416.02-4.028-.356-.887-.207-1.67-.518-2.216-.957-.52-.416-.829-.945-.829-1.688 0-.592.167-.966.407-1.23.255-.281.656-.508 1.237-.674 1.189-.34 2.819-.346 4.606-.346h.077c1.692 0 3.527 0 4.941-.404.732-.209 1.425-.545 1.936-1.108.526-.579.796-1.33.796-2.238z" />
</svg>
