<svg xmlns="http://www.w3.org/2000/svg" viewBox="0 0 24 24">
<path d="M19 5c1.1 0 2 .9 2 2v10c0 1.1-.9 2-2 2H5c-1.1 0-2-.9-2-2V7c0-1.1.9-2 2-2zM5 6.5c-.3 0-.5.2-.5.5v10c0 .3.2.5.5.5h14c.3 0 .5-.2.5-.5V7c0-.3-.2-.5-.5-.5zm7.01 2.75q.711 0 1.24.364.533.364.824 1.012.296.645.296 1.488 0 .887-.296 1.556-.292.664-.824 1.036-.528.368-1.24.368-.708 0-1.24-.368-.527-.372-.824-1.036-.296-.668-.296-1.556 0-.848.296-1.492.296-.648.824-1.008a2.14 2.14 0 0 1 1.24-.364m-3.484 3.6h.72v.832h-.72v1.28h-.984v-1.28H4.75l3.08-4.32h.696zm9.522 0h.72v.832h-.72v1.28h-.983v-1.28h-2.793l3.08-4.32h.696zm-6.038-2.696q-.568 0-.952.48-.384.475-.384 1.48 0 .716.176 1.168.176.45.476.66.304.212.684.212t.68-.208q.304-.207.48-.656.176-.451.176-1.176 0-.996-.384-1.476-.38-.484-.952-.484M6.33 12.85h1.212v-1.722zm9.523 0h1.211v-1.722z" />
</svg>