<svg viewBox="0 0 16 16" xmlns="http://www.w3.org/2000/svg">
	<path d="M1.36605 2.81332L2.30144 1.87332L13.5592 13.1867L12.6239 14.1267L7.92702 9.40666C6.74618 9.41999 5.57861 9.87999 4.68302 10.78L3.35623 9.44665C4.19874 8.60665 5.2071 8.03999 6.2818 7.75332L4.7958 6.25999C3.78744 6.67332 2.84542 7.29332 2.02944 8.11332L0.702656 6.77999C1.512 5.97332 2.42085 5.33332 3.3894 4.84665L1.36605 2.81332ZM15.2973 6.77999L13.9705 8.11332C12.3054 6.43999 10.1096 5.61332 7.92039 5.62666L6.20883 3.90665C9.41303 3.34665 12.8229 4.29332 15.2973 6.77999ZM10.1759 7.89332C11.0781 8.21332 11.9273 8.72665 12.6438 9.44665L12.1794 9.90665L10.1759 7.89332ZM6.00981 12.1133L8 14.1133L9.99018 12.1133C8.89558 11.0067 7.11105 11.0067 6.00981 12.1133Z" />
</svg>
