<svg xmlns="http://www.w3.org/2000/svg" viewBox="0 0 24 24">
	<path d="M7.1 5.7 8 6.9c.4-.3.9-.6 1.5-.8l-.6-1.4c-.7.3-1.3.6-1.8 1ZM4.6 8.9l1.4.6c.2-.5.5-1 .8-1.5l-1.2-.9c-.4.6-.8 1.2-1 1.8Zm14.8 0c-.3-.7-.6-1.3-1-1.8l-1.2.9c.3.4.6.9.8 1.5l1.4-.6ZM7.1 18.3c.6.4 1.2.8 1.8 1l.6-1.4c-.5-.2-1-.5-1.5-.8l-.9 1.2ZM5.5 12v-.9h-.7l-.7-.2v2l1.5-.2v-.9Zm-.7 3h-.2c.3.7.6 1.3 1 1.9l1.2-.9c-.3-.4-.6-.9-.8-1.5l-1.2.5Zm9.7 3 .5 1.2v.2c.7-.3 1.3-.6 1.9-1l-.9-1.2c-.4.3-.9.6-1.5.8Zm-2.5.5h-.9l-.2 1.3v.2h2l-.2-1.5h-.9Zm7.9-7.5-1.5.2V13h.7l.7.2v-2ZM18 14.5c-.2.5-.5 1-.8 1.5l1.2.9c.4-.6.8-1.2 1-1.8h-.2l-1.2-.6ZM11 4.1l.2 1.5H13V4.2h-1.9ZM14.5 6c.5.2 1 .5 1.5.8l.9-1.2c-.6-.4-1.2-.8-1.8-1L14.5 6Z" />
</svg>
