<svg xmlns="http://www.w3.org/2000/svg" viewBox="0 0 24 24">
	<path d="M 12.841306,16.677917 12.001264,12.71529 Q 11.835801,11.930402 11.695793,11.417042 11.560029,10.89944 11.398809,10.568514 11.237588,10.237588 11,10 10.635133,9.6351329 10.219354,9.6351329 9.8078183,9.6308902 9.4387086,10 8.9932313,10.445477 8.8574668,11.022476 8.7259449,11.595233 8.7259449,12.155262 L 7.4955791,11.196425 Q 7.5719467,10.509117 7.8307477,9.9109045 8.0937915,9.3084495 8.6410921,8.7611489 9.1799075,8.2223335 9.7569066,8.086569 q 0.5812414,-0.1400071 1.1242994,0.046669 0.543058,0.1866762 0.975808,0.6194255 0.335168,0.3351686 0.581242,0.767918 0.24183,0.4285067 0.436992,1.0564174 0.195161,0.619426 0.381837,1.527351 l 0.364867,1.756453 1.883733,-1.883732 1.018234,1.018233 z" />
	<path d="M12.574 4a.75.75 0 0 1 .53.22l6.723 6.724a2.315 2.315 0 0 1 0 3.264l-.532-.528.531.53-5.61 5.611a2.31 2.31 0 0 1-3.276.001l-6.72-6.716a.75.75 0 0 1-.22-.53V4.75A.75.75 0 0 1 4.75 4h7.824ZM5.5 5.5v6.764l6.501 6.497a.817.817 0 0 0 .889.178.816.816 0 0 0 .264-.178l5.61-5.61a.816.816 0 0 0-.001-1.149l-6.5-6.502H5.5Z" />
</svg>
