<svg xmlns="http://www.w3.org/2000/svg" viewBox="0 0 24 24">
	<path d="m8.6 7 3.9 10.8h-1.7l-1-2.8H5.7l-1 2.8H3L6.9 7h1.7Zm-2.4 6.6h3L7.7 9.3l-1.5 4.3ZM17.691 8.879c.473 0 .88.055 1.221.165.352.1.643.264.875.495.274.253.456.572.544.957.088.374.132.83.132 1.37v4.554c0 .274.033.472.099.593.077.11.198.166.363.166.11 0 .215-.028.313-.083.11-.055.237-.137.38-.247l.165.28a3.304 3.304 0 0 1-.71.446c-.23.11-.527.165-.89.165-.352 0-.639-.055-.858-.165-.22-.11-.386-.27-.495-.479-.1-.209-.149-.468-.149-.775-.286.462-.627.814-1.023 1.056-.396.242-.858.363-1.386.363-.462 0-.858-.088-1.188-.264a1.752 1.752 0 0 1-.742-.726 2.201 2.201 0 0 1-.248-1.056c0-.484.11-.875.33-1.172.22-.308.5-.556.841-.742.352-.187.721-.341 1.106-.462.396-.132.765-.253 1.106-.363.351-.121.637-.259.857-.413.232-.154.347-.357.347-.61V10.81c0-.396-.066-.71-.198-.941a1.05 1.05 0 0 0-.511-.511 1.763 1.763 0 0 0-.76-.149c-.253 0-.522.039-.808.116a1.165 1.165 0 0 0-.677.412 1.1 1.1 0 0 1 .595.396c.165.187.247.424.247.71 0 .307-.104.55-.313.726-.198.176-.451.263-.76.263-.34 0-.594-.104-.758-.313a1.231 1.231 0 0 1-.248-.759c0-.297.072-.539.214-.726.154-.187.352-.363.595-.528.264-.176.6-.324 1.006-.445.418-.121.88-.182 1.386-.182Zm.99 3.729a1.57 1.57 0 0 1-.528.462c-.231.121-.479.248-.742.38a5.377 5.377 0 0 0-.76.462c-.23.165-.423.38-.577.643-.154.264-.231.6-.231 1.007 0 .429.11.77.33 1.023.22.242.517.363.891.363.308 0 .594-.088.858-.264.275-.176.528-.44.759-.792v-3.284Z" />
</svg>
