<svg viewBox="0 0 24 24" xmlns="http://www.w3.org/2000/svg">
<path d="M20.7 12.7s0-.1-.1-.2c0-.2-.2-.4-.4-.6-.3-.5-.9-1.2-1.6-1.8-.7-.6-1.5-1.3-2.6-1.8l-.6 1.4c.9.4 1.6 1 2.1 1.5.6.6 1.1 1.2 1.4 1.6.1.2.3.4.3.5v.1l.7-.3.7-.3Zm-5.2-9.3-1.8 4c-.5-.1-1.1-.2-1.7-.2-3 0-5.2 1.4-6.6 2.7-.7.7-1.2 1.3-1.6 1.8-.2.3-.3.5-.4.6 0 0 0 .1-.1.2s0 0 .7.3l.7.3V13c0-.1.2-.3.3-.5.3-.4.7-1 1.4-1.6 1.2-1.2 3-2.3 5.5-2.3H13v.3c-.4 0-.8-.1-1.1-.1-1.9 0-3.5 1.6-3.5 3.5s.6 2.3 1.6 2.9l-2 4.4.9.4 7.6-16.2-.9-.4Zm-3 12.6c1.7-.2 3-1.7 3-3.5s-.2-1.4-.6-1.9L12.4 16Z" />
</svg>