<svg viewBox="0 0 24 24" xmlns="http://www.w3.org/2000/svg">
<path d="M17.8 2l-.9.3c-.1 0-3.6 1-5.2 2.1C10 5.5 9.3 6.5 8.9 7.1c-.6.9-1.7 4.7-1.7 6.3l-.9 2.3c-.2.4 0 .8.4 1 .1 0 .2.1.3.1.3 0 .6-.2.7-.5l.6-1.5c.3 0 .7-.1 1.2-.2.7-.1 1.4-.3 2.2-.5.8-.2 1.6-.5 2.4-.8.7-.3 1.4-.7 1.9-1.2s.8-1.2 1-1.9c.2-.7.3-1.6.4-2.4.1-.8.1-1.7.2-2.5 0-.8.1-1.5.2-2.1V2zm-1.9 5.6c-.1.8-.2 1.5-.3 2.1-.2.6-.4 1-.6 1.3-.3.3-.8.6-1.4.9-.7.3-1.4.5-2.2.8-.6.2-1.3.3-1.8.4L15 7.5c.3-.3.6-.7 1-1.1 0 .4 0 .8-.1 1.2zM6 20h8v-1.5H6V20z" />
</svg>