<?xml version="1.0" encoding="utf-8"?>
<svg viewBox="26.305 263.249 321.781 159.17" xmlns="http://www.w3.org/2000/svg" xmlns:bx="https://boxy-svg.com">
  <rect style="fill: rgb(229, 229, 229);" x="26.305" y="264.548" width="48.508" height="46.808" rx="2" ry="2"/>
  <path d="M 97.433 263.392 L 99.183 268.426 L 104.512 268.535 L 100.264 271.755 L 101.808 276.857 L 97.433 273.812 L 93.058 276.857 L 94.602 271.755 L 90.354 268.535 L 95.683 268.426 Z" style="fill: rgb(216, 216, 216);" bx:shape="star 97.433 270.835 7.443 7.443 0.4 5 1@18d480e4"/>
  <path d="M 115.445 263.392 L 117.195 268.426 L 122.524 268.535 L 118.276 271.755 L 119.82 276.857 L 115.445 273.812 L 111.07 276.857 L 112.614 271.755 L 108.366 268.535 L 113.695 268.426 Z" style="fill: rgb(216, 216, 216);" bx:shape="star 115.445 270.835 7.443 7.443 0.4 5 1@2475d756"/>
  <path d="M 132.615 263.392 L 134.365 268.426 L 139.694 268.535 L 135.446 271.755 L 136.99 276.857 L 132.615 273.812 L 128.24 276.857 L 129.784 271.755 L 125.536 268.535 L 130.865 268.426 Z" style="fill: rgb(216, 216, 216);" bx:shape="star 132.615 270.835 7.443 7.443 0.4 5 1@8228aade"/>
  <path d="M 148.872 263.249 L 150.622 268.283 L 155.951 268.392 L 151.703 271.612 L 153.247 276.714 L 148.872 273.669 L 144.497 276.714 L 146.041 271.612 L 141.793 268.392 L 147.122 268.283 Z" style="fill: rgb(216, 216, 216);" bx:shape="star 148.872 270.692 7.443 7.443 0.4 5 1@21428da4"/>
  <path d="M 166.042 263.249 L 167.792 268.283 L 173.121 268.392 L 168.873 271.612 L 170.417 276.714 L 166.042 273.669 L 161.667 276.714 L 163.211 271.612 L 158.963 268.392 L 164.292 268.283 Z" style="fill: rgb(216, 216, 216);" bx:shape="star 166.042 270.692 7.443 7.443 0.4 5 1@5f5b9e4a"/>
  <rect style="fill: rgb(229, 229, 229);" x="91.443" y="280.552" width="92.51" height="9.903" rx="2" ry="2"/>
  <rect style="fill: rgb(229, 229, 229);" x="91.443" y="297.411" width="255.783" height="9.903" rx="2" ry="2"/>
  <rect style="fill: rgb(229, 229, 229);" x="26.305" y="320.11" width="48.508" height="46.808" rx="2" ry="2"/>
  <path d="M 97.433 318.954 L 99.183 323.988 L 104.512 324.097 L 100.264 327.317 L 101.808 332.419 L 97.433 329.374 L 93.058 332.419 L 94.602 327.317 L 90.354 324.097 L 95.683 323.988 Z" style="fill: rgb(216, 216, 216);" bx:shape="star 97.433 326.397 7.443 7.443 0.4 5 1@3890540b"/>
  <path d="M 115.445 318.954 L 117.195 323.988 L 122.524 324.097 L 118.276 327.317 L 119.82 332.419 L 115.445 329.374 L 111.07 332.419 L 112.614 327.317 L 108.366 324.097 L 113.695 323.988 Z" style="fill: rgb(216, 216, 216);" bx:shape="star 115.445 326.397 7.443 7.443 0.4 5 1@86c91beb"/>
  <path d="M 132.615 318.954 L 134.365 323.988 L 139.694 324.097 L 135.446 327.317 L 136.99 332.419 L 132.615 329.374 L 128.24 332.419 L 129.784 327.317 L 125.536 324.097 L 130.865 323.988 Z" style="fill: rgb(216, 216, 216);" bx:shape="star 132.615 326.397 7.443 7.443 0.4 5 1@1b4d774f"/>
  <path d="M 148.872 318.811 L 150.622 323.845 L 155.951 323.954 L 151.703 327.174 L 153.247 332.276 L 148.872 329.231 L 144.497 332.276 L 146.041 327.174 L 141.793 323.954 L 147.122 323.845 Z" style="fill: rgb(216, 216, 216);" bx:shape="star 148.872 326.254 7.443 7.443 0.4 5 1@fd756c83"/>
  <path d="M 166.042 318.811 L 167.792 323.845 L 173.121 323.954 L 168.873 327.174 L 170.417 332.276 L 166.042 329.231 L 161.667 332.276 L 163.211 327.174 L 158.963 323.954 L 164.292 323.845 Z" style="fill: rgb(216, 216, 216);" bx:shape="star 166.042 326.254 7.443 7.443 0.4 5 1@5d63b999"/>
  <rect style="fill: rgb(229, 229, 229);" x="91.443" y="336.114" width="92.51" height="9.903" rx="2" ry="2"/>
  <rect style="fill: rgb(229, 229, 229);" x="91.443" y="352.973" width="255.783" height="9.903" rx="2" ry="2"/>
  <rect style="fill: rgb(229, 229, 229);" x="27.165" y="375.611" width="48.508" height="46.808" rx="2" ry="2"/>
  <path d="M 98.293 374.455 L 100.043 379.489 L 105.372 379.598 L 101.124 382.818 L 102.668 387.92 L 98.293 384.875 L 93.918 387.92 L 95.462 382.818 L 91.214 379.598 L 96.543 379.489 Z" style="fill: rgb(216, 216, 216);" bx:shape="star 98.293 381.898 7.443 7.443 0.4 5 1@76173924"/>
  <path d="M 116.305 374.455 L 118.055 379.489 L 123.384 379.598 L 119.136 382.818 L 120.68 387.92 L 116.305 384.875 L 111.93 387.92 L 113.474 382.818 L 109.226 379.598 L 114.555 379.489 Z" style="fill: rgb(216, 216, 216);" bx:shape="star 116.305 381.898 7.443 7.443 0.4 5 1@ccea82da"/>
  <path d="M 133.475 374.455 L 135.225 379.489 L 140.554 379.598 L 136.306 382.818 L 137.85 387.92 L 133.475 384.875 L 129.1 387.92 L 130.644 382.818 L 126.396 379.598 L 131.725 379.489 Z" style="fill: rgb(216, 216, 216);" bx:shape="star 133.475 381.898 7.443 7.443 0.4 5 1@89639405"/>
  <path d="M 149.732 374.312 L 151.482 379.346 L 156.811 379.455 L 152.563 382.675 L 154.107 387.777 L 149.732 384.732 L 145.357 387.777 L 146.901 382.675 L 142.653 379.455 L 147.982 379.346 Z" style="fill: rgb(216, 216, 216);" bx:shape="star 149.732 381.755 7.443 7.443 0.4 5 1@cf6de4c6"/>
  <path d="M 166.902 374.312 L 168.652 379.346 L 173.981 379.455 L 169.733 382.675 L 171.277 387.777 L 166.902 384.732 L 162.527 387.777 L 164.071 382.675 L 159.823 379.455 L 165.152 379.346 Z" style="fill: rgb(216, 216, 216);" bx:shape="star 166.902 381.755 7.443 7.443 0.4 5 1@31b05a6c"/>
  <rect style="fill: rgb(229, 229, 229);" x="92.303" y="391.615" width="92.51" height="9.903" rx="2" ry="2"/>
  <rect style="fill: rgb(229, 229, 229);" x="92.303" y="408.474" width="255.783" height="9.903" rx="2" ry="2"/>
</svg>
