<svg width="608" height="608" xmlns="http://www.w3.org/2000/svg" fill="none">

 <g>
  <title>Layer 1</title>
  <rect x="0" y="0" id="svg_1" fill="#EEEEEE" height="608" width="608"/>
  <path id="svg_2" fill="#E0E0E0" d="m352.222,252.333l-96.444,0c-1.903,0 -3.445,1.542 -3.445,3.445l0,96.444c0,1.903 1.542,3.445 3.445,3.445l96.444,0c1.903,0 3.445,-1.542 3.445,-3.445l0,-96.444c0,-1.903 -1.542,-3.445 -3.445,-3.445zm-96.444,-10.333c-7.609,0 -13.778,6.169 -13.778,13.778l0,96.444c0,7.609 6.169,13.778 13.778,13.778l96.444,0c7.609,0 13.778,-6.169 13.778,-13.778l0,-96.444c0,-7.609 -6.169,-13.778 -13.778,-13.778l-96.444,0z" clip-rule="evenodd" fill-rule="evenodd"/>
  <path id="svg_3" fill="#E0E0E0" d="m327.954,293.407c2.005,-1.95 5.198,-1.95 7.203,0l27.556,26.79l-7.204,7.409l-23.954,-23.289l-23.954,23.289c-1.728,1.68 -4.388,1.942 -6.411,0.631l-20.637,-13.376l-28.62,20.869l-6.088,-8.349l31.492,-22.963c1.729,-1.261 4.058,-1.325 5.854,-0.161l20.162,13.068l24.601,-23.918z" clip-rule="evenodd" fill-rule="evenodd"/>
 </g>
</svg>