<svg xmlns="http://www.w3.org/2000/svg"><defs><font horiz-adv-x="1024"><font-face ascent="960" descent="-64" units-per-em="1024"/><glyph horiz-adv-x="512"/><glyph d="M933.926 716.642 512 960 319.21 849.383l429.827-233.877zM709.531 593.383 279.704 825.679 88.494 715.062 512 485.926zM512 441.679 67.951 681.877V192L512-64l444.049 256v489.877L512 441.679zm-91.654-270.222c-11.062-6.321-23.704-4.741-39.506 1.58l-158.025 74.272c-15.802 7.901-28.444 18.963-39.506 34.765s-15.802 31.605-15.802 47.407c0 14.222 4.741 23.704 14.222 30.025s20.543 6.321 34.765 1.58c0 3.16-1.58 6.321-1.58 9.481 0 11.062 3.16 18.963 11.062 22.123 7.901 4.741 17.383 3.16 28.444-1.58 4.741-3.16 9.481-6.321 15.802-9.481 4.741 7.901 12.642 12.642 23.704 14.222 9.481 1.58 20.543 0 33.185-6.321 17.383-7.901 31.605-22.123 44.247-39.506s18.963-36.346 18.963-53.728c0-4.741 0-9.481-3.16-15.802 14.222-7.901 25.284-18.963 34.765-34.765 9.481-14.222 14.222-30.025 14.222-44.247 1.58-14.222-4.741-25.284-15.802-30.025z" glyph-name="virtual" unicode="&#xe000;"/><glyph d="M933.926 716.642 512 960 319.21 849.383l429.827-233.877zM709.531 593.383 279.704 825.679 88.494 715.062 512 485.926zM512 441.679 67.951 681.877V192L512-64l444.049 256v489.877L512 441.679zM303.407 174.617 192.79 343.703l31.605-1.58 63.21-96.395v188.049l31.605-17.383V228.345l63.21 30.025 31.605-33.185-110.617-50.568z" glyph-name="downloadable" unicode="&#xe001;"/><glyph d="M512 958.42l-442.469-256V193.58L512-62.42l442.469 256V704L512 958.42zm279.704-524.642-52.148-28.444-121.679 66.37 55.309 31.605 118.519-69.531zm-63.21-34.766-55.309-30.025-120.099 64.79 53.728 31.605 121.679-66.37zM512 778.272l120.099-69.531-52.148-28.444-121.679 66.37L512 778.272zm-66.37-37.926 121.679-66.37L512 643.951l-120.099 64.79 53.728 31.605zm-93.235-237.037 120.099-69.531-52.148-28.444-121.679 66.37 53.728 31.605zm-66.37-37.926 121.679-66.37-55.309-30.025-120.099 64.79 53.728 31.605zm191.21-178.568-124.84-72.691-124.84 72.691v139.062l124.84-67.951 124.84 67.951V286.815zM387.16 560.198V699.26L512 631.309l124.84 67.951V560.198L512 487.507l-124.84 72.691zm410.865-273.383-124.84-72.691-124.84 72.691v139.062l124.84-67.951 124.84 67.951V286.815z" glyph-name="grouped" unicode="&#xe002;"/><glyph d="M512 444.84 105.877 666.075v-450.37L512-18.172l406.123 233.877v450.37zm216.494 159.604 170.667 91.654-387.16 224.395-176.988-102.716zM512 484.346l181.728 99.556-395.062 213.333-175.407-101.136zM921.284-21.333h-47.407v7.901h39.506V3.951h7.901v-25.284zm-75.852 0h-42.667v7.901h42.667v-7.901zm-72.691 0h-42.667v7.901h42.667v-7.901zm-71.111 0h-42.667v7.901h42.667v-7.901zm-72.692 0h-42.667v7.901h42.667v-7.901zm-72.691 0H513.58v7.901h42.667v-7.901zm-72.691 0h-42.667v7.901h42.667v-7.901zm-72.692 0h-42.667v7.901h42.667v-7.901zm-71.111 0h-42.667v7.901h42.667v-7.901zm-72.691 0h-42.667v7.901h42.667v-7.901zm-72.692 0h-42.667v7.901h42.667v-7.901zm-72.691 0h-20.543v31.605h7.901v-23.704h12.642v-7.901zm799.605 53.728h-7.901v42.667h7.901V32.395zm-812.247 6.321h-7.901v42.667h7.901V38.716zm812.247 66.37h-7.901v42.667h7.901v-42.667zm-812.247 4.741h-7.901v42.667h7.901v-42.667zm812.247 66.371h-7.901v42.667h7.901v-42.667zm-812.247 6.321h-7.901v42.667h7.901v-42.667zm812.247 66.37h-7.901v42.667h7.901v-42.667zm-812.247 6.321h-7.901v42.667h7.901V255.21zm812.247 66.37h-7.901v42.667h7.901V321.58zm-812.247 6.321h-7.901v42.667h7.901v-42.667zm812.247 66.371h-7.901v42.667h7.901v-42.667zm-812.247 6.321h-7.901v42.667h7.901v-42.667zm812.247 66.37h-7.901v42.667h7.901v-42.667zm-812.247 4.741h-7.901v42.667h7.901v-42.667zm812.247 67.95h-7.901v42.667h7.901v-42.667zm-812.247 4.741h-7.901v44.247h7.901v-44.247zm812.247 66.37h-7.901v42.667h7.901v-42.667zm-812.247 6.321h-7.901v42.667h7.901v-42.667zm812.247 66.371h-7.901v42.667h7.901v-42.667zm-812.247 6.321h-7.901v42.667h7.901v-42.667zm812.247 66.37h-7.901v42.667h7.901v-42.667zm-812.247 6.321h-7.901v42.667h7.901v-42.667zm812.247 66.371h-7.901v42.667h7.901V828.84zm-812.247 6.32h-7.901v42.667h7.901V835.16zm812.247 66.371h-7.901v12.642h-23.704v6.321h30.025v-18.963zm-812.247 4.741h-7.901v14.222h36.346v-7.901h-28.444v-6.321zm753.778 7.901h-42.667v6.321h42.667v-6.321zm-72.692 0h-42.667v6.321h42.667v-6.321zm-72.691 0h-42.667v6.321h42.667v-6.321zm-72.691 0h-42.667v6.321h42.667v-6.321zm-71.111 0h-42.667v6.321h42.667v-6.321zm-72.692 0h-42.667v6.321h42.667v-6.321zm-72.691 0H385.58v6.321h42.667v-6.321zm-72.691 0h-42.667v6.321h42.667v-6.321zm-72.692 0h-42.667v6.321h42.667v-6.321zm-72.691 0h-42.667v6.321h42.667v-6.321zm-69.531 3.16c0-19.2-15.565-34.765-34.765-34.765s-34.765 15.565-34.765 34.765c0 19.2 15.565 34.765 34.765 34.765s34.765-15.565 34.765-34.765zm0-938.666c0-19.2-15.565-34.765-34.765-34.765S71.112-40.533 71.112-21.333c0 19.2 15.565 34.765 34.765 34.765s34.765-15.565 34.765-34.765zm-34.765 415.605c-22.123 0-41.086 18.963-41.086 41.086s18.963 41.086 41.086 41.086c22.123 0 41.086-18.963 41.086-41.086S128 394.272 105.877 394.272zm0 67.95c-14.222 0-26.864-12.642-26.864-26.864s12.642-26.864 26.864-26.864 26.864 12.642 26.864 26.864-12.642 26.864-26.864 26.864zm812.246-67.95c-22.123 0-41.086 18.963-41.086 41.086s18.963 41.086 41.086 41.086 41.086-18.963 41.086-41.086c0-22.123-17.383-41.086-41.086-41.086zm0 67.95c-14.222 0-26.864-12.642-26.864-26.864s12.642-26.864 26.864-26.864 26.864 12.642 26.864 26.864-11.062 26.864-26.864 26.864zm34.766 455.111c0-19.2-15.565-34.765-34.765-34.765s-34.765 15.565-34.765 34.765c0 19.2 15.565 34.765 34.765 34.765s34.765-15.565 34.765-34.765zM512 876.247c-22.123 0-41.086 18.963-41.086 41.086s18.963 41.086 41.086 41.086c22.123 0 41.086-18.963 41.086-41.086S534.123 876.247 512 876.247zm0 67.951c-14.222 0-26.864-12.642-26.864-26.864S497.778 890.47 512 890.47c14.222 0 26.864 12.642 26.864 26.864S526.222 944.198 512 944.198zM512-62.42c-22.123 0-41.086 18.963-41.086 41.086S489.877 19.752 512 19.752c22.123 0 41.086-18.963 41.086-41.086S534.123-62.42 512-62.42zm0 67.951c-14.222 0-26.864-12.642-26.864-26.864S497.778-48.197 512-48.197c14.222 0 26.864 12.642 26.864 26.864S526.222 5.531 512 5.531zm440.889-26.864c0-19.2-15.565-34.765-34.765-34.765s-34.765 15.565-34.765 34.765c0 19.2 15.565 34.765 34.765 34.765s34.765-15.565 34.765-34.765z" glyph-name="variable" unicode="&#xe003;"/><glyph d="M511.984-63.952c282.992 0 512 228.96 512 511.904 0 283.024-229.008 512-512 512-283.024 0-511.952-228.96-511.952-512 0-282.944 228.912-511.904 511.952-511.904zm0 63.984C264.512.032 64.048 200.56 64.048 447.968 64.048 695.44 264.496 896 511.984 896c247.424 0 447.984-200.528 447.984-448.032C959.952 200.56 759.424.032 511.984.032zM322.096 437.44v-51.2h82.496l-89.536-96.704c-11.392-11.392-10-34.112 2.832-48.336 12.784-12.832 29.872-14.208 42.624-2.832l89.584 96.656v-76.752h51.248V437.44H322.096zm384.048 25.648v51.152h-86.752l89.584 95.264c11.392 11.392 9.952 31.328-2.832 45.504-12.864 12.832-28.528 14.208-39.904 1.44l-88.096-93.872.016 79.664h-51.248V463.088h179.232z" glyph-name="contract" unicode="&#xe004;"/><glyph d="M524.768 639.984v-51.2h82.496l-236.08-233.232v79.616h-51.152V256.016h179.152v51.2h-86.72l240.304 230.416v-76.8h51.248v179.152H524.768zM511.984-63.952c282.992 0 512 228.96 512 511.904 0 283.024-229.008 512-512 512-283.024 0-511.952-228.96-511.952-512 0-282.944 228.912-511.904 511.952-511.904zm0 63.984C264.512.032 64.048 200.56 64.048 447.968 64.048 695.44 264.496 896 511.984 896c247.424 0 447.984-200.528 447.984-448.032C959.952 200.56 759.424.032 511.984.032z" glyph-name="expand" unicode="&#xe005;"/><glyph d="M512 441.679 67.951 681.877V192L512-64l444.049 256v489.877zm237.037 173.827 184.889 101.136L512 960 319.21 849.383zM512 485.926l197.531 107.457-429.827 232.296-191.21-110.617z" glyph-name="simple" unicode="&#xe006;"/><glyph d="M268.88 486.464v-76.848h204.752V204.864h76.848l-.016 204.768h204.752v76.848l-204.752-.016v204.752h-76.848V486.464H268.88zM.048 448.048c0-283.024 228.96-512 512-512 282.944 0 511.904 228.96 511.904 512 0 282.944-228.96 511.904-511.904 511.904-283.04 0-512-228.96-512-511.904zm63.984 0c0 247.392 200.528 447.936 448.032 447.936C759.456 895.984 960 695.456 960 448.048 960 200.576 759.472.016 512.064.016 264.56.032 64.032 200.56 64.032 448.048z" glyph-name="plus" unicode="&#xe007;"/><glyph d="M551.856 243.168l136.48 140.816 34.16 35.552 17.04 18.512L560.384 627.2l-51.2-52.688 82.496-88.144H345.664c-28.48 0-51.248-22.72-51.248-51.2s22.768-51.2 51.248-51.2h243.184l-86.8-89.632 49.808-51.168zm-39.808-307.12c282.944 0 511.904 228.96 511.904 511.904 0 283.024-228.96 512-511.904 512-283.04 0-512-228.96-512-511.984 0-282.96 228.96-511.92 512-511.92zm0 63.984C264.576.032 64.016 200.56 64.016 447.968 64.016 695.44 264.544 896 512.048 896c247.392 0 447.936-200.528 447.936-448.032C959.968 200.56 759.44.032 512.048.032z" glyph-name="right" unicode="&#xe008;"/><glyph d="M716.848 487.808 576.032 624.336 540.48 658.4l-18.512 17.136L332.8 496.368l52.688-51.296 88.144 82.496v-246c0-28.432 22.72-51.2 51.2-51.2s51.2 22.768 51.2 51.2v243.184l89.632-86.704 51.184 49.76zm307.104-39.84c0 283.024-228.96 512-511.904 512-283.04-.016-512-228.976-512-512 0-282.944 228.96-511.904 512-511.904 282.944-.016 511.904 228.944 511.904 511.904zm-63.984 0C959.968 200.576 759.44.032 512.032.032 264.56.032 64 200.56 64 447.968 64 695.44 264.528 896 512.032 896c247.408-.032 447.936-200.56 447.936-448.032z" glyph-name="up" unicode="&#xe009;"/><glyph d="M307.168 408.192l140.816-136.528 35.552-34.064 18.512-17.136L691.2 399.632l-52.688 51.296-88.144-82.496v246c0 28.432-22.72 51.2-51.2 51.2s-51.2-22.768-51.2-51.2V371.248l-89.632 86.704-51.168-49.76zM.048 448.048c0-283.024 228.96-512 511.904-512 283.024 0 512 228.96 512 512 0 282.944-228.96 511.904-512 511.904C229.008 959.952.048 730.992.048 448.048zm63.984 0c0 247.392 200.528 447.936 447.936 447.936C759.44 895.984 960 695.456 960 448.048 960 200.576 759.472.016 511.968.016 264.56.032 64.032 200.56 64.032 448.048z" glyph-name="down" unicode="&#xe00a;"/><glyph d="M472.192 652.848 335.664 512.032 301.6 476.48l-17.136-18.512 179.152-189.152 51.296 52.688-82.496 88.144h246c28.432 0 51.2 22.72 51.2 51.2s-22.768 51.2-51.2 51.2H435.232l86.704 89.632-49.744 51.168zm39.856 307.104c-283.04 0-512-228.96-512-511.904 0-283.024 228.96-512 512-512 282.944 0 511.904 228.96 511.904 512 0 282.944-228.96 511.904-511.904 511.904zm0-63.984c247.392 0 447.936-200.528 447.936-447.936C959.984 200.56 759.456 0 512.048 0 264.576 0 64.016 200.528 64.016 448.032c.016 247.408 200.544 447.936 448.032 447.936z" glyph-name="left" unicode="&#xe00b;"/><glyph d="M844.736 115.2 588.832 371.152 409.584 192l-76.752 76.8-153.6-153.6 665.504-.016zM281.632 473.6c0-42.672 34.16-76.848 76.752-76.848 42.72 0 76.848 34.16 76.848 76.848 0 42.592-34.112 76.752-76.848 76.752a76.494 76.494 0 0 1 -76.752-76.752zm665.536 230.352V12.8l-870.336.016v691.152l870.336-.016zm76.816 256H.032V-63.952H948.56c24.208 0 34.16 8.464 49.76 24.16 17.136 15.648 25.648 38.432 25.648 61.104v938.64z" glyph-name="image" unicode="&#xe00c;"/><glyph d="M752.352 878.896c-52.688 51.2-137.952 51.2-190.544-1.392L82.496 398.192C29.92 345.6 29.92 260.336 81.104 207.648l17.04-17.04 66.832 68.224-44.064 44.064 536.16 536.192 44.064-44.064 68.224 66.832-17.008 17.04zM254.608 34.144l17.04-17.04c52.688-51.2 137.952-51.2 190.544 1.392l479.312 479.312c52.592 52.592 52.592 137.872 1.392 190.544l-17.04 17.04-66.832-68.224 44.064-44.064-536.16-536.176-44.064 44.064-68.256-66.848zM992.656 950c-12.784 12.832-32.72 12.832-45.504 1.44L634.304 638.544c-11.392-12.784-11.392-32.672 0-45.456l22.768-22.768c12.784-11.392 32.672-11.392 45.456 0l312.912 312.832c11.392 12.784 11.392 32.72-1.44 45.504L992.656 950zM366.928 325.696c-12.784 11.392-32.672 11.392-45.456 0L8.56 12.864C-2.832.08-2.832-19.856 10-32.64l21.344-21.344c12.784-12.832 32.72-12.832 45.504-1.44l312.848 312.896c11.392 12.784 11.392 32.672 0 45.456l-22.768 22.768z" glyph-name="link" unicode="&#xe00d;"/><glyph d="M358.384 524.8 281.632 448h76.752V217.6l-76.752.016v-51.152h204.752v51.152h-76.8l-.016 307.184h-51.184zm230.448 0c-28.528 0-51.2-22.768-51.2-51.152V217.6c0-28.384 22.688-51.152 51.2-51.152h102.4c28.432 0 51.2 22.768 51.2 51.152l-.016 256.048c0 28.384-22.768 51.152-51.2 51.152H588.832zm0-51.152h102.4V217.6h-102.4v256.048zM947.168 678.4V12.848l-870.336.016v665.552l870.336-.016zm76.816 281.6H.032V-64H948.56c24.208 0 34.16 8.56 49.76 24.16 17.136 15.744 25.648 38.432 25.648 61.2V960zM755.2 857.568a38.26 38.26 0 0 0 38.384-38.384c0-21.344-17.088-38.432-38.384-38.432a38.281 38.281 0 0 0 -38.432 38.432c.016 21.296 17.088 38.384 38.432 38.384zm-511.984 0c21.392 0 38.432-17.088 38.432-38.384 0-21.344-17.04-38.432-38.432-38.432a38.312 38.312 0 0 0 -38.432 38.432c0 21.296 17.136 38.384 38.432 38.384z" glyph-name="calendar" unicode="&#xe00e;"/><glyph d="M153.284 294.716C69.531 294.716 0 362.667 0 448c0 83.753 67.951 153.284 153.284 153.284 83.753 0 153.284-67.951 153.284-153.284 0-83.753-69.531-153.284-153.284-153.284zm358.716 0c-83.753 0-153.284 67.951-153.284 153.284 0 83.753 67.951 153.284 153.284 153.284 83.753 0 153.284-67.951 153.284-153.284 0-83.753-69.531-153.284-153.284-153.284zm358.716 0c-83.753 0-153.284 67.951-153.284 153.284 0 83.753 67.951 153.284 153.284 153.284C954.469 601.284 1024 533.333 1024 448c0-83.753-67.951-153.284-153.284-153.284z" glyph-name="processing" unicode="&#xe00f;"/><glyph d="M305.824 428.8c0-108.096 92.448-196.24 206.144-196.24 113.84 0 206.288 88.144 206.288 196.24 0 46.944-18.512 91.056-49.808 125.136 204.8-46.944 355.536-172.08 355.536-172.08v91.056s-230.4 190.544-509.136 190.544C237.52 663.44.048 472.912.048 472.912v-91.056S150.784 502.72 352.752 552.544c-28.464-34.176-46.928-76.8-46.928-123.744z" glyph-name="view" unicode="&#xe010;"/><glyph d="M512 960C229.136 960 0 730.864 0 448S229.136-64 512-64c282.864 0 512 229.136 512 512S794.864 960 512 960zM290.765 354.765c-52.148 0-94.815 42.667-94.815 94.815s42.667 94.815 94.815 94.815c52.148 0 94.815-42.667 94.815-94.815 0-53.728-42.667-94.815-94.815-94.815zm221.235 0c-52.148 0-94.815 42.667-94.815 94.815s42.667 94.815 94.815 94.815c52.148 0 94.815-42.667 94.815-94.815 0-53.728-42.667-94.815-94.815-94.815zm221.235 0c-52.148 0-94.815 42.667-94.815 94.815s42.667 94.815 94.815 94.815c52.148 0 94.815-42.667 94.815-94.815 0-53.728-42.667-94.815-94.815-94.815z" glyph-name="status-processing" unicode="&#xe011;"/><glyph d="M512 960C229.136 960 0 730.864 0 448S229.136-64 512-64c282.864 0 512 229.136 512 512S794.864 960 512 960zm-33.185-575.21c-3.16 3.16-7.901 6.321-14.222 11.062-12.642 12.642-18.963 28.444-18.963 47.407 0 1.58 0 3.16 1.58 6.321s1.58 6.321 1.58 6.321l64.79 320.79 64.79-320.79 202.272-213.333L478.815 384.79z" glyph-name="status-pending" unicode="&#xe012;"/><glyph d="M512 960C229.136 960 0 730.864 0 448S229.136-64 512-64c282.864 0 512 229.136 512 512S794.864 960 512 960zm286.025-715.852-82.173-82.173L510.42 365.827 306.568 161.975l-82.173 82.173L428.247 448 224.395 651.852l82.173 82.173L510.42 530.173l205.432 203.852 82.173-82.173L592.593 446.42l205.432-202.272z" glyph-name="status-cancelled" unicode="&#xe013;"/><glyph d="M512 960C229.136 960 0 730.864 0 448S229.136-64 512-64c282.864 0 512 229.136 512 512S794.864 960 512 960zm289.185-712.691H360.296v-80.593L200.691 286.815l159.605 120.099v-80.593h360.296V446.42l80.593 60.049v-259.16zM681.086 489.086v80.593H320.79V449.58l-80.593-60.049v260.741h440.889v80.593l159.605-120.099-159.605-121.679z" glyph-name="status-refunded" unicode="&#xe014;"/><glyph d="M512 960C229.136 960 0 730.864 0 448S229.136-64 512-64c282.864 0 512 229.136 512 512S794.864 960 512 960zm-33.185-785.383h-86.914L194.37 436.938l86.914 82.173 153.284-121.679 308.148 327.111 86.914-61.63-350.815-488.296z" glyph-name="status-completed" unicode="&#xe015;"/><glyph d="M512 960c69.531 0 135.901-14.222 199.111-41.086s116.938-63.21 162.765-109.037c45.827-45.827 82.173-99.556 109.037-162.765s41.086-129.58 41.086-199.111-14.222-135.901-41.086-199.111-63.21-116.938-109.037-162.765S774.32 3.952 711.111-22.912C647.901-49.776 581.531-63.998 512-63.998S376.099-49.776 312.889-22.912 195.951 40.298 150.124 86.125c-45.827 45.827-82.173 99.556-109.037 162.765S.001 378.47.001 448.001s14.222 135.901 41.086 199.111c26.864 63.21 63.21 116.938 109.037 162.765s99.556 82.173 162.765 109.037C376.099 947.358 442.469 960 512 960zm72.691-598.914 22.123 412.444h-189.63l22.123-412.444H584.69zm-6.321-214.913c15.802 14.222 23.704 34.765 23.704 61.63s-7.901 47.407-23.704 61.63c-15.802 14.222-37.926 22.123-67.951 22.123s-52.148-7.901-67.951-22.123c-15.802-14.222-23.704-34.765-23.704-61.63 0-25.284 7.901-45.827 23.704-61.63 15.802-14.222 39.506-22.123 67.951-22.123 30.025 0 52.148 6.321 67.951 22.123z" glyph-name="status-failed" unicode="&#xe016;"/><glyph d="M.032 418.192 294.416 128.08l35.552-34.176 18.512-17.088 675.504 665.6-78.224 76.768L346.992 229.04 76.832 493.552z" glyph-name="check" unicode="&#xe017;"/><glyph d="M550.384 348.432c91.056 15.648 140.768 76.848 140.768 176.32 0 113.84-65.472 179.2-179.152 179.2-109.536 0-172.128-59.712-179.248-166.368h51.264c7.072 78.224 46.944 115.168 128 115.168 85.312 0 127.952-42.672 127.952-128 0-71.104-28.432-110.88-89.584-123.744v8.512l-76.8-25.552v-76.752h76.8l.016 41.216zM473.6 256.016v-76.8h76.8v76.8h-76.8zM.016 447.968c0-282.944 228.96-511.904 512-511.904 282.944 0 511.952 228.96 511.952 511.904 0 283.024-229.008 511.984-511.952 511.984-283.04 0-512-228.96-512-511.984zm64.032 0c0 247.472 200.48 448 447.968 448 247.392 0 447.936-200.528 447.936-448.032C959.952 200.544 759.424 0 512.016 0 264.528.032 64.048 200.56 64.048 447.968z" glyph-name="query" unicode="&#xe018;"/><glyph d="M664.16 192.048c8.56 0 14.256 1.392 19.904 5.696-9.952 2.784-18.512 7.072-24.16 12.784C647.12 224.784 640 244.592 640 261.728V772.24c0 17.04 7.12 27.04 19.904 41.2C672.736 826.304 698.288 832 715.36 832h1.392l.016 68.288c0 16.992-5.648 32.672-18.464 45.456C685.504 958.512 681.2 960 664.16 960H75.424c-17.104 0-42.656-5.728-55.472-18.512C7.168 927.28.048 917.28.048 900.288v-638.56c0-17.136 7.12-36.944 19.904-51.2 12.832-12.784 38.384-18.464 55.456-18.464H664.16zm52.592 76.8V755.2l230.4-51.248-.016-435.104H716.752zm254.56 511.904L716.752 832h-1.376c-17.088 0-42.624-5.696-55.456-18.56-12.784-14.16-19.904-24.16-19.904-41.2V261.712c0-17.136 7.12-36.944 19.904-51.2 5.648-5.696 14.208-10 24.16-12.784 10-4.304 21.392-5.696 31.28-5.696h255.952c17.088 0 21.392 5.696 34.16 18.464 12.784 14.256 18.464 34.064 18.464 51.2V721.04c0 17.088-5.696 32.672-18.464 45.552-12.768 12.768-17.072 14.16-34.16 14.16zM76.8 25.632C76.8-24.08 116.656-64 166.432-64c49.808 0 89.632 39.904 89.632 89.632 0 49.76-39.824 89.632-89.632 89.632-49.776-.016-89.632-39.872-89.632-89.632zm691.2 0C768-24.08 807.776-64 857.584-64s89.584 39.904 89.584 89.632c0 49.76-39.776 89.632-89.584 89.632S768 75.392 768 25.632z" glyph-name="truck-1" unicode="&#xe019;"/><glyph d="M303.407 124.049c0-45.383-36.79-82.173-82.173-82.173s-82.173 36.79-82.173 82.173 36.79 82.173 82.173 82.173 82.173-36.79 82.173-82.173zm688.988 570.47H731.654v175.407c0 17.383-14.222 31.605-31.605 31.605H31.605C14.222 901.531 0 887.309 0 869.926V155.654c0-17.383 14.222-31.605 31.605-31.605h60.049c0 71.111 58.469 129.58 129.58 129.58s129.58-58.469 129.58-129.58h317.63c0 4.741 0 11.062 1.58 15.802v4.741c0 3.16 1.58 7.901 1.58 11.062 0 1.58 0 3.16 1.58 3.16 3.16 9.481 6.321 18.963 12.642 28.444l1.58 1.58c3.16 4.741 4.741 7.901 7.901 11.062 0 0 0 1.58 1.58 1.58 6.321 7.901 14.222 15.802 22.123 22.123l14.222 9.481c18.963 11.062 41.086 17.383 64.79 17.383 71.111 0 129.58-58.469 129.58-129.58h66.37c17.383 0 31.605 14.222 31.605 31.605v505.679c-1.58 22.123-15.802 36.346-33.185 36.346zm-113.778-570.47c0-45.383-36.79-82.173-82.173-82.173s-82.173 36.79-82.173 82.173 36.79 82.173 82.173 82.173 82.173-36.79 82.173-82.173z" glyph-name="truck-2" unicode="&#xe01a;"/><glyph d="M568.896 819.232h-18.432v-81.056c11.296-12.832 16.992 5.696 25.552-15.696v-49.712c0-7.12 10-11.392 14.208-11.392 25.6 0 91.056 68.224 113.744 85.264-44.016 39.856-90.96 58.32-135.072 72.592zm-95.264 0h-24.16c-76.752-17.136-163.6-54.064-231.84-160.736v-7.12c4.304 2.88 14.256 5.696 17.088 5.696 7.072 0 7.072-2.832 8.56-5.696v-55.408c0-12.832 34.064-103.824 49.76-108.096 8.56-2.88 17.088 1.44 22.72-4.272 17.04-19.904 22.768-49.808 36.992-68.224 21.344-28.528 54.032-59.808 82.496-71.104 9.952-7.168 29.872 4.224 38.384-11.392v-89.632c0-18.512 34.112 4.272 34.112-29.904v-9.904c-4.224-18.512-25.552 2.832-34.112-18.512V34.192c4.272-8.512 24.16-8.512 34.112-8.512 0 0 39.856-2.88 39.856 14.208 0 19.952-22.768 11.392-28.48 12.784 22.768 26.992 44.112 56.896 69.712 81.104 36.944 34.112 46.896 72.496 61.104 100.976 5.696 12.784 14.208 32.672 14.208 36.944 0 29.872-115.168 83.888-122.256 86.752h-78.272c-24.16 11.392-51.152 36.992-66.768 63.984v56.896l5.648 7.168h39.824l5.696-7.168V423.92c1.44-4.304 14.208-11.392 18.464-11.392 5.696 0 2.88 7.072 7.12 11.392v99.488c0 15.6 35.552 36.992 39.824 39.824h55.472c4.272 0 21.344 4.272 21.344 14.16 0 21.392-29.872-5.648-39.776 5.728v54.064c0 21.296-28.528 14.16-34.16 17.04 14.208 25.6 28.432 36.992 28.432 54.064 0 7.072-2.832 9.904-5.648 11.296-10 2.88-22.768 0-31.328 7.168-9.952 7.072-32.72 18.464-34.112 35.552v56.928zM.048 448.048c0-283.024 228.96-512 512-512 282.944 0 511.904 228.96 511.904 512 0 282.944-228.96 511.904-511.904 511.904-283.04 0-512-228.96-512-511.904zm63.984 0c0 247.392 200.528 447.936 448.032 447.936C759.456 895.984 960 695.456 960 448.048 960 200.576 759.472.016 512.064.016 264.56.032 64.032 200.56 64.032 448.048z" glyph-name="globe" unicode="&#xe01b;"/><glyph d="M.048 338.48c14.16-63.984 39.824-125.088 75.376-179.152 41.248 14.16 88.192 5.648 120.912-27.04 32.672-32.72 41.2-79.616 26.992-120.816 54.032-35.552 115.216-61.2 179.152-75.456 17.088 44.112 59.76 75.456 109.488 75.456 49.808 0 92.496-31.328 109.536-75.456 64.032 14.256 125.184 39.904 179.248 75.456-14.256 41.2-5.728 88.096 26.992 120.816 32.72 32.672 79.664 41.2 120.864 27.04 35.552 54.064 61.104 115.168 75.376 179.152-44.064 17.136-75.376 59.712-75.376 109.536s31.28 92.4 75.376 109.536c-14.256 63.984-39.824 125.088-75.376 179.152-41.2-14.16-88.144-5.648-120.864 27.04-32.72 32.72-41.248 79.616-26.992 120.816-54.096 35.536-115.248 61.184-179.28 75.44-17.04-44.112-59.712-75.456-109.536-75.456-49.712 0-92.4 31.328-109.488 75.456-63.936-14.256-125.136-39.904-179.152-75.456 14.208-41.2 5.696-88.096-26.992-120.816-32.72-32.672-79.664-41.2-120.912-27.04C39.872 682.608 14.208 621.504.048 557.52c44.064-17.136 75.376-59.712 75.376-109.536S44.112 355.6.048 338.48zM153.6 448c0 197.68 160.784 358.4 358.352 358.4 197.728 0 358.4-160.736 358.4-358.4S709.664 89.6 511.952 89.6C314.384 89.6 153.6 250.336 153.6 448z" glyph-name="gear" unicode="&#xe01c;"/><glyph d="M204.848 655.616v149.312c-1.488 21.392-10 38.432-25.648 54.064-15.6 15.648-45.456 24.16-69.616 24.16H74.032c-22.768 0-32.768-11.392-49.808-26.992C10 841.952 1.44 826.304.048 806.4h128V274.496c0-22.72 8.56-42.672 25.552-58.272 17.088-15.696 46.944-24.16 69.712-24.16h476.384c22.72 0 32.72 11.344 49.808 26.992 14.16 14.256 22.688 29.904 24.16 49.808H204.816v78.192c7.072-1.44 12.784-1.44 18.464-1.44h520.512c24.16 0 95.264 12.832 112.352 29.904 17.04 15.648 28.432 31.248 39.824 55.408L1023.92 725.36c0 22.72-9.904 42.624-27.04 58.272-17.04 15.648-26.992 22.768-49.76 22.768H223.312c-5.696 0-11.392 0-18.464-1.488v-75.376h742.304l-128-307.2-614.304.016v233.264zM614.4 76.816c0-35.552 28.48-63.984 64.032-63.984s63.984 28.432 63.984 63.984-28.432 63.984-63.984 63.984S614.4 112.368 614.4 76.816zm-511.952 0c0-35.552 28.432-63.984 63.984-63.984s63.984 28.432 63.984 63.984-28.432 63.984-63.984 63.984-63.984-28.432-63.984-63.984z" glyph-name="cart" unicode="&#xe01d;"/><glyph d="M665.552 217.616H409.648v76.8h255.904v-76.8zm-307.104 0H179.2v76.8h179.248v-76.8zm588.688 358.336H76.8V115.248h870.352l-.016 460.704zm0 204.8H76.8V652.8h870.352l-.016 127.952zm0 76.816c22.768 0 32.72-7.072 49.76-22.72 17.136-15.648 27.04-35.552 27.04-58.32V123.792c0-22.768-8.512-45.552-25.552-61.152-15.696-15.6-25.648-24.16-49.808-24.16H95.312c-22.768 0-52.592 8.56-69.712 24.16C8.56 78.208.048 100.992.048 123.76v652.736c0 22.768 8.512 41.296 25.552 56.896 15.648 15.6 46.944 24.16 69.712 24.16h851.824z" glyph-name="card" unicode="&#xe01e;"/><glyph d="M819.2 166.448h-76.8V601.6h76.8V166.448zm-179.248 0H563.2V499.2h76.752V166.448zm-179.152 0h-76.752V678.4H460.8V166.448zm-179.2 0h-76.8V371.2h76.8V166.448zM947.136 806.4H76.848V89.6h870.304l-.016 716.8zm24.176 76.752c17.136 0 21.344-1.44 34.16-14.208 12.784-12.784 18.512-28.48 18.512-45.504V82.56c0-17.136-5.728-37.04-18.512-51.296-12.832-12.784-17.04-18.432-34.16-18.432l-895.856.032c-17.136 0-42.72 5.648-55.504 18.432C7.168 45.552 0 65.456 0 82.592l-.016 740.832c0 17.04 7.168 27.04 19.952 41.296 12.784 12.784 38.384 18.432 55.504 18.432l895.872-.016z" glyph-name="stats" unicode="&#xe01f;"/><glyph d="M511.968 934.4l157.904-321.456 354.048-51.152-255.904-248.864L827.728-38.4l-315.76 164.992L196.304-38.4l59.712 351.328L.064 561.792l354.096 51.152z" glyph-name="star-full" unicode="&#xe020;"/><glyph d="M512.048 936.96 354.096 615.504.048 564.304 256 315.44 196.288-35.744l315.76 164.896L827.68-35.744 767.968 315.44l256 248.864-354.096 51.2L512.048 936.96zm0-142.208L630 558.672l265.952-38.432-191.968-183.456 45.552-258.832-237.472 122.304L274.496 77.952l45.552 258.832L128 520.24l266 38.432 118.048 236.08z" glyph-name="star-empty" unicode="&#xe021;"/><glyph d="M511.936 955.696 89.648 537.632h844.704L511.936 955.696zM89.648 358.432 511.936-59.68l422.416 418.112H89.648z" glyph-name="up-down" unicode="&#xe022;"/><glyph d="M1023.952 729.552c0 28.528-27.04 51.2-59.712 51.2h-34.16c-32.672 0-59.712-22.688-59.712-51.2V-64h153.6v793.552zM588.8 908.8c0 28.432-27.04 51.2-59.728 51.2H494.96c-32.72 0-59.76-22.768-59.76-51.2V-63.984h153.6V908.8zM153.6 499.2c0 28.432-26.992 51.2-59.712 51.2H59.76C27.088 550.4.048 527.632.048 499.2V-64H153.6v563.2z" glyph-name="reports" unicode="&#xe023;"/><glyph d="M268.832 824.832c-157.856-157.856-177.76-401.088-55.504-573.104l-5.696-4.272L22.768 61.2C-7.104 32.672-7.104-14.176 21.328-42.624s75.376-28.48 103.776 1.392l186.288 184.944 4.352 5.648C487.776 27.056 730.992 46.96 888.8 204.816c176.368 174.896 180.592 457.92 8.56 628.608-170.704 172.048-453.648 167.744-628.528-8.592zm61.104-61.152c140.816 140.816 366.928 143.648 503.376 5.696 138-136.528 135.184-362.608-5.648-503.424-140.768-140.768-366.88-143.6-503.376-5.696-137.952 136.512-135.136 362.656 5.648 503.424z" glyph-name="search" unicode="&#xe024;"/><glyph d="M411.088 628.672c-65.424-65.472-75.408-164.976-29.872-241.84-1.488-1.392-2.88-2.832-4.304-4.224l-69.664-69.712c-19.904-18.464-19.904-49.76 0-69.664s51.2-19.904 69.664 0l69.712 69.664c1.392 1.44 2.832 2.832 4.224 4.304 76.848-45.552 176.368-35.552 241.84 29.872 76.752 76.8 76.752 201.92-1.488 280.128-78.192 78.24-203.328 78.24-280.112 1.472zm44.016-44.112c52.64 52.64 139.424 52.64 192.016-1.44 54.064-52.592 54.064-139.376 1.44-192.016-52.64-54.032-139.376-52.592-193.456 0-52.576 54.08-54.016 140.832 0 193.456zM.048 448.048c0-283.024 228.96-512 512-512 282.944 0 511.904 228.96 511.904 512 0 282.944-228.96 511.904-511.904 511.904-283.04 0-512-228.96-512-511.904zm63.984 0c0 247.392 200.528 447.936 448.032 447.936C759.456 895.984 960 695.456 960 448.048 960 200.576 759.472.016 512.064.016 264.56.032 64.032 200.56 64.032 448.048z" glyph-name="search-2" unicode="&#xe025;"/><glyph d="M611.568 492.08c0 51.2-29.904 122.304-112.4 122.304s-112.304-56.848-112.304-118.048c0-32.672 15.6-99.536 41.2-127.952 4.272-4.272 29.904-22.768 29.904-32.72 0-14.208-4.272-9.952-9.952-14.208-31.328-71.104-230.4-41.296-230.4-163.552 0-14.208 18.464-28.48 18.464-42.624h557.456v69.616c0 99.632-214.704 65.472-246.048 150.768 56.96 66.88 64.08 99.568 64.08 156.416zm335.568 211.872V12.848L76.8 12.864v691.088h870.336zM1023.952 960H.048V-64h948.528c24.16 0 34.112 8.56 49.808 24.16 17.04 15.744 25.552 38.432 25.552 61.2V960z" glyph-name="user2" unicode="&#xe026;"/><glyph d="M947.136 608.688V12.848l-819.088.016v-76.848h824.8c21.296 0 35.552 7.168 49.808 21.344 14.208 14.208 21.296 34.16 21.296 52.64v822h-76.8V608.688zM819.152 729.552V140.8H76.8v588.752h742.352zM896 960H.048V64h824.848c21.296 0 29.824 7.168 44.064 21.392 14.256 14.16 27.04 38.384 27.04 58.272V960z" glyph-name="windows" unicode="&#xe027;"/><glyph d="M947.136 703.952H76.8V12.848h870.352l-.016 691.104zM1023.952 960V21.376c0-22.768-8.512-45.456-25.552-61.2-15.696-15.6-25.648-24.16-49.808-24.16H.048V960h1023.904z" glyph-name="note" unicode="&#xe028;"/><glyph d="M989.856 533.408 573.12 913.104c-45.456 58.32-92.4 58.32-137.952 0V675.632H78.256C35.632 675.632.064 632.96.064 578.88V310.096c0-52.592 34.112-95.264 76.8-95.264h358.304V-11.264c45.552-56.848 92.496-69.712 137.952-12.784l416.72 381.072c45.472 58.336 45.472 118.064.016 176.384zM76.864 445.232v153.6h435.104v255.952l460.8-409.552-460.8-409.552v255.936H76.864v153.616z" glyph-name="east" unicode="&#xe029;"/><glyph d="M426.624 925.824 46.832 507.712c-58.24-44.064-58.24-91.008 0-136.48H284.4V14.32c0-42.72 42.592-78.272 96.656-78.272H649.84c52.64 0 95.264 34.16 95.264 76.8v358.384H971.2c56.944 45.456 69.712 92.4 12.864 136.48L602.896 925.824c-58.32 45.552-118.032 45.552-176.272 0zm88.08-912.976H361.152V448h-256l409.552 460.784 409.648-460.8L668.32 448V12.848H514.704z" glyph-name="north" unicode="&#xe02a;"/><glyph d="M230.4 588.752V512h307.2v76.752H230.4zm102.4-153.6V307.2h460.752v127.952H332.8zm614.336 358.4V102.4H76.8v691.152h870.336zm24.176 76.784H75.424c-17.088 0-42.624-5.696-55.456-18.464-12.8-14.256-19.92-24.16-19.92-41.248V95.36c0-17.136 7.12-37.04 19.904-51.296C32.784 31.28 58.336 25.632 75.408 25.632h895.904c17.088 0 21.392 5.648 34.16 18.432 12.784 14.256 18.464 34.16 18.464 51.296l.016 715.264c0 17.088-5.696 32.72-18.464 45.504-12.784 12.832-17.088 14.208-34.176 14.208z" glyph-name="attributes" unicode="&#xe02b;"/><glyph d="M947.136 89.6H76.8v793.552h-1.376c-17.088 0-42.624-5.648-55.456-18.432-12.8-14.256-19.92-24.24-19.92-41.296V82.544c0-17.136 7.12-37.04 19.904-51.296 12.832-12.784 38.384-18.432 55.456-18.432h895.904c17.088 0 21.392 5.648 34.16 18.432 12.784 14.256 18.464 34.16 18.464 51.296v7.024l-76.8.016zm-76.784 281.6c0-42.624 34.16-76.8 76.8-76.8 42.72 0 76.8 34.16 76.8 76.8s-34.064 76.8-76.8 76.8c-42.64 0-76.8-34.16-76.8-76.8zm38.432 0c0 21.344 17.04 38.384 38.384 38.384s38.384-17.04 38.384-38.384-17.04-38.384-38.384-38.384-38.384 17.056-38.384 38.384zM520.512 642.848c12.832-24.16 38.384-41.248 68.272-41.248 31.28 0 56.848 18.464 69.712 44.064 130.816-28.432 199.072-137.952 233.232-221.84 9.904 11.392 25.552 19.904 41.2 22.768-36.944 82.4-119.44 214.704-268.784 248.864-8.512 34.064-38.384 59.712-75.376 59.712-36.944 0-68.272-27.04-75.376-61.2-170.688-49.76-251.744-258.784-278.736-351.264-32.72-9.904-55.504-38.336-55.504-73.888 0-42.672 34.16-76.8 76.848-76.8 42.592 0 76.752 34.112 76.752 76.8 0 29.872-17.04 55.408-42.672 68.224 31.328 106.704 99.616 264.56 230.432 305.808zm29.856 35.552c0 21.344 17.088 38.384 38.432 38.384 21.296 0 38.384-17.04 38.384-38.384s-17.088-38.384-38.384-38.384c-21.344.016-38.432 17.04-38.432 38.384zM217.632 268.848c0 21.296 17.088 38.336 38.432 38.336 21.296 0 38.384-17.04 38.384-38.336 0-21.392-17.088-38.432-38.384-38.432-21.344.016-38.432 17.04-38.432 38.432z" glyph-name="inventory" unicode="&#xe02c;"/><glyph d="M947.136 752.32V89.6H76.8v662.72l386.816-386.816c27.04-27.04 69.712-27.04 96.752 0L947.136 752.32zM119.488 806.4h785.024L544.688 445.136c-18.464-17.04-46.896-17.04-65.424 0L119.488 806.4zm851.824 76.752H75.424c-17.088 0-42.624-5.648-55.456-18.432-12.8-14.256-19.92-24.24-19.92-41.296V82.544c0-17.136 7.12-37.04 19.904-51.296 12.832-12.784 38.384-18.432 55.456-18.432h895.904c17.088 0 21.392 5.648 34.16 18.432 12.784 14.256 18.464 34.16 18.464 51.296l.016 740.88c0 17.04-5.696 32.72-18.464 45.504s-17.088 14.224-34.176 14.224z" glyph-name="mail" unicode="&#xe02d;"/><glyph d="M597.232-29.84l379.696 416.624c58.32 45.552 58.32 92.496 0 138H739.44v356.944c0 42.72-42.688 78.272-95.264 78.272H375.344c-54.032 0-96.656-34.16-96.656-76.848V524.8H53.984c-58.32-45.504-71.104-92.448-12.832-138L420.88-29.824c58.288-45.552 118.016-45.552 176.352-.016zm-88.24 912.992h153.6V448H918.64L508.992-12.784 99.488 448h256v435.152h153.504z" glyph-name="south" unicode="&#xe02e;"/><glyph d="M34.16 362.768 450.832-16.928c45.504-58.32 92.448-58.32 137.952 0v237.472h356.96c42.624 0 78.192 42.72 78.192 96.704V584.64c0 53.984-34.064 96.704-76.8 96.704H588.8v224.704c-45.504 58.272-92.448 71.104-137.952 12.784L34.16 539.136c-45.504-58.32-45.504-118.032 0-176.368zm912.976 88.176v-153.6H511.952V41.392L51.248 450.944l460.704 409.552V604.544h435.2l-.016-153.6z" glyph-name="west" unicode="&#xe02f;"/><glyph d="M943.632 883.184V654.176l76.8-56.848v302.848c0 17.136-5.696 32.72-18.512 45.552-12.784 12.784-17.04 14.256-34.112 14.256h-896c-16.992 0-42.592-5.696-55.36-18.512-12.88-14.256-19.968-24.16-19.968-41.296V5.712c0-17.04 7.072-36.944 19.952-51.2 12.784-12.784 38.384-18.464 55.36-18.464h896c17.088 0 21.344 5.696 34.112 18.464 12.832 14.256 18.512 34.16 18.512 51.2l.016 292.944-76.8-56.848V12.848H73.28v870.336h870.352zm-665.552-486.4h460.704V268.768l288.72 179.2-288.72 179.184V499.184H380.48c-66.848 0-102.4-35.552-102.4-102.4z" glyph-name="share" unicode="&#xe030;"/><glyph d="M922.288 332.832c2.88 8.512 4.272 17.04 5.696 25.6l-75.408 18.464c-1.392-8.512-2.88-17.088-5.696-24.16C794.336 146.496 583.856 21.36 377.616 74c-204.8 54.032-329.872 264.48-275.904 469.28 52.688 206.224 263.12 331.36 469.312 277.344 115.168-28.48 204.752-108.096 251.696-209.104l-110.88-65.376c-2.88-14.256 4.224-28.432 18.432-31.28l199.104-51.2c14.208-2.88 28.48 4.272 31.328 18.512l51.152 199.072c2.832 14.256-4.224 28.432-18.464 31.28l-103.776-61.104C832.72 767.984 726.064 860.4 589.552 895.952 342.064 960 90.32 810.608 26.336 563.184-37.632 315.712 111.648 64 359.152.08 606.576-64 858.256 85.392 922.288 332.832z" glyph-name="refresh" unicode="&#xe031;"/><glyph d="M48.384 857.568c-26.992 0-48.336-21.36-48.336-46.96v-8.464c0-25.648 21.344-46.944 48.336-46.944h927.232c27.04 0 48.336 21.296 48.336 46.944v8.464c0 25.6-21.296 46.944-48.336 46.944l-927.232.016zm0-358.368C21.392 499.2.048 477.856.048 452.256v-8.512c0-25.6 21.344-46.944 48.336-46.944h927.232c27.04 0 48.336 21.344 48.336 46.944v8.512c0 25.6-21.296 46.944-48.336 46.944H48.384zm0-358.4C21.392 140.8.048 119.52.048 93.872v-8.464c0-25.6 21.344-46.944 48.336-46.944l927.232-.016c27.04 0 48.336 21.344 48.336 46.944v8.464c0 25.648-21.296 46.944-48.336 46.944l-927.232.016z" glyph-name="navigation" unicode="&#xe032;"/><glyph d="M512 960C229.136 960 0 730.864 0 448S229.136-64 512-64c282.864 0 512 229.136 512 512S794.864 960 512 960zm221.235-605.235H290.766c-52.148 0-94.815 42.667-94.815 94.815s42.667 94.815 94.815 94.815h442.469c52.148 0 94.815-42.667 94.815-94.815s-42.667-94.815-94.815-94.815z" glyph-name="on-hold" unicode="&#xe033;"/><glyph d="M749.037 615.506l184.889 101.136L512 960 319.21 849.383zM512 485.926l197.531 107.457-429.827 232.296-191.21-110.617zm0-44.247L67.951 681.877V192L512-64l444.049 256v489.877L512 441.679zM366.617 169.877c0-9.481-6.321-12.642-15.802-6.321l-142.222 82.173c-9.481 4.741-15.802 15.802-15.802 25.284v142.222c0 9.481 6.321 12.642 15.802 6.321l110.617-63.21-31.605-12.642-63.21 36.346V269.433l110.617-63.21v47.407l31.605 12.642v-96.395zm47.408 52.148L382.42 256.79v48.988l-88.494-37.926-22.123 34.765 96.395 41.086-64.79 37.926-15.802 41.086 126.42-72.691v-128z" glyph-name="external" unicode="&#xe034;"/><glyph d="M571.664 837.952h193.632l-210.112-226.96c-26.736-26.72-23.472-80.064 6.64-113.488 29.968-30.064 70.096-33.296 100.048-6.624l210.24 226.848V537.6h120.256v420.512H571.664v-120.16zM452.256 386.448c-30.176 30.08-66.944 33.36-93.632 3.376l-206.736-220.32V356.48H31.616V-64h420.672V56.08H248.704l210.208 223.568c26.704 26.736 23.36 73.504-6.656 106.8z" glyph-name="expand-2" unicode="&#xe035;"/><glyph d="M66.272 303.072h193.632L49.776 76.112C23.04 49.392 26.304-3.952 56.432-37.36c29.968-30.08 70.08-33.312 100.032-6.624l210.24 226.848V2.736H486.96v420.496H66.272v-120.16zM967.616 933.84c-30.192 30.08-66.96 33.36-93.648 3.36L667.232 716.896v186.976H546.976v-420.48h420.672v120.064l-203.616-.016 210.224 223.584c26.72 26.736 23.36 73.52-6.64 106.816z" glyph-name="contract-2" unicode="&#xe036;"/><glyph d="M251.488-54.704c-32.48 0-63.04 12.528-86.192 35.264L37.552 92.864c-47.936 47.936-47.936 125.936 0 173.872l84.224 84.272c23.248 23.232 54.128 36 86.96 36 32.848 0 63.712-12.784 86.928-35.984-.016.032-.032.032-.032.032.144 0 8.352-6.448 20.32-6.448 12.592 0 21.04 7.152 21.408 7.456l264.448 264.512c-.016-.016-.032-.032-.048-.032-.112 0 6.464 8.256 6.464 20.32 0 7.664-2.688 13.824-4.928 17.6l-2.08 2.08c-47.936 47.936-47.936 125.936 0 173.872l84.272 84.272c23.216 23.216 54.08 36.016 86.928 36.016 32.48 0 63.04-12.512 86.192-35.264l127.76-112.304c23.248-23.232 36.032-54.112 36.032-86.944s-12.8-63.728-36.032-86.944L338.448-18.688c-23.232-23.216-54.096-36.016-86.96-36.016zM80.624 137.2 208.256 24.992c23.136-23.12 63.392-23.104 86.512 0l647.936 647.936c11.552 11.552 17.92 26.928 17.92 43.248 0 16.016-6.128 31.136-17.28 42.608L815.712 870.992c-23.152 23.12-63.392 23.104-86.512.016l-84.256-84.272c-11.552-11.552-17.936-26.912-17.936-43.248s6.368-31.696 17.936-43.248l8.048-8.768c7.76-11.312 17.056-29.952 17.072-54.576 0-37.024-21.472-60.8-23.92-63.376L379.92 307.312c-3.216-3.056-27.008-24.496-63.984-24.496-36.992 0-60.752 21.424-63.328 23.872-12.176 12.176-27.536 18.528-43.872 18.528s-31.712-6.368-43.264-17.936l-84.24-84.24c-23.616-23.616-23.824-61.936-.608-85.84z" glyph-name="phone" unicode="&#xe037;"/><glyph d="M1023.952.064H.048v29.808c0 12.192.448 24.448.912 36.688.432 11.52.88 23.04.88 34.56 0 142.928 134.192 179.824 242.016 209.456 67.552 18.56 131.376 36.112 149.376 72.064 3.072 6.112 6.24 12.912 8.64 18.208-3.696 5.024-12.592 14.624-20.592 23.264-4.336 4.672-9.088 9.776-14.192 15.472-24.784 27.456-82.4 104.56-82.4 227.152 0 140.08 83.328 227.088 217.488 227.088 142.896 0 217.632-117.808 217.632-234.208 0-98.752-14.48-159.616-101.472-265.52 28.288-41.776 104.72-60.88 178.88-79.424 106.256-26.576 226.72-56.688 226.72-168.432V.064zm-963.6 59.584h903.984v86.576c0 60.816-68.592 82.336-181.552 110.592-97.264 24.336-197.808 49.472-227.808 131.104l-6 16.336 11.28 13.248c90.944 106.832 99.952 153.52 99.952 242.112 0 60.4-33.024 174.608-158.032 174.608-137.376 0-157.872-104.944-157.872-167.488 0-101.92 46.88-164.896 67.056-187.248 4.896-5.44 9.488-10.368 13.632-14.848 22.16-23.872 38.144-41.12 38.144-66.432V392l-2.464-5.696s-7.296-16.784-14.144-30.4c-29.904-59.648-106.144-80.624-186.864-102.816-119.744-32.912-198.208-61.28-198.208-151.984 0-12.24-.464-24.544-.928-36.8-.064-1.568-.112-3.104-.176-4.656z" glyph-name="user" unicode="&#xe038;"/><glyph d="M5.264 448.048c0-283.024 228.96-512 511.904-512 283.024 0 512 228.96 512 512 0 282.928-228.96 511.904-512 511.904-282.944 0-511.904-228.96-511.904-511.904zm63.984 0c0 247.376 200.528 447.936 447.936 447.936 247.488 0 448.032-200.528 448.032-447.936C965.216 200.576 764.688.016 517.184.016 269.776.032 69.248 200.56 69.248 448.048z" glyph-name="status" unicode="&#xe039;"/><glyph d="M1023.952.064H.048v29.808c0 12.192.448 24.448.912 36.688.432 11.52.88 23.04.88 34.56 0 142.928 134.192 179.824 242.016 209.456 67.552 18.56 131.376 36.112 149.376 72.064 3.072 6.112 6.24 12.912 8.64 18.208-3.696 5.024-12.592 14.624-20.592 23.264-4.336 4.672-9.088 9.776-14.192 15.472-24.784 27.456-82.4 104.56-82.4 227.152 0 140.08 83.328 227.088 217.488 227.088 142.896 0 217.632-117.808 217.632-234.208 0-98.752-14.48-159.616-101.472-265.52 28.288-41.776 104.72-60.88 178.88-79.424 106.256-26.576 226.72-56.688 226.72-168.432V.064z" glyph-name="user-fill" unicode="&#xe03a;"/><glyph d="M251.488-54.704c-32.48 0-63.04 12.528-86.192 35.264L37.552 92.864c-47.936 47.936-47.936 125.936 0 173.872l84.224 84.272c23.248 23.232 54.128 36 86.96 36 32.848 0 63.712-12.784 86.928-35.984-.016.032-.032.032-.032.032.144 0 8.352-6.448 20.32-6.448 12.592 0 21.04 7.152 21.408 7.456l264.448 264.512c-.016-.016-.032-.032-.048-.032-.112 0 6.464 8.256 6.464 20.32 0 7.664-2.688 13.824-4.928 17.6l-2.08 2.08c-47.936 47.936-47.936 125.936 0 173.872l84.272 84.272c23.216 23.216 54.08 36.016 86.928 36.016 32.48 0 63.04-12.512 86.192-35.264l127.76-112.304c23.248-23.232 36.032-54.112 36.032-86.944s-12.8-63.728-36.032-86.944L338.448-18.688c-23.232-23.216-54.096-36.016-86.96-36.016z" glyph-name="phone-fill" unicode="&#xe03b;"/><glyph d="M5.264 448.048c0-283.024 228.96-512 511.904-512 283.024 0 512 228.96 512 512 0 282.928-228.96 511.904-512 511.904-282.944 0-511.904-228.96-511.904-511.904z" glyph-name="status-fill" unicode="&#xe03c;"/><glyph d="M612.192 533.664c0 6.896-3.136 51.6-28 51.6-37.36 0-46.704-72.256-46.704-82.624 0-3.408 3.152-58.496 28.032-58.496 34.192.032 46.672 72.288 46.672 89.52zm202.192 0c0 6.896-3.152 51.6-28.032 51.6-37.28 0-46.608-72.256-46.608-82.624 0-3.408 3.072-58.496 27.952-58.496 34.192.032 46.688 72.288 46.688 89.52zM141.296 959.232c-68.224 0-123.504-55.488-123.504-123.92v-650.72c0-68.432 55.296-123.92 123.504-123.92h339.808L604.608-63.264V60.672h278.048c68.224 0 123.52 55.472 123.52 123.92v650.72c0 68.432-55.296 123.92-123.52 123.92h-741.36zm526.864-422.16c0-55.088-31.088-154.88-102.64-154.88-6.208 0-18.496 3.616-25.424 6.016-32.512 11.168-50.192 49.696-52.352 66.256 0 0-3.072 17.792-3.072 40.752 0 22.992 3.072 45.328 3.072 45.328 15.552 75.728 43.552 106.736 96.448 106.736 59.072.032 83.968-58.528 83.968-110.208zM486.496 657.6c0-3.392-43.552-141.168-43.552-213.424v-75.712c-2.592-12.08-4.16-24.144-21.824-24.144-46.608 0-88.88 151.472-92.016 161.84-6.208-6.896-62.24-161.84-96.448-161.84-24.864 0-43.552 113.648-46.608 123.936C176.704 523.328 160 625.776 160 632.672c0 20.672 1.152 38.736 26.048 38.736 6.208 0 21.6-6.064 23.712-17.168 11.648-62.032 16.688-120.512 29.168-185.968 1.856-2.928 1.504-7.008 4.56-10.432 3.152 10.288 66.928 168.784 94.96 168.784 22.544 0 30.4-44.592 33.536-61.824 6.208-20.656 13.088-55.216 22.416-82.752 0 13.776 12.48 203.12 65.392 203.12 18.592-.032 26.704-6.928 26.704-27.568zM870.32 537.072c0-55.088-31.088-154.88-102.64-154.88-6.192 0-18.448 3.616-25.424 6.016-32.432 11.168-50.176 49.696-52.288 66.256 0 0-3.888 17.92-3.888 40.896s3.888 45.184 3.888 45.184c15.552 75.728 43.488 106.736 96.384 106.736 59.104.032 83.968-58.528 83.968-110.208z" glyph-name="woo" unicode="&#xe03d;"/><glyph d="M992.395 884.148H31.605C14.222 884.148 0 869.926 0 852.543V607.605c88.494 0 159.605-71.111 159.605-159.605S88.494 288.395 0 288.395V43.457c0-17.383 14.222-31.605 31.605-31.605h959.21c17.383 0 31.605 14.222 31.605 31.605v244.938c-88.494 0-159.605 71.111-159.605 159.605s71.111 159.605 159.605 159.605v244.938c1.58 17.383-12.642 31.605-30.025 31.605z" glyph-name="coupon" unicode="&#xe600;"/><glyph d="M0 421.136v55.309h330.272L219.655 587.062l26.864 55.309 192.79-192.79-192.79-192.79-26.864 55.309 110.617 110.617H0zm693.728 0 110.617-110.617-26.864-55.309L584.691 448l192.79 192.79 26.864-55.309-110.617-110.617H1024v-55.309H693.728zM478.815 960h64.79V-64h-64.79V960z" glyph-name="limit" unicode="&#xe601;"/><glyph d="M512 960C229.136 960 0 730.864 0 448S229.136-64 512-64c282.864 0 512 229.136 512 512S794.864 960 512 960zm197.531-202.272L203.852 252.049c-37.926 58.469-58.469 128-58.469 197.531 0 202.272 164.346 366.617 366.617 366.617 71.111-1.58 139.062-22.123 197.531-58.469zm110.617-112.197c37.926-58.469 58.469-128 58.469-197.531 0-202.272-164.346-366.617-366.617-366.617-71.111 0-139.062 20.543-197.531 58.469l505.679 505.679z" glyph-name="restricted" unicode="&#xe602;"/><glyph d="M999.966 815.419 879.845 935.54c-31.84 31.84-83.478 31.84-115.318 0L85.879 256.908.047-63.431l320.339 85.832.948-.948 678.648 678.648c31.84 31.84 31.84 83.478-.016 115.318zM107.401 93.617l34.162 127.5L284.612 78.068l-127.5-34.162-49.711 49.711zm720.49 523.559L681.587 763.48l120.184 120.184L948.075 737.36 827.891 617.176z" glyph-name="edit" unicode="&#xe603;"/><glyph d="M688.988 466.963h169.086v-72.691H688.988v72.691zM894.42 133.531H74.272v420.346H508.84c15.802 33.185 36.346 63.21 61.63 86.914H74.272V760.89H894.42v-66.37c26.864-12.642 50.568-28.444 72.691-47.407V756.15c0 22.123-9.481 39.506-25.284 55.309-15.802 14.222-25.284 22.123-47.407 22.123H91.655c-22.123 0-50.568-7.901-66.37-22.123S1.581 779.854 1.581 757.731V141.435c0-22.123 7.901-42.667 23.704-56.889s44.247-22.123 66.37-22.123h804.346c22.123 0 31.605 7.901 47.407 22.123s23.704 36.346 23.704 56.889v71.111c-22.123-18.963-45.827-34.765-72.691-47.407v-31.605zM774.321 678.716c-137.481 0-248.099-110.617-248.099-248.099s110.617-248.099 248.099-248.099 248.099 110.617 248.099 248.099-112.198 248.099-248.099 248.099zm-189.63-248.099c0 104.296 85.333 189.63 189.63 189.63s189.63-85.333 189.63-189.63-85.333-189.63-189.63-189.63-189.63 85.333-189.63 189.63zm-360.296 36.346v-72.691h259.16c-1.58 12.642-3.16 23.704-3.16 36.346s1.58 23.704 3.16 36.346h-259.16z" glyph-name="ccv" unicode="&#xe604;"/><glyph d="M794.864 503.309c-26.864 0-52.148 11.062-71.111 28.444-18.963-17.383-42.667-28.444-71.111-28.444-26.864 0-52.148 11.062-71.111 28.444-18.963-17.383-42.667-28.444-71.111-28.444-26.864 0-52.148 11.062-71.111 28.444-18.963-17.383-42.667-28.444-71.111-28.444-26.864 0-52.148 11.062-71.111 28.444-18.963-17.383-42.667-28.444-71.111-28.444s-52.148 11.062-71.111 28.444c-17.383-15.802-41.086-26.864-66.37-28.444V130.371c0-25.284 20.543-47.407 47.407-47.407h230.716v1.58c18.963 0 41.086 22.123 41.086 41.086h1.58v162.765c25.284-14.222 58.469-22.123 94.815-22.123s69.531 7.901 94.815 22.123V125.63h1.58c0-18.963 22.123-41.086 41.086-41.086v-1.58h230.716c25.284 0 47.407 20.543 47.407 47.407V504.89c-22.123 3.16-41.086 12.642-56.889 26.864-15.802-17.383-41.086-28.444-67.951-28.444zM319.21 294.716c0-17.383-14.222-31.605-31.605-31.605h-67.951c-17.383 0-31.605 14.222-31.605 31.605v67.951c0 17.383 14.222 31.605 31.605 31.605h67.951c17.383 0 31.605-14.222 31.605-31.605v-67.951zm508.839 0c0-17.383-14.222-31.605-31.605-31.605h-67.951c-17.383 0-31.605 14.222-31.605 31.605v67.951c0 17.383 14.222 31.605 31.605 31.605h67.951c17.383 0 31.605-14.222 31.605-31.605v-67.951zm165.926 518.321H28.444c-15.802 0-30.025-12.642-30.025-30.025V607.605c0-47.407 39.506-86.914 86.914-86.914 28.444 0 55.309 14.222 71.111 36.346 15.802-22.123 41.086-36.346 71.111-36.346s55.309 14.222 71.111 36.346c15.802-22.123 41.086-36.346 71.111-36.346 28.444 0 55.309 14.222 71.111 36.346 15.802-22.123 41.086-36.346 71.111-36.346s55.309 14.222 71.111 36.346c15.802-22.123 41.086-36.346 71.111-36.346 28.444 0 55.309 14.222 71.111 36.346 15.802-22.123 41.086-36.346 71.111-36.346 28.444 0 55.309 14.222 71.111 36.346 15.802-22.123 41.086-36.346 71.111-36.346 47.407 0 86.914 39.506 86.914 86.914v175.407c-1.58 17.383-14.222 30.025-31.605 30.025z" glyph-name="storefront" unicode="&#xe900;"/></font>
</defs>
</svg>
