<svg class="icon-loading" xmlns="http://www.w3.org/2000/svg" viewBox="0 0 32 32" width="32" height="32" fill="#17f29b">
    <path transform="translate(-8 0)" d="M4 12 A4 4 0 0 0 4 20 A4 4 0 0 0 4 12"> 
        <animateTransform attributeName="transform" type="translate" values="-8 0; 2 0; 2 0;" dur="0.8s" repeatCount="indefinite" begin="0" keytimes="0;.25;1" keySplines="0.2 0.2 0.4 0.8;0.2 0.6 0.4 0.8" calcMode="spline"  />
    </path>
    <path transform="translate(2 0)" d="M4 12 A4 4 0 0 0 4 20 A4 4 0 0 0 4 12"> 
        <animateTransform attributeName="transform" type="translate" values="2 0; 12 0; 12 0;" dur="0.8s" repeatCount="indefinite" begin="0" keytimes="0;.35;1" keySplines="0.2 0.2 0.4 0.8;0.2 0.6 0.4 0.8" calcMode="spline"  />
    </path>
    <path transform="translate(12 0)" d="M4 12 A4 4 0 0 0 4 20 A4 4 0 0 0 4 12"> 
        <animateTransform attributeName="transform" type="translate" values="12 0; 22 0; 22 0;" dur="0.8s" repeatCount="indefinite" begin="0" keytimes="0;.45;1" keySplines="0.2 0.2 0.4 0.8;0.2 0.6 0.4 0.8" calcMode="spline"  />
    </path>
    <path transform="translate(24 0)" d="M4 12 A4 4 0 0 0 4 20 A4 4 0 0 0 4 12"> 
        <animateTransform attributeName="transform" type="translate" values="22 0; 32 0; 32 0;" dur="0.8s" repeatCount="indefinite" begin="0" keytimes="0;.55;1" keySplines="0.2 0.2 0.4 0.8;0.2 0.6 0.4 0.8" calcMode="spline"  />
    </path>
</svg>
