<svg xmlns="http://www.w3.org/2000/svg" xmlns:xlink="http://www.w3.org/1999/xlink" viewBox="0 0 397.38 376.66"><defs><style>.a,.c,.r{fill:#9d1c1f;}.a,.q,.r{stroke:#c02026;}.a,.k,.l,.q,.r{stroke-miterlimit:10;}.a,.q{stroke-width:3.77px;}.b{isolation:isolate;}.d{clip-path:url(#a);}.e,.h{fill:#2d2d2d;}.f,.l{fill:#fff;}.g{fill:#525455;}.g,.h,.j,.p{fill-rule:evenodd;}.i,.j,.p{fill:#9e9e9f;}.k{fill:#f1f2f2;stroke-width:0.3px;}.k,.l{stroke:#525355;}.l{stroke-width:0.2px;}.m{fill:#9f9fa0;}.n{fill:#525355;}.o{fill:#008cc1;}.p{opacity:0.06;mix-blend-mode:multiply;}.q{fill:none;}.r{stroke-width:2.83px;}.s{fill:#f0f0f0;}</style><clipPath id="a"><circle class="a" cx="198.46" cy="209.28" r="165.5"/></clipPath></defs><title>2fa1</title><g class="b"><circle class="c" cx="198.46" cy="209.28" r="165.5"/><g class="d"><rect class="e" x="50.99" y="94.86" width="294.93" height="193.84" rx="10.2" ry="10.2"/><rect class="f" x="66.29" y="115.1" width="264.32" height="147.2"/><polygon class="g" points="51.22 288.7 346.15 288.7 397.38 310.5 0 310.5 51.22 288.7"/><path class="h" d="M0,310.49H397.38v5.72a7.4,7.4,0,0,1-7.37,7.37H7.37A7.39,7.39,0,0,1,0,316.21Z"/><rect class="i" x="158.55" y="314.52" width="80.27" height="5.12"/><path class="j" d="M58.3,290.45H85.87c-1.41.85-2.79,1.69-4.17,2.54H53.14Z"/><path class="j" d="M108.85,290.45h27.57L134.15,293h-28.6Z"/><path class="j" d="M159.4,290.45H187c-.1.85-.24,1.69-.38,2.54H158C158.47,292.14,159,291.29,159.4,290.45Z"/><path class="j" d="M210,290.45h27.6c.48.85,1,1.69,1.48,2.54H210.44C210.3,292.14,210.16,291.29,210,290.45Z"/><path class="j" d="M260.57,290.45h27.57c1.14.85,2.27,1.69,3.38,2.54h-28.6C262.16,292.14,261.37,291.29,260.57,290.45Z"/><path class="j" d="M311.16,290.45h27.6L344,293H315.36C314,292.14,312.57,291.29,311.16,290.45Z"/><path class="j" d="M49.82,294.62H79.14L75,297.16H44.65C46.34,296.31,48.1,295.46,49.82,294.62Z"/><path class="j" d="M103.2,294.82h29.32c-.76.85-1.55,1.69-2.27,2.54H99.9C101,296.51,102.1,295.66,103.2,294.82Z"/><path class="j" d="M157,294.82h29.36l-.41,2.54H155.55Z"/><path class="j" d="M210.78,294.82h29.36c.48.85,1,1.69,1.48,2.54H211.23C211.06,296.51,210.92,295.66,210.78,294.82Z"/><path class="j" d="M264.61,294.82h29.33l3.34,2.54H266.92C266.16,296.51,265.37,295.66,264.61,294.82Z"/><path class="j" d="M318.4,294.82h29.39l5.2,2.54H322.6C321.22,296.51,319.81,295.66,318.4,294.82Z"/><path class="j" d="M40.89,299H72c-1.41.85-2.76,1.69-4.17,2.54H35.73C37.45,300.68,39.14,299.83,40.89,299Z"/><path class="j" d="M97.48,299.19H128.6c-.79.85-1.52,1.69-2.27,2.54H94.21Z"/><path class="j" d="M154.51,299.19h31.15c-.17.85-.28,1.69-.41,2.54H153.1C153.58,300.88,154,300,154.51,299.19Z"/><path class="j" d="M211.54,299.19h31.15c.45.85,1,1.69,1.45,2.54H212C211.85,300.88,211.68,300,211.54,299.19Z"/><path class="j" d="M268.6,299.19h31.12c1.07.85,2.21,1.69,3.31,2.54H270.91C270.15,300.88,269.36,300,268.6,299.19Z"/><path class="j" d="M325.63,299.19h31.15l5.2,2.54H329.84C328.46,300.88,327,300,325.63,299.19Z"/><path class="j" d="M31.6,303.56H365.78c1.76.85,3.48,1.69,5.2,2.54H26.4C28.15,305.25,29.88,304.4,31.6,303.56Z"/><rect class="k" x="131.65" y="123.77" width="133.61" height="126.62"/><rect class="l" x="140.16" y="175.96" width="115.42" height="14.41"/><rect class="l" x="140.16" y="205.14" width="115.42" height="14.41"/><rect class="m" x="222.53" y="226.81" width="33.14" height="16.08" rx="3.18" ry="3.18"/><path class="n" d="M149.94,233.32h1.67a1.53,1.53,0,0,1,1.11.39,1.07,1.07,0,0,1,.3.77h0a1.14,1.14,0,0,1-1.06,1.13l1.19,1.59h-.54l-1.13-1.51h-1.11v1.51h-.44Zm1.63,2c.58,0,1-.3,1-.8h0c0-.48-.37-.77-1-.77h-1.2v1.58Z"/><path class="n" d="M155,236.91a1.19,1.19,0,0,0,.91-.41l.27.24a1.48,1.48,0,0,1-1.18.54,1.5,1.5,0,0,1-.05-3,1.37,1.37,0,0,1,1.34,1.52s0,.08,0,.15h-2.28A1,1,0,0,0,155,236.91Zm.84-1.3a.94.94,0,0,0-.92-1,1,1,0,0,0-.93,1Z"/><path class="n" d="M156.84,234.34h.43v.48a1,1,0,0,1,.93-.54,1,1,0,0,1,.92.57,1.14,1.14,0,0,1,1-.57,1,1,0,0,1,1.07,1.16v1.78h-.43v-1.68c0-.55-.28-.87-.74-.87a.8.8,0,0,0-.79.89v1.66h-.42v-1.69c0-.54-.28-.86-.74-.86a.83.83,0,0,0-.8.91v1.64h-.43Z"/><path class="n" d="M163.26,236.91a1.19,1.19,0,0,0,.91-.41l.27.24a1.48,1.48,0,0,1-1.18.54,1.5,1.5,0,0,1-.06-3,1.37,1.37,0,0,1,1.34,1.52s0,.08,0,.15h-2.28A1,1,0,0,0,163.26,236.91Zm.84-1.3a.94.94,0,0,0-.92-1,1,1,0,0,0-.93,1Z"/><path class="n" d="M165.14,234.34h.43v.48a1.05,1.05,0,0,1,.93-.54,1,1,0,0,1,.92.57,1.15,1.15,0,0,1,1-.57,1,1,0,0,1,1.07,1.16v1.78h-.43v-1.68c0-.55-.28-.87-.74-.87a.8.8,0,0,0-.79.89v1.66h-.42v-1.69c0-.54-.28-.86-.74-.86a.83.83,0,0,0-.8.91v1.64h-.43Z"/><path class="n" d="M170.71,236.66v.55h-.43v-4.05h.43v1.76a1.29,1.29,0,0,1,1.1-.64,1.4,1.4,0,0,1,1.37,1.49h0a1.41,1.41,0,0,1-1.37,1.49A1.3,1.3,0,0,1,170.71,236.66Zm2-.88h0a1,1,0,0,0-1-1.11,1.07,1.07,0,0,0-1,1.11h0a1.07,1.07,0,0,0,1,1.11A1,1,0,0,0,172.75,235.78Z"/><path class="n" d="M175.11,236.91a1.19,1.19,0,0,0,.9-.41l.27.24a1.48,1.48,0,0,1-1.18.54,1.5,1.5,0,0,1-.06-3,1.37,1.37,0,0,1,1.34,1.52s0,.08,0,.15h-2.28A1,1,0,0,0,175.11,236.91Zm.84-1.3a.94.94,0,0,0-.92-1,1,1,0,0,0-.93,1Z"/><path class="n" d="M177,234.34h.43v.75a1.23,1.23,0,0,1,1.17-.8v.46h0a1.16,1.16,0,0,0-1.14,1.32v1.14H177Z"/><path class="n" d="M180.7,233.32h.45l1.42,2.12,1.42-2.12h.44v3.89H184v-3.15l-1.42,2.08h0l-1.42-2.08v3.14h-.43Z"/><path class="n" d="M186.58,236.91a1.19,1.19,0,0,0,.91-.41l.27.24a1.48,1.48,0,0,1-1.18.54,1.5,1.5,0,0,1-.06-3,1.37,1.37,0,0,1,1.34,1.52s0,.08,0,.15h-2.28A1,1,0,0,0,186.58,236.91Zm.84-1.3a.94.94,0,0,0-.92-1,1,1,0,0,0-.93,1Z"/><path class="n" d="M140.71,168.07h2.81v.4h-2.37v1.33h2.12v.4h-2.12v1.36h2.4v.4h-2.84Z"/><path class="n" d="M144.22,169.09h.43v.48a1,1,0,0,1,.93-.54,1,1,0,0,1,.92.57,1.15,1.15,0,0,1,1-.57,1,1,0,0,1,1.07,1.16V172h-.43v-1.68c0-.55-.28-.87-.74-.87a.8.8,0,0,0-.79.89V172h-.42v-1.69c0-.54-.28-.86-.74-.86a.83.83,0,0,0-.8.91V172h-.43Z"/><path class="n" d="M149.15,171.13h0c0-.62.5-.94,1.23-.94a3,3,0,0,1,.88.12v-.09c0-.51-.31-.78-.85-.78a2,2,0,0,0-.87.21l-.13-.35a2.35,2.35,0,0,1,1-.24,1.27,1.27,0,0,1,.93.32,1.14,1.14,0,0,1,.3.84V172h-.42v-.43a1.26,1.26,0,0,1-1,.49A1,1,0,0,1,149.15,171.13Zm2.11-.22v-.27a3,3,0,0,0-.84-.12c-.53,0-.84.23-.84.58h0c0,.36.33.57.72.57A.86.86,0,0,0,151.26,170.91Z"/><path class="n" d="M152.46,168h.49v.47h-.49Zm0,1.1h.43V172h-.43Z"/><path class="n" d="M153.81,167.91h.43V172h-.43Z"/><path class="n" d="M156.44,170.54h0a1.5,1.5,0,0,1,3,0h0a1.49,1.49,0,0,1-1.5,1.5A1.47,1.47,0,0,1,156.44,170.54Zm2.56,0h0a1.09,1.09,0,0,0-1.07-1.12,1.06,1.06,0,0,0-1.05,1.11h0a1.08,1.08,0,0,0,1.06,1.12A1.06,1.06,0,0,0,159,170.54Z"/><path class="n" d="M160.07,169.09h.43v.75a1.23,1.23,0,0,1,1.17-.8v.46h0a1.16,1.16,0,0,0-1.14,1.32V172h-.43Z"/><path class="n" d="M163.72,170.34v-2.26h.44v2.23c0,.84.45,1.31,1.19,1.31s1.17-.43,1.17-1.28v-2.26H167v2.23a1.62,1.62,0,1,1-3.24,0Z"/><path class="n" d="M167.55,171.6l.22-.31a1.68,1.68,0,0,0,1,.37c.34,0,.59-.18.59-.46h0c0-.29-.34-.4-.72-.5s-1-.28-1-.81h0a.87.87,0,0,1,1-.82,2,2,0,0,1,1,.32l-.19.32a1.63,1.63,0,0,0-.85-.28c-.34,0-.56.18-.56.42h0c0,.27.36.38.74.49s.92.31.92.82h0a.9.9,0,0,1-1,.86A2,2,0,0,1,167.55,171.6Z"/><path class="n" d="M171.69,171.66a1.19,1.19,0,0,0,.91-.41l.27.24a1.48,1.48,0,0,1-1.18.54,1.5,1.5,0,0,1-.06-3,1.37,1.37,0,0,1,1.34,1.52s0,.08,0,.15h-2.28A1,1,0,0,0,171.69,171.66Zm.84-1.3a.94.94,0,0,0-.92-1,1,1,0,0,0-.93,1Z"/><path class="n" d="M173.57,169.09H174v.75a1.23,1.23,0,0,1,1.17-.8v.46h0a1.16,1.16,0,0,0-1.14,1.32V172h-.43Z"/><path class="n" d="M175.68,169.09h.43v.5a1.09,1.09,0,0,1,1-.56,1,1,0,0,1,1.1,1.15V172h-.43v-1.68a.77.77,0,0,0-.79-.87.84.84,0,0,0-.86.9V172h-.43Z"/><path class="n" d="M178.75,171.13h0c0-.62.5-.94,1.23-.94a3,3,0,0,1,.88.12v-.09c0-.51-.31-.78-.85-.78a2,2,0,0,0-.87.21l-.13-.35a2.36,2.36,0,0,1,1-.24,1.28,1.28,0,0,1,.93.32,1.14,1.14,0,0,1,.3.84V172h-.42v-.43a1.26,1.26,0,0,1-1,.49A1,1,0,0,1,178.75,171.13Zm2.11-.22v-.27a3,3,0,0,0-.84-.12c-.53,0-.84.23-.84.58h0c0,.36.33.57.72.57A.86.86,0,0,0,180.86,170.91Z"/><path class="n" d="M182,169.09h.43v.48a1,1,0,0,1,.93-.54,1,1,0,0,1,.92.57,1.14,1.14,0,0,1,1-.57,1,1,0,0,1,1.07,1.16V172H186v-1.68c0-.55-.28-.87-.74-.87a.8.8,0,0,0-.79.89V172H184v-1.69c0-.54-.28-.86-.74-.86a.83.83,0,0,0-.8.91V172H182Z"/><path class="n" d="M188.46,171.66a1.19,1.19,0,0,0,.91-.41l.27.24a1.48,1.48,0,0,1-1.18.54,1.5,1.5,0,0,1-.05-3,1.37,1.37,0,0,1,1.34,1.52s0,.08,0,.15h-2.28A1,1,0,0,0,188.46,171.66Zm.84-1.3a.94.94,0,0,0-.92-1,1,1,0,0,0-.93,1Z"/><path class="n" d="M140.71,197.77h1.46c.88,0,1.46.47,1.46,1.23h0c0,.84-.7,1.27-1.53,1.27h-.94v1.37h-.44Zm1.4,2.12c.64,0,1.07-.34,1.07-.86h0c0-.55-.42-.84-1-.84h-1v1.71Z"/><path class="n" d="M143.94,200.83h0c0-.62.5-.94,1.23-.94a3,3,0,0,1,.88.12v-.09c0-.51-.31-.78-.85-.78a2,2,0,0,0-.87.21l-.13-.35a2.36,2.36,0,0,1,1-.24,1.28,1.28,0,0,1,.93.32,1.14,1.14,0,0,1,.3.84v1.75H146v-.43a1.26,1.26,0,0,1-1,.49A1,1,0,0,1,143.94,200.83Zm2.11-.22v-.27a3,3,0,0,0-.84-.12c-.53,0-.84.23-.84.58h0c0,.36.33.57.72.57A.86.86,0,0,0,146.05,200.6Z"/><path class="n" d="M147,201.29l.22-.31a1.68,1.68,0,0,0,1,.37c.34,0,.59-.18.59-.46h0c0-.29-.34-.4-.72-.5s-1-.28-1-.81h0a.87.87,0,0,1,1-.82,2,2,0,0,1,1,.32l-.19.32a1.63,1.63,0,0,0-.85-.28c-.34,0-.56.18-.56.42h0c0,.27.36.38.74.49s.92.31.92.82h0a.9.9,0,0,1-1,.86A2,2,0,0,1,147,201.29Z"/><path class="n" d="M149.57,201.29l.22-.31a1.67,1.67,0,0,0,1,.37c.34,0,.59-.18.59-.46h0c0-.29-.34-.4-.72-.5s-.95-.28-.95-.81h0a.87.87,0,0,1,1-.82,2,2,0,0,1,1,.32l-.19.32a1.63,1.63,0,0,0-.85-.28c-.34,0-.56.18-.56.42h0c0,.27.36.38.74.49s.92.31.92.82h0a.9.9,0,0,1-1,.86A2,2,0,0,1,149.57,201.29Z"/><path class="n" d="M152.11,198.79h.46l.76,2.3.77-2.32h.36l.78,2.32.75-2.3h.44l-1,2.89H155l-.77-2.27-.78,2.27h-.38Z"/><path class="n" d="M156.68,200.24h0a1.5,1.5,0,0,1,3,0h0a1.49,1.49,0,0,1-1.5,1.5A1.47,1.47,0,0,1,156.68,200.24Zm2.55,0h0a1.09,1.09,0,0,0-1.07-1.12,1.06,1.06,0,0,0-1,1.11h0a1.08,1.08,0,0,0,1.06,1.12A1.06,1.06,0,0,0,159.24,200.24Z"/><path class="n" d="M160.31,198.79h.43v.75a1.23,1.23,0,0,1,1.17-.8v.46h0a1.16,1.16,0,0,0-1.14,1.32v1.14h-.43Z"/><path class="n" d="M162.14,200.23h0a1.41,1.41,0,0,1,1.37-1.49,1.29,1.29,0,0,1,1.1.61V197.6H165v4.05h-.43v-.58a1.29,1.29,0,0,1-1.1.64A1.4,1.4,0,0,1,162.14,200.23Zm2.49,0h0a1.07,1.07,0,0,0-1-1.11,1,1,0,0,0-1,1.11h0a1,1,0,0,0,1,1.11A1.07,1.07,0,0,0,164.63,200.23Z"/><path class="n" d="M144.65,183.59v-1.78h.43v1.68a.77.77,0,0,0,.79.87.85.85,0,0,0,.86-.9v-1.64h.42v2.87h-.42v-.5a1.09,1.09,0,0,1-1,.56A1,1,0,0,1,144.65,183.59Z"/><path class="n" d="M147.74,184.31,148,184a1.68,1.68,0,0,0,1,.37c.34,0,.59-.18.59-.46h0c0-.29-.34-.4-.72-.5s-1-.28-1-.81h0a.87.87,0,0,1,1-.82,2,2,0,0,1,1,.32l-.19.32a1.63,1.63,0,0,0-.85-.28c-.34,0-.56.18-.56.42h0c0,.27.36.38.74.49s.92.31.92.82h0a.9.9,0,0,1-1,.86A2,2,0,0,1,147.74,184.31Z"/><path class="n" d="M151.88,184.37a1.19,1.19,0,0,0,.91-.41l.27.24a1.48,1.48,0,0,1-1.18.54,1.5,1.5,0,0,1-.06-3,1.37,1.37,0,0,1,1.34,1.52s0,.08,0,.15h-2.28A1,1,0,0,0,151.88,184.37Zm.84-1.3a.94.94,0,0,0-.92-1,1,1,0,0,0-.93,1Z"/><path class="n" d="M153.76,181.81h.43v.75a1.23,1.23,0,0,1,1.17-.8v.46h0a1.16,1.16,0,0,0-1.14,1.32v1.14h-.43Z"/><path class="n" d="M155.69,183.16a2.43,2.43,0,0,1,2.43-2.43,2.34,2.34,0,0,1,2.42,2.2c0,.94-.53,1.36-1,1.36a.77.77,0,0,1-.78-.47,1.16,1.16,0,0,1-.92.47,1,1,0,0,1-1-1,1.37,1.37,0,0,1,1.28-1.38.88.88,0,0,1,.81.46L159,182l.37,0-.22,1.26a2.13,2.13,0,0,0,0,.34.42.42,0,0,0,.47.45c.39,0,.78-.36.78-1.14a2.15,2.15,0,0,0-2.22-2,2.24,2.24,0,1,0,0,4.48,2.54,2.54,0,0,0,1.38-.38l.09.15a2.72,2.72,0,0,1-1.47.42A2.42,2.42,0,0,1,155.69,183.16Zm3.12-.22a.67.67,0,0,0-.68-.71,1,1,0,0,0-.91,1,.64.64,0,0,0,.68.69A1,1,0,0,0,158.81,182.94Z"/><path class="n" d="M161,183.85h0c0-.62.5-.94,1.23-.94a3,3,0,0,1,.88.12v-.09c0-.51-.31-.78-.85-.78a2,2,0,0,0-.87.21l-.13-.35a2.35,2.35,0,0,1,1-.24,1.27,1.27,0,0,1,.93.32,1.14,1.14,0,0,1,.3.84v1.75h-.42v-.43a1.26,1.26,0,0,1-1,.49A1,1,0,0,1,161,183.85Zm2.11-.22v-.27a3,3,0,0,0-.84-.12c-.53,0-.84.23-.84.58h0c0,.36.33.57.72.57A.86.86,0,0,0,163.07,183.62Z"/><path class="n" d="M164.08,183.26h0a1.5,1.5,0,0,1,2.62-1l-.28.3a1.16,1.16,0,0,0-.87-.43,1.06,1.06,0,0,0-1,1.11h0a1.07,1.07,0,0,0,1.05,1.12,1.19,1.19,0,0,0,.88-.43l.27.25a1.49,1.49,0,0,1-2.64-.93Z"/><path class="n" d="M167,183.26h0a1.5,1.5,0,0,1,2.62-1l-.28.3a1.16,1.16,0,0,0-.87-.43,1.06,1.06,0,0,0-1,1.11h0a1.07,1.07,0,0,0,1.05,1.12,1.18,1.18,0,0,0,.88-.43l.27.25a1.49,1.49,0,0,1-2.64-.93Z"/><path class="n" d="M170,183.26h0a1.5,1.5,0,0,1,3,0h0a1.49,1.49,0,0,1-1.5,1.5A1.47,1.47,0,0,1,170,183.26Zm2.56,0h0a1.09,1.09,0,0,0-1.07-1.12,1.06,1.06,0,0,0-1,1.11h0a1.08,1.08,0,0,0,1.06,1.12A1.06,1.06,0,0,0,172.54,183.26Z"/><path class="n" d="M173.57,183.59v-1.78H174v1.68a.77.77,0,0,0,.79.87.85.85,0,0,0,.86-.9v-1.64h.42v2.87h-.42v-.5a1.1,1.1,0,0,1-1,.56A1,1,0,0,1,173.57,183.59Z"/><path class="n" d="M176.9,181.81h.43v.5a1.09,1.09,0,0,1,1-.56,1,1,0,0,1,1.1,1.15v1.78H179V183a.77.77,0,0,0-.79-.87.84.84,0,0,0-.86.9v1.64h-.43Z"/><path class="n" d="M180.33,183.92v-1.73h-.4v-.38h.4v-.87h.43v.87h.91v.38h-.91v1.68a.42.42,0,0,0,.48.48.9.9,0,0,0,.42-.1v.37a1.08,1.08,0,0,1-.52.12A.73.73,0,0,1,180.33,183.92Z"/><path class="n" d="M182.24,184.1h.51v.58h-.51Z"/><path class="n" d="M183.22,183.26h0a1.5,1.5,0,0,1,2.62-1l-.28.3a1.16,1.16,0,0,0-.87-.43,1.06,1.06,0,0,0-1,1.11h0a1.07,1.07,0,0,0,1.06,1.12,1.19,1.19,0,0,0,.88-.43l.27.25a1.49,1.49,0,0,1-2.64-.93Z"/><path class="n" d="M186.17,183.26h0a1.5,1.5,0,0,1,3,0h0a1.49,1.49,0,0,1-1.5,1.5A1.47,1.47,0,0,1,186.17,183.26Zm2.56,0h0a1.09,1.09,0,0,0-1.07-1.12,1.06,1.06,0,0,0-1,1.11h0a1.08,1.08,0,0,0,1.06,1.12A1.06,1.06,0,0,0,188.73,183.26Z"/><path class="n" d="M189.8,181.81h.43v.48a1.05,1.05,0,0,1,.93-.54,1,1,0,0,1,.92.57,1.15,1.15,0,0,1,1-.57,1,1,0,0,1,1.07,1.16v1.78h-.43V183c0-.55-.28-.87-.74-.87a.8.8,0,0,0-.79.89v1.66h-.42V183c0-.54-.28-.86-.74-.86a.83.83,0,0,0-.8.91v1.64h-.43Z"/><path class="n" d="M145.33,211.48l-.57.41-.15-.26.64-.29-.64-.3.15-.25.57.4-.06-.69h.29l-.05.69.57-.4.15.25-.64.3.64.29-.15.26-.57-.41.05.69h-.29Z"/><path class="n" d="M147.58,211.48l-.57.41-.15-.26.64-.29-.64-.3.15-.25.57.4-.06-.69h.29l-.05.69.57-.4.15.25-.64.3.64.29-.15.26-.57-.41.05.69h-.29Z"/><path class="n" d="M149.83,211.48l-.57.41-.15-.26.64-.29-.64-.3.15-.25.57.4-.06-.69h.29l-.06.69.57-.4.15.25-.64.3.64.29-.15.26-.57-.41.06.69h-.29Z"/><path class="n" d="M152.08,211.48l-.57.41-.15-.26.64-.29-.64-.3.15-.25.57.4-.06-.69h.29l-.05.69.57-.4.15.25-.64.3.64.29-.15.26-.57-.41.05.69H152Z"/><path class="n" d="M154.33,211.48l-.57.41-.15-.26.64-.29-.64-.3.15-.25.57.4-.05-.69h.29l-.06.69.57-.4.15.25-.64.3.64.29-.15.26-.57-.41.06.69h-.29Z"/><path class="n" d="M156.58,211.48l-.57.41-.15-.26.64-.29-.64-.3.15-.25.57.4-.06-.69h.29l-.06.69.57-.4.15.25-.64.3.64.29-.15.26-.57-.41.06.69h-.29Z"/><path class="n" d="M158.83,211.48l-.57.41-.15-.26.64-.29-.64-.3.15-.25.57.4-.06-.69h.29l-.05.69.57-.4.15.25-.64.3.64.29-.15.26-.57-.41.05.69h-.29Z"/><path class="n" d="M161.08,211.48l-.57.41-.15-.26.64-.29-.64-.3.15-.25.57.4-.05-.69h.29l-.06.69.57-.4.15.25-.64.3.64.29-.15.26-.57-.41.06.69H161Z"/><path class="n" d="M163.33,211.48l-.57.41-.15-.26.64-.29-.64-.3.15-.25.57.4-.06-.69h.29l-.05.69.57-.4.15.25-.64.3.64.29-.15.26-.57-.41.05.69h-.29Z"/><path class="n" d="M165.58,211.48l-.57.41-.15-.26.64-.29-.64-.3.15-.25.57.4-.06-.69h.29l-.05.69.57-.4.15.25-.64.3.64.29-.15.26-.57-.41.05.69h-.29Z"/><path class="n" d="M167.83,211.48l-.57.41-.15-.26.64-.29-.64-.3.15-.25.57.4-.06-.69h.29l-.06.69.57-.4.15.25-.64.3.64.29-.15.26-.57-.41.06.69h-.29Z"/><path class="n" d="M170.08,211.48l-.57.41-.15-.26.64-.29-.64-.3.15-.25.57.4-.06-.69h.29l-.05.69.57-.4.15.25-.64.3.64.29-.15.26-.57-.41.05.69H170Z"/><path class="n" d="M172.33,211.48l-.57.41-.15-.26.64-.29-.64-.3.15-.25.57.4-.06-.69h.29l-.05.69.57-.4.15.25-.64.3.64.29-.15.26-.57-.41.05.69h-.29Z"/><path class="n" d="M174.58,211.48l-.57.41-.15-.26.64-.29-.64-.3.15-.25.57.4-.06-.69h.29l-.06.69.57-.4.15.25-.64.3.64.29-.15.26-.57-.41.06.69h-.29Z"/><path class="n" d="M176.84,211.48l-.57.41-.15-.26.64-.29-.64-.3.15-.25.57.4-.06-.69h.29l-.05.69.57-.4.15.25-.64.3.64.29-.15.26-.57-.41.05.69h-.29Z"/><path class="n" d="M179.09,211.48l-.57.41-.15-.26.64-.29-.64-.3.15-.25.57.4-.05-.69h.29l-.06.69.57-.4.15.25-.64.3.64.29-.15.26-.57-.41.06.69H179Z"/><path class="n" d="M181.34,211.48l-.57.41-.15-.26.64-.29-.64-.3.15-.25.57.4-.06-.69h.29l-.06.69.57-.4.15.25-.64.3.64.29-.15.26-.57-.41.06.69h-.29Z"/><path class="n" d="M183.59,211.48l-.57.41-.15-.26.64-.29-.64-.3.15-.25.57.4-.06-.69h.29l-.05.69.57-.4.15.25-.64.3.64.29-.15.26-.57-.41.05.69h-.29Z"/><circle class="o" cx="198.25" cy="146.24" r="15.23"/><path class="f" d="M190.77,150.66l-2.67-7.85h-1v-1.58h4.22v1.58h-1l1.52,4.5,1.43-4.5h-.85v-1.58h3.37v1.58H195l1.54,4.5,1.48-4.5H197v-1.58h3.75v1.58h-1l-2.59,7.85h-1.75L194,146.38l-1.39,4.28Z"/><path class="f" d="M206.2,149v1.58h-4.94V149h1.19v-6.2h-1.19v-1.58h4.94a4,4,0,0,1,2.66.81,2.72,2.72,0,0,1,.94,2.18,3,3,0,0,1-.33,1.42,2.53,2.53,0,0,1-.85,1,3.17,3.17,0,0,1-1.18.46,9.21,9.21,0,0,1-1.66.12h-.9V149Zm-1.31-3.38h.36a2.22,2.22,0,0,0,1.61-.41,1.47,1.47,0,0,0,.36-1,1.5,1.5,0,0,0-.25-.87,1,1,0,0,0-.57-.44,4.67,4.67,0,0,0-1.06-.08h-.46Z"/><rect class="l" x="140.07" y="232.16" width="6.04" height="6.04"/><polygon class="p" points="113.39 115.11 330.85 115.11 330.85 262.31 278.65 262.31 113.39 115.11"/></g><circle class="q" cx="198.46" cy="209.28" r="165.5"/><circle class="r" cx="198.46" cy="43.22" r="41.81"/><path class="s" d="M190.32,57.44V52H195V28.82h-5V23.35h12.5V52H207v5.46Z"/></g></svg>