<svg xmlns="http://www.w3.org/2000/svg" viewBox="0 0 210.49 180"><title>Firewall</title><path d="M71.78,14.23c3.79-.59,7.61-1.09,11.42-1.53a2.09,2.09,0,0,1,1.57.67c2.51,3.17,6,4.72,9.73,5.82,3.11.92,3.55.49,4-2.78,4-.93,8-2.79,12.06-.25a37.89,37.89,0,0,1,6.15,5c.46.45.18,1.88,0,2.8-.29,1.24-1,2.37-1.3,3.6a3.24,3.24,0,0,0,3.4,4.22c.78,0,1.56-.18,2.35-.21,2.28-.11,3.09.76,2.88,3.06-.29,3.26.25,3.65,3.55,3.09a6.56,6.56,0,0,1,3,.61,6.4,6.4,0,0,1,1.53,1.14c3.06,2.32,5.4,1.45,6.3-2.35.1-.41.09-.85.17-1.28.36-1.7,1.32-2.15,2.47-.93,2.43,2.58,4.71,5.3,7.18,8.11-2.65,2.43-2.75,5.39-2.16,8.29.65,3.22-.2,6-1.47,8.87a64,64,0,0,0-3.37,8.27c-1.21,4.27.17,6.22,4.5,7.18a16.69,16.69,0,0,1,1.89.51l25-4A82.21,82.21,0,0,0,157.39,36c-14-19.15-32.75-30.63-56.15-34.71A82.86,82.86,0,0,0,87.08,0h-.94A87.3,87.3,0,0,0,72.91,1.25C27.92,8.15-4.61,50.53.54,95.86c2.45,21.63,11.52,40.09,27.6,54.79,19.08,17.45,41.74,25,67.42,22.57a13.49,13.49,0,0,1-2.86-6.09,15.67,15.67,0,0,1-.3-5.13,74.53,74.53,0,0,1-71.14-40.38c-15.12-29-7.76-61.86,7.61-79.94.41,3.25.82,6.17,1.15,9.11a74.29,74.29,0,0,1-1.41,23.78,11.67,11.67,0,0,0,.22,5.23,3.59,3.59,0,0,0,2.55,2.06c.74.06,2-1.1,2.32-2a22.32,22.32,0,0,0,.73-5c.12-1.19.12-2.4.2-4.27a34.87,34.87,0,0,1,2.85,2.33c1.89,1.89,3.79,3.78,5.52,5.82A5.64,5.64,0,0,1,44.52,82c-.05,2.33,1,3.92,2.23,5.75,1.38,2,2,4.6,2.9,7,.37,1,.45,2.1.9,3.05a5.47,5.47,0,0,0,4.86,3.58c2.61.17,3.58,1.17,4,3.84-.67.07-1.33.17-2,.23-3.18.29-4.75,1.75-4.63,5A22.81,22.81,0,0,0,60,126.7c1.3,1.21,2.68,2.35,3.95,3.6,2.89,2.85,3.89,6.2,2.5,10.13a31.88,31.88,0,0,0-1.87,5.65,16.13,16.13,0,0,0,.16,6c.48,2,.27,6.4,2.34,6,3.68-.65,5.78.07,6.06-4a3.29,3.29,0,0,0-.21-1.6c-1.09-3.86,3.86-14.79,6.82-16.79a73.67,73.67,0,0,0,7.39-5.45c3.32-2.89,4.81-6.61,3.41-10.95-1.31-4.07.22-7.08,3.08-9.7s4.82-5.77,4.62-9.88-2.89-7.1-6.41-6.68a25.73,25.73,0,0,0-5,1.6c-2.45.82-4.85,2-7.37,2.44-3.54.62-5.7-1.68-7.29-4.48-1.27-2.26-1.68-2.43-3.89-1-1.85,1.18-3.71,2.38-5.63,3.45s-3.08.7-4.62-1a15.29,15.29,0,0,0-3.35-2.39c-.85-.52-2-.65-2.65-1.3-.91-.88-2.16-2.18-2-3.13a4.57,4.57,0,0,1,2.57-3c1.93-.78,4.14-.91,6.21-1.36A21.79,21.79,0,0,0,62,82.07c1.43-.57,1.37-1.51.27-2.39a7.39,7.39,0,0,0-1.86-1c-3.17-1.28-6.36-2.5-9.53-3.78a13.71,13.71,0,0,1-2.27-1.16c-2-1.31-2.23-2.76-.42-4.34,7.13-6.3,15.47-8.13,22.85.22,2.28,2.59,3.84,5.82,6,8.54A33.26,33.26,0,0,0,82.9,84a4.31,4.31,0,0,0,3.89.25c1.48-.81,1.53-2.66.78-4.21a21.93,21.93,0,0,0-2.31-3.84c-4.2-5.4-3.9-15.93,4.31-20.33,2.75-1.47,5.53-3,6.84-7-1.57.43-2.72.71-3.84,1-6.23,1.93-1.89-2.73,1-3.53,1.74-.5-1.56-1.84-1.56-1.84s2.2-.74,4.56-1.73a19.41,19.41,0,0,0,4.62-2.57c.87-.71,1.2-2.07,1.77-3.15l-.43-.5c-1.65.21-3.3.47-4.95.65-2.8.32-3.45-.23-3.72-3.05a2.6,2.6,0,0,0-4-2c-1.24.68-2.32,1.65-3.51,2.42-2.76,1.8-4.82,1.08-5.91-2-.64-1.83-1.54-2.18-3.22-1.15-.85.52-1.56,1.27-2.42,1.75a28.85,28.85,0,0,1-4.37,2.13c-1.48.52-3.26.9-4.27-.72s-.14-3.44,1.23-4.54a39.08,39.08,0,0,1,5.56-3.49c2.72-1.53,5.6-2.8,8.22-4.47a4.82,4.82,0,0,0,2.15-5.6c-.53-2-1.86-2.68-3.71-1.76-1.52.76-2.86,1.94-4.43,2.56a7.42,7.42,0,0,1-3.8.22c-.45-.07-.94-1.33-1-2.07C70.39,15,71.24,14.31,71.78,14.23Z"/><rect x="110.49" y="87" width="16" height="25"/><rect x="110.49" y="156" width="16" height="24"/><rect x="110.49" y="122" width="45" height="24"/><rect x="164.49" y="122" width="46" height="24"/><rect x="137.49" y="156" width="45" height="24"/><rect x="194.49" y="156" width="16" height="24"/><rect x="137.49" y="87" width="45" height="25"/><rect x="194.49" y="87" width="16" height="25"/></svg>