<svg xmlns="http://www.w3.org/2000/svg" viewBox="0 0 189.2 180.26"><defs><style>.a{fill:none;}</style></defs><title>ratelimiting</title><path class="a" d="M98.95,102.14a42.26,42.26,0,0,0,58.54,58.54c.89-.59,1.74-1.23,2.58-1.87L100.82,99.55C100.17,100.39,99.53,101.24,98.95,102.14Zm41.58,41.58a25.85,25.85,0,0,1-3.9,2.62.71.71,0,0,0-.05,1.22c5.3,3.53,2.28,9,.14,16a1.68,1.68,0,0,1-3.22-1l2.58-8.42c1-3.36-3.37-5.82-6.75-5-2.58.59-10.12,1.69-13.5.25a2,2,0,0,1-.64-3.31L129,132.2Zm-28.46-20.66a.71.71,0,0,0,1.22-.05,30.06,30.06,0,0,1,2.59-3.94l11.55,11.55-13.84,13.84c-1.69,1.69-4.56-.09-4.08-5.44a61.8,61.8,0,0,1,1-8.7c.79-3.45-1.77-7.75-5-6.75l-8.41,2.57a1.68,1.68,0,0,1-1-3.22l8.42-2.58A6.8,6.8,0,0,1,112.07,123.05Z"/><path class="a" d="M134.28,83a42,42,0,0,0-21.65,6c-.92.56-1.83,1.13-2.71,1.75l58.89,58.89c.62-.88,1.2-1.79,1.75-2.71a42.22,42.22,0,0,0-36.28-64Zm-7.52,20.16c-.21-3-.94-3.28-5.46-5.46L117.53,94a1.61,1.61,0,0,1,2.24-.74c10.07,5.09,10.06,4,10.51,13.48Zm14,14-8.32-8.31.07,0C142.49,108.55,143.08,114.42,140.76,117.19Zm1.71,1.71a4.61,4.61,0,0,1,7.36,2,23,23,0,0,1,1,6.33Zm23.19,23.19-3.85-3.85L160,134.76a3.37,3.37,0,0,0-2.84-1.84l-.76,0-3.54-3.55c9.06.43,8.15-.05,13.48,10.51A1.6,1.6,0,0,1,165.65,142.09Zm7.67-23.82a1.12,1.12,0,0,1-1.59,1.59l-3.09-3.09c-4.89-4.89-12.19-4.07-12.23-2.4-.09,3.59-1.6,5.83-3.85,8.08a19.76,19.76,0,0,0-15.39-15.39c2.22-2.22,4.44-3.76,8.09-3.85a1.07,1.07,0,0,0,1-.85A12.51,12.51,0,0,0,142.86,91l-3.09-3.09a1.12,1.12,0,0,1,1.59-1.59c3,3,8.93,7.7,7.12,16.51a.83.83,0,0,0,.56,1,10.52,10.52,0,0,1,6.82,6.82.83.83,0,0,0,1,.55C165.2,109.43,169.7,114.64,173.33,118.27Z"/><path d="M7.65,9.23V85.81A9.06,9.06,0,0,0,16.71,95H81.15a96.75,96.75,0,0,1,9.12-12H21.9a2.41,2.41,0,0,1-2.26-2.61V14.64A2.44,2.44,0,0,1,21.9,12H128.33a2.49,2.49,0,0,1,2.32,2.64V64.29c1-.07,2.33-.18,3.5-.18a63.93,63.93,0,0,1,8.5.66V9.23A9.14,9.14,0,0,0,133.52,0H16.71A9.09,9.09,0,0,0,7.65,9.23Z"/><path d="M4.75,124H73.13a59.11,59.11,0,0,1,3.93-20H10.35a4.65,4.65,0,0,0-4.2,2.42L.55,117a4.8,4.8,0,0,0,4.2,7Z"/><path d="M156.81,111.15a.83.83,0,0,1-1-.55,10.52,10.52,0,0,0-6.82-6.82.83.83,0,0,1-.56-1c1.81-8.81-4.16-13.56-7.12-16.51a1.12,1.12,0,0,0-1.59,1.59L142.86,91a12.51,12.51,0,0,1,3.42,11.38,1.07,1.07,0,0,1-1,.85c-3.65.09-5.87,1.63-8.09,3.85a19.76,19.76,0,0,1,15.39,15.39c2.25-2.25,3.76-4.49,3.85-8.08,0-1.67,7.35-2.48,12.23,2.4l3.09,3.09a1.12,1.12,0,0,0,1.59-1.59C169.7,114.64,165.2,109.43,156.81,111.15Z"/><path d="M152.91,129.34l3.54,3.55.76,0a3.37,3.37,0,0,1,2.84,1.84l1.76,3.48,3.85,3.85a1.6,1.6,0,0,0,.74-2.24C161.05,129.29,162,129.77,152.91,129.34Z"/><path d="M115.81,149.35c3.37,1.44,10.91.34,13.5-.25,3.39-.78,7.78,1.68,6.75,5l-2.58,8.42a1.68,1.68,0,0,0,3.22,1c2.14-7,5.16-12.46-.14-16a.71.71,0,0,1,.05-1.22,25.85,25.85,0,0,0,3.9-2.62L129,132.2,115.17,146A2,2,0,0,0,115.81,149.35Z"/><path d="M142.46,118.9l8.34,8.34a23,23,0,0,0-1-6.33A4.61,4.61,0,0,0,142.46,118.9Z"/><path d="M119.77,93.23a1.61,1.61,0,0,0-2.24.74l3.78,3.77c4.52,2.18,5.25,2.5,5.46,5.46l3.51,3.51C129.83,97.27,129.85,98.32,119.77,93.23Z"/><path d="M97.06,126.13l8.41-2.57c3.28-1,5.83,3.31,5,6.75a61.8,61.8,0,0,0-1,8.7c-.48,5.35,2.4,7.13,4.08,5.44l13.84-13.84-11.55-11.55a30.06,30.06,0,0,0-2.59,3.94.71.71,0,0,1-1.22.05,6.8,6.8,0,0,0-7.57-2.72l-8.42,2.58A1.68,1.68,0,0,0,97.06,126.13Z"/><path d="M132.51,108.9l-.07,0,8.32,8.31C143.08,114.42,142.49,108.55,132.51,108.9Z"/><path d="M134.28,70.42a54.92,54.92,0,1,0,54.92,54.92A55,55,0,0,0,134.28,70.42Zm23.21,90.25a42.26,42.26,0,0,1-58.54-58.54c.58-.89,1.22-1.74,1.87-2.59l59.25,59.25C159.23,159.45,158.38,160.09,157.49,160.68ZM170.56,147c-.55.92-1.13,1.83-1.75,2.71L109.92,90.81c.88-.62,1.79-1.19,2.71-1.75A42.22,42.22,0,0,1,170.56,147Z"/></svg>