<svg xmlns="http://www.w3.org/2000/svg" viewBox="0 0 409.6 409.6"><title>support</title><path d="M204.8,0C91.69,0,0,91.69,0,204.8S91.69,409.6,204.8,409.6s204.8-91.7,204.8-204.8S317.91,0,204.8,0ZM128,204.8a76.8,76.8,0,1,1,76.8,76.8A76.8,76.8,0,0,1,128,204.8Zm242.39,68.59-71-29.4a102.71,102.71,0,0,0,0-78.39l48.85-20.23,22.12-9.16a179.65,179.65,0,0,1,0,137.18Zm-97-234.18-29.39,71a102.65,102.65,0,0,0-78.39,0L151.82,76.9,136.21,39.21a179.7,179.7,0,0,1,137.18,0Zm-234.18,97L76.9,151.82l33.28,13.78a102.65,102.65,0,0,0,0,78.39l-71,29.4a179.7,179.7,0,0,1,0-137.18Zm97,234.18,9.16-22.12,20.23-48.85a102.68,102.68,0,0,0,78.39,0l29.39,71a179.65,179.65,0,0,1-137.18,0Zm0,0"/></svg>