<svg xmlns="http://www.w3.org/2000/svg" viewBox="0 0 59.68 63.68"><title>tools</title><path d="M58,53.63,37.43,33.11a5.22,5.22,0,0,0-.61-.53l3.64-3.82c.18-.19.36-.39.52-.59A13.53,13.53,0,0,0,59.25,14.35a1.17,1.17,0,0,0-2-.72L50.69,20.2,44,18.52l-1.89-6.87,6.57-6.57a1.17,1.17,0,0,0-.73-2A13.53,13.53,0,0,0,34.17,21.36c-.19.17-.39.34-.59.54L28.24,27,18.41,17.2a3.82,3.82,0,0,0-.39-.33c.12-.2.23-.41.33-.62,2.08.4,5.87-3.64,9.09-6.86L18.06,0C13.87,4.2,10.8,7,11.2,9.09a9.08,9.08,0,0,0-2.42,1.65L7.45,12.06a5.59,5.59,0,0,0-1.56,3l-.39.46-.5.62-.07.09-.44.63c-.28.38-.52.78-.76,1.17l-.26.44,0,.07-.2.37c-.24.45-.49.92-.7,1.43l0,.08a14.94,14.94,0,0,0-.69,1.87l-.09.28c-.07.23-.15.47-.21.75l-.18.9a10.74,10.74,0,0,0-.22,1.61l0,.32a8.41,8.41,0,0,0,0,1.42c0,.14,0,.28,0,.47s0,.15,0,.23a4.74,4.74,0,0,0,0,.63l.12.73c0,.15,0,.28.06.41a6.37,6.37,0,0,0,.18.9L2,32.66a1.13,1.13,0,0,0,1.15.8,1.14,1.14,0,0,0,1-1l.25-1.69a4.92,4.92,0,0,1,.14-.54c0-.14.09-.29.12-.42l.17-.63a1.79,1.79,0,0,1,.1-.25l.1-.24.17-.41a4.73,4.73,0,0,1,.37-.77l.19-.35a6,6,0,0,1,.5-.8l0,0,.42-.58L7,25.47l.21-.24A7.89,7.89,0,0,1,8,24.42l.15-.14c.21-.19.44-.37.7-.56l.31-.23.37-.25a6.65,6.65,0,0,1,.65-.4l.5-.28.5-.25a5.21,5.21,0,0,1,.51-.22L12,22l.25-.09.33-.11.13,0a3.72,3.72,0,0,0,.53.67l9.72,9.72L2.18,52.05l0,0c-2.58,2.58-3,6.36-.42,8.94s6.12,1.92,8.7-.66l0,0,18.3-19.27c.11.13.21.25.33.37L49.63,62A5.89,5.89,0,0,0,58,53.63ZM7.76,58.23a2.43,2.43,0,1,1,0-3.44,2.43,2.43,0,0,1,0,3.44Zm0,0"/></svg>