<svg xmlns="http://www.w3.org/2000/svg" id="Layer_1" data-name="Layer 1" preserveAspectRatio="xMidYMid meet" viewBox="0 0 750 374">
  <defs/>
  <path d="M325.8 287.4l-7.3 1.4-7.3 2.8-5.6 4.2a10.2 10.2 0 00-2.1 5.6l1.7 4.5c1.4 2.1 4.6 2.1 4.6 2.1l5.9-1.7 2-3.9-1.3-7.7 3.8-2 5.6-.8 6.7 1.8 3.4 3.8 1.4 3.9.7 3.1v5.6l-12.2 4.2L314 318l-5.2 2.5-4.2 3.1a16.4 16.4 0 00-3.1 4.6l-1 6.2c0 6.3 4.8 10.5 4.8 10.5a19.8 19.8 0 0011.9 4.2l8.7-1.4 2.8-1 9.4-6.3a9.7 9.7 0 004.2 6c2.8 2.4 8 2.4 8 2.4l5.3-.7 5.2-1.8V343h-4.2l-3.1-1-2.8-2.1-1-3.8.7-29.3-1.8-9.5-5.2-5.9-7.4-3.1-10-.7zM338 315l-.3 20.6-6 4.9-6 2h-2.4a10.3 10.3 0 01-7-2.4c-2.8-2.4-2.8-7.3-2.8-7.3a13.2 13.2 0 011.8-6.3l5.2-4.9 7.7-3.5 9.8-3.1zm23-25.8h29.3v4.2l-4.5.7s-2.8.6-2.8 1.7l.3 1 16.1 35 15.4-34.3-2.8-2.7-5.9-1.8v-3.8H430v3.8l-4.9 1.7a13.6 13.6 0 00-4.9 5.3l-13.6 29.7-16.8 32.8-6.2 7.3-5.3 3.5-5.2.7s-4.5 0-7.7-2.4a6.3 6.3 0 01-2.8-5l1.4-4.5a7.7 7.7 0 015-2l3.4.6 2.4 1.8 3.9 4.9 8-8s6.6-10.2 4.2-18.2l-19.2-41.9-4.6-4.2-6-2.1V289m-99.8-1.4l-8.4 2.2-8.4 5.9h-.7v-6.6l-1-.7-21.7 1.4v3.8l4.2.7 3.2 1 2.4 2.5 1 3.5v62.1l-.7 3.5-2.8 2.1-3.5.7H221v4.2h36v-4.2l-9.4-1.4-2.5-2-1.4-3.6v-17.4h.7l6.3 2.4 9.4 1.4h1l10.5-2 9.4-6.7 7-9.4 2.5-13-2.1-12.2a33 33 0 00-6.3-9.8 27.5 27.5 0 00-8.4-6.3l-10.7-2zm-.4 8.8h.4a20 20 0 0113.3 7.3c4.1 5.6 3.8 14 3.8 14a25.6 25.6 0 01-4.5 14.3c-4.6 6.7-12.6 7.7-12.6 7.7-7.7.7-17.5-4.5-17.5-4.5v-34.6a42.5 42.5 0 0117.1-4.2zM95 262.3l-30.4 70.5-2.8 4.9-4.2 3.5-4.2 1.7-4.2.4v4.2h35v-4.2l-9.1-1.4c-4.6-1.4-4.6-3.9-4.6-3.9l.4-2.4 6.3-17.5h32.4l7.7 19.2.4 1.4v1.4c0 1.4-3.2 1.8-3.2 1.8l-8.3 1.4v4.2h38.4v-4.2l-3.9-.4-4.2-1.4-3.1-3.1a6.7 6.7 0 01-2.4-3.5l-30.7-72.6zm-1.8 18.5h.4l13.6 32.4H79.6zm101.3 0a8 8 0 01-5.6-2.5 7.8 7.8 0 01-2.4-5.6 9.3 9.3 0 012.4-5.5 8.9 8.9 0 015.6-2.5 9.9 9.9 0 016.3 2.5l2.1 5.2-2 6a9.5 9.5 0 01-6.4 2.4m11.5 8.7V337l1 3.5 2.8 1.7 6 1.4v3.9h-31v-3.9l5.5-.7 2.8-1.7 1-3.5v-36l-1-3.8-2.8-2.5-3.5-1-4.2-.7v-3.9l22.7-1.4.7 1M166 255.7l-22.7 1.4-1.4.3v3.5h1.4l3.5.7 4.2 1.4 2.8 2.8 1 4.2v67.8l-1 3.5-2.8 1.7-6 .7v3.8h31.5v-3.8l-3.2-.3-2.8-1-2.8-1.8-.7-3.5v-80.3l-1-1m424.3 34.2l21.6-1.4 1 1v8h.4l3.8-3.4 4.6-3.2a22.8 22.8 0 015.5-2.4l7.4-.7 10.8 2.8 6.6 7.3 3.9-3.5 4.9-3.1a23.7 23.7 0 015.6-2.8l7.6-.7s8.4 0 13 4.9c0 0 4.9 4.8 4.9 14.6V337l.6 3.5 2.5 2 3.1.8 3.5.3v3.9h-31.4v-3.9l5.6-.7 2.8-1.7.7-3.5v-30s0-6.3-2.8-9.8a11.9 11.9 0 00-7.6-3.1l-6.3.7-5.3 2.4-3.1 2.8-1.8 2.8V337l.7 3.5 2.8 2 2.8.8 3.2.3v3.9H631v-3.9l5.2-.7 2.8-1.7.7-3.5v-30s0-6.3-2.8-9.8a10.8 10.8 0 00-7.6-3.1l-6 .7-5.2 2.4-3.1 3.1-2.1 2.5V337l.7 3.5 2.8 1.7 2.8 1 3.1.4v3.8h-31v-3.8l5.9-.7 2.8-1.8.7-3.4v-36.3l-1-3.5-2.5-2.5-3.2-1-3.9-.7v-3.8m-125.6 30.7s0 11.8 5.9 18.8c0 0 5.6 7.4 15 7.4l11.5-3.2 8.7-8.7 4.2 2.8a37.3 37.3 0 01-11.8 11.5 36 36 0 01-16 4.2s-14.7 0-23.5-8.7a35.4 35.4 0 01-8.7-23.8 35 35 0 012.4-11.8 35.8 35.8 0 016.7-10.5 38.5 38.5 0 0110.5-7 40 40 0 0113.6-2.8s10.1 0 16.8 4.2c0 0 6.2 4.9 6.2 11.9l-1.7 5.6-5.2 2-6.7-1.7s-2.4-1.4-2.4-3.8l1-5.6 1.1-4.5-3.9-2.5-5.5-.7-6.3 1-6 5-4.2 8.3a43.8 43.8 0 00-1.7 12.6m84.8-31.8a39.8 39.8 0 00-24.4 9c-9.1 9.1-9.1 23.5-9.1 23.5a37 37 0 002.4 13.6l7.4 10.5a38.7 38.7 0 0010.8 6.2l12.6 2.1h.3l14.4-2.4a34.1 34.1 0 0010.8-7.3l7-10.5 2-12.9a33.4 33.4 0 00-9.4-23c-9.4-8.8-24.1-8.8-24.1-8.8h-.7zm-.2 4.9h.6l9 2 6 6.4 3.1 8.7 1 10.1c0 13-4.9 20.6-4.9 20.6a19 19 0 01-14.3 7.7h-.3l-8.8-2.4-5.9-6.3-3.5-9.1a61.3 61.3 0 01-1-11.2l.7-9.4 3.1-8.4a26 26 0 016.7-6.6 20.6 20.6 0 018.5-2.1zm-118.2 55.5a5.2 5.2 0 005.3-5.6s0-5.2-5.3-5.2c0 0-5.6 0-5.6 5.2 0 0 0 5.6 5.6 5.6" class="cls-1"/>
  <path d="M700.5 0v2.4h6v15.8h2V2.4h6V0zM717 0v18.2h2.5v-15l5.2 15h2.1l4.9-14.7v14.7h2.5V0h-3.2l-5.2 15.4L720.4 0z"/>
  <path d="M585.6 0l-9 .7S567 2.7 567 7v14l-40.8 1.4v-7.7h-18.9s-18.8 1.4-18.8 7v51H567v34.9H513v14h54.1v80l40.2-4.2v-75.9h57.6v-14h-57.6V72.6H675v-7h1.8s5.2 0 8.3-8.3l3.2-23S688 17.4 670 17.4l-62.8 2V0zm62.2 32.1a5.6 5.6 0 016 5.6L650.8 59H526.3V36l40.8-1v.3l40.2-1.7z" class="cls-2"/>
  <path d="M341.5 107.6l13 15 15 13.2s4.1 4.2 8.3 0l14.7-13.2 13-15s4.5-3.9 0-8.8l-13-14.6-14.6-13s-4.2-4.2-8.4 0l-14.7 13-13.3 14.6s-3.8 5 0 8.8m335.3 46a5.7 5.7 0 000-6.6l-10.1-11.2-11.2-9.7a4.7 4.7 0 00-6.7 0l-11.1 9.7-9.8 11.2s-2.8 3.5 0 6.6l9.8 11.2 11.1 9.8s3.5 3.5 6.7 0l11.1-9.8 10.2-11.2" class="cls-1"/>
  <path d="M77.9 90.8h119.8a166.4 166.4 0 01-12.3 30.7s-15 29.4-38 51.4c0 0-43.3 40.5-71.3 40.5 0 0-20.6 0-33.8-7.7 0 0-16.5-10.1-16.5-31 0 0 0-27.7 42.3-35.7 0 0-27.2-1.8-41.6 12.6 0 0-13.2 12.5-13.2 34.5 0 0 0 21 19.2 33.6A78.6 78.6 0 0074 230.8l5.6.4S127 228.7 171 192c0 0 37.7-31.5 56.6-76.5a187.8 187.8 0 009-28l2.1-10.8v.4h-64.6V46.4h81.4V32.9h-81.3V1.1H153l-9 .7s-9.6 2-9.6 6.2v24.8H56v13.7h78.5v30.7H78v13.6M346.4 0l-.7 6.6-4.5 16.4A94.5 94.5 0 01329 43v157.5l-40.2-4.9v-125s-15 7.7-27.9 12.6l-5.2-8.4A238.3 238.3 0 00282.9 52s26.9-26.9 26.9-45c0 0 0-4.2 9.4-6.3l9-.7h18.2" class="cls-2"/>
  <path d="M335.3 60.4h75.4v145.3l40.1.7v-146h21v-14h-21V0h-21.6l-9 .7s-9.5 2-9.5 6.3v39.5h-75.4v14" class="cls-2"/>
  <path d="M152.6 145s-51-22.4-82.4-23.5c0 0-25.8-1.4-47.1 13.6 0 0-22.4 15.8-23 39.2 0 0 0 27.2 21.6 42.6 0 0 20 14.3 52 14.3h3.2l-5.3-.4s-23.4 0-39.8-11.5c0 0-18.2-13-18.2-34.2 0 0 0-23 16.1-35 0 0 13.6-9.7 35.6-10l31.1 3.4 24.1 9.5 57.6 29.3s39.5 20.6 77.2 33.2c0 0 131.3 43.6 425 15l15.7-3.2s5.6-2.4 10.1-9.7c0 0 3.9-6 30-29.4 0 0 18.9-17 12.6-22.7l-9 1.4s-96 21.7-242.5 27.6c0 0-164.4 6.7-245.8-16.7 0 0-56.2-16.1-98.8-32.9" class="cls-1"/>
</svg>
