<svg xmlns="http://www.w3.org/2000/svg" id="Layer_1" data-name="Layer 1" preserveAspectRatio="xMidYMid meet" viewBox="0 0 750 530.1">
  <defs/>
  <path fill="#fff" d="M750 484.6a45.6 45.6 0 01-45.5 45.5H45.8A45.6 45.6 0 01.2 484.6v-439A45.6 45.6 0 0145.8 0h658.7A45.6 45.6 0 01750 45.5v439z"/>
  <path d="M602.6 148.1H422.5L404 168.8l-59.3 67-18.4 20.6H148.8l18-20.9 8.4-9.9 18-21h-81.6c-15 0-27.2 12.7-27.2 28v58.8a27.5 27.5 0 0027.1 27.8h313.3c15 0 35.4-9.2 45.3-20.7l47.4-53.8z" class="cls-2"/>
  <path fill="#ffd800" d="M638.7 85.3c15 0 27.1 12.7 27.1 27.9v58.6a27.5 27.5 0 01-27.1 27.8h-81.4l18.1-20.7 9-10.3 18.2-20.7H422.5l-96 108.1H148L276 111l4.8-5.4a70.3 70.3 0 0145.6-20.7h312.3z"/>
  <path d="M665.8 442.5V434c0-1.1-.7-1.8-2.3-1.8H658c-1.6 0-2.8-.3-3-1-.5-.6-.5-2-.5-4.3v-32.2h9a2.4 2.4 0 002.3-2.3v-9a2.4 2.4 0 00-2.3-2.3h-9v-11.7a2 2 0 00-.4-1.4 3.3 3.3 0 00-1.4-.5h-.2l-13.4 2.3a11.2 11.2 0 00-1.6.7 2 2 0 00-.7 1.4v9h-9a2.4 2.4 0 00-2.3 2.3v7.4a1.4 1.4 0 00.7 1.3 3.7 3.7 0 001.6 1l9 1.3v32.2a37 37 0 001.2 9.7 15.3 15.3 0 003.4 5.8 12.2 12.2 0 005.8 2.7 42 42 0 008 .7 26.4 26.4 0 004.3-.2c1.2-.3 2.8-.5 4.4-.7a1.7 1.7 0 001.9-1.9m-47.8-1.1v-10a1.4 1.4 0 00-.7-1.3 3.3 3.3 0 00-1.4-.5h-.2a56.6 56.6 0 01-6 .5 69.5 69.5 0 01-7.6.2 8.4 8.4 0 01-3.4-.7 8.8 8.8 0 01-3-2 8.8 8.8 0 01-1.9-4 23.1 23.1 0 01-.7-6.2v-9.2a23.1 23.1 0 01.7-6.2 12.4 12.4 0 011.9-3.9 8.8 8.8 0 013-2 9.2 9.2 0 013.4-.7 69.5 69.5 0 017.6.2l6 .4h.2a2 2 0 001.4-.4 1.4 1.4 0 00.7-1.4v-9.9a2.2 2.2 0 00-.5-1.6 6.7 6.7 0 00-1.8-1c-1.6-.4-3.5-.6-6-1a50 50 0 00-8.7-.5c-7.9 0-14 2.3-18.9 7.1a29.1 29.1 0 00-7.1 21v9.1c0 9 2.3 16.1 7.1 21a25 25 0 0018.9 7c3.2 0 6.2-.1 8.7-.4a55.9 55.9 0 006-1.1 3.5 3.5 0 001.8-1c.5-.2.5-.9.5-1.5m-72-11.8a24.5 24.5 0 01-4.4 1.6 17.5 17.5 0 01-4.8.7c-2.3 0-4.1-.2-5.3-.9s-1.6-2-1.6-4.6v-1a14 14 0 01.5-3.4 6 6 0 011.6-2.5 6 6 0 013-1.4 24.4 24.4 0 014.8-.4h6.2v12zm17.5-26.9a26.9 26.9 0 00-1.9-10.3 19.2 19.2 0 00-5-7 18.8 18.8 0 00-8-3.8 39.7 39.7 0 00-10.9-1.4 82.6 82.6 0 00-10.8.7 48 48 0 00-8.3 1.6c-1.3.4-2 1.1-2 2.5v9a3.3 3.3 0 00.4 1.6 3.3 3.3 0 001.4.5h.5c.9 0 2-.3 3.2-.3l4.4-.2 5.2-.2h5.3a11 11 0 016 1.4c1.4.9 2.3 3 2.3 6.2v3.9h-6c-9.4 0-16.6 1.4-20.7 4.4-4.4 3-6.4 7.8-6.4 14.2v1c0 3.6.4 6.6 1.6 9a16.8 16.8 0 004.3 6 18.8 18.8 0 006 3.2 24.3 24.3 0 007.2.9 23.6 23.6 0 008.5-1.4 33.6 33.6 0 006.9-3.7v1.9a2.4 2.4 0 002.3 2.3h12.4a2.4 2.4 0 002.3-2.3v-39.7zm-59.1 39.8V434c0-1.1-.7-1.8-2.3-1.8h-5.6c-1.6 0-2.7-.3-3-1-.4-.6-.4-2-.4-4.3v-32.2h9a2.4 2.4 0 002.3-2.3v-9a2.4 2.4 0 00-2.3-2.3h-9v-11.7a2 2 0 00-.5-1.4 3.3 3.3 0 00-1.3-.5h-.3l-13.3 2.3a11.2 11.2 0 00-1.6.7 2 2 0 00-.7 1.4v9h-9.2a2.4 2.4 0 00-2.3 2.3v7.4a1.4 1.4 0 00.7 1.3 3.7 3.7 0 001.6 1l9 1.3v32.2a37 37 0 001.1 9.7 15.3 15.3 0 003.5 5.8 12.2 12.2 0 005.7 2.7 42 42 0 008 .7 26.4 26.4 0 004.4-.2c1.2-.3 2.8-.5 4.4-.7 1.4 0 2-.7 2-1.9m-48.2-.2v-36.8a46.5 46.5 0 00-1-9.9 22.5 22.5 0 00-3-8 13.4 13.4 0 00-6-5.3 20.4 20.4 0 00-9.8-2 30.1 30.1 0 00-9.5 1.3 32.3 32.3 0 00-8.7 4.6v-2.8a2.4 2.4 0 00-2.3-2.3h-12.4a2.4 2.4 0 00-2.3 2.3v59a2.4 2.4 0 002.3 2.2h13.3a2.4 2.4 0 002.3-2.3v-43.5a58.8 58.8 0 015.6-2.5 13.1 13.1 0 015-1 20.6 20.6 0 014.2.5 4.8 4.8 0 012.5 1.6 6.7 6.7 0 011.1 3.2 30.9 30.9 0 01.3 4.9v36.8a2.4 2.4 0 002.3 2.3h13.3a2 2 0 001.6-.7 1.8 1.8 0 001.2-1.6m-83.7-25.6c0 9-3.3 13.6-10 13.6-3.2 0-5.7-1.1-7.3-3.4s-2.5-5.8-2.5-10.2V409c0-4.6.9-7.8 2.5-10.1s4.1-3.5 7.4-3.5c6.4 0 9.9 4.7 9.9 13.6zm17.9-7.8a38.4 38.4 0 00-1.9-12 25 25 0 00-5.2-9 23.2 23.2 0 00-8.8-5.7 35.6 35.6 0 00-23.9 0 23.2 23.2 0 00-8.7 5.7 25 25 0 00-5.3 9 38.4 38.4 0 00-1.9 12v7.8a38.4 38.4 0 001.9 12 25 25 0 005.3 9 23.2 23.2 0 008.7 5.8 35.6 35.6 0 0024 0 23.2 23.2 0 008.7-5.8 25 25 0 005.2-9 38.4 38.4 0 001.9-12zm-61.4 32.5v-10a1.4 1.4 0 00-.7-1.3 3.3 3.3 0 00-1.6-.5h-.2a56.6 56.6 0 01-6 .5 69.5 69.5 0 01-7.6.2 8.4 8.4 0 01-3.5-.7 8.8 8.8 0 01-3-2 8.8 8.8 0 01-1.8-4 23.1 23.1 0 01-.7-6.2v-9.2a23.1 23.1 0 01.7-6.2 12.4 12.4 0 011.8-3.9 8.8 8.8 0 013-2 9.2 9.2 0 013.5-.7 69.5 69.5 0 017.6.2l6 .4h.2a3.3 3.3 0 001.6-.4 1.4 1.4 0 00.7-1.4v-9.9a2.2 2.2 0 00-.5-1.6 6.7 6.7 0 00-1.8-1c-1.6-.4-3.5-.6-6-1a50 50 0 00-8.8-.5c-7.8 0-14 2.3-18.8 7.1a29.1 29.1 0 00-7.1 21v9.1c0 9 2.3 16.1 7 21a25 25 0 0019 7c3.2 0 6.2-.1 8.7-.4 2.5-.4 4.4-.7 6-1.1a3.5 3.5 0 001.8-1 2.7 2.7 0 00.5-1.5m-54.5.9v-36.8a46.5 46.5 0 00-1-10 22.5 22.5 0 00-3-8 13.4 13.4 0 00-6-5.3 20.4 20.4 0 00-9.8-2 30.1 30.1 0 00-9.5 1.4 32.3 32.3 0 00-8.7 4.6v-2.8a2.4 2.4 0 00-2.3-2.3h-12.4a2.4 2.4 0 00-2.3 2.3v58.9a2.4 2.4 0 002.3 2.3h13.4a2.4 2.4 0 002.3-2.3v-43.5a58.8 58.8 0 015.5-2.5 13.1 13.1 0 015-1 20.6 20.6 0 014.2.5 4.8 4.8 0 012.5 1.6 6.7 6.7 0 011.2 3.2 30.9 30.9 0 01.2 4.9v36.8a2.4 2.4 0 002.3 2.3h13.3a2 2 0 001.6-.7 1.8 1.8 0 001.2-1.6m-85.6-12.7a24.5 24.5 0 01-4.4 1.6 17.5 17.5 0 01-4.8.7c-2.3 0-4.1-.2-5.3-.9s-1.6-2-1.6-4.6v-1a14 14 0 01.5-3.4 6 6 0 011.6-2.5 6 6 0 013-1.4 24.4 24.4 0 014.8-.4h6.2zm17.7-26.9a26.9 26.9 0 00-1.8-10.3 19.2 19.2 0 00-5-7 18.8 18.8 0 00-8-3.8 39.7 39.7 0 00-10.9-1.4 82.6 82.6 0 00-10.8.7 48 48 0 00-8.3 1.6c-1.3.4-2 1.1-2 2.5v9a3.3 3.3 0 00.4 1.6 3.3 3.3 0 001.4.5h.5c.9 0 2-.3 3.2-.3l4.6-.2 5.3-.2h5.3a11 11 0 016 1.4c1.3.9 2.3 3 2.3 6.2v3.9h-6c-9.5 0-16.6 1.4-20.7 4.3-4.4 3-6.5 7.9-6.5 14.3v1c0 3.6.5 6.6 1.6 9a16.8 16.8 0 004.4 6 18.8 18.8 0 006 3.1 24.3 24.3 0 007.1 1 23.6 23.6 0 008.5-1.4 33.6 33.6 0 007-3.7v1.8a2.4 2.4 0 002.2 2.3h12.5a2.4 2.4 0 002.3-2.3v-39.6zm-79 17.5a8.8 8.8 0 01-3.3 7.1c-2 1.6-6.2 2.6-11.7 2.6h-9.2v-20.7h12.4c4.4 0 7.6.9 9.2 3a11.1 11.1 0 012.5 6.9zm-.5-32.9a17.8 17.8 0 01-.5 3.5 6 6 0 01-1.8 2.7 12.2 12.2 0 01-3.4 1.8 18 18 0 01-5.6.7h-12.4v-19h8.5c5.7 0 9.6.7 12 2a7.3 7.3 0 013.4 6.7l-.2 1.6zm18.8 31.7a17.2 17.2 0 00-2.8-9.9 17.5 17.5 0 00-7-6.4 15.6 15.6 0 006.8-6.5 20.2 20.2 0 002.6-9.6v-2.1a23 23 0 00-2.6-11 19.3 19.3 0 00-7.1-7.1 34.6 34.6 0 00-11-4 89.5 89.5 0 00-14.3-1H105l-5.5.1a34.5 34.5 0 00-5 .5c-1.7.2-2.8.2-3.7.5-2.1.4-3.7.9-4.6 2-1 1-1.4 2.8-1.4 5.3v67.4c0 2.5.4 4.1 1.4 5.3a9.5 9.5 0 004.6 2 20.3 20.3 0 003.9.5c1.6.2 3.2.2 5 .5a44.3 44.3 0 005.5.2h5.8a83 83 0 0013.6-1.1 33.1 33.1 0 0011-4 21.8 21.8 0 007.6-7.5 24.5 24.5 0 002.7-12.2V419z" class="cls-2"/>
  <path fill="none" d="M0 0h749.8v530.1H0z"/>
</svg>
