<svg xmlns="http://www.w3.org/2000/svg" viewBox="0 0 750 471">
  <g fill="none" fill-rule="evenodd">
    <rect width="750" height="471" fill="#0079BE" rx="40"/>
    <path fill="#FFF" d="M585 238c0-99.5-83-168.2-174-168.2h-78.2c-92 0-167.7 68.8-167.7 168.1 0 91 75.7 165.7 167.7 165.3H411c91 .4 174-74.3 174-165.3z"/>
    <path fill="#0079BE" d="M333.3 84c-84 0-152.2 68.2-152.2 152.5S249.2 389 333.3 389.1c84 0 152.2-68.3 152.2-152.6S417.4 84 333.3 84z"/>
    <path fill="#FFF" d="M237 236.1a96.9 96.9 0 0162-90.3v180.5a96.8 96.8 0 01-62-90.2zm131 90.3V145.8a96.8 96.8 0 010 180.6z"/>
  </g>
</svg>
