<svg xmlns="http://www.w3.org/2000/svg" viewBox="0 0 780 501">
  <g fill="none" fill-rule="evenodd">
    <path fill="#4d4d4d" d="M55 0A55 55 0 000 55v391a55 55 0 0055 55h670a55 55 0 0055-55V55a55 55 0 00-55-55z"/>
    <path fill="#fff" d="M415.1 161.2c31 0 56 23.6 56 52.7 0 29.2-25 52.8-56 52.8s-56-23.6-56-52.7c0-29.2 25-52.8 56-52.8zm-88 .7a55 55 0 0125.3 6v22.8a35.4 35.4 0 00-25.7-11.1 34 34 0 00-34.5 34c0 20.1 14.7 34.2 35.4 34.2 9.3 0 16.6-3 24.8-10.8v22.7c-9.3 4.2-16.9 5.8-25.7 5.8-31.3 0-55.6-22.6-55.6-51.7 0-28.9 25-52 56-52zm-97 .6c11.5 0 22 3.7 30.9 11l-10.8 13.3c-5.3-5.7-10.4-8-16.5-8-8.9 0-15.3 4.7-15.3 11 0 5.3 3.6 8.1 16 12.4 23.3 8 30.2 15.2 30.2 31 0 19.1-15 32.5-36.3 32.5-15.6 0-27-5.8-36.5-18.9l13.3-12a24.5 24.5 0 0022.4 13.2c9.2 0 16-6 16-14 0-4.1-2-7.7-6.2-10.2-2-1.2-6.2-3-14.2-5.7-19.3-6.5-26-13.5-26-27.2 0-16.2 14.3-28.4 33-28.4zm234.7 1.7h22.4l28 66.6 28.5-66.6H566L520.5 266h-11zm-397.4.2h30.2c33.3 0 56.5 20.4 56.5 49.6 0 14.6-7.1 28.7-19.1 38.1a57 57 0 01-37.6 11.4h-30zm96.1 0h20.6v99.1h-20.6zm411.8 0h58.2v16.8h-37.7v22h36.3V220h-36.3v26.8h37.7v16.7h-58.2v-99.1zm71.8 0h30.5c23.7 0 37.3 10.7 37.3 29.3 0 15.2-8.6 25.1-24 28l33.1 41.8h-25.2l-28.5-39.8h-2.6v39.8H647zm20.6 15.6v30h6c13 0 20-5.3 20-15.3 0-9.6-7-14.7-19.7-14.7zm-579.8 1.2v65.6h5.6c13.2 0 21.6-2.4 28-8a32.5 32.5 0 000-49.7c-6.7-5.7-14.8-7.9-28-7.9z"/>
    <path fill="#f47216" d="M780 288.4C754 306.7 558.9 437.7 221.2 501H725a55 55 0 0055-55z"/>
  </g>
</svg>
