<svg xmlns="http://www.w3.org/2000/svg" xmlns:xlink="http://www.w3.org/1999/xlink" id="Layer_1" x="0" y="0" version="1.1" viewBox="0 0 750 576.8" xml:space="preserve">
  <symbol id="EPS-Logo" viewBox="-385 -236.3 770 472.8">
    <path id="XMLID_367_" d="M219 0h-61.3c-6.8 0-12.4 5.4-12.4 12.2S150.9 25 157.7 25H251v46h-93.3a59.1 59.1 0 010-118h60.4c6.8 0 12.4-5.4 12.4-12.2 0-6.8-5.5-11.8-12.4-11.8H88.6c-11-21-21.7-39-43.4-48H219a59.5 59.5 0 010 119z" class="st0"/>
    <path id="XMLID_201_" d="M-15.8 71A94.6 94.6 0 01-110-23.8V-221h47v102h47.1a95 95 0 0194 95.4c0 52.2-42 94.6-93.9 94.6zm0-142H-63v47.4c0 26.5 21.1 48 47.2 48a47.8 47.8 0 000-95.4z" class="st0"/>
    <g id="XMLID_196_">
      <g id="XMLID_198_">
        <path id="XMLID_200_" d="M-258.8-119a95.6 95.6 0 00-91.9 73s-2.9 13.7-2.9 22.7 2.8 22.8 2.8 22.8a94.8 94.8 0 00186.9-22.6V-46h-138.6c8.2-16 24.7-25 43.8-25h124.6l.2 135.3a36.8 36.8 0 01-36.7 36.7h-176.6c-20.2 0-36.7-16-36.7-36.2v-176.6a37.2 37.2 0 0136.7-37.2h176.6c18.1 0 33.2 13 36.1 30h-124.3z" class="st2"/>
        <path id="XMLID_199_" d="M-259 26.6A51 51 0 01-302.8 0h87.6A51 51 0 01-259 26.6z" class="st2"/>
      </g>
      <path id="XMLID_197_" d="M-179 158.4a79 79 0 01-80 78.1 79.1 79.1 0 01-80-75.9v-24c0-2.8 2.3-5.6 5.2-5.6h29.4c2.9 0 5.4 2.8 5.4 5.6v21.9c0 21.5 17.9 39 40 39s40-17.5 40-39v-21.9c0-2.8 2.3-5.6 5.2-5.6h29.4c2.9 0 5.3 2.8 5.3 5.6v21.8h.1z" class="st2"/>
    </g>
    <g id="XMLID_13_">
      <path id="XMLID_192_" d="M36.9-180l-4.3-24.1c-2.1-12.2-10.1-17.8-20.9-17.8-9.2 0-16.3 6-14.2 17.7L1.8-180h6.6l-4.3-24.1c-1.3-7.5 2.1-11.8 8.5-11.8 6.6 0 12.2 3.9 13.5 11.8l4.3 24.1h6.5zm-25.7 7.5c0-2 1.5-3 3.2-3 2.1 0 4.3 1.5 4.3 4.3 0 1.9-1.3 3-3 3-2.2 0-4.5-1.4-4.5-4.3zm14.1.1c0-2.1 1.6-3 3.3-3 1.8 0 4.3 1.5 4.3 4.2 0 1.9-1.4 3-3 3-2.1 0-4.6-1.4-4.6-4.2z" class="st0"/>
      <path id="XMLID_189_" d="M52.8-180l-3-16.7a15 15 0 0011.2 5.2c7.3 0 12.4-4.3 12.4-12.3 0-11.3-7.9-18.1-17.9-18.1-3.9 0-7.2 1.4-9.2 5.1l-1.1-4.3h-5.7l7.3 41h6zm-4.6-28.1c-.2-4.8 2.9-8 7.4-8 5.7 0 11.3 4.4 11.6 11.2.2 4.9-3 7.8-7.4 7.8-5.6 0-11.3-4.6-11.6-11z" class="st0"/>
      <path id="XMLID_186_" d="M85.4-209c-.2-4 2.9-7.3 8.2-7.3 3 0 6.9 1.2 9 3.2l3.3-3.8c-3.6-3.3-8.9-5-13.4-5-8.4 0-13.3 5-13.3 12.7 0 10.2 8 17.8 18.3 17.8 9.4 0 14.7-5.7 11.5-17.7H85.4zm18.7 5c.5 5-2.5 7-7.4 7-4.4 0-8.5-2-10.3-7h17.7z" class="st0"/>
      <path id="XMLID_184_" d="M125.3-192l-.3-3.9a11 11 0 009.4 4.5c2.8 0 5.4-1 6.7-2.5l-3.7-5.3a6.3 6.3 0 01-4.8 1.8 9.2 9.2 0 01-9.3-7.9l-2.8-15.7h-6.1l5.1 29h5.8z" class="st0"/>
      <path id="XMLID_182_" d="M170.5-192l3.1-22.9 11.1 22.9h6.8l-15.3-29H169l-2.9 19.1-4.7-9.5-5.1-9.6h-7.1l-5.1 29h6.9l3-22.9 11.2 22.9h5.3z" class="st0"/>
      <path id="XMLID_179_" d="M199.3-209c-.2-4 2.9-7.3 8.2-7.3 3 0 6.9 1.2 9 3.2l3.3-3.8c-3.6-3.3-8.9-5-13.4-5-8.4 0-13.3 5-13.3 12.7 0 10.2 8 17.8 18.3 17.8 9.4 0 14.7-5.7 11.5-17.7h-23.6zm18.6 5c.5 5-2.5 7-7.4 7-4.4 0-8.5-2-10.3-7h17.7z" class="st0"/>
      <path id="XMLID_168_" d="M239.6-192l-5.1-29h-6.1l5.1 29h6.1zm-5.4 7.9c0-2.1 1.5-3.1 3.2-3.1 2.4 0 4.6 1.5 4.6 4.4a3 3 0 01-3.1 3.1c-2.2 0-4.7-1.4-4.7-4.4z" class="st0"/>
      <path id="XMLID_60_" d="M266.6-199.2c-1.9 2.1-4.3 2.7-7.2 2.7-4 0-6.9-1.4-6.9-3.9 0-2.1 2.3-3 5.7-3.3 5.3-.5 12.1-2.2 10.7-9.8-1-5.4-6.4-8.6-14-8.6-4.7 0-9.3 1.1-12.4 5.4l4 4.3c2.2-3 6-4.3 9.5-4.3 2.9 0 6.3 1.1 6.9 3.8.5 2.6-1.8 3.6-6 4-5 .5-10.4 2.3-10.4 7.8 0 7.3 7.9 9.8 13.8 9.8 4.5 0 7.8-1 10.5-3.9l-4.2-4z" class="st0"/>
      <path id="XMLID_57_" d="M285.8-192l-2.8-15.6c-.9-5 1.4-8.4 6.4-8.4 4.8 0 8.9 4 9.7 8.8l2.7 15.2h6.1l-5.1-29h-5.5l.4 4.2a15 15 0 00-10.9-4.8c-7.2 0-11.4 5.1-9.9 13.9l2.8 15.6h6.1z" class="st0"/>
      <path id="XMLID_55_" d="M334.7-221l2.8 15.5c.9 5-.8 8.4-6.4 8.4-4.8 0-8.9-3.9-9.8-8.7l-2.7-15.2h-6.1l5.1 29h5.6l-.4-4.2c3.4 3.1 6.9 4.7 10.6 4.7 7.1 0 11.7-4.9 10.1-13.9l-2.8-15.6h-6z" class="st0"/>
      <path id="XMLID_15_" d="M355.3-225c-.4-4 2.7-5.6 7.8-5.6 4.5 0 9.3 2.5 10.5 8.9l.9 5a14 14 0 00-11.1-5.2c-7.5 0-12.7 4.4-12.7 12.5 0 11.5 8.5 18.1 18.1 18.1 4.1 0 7.7-1.9 9-5.2l1 4.6h5.9l-5.1-29.9c-1.9-11.1-10.1-14.5-17.6-14.5-9 0-14 4.3-12.7 11.3h6zm1.7 16.7c0-5 3.3-8 7.9-8 12.6 0 16 19.3 3.4 19.3a11 11 0 01-11.3-11.3z" class="st0"/>
    </g>
  </symbol>
  <use id="XMLID_202_" width="770" height="472.8" x="-385" y="-236.3" overflow="visible" transform="matrix(.9728 0 0 -.9728 375.5 285.5)" xlink:href="#EPS-Logo"/>
</svg>
