<svg xmlns="http://www.w3.org/2000/svg" viewBox="0 0 740 318.1">
  <path fill="#000268" d="M0 57A57.3 57.3 0 0157.4 0h625.2A57.3 57.3 0 01740 57v204a57.2 57.2 0 01-57.4 57H57.4A57.1 57.1 0 010 261.2z" data-name="92653320"/>
  <path fill="#fff" d="M23.6 59v200.2a35.7 35.7 0 0035.8 35.7h327.5V23.4H59.4A35.7 35.7 0 0023.6 59zm448 99.1c0 12.8-6.3 21.5-16.7 21.5-9.2 0-16.9-8.8-16.9-20.5 0-12 6.8-20.9 17-20.9 10.6.1 16.6 9.3 16.6 20zm-61.3 73.1H438v-43.4h.3c5.3 9.5 15.7 13 25.3 13 23.8 0 36.5-19.7 36.5-43.3 0-19.4-12-40.3-34.2-40.3-12.6 0-24.2 5-29.8 16.2h-.4V119h-25.5v112.2zm127.6-57.6c0-7.7 7.3-10.6 16.7-10.6 4.1 0 8 .2 11.7.4 0 9.3-6.6 18.9-17 18.9-6.5 0-11.4-3.1-11.4-8.7zm55.8 25.4a96.1 96.1 0 01-1.6-18.9v-29.8c0-24.4-17.6-33.2-38-33.2a82.2 82.2 0 00-32 5.7l.5 18.7c7.7-4.3 16.6-6 25.5-6 10 0 18.2 3 18.3 13.9a84.7 84.7 0 00-12.8-1.1c-14.7 0-41.3 2.9-41.3 27.3 0 17.4 14.1 25.1 29.9 25.1 11.4 0 19-4.4 25.3-14.4h.3c0 4.2.5 8.3.6 12.6h25.2zm12.3 32.2a78.8 78.8 0 0017.2 1.9c25.3 0 31.3-19.6 39.2-39.6l29.3-74.5h-27.6l-16.5 52.2h-.2L630.2 119h-29.8l32.4 81.9c-2 7-7.2 11-14 11a35.1 35.1 0 01-11-1.7l-1.8 21z" data-name="92186184"/>
  <path fill="#ff0007" d="M91 158.3c0-11 5.4-20 15.7-20 12.5 0 17.7 10 17.7 18.9 0 12.2-7.9 20.5-17.7 20.5-8.3 0-15.7-7-15.7-19.5zm60.1-39.3h-25v14.4h-.3a31.2 31.2 0 00-27.1-16.3c-25 0-36.1 17.8-36.1 41.6 0 23.7 13.7 40.3 35.6 40.3 11 0 20.3-4.4 26.9-13.7h.3v4.3c0 15.6-8.6 23.2-24.6 23.2a54.7 54.7 0 01-27-6.7L72.3 228a92.4 92.4 0 0030.6 5c32.2 0 48.2-10.5 48.2-43.3zm46.7-33.4h-27.7V106h27.7V85.6zM170.1 199h27.7v-80h-27.7zm104.6-81a64.1 64.1 0 00-9.3-1c-12 0-18.9 6.5-23.7 16.7h-.3V119h-25.1v80h27.6v-33.7c0-15.7 7.3-25 20.1-25a31.8 31.8 0 019.4.9l1.3-23.2zm47.7 63.4c-12.8 0-18-10.6-18-22.4 0-12 5.1-22.5 18-22.5s17.9 10.6 17.9 22.5c0 11.8-5.3 22.4-18 22.4zm0 19.4c26.3 0 46.5-15.4 46.5-41.8 0-26.6-20.2-42-46.5-42s-46.6 15.5-46.6 42c0 26.4 20 41.8 46.6 41.8z" data-name="47303032"/>
</svg>
