<svg xmlns="http://www.w3.org/2000/svg" data-name="Layer 1" viewBox="0 0 750 661.2">
  <path fill="#fff" d="M0 0v661.2h385.5c254.2 0 364.5-142.4 364.5-331.3C750 142 639.7 0 385.5 0z"/>
  <path d="M41.7 41.7h343.8c233.4 0 322.8 127.5 322.8 288.2 0 192.8-124.9 289.5-322.8 289.5H41.7zM75 75v511.1h310.5C573 586.1 675 498.8 675 330 675 156.4 564.4 75 385.5 75H75z"/>
  <path d="M116.7 367.5H216v177h-99.4z"/>
  <circle cx="166.3" cy="278.4" r="61.8"/>
  <path fill="#d50072" d="M424.5 307.3v28.6h-70.8V221h68.6v28.6h-40v13.3h37.8v28.6h-37.8v15.8zm12.4 28.6l34.7-115h40.7L547 336H517l-6.5-22.2h-37.4l-6.5 22.2zm44.7-50.8h20.7l-9.5-32.5h-1.7l-9.5 32.5zm79.8-64.2H590v86.4h42.4c-11.6-156.7-134.8-190.6-246.9-190.6H266.1V221h17.7c32.2 0 52.2 21.8 52.2 57 0 36.3-19.5 58-52.2 58H266v208.5h119.4c182.1 0 245.5-84.6 247.7-208.6h-71.8V221zM266 249.6v57.7h17.7c12.3 0 23.6-3.6 23.6-29.3 0-25.2-12.6-28.4-23.6-28.4z"/>
</svg>
