<svg xmlns="http://www.w3.org/2000/svg" viewBox="0 0 750 471">
  <defs>
    <linearGradient id="a" x1="0%" x2="100%" y1="50%" y2="50%">
      <stop offset="0%" stop-color="#007B40"/>
      <stop offset="100%" stop-color="#55B330"/>
    </linearGradient>
    <linearGradient id="b" x1=".5%" x2="100%" y1="50%" y2="50%">
      <stop offset="0%" stop-color="#1D2970"/>
      <stop offset="100%" stop-color="#006DBA"/>
    </linearGradient>
    <linearGradient id="c" x1=".1%" x2="100%" y1="50%" y2="50%">
      <stop offset="0%" stop-color="#6E2B2F"/>
      <stop offset="100%" stop-color="#E30138"/>
    </linearGradient>
  </defs>
  <g fill="none" fill-rule="evenodd">
    <rect width="750" height="471" fill="#0E4C96" rx="40"/>
    <path fill="#FFF" d="M617.2 346.8A75.4 75.4 0 01542 422H132.8V124.2A75.4 75.4 0 01208 49h409.1v297.9z"/>
    <path fill="url(#a)" d="M483.9 242c11.6.3 23.4-.5 35 .4 11.8 2.2 14.7 20 4.2 26-7.1 3.8-15.6 1.4-23.4 2H484V242zm41.8-32.1c2.6 9.2-6.2 17.4-15 16.1h-26.8c.1-8.6-.4-18 .2-26.2 10.8.3 21.6-.6 32.2.5 4.6 1.2 8.5 5 9.4 9.6zM590 74c.5 17.5 0 36 .2 53.8v217.8a54 54 0 01-51.6 51.4h-81.2V287.3c29.5-.2 59 .3 88.5-.3 13.6-.8 28.6-9.9 29.2-24.9 1.6-15.1-12.6-25.5-26.1-27.2-5.2-.1-5-1.5 0-2.1 12.9-2.8 23-16.1 19.2-29.5-3.2-14-18.8-19.5-31.7-19.5-26.4-.2-52.7 0-79 0 .1-20.5-.4-41 .2-61.5A54 54 0 01511.3 74H590z"/>
    <path fill="url(#b)" d="M159.7 125a54 54 0 0152-51h80.8c-.1 90.9.1 181.8-.2 272.7a54 54 0 01-51.6 50.3h-81V283.6c26.2 6.1 53.7 8.8 80.4 4.7 16-2.6 33.5-10.5 39-27 4-14.2 1.7-29.2 2.3-43.7v-33.9H235c-.2 22.4.4 44.8-.4 67.2-1.2 13.7-14.8 22.4-27.8 22-16 .1-47.9-11.7-47.9-11.7 0-41.9.5-94.4.7-136.2z"/>
    <path fill="url(#c)" d="M309.7 197.4c-2.4.5-.5-8.3-1-11.7 0-21.1-.4-42.3.2-63.4A54 54 0 01362.6 74h78.8c0 90.9.1 181.8-.1 272.7a54 54 0 01-51.7 50.3h-81V272.7c18.4 15.1 43.5 17.5 66.5 17.5a223 223 0 0051.3-6.6v-22.8c-19 9.4-41.2 15.4-62.2 10a33.9 33.9 0 01-25-33c-1.8-15.7 7.5-32.3 23-37 19.1-6 40-1.4 58 6.5 3.9 2 7.8 4.5 6.2-2v-17.9c-30-7.1-62-9.8-92.3-2a67.7 67.7 0 00-24.4 12z"/>
  </g>
</svg>
