<svg xmlns="http://www.w3.org/2000/svg" id="Layer_1" viewBox="-45 62.3 750 471">
  <path id="Rectangle-1" d="M-5 62.3h670a40 40 0 0140 40v391a40 40 0 01-40 40H-5a40 40 0 01-40-40v-391a40 40 0 0140-40z" class="st0"/>
  <path d="M160.2 477.3h340v-359h-340z" class="st0"/>
  <path d="M500.3 127.6l-10.1 17.1-330.5-7.6v-1.7zm-11.2 19.3l-10.4 17-313.2-7.9-.8-1.2zm-11.7 19.4l-10.2 16.9-290.2-7.9-.7-1.1zm-11.7 19.3l-9.9 17-266.6-7.9-.8-1.2zm-11.2 19.2l-10.1 17.1-243.7-7.9-.8-1.3zm-11.7 19.5l-10.1 16.9-220-7.9-.7-1.1zm-11.5 19.2l-10.1 17.1-196.1-7.9-.8-1.3zm-11.4 19.3l-10.2 17.1-173.1-7.9-.8-1.3zm-11.3 19.3l-10.5 17-150-7.9-.8-1.1zM397 301.5l-10.2 17-126.5-8-.8-1.1zm-11.5 19.3l-10.3 17-102.9-7.9-.8-1.2zM374 340l-10.3 17.1-79.4-7.9-.8-1.3zm-11.5 19.5l-10.2 16.8-56.3-7.8-.8-1.2zm-11.4 19.2l-10.4 17.1-33.2-7.9-.8-1.3zm-12 19.9l-10.4 17.7-11.1-9.2-.3-1.2zm-179.4 7.9h340.6-340.6z" class="st1"/>
  <path d="M159.7 406.5h340.6" class="st2"/>
  <path d="M159.7 387.2h340.6-340.6z" class="st1"/>
  <path d="M159.7 387.2h340.6" class="st2"/>
  <path d="M159.7 368h340.6-340.6z" class="st1"/>
  <path d="M159.7 368h340.6" class="st2"/>
  <path d="M159.7 348.6h340.6-340.6z" class="st1"/>
  <path d="M159.7 348.6h340.6" class="st2"/>
  <path d="M159.7 329.3h340.6-340.6z" class="st1"/>
  <path d="M159.7 329.3h340.6" class="st2"/>
  <path d="M159.7 310h340.6-340.6z" class="st1"/>
  <path d="M159.7 310h340.6" class="st2"/>
  <path d="M159.7 290.8h340.6-340.6z" class="st1"/>
  <path d="M159.7 290.8h340.6" class="st2"/>
  <path d="M159.7 271.3h340.6-340.6z" class="st1"/>
  <path d="M159.7 271.3h340.6" class="st2"/>
  <path d="M159.7 252.1h340.6-340.6z" class="st1"/>
  <path d="M159.7 252.1h340.6" class="st2"/>
  <path d="M159.7 232.8h340.6-340.6z" class="st1"/>
  <path d="M159.7 232.8h340.6" class="st2"/>
  <path d="M159.7 213.5h340.6-340.6z" class="st1"/>
  <path d="M159.7 213.5h340.6" class="st2"/>
  <path d="M159.7 194.1h340.6-340.6z" class="st1"/>
  <path d="M159.7 194.1h340.6" class="st2"/>
  <path d="M159.7 174.8h340.6-340.6z" class="st1"/>
  <path d="M159.7 174.8h340.6" class="st2"/>
  <path d="M159.7 155.6h340.6-340.6z" class="st1"/>
  <path d="M159.7 155.6h340.6" class="st2"/>
  <path fill="#fff" d="M364.5 427.4v37.4h25.4l3.2-7.1c-4.6.2-7.9.3-12.6.3h-5.4v-9.3h.6l8.8.3 3.2-7.3c-1.6.2-1.9.2-4.1.2-3.9.2-4.9.2-8.5.2v-7.7h1.3l12.8.3 3-7.3h-27.7zm-97.1 0l2.7 4-14.4 33.5h10.4l2.4-5.7h14.8l2.4 5.7h10.9l-16.4-37.4-12.8-.1zm12.9 24.9h-9l4.4-10.7 4.6 10.7zM221.4 425h-10.6v39.8h25.6l3-7.1c-3.3.2-7.6.3-12.2.3h-5.8v-33zm118.5 4.3a26.3 26.3 0 00-11.4-2.7c-8.1 0-13.6 4.4-13.6 10.7 0 4 1.7 6.6 6.3 9.6l5.4 3.6c2.5 1.7 3.5 3 3.5 4.9 0 2.4-2.2 3.8-5.5 3.8-2.8 0-4.6-.8-7.7-3.3l-2.8 6.6c4.7 2.5 7.1 3.2 11.2 3.2 9.3 0 15.2-4.6 15.2-11.7 0-4.1-1.9-6.8-6.6-10.1l-5.5-4c-2.4-1.6-3-2.4-3-3.6 0-2.1 1.6-3.3 4.3-3.3 2.4 0 4.4.8 7.6 2.8l2.6-6.5zm75.6-1.9v37.4h10.6v-30.5h2.3c4.7 0 7.3 1.9 7.3 5.4 0 3.6-3 6-7.7 6l-1.6-.2 12.8 19.3h11.7l-10.6-15.5c4.6-2.7 6.5-5.7 6.5-10.3 0-7.9-5.5-11.7-16.7-11.7l-14.6.1z"/>
</svg>
