<svg xmlns="http://www.w3.org/2000/svg" id="Layer_1" data-name="Layer 1" preserveAspectRatio="xMidYMid meet" viewBox="0 0 750 885.9">
  <defs/>
  <g id="g14">
    <g id="g20">
      <path id="path22" fill="#2c6cae" d="M371.2 713.9h307c70.2 0 70.9-74.5 63.8-111.3-4-24.8-46-24.6-50.6 0v28.7a24 24 0 01-23.9 23.8H78.7A24 24 0 0155 631.3v-28.7c-4.6-24.6-46.7-24.8-50.6 0C-2.8 639.4-2 713.9 68 713.9h303.2zM154 0h473.6C660.9 0 688 28.8 688 64v30.6c0 43.3-58.6 43-58.6.3V78.2A19.4 19.4 0 00610 58.9H135.6a19.4 19.4 0 00-19.3 19.3v16.4c0 43-55.8 42.7-55.8.9V64c0-35.2 27.2-64 60.5-64z"/>
    </g>
    <g id="g24">
      <path id="path26" d="M676.1 351.7a93.6 93.6 0 0155.5 83.8c0 51.6-45 93.7-100 93.7H477.3c-14.4 0-26.2-11-26.2-24.5V211.3a25.8 25.8 0 0125.7-25.8h128.5c54 0 98.3 44.2 98.3 98.2a97.8 97.8 0 01-27.5 68m-115.1-24h49v-.5a46.7 46.7 0 0039.5-46 46.7 46.7 0 00-46.6-46.5h-98.6V478h125a48 48 0 100-96.2H561a27 27 0 110-54.1" class="cls-2"/>
    </g>
    <g id="g28">
      <path id="path30" d="M173.6 804a8.3 8.3 0 0116.6 0v44.7a37.2 37.2 0 01-37.2 37.1 37.2 37.2 0 01-37.1-37V804a8.3 8.3 0 0116.5 0v44.8a20.7 20.7 0 0020.6 20.5 20.7 20.7 0 0020.6-20.6z" class="cls-2"/>
    </g>
    <g id="g32">
      <path id="path34" d="M251.8 869.3a8.3 8.3 0 110 16.6h-22.9a31.1 31.1 0 01-31-31V804a8.3 8.3 0 1116.5 0v50.8a14.7 14.7 0 0014.6 14.6h22.8z" class="cls-2"/>
    </g>
    <g id="g36">
      <path id="path38" d="M426.6 500a31 31 0 11-61.6 6.5L339.7 273l-89.8 228.2-.1.2-.3.6-.2.5v.1l-.2.5-.1.3-.2.4-.1.2-.3.5v.2a30.7 30.7 0 01-6.4 8.2h-.1l-.5.5a30.5 30.5 0 01-5.3 3.8h-.1l-.6.4-.6.3h-.2l-.4.2-.3.2-.4.2-.3.1-.4.2-.3.1-.3.1h-.1l-.3.2-.4.1-.3.1a31 31 0 01-9 1.7h-2.3a30.8 30.8 0 01-10.1-2l-.4-.2h-.1l-.5-.2-.4-.2-.3-.1-.3-.2-.4-.2h-.2l-.6-.4-.5-.2-.3-.2a31 31 0 01-4.7-3.3h-.1l-1-1-.8-.7-.8-.8-.9-1v-.1a30.9 30.9 0 01-3.4-4.7l-.1-.3-.3-.5-.3-.6v-.2l-.2-.4-.2-.3-.2-.4-.1-.4-.2-.4-.2-.5-90-228.6-25.4 233.4a31 31 0 11-61.5-6.6l29.9-275v-.2a51.5 51.5 0 0144.2-45.2l1.8-.2a52.5 52.5 0 017.8-.3h.1a52.7 52.7 0 019.4 1.3 50.8 50.8 0 0136 31L221 405.7l76.5-194.4a50.8 50.8 0 0136-31 52.4 52.4 0 019.4-1.3h.1a52.6 52.6 0 017.8.2l1.7.2a51.3 51.3 0 0138.5 26.7 52.1 52.1 0 013.8 9 50.7 50.7 0 012 9.5v.2z" class="cls-2"/>
    </g>
    <g id="g40">
      <path id="path42" d="M112.8 876.6a8.3 8.3 0 11-16.4 2L89.3 819 64 877.6a8.3 8.3 0 01-15.2 0L23.6 819l-7.1 59.5A8.3 8.3 0 110 876.6l8.2-69.1a13.3 13.3 0 017.2-10.3 15.5 15.5 0 011.6-.7l.7-.2a15.3 15.3 0 012.4-.6h.1a14.3 14.3 0 0111.6 3.7 13.6 13.6 0 012.6 3.5 6.6 6.6 0 01.5.9l21.4 49.7 21.4-49.7a13.6 13.6 0 019.7-7.8 15 15 0 012.4-.3 15.6 15.6 0 011.8 0h.7a14 14 0 0110.4 6.6 13.2 13.2 0 011 2.4 12 12 0 01.5 1.6 8 8 0 01.2 1v.2z" class="cls-2"/>
    </g>
    <g id="g44">
      <path id="path46" d="M287.9 877.6a8.3 8.3 0 01-16.5 0v-65.4h-23.6a8.3 8.3 0 010-16.5h63.6a8.3 8.3 0 010 16.6H288z" class="cls-2"/>
    </g>
    <g id="g48">
      <path id="path50" d="M339.5 877.6a8.3 8.3 0 01-16.6 0V804a8.3 8.3 0 1116.6 0z" class="cls-2"/>
    </g>
    <g id="g52">
      <path id="path54" d="M509.1 876.6a8.3 8.3 0 11-16.4 2l-2.9-23.4h-28.7a8.3 8.3 0 110-16.5h26.6l-.7-6v-.1-.6a32 32 0 00-1-4.2 27.7 27.7 0 00-1.7-4.4c-3.3-6.6-9.2-11.2-16.7-11.2h-.1a17.8 17.8 0 00-4.2.5 16.9 16.9 0 00-3.7 1.4 23.1 23.1 0 00-11.5 18.4l-5.1 46a8.3 8.3 0 11-16.5-1.8l5.2-46c1.5-13.5 9-25.5 20.5-31.3a33.3 33.3 0 017.3-2.7 34.5 34.5 0 018-1c14.4 0 25.5 8.4 31.5 20.3a43.8 43.8 0 012.8 7 46.8 46.8 0 011.4 6.8 6.7 6.7 0 01.2.8z" class="cls-2"/>
    </g>
    <g id="g56">
      <path id="path58" d="M534.4 877.6a8.3 8.3 0 01-16.5 0v-68.4a8 8 0 01.1-1.4 11.3 11.3 0 01.7-2.7 14.3 14.3 0 01.6-1.5 11.6 11.6 0 016.5-5.4 9.7 9.7 0 011.1-.3l1-.2a13.2 13.2 0 012 0h.2a11.6 11.6 0 018.7 4.4l44 56.1V804a8.3 8.3 0 1116.6 0v68a11.6 11.6 0 01-4.3 9.1 12 12 0 01-1.7 1.2l-1 .5h-.1a7 7 0 01-.7.3 11.6 11.6 0 01-8.9-.5 7.1 7.1 0 01-1-.6 11.7 11.7 0 01-1.7-1.2 10.3 10.3 0 01-1-1.1l-.2-.3-.1-.2-44-56z" class="cls-2"/>
    </g>
    <g id="g60">
      <path id="path62" d="M663.6 869.3a8.3 8.3 0 110 16.6h-24.4a32.7 32.7 0 01-32.6-32.6v-25a32.6 32.6 0 0132.6-32.5h24.4a8.3 8.3 0 110 16.5h-24.4a16.2 16.2 0 00-16 16.1v25a16.2 16.2 0 0016 16h24.4z" class="cls-2"/>
    </g>
    <g id="g64">
      <path id="path66" d="M711.5 812.2a22.6 22.6 0 00-15.7 6.3 20.3 20.3 0 00-6.4 14.6v15.4a20.3 20.3 0 006.4 14.6 22.6 22.6 0 0015.7 6.3A22.5 22.5 0 00727 863a20.2 20.2 0 006.4-14.6V833a20.2 20.2 0 00-6.4-14.6 22.6 22.6 0 00-15.7-6.3m0-16.5a39.1 39.1 0 0127.2 10.8 36.7 36.7 0 0111.4 26.6v15.4a36.7 36.7 0 01-11.5 26.5 39 39 0 01-27 10.8 39.1 39.1 0 01-27.2-10.8 36.7 36.7 0 01-11.4-26.5v-15.4a36.7 36.7 0 0111.4-26.5 39 39 0 0127.1-10.8z" class="cls-2"/>
    </g>
    <g id="g68">
      <path id="path70" d="M363 812.2v57.1h32a10.5 10.5 0 0010.4-10.4 10.3 10.3 0 00-2.8-7l-.3-.3a10.3 10.3 0 00-7.3-3.1h-11a8.3 8.3 0 110-16.5h3.8a10 10 0 006.2-3 9.9 9.9 0 002.9-7 10 10 0 00-9.9-9.8h-24zm-16.5 28v-35.9a8.3 8.3 0 01.6-3.3 8.4 8.4 0 011.9-2.8h.1a8.5 8.5 0 015.4-2.5 2.7 2.7 0 01.5 0h32a26.4 26.4 0 0126.3 26.4 26.3 26.3 0 01-4 14 27.4 27.4 0 014.6 3.8l.5.5a26.9 26.9 0 017.4 18.4 27 27 0 01-26.9 27h-40.2a8.3 8.3 0 01-8.3-8.3z" class="cls-2"/>
    </g>
  </g>
</svg>
