<svg xmlns="http://www.w3.org/2000/svg" id="Layer_1" data-name="Layer 1" preserveAspectRatio="xMidYMid meet" viewBox="0 0 750 256.9">
  <defs/>
  <path d="M0 223.3l19-106.9h48.9c12 0 19.8 2.3 23.4 7s4.2 13.4 1.9 26.1c-2.2 12.2-6 20.6-11.3 25s-14.4 6.6-26.9 6.6H19.3L12 223.4zM21.3 171h28.6c11.9 0 19.8-1.2 23.6-3.7s6.5-8.1 8-16.9c1.8-10.3 1.8-16.8 0-19.6s-7-4-15.4-4l-4.6-.1H29.1zM104 148.5h11l-2.6 8.6.2.2c5.6-7 13.3-10.6 23.3-10.6q20.7 0 17 21.3l-1 5.2h-11l.6-1.8 1-4c1.3-7.7-2.1-11.5-10.5-11.5-12.2 0-19.6 7.5-22.3 22.6l-8 44.8h-11zM162.3 148.5h54l-2 10.6-54.3 55.1h44.6l-1.6 9h-57.7L147 213l54.6-55.4h-41zM270.1 200.6h11.3l-.4 2.8c-1.4 7.8-4.7 13.2-10 16.3s-13.8 4.7-25.7 4.7c-13.8 0-22.4-2.5-25.8-7.6s-3.7-15.6-.8-31.7c2.7-15 6.6-25 11.9-30s14.1-7.7 26.7-7.7c13.8 0 22.4 2.3 26 6.7s3.9 13.7 1.4 28l-1 5.8h-53.8c-2.2 11.8-2.2 19.3-.2 22.5s7.5 4.9 16.8 4.9q13.2 0 17.6-2.3t5.7-10zm3.8-21.2l.6-3.5c1.5-8.1 1-13.3-1.2-15.8s-7.8-3.6-16.6-3.6-14.9 1.4-18 4.3-5.5 9-7.3 18.7H274zM320.1 116.5l-19 106.8h-11l19-106.9zM372.1 200.6h11.2l-.3 2.8c-1.4 7.8-4.7 13.2-10 16.3s-13.9 4.7-25.7 4.7c-13.8 0-22.4-2.5-25.8-7.6s-3.7-15.6-.8-31.7c2.7-15 6.5-25 11.8-30s14.2-7.7 26.8-7.7c13.8 0 22.4 2.3 26 6.7s4 13.7 1.4 28l-1 5.8h-53.9c-2 11.8-2.1 19.3-.2 22.5s7.6 4.9 16.9 4.9q13.2 0 17.6-2.3t5.7-10zm3.8-21.2l.6-3.5c1.4-8.1 1-13.3-1.2-15.8s-7.8-3.6-16.6-3.6-14.9 1.4-18 4.3-5.6 9-7.3 18.7h42.5zM501.3 148.5l-34.2 74.8h-16.3l-2.6-41.6-.8-12.7-.3-6.3-.4-6.3h-.2l-2.6 6.3-2.6 6.3-5.3 12.7-17.5 41.6H402l-7-74.8h11.5l3.2 41.4 1 13 .4 6.5.3 6.5h.4l2.6-6.5 2.7-6.5 5.4-13 17.6-41.5h16l2.8 41.6.8 13 .4 6.4.3 6.5h.2l2.8-6.5 2.8-6.5 5.6-13 17.9-41.4h11.7zM556.5 148.5l-14.3 33.3-7.2 16.6-3.4 8.4-3.6 8.2h-.3l-1.4-8.2-1.3-8.4-2.9-16.6-5.6-33.3H505l15 81.3-1.8 3.7c-4.6 9.9-9.9 14.6-15.7 14.3a25.3 25.3 0 01-3.7-.5l-1.6 9a28.8 28.8 0 005.2.6c6.7 0 12.3-2.1 16.6-6.3s9-11.8 14-23l35.3-79.1z" class="cls-1"/>
  <path d="M638.3 213.8l-1.8 10h-75l3.4-20q3-16.7 10.3-21.9c4.9-3.4 15.5-6.1 31.9-8q19.6-2.2 24.3-6c3.1-2.4 5.6-8.9 7.4-19.3 1.6-9 1.1-15-1.4-17.7s-8.8-4-18.8-4c-12.5 0-20.6 1-24.3 3.3s-6.2 7.4-7.7 15.8l-1.2 8h-11.5l1-5.5c2.2-12.7 6.3-21.1 12.3-25.3s17-6.3 32.8-6.3c14 0 23 2.3 27.2 6.8s4.9 13.5 2.5 26.6q-3.3 19-11.2 25.4t-31 8.7c-13.4 1.4-21.6 3.2-24.6 5.6s-5.4 9.1-7.4 20.3l-.6 3.6h63.4zM737.2 118l-12.5 71.4h15.5l-1.7 10h-15.6l-4.3 24.5h-11.8l4.3-24.5h-58.4l2.5-14L719 118zM713 189.3l11.2-63.8h-.3l-59.6 63.8zM248 84a386.4 386.4 0 0173.2-33l-4.7-26.3a516.1 516.1 0 00-94 40zM538 69.7l90.4-49.2A491 491 0 00483.7 0h-.6l-20.7 41.3a254.3 254.3 0 0175.7 28.4zM199.5 78.2c-39.7 24.7-60.5 45.6-60.5 45.6h50.3c12.2-9.5 24.3-18 36-25.8zM453.9.6a547.1 547.1 0 00-117.5 18.3l3.5 26.8c37.8-9.9 72-11.2 101.7-7.7zM676.5 39.6l-117 43.8A148.6 148.6 0 01576 97h174s-19.7-30.5-73.5-57.3z" class="cls-2"/>
</svg>
