<svg xmlns="http://www.w3.org/2000/svg" id="svg10908" x="0" y="0" version="1.1" viewBox="0 0 750 205" xml:space="preserve">
  <path id="path5689" d="M166.6 65.4h-51.3c0-8.4-1-14.1-3-17-3-4.3-11.4-6.4-25.2-6.4-13.4 0-22.3 1.2-26.6 3.7S54 53.6 54 61.8c0 7.5 1.9 12.4 5.7 14.7 3.4 1.8 7.1 2.8 10.9 2.9l10.4.8c22.2 1.5 36 2.5 41.6 3.1 17.5 1.8 30.3 6.4 38.1 14a37.2 37.2 0 0111.1 23.1 156 156 0 011 19.3 103 103 0 01-4.7 36.2c-5.7 14.1-18.5 22.9-38.5 26.6-8.3 1.6-21.1 2.4-38.3 2.4-28.7 0-48.8-1.7-60.1-5.1a39.4 39.4 0 01-27.5-25.6c-2.5-7.1-3.7-19-3.7-35.7h51.3v4.3c0 8.9 2.6 14.6 7.7 17.2 4 1.9 8.4 2.8 12.8 2.8h18.9c9.6 0 15.8-.5 18.4-1.5 4.7-1.9 7.8-4.9 9.3-9 .9-3.2 1.3-6.5 1.2-9.9 0-9-3.3-14.5-9.9-16.5-2.5-.8-13.9-1.9-34.3-3.2a421.8 421.8 0 01-34.2-3.4c-16.8-3.1-28-9.6-33.6-19.4C2.7 91.5.2 78.9.2 62c0-12.8 1.3-23.1 4-30.9S11.1 17.5 17 13.5A64.8 64.8 0 0150.2 2.6c11.2-1 23.7-1.5 37.3-1.5 21.5 0 36.9 1.2 46 3.7 22.3 6 33.5 22.8 33.5 50.4.1 2.3-.1 5.7-.4 10.2" class="st0"/>
  <path id="path5693" d="M392.3 205V0h102.8c14.1 0 24.8 1.1 32.2 3.5a50 50 0 0134 32.5c3 8.6 4.5 21.5 4.5 38.8 0 20.8-1.7 35.7-5 44.8-6.6 18-20.1 28.3-40.6 31-2.4.4-12.7.8-30.8 1.1l-9.2.3h-32.8v53h-55.1zm55.2-100.5h34.4a62.5 62.5 0 0019.9-2.5c3.2-1.8 5.5-5.4 6.5-10.8.8-5.3 1.2-10.6 1-16 0-8.7-.7-15.1-2.1-19.3-2-5.9-6.8-9.5-14.2-10.8-1.5-.2-5.1-.3-10.7-.3h-34.8v59.7z" class="st0"/>
  <path id="path5697" d="M683.6 169.5h-73.8l-9.9 35.5h-57.1L604.5 0h83.2L750 205h-55.9l-10.5-35.5zm-11-39.9l-25.8-88.9-25.1 88.9h50.9z" class="st0"/>
  <path id="path5701" fill="#ffbe00" d="M316.2 28.8c21.9 0 42.6 9.9 56.4 26.9l11.9-25.5a104.5 104.5 0 00-71.9-28.4c-43.5 0-80.6 26.2-95.9 63.4h-23.2l-13.7 29.3h29.8c-.2 2.7-.4 5.4-.4 8.2 0 3.3.2 6.7.5 10h-15L181 142.1h36.3a103.5 103.5 0 0095.2 61.7c20.7 0 40.9-6 58.1-17.5v-36a72.5 72.5 0 01-115.4-8.2h76l13.7-29.4H244.2a78.5 78.5 0 01-.4-18.2h109.8l13.7-29.3h-114a72.7 72.7 0 0162.9-36.4"/>
  <path id="path5705" d="M316.2 29.7c21.6 0 42.1 9.8 55.7 26.6l.9 1.1.6-1.3 11.9-25.5.3-.6-.5-.4a106 106 0 00-131.5-10.7 102.7 102.7 0 00-37.7 46l.8-.6H193l-.2.5-13.7 29.4-.6 1.3h31.2l-.9-1c-.2 3-.4 5.8-.4 8.3 0 3.4.2 6.7.5 10.1l.9-1h-15.5l-.2.5-13.7 29.4-.6 1.2h37.7l-.8-.5c16.4 37.8 54 62.2 96 62.2a105 105 0 0058.6-17.6l.4-.3V148l-1.5 1.8a71.7 71.7 0 01-114-8.1l-.7 1.4h76.6l.2-.5 13.7-29.4.6-1.2H244.2l.9.8a76 76 0 01-.4-18l-.9.8h110.4l.2-.5L368 65.6l.6-1.3H253.2l.8 1.3a72.2 72.2 0 0162.2-35.9m-63 36.4h114l-.8-1.2-13.7 29.4.8-.5H242.9l-.1.8c-.2 2.5-.4 5-.4 7.5 0 3.7.3 7.4.8 11l.1.8H345l-.8-1.3-13.7 29.4.8-.5h-77.7l.9 1.4a73.5 73.5 0 00116.9 8.2l-1.5-.6v36l.4-.7a105.4 105.4 0 01-57.7 17.2c-41.2 0-78.3-24-94.4-61.1l-.2-.5h-36.9l.8 1.3 13.7-29.4-.8.5h16l-.1-1a111.2 111.2 0 01-.1-18.1l.1-1h-30.8l.8 1.2 13.7-29.3-.8.5h23.8l.2-.5a100.5 100.5 0 0137.1-45.2c40.3-27 93.9-22.6 129.2 10.5l-.2-1-11.9 25.5 1.5-.2a73.5 73.5 0 00-120.8 9.6l-.8 1.3h1.5z" class="st0"/>
</svg>
