<svg xmlns="http://www.w3.org/2000/svg" viewBox="0 0 750 232.5">
  <path fill="#ee7f00" d="M248 0a69 69 0 00-29.6 6.8 92.5 92.5 0 00-35.3 30.8A133.8 133.8 0 00167 69c-8.1 22.2-8 40.2.3 52.1 4.7 6.7 14.4 14.8 34.3 14.8h.1c36.2 0 63.2-23.8 80.3-70.6 4.6-12.3 10.5-35.4-.4-51C275 4.8 263.7 0 248 0zm218.5 0a69 69 0 00-29.6 6.8 92.4 92.4 0 00-35.3 30.8A133.4 133.4 0 00385.4 69c-8.1 22.2-8 40.2.3 52.1 4.7 6.7 14.4 14.8 34.3 14.8 36.3 0 63.3-23.8 80.4-70.6 4.6-12.4 10.5-35.5-.4-51C493.4 4.7 482.2 0 466.5 0zM131.8 1.9c-12 0-23.5 0-33.9 5.2S78.4 23 71.3 44A42.1 42.1 0 0069 55.8a17.8 17.8 0 001.8 8.8A25.7 25.7 0 0078 73a36.3 36.3 0 0011.3 5.7l5 1.4 7.6 2.2a16 16 0 013.6 1.5 7.2 7.2 0 012.8 2.9 6.2 6.2 0 01.6 2.7 9 9 0 01-.5 3.1 8.6 8.6 0 01-5.2 5.9A38 38 0 0190 99.9H12.3L0 133.7h83.2c7.9 0 22.2 0 36-5.9s27-17.5 32.5-40.9c2-8.8 1.4-16-2-21.6S140 55.6 130.9 53l-4.4-1.3-6.6-1.9a8.7 8.7 0 01-5.2-3.7 7.3 7.3 0 01-.7-5.9 8.6 8.6 0 014.3-5.2 17.5 17.5 0 018.4-1.9h48.4l1-1.5a107 107 0 0131.2-29.7zm217.4 0a45.3 45.3 0 00-45 31.3l-36.7 100.5h40.1L326.4 82h35.4l10-27.7h-35.2l5.7-16a8.5 8.5 0 018.1-5.1h41.8l1-1.6a112.2 112.2 0 0133-29.7zm186 .1l-48 131.8h40.7l17.4-46.4c.9 2 11.1 46.4 11.1 46.4h42.9s-7.8-32.7-13.5-45.9a73.2 73.2 0 00-5.1-10.4c12.1-4.5 29.6-14.1 37-33.7 4.4-12 4.1-21.7-.9-28.9-6-8.7-18.2-12.9-37.3-12.9zm83.5 0a32.6 32.6 0 016.7 7c4.7 6.8 6.5 15 5.4 24.3h24.3l-36.6 100.5h36.6l36.6-100.6h47L750 2zM562 29.2h6.7c12.3 0 17 3.6 12.7 14.8-3.9 10.5-10.9 17-24.2 17h-7L562 29.2zm-323.5.6c12.5 0 15.4 7.3 4.4 37.4-11.3 30.9-19.5 38.6-31.9 38.6-12 0-16.2-7.6-5-38.3 8.4-23 19.3-37.7 32.5-37.7zm218.4 0c12.5 0 15.4 7.3 4.4 37.4-11.3 30.9-19.5 38.6-31.8 38.6-12 0-16.2-7.6-5-38.3 8.4-23 19.3-37.7 32.4-37.7z"/>
  <path fill="#383a41" d="M39.6 147.6A9.9 9.9 0 0034 149a10.4 10.4 0 00-3.3 5c-.8 2.3-1 3.9-.4 4.8s2.2 1.4 4.8 1.4 4.5-.5 5.8-1.5a10.4 10.4 0 003.2-5c.8-2.2 1-3.8.4-4.7s-2.1-1.4-4.8-1.4zm22.1 0c-2.6 0-4.5.5-5.8 1.4a10.4 10.4 0 00-3.2 5c-.8 2.3-1 3.9-.4 4.8s2.2 1.4 4.8 1.4 4.5-.5 5.8-1.5a10.5 10.5 0 003.2-5c.8-2.2 1-3.8.4-4.7s-2.2-1.4-4.8-1.4zm412.5 17.2a35.5 35.5 0 00-9 1.1 30.3 30.3 0 00-8.2 3.5 29 29 0 00-6.9 6 26.9 26.9 0 00-4.7 8.2 18.3 18.3 0 00-1.4 7 11.8 11.8 0 001.3 5 12 12 0 003.1 3.8 28 28 0 004.1 2.7l4.3 2.3a19 19 0 013.6 2.4 6.9 6.9 0 012.1 2.8 5.3 5.3 0 01-.2 3.8 12.2 12.2 0 01-2 3.5 12 12 0 01-3 2.6 14.5 14.5 0 01-3.8 1.7 17.2 17.2 0 01-4.6.6 19.6 19.6 0 01-6.2-.9 20.3 20.3 0 01-6.8-3.7 3 3 0 00-1.7-.8 1.9 1.9 0 00-1 .3 3 3 0 00-1 1 10.1 10.1 0 00-.9 1.6c-.3.7-.7 1.6-1 2.7a18.7 18.7 0 00-1 3.5 2.8 2.8 0 00.2 2 6.2 6.2 0 001.6 1.4 14.8 14.8 0 003.1 1.7 27.1 27.1 0 004.7 1.3 30.6 30.6 0 006 .6 38 38 0 0010-1.3 34.3 34.3 0 009-4 31.8 31.8 0 007.6-6.5 29 29 0 005.2-9 17.5 17.5 0 001.3-6.8 11.6 11.6 0 00-1.3-5.1 12 12 0 00-3.2-3.7 32 32 0 00-4.1-2.8 154 154 0 00-4.4-2.3 20.5 20.5 0 01-3.6-2.3 6.7 6.7 0 01-2.2-2.8 5.4 5.4 0 01.2-3.8 10.7 10.7 0 011.5-2.8 9.6 9.6 0 012.5-2.2 12.4 12.4 0 013.2-1.5 14.4 14.4 0 014-.5 15.5 15.5 0 014.9.7 18 18 0 013.5 1.5 22.6 22.6 0 012.4 1.5 3 3 0 001.5.7 1.6 1.6 0 001-.3 3.2 3.2 0 00.9-1 13.4 13.4 0 00.8-1.6 51.1 51.1 0 001.8-4.7 10.1 10.1 0 00.4-1.5 3.8 3.8 0 000-1 2.1 2.1 0 00-.4-.8 5 5 0 00-1.6-1.2 17.4 17.4 0 00-3.1-1.4 25.7 25.7 0 00-4-1 28 28 0 00-4.5-.3zm210 0a46.8 46.8 0 00-14.9 2.3A47.4 47.4 0 00656 174a52 52 0 00-10.8 10.9 56.7 56.7 0 00-7.7 14.4 40.4 40.4 0 00-2.8 14 19 19 0 002.8 10.3 17.2 17.2 0 008.1 6.6 34.2 34.2 0 0013.2 2.2 58.4 58.4 0 0016.4-2.2l4.6-1.4a6.5 6.5 0 002.8-1.8 8.8 8.8 0 001.5-2.6l9.5-26a6 6 0 00.4-1.8 2.6 2.6 0 00-.2-1.4 1.8 1.8 0 00-.8-.8 2.8 2.8 0 00-1.4-.3h-22a1.7 1.7 0 00-1 .3 3.8 3.8 0 00-.9.9 9.1 9.1 0 00-1 1.5 22.5 22.5 0 00-1 2.4 10.8 10.8 0 00-.9 3.8c.1.8.5 1.2 1 1.2h12.4l-5.5 15.2a23 23 0 01-4.6 1.5 22.3 22.3 0 01-4.6.5 18.9 18.9 0 01-7.8-1.5 10.3 10.3 0 01-4.8-4.3 13.8 13.8 0 01-1.6-7.2 30.7 30.7 0 012.1-9.9 39 39 0 014.9-9.3 34.9 34.9 0 016.8-7.2 30.4 30.4 0 018.3-4.7 28.5 28.5 0 0116.7-.7 29.4 29.4 0 015 2 21 21 0 013.2 2 3.4 3.4 0 001.8.9 1.8 1.8 0 00.9-.3 3.5 3.5 0 00.8-.8 11.7 11.7 0 001-1.7 23 23 0 001-2.6 19.3 19.3 0 001.1-3.8 3 3 0 00-.2-2 6.4 6.4 0 00-1.8-1.7 16.4 16.4 0 00-3.7-1.8 33.8 33.8 0 00-5.6-1.4 43.2 43.2 0 00-7.5-.6zm-413.3.8l-4.1.1a5 5 0 00-2.3.7 2.8 2.8 0 00-1.2 1.6 15.7 15.7 0 00-.5 2.8l-6 57.2a5.5 5.5 0 000 2 1.7 1.7 0 001.2 1 8.5 8.5 0 002.6.5l4.6.1h4.5a11.5 11.5 0 002.9-.6 4.7 4.7 0 001.8-1.2 9.5 9.5 0 001.5-1.9l25-41.4-4.6 41.5a4.8 4.8 0 000 2 1.7 1.7 0 001 1.1 8.5 8.5 0 002.6.5l4.6.1h4.3a13.3 13.3 0 002.9-.6 5.3 5.3 0 002-1.1 9 9 0 001.5-2l35.8-57a27.8 27.8 0 001.6-3 1.8 1.8 0 00.1-1.6 2 2 0 00-1.5-.7 33 33 0 00-3.4-.2c-1.6 0-2.9 0-3.8.2a8.3 8.3 0 00-2.2.4 3 3 0 00-1.3 1 11.6 11.6 0 00-.9 1.3l-29.6 50h-.1l5.8-49.7a5 5 0 000-1.7 1.4 1.4 0 00-.9-.9 6.1 6.1 0 00-2-.4l-3.9-.1-3.6.1a9.5 9.5 0 00-2.4.5 3.6 3.6 0 00-1.4.9 9.1 9.1 0 00-1.1 1.6l-30 49.7 6.7-50a4.5 4.5 0 00.1-1.6 1 1 0 00-.6-.8 5.7 5.7 0 00-2-.3l-3.8-.1zm157.8 0a29.5 29.5 0 00-3.3.1 14.6 14.6 0 00-2.2.4 3.7 3.7 0 00-1.3.7 2.2 2.2 0 00-.7.9l-22.5 61.8a1.1 1.1 0 000 .9 1.3 1.3 0 00.9.6 8 8 0 001.8.5 27.1 27.1 0 003.2.1 30 30 0 003.3-.1 11.4 11.4 0 002.2-.5 3.5 3.5 0 001.3-.6 2.2 2.2 0 00.7-1l22.4-61.7a1.1 1.1 0 000-1 1.4 1.4 0 00-.8-.6 8.9 8.9 0 00-1.9-.4 27 27 0 00-3.2-.1zm-404.5 0a29.9 29.9 0 00-3.3.1 14.5 14.5 0 00-2.2.4 3.4 3.4 0 00-1.3.7 2.3 2.3 0 00-.7.9L2.2 207.5a31 31 0 00-2.2 11 13.5 13.5 0 002.4 7.8 13.2 13.2 0 006.5 4.7 31.5 31.5 0 0010.5 1.5 42.3 42.3 0 0012.3-1.7 35.1 35.1 0 0018.4-13 42.6 42.6 0 005.7-10.8l14.3-39.2a1.2 1.2 0 000-1 1.3 1.3 0 00-.8-.6 8.7 8.7 0 00-1.8-.4 25.3 25.3 0 00-3.2-.2 29.9 29.9 0 00-3.2.2 14 14 0 00-2.2.4 3.4 3.4 0 00-1.3.7 2.2 2.2 0 00-.6.9L42.6 207a26.2 26.2 0 01-3.1 6.2 20.6 20.6 0 01-4.4 4.5 18 18 0 01-5.2 2.8 18.3 18.3 0 01-6 1 13.3 13.3 0 01-5.2-1 7 7 0 01-3.2-2.7 8.7 8.7 0 01-1-4.8 21.9 21.9 0 011.5-6.7l14-38.7a1.2 1.2 0 000-.9 1.4 1.4 0 00-.8-.6 9.1 9.1 0 00-2-.4 26.3 26.3 0 00-3-.2zm490.5 0a29.7 29.7 0 00-3.3.1 12.4 12.4 0 00-2.2.4 3.5 3.5 0 00-1.3.7 2.3 2.3 0 00-.7.9l-14.4 39.8a30.8 30.8 0 00-2.2 11 13.4 13.4 0 002.3 7.7 13.3 13.3 0 006.6 4.7 31.4 31.4 0 0010.5 1.6 42.4 42.4 0 0012.3-1.7 35.1 35.1 0 0018.4-13 42.5 42.5 0 005.6-10.8l14.3-39.2a1.1 1.1 0 00-.8-1.6 7.8 7.8 0 00-1.8-.4 25.5 25.5 0 00-3.1-.2 29.9 29.9 0 00-3.3.2 12.2 12.2 0 00-2.2.4 3.4 3.4 0 00-1.3.7 2.3 2.3 0 00-.6.9l-14.3 39.4a26.6 26.6 0 01-3.2 6.1 21 21 0 01-4.3 4.5 17.6 17.6 0 01-5.3 2.8 18.4 18.4 0 01-6 1 13.2 13.2 0 01-5.2-.9 6.9 6.9 0 01-3.3-2.8 8.5 8.5 0 01-1-4.7 21.8 21.8 0 011.5-6.8l14-38.6a1.1 1.1 0 000-1 1.4 1.4 0 00-.8-.6 8 8 0 00-1.8-.4 26.1 26.1 0 00-3.2-.1zm113.7 0c-1.2 0-2.3 0-3 .2a8.5 8.5 0 00-2 .4 4 4 0 00-1.4.8 2.2 2.2 0 00-.6 1l-11.2 30.6-2.6 7.3-2.5 7.4c0-1.3-.2-2.7-.4-4l-.4-4.1-.6-4.2-.7-4.3-4-23.9a18.8 18.8 0 00-.6-3.3 5.2 5.2 0 00-1.2-2.1 4.3 4.3 0 00-2-1.1 12 12 0 00-3.1-.3H585a7 7 0 00-3.9 1.2 6.9 6.9 0 00-2.7 3.5L557 229.5a1.5 1.5 0 000 .9 1.2 1.2 0 00.6.7 5.8 5.8 0 001.6.4 24.2 24.2 0 003 .1 28.3 28.3 0 003-.1 9.9 9.9 0 002-.4 3.4 3.4 0 001.1-.7 2.4 2.4 0 00.6-1l12.5-34.2a344 344 0 005-14.7c0 2 .2 4 .4 6.2l.8 5.9 5.1 30.6a35.1 35.1 0 00.8 4 7.2 7.2 0 001.2 2.6 3.9 3.9 0 001.9 1.3 10.1 10.1 0 003 .3h5.6a7.5 7.5 0 002-.2 6.6 6.6 0 002-1 8 8 0 001.5-1.4 7.2 7.2 0 001.2-2.1l21.4-58.8a1.4 1.4 0 000-1 1.2 1.2 0 00-.5-.6 4.3 4.3 0 00-1.7-.5 26.7 26.7 0 00-2.8 0zm-472 .3a5.7 5.7 0 00-3.2 1 6.3 6.3 0 00-2.3 3.2L130 227c-.5 1.5-.5 2.6 0 3.2a3 3 0 002.5 1h32.8a2 2 0 001-.3 3.5 3.5 0 001-.9 9 9 0 001-1.6 23.7 23.7 0 001-2.4 23 23 0 00.7-2.5 6.2 6.2 0 00.2-1.6 1.3 1.3 0 00-.3-.8 1 1 0 00-.7-.3h-23.7l6.7-18.5H172a2 2 0 001-.2 3.2 3.2 0 001-.9 7.7 7.7 0 00.9-1.5 22.9 22.9 0 001-2.4 20 20 0 00.7-2.4 5.2 5.2 0 00.2-1.6 1.2 1.2 0 00-.3-.8 1 1 0 00-.8-.3H156l5.8-16h23.4a1.7 1.7 0 00.9-.3 3.7 3.7 0 001-.9 10 10 0 00.9-1.6 23.1 23.1 0 001-2.4 21.7 21.7 0 00.8-2.5 6.3 6.3 0 00.2-1.6 1.3 1.3 0 00-.3-.9 1 1 0 00-.7-.2zm54.8 0a5.6 5.6 0 00-3.1 1 6.2 6.2 0 00-2.3 3.2L184 229.5a1.3 1.3 0 000 1 1.3 1.3 0 00.9.6 8.3 8.3 0 001.9.4 26.4 26.4 0 003.1.1 29.7 29.7 0 003.3-.1 12.7 12.7 0 002.2-.4 3.8 3.8 0 001.3-.7 2.2 2.2 0 00.7-.9l9-25h4.2a8.2 8.2 0 013.5.7 5 5 0 012.1 2 9.2 9.2 0 011.1 3.2 43.2 43.2 0 01.5 4.4l.5 14.6a3 3 0 00.2 1 1.3 1.3 0 00.7.7 6 6 0 001.9.4l3.4.1 4-.1a11.3 11.3 0 002.3-.4 2.6 2.6 0 001.2-.6 2.9 2.9 0 00.5-1 5.7 5.7 0 00.3-1.3 27.5 27.5 0 000-2.8l-.9-12.9a34 34 0 00-.5-4.1 15.4 15.4 0 00-1-3.3 8.2 8.2 0 00-1.5-2.5 8.5 8.5 0 00-2.1-1.7 32.2 32.2 0 006.3-2.5 27.4 27.4 0 005.4-3.7 25.3 25.3 0 004.2-4.8 27.8 27.8 0 003-6 19.5 19.5 0 001.3-7 10 10 0 00-1.4-5.1 10.1 10.1 0 00-4.1-3.6 20.3 20.3 0 00-6.4-2 59.6 59.6 0 00-7.2-.3zm159.8 0a5.7 5.7 0 00-3.2 1 6.3 6.3 0 00-2.3 3.2l-20.8 57c-.5 1.5-.5 2.6 0 3.2a3 3 0 002.5 1h32.9a2 2 0 00.9-.3 3.3 3.3 0 001-.9 8 8 0 001-1.6 21.5 21.5 0 001-2.4 23 23 0 00.7-2.5 5.7 5.7 0 00.2-1.6 1.2 1.2 0 00-.3-.8 1 1 0 00-.7-.3h-23.7l6.7-18.5h19.8a2 2 0 00.9-.2 3.1 3.1 0 001-.9 8.2 8.2 0 00.9-1.5 22.9 22.9 0 001-2.4 21.8 21.8 0 00.7-2.4 5.2 5.2 0 00.2-1.6 1.3 1.3 0 00-.3-.8 1 1 0 00-.7-.3h-19.8l5.8-16h23.4a1.8 1.8 0 00.9-.3 3.7 3.7 0 00.9-.9 8.1 8.1 0 001-1.6 22.8 22.8 0 001-2.4 23 23 0 00.7-2.5 6 6 0 00.2-1.6 1.3 1.3 0 00-.3-.9 1 1 0 00-.7-.2zm-277.4 0a5.7 5.7 0 00-3.1 1 6.3 6.3 0 00-2.3 3.2l-20.8 57c-.5 1.5-.6 2.5 0 3.2a3 3 0 002.4 1h17.4a52.2 52.2 0 007.4-.5 41.4 41.4 0 006.6-1.5 36.7 36.7 0 006-2.5 29.6 29.6 0 005.5-3.8 29.1 29.1 0 004.5-5 27 27 0 003.2-6.3 17.2 17.2 0 001.2-6 10.5 10.5 0 00-1-4.7 8.5 8.5 0 00-3-3.2 12.2 12.2 0 00-4.6-1.8 22.8 22.8 0 004.7-2.1 22.2 22.2 0 004-3 23.1 23.1 0 003.1-3.8 22.6 22.6 0 002.2-4.5 16.3 16.3 0 001.2-7.4 8.3 8.3 0 00-2.5-5.2 13.1 13.1 0 00-5.9-3 38.9 38.9 0 00-9.8-1zm5.5 10h6.7a15.5 15.5 0 014.8.5 5.3 5.3 0 012.4 1.6 4.1 4.1 0 01.9 2.6 10 10 0 01-.7 3.5 13.8 13.8 0 01-1.8 3.4 12.8 12.8 0 01-2.7 2.8 12.3 12.3 0 01-3.5 1.8 15.1 15.1 0 01-4.9.7h-7.5zm117.8.2h6a30.9 30.9 0 013.5.1 14.8 14.8 0 012.2.4c2 .7 3.2 1.7 3.6 3.2a8.8 8.8 0 01-.5 5.4 14.2 14.2 0 01-2.1 3.9 13.3 13.3 0 01-3.2 3 15.2 15.2 0 01-4.4 1.9 18.5 18.5 0 01-5.2.7H210zM89.3 202.6h7.9a19.6 19.6 0 015.7.6 6.6 6.6 0 013 1.9 5 5 0 011.1 3 10.1 10.1 0 01-.7 4 13 13 0 01-2.1 4 13.6 13.6 0 01-3.3 2.8 14.2 14.2 0 01-3.9 1.7 18.3 18.3 0 01-4.9.6h-9.6z"/>
</svg>
