<svg xmlns="http://www.w3.org/2000/svg" viewBox="0 0 750 471">
  <g fill="none" fill-rule="evenodd">
    <rect width="750" height="471" fill="#0e4595" rx="40"/>
    <path fill="#fff" d="M278.2 334.2l33.4-195.7h53.3l-33.4 195.7zm246.1-191.5c-10.6-4-27.1-8.2-47.8-8.2-52.7 0-89.9 26.5-90.2 64.6-.3 28.1 26.5 43.8 46.8 53.2 20.7 9.5 27.7 15.7 27.6 24.2-.1 13.2-16.6 19.2-32 19.2-21.3 0-32.6-3-50.1-10.3l-7-3.1-7.4 43.8a169 169 0 0059.4 10.4c56.1 0 92.5-26.2 93-66.8.2-22.3-14-39.3-44.8-53.2-18.7-9-30.1-15.1-30-24.3 0-8.1 9.7-16.8 30.6-16.8 17.4-.3 30 3.5 39.9 7.5l4.8 2.2 7.2-42.4m137.3-4.2h-41.2c-12.8 0-22.3 3.5-28 16.2l-79.2 179.4h56l11.3-29.4h68.3a3753 3753 0 016.5 29.4h49.5zm-65.4 126.4l21.3-54.8c-.4.6 4.3-11.3 7-18.6l3.6 16.8 12.4 56.6zM232.9 138.5L180.7 272l-5.6-27.2c-9.7-31.2-40-65.1-73.9-82L149 333.8h56.4l84-195.4z"/>
    <path fill="#f2ae14" d="M132 138.5H45.8l-.7 4c67 16.2 111.2 55.4 129.6 102.5l-18.7-90c-3.2-12.4-12.6-16.1-24.2-16.5"/>
  </g>
</svg>
