<svg xmlns="http://www.w3.org/2000/svg" id="Layer_1" data-name="Layer 1" preserveAspectRatio="xMidYMid meet" viewBox="0 0 750 212">
  <defs>
    <style>
      .cls-1{fill:#2e3233}.cls-2{fill:#9de60b}
    </style>
  </defs>
  <path d="M492.4 67.2c16.2-4 36-.3 46.7 13.6a46.8 46.8 0 018.1 19.2l-21.5.1c-3-15.4-24.2-21.6-35.5-11-7.9 8.6-9.3 21.4-7.7 32.6 1.8 8.5 5.2 18.5 14 22 12.6 4.7 27.5-3.7 29.2-17.2l22 .1c-1.6 13-7.9 26.7-20.7 32-19.8 8.6-48.2 6-59.7-14.5 1.9-8.3 4-17 2-25.6-1-6.3-4.3-11.9-6.3-17.9 0-16.3 14-30.2 29.4-33.4z" class="cls-1"/>
  <path d="M274 69.6l23.6-.1c4.7 20.5 7.3 41.6 13 62 5.6-16.9 8.3-34.6 13.1-51.7 1.5-5.2 5.5-10.7 11.5-10.3 6.4-.8 10.8 5.2 12.1 10.9 4.7 16.8 7.7 34 12.9 50.7 6-20.2 9.2-41 13.5-61.5h23c-6.4 25.8-13.7 51.4-20.2 77.1-1.6 6.4-4.5 13.7-11.3 16.1-7.8 1.8-14.8-4.4-16.7-11.6-4.9-15.5-8.4-31.3-13.1-46.8-3.9 15.4-7.8 30.7-12 46-1.6 6.9-7.6 14-15.3 12.5-7.5-.8-11.1-8.2-12.8-14.6l-21.2-78.7z" class="cls-2"/>
  <path d="M552.4 69.5h21.1c0 7.8-.1 15.5.5 23.2 11.3.8 23.7-2.4 34.1 3.3 9 4.8 14.2 15 14.1 25v42l-20.5.1c-.1-13.4.2-26.8 0-40.3.2-4.5-3-9.3-7.7-9.8-6.8-.8-13.7-.4-20.5-.3v50.4h-21.1V69.7zm161.6 0h20v21h16v15.6h-16.2c.4 11.9-1 23.9.7 35.7 3.5 4.4 9.9 3.8 15 5.2l-.1 16c-11.5.2-27.2 1.7-33-10.8-5.1-14.7-1.3-30.8-2.5-46l-15.4-.1V90.7l15.6-.1-.1-21z" class="cls-1"/>
  <path d="M462.4 131.7c.3-13.4-2.6-28.6-14.5-36.6-15.6-10-40.5-8.6-51 8.1-8.7 14.7-9.2 35.6 2.7 48.9 11.4 12.8 31.5 13.5 46.4 7 8.2-3.3 12.7-11.3 15.8-19q-9.8-.4-19.6-.2a20 20 0 01-24.1 5.4c-5.2-2.5-6.3-8.6-7.9-13.5 17.4-.2 34.8 0 52.2-.1zm-52.7-14c2.3-7.2 8.2-13.4 16.4-12.1 8.1-1.3 13.6 5.2 15.9 12.1q-16.1.5-32.3 0z" class="cls-2"/>
  <path d="M695 114c-.4-12.4-11.4-22.3-23.4-23.5s-25.3-1.3-35 6.6c-5.3 3.8-7 10.3-8.3 16.2 6.1.2 12.3.2 18.4.1 3.5-10.4 17.1-11.7 25.3-6.3 3 2.6 2.8 7 3.7 10.5-12.8.5-27-2-38.3 5.4-10.8 6.4-12.8 22-6.5 32.2 4.4 6.6 13 7.8 20.3 7.8h44c-.2-16.3.3-32.7-.2-49zm-47 30c-1-3.7 1-7 2.3-10.1 8.1-1.9 16.5-2.1 24.8-2v17.2c-9-.6-20.1 2.2-27.1-5.2z" class="cls-1"/>
  <path d="M145 13.2a107.7 107.7 0 00-88.3-6.8 89.9 89.9 0 00-46.2 36.4A68.3 68.3 0 002 95a80.1 80.1 0 0034.7 47c-3 9-6.2 18-9 27.2 10.4-5.4 20.7-11 31.2-16.6a115.9 115.9 0 0039 5.5 67 67 0 01-2.7-31.4 67 67 0 0121.3-37.9 92 92 0 0169.1-22.7 80.7 80.7 0 00-40.6-53zM73.8 54.4c-1.8 9-13.8 13.2-20.7 7.2C45 56 47.2 41.8 56.7 39c9.3-3.6 19.9 5.8 17.1 15.4zm64.5-2.6c0 10.3-13.6 16.7-21.2 9.7-8-5.7-5.7-19.5 3.6-22.4 8.3-3.3 18.2 3.7 17.6 12.7z" class="cls-2"/>
  <path d="M250.6 114a70.4 70.4 0 00-32.9-33.5 90.6 90.6 0 00-81.2.3 67.5 67.5 0 00-36 44.3 57 57 0 007.2 42.2 77.6 77.6 0 0053 34.5 97.4 97.4 0 0046.1-3c9 3.5 17 9.1 25.7 13.3q-3.4-11.3-7.2-22.4c9.7-7 18.6-15.6 23.9-26.4a57.2 57.2 0 001.4-49.3zm-87.2 5.6c-2.2 7-12.3 9-17.2 3.7-5.4-4.8-3.3-15 3.8-17.2 7.8-3.3 16.8 5.7 13.4 13.5zm51 1c-2.7 6.3-12 7.7-16.6 2.9-2.3-2-2.8-5.1-3.7-7.8 1.2-4.9 4.4-10 10-10.2 7.6-1 14.3 8.2 10.3 15z" class="cls-1"/>
</svg>
