<svg width="1000" height="400" fill="none" xmlns="http://www.w3.org/2000/svg"><g clip-path="url(#clip0_1916_6764)"><path fill="#151515" d="M0 0h1000v400H0z"/><ellipse opacity=".2" cx="500" cy="463" rx="1497" ry="249" fill="url(#paint0_radial_1916_6764)"/><path opacity=".4" d="M301 449h1v-95.447c0-4.441 0-7.834-.221-10.543-.223-2.73-.676-4.852-1.632-6.728a16.998 16.998 0 0 0-7.429-7.429c-1.876-.956-3.998-1.409-6.728-1.632-2.709-.221-6.102-.221-10.543-.221H160.154c-3.321 0-5.875 0-7.917.167-2.063.168-3.691.512-5.139 1.25a12.997 12.997 0 0 0-5.681 5.681c-.738 1.448-1.082 3.076-1.25 5.139-.167 2.042-.167 4.596-.167 7.917V449h161z" stroke="url(#paint1_linear_1916_6764)" stroke-width="2"/><path opacity=".4" d="M493 449h1v-95.447c0-4.441 0-7.834-.221-10.543-.223-2.73-.676-4.852-1.632-6.728a16.998 16.998 0 0 0-7.429-7.429c-1.876-.956-3.998-1.409-6.728-1.632-2.709-.221-6.102-.221-10.543-.221H352.154c-3.321 0-5.875 0-7.917.167-2.063.168-3.691.512-5.139 1.25a12.997 12.997 0 0 0-5.681 5.681c-.738 1.448-1.082 3.076-1.25 5.139-.167 2.042-.167 4.596-.167 7.917V449h161z" stroke="url(#paint2_linear_1916_6764)" stroke-width="2"/><path opacity=".4" d="M685 449h1v-95.447c0-4.441 0-7.834-.221-10.543-.223-2.73-.676-4.852-1.632-6.728a16.998 16.998 0 0 0-7.429-7.429c-1.876-.956-3.998-1.409-6.728-1.632-2.709-.221-6.102-.221-10.543-.221H544.154c-3.321 0-5.875 0-7.917.167-2.063.168-3.691.512-5.139 1.25a12.997 12.997 0 0 0-5.681 5.681c-.738 1.448-1.082 3.076-1.25 5.139-.167 2.042-.167 4.596-.167 7.917V449h161z" stroke="url(#paint3_linear_1916_6764)" stroke-width="2"/><path opacity=".4" d="M877 449h1v-95.447c0-4.441 0-7.834-.221-10.543-.223-2.73-.676-4.852-1.632-6.728a16.998 16.998 0 0 0-7.429-7.429c-1.876-.956-3.998-1.409-6.728-1.632-2.709-.221-6.102-.221-10.543-.221H736.154c-3.321 0-5.875 0-7.917.167-2.063.168-3.691.512-5.139 1.25a12.997 12.997 0 0 0-5.681 5.681c-.738 1.448-1.082 3.076-1.25 5.139-.167 2.042-.167 4.596-.167 7.917V449h161z" stroke="url(#paint4_linear_1916_6764)" stroke-width="2"/></g><defs><radialGradient id="paint0_radial_1916_6764" cx="0" cy="0" r="1" gradientUnits="userSpaceOnUse" gradientTransform="matrix(0 249 -1497 0 500 463)"><stop stop-color="#3858E9"/><stop offset="1" stop-color="#151515" stop-opacity="0"/></radialGradient><linearGradient id="paint1_linear_1916_6764" x1="221" y1="328" x2="221" y2="448" gradientUnits="userSpaceOnUse"><stop stop-color="#3858E9"/><stop offset="1" stop-color="#151515" stop-opacity="0"/></linearGradient><linearGradient id="paint2_linear_1916_6764" x1="413" y1="328" x2="413" y2="448" gradientUnits="userSpaceOnUse"><stop stop-color="#FFFCB5"/><stop offset="1" stop-color="#151515" stop-opacity="0"/></linearGradient><linearGradient id="paint3_linear_1916_6764" x1="605" y1="328" x2="605" y2="448" gradientUnits="userSpaceOnUse"><stop stop-color="#C7FFDB"/><stop offset="1" stop-color="#151515" stop-opacity="0"/></linearGradient><linearGradient id="paint4_linear_1916_6764" x1="797" y1="328" x2="797" y2="448" gradientUnits="userSpaceOnUse"><stop stop-color="#FFB7A7"/><stop offset="1" stop-color="#151515" stop-opacity="0"/></linearGradient><clipPath id="clip0_1916_6764"><path fill="#fff" d="M0 0h1000v400H0z"/></clipPath></defs></svg>