<svg width="396" height="515" viewBox="0 0 396 515" fill="none" xmlns="http://www.w3.org/2000/svg" aria-hidden="true" focusable="false">
	<path d="M105.927 265.31V117.777C105.927 70.144 146.465 33 198.02 33c51.555 0 92.094 37.144 92.094 84.777V265.31" stroke="#3858E9" stroke-width="64.323"/>
	<path fill-rule="evenodd" clip-rule="evenodd" d="M17.904 193.434c-9.427 0-17.068 7.642-17.068 17.068v303.643h395V210.502c0-9.426-7.642-17.068-17.068-17.068H17.904Zm217.11 141.097c0 16.284-10.545 30.106-25.18 35.007l23.361 33.29c2.107 3.002-.041 7.132-3.708 7.132h-63.205c-3.667 0-5.814-4.13-3.708-7.132l23.446-33.41c-14.451-5.005-24.827-18.734-24.827-34.887 0-20.385 16.526-36.911 36.911-36.911s36.91 16.526 36.91 36.911Z" fill="#1B8362" style="mix-blend-mode:multiply"/>
</svg>
