<svg width="863" height="550" fill="none" xmlns="http://www.w3.org/2000/svg"><g opacity=".5" clip-path="url(#clip0_1462_1686)" fill="#273FCC" stroke="#627EFF" stroke-width="2" stroke-miterlimit="10"><path d="M657.063-125.225c-30.085-19.747-70.482-11.366-90.229 18.719s-11.366 70.481 18.719 90.228C615.637 3.47 656.034-4.91 675.781-34.996s11.367-70.482-18.718-90.229z"/><path d="M676.828-109.389c-28.344-21.297-68.587-15.584-89.884 12.76-21.298 28.345-15.585 68.588 12.76 89.885 28.345 21.297 68.587 15.584 89.885-12.76 21.297-28.345 15.584-68.588-12.761-89.885z"/><path d="M695.788-92.49c-26.61-22.847-66.703-19.797-89.55 6.813-22.848 26.61-19.798 66.703 6.812 89.55 26.609 22.848 66.702 19.798 89.55-6.812s19.798-66.702-6.812-89.55z"/><path d="M624.72-73.595l-.009.01c-24.395 24.867-24.012 64.802.856 89.196l.009.01c24.868 24.394 64.802 24.01 89.197-.857l.009-.01c24.395-24.867 24.011-64.801-.856-89.196l-.01-.01c-24.867-24.394-64.802-24.01-89.196.857z"/><path d="M731.127-55.386c-23.132-25.945-62.917-28.225-88.862-5.092-25.945 23.132-28.225 62.916-5.092 88.861 23.132 25.945 62.916 28.225 88.861 5.093 25.945-23.133 28.225-62.917 5.093-88.862z"/><path d="M658.85-46.31l-.01.008c-27.491 21.393-32.435 61.023-11.041 88.515l.008.01c21.394 27.491 61.024 32.434 88.515 11.04l.011-.007c27.491-21.394 32.434-61.024 11.04-88.515l-.008-.01c-21.394-27.492-61.023-32.435-88.515-11.041z"/><path d="M762.616-14.067c-19.658-29.046-59.14-36.656-88.185-16.998-29.046 19.658-36.656 59.14-16.998 88.186 19.658 29.045 59.14 36.655 88.185 16.997 29.046-19.657 36.656-59.14 16.998-88.185z"/><path d="M776.748 8.226c-17.914-30.596-57.239-40.876-87.834-22.961-30.595 17.914-40.875 57.239-22.961 87.834 17.914 30.595 57.239 40.875 87.834 22.96 30.596-17.913 40.876-57.238 22.961-87.833z"/><path d="M789.707 31.304C773.527-.84 734.352-13.781 702.208 2.4c-32.144 16.18-45.085 55.355-28.904 87.5 16.181 32.143 55.356 45.084 87.499 28.903 32.144-16.181 45.085-55.355 28.904-87.5zM277.424 417.171c-30.085-19.747-70.481-11.366-90.228 18.719-19.747 30.084-11.367 70.481 18.718 90.228s70.481 11.367 90.228-18.718 11.367-70.482-18.718-90.229z"/><path d="M263.288 407.699c-28.344-21.298-68.587-15.585-89.884 12.76-21.298 28.345-15.585 68.587 12.76 89.885 28.345 21.297 68.587 15.584 89.885-12.761 21.297-28.344 15.584-68.587-12.761-89.884z"/><path d="M249.955 397.04c-26.61-22.848-66.703-19.798-89.55 6.812-22.848 26.609-19.798 66.702 6.812 89.55 26.609 22.848 66.702 19.798 89.55-6.812 22.847-26.61 19.798-66.703-6.812-89.55z"/><path d="M148.245 386.192l-.009.009c-24.395 24.867-24.012 64.802.856 89.197l.009.009c24.868 24.394 64.803 24.011 89.197-.856l.009-.01c24.395-24.867 24.011-64.802-.856-89.197l-.009-.009c-24.868-24.394-64.803-24.011-89.197.857z"/><path d="M225.844 372.537c-23.132-25.945-62.917-28.225-88.861-5.093-25.945 23.132-28.225 62.917-5.093 88.862 23.132 25.945 62.917 28.225 88.862 5.092 25.944-23.132 28.224-62.916 5.092-88.861z"/><path d="M126.7 347.625l-.01.008c-27.492 21.394-32.435 61.023-11.041 88.515l.008.01c21.394 27.492 61.023 32.435 88.515 11.041l.01-.008c27.492-21.394 32.435-61.023 11.041-88.515l-.008-.01c-21.394-27.492-61.024-32.435-88.515-11.041z"/><path d="M205.607 343.828c-19.658-29.046-59.141-36.656-88.186-16.998-29.046 19.658-36.656 59.14-16.998 88.186 19.658 29.046 59.14 36.656 88.186 16.998 29.045-19.658 36.656-59.14 16.998-88.186z"/><path d="M197.033 328.007c-17.915-30.595-57.239-40.875-87.835-22.961-30.595 17.915-40.875 57.239-22.96 87.835 17.914 30.595 57.238 40.875 87.834 22.961 30.595-17.915 40.875-57.239 22.961-87.835z"/><path d="M189.738 311.097c-16.181-32.144-55.356-45.085-87.499-28.904-32.144 16.181-45.085 55.355-28.904 87.499 16.18 32.144 55.355 45.085 87.499 28.904s45.085-55.356 28.904-87.499zM826.354 232.951c2.059-35.928-25.397-66.722-61.324-68.781-35.928-2.059-66.722 25.397-68.781 61.325-2.059 35.927 25.397 66.722 61.324 68.781 35.928 2.059 66.722-25.397 68.781-61.325z"/><path d="M766.532 186.522c-35.196-4.272-67.191 20.797-71.463 55.993-4.271 35.196 20.798 67.19 55.994 71.462 35.195 4.272 67.19-20.797 71.462-55.993 4.271-35.196-20.798-67.191-55.993-71.462z"/><path d="M766.674 208.705c-34.469-6.482-67.665 16.206-74.147 50.674-6.482 34.469 16.206 67.665 50.674 74.147 34.469 6.482 67.666-16.206 74.147-50.674 6.482-34.469-16.206-67.665-50.674-74.147z"/><path d="M688.641 276.1l-.004.013c-8.692 33.733 11.607 68.126 45.34 76.818l.013.004c33.733 8.692 68.126-11.607 76.818-45.34l.004-.013c8.692-33.733-11.607-68.126-45.34-76.819l-.013-.003c-33.733-8.692-68.126 11.607-76.818 45.34z"/><path d="M762.843 252.507c-33.006-10.903-68.6 7.015-79.503 40.02-10.902 33.006 7.015 68.6 40.021 79.503 33.005 10.903 68.6-7.015 79.502-40.02 10.903-33.006-7.015-68.6-40.02-79.503z"/><path d="M676.642 308.64l-.005.012c-13.112 32.273 2.422 69.065 34.696 82.176l.012.005c32.273 13.112 69.065-2.422 82.176-34.696l.005-.012c13.112-32.273-2.422-69.065-34.696-82.176l-.012-.005c-32.273-13.112-69.065 2.422-82.176 34.696z"/><path d="M753.439 295.05c-31.547-15.326-69.545-2.175-84.87 29.372-15.325 31.547-2.175 69.545 29.372 84.87 31.547 15.325 69.545 2.175 84.87-29.372 15.326-31.547 2.175-69.545-29.372-84.87z"/><path d="M746.666 315.824c-30.812-17.539-70.008-6.78-87.547 24.032s-6.78 70.008 24.032 87.548c30.812 17.539 70.008 6.779 87.547-24.033 17.54-30.812 6.78-70.008-24.032-87.547z"/><path d="M738.374 335.843c-30.085-19.747-70.482-11.367-90.229 18.718s-11.367 70.482 18.718 90.229 70.482 11.366 90.229-18.719c19.747-30.084 11.366-70.481-18.718-90.228zM166.79 175.376c2.059-35.928-25.397-66.722-61.325-68.781-35.928-2.059-66.722 25.397-68.781 61.324-2.06 35.928 25.397 66.722 61.325 68.781 35.927 2.059 66.722-25.397 68.781-61.324z"/><path d="M111.95 86.936c-35.196-4.272-67.191 20.797-71.463 55.993-4.271 35.196 20.798 67.19 55.994 71.462 35.195 4.272 67.19-20.797 71.462-55.993 4.271-35.196-20.798-67.19-55.993-71.462z"/><path d="M119.799 67.371c-34.468-6.481-67.665 16.206-74.147 50.675-6.481 34.468 16.206 67.665 50.675 74.147 34.468 6.481 67.665-16.206 74.147-50.675 6.482-34.468-16.206-67.665-50.675-74.147z"/><path d="M52.196 93.349l-.003.012C43.5 127.094 63.8 161.487 97.533 170.18l.012.003c33.733 8.692 68.126-11.607 76.819-45.34l.003-.013c8.693-33.733-11.607-68.126-45.34-76.818l-.013-.004c-33.733-8.692-68.126 11.607-76.818 45.34z"/><path d="M139.616 28.862c-33.005-10.902-68.6 7.015-79.502 40.02-10.903 33.006 7.015 68.601 40.02 79.504 33.006 10.902 68.6-7.016 79.503-40.021 10.903-33.005-7.015-68.6-40.021-79.503z"/><path d="M69.427 44.729l-.005.012c-13.112 32.274 2.422 69.065 34.696 82.177l.012.005c32.273 13.111 69.065-2.423 82.176-34.696l.005-.012c13.112-32.274-2.422-69.066-34.696-82.177l-.012-.005C119.33-3.078 82.538 12.456 69.427 44.73z"/><path d="M165.015-8.394C133.467-23.72 95.47-10.57 80.145 20.978c-15.326 31.547-2.175 69.545 29.372 84.87 31.547 15.326 69.545 2.175 84.87-29.372 15.325-31.547 2.175-69.545-29.372-84.87z"/><path d="M179.832-26.328c-30.812-17.539-70.009-6.78-87.548 24.032s-6.78 70.009 24.033 87.548c30.812 17.539 70.008 6.78 87.547-24.033 17.539-30.812 6.779-70.008-24.032-87.547z"/><path d="M196.078-43.852c-30.085-19.747-70.482-11.366-90.229 18.719s-11.366 70.481 18.718 90.228c30.085 19.747 70.482 11.367 90.229-18.718s11.366-70.482-18.718-90.229z"/></g><defs><clipPath id="clip0_1462_1686"><path fill="#fff" transform="rotate(5 2670.568 688.345)" d="M0 0h795v794.948H0z"/></clipPath></defs></svg>
