<svg width="181" height="100" xmlns="http://www.w3.org/2000/svg"><rect fill="#F6F7F7" width="14" height="20"/><rect fill="#F0F0F1" x="14" width="14" height="20"/><rect fill="#DCDCDE" x="28" width="14" height="20"/><rect fill="#C3C4C7" x="42" width="14" height="20"/><rect fill="#A7AAAD" x="56" width="14" height="20"/><rect fill="#8C8F93" x="70" width="14" height="20"/><rect fill="#797C81" x="84" width="14" height="20"/><rect fill="#65696F" x="98" width="14" height="20"/><rect fill="#51575D" x="112" width="14" height="20"/><rect fill="#3D4349" x="126" width="14" height="20"/><rect fill="#2D3337" x="140" width="14" height="20"/><rect fill="#1E2327" x="154" width="14" height="20"/><rect fill="#111517" x="168" width="13" height="20"/><rect fill="#F1F6FB" y="20" width="15" height="20"/><rect fill="#7EADE1" x="45" y="20" width="15" height="20"/><rect fill="#3971AC" x="90" y="20" width="15" height="20"/><rect fill="#153956" x="135" y="20" width="15" height="20"/><rect fill="#C8D9EB" x="15" y="20" width="15" height="20"/><rect fill="#5F93CF" x="60" y="20" width="15" height="20"/><rect fill="#2B5E92" x="105" y="20" width="15" height="20"/><rect fill="#0B2638" x="150" y="20" width="15" height="20"/><rect fill="#A5C1E3" x="30" y="20" width="15" height="20"/><rect fill="#4981BF" x="75" y="20" width="15" height="20"/><rect fill="#1F4B74" x="120" y="20" width="15" height="20"/><rect fill="#04131B" x="165" y="20" width="16" height="20"/><rect fill="#FAF0F1" y="40" width="15" height="20"/><rect fill="#EF8788" x="45" y="40" width="15" height="20"/><rect fill="#C6443F" x="90" y="40" width="15" height="20"/><rect fill="#61221F" x="135" y="40" width="15" height="20"/><rect fill="#F3D1D3" x="15" y="40" width="15" height="20"/><rect fill="#E76C6C" x="60" y="40" width="15" height="20"/><rect fill="#A53834" x="105" y="40" width="15" height="20"/><rect fill="#3F1615" x="150" y="40" width="15" height="20"/><rect fill="#F3AFB0" x="30" y="40" width="15" height="20"/><rect fill="#D55A59" x="75" y="40" width="15" height="20"/><rect fill="#7F2C28" x="120" y="40" width="15" height="20"/><rect fill="#210C0B" x="165" y="40" width="16" height="20"/><rect fill="#FCF9EA" y="60" width="15" height="20"/><rect fill="#E9C457" x="45" y="60" width="15" height="20"/><rect fill="#926921" x="90" y="60" width="15" height="20"/><rect fill="#47330B" x="135" y="60" width="15" height="20"/><rect fill="#F3E6B2" x="15" y="60" width="15" height="20"/><rect fill="#D3A73E" x="60" y="60" width="15" height="20"/><rect fill="#705218" x="105" y="60" width="15" height="20"/><rect fill="#332406" x="150" y="60" width="15" height="20"/><rect fill="#EED683" x="30" y="60" width="15" height="20"/><rect fill="#B5872D" x="75" y="60" width="15" height="20"/><rect fill="#5D4312" x="120" y="60" width="15" height="20"/><rect fill="#1F1603" x="165" y="60" width="16" height="20"/><rect fill="#EFF9F0" y="80" width="15" height="20"/><rect fill="#62CB5C" x="45" y="80" width="15" height="20"/><rect fill="#3C8632" x="90" y="80" width="15" height="20"/><rect fill="#1A4315" x="135" y="80" width="15" height="20"/><rect fill="#C1E4C2" x="15" y="80" width="15" height="20"/><rect fill="#53B64B" x="60" y="80" width="15" height="20"/><rect fill="#2F6D26" x="105" y="80" width="15" height="20"/><rect fill="#102F0E" x="150" y="80" width="15" height="20"/><rect fill="#87DA86" x="30" y="80" width="15" height="20"/><rect fill="#48A03E" x="75" y="80" width="15" height="20"/><rect fill="#265A1E" x="120" y="80" width="15" height="20"/><rect fill="#071B07" x="165" y="80" width="16" height="20"/></svg>
