<svg width="73" height="26" viewBox="0 0 73 26" fill="none" xmlns="http://www.w3.org/2000/svg">
<path d="M62.6438 24.5772C60.6623 24.5772 58.9146 24.1096 57.4006 23.1746C55.9089 22.2395 54.7401 20.9036 53.894 19.167C53.048 17.4082 52.625 15.2931 52.625 12.8218C52.625 10.3505 53.048 8.23542 53.894 6.47656C54.7401 4.7177 55.9089 3.38186 57.4006 2.46904C58.9146 1.53395 60.6623 1.06641 62.6438 1.06641C64.6476 1.06641 66.3953 1.53395 67.887 2.46904C69.3787 3.38186 70.5364 4.7177 71.3602 6.47656C72.2062 8.23542 72.6292 10.3505 72.6292 12.8218C72.6292 15.2931 72.2062 17.4082 71.3602 19.167C70.5364 20.9259 69.3787 22.2729 67.887 23.208C66.3953 24.1208 64.6476 24.5772 62.6438 24.5772ZM62.6438 22.4065C63.757 22.4065 64.7032 22.028 65.4825 21.271C66.2617 20.4917 66.8628 19.3897 67.2858 17.9648C67.7089 16.5399 67.9204 14.8256 67.9204 12.8218C67.9204 10.818 67.7089 9.10371 67.2858 7.67881C66.8628 6.25392 66.2617 5.16298 65.4825 4.40601C64.7032 3.62677 63.757 3.23715 62.6438 3.23715C61.5529 3.23715 60.6066 3.62677 59.8051 4.40601C59.0259 5.16298 58.4248 6.25392 58.0018 7.67881C57.5787 9.10371 57.3672 10.818 57.3672 12.8218C57.3672 14.8256 57.5787 16.5399 58.0018 17.9648C58.4248 19.3897 59.0259 20.4917 59.8051 21.271C60.6066 22.028 61.5529 22.4065 62.6438 22.4065Z" fill="#1E1E1E"/>
<path d="M48.5127 24.5129C47.6444 24.5129 46.9431 24.2457 46.4087 23.7114C45.8967 23.177 45.6406 22.5091 45.6406 21.7076C45.6406 20.8838 45.8967 20.2159 46.4087 19.7038C46.9431 19.1695 47.6444 18.9023 48.5127 18.9023C49.4032 18.9023 50.1046 19.1695 50.6166 19.7038C51.151 20.2159 51.4181 20.8838 51.4181 21.7076C51.4181 22.5091 51.151 23.177 50.6166 23.7114C50.1046 24.2457 49.4032 24.5129 48.5127 24.5129Z" fill="#1E1E1E"/>
<path d="M37.0121 24.2097C37.0567 21.8274 37.3238 19.6678 37.8137 17.7308C38.3257 15.7716 39.027 14.0016 39.9176 12.4209C40.8304 10.8401 41.8991 9.41524 43.1236 8.14619C44.3704 6.87714 45.7396 5.75281 47.2313 4.77319L49.8696 4.57282C48.467 5.86413 47.2536 7.2111 46.2294 8.61374C45.2276 10.0164 44.3927 11.5081 43.7247 13.0888C43.0568 14.6695 42.567 16.3839 42.2553 18.2318C41.9436 20.0574 41.7878 22.0501 41.7878 24.2097H37.0121ZM32.2031 8.9477V4.77319H37.0121C36.0325 4.77319 35.3757 4.97357 35.0418 5.37432C34.7078 5.75281 34.5408 6.46526 34.5408 7.51167V8.9477H32.2031ZM32.2031 4.77319V1.43359H49.8696V4.57282L47.2313 4.77319H32.2031Z" fill="#1E1E1E"/>
<path d="M0 13C0 20.1677 5.83226 26 12.9999 26C20.1676 26 25.9999 20.1677 25.9999 13C25.9999 5.83229 20.1713 0 12.9999 0C5.82857 0 0 5.83229 0 13ZM7.89808 23.5173C3.99515 21.6212 1.30958 17.626 1.30958 12.9963C1.30958 11.3031 1.67479 9.69465 2.32036 8.2375L7.89439 23.5173H7.89808ZM13.0036 24.6867C11.8564 24.6867 10.7497 24.517 9.70199 24.2108L13.2102 14.0219L16.8033 23.8641C16.8254 23.9231 16.8549 23.9748 16.8881 24.0264C15.6707 24.4506 14.3649 24.6867 13.0073 24.6867H13.0036ZM22.4511 12.7786C23.1151 11.1112 23.3401 9.77948 23.3401 8.59163C23.3401 8.16371 23.3106 7.7616 23.2627 7.38901C24.1738 9.05275 24.694 10.9637 24.694 12.9963C24.694 17.3087 22.3589 21.0715 18.8839 23.1005L22.4548 12.7786H22.4511ZM20.8943 4.38252C20.8427 4.37883 20.7947 4.37145 20.7468 4.37145C19.5958 4.37145 18.7842 5.37116 18.7842 6.44466C18.7842 7.40748 19.3376 8.22272 19.9352 9.18555C20.3779 9.96393 20.898 10.9636 20.898 12.4097C20.898 13.4131 20.6029 14.6711 20.009 16.1909L18.8433 20.0865L14.6194 7.52181C15.324 7.48492 15.9548 7.41117 15.9548 7.41117C16.5819 7.33739 16.5081 6.41146 15.881 6.44835C15.881 6.44835 13.9886 6.59592 12.7638 6.59592C11.6129 6.59592 9.68355 6.44835 9.68355 6.44835C9.05274 6.41146 8.97895 7.37428 9.60977 7.41117C9.60977 7.41117 10.2074 7.48492 10.8382 7.52181L12.6606 12.513L10.1004 20.1861L5.84332 7.51817C6.5516 7.48128 7.17873 7.40748 7.17873 7.40748C7.80585 7.3337 7.73209 6.40777 7.10496 6.44466C7.10496 6.44466 5.21252 6.59222 3.98778 6.59222C3.77013 6.59222 3.5082 6.58852 3.23521 6.57745C5.33055 3.40861 8.91994 1.31326 13.0036 1.31326C16.047 1.31326 18.8175 2.47896 20.8943 4.38617V4.38252Z" fill="#1E1E1E"/>
</svg>
