<svg version="1.1" id="Layer_1" xmlns="http://www.w3.org/2000/svg" x="0" y="0" viewBox="0 0 500 400" xml:space="preserve">
  <style>
    .st0{fill:none;stroke:#1e1e1e;stroke-width:2;stroke-linecap:round;stroke-linejoin:round}.st1{stroke:#fff;stroke-width:10}.st1,.st2{fill:#fff}.st3{fill:#1e1e1e}
  </style>
  <path class="st0" d="M83.9 216.6c0-5.2-11.9-13.3-11.8-12 .1 1.3-1 91.9 11.9 132.3 0 0 2.5 5.2-1.3 11.8"/>
  <path class="st1" d="m71 193.4-2.2 4.5 2.7 1.3 2.4-1.7-2.9-4.1zm0 0 2.8 4.1.1-.1c.1-.1.3-.2.4-.3.4-.3.9-.7 1.6-1.2 1.9-1.4 3.8-2.9 5.7-4.4 4.7-3.8 10.9-9.2 17-15.8 6.1-6.5 12.3-14.3 16.8-22.7 4.5-8.4 7.5-17.8 6.8-27.6-2.1-29.7-29-51.4-59.6-49.3-30.6 2.1-54.2 27.4-52.1 57.1.7 9.7 5 18.6 10.6 26.3 5.6 7.7 12.8 14.6 19.8 20.2s13.9 10.1 19 13.2c2 1.2 4.1 2.4 6.2 3.6l1.8.9.5.2.1.1c.3.2.3.2 2.5-4.3z"/>
  <path class="st2" d="m70.9 201.3-5.7 14s3.6 2.4 9.7 1.3l-2.6-15.1-1.4-.2z"/>
  <path class="st3" d="m68.9 202.7 4.1.2c.5 0 1 .5.9 1 0 .5-.5 1-1 .9l-4.1-.2c-.5 0-1-.5-.9-1 0-.6.5-1 1-.9z"/>
  <path class="st0" d="M192 266.7s-.1-1.8-1.8-4.2c0 0-3.6-6.2 3-7.2 0 0 5.9-.5 7.7-2.4.5 16.8 1 56.3-1.1 80.5-1 15.3-2.1 49.9 1.1 65.7"/>
  <path class="st1" d="m199.5 241.7 3.2 3.9-2.3 1.9-2.8-1.2 1.9-4.6zm0 0c-.6 1.5-1.3 3.1-2 4.6l-.1-.1c-.8-.3-1.6-.7-2.3-1.1-2.2-1-4.3-2.1-6.5-3.2-5.3-2.8-12.6-6.9-19.9-12.1-14.4-10.2-30.9-25.7-33.7-45-4.2-29.9 17.5-57.1 47.9-61.4 30.4-4.3 58.8 15.9 63 45.8 2.7 19.3-8.9 38.7-20 52.5-5.7 7.1-11.4 13-15.8 17.1-1.7 1.7-3.5 3.3-5.3 4.9-.6.6-1.3 1.1-1.9 1.7l-.1.1c-.2.1-.2.1-3.3-3.8z"/>
  <path class="st2" d="m199.9 248.7-3.4 14.7s4 1.8 9.8-.2l-4.9-14.5h-1.5z"/>
  <path class="st3" d="m202.4 250.6-3.1.1c-.5 0-1 .5-.9 1 0 .5.5 1 1 .9l3.1-.1c.5 0 1-.5.9-1 0-.5-.5-.9-1-.9z"/>
  <path class="st0" d="M277.7 170.2c-.4-5.2 10.7-14.3 10.7-12.9 0 1.3 8.6 91.5-.8 132.8 0 0-2.1 5.4 2.3 11.6"/>
  <path class="st1" d="m289.6 146.8 2.6 4.3-2.5 1.5-2.6-1.5 2.5-4.3zm0 0-2.5 4.3-.1-.1c-.7-.4-1.5-.9-2.2-1.3l-6-3.9c-5-3.4-11.6-8.3-18.2-14.3s-13.5-13.2-18.7-21.2c-5.2-8-9-17.2-9.1-26.9-.4-29.8 24.6-53.7 55.3-54.1s56.3 22.7 56.7 52.5c.1 9.7-3.4 19-8.4 27.1-5 8.2-11.6 15.6-18.1 21.7-6.5 6.2-13 11.3-17.8 14.8-1.9 1.4-3.9 2.8-5.9 4.1-.7.5-1.3.8-1.7 1.1l-.5.3-.1.1c-.1.1-.1.1-2.7-4.2z"/>
  <path class="st2" d="m289.4 154.8 6.8 13.4s-3.4 2.7-9.5 2.1l1.4-15.2 1.3-.3z"/>
  <path class="st3" d="m291.4 156-4.1.6c-.5.1-.9.6-.8 1.1.1.5.6.9 1.1.8l4.1-.6c.5-.1.9-.6.8-1.1 0-.5-.5-.9-1.1-.8z"/>
  <path class="st0" d="M420.8 237.4c-.7 0-16.5 4.9-15.7-1.9 0 0 .1-1.8 1.8-4.2 0 0 3.6-6.2-3-7.2 0 0-5.9-.5-7.7-2.4-.5 16.8-1 56.3 1.1 80.5 1 15.3 2.1 49.9-1.1 65.7"/>
  <path class="st1" d="m398.6 212.4-3.2 3.9 2.3 1.9 2.8-1.2-1.9-4.6zm0 0 2 4.6.1-.1c.8-.3 1.6-.7 2.3-1.1 2.2-1 4.3-2.1 6.5-3.2 5.3-2.8 12.5-6.9 19.9-12.1 14.4-10.2 30.9-25.7 33.7-45 4.2-29.9-17.5-57.1-47.9-61.4-30.4-4.3-58.8 15.9-63 45.8-2.7 19.3 8.9 38.7 20 52.5 5.7 7.1 11.4 13 15.8 17.1 1.7 1.7 3.5 3.3 5.3 4.9.6.6 1.3 1.1 1.9 1.7l.1.1c.1.1.1.1 3.3-3.8z"/>
  <path class="st2" d="m398.1 219.4 3.5 14.7s-4 1.8-9.8-.2l4.9-14.5h1.4z"/>
  <path class="st3" d="m394.8 221.4 4.3.2c.5 0 1 .5.9 1 0 .5-.5 1-1 .9l-4.3-.2c-.5 0-1-.5-.9-1-.1-.5.4-1 1-.9z"/>
</svg>
