<svg width="780" height="550" fill="none" xmlns="http://www.w3.org/2000/svg"><g opacity=".5" clip-path="url(#clip0_1462_2043)" fill="#273FCC" stroke="#627EFF" stroke-width="2" stroke-miterlimit="10"><path d="M500.857 71.524c0-36.51-29.615-66.106-66.148-66.106-36.532 0-66.147 29.597-66.147 66.106 0 36.509 29.615 66.106 66.147 66.106 36.533 0 66.148-29.597 66.148-66.106z"/><path d="M498.687 43.138c0-36.509-29.615-66.106-66.148-66.106-36.532 0-66.147 29.597-66.147 66.106 0 36.51 29.615 66.106 66.147 66.106 36.533 0 66.148-29.597 66.148-66.106z"/><path d="M492.377 16.14c0-36.508-29.615-66.105-66.148-66.105-36.532 0-66.147 29.597-66.147 66.106 0 36.509 29.615 66.106 66.147 66.106 36.533 0 66.148-29.597 66.148-66.106z"/><path d="M482.243-9.165c0-36.509-29.616-66.105-66.148-66.105s-66.147 29.596-66.147 66.105c0 36.51 29.615 66.106 66.147 66.106 36.532 0 66.148-29.596 66.148-66.106z"/><path d="M468.63-32.447c0-36.51-29.616-66.106-66.148-66.106s-66.148 29.597-66.148 66.106c0 36.51 29.616 66.106 66.148 66.106S468.63 4.062 468.63-32.447z"/><path d="M451.855-53.376c0-36.51-29.616-66.106-66.148-66.106s-66.148 29.597-66.148 66.106c0 36.509 29.616 66.106 66.148 66.106s66.148-29.597 66.148-66.106zM182.964-53.072c0-36.51-29.615-66.106-66.147-66.106-36.532 0-66.148 29.597-66.148 66.106 0 36.51 29.615 66.106 66.148 66.106 36.532 0 66.147-29.597 66.147-66.106z"/><path d="M166.084-32.183c0-36.509-29.616-66.106-66.148-66.106S33.788-68.691 33.788-32.183c0 36.51 29.616 66.106 66.148 66.106s66.148-29.596 66.148-66.106z"/><path d="M152.378-8.953c0-36.51-29.615-66.106-66.148-66.106-36.532 0-66.148 29.597-66.148 66.106 0 36.509 29.616 66.106 66.148 66.106 36.533 0 66.148-29.597 66.148-66.106z"/><path d="M142.178 16.3c0-36.51-29.615-66.106-66.148-66.106-36.532 0-66.147 29.596-66.147 66.105 0 36.51 29.615 66.106 66.147 66.106 36.533 0 66.148-29.596 66.148-66.106z"/><path d="M135.814 43.23c0-36.508-29.615-66.105-66.147-66.105-36.533 0-66.148 29.597-66.148 66.106 0 36.509 29.615 66.106 66.148 66.106 36.532 0 66.147-29.597 66.147-66.106z"/><path d="M133.618 71.524c0-36.51-29.615-66.106-66.147-66.106-36.533 0-66.148 29.597-66.148 66.106 0 36.509 29.615 66.106 66.148 66.106 36.532 0 66.147-29.597 66.147-66.106z"/><path d="M133.618 71.524c0-36.51-29.615-66.106-66.147-66.106-36.533 0-66.148 29.597-66.148 66.106 0 36.509 29.615 66.106 66.148 66.106 36.532 0 66.147-29.597 66.147-66.106z"/><path d="M133.618 99.05c0-36.509-29.615-66.105-66.147-66.105-36.533 0-66.148 29.596-66.148 66.106 0 36.509 29.615 66.105 66.148 66.105 36.532 0 66.147-29.596 66.147-66.105z"/><path d="M133.618 126.577c0-36.51-29.615-66.106-66.147-66.106-36.533 0-66.148 29.597-66.148 66.106 0 36.509 29.615 66.106 66.148 66.106 36.532 0 66.147-29.597 66.147-66.106z"/><path d="M133.618 154.09c0-36.509-29.615-66.106-66.147-66.106-36.533 0-66.148 29.597-66.148 66.106 0 36.509 29.615 66.106 66.148 66.106 36.532 0 66.147-29.597 66.147-66.106z"/><path d="M133.618 181.617c0-36.51-29.615-66.106-66.147-66.106-36.533 0-66.148 29.596-66.148 66.106 0 36.509 29.615 66.105 66.148 66.105 36.532 0 66.147-29.596 66.147-66.105z"/><path d="M133.618 209.143c0-36.509-29.615-66.106-66.147-66.106-36.533 0-66.148 29.597-66.148 66.106 0 36.509 29.615 66.106 66.148 66.106 36.532 0 66.147-29.597 66.147-66.106z"/><path d="M133.618 236.67c0-36.51-29.615-66.106-66.147-66.106-36.533 0-66.148 29.596-66.148 66.106 0 36.509 29.615 66.105 66.148 66.105 36.532 0 66.147-29.596 66.147-66.105z"/><path d="M133.618 264.196c0-36.509-29.615-66.106-66.147-66.106-36.533 0-66.148 29.597-66.148 66.106 0 36.509 29.615 66.106 66.148 66.106 36.532 0 66.147-29.597 66.147-66.106z"/><path d="M133.618 291.722c0-36.509-29.615-66.105-66.147-66.105-36.533 0-66.148 29.596-66.148 66.105 0 36.51 29.615 66.106 66.148 66.106 36.532 0 66.147-29.596 66.147-66.106z"/><path d="M133.618 319.236c0-36.51-29.615-66.106-66.147-66.106-36.533 0-66.148 29.596-66.148 66.106 0 36.509 29.615 66.105 66.148 66.105 36.532 0 66.147-29.596 66.147-66.105z"/><path d="M133.618 346.762c0-36.509-29.615-66.106-66.147-66.106-36.533 0-66.148 29.597-66.148 66.106 0 36.509 29.615 66.106 66.148 66.106 36.532 0 66.147-29.597 66.147-66.106z"/><path d="M133.618 374.289c0-36.51-29.615-66.106-66.147-66.106-36.533 0-66.148 29.596-66.148 66.106 0 36.509 29.615 66.105 66.148 66.105 36.532 0 66.147-29.596 66.147-66.105z"/><path d="M133.618 374.831c0-36.51-29.615-66.106-66.147-66.106-36.533 0-66.148 29.596-66.148 66.106 0 36.509 29.615 66.105 66.148 66.105 36.532 0 66.147-29.596 66.147-66.105z"/><path d="M134.571 393.565c0-36.509-29.615-66.106-66.148-66.106-36.532 0-66.147 29.597-66.147 66.106 0 36.509 29.615 66.106 66.147 66.106 36.533 0 66.148-29.597 66.148-66.106z"/><path d="M137.349 411.757c0-36.509-29.615-66.105-66.148-66.105-36.532 0-66.147 29.596-66.147 66.105 0 36.51 29.615 66.106 66.147 66.106 36.533 0 66.148-29.596 66.148-66.106z"/><path d="M141.86 429.315c0-36.509-29.615-66.106-66.147-66.106-36.533 0-66.148 29.597-66.148 66.106 0 36.509 29.615 66.106 66.148 66.106 36.532 0 66.147-29.597 66.147-66.106z"/><path d="M148.025 446.146c0-36.51-29.615-66.106-66.147-66.106-36.533 0-66.148 29.596-66.148 66.106 0 36.509 29.615 66.105 66.148 66.105 36.532 0 66.147-29.596 66.147-66.105z"/><path d="M155.751 462.17c0-36.51-29.615-66.106-66.147-66.106-36.533 0-66.148 29.596-66.148 66.106 0 36.509 29.615 66.105 66.148 66.105 36.532 0 66.147-29.596 66.147-66.105zM477.679 464.073c0-36.509-29.615-66.105-66.148-66.105-36.532 0-66.147 29.596-66.147 66.105 0 36.51 29.615 66.106 66.147 66.106 36.533 0 66.148-29.596 66.148-66.106z"/><path d="M489.308 438.98c0-36.51-29.616-66.106-66.148-66.106s-66.148 29.596-66.148 66.106c0 36.509 29.616 66.105 66.148 66.105s66.148-29.596 66.148-66.105z"/><path d="M497.086 412.008c0-36.509-29.615-66.105-66.147-66.105-36.533 0-66.148 29.596-66.148 66.105 0 36.51 29.615 66.106 66.148 66.106 36.532 0 66.147-29.596 66.147-66.106z"/><path d="M500.658 383.517c0-36.509-29.615-66.106-66.147-66.106-36.533 0-66.148 29.597-66.148 66.106 0 36.509 29.615 66.106 66.148 66.106 36.532 0 66.147-29.597 66.147-66.106z"/><path d="M499.931 354.43c0-36.509-29.616-66.105-66.148-66.105s-66.148 29.596-66.148 66.105c0 36.51 29.616 66.106 66.148 66.106s66.148-29.596 66.148-66.106z"/><path d="M494.877 326.428c0-36.509-29.615-66.106-66.148-66.106-36.532 0-66.147 29.597-66.147 66.106 0 36.509 29.615 66.106 66.147 66.106 36.533 0 66.148-29.597 66.148-66.106z"/><path d="M485.735 300.078c0-36.509-29.615-66.106-66.147-66.106-36.533 0-66.148 29.597-66.148 66.106 0 36.509 29.615 66.106 66.148 66.106 36.532 0 66.147-29.597 66.147-66.106z"/><path d="M472.863 275.725c0-36.509-29.615-66.106-66.147-66.106-36.533 0-66.148 29.597-66.148 66.106 0 36.509 29.615 66.106 66.148 66.106 36.532 0 66.147-29.597 66.147-66.106z"/><path d="M456.591 253.698c0-36.509-29.615-66.105-66.148-66.105-36.532 0-66.147 29.596-66.147 66.105 0 36.51 29.615 66.106 66.147 66.106 36.533 0 66.148-29.596 66.148-66.106z"/><path d="M437.289 234.369c0-36.509-29.615-66.106-66.148-66.106-36.532 0-66.147 29.597-66.147 66.106 0 36.509 29.615 66.106 66.147 66.106 36.533 0 66.148-29.597 66.148-66.106z"/><path d="M415.288 218.054c0-36.509-29.615-66.106-66.147-66.106-36.533 0-66.148 29.597-66.148 66.106 0 36.509 29.615 66.106 66.148 66.106 36.532 0 66.147-29.597 66.147-66.106z"/><path d="M390.946 205.124c0-36.509-29.615-66.106-66.148-66.106-36.532 0-66.147 29.597-66.147 66.106 0 36.509 29.615 66.106 66.147 66.106 36.533 0 66.148-29.597 66.148-66.106z"/><path d="M364.606 195.896c0-36.51-29.615-66.106-66.148-66.106-36.532 0-66.147 29.596-66.147 66.106 0 36.509 29.615 66.105 66.147 66.105 36.533 0 66.148-29.596 66.148-66.105z"/><path d="M336.612 190.739c0-36.509-29.615-66.106-66.147-66.106-36.533 0-66.148 29.597-66.148 66.106 0 36.509 29.615 66.106 66.148 66.106 36.532 0 66.147-29.597 66.147-66.106z"/><path d="M307.468 189.986c0-36.51-29.616-66.106-66.148-66.106s-66.148 29.596-66.148 66.106c0 36.509 29.616 66.105 66.148 66.105s66.148-29.596 66.148-66.105z"/><path d="M279.103 193.754c0-36.51-29.615-66.106-66.147-66.106-36.533 0-66.148 29.596-66.148 66.106 0 36.509 29.615 66.105 66.148 66.105 36.532 0 66.147-29.596 66.147-66.105z"/><path d="M252.247 201.739c0-36.509-29.615-66.106-66.147-66.106-36.533 0-66.148 29.597-66.148 66.106 0 36.509 29.615 66.106 66.148 66.106 36.532 0 66.147-29.597 66.147-66.106z"/><path d="M227.257 213.559c0-36.509-29.615-66.106-66.148-66.106-36.532 0-66.147 29.597-66.147 66.106 0 36.509 29.615 66.106 66.147 66.106 36.533 0 66.148-29.597 66.148-66.106z"/><path d="M204.489 228.882c0-36.509-29.615-66.106-66.148-66.106-36.532 0-66.147 29.597-66.147 66.106 0 36.509 29.615 66.106 66.147 66.106 36.533 0 66.148-29.597 66.148-66.106z"/><path d="M184.274 247.352c0-36.509-29.615-66.106-66.148-66.106-36.532 0-66.147 29.597-66.147 66.106 0 36.509 29.615 66.106 66.147 66.106 36.533 0 66.148-29.597 66.148-66.106z"/><path d="M166.957 268.599c0-36.51-29.616-66.106-66.148-66.106s-66.148 29.596-66.148 66.106c0 36.509 29.616 66.105 66.148 66.105s66.148-29.596 66.148-66.105z"/><path d="M152.894 292.264c0-36.509-29.616-66.105-66.148-66.105s-66.148 29.596-66.148 66.105c0 36.51 29.616 66.106 66.148 66.106s66.148-29.596 66.148-66.106z"/><path d="M142.416 318.019c0-36.509-29.615-66.105-66.148-66.105-36.532 0-66.147 29.596-66.147 66.105 0 36.51 29.615 66.106 66.147 66.106 36.533 0 66.148-29.596 66.148-66.106z"/><path d="M135.881 345.466c0-36.509-29.616-66.105-66.148-66.105-36.533 0-66.148 29.596-66.148 66.105 0 36.51 29.615 66.106 66.148 66.106 36.532 0 66.148-29.596 66.148-66.106z"/><path d="M133.618 374.289c0-36.51-29.615-66.106-66.147-66.106-36.533 0-66.148 29.596-66.148 66.106 0 36.509 29.615 66.105 66.148 66.105 36.532 0 66.147-29.596 66.147-66.105zM778.677 449.729c0-36.51-29.615-66.106-66.147-66.106-36.533 0-66.148 29.596-66.148 66.106 0 36.509 29.615 66.105 66.148 66.105 36.532 0 66.147-29.596 66.147-66.105z"/><path d="M778.677 428.072c0-36.509-29.615-66.106-66.147-66.106-36.533 0-66.148 29.597-66.148 66.106 0 36.509 29.615 66.106 66.148 66.106 36.532 0 66.147-29.597 66.147-66.106z"/><path d="M778.677 406.403c0-36.509-29.615-66.106-66.147-66.106-36.533 0-66.148 29.597-66.148 66.106 0 36.509 29.615 66.106 66.148 66.106 36.532 0 66.147-29.597 66.147-66.106z"/><path d="M778.677 384.733c0-36.509-29.615-66.105-66.147-66.105-36.533 0-66.148 29.596-66.148 66.105 0 36.51 29.615 66.106 66.148 66.106 36.532 0 66.147-29.596 66.147-66.106z"/><path d="M778.677 363.077c0-36.509-29.615-66.106-66.147-66.106-36.533 0-66.148 29.597-66.148 66.106 0 36.509 29.615 66.106 66.148 66.106 36.532 0 66.147-29.597 66.147-66.106z"/><path d="M778.677 341.408c0-36.51-29.615-66.106-66.147-66.106-36.533 0-66.148 29.596-66.148 66.106 0 36.509 29.615 66.105 66.148 66.105 36.532 0 66.147-29.596 66.147-66.105z"/><path d="M778.677 319.738c0-36.509-29.615-66.106-66.147-66.106-36.533 0-66.148 29.597-66.148 66.106 0 36.509 29.615 66.106 66.148 66.106 36.532 0 66.147-29.597 66.147-66.106z"/><path d="M778.677 298.069c0-36.51-29.615-66.106-66.147-66.106-36.533 0-66.148 29.596-66.148 66.106 0 36.509 29.615 66.105 66.148 66.105 36.532 0 66.147-29.596 66.147-66.105z"/><path d="M778.677 276.412c0-36.509-29.615-66.105-66.147-66.105-36.533 0-66.148 29.596-66.148 66.105 0 36.51 29.615 66.106 66.148 66.106 36.532 0 66.147-29.596 66.147-66.106z"/><path d="M778.677 254.743c0-36.509-29.615-66.106-66.147-66.106-36.533 0-66.148 29.597-66.148 66.106 0 36.509 29.615 66.106 66.148 66.106 36.532 0 66.147-29.597 66.147-66.106z"/><path d="M778.677 233.073c0-36.509-29.615-66.105-66.147-66.105-36.533 0-66.148 29.596-66.148 66.105 0 36.51 29.615 66.106 66.148 66.106 36.532 0 66.147-29.596 66.147-66.106z"/><path d="M778.677 211.417c0-36.509-29.615-66.106-66.147-66.106-36.533 0-66.148 29.597-66.148 66.106 0 36.509 29.615 66.106 66.148 66.106 36.532 0 66.147-29.597 66.147-66.106z"/><path d="M778.677 189.748c0-36.509-29.615-66.106-66.147-66.106-36.533 0-66.148 29.597-66.148 66.106 0 36.509 29.615 66.106 66.148 66.106 36.532 0 66.147-29.597 66.147-66.106z"/><path d="M778.677 168.078c0-36.509-29.615-66.106-66.147-66.106-36.533 0-66.148 29.597-66.148 66.106 0 36.509 29.615 66.106 66.148 66.106 36.532 0 66.147-29.597 66.147-66.106z"/><path d="M778.677 146.422c0-36.509-29.615-66.106-66.147-66.106-36.533 0-66.148 29.597-66.148 66.106 0 36.509 29.615 66.106 66.148 66.106 36.532 0 66.147-29.597 66.147-66.106z"/><path d="M778.677 124.753c0-36.51-29.615-66.106-66.147-66.106-36.533 0-66.148 29.596-66.148 66.106 0 36.509 29.615 66.105 66.148 66.105 36.532 0 66.147-29.596 66.147-66.105z"/><path d="M778.677 103.083c0-36.51-29.615-66.106-66.147-66.106-36.533 0-66.148 29.597-66.148 66.106 0 36.509 29.615 66.106 66.148 66.106 36.532 0 66.147-29.597 66.147-66.106z"/><path d="M778.677 81.413c0-36.509-29.615-66.105-66.147-66.105-36.533 0-66.148 29.596-66.148 66.106 0 36.509 29.615 66.105 66.148 66.105 36.532 0 66.147-29.596 66.147-66.106z"/><path d="M778.677 59.757c0-36.509-29.615-66.106-66.147-66.106-36.533 0-66.148 29.597-66.148 66.106 0 36.51 29.615 66.106 66.148 66.106 36.532 0 66.147-29.597 66.147-66.106z"/><path d="M778.677 38.088c0-36.51-29.615-66.106-66.147-66.106-36.533 0-66.148 29.597-66.148 66.106 0 36.51 29.615 66.106 66.148 66.106 36.532 0 66.147-29.597 66.147-66.106z"/><path d="M778.677 16.418c0-36.509-29.615-66.106-66.147-66.106-36.533 0-66.148 29.597-66.148 66.106 0 36.51 29.615 66.106 66.148 66.106 36.532 0 66.147-29.596 66.147-66.106z"/><path d="M778.677-5.238c0-36.51-29.615-66.106-66.147-66.106-36.533 0-66.148 29.597-66.148 66.106 0 36.51 29.615 66.106 66.148 66.106 36.532 0 66.147-29.597 66.147-66.106z"/><path d="M778.677-26.907c0-36.51-29.615-66.106-66.147-66.106-36.533 0-66.148 29.596-66.148 66.106 0 36.509 29.615 66.105 66.148 66.105 36.532 0 66.147-29.596 66.147-66.105z"/><path d="M778.677-48.577c0-36.51-29.615-66.106-66.147-66.106-36.533 0-66.148 29.597-66.148 66.106 0 36.51 29.615 66.106 66.148 66.106 36.532 0 66.147-29.597 66.147-66.106z"/><path d="M729.066-44.161c0-36.51-29.615-66.106-66.147-66.106-36.533 0-66.148 29.597-66.148 66.106 0 36.51 29.615 66.106 66.148 66.106 36.532 0 66.147-29.597 66.147-66.106z"/><path d="M712.529-21.024c0-36.51-29.615-66.106-66.147-66.106-36.533 0-66.148 29.597-66.148 66.106 0 36.51 29.615 66.106 66.148 66.106 36.532 0 66.147-29.597 66.147-66.106z"/><path d="M695.993 2.113c0-36.51-29.616-66.106-66.148-66.106s-66.148 29.597-66.148 66.106c0 36.51 29.616 66.106 66.148 66.106s66.148-29.597 66.148-66.106z"/><path d="M679.456 25.25c0-36.51-29.616-66.106-66.148-66.106-36.533 0-66.148 29.597-66.148 66.106 0 36.51 29.615 66.106 66.148 66.106 36.532 0 66.148-29.597 66.148-66.106z"/><path d="M662.919 48.387c0-36.51-29.616-66.106-66.148-66.106s-66.148 29.597-66.148 66.106c0 36.51 29.616 66.106 66.148 66.106s66.148-29.597 66.148-66.106z"/><path d="M646.382 71.524c0-36.51-29.616-66.106-66.148-66.106s-66.148 29.597-66.148 66.106c0 36.509 29.616 66.106 66.148 66.106s66.148-29.597 66.148-66.106zM646.382 465.515c0-36.51-29.616-66.106-66.148-66.106s-66.148 29.596-66.148 66.106c0 36.509 29.616 66.105 66.148 66.105s66.148-29.596 66.148-66.105z"/></g><defs><clipPath id="clip0_1462_2043"><path fill="#fff" transform="translate(0 -181)" d="M0 0h780v806.491H0z"/></clipPath></defs></svg>
