<svg viewBox="0 0 464 363" fill="none" xmlns="http://www.w3.org/2000/svg">
  <path d="M78.913 192.621c-.04-5.218-11.878-13.339-11.788-11.996.091 1.343-.955 91.866 11.876 132.297 0 0 2.504 5.168-1.301 11.789" stroke="#1E1E1E" stroke-width="2" stroke-linecap="round" stroke-linejoin="round"/>
  <path d="m66.025 169.397-2.246 4.468 2.651 1.332 2.44-1.688-2.846-4.112Zm0 0c2.845 4.112 2.846 4.111 2.848 4.11l.003-.003.01-.007.035-.024.121-.085c.103-.073.252-.177.442-.313.38-.273.927-.67 1.617-1.183a166.555 166.555 0 0 0 5.664-4.421c4.653-3.79 10.85-9.22 16.993-15.763 6.126-6.526 12.309-14.278 16.824-22.723 4.508-8.431 7.509-17.846 6.829-27.564-2.078-29.724-29.002-51.417-59.586-49.278C27.241 54.282 3.6 79.51 5.677 109.235c.68 9.718 4.962 18.622 10.6 26.344 5.646 7.735 12.848 14.551 19.822 20.161 6.993 5.625 13.887 10.139 19.021 13.244a165.576 165.576 0 0 0 6.225 3.59 103.129 103.129 0 0 0 2.247 1.195l.131.067.038.019.011.006.004.002c.002.001.003.002 2.248-4.466Z" fill="#fff" stroke="#fff" stroke-width="10"/>
  <path d="m65.879 177.285-5.663 13.965s3.649 2.391 9.688 1.26l-2.642-15.065-1.383-.16Z" fill="#fff"/>
  <rect x="62.953" y="178.598" width="6.106" height="1.97" rx=".985" transform="rotate(3.18 62.953 178.598)" fill="#1E1E1E"/>
  <path d="M186.961 242.688s-.127-1.806-1.751-4.234c0 0-3.577-6.178 2.952-7.191 0 0 5.908-.507 7.694-2.372.492 16.768.952 56.344-1.149 80.507-.986 15.32-2.136 49.902 1.149 65.66" stroke="#1E1E1E" stroke-width="2" stroke-linecap="round" stroke-linejoin="round"/>
  <path d="m194.464 217.687 3.154 3.881-2.341 1.902-2.774-1.184 1.961-4.599Zm0 0a816.555 816.555 0 0 1-1.964 4.598l-.004-.002-.012-.005-.039-.016-.136-.059a112.689 112.689 0 0 1-2.328-1.058 164.825 164.825 0 0 1-6.469-3.213c-5.347-2.796-12.55-6.899-19.93-12.121-14.417-10.199-30.946-25.657-33.662-44.98-4.198-29.869 17.489-57.102 47.927-61.38 30.439-4.277 58.792 15.922 62.99 45.792 2.715 19.323-8.913 38.738-19.96 52.515-5.655 7.054-11.447 12.984-15.817 17.146a165.602 165.602 0 0 1-5.333 4.871 111.123 111.123 0 0 1-1.997 1.701l-.063.052-.033.027-.01.008-.004.003c-.001.001-.002.002-3.156-3.879Z" fill="#fff" stroke="#fff" stroke-width="10"/>
  <path d="m194.905 224.66-3.449 14.669s3.972 1.802 9.766-.244l-4.926-14.48-1.391.055Z" fill="#fff"/>
  <rect width="5.103" height="1.97" rx=".985" transform="scale(-1 1) rotate(2.085 -6324.149 -5336.641)" fill="#1E1E1E"/>
  <path d="M272.674 146.172c-.395-5.204 10.723-14.284 10.745-12.938.022 1.345 8.621 91.465-.79 132.827 0 0-2.064 5.358 2.28 11.638" stroke="#1E1E1E" stroke-width="2" stroke-linecap="round" stroke-linejoin="round"/>
  <path d="m284.568 122.79 2.611 4.265-2.531 1.549-2.572-1.479 2.492-4.335Zm0 0c-2.492 4.335-2.493 4.334-2.495 4.333l-.004-.002-.011-.006-.036-.021-.128-.075a106.955 106.955 0 0 1-2.176-1.319 165.633 165.633 0 0 1-6.014-3.933c-4.952-3.388-11.582-8.281-18.249-14.289-6.649-5.992-13.458-13.2-18.662-21.24-5.197-8.025-8.973-17.156-9.107-26.897-.41-29.793 24.609-53.658 55.265-54.08 30.656-.422 56.321 22.745 56.731 52.539.135 9.74-3.389 18.972-8.362 27.138-4.982 8.179-11.589 15.572-18.071 21.745-6.499 6.189-12.991 11.263-17.849 14.786a167.49 167.49 0 0 1-5.903 4.096c-.718.474-1.287.84-1.681 1.091l-.458.288a9.846 9.846 0 0 0-.126.078l-.036.022-.011.007-.003.002c-.002.001-.003.002-2.614-4.263Z" fill="#fff" stroke="#fff" stroke-width="10"/>
  <path d="m284.383 130.802 6.808 13.443s-3.436 2.688-9.549 2.064l1.376-15.233 1.365-.274Z" fill="#fff"/>
  <rect width="6.106" height="1.97" rx=".985" transform="scale(-1 1) rotate(7.968 -1090.36 -1997.313)" fill="#1E1E1E"/>
  <path d="M415.822 213.413c-.66 0-16.451 4.903-15.663-1.87 0 0 .126-1.807 1.751-4.235 0 0 3.577-6.177-2.952-7.19 0 0-5.909-.508-7.694-2.372-.493 16.767-.952 56.343 1.149 80.506.985 15.321 2.135 49.902-1.149 65.66" stroke="#1E1E1E" stroke-width="2" stroke-linecap="round" stroke-linejoin="round"/>
  <path d="m393.572 188.375-3.154 3.88 2.341 1.903 2.775-1.184-1.962-4.599Zm0 0c1.962 4.599 1.963 4.599 1.965 4.598l.004-.002.012-.005.039-.017.136-.059a113.778 113.778 0 0 0 2.328-1.058 164.53 164.53 0 0 0 6.469-3.212c5.347-2.796 12.549-6.9 19.93-12.121 14.416-10.2 30.946-25.657 33.661-44.98 4.198-29.87-17.489-57.102-47.927-61.38-30.439-4.278-58.791 15.922-62.989 45.792-2.716 19.323 8.912 38.737 19.959 52.515 5.656 7.054 11.448 12.984 15.817 17.146a166.688 166.688 0 0 0 5.333 4.871 117.548 117.548 0 0 0 1.997 1.7l.064.053.032.026.011.008.003.003c.001.001.002.002 3.156-3.878Z" fill="#fff" stroke="#fff" stroke-width="10"/>
  <path d="m393.123 195.432 3.45 14.669s-3.973 1.802-9.767-.244l4.927-14.48 1.39.055Z" fill="#fff"/>
  <rect x="388.766" y="197.329" width="6.234" height="1.97" rx=".985" transform="rotate(2.085 388.766 197.329)" fill="#1E1E1E"/>
</svg>
