<svg width="377" height="390" fill="none" xmlns="http://www.w3.org/2000/svg">
  <g clip-path="url(#a)">
    <path d="m146.085 114.732 45.041 285.26M139.593 266.898l36.925 134.311M119.304 176.41l64.113 221.147M98.204 293.273l73.851 104.69M220.748 128.123 195.59 397.557M209.386 312.344l-5.275 85.619m15.825-258.479-10.55 258.479M290.541 232.407l-68.982 164.745" stroke="#000" stroke-width="2" stroke-linecap="round"/>
    <path fill-rule="evenodd" clip-rule="evenodd" d="M27.823 138.143c-11.294-25.563 1.612-55.05 27.485-66.482 25.873-11.43 56.368-1.126 67.675 24.428 3.778 8.545 4.066 17.83 2.808 26.402a98.184 98.184 0 0 1-7.252 24.272 154.846 154.846 0 0 1-9.392 18.177c-1.376 2.284-2.534 4.1-3.403 5.338a71.903 71.903 0 0 1-1 1.488l-.284.416-.073.051-.034.023-.053.037-1.46 2.007 5.124 6.815c-4.191 3.227-7.925 2.822-7.925 2.822l-.687-7.998-2.647-.322-.149-.015-.495-.071a90.78 90.78 0 0 1-1.772-.258 152.71 152.71 0 0 1-6.248-1.117 155.216 155.216 0 0 1-19.758-5.302 97.912 97.912 0 0 1-22.836-10.855c-7.178-4.85-13.812-11.305-17.624-19.856Z" fill="#fff"/>
    <path fill-rule="evenodd" clip-rule="evenodd" d="M23.353 252.649c-11.294-25.563 1.612-55.051 27.485-66.482 25.873-11.43 56.368-1.125 67.675 24.429 3.778 8.544 4.066 17.83 2.808 26.401a98.184 98.184 0 0 1-7.252 24.272 154.846 154.846 0 0 1-9.392 18.177c-1.376 2.284-2.534 4.1-3.403 5.338a75.413 75.413 0 0 1-1 1.489l-.284.415-.073.051-.034.023-.053.037-1.46 2.007 5.124 6.815c-4.19 3.227-7.925 2.822-7.925 2.822l-.687-7.998-2.647-.322-.149-.015-.494-.071a90.668 90.668 0 0 1-1.773-.258c-1.509-.235-3.653-.6-6.248-1.116a155.386 155.386 0 0 1-19.758-5.303 97.91 97.91 0 0 1-22.836-10.855c-7.178-4.85-13.812-11.305-17.624-19.856Z" fill="#fff"/>
    <path fill-rule="evenodd" clip-rule="evenodd" d="M186.711 196.688c-1.957-27.878-27.144-47.921-55.36-45.94-28.217 1.98-50.365 25.338-48.424 53.214.652 9.32 4.735 17.664 9.852 24.656a98.177 98.177 0 0 0 17.751 18.072 154.655 154.655 0 0 0 16.796 11.683c2.283 1.377 4.156 2.442 5.502 3.131.674.369 1.203.655 1.58.848l.445.235.089.011.04.005.064.008 2.229 1.092-1.347 8.42c5.213.895 8.325-1.208 8.325-1.208l-3.129-7.392 2.191-1.522.124-.082.404-.294c.341-.244.835-.6 1.447-1.057a152.656 152.656 0 0 0 5.002-3.906 155.292 155.292 0 0 0 14.993-13.919 97.931 97.931 0 0 0 15.119-20.265c4.081-7.642 6.931-16.449 6.307-25.79ZM231.87 21.947c-28.417.309-51.77 22.753-51.46 50.954.203 18.515 13.736 34.495 24.998 44.874a155.567 155.567 0 0 0 16.065 12.862 137.743 137.743 0 0 0 5.311 3.552c.643.412 1.165.735 1.53.953.176.118.32.202.425.261l.068.043.056.029 2.477 1.463-1.386 7.717c5.216.994 8.348-1.053 8.348-1.053l-2.853-7.11 1.796-1.112.063-.014.071-.016.064-.015.421-.27 1.508-.989c1.279-.854 3.08-2.093 5.227-3.676a157.426 157.426 0 0 0 15.776-13.221c11.031-10.618 24.211-26.897 24.008-45.413-.262-28.21-24.096-50.127-52.513-49.819Zm1.17 106.562.079-.018-.087.02.008-.002Z" fill="#fff"/>
    <path fill-rule="evenodd" clip-rule="evenodd" d="M128.239 3.048c28.026-4.708 54.972 13.265 59.642 41.078 3.066 18.26-7.436 36.377-16.691 48.58a155.555 155.555 0 0 1-13.545 15.494 137.363 137.363 0 0 1-4.601 4.433c-.559.519-1.016.929-1.337 1.207-.153.148-.28.256-.373.333l-.059.054-.051.039-2.179 1.876 2.725 7.352c-4.959 1.898-8.403.436-8.403.436l1.554-7.501-1.963-.779-.065-.002-.073-.004-.065-.003-.463-.191-1.658-.708a137.861 137.861 0 0 1-5.793-2.696 157.264 157.264 0 0 1-17.861-10.231c-12.731-8.506-28.576-22.205-31.642-40.466-4.719-27.815 14.875-53.592 42.901-58.3Zm17.646 105.097-.081-.003.089.004-.008-.001ZM231.523 195.316c-27.879-5.511-55.33 11.682-60.795 39.349-3.588 18.166 6.39 36.577 15.291 49.039a155.665 155.665 0 0 0 13.094 15.877 137.919 137.919 0 0 0 4.473 4.563c.544.535.989.958 1.302 1.245.149.152.272.264.363.343l.057.056.05.04 2.125 1.938-2.935 7.271c4.902 2.04 8.387.677 8.387.677l-1.339-7.543 1.985-.722.065-.001.073-.001.065-.001.468-.178 1.678-.66a138.844 138.844 0 0 0 5.868-2.529 157.137 157.137 0 0 0 18.147-9.714c12.97-8.138 29.202-21.376 32.79-39.542 5.514-27.668-13.332-53.997-41.212-59.507Zm-20.652 104.547.081-.001-.089.001h.008ZM267.86 149.945c10.388-25.945 40.498-37.324 66.757-26.81 26.259 10.515 40.202 39.527 29.829 65.474-3.47 8.674-9.91 15.37-16.919 20.461a98.187 98.187 0 0 1-22.428 11.778 154.947 154.947 0 0 1-19.564 5.988c-2.595.612-4.703 1.053-6.196 1.297-.754.146-1.346.256-1.764.325l-.495.087-.088-.016-.04-.008-.064-.012-2.455.358-1.293 8.428c-5.237-.742-7.557-3.695-7.557-3.695l5.24-6.082-1.62-2.118-.094-.117-.295-.403c-.249-.337-.61-.827-1.054-1.448a154.775 154.775 0 0 1-3.568-5.249 155.185 155.185 0 0 1-10.017-17.837 97.898 97.898 0 0 1-8.198-23.918c-1.548-8.524-1.569-17.781 1.883-26.483Z" fill="#fff"/>
    <path fill-rule="evenodd" clip-rule="evenodd" d="M206.717 99.424c28.399-1.048 52.797 20.257 53.832 48.44.68 18.504-12.075 35.112-22.829 46.015a155.621 155.621 0 0 1-15.434 13.615 139.119 139.119 0 0 1-5.135 3.801 54.56 54.56 0 0 1-1.483 1.024c-.17.127-.31.217-.412.282l-.066.046-.055.032-2.404 1.579 1.753 7.642c-5.163 1.242-8.39-.653-8.39-.653l2.511-7.238-1.846-1.026-.064-.011-.072-.013-.064-.011-.434-.249-1.553-.917a136.962 136.962 0 0 1-5.396-3.422 157.361 157.361 0 0 1-16.389-12.453c-11.525-10.081-25.467-25.712-26.147-44.217-1.084-28.191 21.677-51.219 50.077-52.266Zm3.914 106.495-.08-.014.088.016-.008-.002Z" fill="#fff"/>
  </g>
  <defs>
    <clipPath id="a">
      <path fill="#fff" d="M0 0h377v390H0z"/>
    </clipPath>
  </defs>
</svg>
