<svg width="1196" height="533" fill="none" xmlns="http://www.w3.org/2000/svg">
  <path d="M566.939 402.937c-1.07.9-1.199 2.27-1.541 3.47-.429 1.371-1.157 2.227-2.484 2.699-2.441.942-4.282 2.484-5.224 5.012-.343.942-1.028 1.542-2.056 1.627-2.269.257-3.725 1.757-4.881 3.47-5.696 8.354-13.361 13.665-23.21 16.364-7.108 1.928-14.045 1.671-21.111.514-1.156-.171-2.269-.214-3.34.3-1.028.471-2.269.728-3.083 0-2.655-2.313-6.166-2.956-8.993-4.883-2.141-1.5-4.11-3.128-5.695-5.098-2.783-3.513-5.866-6.811-7.922-10.838-.556-1.114-.942-2.227-1.113-3.427a2018.309 2018.309 0 01-2.355-16.064c-.086-.557-.214-1.242 0-1.671 2.826-4.712 2.697-10.323 4.71-15.293 2.826-6.982 6.38-13.45 11.476-19.148 2.912-3.213 6.252-5.911 9.635-8.353 2.355-1.714 4.839-3.641 7.836-4.498 2.313-.643 4.197-2.399 6.681-2.785.899-.128 1.541-.171 2.398.258 4.71 2.398 8.35 6.339 12.932 9.038 5.738 3.342 11.776 5.997 17.514 9.339.856.514 1.713.985 2.569 1.542.471.3.942.771 1.542.428.642-.342.728-1.028.77-1.67 0-.771-.471-1.585 0-2.314.557-.856.771-2.313 1.97-2.356 1.713-.042 3.383.729 4.539 1.928 2.869 3.127 2.741 7.325 3.811 11.138-1.67 1.97-.128 3.641.086 5.569.3 2.227 1.028 3.469 2.612 4.883 1.413 1.285 1.071 3.427 1.199 5.269.086 1.242-.428 2.613.857 3.598-.129 3.941-.129 7.968-.129 11.952zM540.39 6.263c2.141 1.628 3.34 3.941 4.71 6.169 1.456 2.399 3.64 4.37 5.567 6.468a88.13 88.13 0 018.521 10.624c1.628 2.356 2.056 4.969 2.099 7.71.043 2.014.342 3.984.556 5.955.643 6.083.129 11.952-3.34 17.22-.77 1.157-1.327 2.314-1.584 3.685-.471 2.313-1.756 4.155-3.297 5.911-4.668 5.27-10.278 9.424-15.673 13.837-.942.77-2.098.856-3.169 1.285-2.955 1.2-5.652 2.913-8.907 3.427-2.184.343-4.367.428-6.551.814-1.157.214-2.184.214-2.655 1.628-.386 1.07-1.114 1.113-1.456-.086-.3-.985-.9-1.371-1.842-1.414-4.11-.214-7.75-1.842-11.262-3.77-3.168-1.756-6.38-3.555-9.292-5.654-3.554-2.57-6.209-6.04-8.264-9.895-1.285-2.4-2.484-4.798-4.454-6.94-1.37-1.457-2.312-3.813-3.254-5.826-1.157-2.485-.214-4.027 2.483-4.712.942-.214 2.013-.3 1.97-1.542-.086-1.414 1.156-2.999-.814-4.241-1.498-.9-2.569-2.356-1.884-4.327.685-1.97 2.698-3.298 4.839-3.212.642.042.899-.258 1.114-.772.385-.9.984-1.799 1.156-2.741.599-3.47 3.254-5.526 5.395-7.925 2.313-2.613 4.454-5.398 7.023-7.754 4.539-4.198 9.292-8.182 14.816-11.095 3.426-1.799 6.894-2.998 10.834-1.97 1.156.3 2.441.171 3.426-.771 4.325-.086 8.778-.086 13.189-.086zM566.939 506.175c-1.413 1.928-2.655 3.941-2.955 6.34-.171 1.328.257 2.528 1.456 3.384 1.328.943 1.285 2.014.043 2.956-1.97 1.499-3.982 2.999-6.038 4.412-1.456.986-4.753-.599-5.395-2.87-.685-2.399-2.141-2.784-4.154-2.57-2.484.257-4.967.471-7.408.942-2.783.557-4.71 4.884-3.34 7.368.813 1.5.728 3.17 1.37 4.713.428 1.028-.385 1.456-1.242 1.456-3.297 0-6.551 0-9.849-.086-1.07-.042-1.927-.557-2.184-1.713-.299-1.328-1.284-1.628-2.44-1.542-7.88.642-15.373-1.757-22.996-3.17-1.67-.3-3.168-1.585-4.796-2.313-2.783-1.243-5.309-3.042-8.35-3.77-1.242-.3-1.798-1.371-1.755-2.656.042-1.328-.514-2.313-1.456-3.17-11.006-10.238-10.663-26.045-5.267-36.926 2.141-4.326 4.539-8.567 7.665-12.123 2.312-2.656 4.367-5.869 7.964-7.411 1.328-.557 2.613-1.713 3.469-3.084 1.242-1.928 3.94-2.999 6.123-2.228 1.628.6 2.356.343 2.57-1.499.171-1.799.985-1.97 2.612-1.071a267.305 267.305 0 017.836 4.37c3.041 1.756 6.423 2.741 9.25 5.054 3.126 2.528 7.279 3.727 10.876 5.784 7.109 4.069 13.318 9.038 16.187 17.134.771 2.185 2.227 4.156 1.028 6.64-.343.728 1.884 3.984 2.655 4.198.728.214.77-.428 1.027-.814.428-.642.942-.856 1.627-.556.728.342.686 1.028.429 1.67-.043.129-.129.257-.172.386-.299 1.028-.77 2.142.386 2.87.728.471 2.612-1.328 2.612-2.57-.043-2.185.642-4.37.171-6.597-.043-.257-.043-.557-.043-.857.086-.814-.299-1.928.557-2.356 1.071-.557 1.242.899 1.97 1.199-.043 7.068-.043 14.094-.043 21.076zM484.251 128.435c1.97-2.399 3.297-4.969 5.353-6.939.642-.643.299-1.286.085-1.971-.3-.942.086-1.499 1.071-1.071.899.386 1.456.043 2.098-.514 4.625-4.241 9.763-7.753 15.202-10.881 1.199-.685 2.398-1.713 3.425-2.741 4.454-4.498 12.89-3.556 16.529-.129 2.441 2.314 5.011 4.455 7.88 6.212 3.04 1.842 6.037 3.769 8.821 6.04 1.584 1.285 2.612 2.784 3.34 4.626.942 2.399 2.141 4.669 3.811 6.64 1.97 2.313 2.698 5.312 4.068 7.968a226.787 226.787 0 012.227 4.626c1.67 3.47 1.284 7.068.728 10.667-.086.428-.257.814-.386 1.242-.599 1.885-.642 2.999 1.927 3.641 4.325 1.071 6.552 6.426 4.754 10.538-1.371 3.17-2.655 6.511-5.439 8.867-.342.258-.599.772-.942.814-4.625.943-5.695 5.398-8.307 8.354-.728.814-1.413 1.67-2.484 1.927-2.055.472-3.083 1.928-3.597 3.813-.471 1.799-1.884 2.784-3.169 3.941-.257.214-.685.514-.942.428-2.355-.771-4.196.771-6.295 1.328-1.541.429-2.098-.257-2.226-1.67-.129-1.286-.6-2.442-2.056-2.656-1.498-.257-2.269.728-2.954 1.97-.514.943-.471 2.656-1.799 2.656-1.413-.043-1.07-1.756-1.541-2.699-.257-.557-.429-1.499-1.199-1.242-1.285.471-2.912.343-3.555 1.971-.77 2.013-1.884 3.812-3.597 5.226-1.541 1.285-3.126 2.784-5.31 2.056-2.44-.814-4.196-2.442-4.667-5.098-.043-.342-.171-.685-.214-1.028-.171-1.071-.386-2.227-1.585-2.57-1.07-.3-1.327.9-1.884 1.499-1.113 1.285-2.355 1.799-3.982 1.028-1.242-.599-2.484-.385-3.768-.085-1.97.385-3.469-.172-5.011-1.542-3.168-2.828-6.166-5.955-10.02-8.011-1.327-.685-1.927-1.799-2.098-3.256-.3-2.613-1.071-5.14-.685-7.839.128-.985.171-2.57-1.842-1.671-.899.386-1.455-.385-1.841-1.113-1.028-1.885-2.012-3.899-1.97-6.04.043-5.355-.513-10.71.6-16.022.128-.556.214-1.156.086-1.713-1.071-4.07.556-7.497 2.398-10.924.899-1.627 1.798-3.255 2.398-5.012.599-1.842 1.67-3.255 2.954-4.626 2.527-2.956 4.154-2.742 5.61.985zM560.046 271.212c1.07 8.868-3.555 15.679-10.235 21.505-2.826 2.484-4.881 5.74-8.179 7.796-3.939 2.442-7.922 4.584-12.503 5.783-8.051 2.099-15.93.557-23.852-.343a65.744 65.744 0 01-11.905-2.356c-6.808-1.97-11.904-5.654-15.801-11.823-4.368-6.897-6.294-14.05-6.08-22.018.214-6.469 2.312-12.423 4.838-18.292 3.084-7.068 7.537-13.279 12.89-18.677 2.912-2.956 6.209-5.612 9.977-7.625 4.154-2.227 8.222-4.541 12.247-6.897 1.028-.599 1.756-.514 2.912-.171 5.738 1.671 10.149 6.04 15.501 7.882 6.467 2.228 11.177 6.426 15.844 10.838 3.255 3.041 5.268 7.068 7.623 10.795 2.74 4.412 4.325 9.253 5.909 14.136.985 2.87.942 5.869.814 9.467zM67.173 6.263c1.799 1.457 2.955 3.77 5.995 3.17 1.37-.3 3.64 3.127 3.811 5.183.086.857 0 1.757.257 2.528.386 1.242.942 2.27 2.612 1.285 1.927-1.114 2.655 1.157 4.026 1.67.942.343.685 1.2.342 2.014-.342.9-.3 1.756.942 1.842 2.313.171 3.512 1.885 3.983 3.641.942 3.513 3.211 6.297 4.753 9.467 1.499 3.084 2.398 6.04 2.098 9.596-.514 5.868-2.098 11.309-4.624 16.578-1.028 2.142-1.071 4.712-2.57 6.725-.214.257-.171.728.171.986.514.385.9 0 1.328-.3.557-.386 1.113-1.328 1.756-.557.6.685-.343 1.242-.728 1.799-3.298 4.926-7.665 8.739-12.461 12.209-1.542 1.113-2.998 2.441-4.368 3.77-2.612 2.57-5.91 3.555-9.292 3.855-9.978.942-19.784.042-29.162-3.856-6.123-2.57-10.92-6.597-13.874-12.68-2.098-4.283-4.154-8.567-5.353-13.236-1.884-7.24-1.07-14.137 1.756-20.905.642-1.542 1.199-2.999.556-4.712-.342-.9-.214-1.842 1.2-1.414.77.214 1.027-.214 1.327-.728 1.242-2.185 3.04-4.24 3.511-6.554.514-2.527.942-4.07 3.726-5.012 1.541-.514 2.227-2.956 3.511-4.412 2.612-2.913 6.252-4.455 8.993-7.197.128-.129.385-.214.514-.386 1.541-2.141 3.383-3.555 6.252-3.041.813.129 1.67-.343 1.926-1.37h8.137c1.113 1.413 2.312 3.17 4.11 2.955 1.927-.214 2.227.171 2.184 1.885-.043 1.5 1.585 1.37 2.484 1.97.343.214.77.172.77-.3.044-.9.429-1.841-.385-2.655-.47-.429-.899-.943-1.327-1.371-.728-.686-1.07-1.5-.985-2.485.685.043 1.37.043 2.098.043zM85.63 357.144c.042-1.028 0-1.585.128-2.099.257-.943.385-2.142 1.584-2.313 1.113-.172 1.841.728 2.312 1.627.6 1.114 1.242 2.314 1.456 3.513.557 3.341 2.655 6.126 3.212 9.596.428 2.741.77 5.526 1.328 8.224.385 1.885 1.755 3.642 2.654 5.484 1.542 3.17 1.542 6.468.257 9.338-1.242 2.827-.942 5.612-1.37 8.396-.514 3.599-.214 3.641-3.982 4.198-1.028.172-1.542.686-1.413 1.757.513 4.455-1.285 8.224-3.383 11.908-1.5 2.614-3.255 3.17-6.124 2.785-1.756-.214-2.955 1.028-3.597 2.484-.6 1.371-1.499 2.399-2.57 3.385-2.012 1.885-3.468 1.97-5.352.042-.985-.985-1.627-.942-2.698-.214-1.927 1.328-3.083 1.157-4.282-.599-.556-.771-.899-.557-1.284-.086-.9.985-2.013 1.328-3.298.985-.685-.171-1.199.214-1.755.557-1.885 1.071-4.068 1.285-6.167 1.671-.685.128-1.284-.172-1.755-.643-1.242-1.371-2.827-2.57-3.64-4.198-1.028-2.013-.642-4.455-.214-6.597.214-1.199.171-1.885-.9-2.399-.685-.342-1.027-.942-1.413-1.585-.642-1.156-1.627-1.156-2.954-1.371-2.655-.385-4.84.129-7.109 1.371-.985.514-1.841-.514-2.355-1.413-.77-1.414-2.013-2.014-3.511-2.528-4.454-1.585-8.822-3.341-11.82-7.282-.513-.643-1.24-.9-2.012-1.114-4.11-1.028-5.695-4.412-7.15-7.882-.172-.343-.172-.942 0-1.242 1.84-3.256-.087-5.998-1.243-8.825-.214-.514-.642-1.028-.514-1.585 1.157-4.712.557-9.638 1.842-14.35 2.226-8.097 6.038-15.379 11.262-21.89 2.227-2.785 3.897-5.955 6.509-8.482 2.483-2.399 5.695-3.47 8.436-5.312 2.483-1.67 4.582-1.628 7.28-.514 2.74 1.114 5.823 1.328 8.692 2.099 4.197 1.114 7.408 3.598 10.406 6.469 2.184 2.099 4.71 2.784 7.58 2.656 1.626-.086 3.125.257 3.939 1.67 2.055 3.599 5.78 5.441 8.607 8.182 1.67 1.628 3.64 2.956 4.839 5.012.342.171.813.428 1.541 1.114zM17.372 174.657c-.6 1.285-.215 2.484-.3 3.684-.086 1.199-.214 2.356-1.67 2.613-1.328.214-2.098-.643-2.655-1.757-.214-.428-.343-.942-.428-1.413-.257-1.542-.943-1.971-2.57-1.371-2.14.814-4.881-.428-6.038-2.399-.256-.6-.642-1.114-1.07-1.585-2.998-3.513-2.826-6.04.128-9.467 1.242-1.456 1.842-3.47 1.842-5.483-.043-2.57.3-4.884 2.27-6.854 1.626-1.628 1.241-4.027 1.54-6.126.558-3.77 1.414-4.712 5.182-5.183 1.499-.172 1.927-1.371 2.098-2.57.172-1.243.343-2.528.257-3.813-.17-2.099 1.328-3.127 3.34-2.485.386.129.814.3 1.2.429 2.826.728 2.826.428 2.997-2.399.128-2.485.942-4.798-.6-7.197-.428-.685.429-2.142 1.628-2.013 1.37.171 2.698-.471 4.025.043 1.07.428 1.285-.086 1.07-1.028-.17-.729-.17-1.414.343-2.057.386-.514.814-1.028 1.585-.899.685.128.813.685.942 1.285.042.3.085.557.17.857.172.599.13 1.413.857 1.628.771.214 1.028-.6 1.456-1.029 1.884-1.799 2.57-4.198 3.126-6.596.3-1.243.942-1.628 1.927-1.328 1.499.428 2.74-.043 3.768-.943 1.97-1.713 4.454-2.442 6.595-3.855 1.713-1.114 3.897-1.585 5.61-3.127 1.199-1.028 2.526.642 3.425 1.413 1.114.943 1.842 1.842 3.469.986.728-.386 1.798 0 1.156 1.113-.6 1.071 0 1.414.685 1.842.942.6 1.927.986 2.955.086.814-.728 1.499-2.356 2.655-1.628 1.541.985 3.897 1.671 4.11 3.727.472 4.541 4.154 5.526 7.237 7.282 4.154 2.356 7.237 5.655 8.051 10.453.385 2.227 1.97 3.727 2.484 5.868.513 2.142.984 4.284.942 6.469 0 .514.128.942.342 1.413 2.87 6.041 3.383 12.295 1.328 18.678-1.542 4.84-3.34 9.552-6.38 13.665-.9 1.199-1.028 2.656-.9 4.112.171 2.185-.642 3.77-2.698 4.627-.942.385-1.627 1.07-2.27 1.884-1.07 1.328-2.312 2.399-4.067 2.999-1.756.6-2.955 2.185-4.325 3.384-1.97 1.756-3.426 1.542-4.368-.942-.514-1.328-1.199-1.371-2.312-1.028-2.741.942-5.053 2.955-8.05 3.384-.9.128-.9 1.199-.9 1.97.043 1.928-.942 3.427-2.184 4.755-1.884 2.056-4.753 2.056-7.151.172-1.97-1.543-3.64-3.342-4.796-5.612-1.028-1.971-3.94-2.399-5.567-.943-.77.686-1.413.386-2.141 0-3.383-1.842-3.426-1.842-5.867.986-.342.385-.6.899-1.199.599-.556-.257-.6-.813-.47-1.285 1.37-4.069-.729-6.639-3.683-8.867-2.912-2.142-5.053-4.969-6.98-8.011-.257-.385-.386-.942-1.156-1.113zM7.223 267.528c-.172-10.623 2.44-19.748 7.879-27.887 2.912-4.326 6.295-8.439 10.277-11.823 2.826-2.399 5.438-5.14 8.778-6.94.814-.428 1.5-.257 2.27-.128 1.713.3 3.297.385 5.139-.171 1.67-.514 4.11.342 5.31 2.227 1.327 2.099 3.596 1.371 5.395 1.885.77.214 1.37-1.285 1.841-2.142.343-.642.6-1.328 1.542-1.157.813.172 1.37.6 1.713 1.414 1.284 3.256 1.927 3.513 5.181 2.228 2.398-.943 3.897.599 5.182 2.013 1.284 1.414 2.697 1.971 4.496 1.928 1.284-.043 2.57-.086 3.854 0 1.927.128 3.211-.814 4.325-2.271.728-.942 1.627-1.67 2.27.129.256.728.899 1.071 1.498 1.499.471.386.9.857.514 1.457-1.67 2.527 1.456 3.127 1.927 4.755.085.299.642.299.942.042.428-.385.3-.856-.086-1.113-2.44-1.457-1.541-4.113-2.14-6.212-.386-1.328 1.198-2.484 2.611-2.956 1.242-.385 2.698.215 2.698 1.414.043 3.813 3.469 5.569 4.796 8.525.814 1.885 1.67 3.769 2.313 5.697.513 1.585-.3 2.313-1.885 1.756-1.841-.642-3.81-.171-5.695-.771-.856-.257-1.713-1.756-2.57-.728-.77.9.258 2.056.772 2.913 2.27 3.813 2.826 8.182 4.282 12.209.428 1.199.985 1.799 2.483 1.713 2.013-.128 2.912 1.457 3.084 3.17.342 2.913.3 5.826.042 8.739-.042.685-.257 1.542-.728 1.97-2.954 2.913-3.168 7.968-6.637 9.982-4.496 2.655-5.91 7.667-9.849 10.666-2.698 2.056-5.481 3.813-8.521 5.183-1.542.686-2.912 1.457-4.068 2.656-1.97 2.056-4.283 2.913-7.28 2.785-4.025-.129-8.136.385-12.076 1.413-4.196 1.114-8.221.686-12.247-.385-6.252-1.628-12.161-4.198-16.957-8.696-4.753-4.455-8.693-9.467-10.791-15.85-1.242-3.77-2.141-7.711-1.884-11.138zM86.4 468.735c1.584-.814 2.783-.899 3.426.857.085.214.428.386.685.428 2.012.215 2.826.9 1.413 2.828-.343.471.043.899.3 1.37.856 1.328 1.199 2.485-.514 3.599-.9.557-1.328 1.713-2.141 2.527-.728.728.385 1.071.942.943 2.14-.514 2.055.814 2.526 2.313 1.2 4.155-.257 8.267.129 12.423.171 1.756-1.585 3.555-1.585 5.783 0 1.071-1.456 2.313-3.126 1.071-1.284-.943-2.055-.257-2.697.899-1.328 2.313-1.5 2.313-2.784 0-.128-.257-.257-.557-.6-.514-.47.086-.47.471-.385.857.043.214.172.385.215.6.428 1.285 1.584 2.613.942 3.812-1.071 1.971-2.313 3.941-4.326 5.184-.642.385-1.327.771-2.012.299-2.57-1.842-5.224-1.585-7.922-.385-.685.3-1.627.3-1.97-.386-1.199-2.356-4.368-2.784-5.31-5.44-.257-.685-.813-.643-1.413-.3-1.456.857-1.841 2.613-.856 4.07.985 1.499-.086 2.27-1.156 2.527-2.655.6-3.94 2.956-5.953 4.369-.728.514-.813 1.457-.899 2.314-.214 1.542-.171 3.17-1.028 4.54-1.712 2.828-3.34 3.042-5.438.515-1.156-1.414-1.927-.814-2.698.214-.728.985-1.413 1.799-2.826 1.071-1.413-.729-1.413-1.842-1.07-3.085.642-2.27 1.027-4.583 1.97-6.768.984-2.313-.686-6.34-3.084-6.94-3.169-.771-6.295-1.842-9.678-1.585-1.584.129-2.483.729-3.04 2.185-.814 2.099-4.11 3.513-6.123 2.785-2.27-.857-3.94-4.327-2.87-6.597 1.285-2.742 1.157-4.841-.984-7.283-6.766-7.839-10.277-16.706-8.479-27.373 1.841-10.966 5.481-21.076 12.076-30.072 2.483-3.384 5.438-6.168 9.164-8.01 1.541-.729 3.297-1.114 5.31-.514 3.682 1.028 7.022 2.613 10.32 4.498 1.67.985 3.982.471 5.995.985a60.746 60.746 0 0118.755 8.61c3.811 2.613 7.023 6.169 9.592 10.195.814 1.286 1.585 1.971 3.04.9.729-.514 1.585-.3 2.441-.129 2.313.472 3.34 2.699 5.31 3.685.942.471.215 2.827-.513 4.198-.343.556-1.071.813-1.071 1.927zM189.468 6.263c.086.343.3.728.214 1.028-.856 3.084 1.242 3.256 3.34 3.598 1.071.172 1.242-.556 1.456-1.199.6-1.713 1.413-2.099 2.998-.9 2.141 1.585 4.582 2.4 7.365 2.27 2.227-.128 4.282.858 6.38 1.586 5.31 1.842 10.92 2.998 15.63 6.297 5.224 3.641 9.464 8.225 12.333 13.922 1.67 3.341 3.597 6.683 4.325 10.367.685 3.512 1.841 6.982 1.755 10.623-.042 1.757-.856 3.299-1.841 4.713-3.597 5.226-7.108 10.495-10.962 15.55-4.025 5.226-8.907 9.424-14.945 12.465-11.476 5.698-22.481 4.07-33.486-.985-4.497-2.056-8.265-5.183-11.048-9.21-3.041-4.37-4.754-9.424-5.353-14.736-.6-5.355 0-10.624.728-15.936 1.327-9.338 4.582-17.906 9.207-26.045 1.241-2.185 3.382-3.427 5.01-5.226 1.327-1.5.685-1.542-.685-1.842-1.371-.3-2.741-.771-4.068-1.328-1.842-.814-1.799-1.414-.514-3.041.985-1.243 2.783-.686 3.597-2.014 2.869.043 5.695.043 8.564.043zM253.358 384.56c.042 2.142-.129 4.284-.9 6.34-.813 2.185-1.969 2.527-3.854 1.199-.513-.342-1.113-.985-1.67-.3-.599.772.343 1.071.728 1.5 3.126 3.298 1.199 7.282-1.327 9.253-.857.685-1.927.342-2.869.042-1.071-.342-1.884-.556-1.285 1.157.899 2.699 0 4.841-2.612 6.169-3.297 1.67-6.081 3.898-8.222 6.939-1.027 1.414-2.483 1.971-3.939 1.328-3.34-1.456-6.209.257-8.993 1.243-2.612.899-5.438 1.842-7.622 3.769a.323.323 0 01-.171.086c-5.31-.129-5.696 4.241-6.252 7.625-.643 3.727-1.927 5.654-5.91 5.697-1.37 0-2.697.6-4.153.215-2.441-.643-3.255-1.928-2.57-4.37.257-.985.429-1.371-.985-1.156-4.41.685-8.264-1.757-9.292-5.655-.085-.386-.257-.942-.128-1.242 1.327-2.656-.3-4.798-1.156-7.111-.215-.6-.643-.857-1.199-1.114-1.628-.728-3.084-2.013-3.512-3.556-.942-3.341-3.297-4.498-6.209-5.354-3.126-.9-6.209-5.312-6.081-8.568.043-.685-.342-1.199-.471-1.842-.813-3.47-2.012-6.939-1.156-10.623.343-1.414.728-2.913.257-4.455a1.456 1.456 0 010-.857c2.869-6.169 3.469-13.108 6.637-19.234 3.683-7.111 8.865-12.851 15.074-17.778 3.554-2.784 7.708-4.626 11.176-7.496.514-.429 1.113-.771 1.756-.643 1.456.343 2.612.129 3.511-1.199.343-.514.985-.557 1.585-.386.685.214 1.413.386 1.969.771 5.696 3.984 12.376 5.569 18.671 8.097 4.282 1.713 9.035 2.27 12.932 4.926 5.524 3.727 9.849 8.225 12.589 14.607 2.527 5.912 2.441 12.423 5.396 18.163.514 1.071.214 2.528.257 3.813zM253.314 261.06c-.471 7.839-3.169 14.993-7.023 21.761-2.184 3.813-4.153 7.754-6.98 11.181-6.08 7.368-13.231 12.637-23.123 13.365-8.864.642-17.471-.686-25.779-3.77-2.355-.857-5.096-.857-6.894-3.084-.471-.557-1.328-.343-2.013-.043-3.083 1.242-4.753.728-6.08-2.313-.814-1.799-1.884-2.442-3.769-2.399-2.483.043-4.753-2.013-4.838-4.369-.086-2.614-.686-5.098-1.542-7.497-1.756-5.012-1.542-10.152-.814-15.293 1.413-9.81 4.754-19.02 9.892-27.373 2.313-3.813 4.282-8.439 9.035-10.324.172-.085.429-.214.514-.385 1.157-3.47 4.24-2.699 6.809-3.085.728-.085 1.37.043 1.67-.899.814-2.442 2.184-3.427 4.839-3.513 1.584-.043 3.211.514 4.71-.642.685-.514 1.456.214 1.97.856.728.943 1.542 1.243 2.569.6.514-.3 1.071-.428 1.628-.171.899.471 1.498.085 2.012-.6.514-.728 1.242-1.157 2.056-1.499 1.156-.429 1.841-.215 2.141 1.156.642 3.256.942 3.47 4.153 3.299.942-.043 1.67.385 2.356.856 3.083 2.228 6.294 4.156 10.105 4.884.686.128 1.285.557 1.885.942 2.569 1.671 5.053 3.427 7.665 5.055 3.34 2.056 5.652 5.184 8.35 7.925.599.6 1.284 1.328 1.413 2.099.728 4.541 3.34 8.568 3.083 13.28zM206.125 194.362c-2.183-.086-4.153-.557-6.166-.471-1.242.042-2.398.085-3.211 1.285-.557.771-1.328.985-2.013.257-2.527-2.528-5.738-1.542-8.693-1.671-1.242-.086-2.355.171-3.254-.942-.814-1.028-2.056-1.2-3.255-1.414-2.612-.428-4.71-1.028-5.866-4.07-.857-2.27-3.041-4.069-4.668-6.04-.385-.471-.899-.342-1.327 0-1.199.857-2.013.172-2.741-.685-.856-.985-.385-1.842.428-2.613.257-.257.514-.514.685-.814.3-.514.557-1.157 0-1.542-.556-.386-.856.3-1.156.642-.856.943-1.884 1.842-3.126.986-1.242-.857-.985-2.228-.556-3.513.299-.857.813-1.628 1.584-1.971 1.67-.813 1.841-1.97 1.584-3.641-1.37-8.91.514-17.349 3.298-25.831 1.927-5.868 5.053-11.009 8.05-16.235 1.114-1.928 2.398-4.369 4.967-5.269.129-.043.343-.128.343-.214.385-2.57 2.955-2.913 4.411-4.37 2.184-2.184 5.181-2.827 8.007-3.898 2.57-.985 5.653-.471 7.665-2.956.685-.813 1.585-.471 2.313.043 2.697 1.885 5.909 2.785 8.735 4.455 4.454 2.613 9.635 3.856 14.131 6.426 5.096 2.913 9.807 6.426 13.96 10.538 3.769 3.77 5.353 8.91 6.68 14.093 2.013 7.883-1.498 14.308-4.539 20.991-3.211 7.025-7.708 13.151-13.403 18.334-3.939 3.599-8.136 6.726-13.489 7.968-3.211.685-6.252 1.97-9.378 2.142zM161.162 483.942c.728-9.253 3.255-17.906 8.051-25.916 3.04-5.055 6.594-9.425 11.733-12.509 1.327-.771 2.441-1.97 3.469-3.127 2.012-2.185 4.796-3.041 7.194-4.584.899-.556 2.012-.171 2.826.429 3.725 2.784 8.05 4.241 12.418 5.654 4.796 1.542 9.549 3.342 14.474 4.627 2.184.557 4.068 1.885 5.096 3.984 1.07 2.099 2.654 3.726 4.453 5.14 3.169 2.57 5.695 5.569 7.365 9.253.557 1.285 1.799 2.185 2.056 3.684.128.771 1.027.985 1.755.814.728-.171 1.157-.942.942-1.499-.599-1.585-.171-2.913.557-4.284.343-.6-.171-1.242-.3-1.842-.085-.514-.214-1.028.3-1.371.557-.343.942.086 1.328.343 2.697 1.842 4.282 4.712 6.209 7.239.813 1.028.471 2.956-1.028 3.941-.814.514-.728.857-.043 1.414 2.313 1.971 2.355 4.541 2.355 7.368 0 2.313-.428 4.626-.214 6.94.086.771.086 1.456-.771 1.756-2.312.9-3.382 2.87-4.41 4.926-.814 1.585-1.884 2.999-3.554 3.727-.942.429-1.157.985-.985 1.842.342 1.671-.428 2.827-1.585 3.941-2.055 2.014-4.239 3.813-7.022 4.755-.814.3-1.585.643-1.884 1.585-.686 2.014-2.227 3.127-4.026 4.155-3.083 1.8-5.095 1.157-7.965-1.67-.899-.9-1.67-1.328-2.911-1.328-1.713 0-3.212 1.028-5.011.728-.813-.128-1.113.857-1.07 1.756.043 1.928-.899 3.085-2.741 3.513-1.027.214-1.712.814-2.269 1.756-1.456 2.399-2.955 2.999-5.695 2.485-.557-.086-1.114-.3-1.67-.3-4.54.043-7.195-2.27-8.222-6.597-.214-.985-.985-1.328-1.842-1.542-2.44-.557-4.924-.9-7.279-1.671-10.963-3.427-16.915-11.266-19.141-22.232-.429-2.271-.985-4.712-.943-7.283zm81.832-1.113v-.814c-.256-2.185-1.199-4.413.985-6.255.343-.299.343-1.071.386-1.627.043-.429-.428-.814-.643-.514-.77 1.113-2.526 1.542-2.655 2.955-.128 1.971-.556 3.941-.685 5.912-.085 1.242.643 2.57 1.756 2.57 1.542 0 .471-1.585.856-2.227zM365.248 6.263c.385 1.67 1.884 2.27 3.126 3.042 2.227 1.37 4.796 2.184 6.809 3.984.299.257.728.514 1.156.3.557-.3.428-.857.342-1.329-.042-.214-.128-.428-.171-.6-.214-.942-.985-2.056.043-2.74 1.113-.73 2.569-.344 3.426.385 1.413 1.156 2.612 2.613 3.168 4.455.215.77.172 1.114-.727.9-.643-.172-1.499-1.371-1.885-.215-.342 1.028-.728 2.442.343 3.427 1.113 1.028 2.269 2.014 3.511 2.785a39.811 39.811 0 017.879 6.554c1.328 1.413 2.613 2.827 2.698 4.926.043.685.257 1.542.942 1.842 1.927.942 2.441 2.656 2.869 4.498a4.118 4.118 0 001.842 2.527c1.798 1.114 1.713 2.699 1.498 4.455-.214 1.757-.299 3.513-.385 5.27-.043.513.214 1.028.685 1.242 1.67.77 1.456 2.099 1.071 3.47-1.156 4.026-3.169 7.582-5.824 10.837-2.312 2.828-5.438 5.012-7.194 8.054-1.542 2.656-3.726 4.412-5.781 6.383-1.884 1.799-4.325 2.313-6.851 2.698-4.368.686-8.822.857-13.018 2.356-1.585.557-3.126-.085-4.668-.214-5.524-.428-11.09-.557-16.443-2.442-3.255-1.156-6.295-2.698-9.292-4.369-.6-.343-1.242-1.028-1.927-.771-3.983 1.328-4.882-2.87-7.409-4.112-.428-.215-.599-.857-.471-1.371.429-1.757-.728-2.742-1.755-3.898-.429.6.257 1.799-.942 1.842-1.071.042-1.927-.772-1.927-1.671-.043-4.284-1.67-8.353-1.199-12.723.385-3.298-.343-6.64.085-10.024 1.199-9.253 2.869-18.248 7.794-26.43a63.486 63.486 0 015.995-8.268c1.113-1.328 2.74-2.056 4.196-2.913.985-.6 2.013-1.114 2.655-2.099 8.607-.043 17.172-.043 25.736-.043zM379.594 431.51c1.113 4.155-.642 6.125-4.753 5.568-1.285-.171-2.527-.299-3.811-.342-2.142-.086-3.469-1.285-3.597-3.47-.215-3.127-1.842-5.44-3.812-7.668-.257-.3-.728-.642-1.07-.642-3.64.299-6.124-2.399-9.207-3.556-2.569-.985-5.267-1.199-7.836-2.056-.343-.129-.899 0-1.242.214-2.141 1.499-3.725.6-5.224-1.071-.814-.942-1.884-1.499-2.955-2.099-9.506-5.312-16.615-12.894-20.126-23.218-1.756-5.14-1.413-10.709-.043-16.064 2.912-11.266 8.821-20.99 15.973-29.986 2.141-2.699 4.838-5.098 7.536-7.411 2.57-2.184 5.695-3.427 8.093-5.911 2.099-2.142 5.353-1.885 8.308-1.757.471.043 1.07.472 1.413.3 3.083-1.413 5.096.686 7.023 2.313 2.355 2.014 5.181 2.871 7.836 4.156 3.597 1.67 7.323 3.17 10.92 4.926 2.869 1.414 4.881 3.898 6.723 6.426.899 1.242 1.798 2.27 3.126 3.127 1.67 1.071 3.297 2.741 3.811 4.412 1.241 4.027 4.153 6.94 5.952 10.581 1.798 3.684 3.811 7.111 4.71 11.266 1.371 6.254 2.056 11.395.557 17.52-.728 3.042-1.199 6.212-3.255 8.911-1.284 1.713-2.697 2.784-4.753 3.298-2.398.557-4.025 1.714-4.839 4.412-.513 1.714-1.755 3.77-4.196 4.07-.728.085-1.113.642-1.285 1.285-.214.814-.599 1.756-.428 2.485 1.156 4.583-1.156 7.582-4.453 10.195-.771.6-1.499.771-2.398.557-.728-.215-1.585-.472-2.698-.771zM325.296 184.167c.129-.643.171-1.328-.257-1.842-2.612-2.999-2.569-6.683-2.869-10.367-.257-3.17-1.456-6.211-1.927-9.381-.685-4.327-.385-8.611.086-12.937.985-9.596 4.239-18.292 9.592-26.259 2.612-3.942 5.567-7.711 9.378-10.453 2.098-1.499 4.796-2.57 6.723-4.198 2.226-1.928 4.967-1.799 7.322-2.956 2.313-1.113 5.696-2.056 8.35.472.814.771 1.97.899 2.998.428 2.955-1.285 5.481-.557 7.579 1.628 1.542 1.628 3.512 2.656 5.31 3.855 6.038 4.027 12.376 7.582 18.328 11.738 4.924 3.469 7.536 8.567 7.879 14.693.086 1.413.128 2.827.557 4.241.342 1.113.514 2.313.128 3.384-1.07 2.913-1.756 6.126-1.584 8.953.299 5.354-4.154 8.267-5.139 12.808-.599 2.742-1.756 5.312-3.468 7.668-2.099 2.87-4.454 5.355-7.409 7.282-1.156.729-1.798 1.585-2.012 3.042-.3 2.613-3.169 4.284-6.081 3.513-1.456-.386-1.884-.086-2.055 1.327-.171 1.5-1.328 2.142-2.655 1.543-3.255-1.414-5.824.3-8.35 1.799-1.071.642-1.884.771-3.126.471-3.041-.728-6.209-.428-9.293-1.157-4.325-.985-8.607-1.927-12.632-3.855-1.07-.514-1.841-.3-2.741.386-1.498 1.156-2.954 1.071-4.068-.514-.685-.943-1.284-.943-2.355-.6-2.441.814-6.38-2.356-6.209-4.712zM321.57 264.83c.257-5.655.129-11.738 1.756-17.649.599-2.271 1.37-4.584 2.783-6.426 2.141-2.827 4.197-5.74 6.424-8.482 2.355-2.913 5.566-5.055 7.622-8.225.942-1.456 2.912-1.67 4.368-2.57.599-.385 1.241-.642 1.713-1.199 2.226-2.571 5.352-2.742 7.793-.3.642.642 1.156.985 2.013.514.171-.086.471-.257.599-.171 2.398 1.627 5.353-.043 7.794 1.327 1.113.6 2.355.472 3.554.643 2.269.343 4.41 1.199 6.423 2.27 3.683 1.885 7.665 3.385 10.877 5.912 3.897 3.041 7.451 6.554 9.206 11.566 1.071 3.127 2.441 6.126 4.411 8.953 2.055 2.956 2.698 6.554 2.741 10.195.042 2.571.171 5.012 1.156 7.497.899 2.27.043 4.926-.043 7.368-.043.557-.343 1.157-.214 1.671 1.113 4.926-.428 9.595-1.285 14.307-.514 2.742-1.798 3.941-4.667 3.984-1.413 0-2.655.343-3.083 2.014-.429 1.713-1.927 2.613-3.084 3.726-.728.686-1.498.257-2.184-.085-1.755-.857-3.211-.6-4.239 1.114-1.242 2.013-3.511 1.242-5.224 1.884-3.383 1.243-3.554.986-5.738-1.927-.3-.386-.685-.986-1.071-.986-1.541 0-2.869.086-3.597-1.756-.299-.685-1.199.171-1.242.771-.085 1.971-1.199 2.785-3.04 2.87-1.499.086-3.04.3-4.111-1.156-.257-.343-.556-.771-1.027-.6-.686.257-.343.814-.3 1.285.171 1.028.043 1.928-1.028 2.27-1.37.429-1.456-.856-1.756-1.627-.642-1.585-1.712-2.356-3.468-2.271-1.585.086-3.126-.043-4.668-.3-1.199-.214-2.398-.128-3.383.814-.942.9-1.841.857-2.226-.514-.343-1.156-1.371-1.413-2.27-1.713-9.292-3.127-13.96-10.324-16.615-19.191-1.456-5.141-1.67-10.281-1.67-15.807zM406.743 475.461c-.171 4.369-1.413 8.396-2.74 12.423-.172.556-.728 1.028-1.156 1.499-.686.771-1.328 1.585-1.414 2.613-.428 4.541-3.126 7.882-5.952 11.052-1.67 1.885-1.627 4.027-1.67 6.211 0 .771.171 1.543-.257 2.271-.342.6-.899.942-1.584.857-.643-.086-.985-.514-1.199-1.071-.086-.215-.086-.429-.171-.643-.343-1.199-.429-2.784-2.27-2.442-2.484.472-3.511 1.971-3.083 4.07.342 1.756.3 3.555.128 5.312-.214 2.399-2.44 4.626-4.839 5.097-1.969.386-3.939.643-5.866 1.071-2.098.471-3.597-1.071-4.668-2.484-1.584-2.142-3.896-2.57-6.166-3.213-.471-.129-1.199-.043-1.413-.343-1.627-2.184-4.025-1.199-6.124-1.628-.556-.128-1.241-.085-1.627.3-2.74 2.785-5.609 1.328-8.007-.128-2.013-1.2-4.026-2.056-6.209-2.613-7.323-1.842-12.504-6.297-15.759-13.066-1.841-3.812-3.468-7.753-5.224-11.651-.471-1.114-.557-2.185 0-3.299.599-1.285.428-2.656.385-4.027-.299-14.779 6.295-26.173 16.958-35.855 2.912-2.613 6.337-4.283 9.335-6.682 2.012-1.585 4.667-2.356 7.065-3.427 1.157-.514 2.056.214 2.869.985 1.371 1.328 2.698 2.785 4.111 4.07 1.285 1.199 2.57 2.484 4.582 2.441.428 0 .985.257 1.328.557 3.768 3.213 8.221 5.312 12.546 7.497 3.512 1.756 6.895 3.684 10.32 5.569 5.995 3.298 9.764 8.353 12.419 14.479.171.428.042 1.156.685 1.199.556.043.728-.6.985-.985.342-.643.685-1.371 1.541-1.242 1.071.171.514 1.156.728 1.756.471 1.242.942 2.356 1.413 3.47zM628.554 135.589c1.071-.9 1.199-2.27 1.542-3.47.428-1.371 1.156-2.227 2.483-2.699 2.441-.942 4.282-2.484 5.225-5.011.342-.943 1.027-1.543 2.055-1.628 2.269-.257 3.725-1.757 4.882-3.47 5.695-8.353 13.36-13.665 23.209-16.364 7.108-1.928 14.045-1.671 21.111-.514 1.156.171 2.27.214 3.34-.3 1.028-.471 2.27-.728 3.083 0 2.655 2.313 6.166 2.956 8.993 4.884 2.141 1.499 4.111 3.127 5.695 5.097 2.783 3.513 5.867 6.811 7.922 10.838.557 1.114.942 2.228 1.113 3.427a2065.3 2065.3 0 012.356 16.064c.085.557.214 1.242 0 1.671-2.827 4.712-2.698 10.324-4.711 15.293-2.826 6.982-6.38 13.451-11.476 19.148-2.912 3.213-6.252 5.912-9.635 8.353-2.355 1.714-4.839 3.641-7.836 4.498-2.313.643-4.197 2.399-6.68 2.785-.9.128-1.542.171-2.398-.257-4.711-2.399-8.351-6.34-12.933-9.039-5.738-3.341-11.775-5.997-17.514-9.339-.856-.514-1.712-.985-2.569-1.542-.471-.3-.942-.771-1.541-.428-.643.343-.728 1.028-.771 1.67 0 .772.471 1.585 0 2.314-.557.856-.771 2.313-1.97 2.356-1.713.043-3.383-.728-4.539-1.928-2.869-3.127-2.741-7.325-3.811-11.138 1.67-1.97.128-3.641-.086-5.568-.3-2.228-1.028-3.47-2.612-4.884-1.413-1.285-1.071-3.427-1.199-5.269-.086-1.242.428-2.613-.856-3.598.128-3.941.128-7.968.128-11.952zM655.103 532.263c-2.141-1.628-3.34-3.941-4.71-6.168-1.456-2.399-3.64-4.37-5.567-6.469a88.087 88.087 0 01-8.521-10.624c-1.627-2.356-2.056-4.969-2.099-7.71-.042-2.014-.342-3.984-.556-5.955-.643-6.083-.129-11.951 3.34-17.22.771-1.157 1.327-2.313 1.584-3.684.471-2.313 1.756-4.155 3.298-5.912 4.667-5.269 10.277-9.424 15.672-13.836.942-.771 2.098-.857 3.169-1.285 2.955-1.2 5.652-2.913 8.907-3.427 2.184-.343 4.368-.429 6.552-.814 1.156-.214 2.183-.214 2.654-1.628.386-1.071 1.114-1.114 1.456.086.3.985.9 1.37 1.842 1.413 4.111.214 7.75 1.842 11.262 3.77 3.169 1.756 6.38 3.555 9.292 5.654 3.554 2.571 6.209 6.04 8.265 9.896 1.284 2.399 2.483 4.798 4.453 6.939 1.37 1.457 2.312 3.813 3.255 5.826 1.156 2.485.214 4.027-2.484 4.712-.942.215-2.013.3-1.97 1.543.086 1.413-1.156 2.998.814 4.241 1.498.899 2.569 2.356 1.884 4.326-.685 1.971-2.698 3.299-4.839 3.213-.642-.043-.899.257-1.113.771-.386.9-.985 1.799-1.157 2.742-.599 3.469-3.254 5.526-5.395 7.924-2.312 2.614-4.453 5.398-7.023 7.754-4.539 4.198-9.292 8.182-14.816 11.095-3.426 1.799-6.894 2.999-10.834 1.97-1.156-.299-2.441-.171-3.426.772-4.325.085-8.778.085-13.189.085zM628.554 32.351c1.413-1.928 2.655-3.94 2.955-6.34.171-1.328-.257-2.527-1.456-3.384-1.328-.942-1.285-2.013-.043-2.956 1.97-1.499 3.982-2.998 6.038-4.412 1.456-.985 4.753.6 5.395 2.87.686 2.399 2.141 2.785 4.154 2.57 2.484-.257 4.967-.47 7.408-.942 2.784-.557 4.711-4.884 3.34-7.368-.813-1.5-.728-3.17-1.37-4.712-.428-1.028.385-1.457 1.242-1.457 3.297 0 6.552 0 9.849.086 1.07.043 1.927.557 2.184 1.713.299 1.328 1.284 1.628 2.441 1.543 7.879-.643 15.373 1.756 22.995 3.17 1.67.3 3.169 1.585 4.796 2.313 2.783 1.242 5.31 3.041 8.35 3.77 1.242.3 1.798 1.37 1.756 2.655-.043 1.328.513 2.314 1.456 3.17 11.005 10.239 10.662 26.045 5.267 36.926-2.141 4.327-4.539 8.568-7.665 12.123-2.313 2.656-4.368 5.869-7.965 7.411-1.328.557-2.612 1.714-3.469 3.084-1.242 1.928-3.939 2.999-6.123 2.228-1.627-.6-2.355-.343-2.57 1.5-.171 1.798-.984 1.97-2.612 1.07a267.534 267.534 0 01-7.836-4.37c-3.04-1.756-6.423-2.74-9.249-5.054-3.126-2.528-7.28-3.727-10.877-5.783-7.109-4.07-13.318-9.039-16.187-17.135-.77-2.185-2.226-4.155-1.027-6.64.342-.728-1.885-3.984-2.655-4.198-.728-.214-.771.428-1.028.814-.428.643-.942.857-1.627.557-.728-.343-.685-1.028-.429-1.67.043-.13.129-.258.172-.386.3-1.028.771-2.142-.386-2.87-.728-.472-2.612 1.328-2.612 2.57.043 2.184-.642 4.37-.171 6.597.043.257.043.557.043.856-.086.814.3 1.928-.557 2.357-1.07.556-1.242-.9-1.97-1.2.043-7.068.043-14.093.043-21.076zM711.242 410.091c-1.969 2.399-3.297 4.969-5.352 6.94-.643.642-.3 1.285-.086 1.97.3.942-.086 1.499-1.071 1.071-.899-.386-1.455-.043-2.098.514-4.625 4.241-9.763 7.754-15.201 10.881-1.199.685-2.398 1.713-3.426 2.741-4.454 4.498-12.889 3.556-16.529.129-2.441-2.313-5.01-4.455-7.879-6.212-3.041-1.842-6.038-3.769-8.822-6.04-1.584-1.285-2.612-2.784-3.34-4.626-.942-2.399-2.141-4.669-3.811-6.64-1.97-2.313-2.698-5.312-4.068-7.968a226.787 226.787 0 01-2.227-4.626c-1.67-3.47-1.284-7.068-.728-10.667.086-.428.257-.814.386-1.242.599-1.885.642-2.998-1.927-3.641-4.325-1.071-6.552-6.426-4.753-10.538 1.37-3.17 2.655-6.511 5.438-8.867.343-.257.599-.771.942-.814 4.625-.943 5.695-5.398 8.307-8.354.728-.813 1.414-1.67 2.484-1.927 2.055-.471 3.083-1.928 3.597-3.813.471-1.799 1.884-2.784 3.169-3.941.257-.214.685-.514.942-.428 2.355.771 4.196-.771 6.295-1.328 1.541-.429 2.098.257 2.226 1.671.129 1.285.6 2.441 2.056 2.655 1.499.257 2.269-.728 2.955-1.97.513-.943.471-2.656 1.798-2.656 1.413.043 1.071 1.756 1.542 2.699.257.557.428 1.499 1.199 1.242 1.284-.471 2.911-.343 3.554-1.97.771-2.014 1.884-3.813 3.597-5.227 1.541-1.285 3.126-2.784 5.31-2.056 2.441.814 4.196 2.442 4.667 5.098.043.343.172.685.214 1.028.172 1.071.386 2.227 1.585 2.57 1.07.3 1.327-.899 1.884-1.499 1.113-1.285 2.355-1.799 3.982-1.028 1.242.599 2.484.385 3.769.085 1.969-.385 3.468.172 5.01 1.543 3.168 2.827 6.166 5.954 10.02 8.01 1.327.686 1.927 1.799 2.098 3.256.3 2.613 1.071 5.14.685 7.839-.128.985-.171 2.57 1.842 1.671.899-.386 1.456.385 1.841 1.113 1.028 1.885 2.013 3.899 1.97 6.041-.043 5.354.514 10.709-.6 16.021-.128.557-.214 1.156-.085 1.713 1.07 4.07-.557 7.497-2.398 10.924-.9 1.628-1.799 3.255-2.398 5.012-.6 1.842-1.67 3.255-2.955 4.626-2.527 2.956-4.154 2.742-5.61-.985zM635.448 267.314c-1.07-8.867 3.555-15.679 10.235-21.504 2.826-2.485 4.881-5.741 8.179-7.797 3.939-2.442 7.922-4.583 12.504-5.783 8.05-2.099 15.929-.557 23.851.343a65.744 65.744 0 0111.905 2.356c6.808 1.97 11.904 5.654 15.801 11.823 4.368 6.897 6.295 14.051 6.081 22.018-.215 6.469-2.313 12.423-4.839 18.292-3.083 7.068-7.537 13.279-12.89 18.677-2.911 2.956-6.209 5.612-9.977 7.625-4.154 2.228-8.222 4.541-12.247 6.897-1.028.6-1.756.514-2.912.171-5.738-1.67-10.149-6.04-15.501-7.882-6.466-2.227-11.177-6.425-15.844-10.838-3.255-3.041-5.267-7.068-7.623-10.795-2.74-4.412-4.325-9.253-5.909-14.136-.985-2.87-.942-5.869-.814-9.467zM1128.32 522.263c-1.8-1.457-2.95-3.77-5.99-3.17-1.37.3-3.64-3.127-3.81-5.183-.09-.857 0-1.757-.26-2.528-.39-1.242-.94-2.27-2.61-1.285-1.93 1.114-2.66-1.157-4.03-1.671-.94-.342-.68-1.199-.34-2.013.34-.9.3-1.756-.94-1.842-2.32-.171-3.51-1.885-3.99-3.641-.94-3.513-3.21-6.297-4.75-9.467-1.5-3.085-2.4-6.04-2.1-9.596.52-5.869 2.1-11.309 4.63-16.578 1.03-2.142 1.07-4.712 2.57-6.725.21-.257.17-.729-.17-.986-.52-.385-.9 0-1.33.3-.56.386-1.12 1.328-1.76.557-.6-.685.35-1.242.73-1.799 3.3-4.926 7.67-8.739 12.46-12.209 1.54-1.113 3-2.441 4.37-3.769 2.61-2.571 5.91-3.556 9.29-3.856 9.98-.942 19.79-.043 29.16 3.856 6.13 2.57 10.92 6.597 13.88 12.68 2.1 4.283 4.15 8.567 5.35 13.236 1.88 7.24 1.07 14.137-1.76 20.905-.64 1.542-1.19 2.999-.55 4.712.34.9.21 1.842-1.2 1.414-.77-.215-1.03.214-1.33.728-1.24 2.185-3.04 4.241-3.51 6.554-.51 2.527-.94 4.07-3.73 5.012-1.54.514-2.22 2.956-3.51 4.412-2.61 2.913-6.25 4.455-8.99 7.197-.13.128-.38.214-.51.385-1.55 2.142-3.39 3.556-6.26 3.042-.81-.129-1.67.343-1.92 1.371h-8.14c-1.11-1.414-2.31-3.17-4.11-2.956-1.93.214-2.23-.171-2.18-1.885.04-1.499-1.59-1.371-2.49-1.97-.34-.215-.77-.172-.77.299-.04.9-.43 1.842.39 2.656.47.429.9.943 1.33 1.371.72.685 1.07 1.499.98 2.485-.69-.043-1.37-.043-2.1-.043zM1109.87 171.382c-.05 1.028 0 1.585-.13 2.099-.26.942-.39 2.142-1.59 2.313-1.11.172-1.84-.728-2.31-1.628-.6-1.113-1.24-2.313-1.46-3.512-.55-3.342-2.65-6.126-3.21-9.596-.43-2.741-.77-5.526-1.32-8.225-.39-1.884-1.76-3.641-2.66-5.483-1.54-3.17-1.54-6.468-.26-9.338 1.25-2.828.95-5.612 1.37-8.396.52-3.599.22-3.642 3.99-4.199 1.02-.171 1.54-.685 1.41-1.756-.51-4.455 1.28-8.225 3.38-11.909 1.5-2.613 3.26-3.17 6.13-2.784 1.75.214 2.95-1.028 3.59-2.485.6-1.37 1.5-2.399 2.57-3.384 2.01-1.885 3.47-1.97 5.35-.043.99.986 1.63.943 2.7.215 1.93-1.328 3.09-1.157 4.28.599.56.771.9.557 1.29.086.9-.985 2.01-1.328 3.3-.985.68.171 1.2-.214 1.75-.557 1.89-1.071 4.07-1.285 6.17-1.671.68-.128 1.28.172 1.75.643 1.25 1.371 2.83 2.57 3.64 4.198 1.03 2.013.65 4.455.22 6.597-.22 1.199-.17 1.885.9 2.399.68.342 1.03.942 1.41 1.585.64 1.156 1.63 1.156 2.96 1.37 2.65.386 4.83-.128 7.1-1.37.99-.514 1.85.514 2.36 1.413.77 1.414 2.01 2.014 3.51 2.528 4.45 1.585 8.82 3.341 11.82 7.282.51.643 1.24.9 2.01 1.114 4.11 1.028 5.7 4.412 7.15 7.882.17.343.17.942 0 1.242-1.84 3.256.09 5.997 1.24 8.825.22.514.65 1.028.52 1.585-1.16 4.712-.56 9.638-1.84 14.35-2.23 8.096-6.04 15.379-11.26 21.89-2.23 2.784-3.9 5.954-6.51 8.482-2.49 2.399-5.7 3.47-8.44 5.312-2.48 1.67-4.58 1.628-7.28.514-2.74-1.114-5.82-1.328-8.69-2.099-4.2-1.114-7.41-3.599-10.41-6.469-2.18-2.099-4.71-2.784-7.58-2.656-1.62.086-3.12-.257-3.94-1.67-2.05-3.599-5.78-5.441-8.6-8.182-1.67-1.628-3.64-2.956-4.84-5.012-.35-.172-.82-.429-1.54-1.114zM1178.12 353.869c.6-1.285.22-2.484.3-3.684.09-1.199.22-2.356 1.67-2.613 1.33-.214 2.1.643 2.66 1.756.21.429.34.943.43 1.414.25 1.542.94 1.971 2.57 1.371 2.14-.814 4.88.428 6.03 2.399.26.6.65 1.114 1.07 1.585 3 3.512 2.83 6.04-.12 9.467-1.25 1.456-1.85 3.47-1.85 5.483.05 2.57-.3 4.883-2.27 6.854-1.62 1.628-1.24 4.027-1.54 6.126-.55 3.769-1.41 4.712-5.18 5.183-1.5.171-1.93 1.371-2.1 2.57-.17 1.243-.34 2.528-.25 3.813.17 2.099-1.33 3.127-3.34 2.484-.39-.128-.82-.299-1.2-.428-2.83-.728-2.83-.428-3 2.399-.13 2.484-.94 4.798.6 7.197.43.685-.43 2.141-1.63 2.013-1.37-.171-2.7.471-4.02-.043-1.07-.428-1.29.086-1.07 1.028.17.728.17 1.414-.35 2.056-.38.514-.81 1.029-1.58.9-.69-.129-.81-.685-.94-1.285-.05-.3-.09-.557-.17-.857-.18-.6-.13-1.413-.86-1.628-.77-.214-1.03.6-1.46 1.028-1.88 1.8-2.57 4.198-3.12 6.597-.3 1.243-.94 1.628-1.93 1.328-1.5-.428-2.74.043-3.77.943-1.97 1.713-4.45 2.441-6.59 3.855-1.71 1.114-3.9 1.585-5.61 3.127-1.2 1.028-2.53-.642-3.43-1.413-1.11-.943-1.84-1.842-3.47-.986-.72.386-1.79 0-1.15-1.113.6-1.071 0-1.414-.69-1.842-.94-.6-1.92-.986-2.95-.086-.82.728-1.5 2.356-2.66 1.628-1.54-.986-3.89-1.671-4.11-3.727-.47-4.541-4.15-5.526-7.23-7.283-4.16-2.356-7.24-5.654-8.05-10.452-.39-2.227-1.97-3.727-2.49-5.869-.51-2.141-.98-4.283-.94-6.468 0-.514-.13-.942-.34-1.414-2.87-6.04-3.39-12.294-1.33-18.677 1.54-4.84 3.34-9.552 6.38-13.665.9-1.199 1.03-2.656.9-4.112-.17-2.185.64-3.77 2.7-4.627.94-.385 1.62-1.071 2.27-1.884 1.07-1.328 2.31-2.399 4.06-2.999 1.76-.6 2.96-2.185 4.33-3.384 1.97-1.757 3.43-1.542 4.37.942.51 1.328 1.2 1.371 2.31 1.028 2.74-.942 5.05-2.956 8.05-3.384.9-.128.9-1.199.9-1.97-.04-1.928.94-3.427 2.18-4.755 1.89-2.057 4.76-2.057 7.15-.172 1.97 1.542 3.64 3.342 4.8 5.612 1.03 1.971 3.94 2.399 5.57.942.77-.685 1.41-.385 2.14 0 3.38 1.842 3.42 1.842 5.86-.985.35-.385.6-.899 1.2-.6.56.257.6.814.47 1.286-1.37 4.069.73 6.639 3.69 8.867 2.91 2.142 5.05 4.969 6.98 8.01.25.386.38.943 1.15 1.114zM1188.27 260.998c.17 10.623-2.44 19.748-7.88 27.887-2.91 4.327-6.29 8.439-10.27 11.823-2.83 2.399-5.44 5.141-8.78 6.94-.82.428-1.5.257-2.27.128-1.71-.3-3.3-.385-5.14.172-1.67.514-4.11-.343-5.31-2.228-1.33-2.099-3.6-1.371-5.4-1.885-.77-.214-1.37 1.285-1.84 2.142-.34.643-.6 1.328-1.54 1.157-.81-.172-1.37-.6-1.71-1.414-1.29-3.256-1.93-3.513-5.18-2.228-2.4.943-3.9-.599-5.18-2.013-1.29-1.414-2.7-1.97-4.5-1.928-1.29.043-2.57.086-3.85 0-1.93-.128-3.22.814-4.33 2.271-.73.942-1.63 1.67-2.27-.129-.26-.728-.9-1.071-1.5-1.499-.47-.386-.9-.857-.51-1.456 1.67-2.528-1.46-3.128-1.93-4.755-.08-.3-.64-.3-.94-.043-.43.385-.3.856.08 1.113 2.45 1.457 1.55 4.113 2.15 6.212.38 1.328-1.2 2.484-2.62 2.956-1.24.385-2.69-.214-2.69-1.414-.05-3.812-3.47-5.569-4.8-8.525-.81-1.884-1.67-3.769-2.31-5.697-.52-1.585.3-2.313 1.88-1.756 1.84.642 3.81.171 5.7.771.85.257 1.71 1.756 2.57.728.77-.9-.26-2.056-.77-2.913-2.27-3.812-2.83-8.182-4.29-12.209-.42-1.199-.98-1.799-2.48-1.713-2.01.128-2.91-1.457-3.08-3.17-.35-2.913-.3-5.826-.05-8.739.05-.685.26-1.542.73-1.97 2.96-2.913 3.17-7.968 6.64-9.981 4.5-2.656 5.91-7.668 9.85-10.667 2.7-2.056 5.48-3.812 8.52-5.183 1.54-.686 2.91-1.457 4.07-2.656 1.97-2.056 4.28-2.913 7.28-2.785 4.02.129 8.13-.385 12.07-1.413 4.2-1.114 8.22-.686 12.25.385 6.25 1.628 12.16 4.198 16.96 8.696 4.75 4.455 8.69 9.467 10.79 15.85 1.24 3.77 2.14 7.711 1.88 11.138zM1109.1 59.79c-1.59.815-2.79.9-3.43-.856-.09-.214-.43-.386-.69-.428-2.01-.215-2.82-.9-1.41-2.828.34-.471-.04-.9-.3-1.37-.86-1.328-1.2-2.485.52-3.599.89-.557 1.32-1.713 2.14-2.527.72-.729-.39-1.071-.95-.943-2.14.514-2.05-.814-2.52-2.313-1.2-4.155.25-8.268-.13-12.423-.17-1.756 1.58-3.555 1.58-5.783 0-1.07 1.46-2.313 3.13-1.07 1.28.942 2.06.256 2.7-.9 1.32-2.314 1.5-2.314 2.78 0 .13.257.26.556.6.514.47-.086.47-.471.39-.857-.05-.214-.18-.386-.22-.6-.43-1.285-1.58-2.613-.94-3.812 1.07-1.97 2.31-3.941 4.32-5.184.65-.385 1.33-.77 2.02-.3 2.57 1.843 5.22 1.585 7.92.386.68-.3 1.63-.3 1.97.386 1.2 2.356 4.37 2.784 5.31 5.44.26.685.81.643 1.41.3 1.46-.857 1.84-2.613.86-4.07-.99-1.5.08-2.27 1.15-2.527 2.66-.6 3.94-2.956 5.96-4.37.72-.514.81-1.456.9-2.313.21-1.542.17-3.17 1.02-4.54 1.72-2.828 3.34-3.042 5.44-.515 1.16 1.414 1.93.814 2.7-.214.73-.985 1.41-1.799 2.83-1.07 1.41.727 1.41 1.841 1.07 3.084-.65 2.27-1.03 4.583-1.97 6.768-.99 2.313.68 6.34 3.08 6.94 3.17.77 6.29 1.841 9.68 1.584 1.58-.128 2.48-.728 3.04-2.184.81-2.1 4.11-3.513 6.12-2.785 2.27.857 3.94 4.327 2.87 6.597-1.28 2.742-1.16 4.841.99 7.283 6.76 7.839 10.27 16.706 8.47 27.373-1.84 10.966-5.48 21.076-12.07 30.072-2.49 3.384-5.44 6.168-9.17 8.01-1.54.728-3.29 1.114-5.31.514-3.68-1.028-7.02-2.613-10.32-4.498-1.67-.985-3.98-.47-5.99-.985a60.774 60.774 0 01-18.76-8.61c-3.81-2.613-7.02-6.169-9.59-10.195-.81-1.286-1.58-1.971-3.04-.9-.73.514-1.58.3-2.44.128-2.31-.47-3.34-2.698-5.31-3.684-.94-.47-.21-2.827.51-4.198.35-.557 1.08-.814 1.08-1.927zM1006.03 522.263c-.09-.343-.3-.728-.22-1.028.86-3.084-1.24-3.256-3.34-3.598-1.07-.172-1.24.557-1.45 1.199-.6 1.714-1.417 2.099-3.001.9-2.142-1.585-4.582-2.399-7.366-2.271-2.227.129-4.282-.856-6.38-1.585-5.31-1.842-10.92-2.998-15.63-6.297-5.224-3.641-9.464-8.225-12.333-13.922-1.67-3.341-3.597-6.683-4.325-10.367-.685-3.512-1.841-6.982-1.755-10.623.042-1.757.856-3.299 1.841-4.712 3.597-5.227 7.108-10.496 10.962-15.55 4.026-5.226 8.907-9.425 14.945-12.466 11.476-5.697 22.482-4.07 33.482.985 4.5 2.056 8.27 5.184 11.05 9.21 3.04 4.37 4.76 9.425 5.36 14.736.59 5.355 0 10.624-.73 15.936-1.33 9.338-4.58 17.906-9.21 26.045-1.24 2.185-3.38 3.427-5.01 5.226-1.33 1.499-.68 1.542.69 1.842 1.37.3 2.74.771 4.06 1.328 1.84.814 1.8 1.414.52 3.042-.99 1.242-2.79.685-3.6 2.013-2.87-.043-5.69-.043-8.56-.043zM942.136 143.966c-.043-2.142.128-4.284.899-6.34.813-2.184 1.97-2.527 3.854-1.199.514.342 1.113.985 1.67.3.599-.771-.343-1.071-.728-1.5-3.126-3.298-1.199-7.282 1.327-9.253.857-.685 1.927-.342 2.869-.042 1.071.342 1.884.557 1.285-1.157-.899-2.699 0-4.841 2.612-6.169 3.297-1.67 6.081-3.898 8.222-6.939 1.028-1.414 2.483-1.971 3.939-1.328 3.341 1.456 6.21-.257 8.993-1.242 2.612-.9 5.438-1.842 7.622-3.77a.327.327 0 01.171-.086c5.31.129 5.696-4.241 6.252-7.625.643-3.727 1.927-5.654 5.91-5.697 1.37 0 2.698-.6 4.157-.214 2.44.642 3.25 1.927 2.57 4.369-.26.985-.43 1.37.98 1.157 4.41-.686 8.27 1.756 9.29 5.654.09.386.26.943.13 1.242-1.33 2.656.3 4.798 1.16 7.111.21.6.64.857 1.2 1.114 1.62.728 3.08 2.014 3.51 3.556.94 3.341 3.3 4.498 6.21 5.354 3.12.9 6.21 5.312 6.08 8.568-.05.685.34 1.199.47 1.842.81 3.47 2.01 6.94 1.15 10.624-.34 1.413-.72 2.912-.25 4.455.08.257.08.599 0 .856-2.87 6.169-3.47 13.109-6.64 19.234-3.68 7.111-8.86 12.852-15.07 17.778-3.56 2.784-7.71 4.626-11.18 7.496-.51.429-1.112.771-1.755.643-1.456-.343-2.612-.129-3.511 1.199-.343.514-.985.557-1.584.386-.686-.214-1.413-.386-1.97-.771-5.695-3.984-12.376-5.569-18.67-8.096-4.283-1.714-9.036-2.271-12.932-4.927-5.524-3.727-9.849-8.224-12.59-14.607-2.526-5.912-2.441-12.423-5.396-18.163-.513-1.071-.214-2.528-.256-3.813zM942.179 267.466c.471-7.839 3.169-14.993 7.023-21.761 2.184-3.812 4.154-7.754 6.98-11.181 6.08-7.368 13.232-12.637 23.123-13.365 8.864-.642 17.472.686 25.775 3.77 2.36.857 5.1.857 6.9 3.084.47.557 1.33.343 2.01.043 3.08-1.242 4.75-.728 6.08 2.313.82 1.799 1.89 2.442 3.77 2.399 2.48-.043 4.75 2.014 4.84 4.37.08 2.613.68 5.097 1.54 7.496 1.76 5.012 1.54 10.153.81 15.293-1.41 9.81-4.75 19.02-9.89 27.373-2.31 3.813-4.28 8.439-9.03 10.324-.17.086-.43.214-.52.385-1.15 3.47-4.24 2.699-6.81 3.085-.72.085-1.37-.043-1.67.899-.81 2.442-2.18 3.427-4.835 3.513-1.584.043-3.211-.514-4.71.643-.685.514-1.456-.215-1.97-.857-.728-.943-1.541-1.242-2.569-.6-.514.3-1.071.428-1.627.171-.9-.471-1.499-.085-2.013.6-.514.728-1.242 1.157-2.055 1.499-1.157.429-1.842.215-2.142-1.156-.642-3.256-.942-3.47-4.153-3.299-.942.043-1.67-.385-2.355-.856-3.084-2.228-6.295-4.156-10.106-4.884-.685-.128-1.285-.557-1.884-.942-2.57-1.671-5.053-3.427-7.665-5.055-3.341-2.056-5.653-5.183-8.351-7.925-.599-.6-1.284-1.328-1.413-2.099-.728-4.541-3.34-8.567-3.083-13.28zM989.369 334.164c2.184.086 4.153.557 6.166.471 1.242-.043 2.398-.085 3.212-1.285.556-.771 1.323-.985 2.013-.257 2.53 2.528 5.74 1.542 8.69 1.671 1.24.085 2.36-.172 3.26.942.81 1.028 2.05 1.2 3.25 1.414 2.61.428 4.71 1.028 5.87 4.069.85 2.271 3.04 4.07 4.66 6.04.39.472.9.343 1.33 0 1.2-.856 2.02-.171 2.74.686.86.985.39 1.842-.43 2.613-.25.257-.51.514-.68.814-.3.514-.56 1.156 0 1.542.56.386.86-.3 1.16-.643.85-.942 1.88-1.842 3.12-.985 1.24.857.99 2.228.56 3.513-.3.857-.82 1.628-1.59 1.97-1.67.814-1.84 1.971-1.58 3.642 1.37 8.91-.51 17.349-3.3 25.83-1.92 5.869-5.05 11.01-8.05 16.236-1.11 1.928-2.4 4.369-4.97 5.269-.12.043-.34.128-.34.214-.38 2.57-2.95 2.913-4.41 4.369-2.18 2.185-5.18 2.828-8.01 3.899-2.565.985-5.649.471-7.661 2.955-.685.814-1.585.472-2.313-.042-2.697-1.885-5.909-2.785-8.735-4.455-4.454-2.614-9.635-3.856-14.131-6.426-5.096-2.913-9.806-6.426-13.96-10.538-3.768-3.77-5.353-8.91-6.68-14.094-2.013-7.882 1.499-14.307 4.539-20.99 3.211-7.025 7.708-13.151 13.403-18.334 3.94-3.599 8.136-6.726 13.489-7.968 3.211-.685 6.252-1.971 9.378-2.142zM1034.33 44.584c-.73 9.252-3.25 17.906-8.05 25.916-3.04 5.055-6.59 9.424-11.73 12.509-1.33.77-2.44 1.97-3.47 3.127-2.01 2.185-4.8 3.041-7.2 4.583-.89.557-2.01.172-2.82-.428-3.727-2.784-8.052-4.24-12.42-5.654-4.796-1.543-9.549-3.342-14.474-4.627-2.183-.557-4.068-1.885-5.095-3.984-1.071-2.099-2.655-3.727-4.454-5.14-3.169-2.57-5.695-5.57-7.365-9.253-.557-1.285-1.799-2.185-2.056-3.684-.128-.771-1.027-.985-1.755-.814-.728.171-1.156.942-.942 1.5.599 1.584.171 2.912-.557 4.283-.343.6.171 1.242.3 1.842.085.514.214 1.028-.3 1.37-.557.343-.942-.085-1.327-.342-2.698-1.842-4.283-4.712-6.21-7.24-.813-1.028-.471-2.955 1.028-3.94.814-.514.728-.857.043-1.414-2.312-1.97-2.355-4.54-2.355-7.368 0-2.313.428-4.627.214-6.94-.086-.77-.086-1.456.771-1.756 2.312-.9 3.383-2.87 4.41-4.927.814-1.585 1.884-2.998 3.555-3.726.942-.429 1.156-.986.984-1.842-.342-1.671.429-2.828 1.585-3.941 2.055-2.014 4.239-3.813 7.023-4.755.813-.3 1.584-.643 1.884-1.585.685-2.014 2.226-3.127 4.025-4.155 3.083-1.8 5.096-1.157 7.965 1.67.899.9 1.67 1.328 2.912 1.328 1.712 0 3.211-1.028 5.01-.728.813.128 1.113-.857 1.07-1.756-.043-1.928.899-3.085 2.741-3.513 1.028-.214 1.713-.814 2.269-1.757 1.456-2.398 2.955-2.998 5.696-2.484.556.086 1.113.3 1.67.3 4.535-.043 7.195 2.27 8.225 6.597.21.985.98 1.328 1.84 1.542 2.44.557 4.92.9 7.28 1.67 10.96 3.428 16.91 11.267 19.14 22.233.43 2.27.98 4.712.94 7.283zm-81.831 1.113v.814c.257 2.185 1.199 4.412-.985 6.255-.343.3-.343 1.07-.386 1.627-.042.429.429.814.643.514.771-1.113 2.526-1.542 2.655-2.955.128-1.971.556-3.941.685-5.912.085-1.242-.642-2.57-1.756-2.57-1.541 0-.471 1.585-.856 2.227zM830.245 522.263c-.385-1.671-1.884-2.27-3.126-3.042-2.227-1.37-4.796-2.184-6.809-3.983-.299-.257-.727-.514-1.156-.3-.556.3-.428.856-.342 1.328.043.214.128.428.171.599.214.943.985 2.057-.043 2.742-1.113.728-2.569.343-3.426-.386-1.413-1.156-2.612-2.613-3.168-4.455-.214-.771-.172-1.113.728-.899.642.171 1.498 1.371 1.884.214.342-1.028.728-2.442-.343-3.427-1.113-1.028-2.269-2.013-3.511-2.784a39.794 39.794 0 01-7.879-6.555c-1.328-1.413-2.612-2.827-2.698-4.926-.043-.685-.257-1.542-.942-1.842-1.927-.942-2.441-2.656-2.869-4.498a4.117 4.117 0 00-1.842-2.527c-1.798-1.114-1.712-2.699-1.498-4.455.214-1.757.299-3.513.385-5.269.043-.514-.214-1.028-.685-1.243-1.67-.771-1.456-2.099-1.071-3.469 1.157-4.027 3.169-7.583 5.824-10.838 2.313-2.827 5.439-5.012 7.194-8.054 1.542-2.656 3.726-4.412 5.781-6.382 1.884-1.8 4.325-2.314 6.852-2.699 4.367-.686 8.821-.857 13.017-2.356 1.585-.557 3.126.085 4.668.214 5.524.428 11.091.557 16.443 2.442 3.255 1.156 6.295 2.698 9.293 4.369.599.343 1.241 1.028 1.927.771 3.982-1.328 4.881 2.87 7.408 4.113.428.214.599.856.471 1.37-.428 1.757.728 2.742 1.755 3.899.429-.6-.256-1.8.943-1.842 1.07-.043 1.927.771 1.927 1.67.042 4.284 1.67 8.354 1.199 12.723-.386 3.298.342 6.64-.086 10.024-1.199 9.253-2.869 18.249-7.794 26.431a63.527 63.527 0 01-5.995 8.267c-1.113 1.328-2.74 2.056-4.196 2.913-.985.6-2.013 1.114-2.655 2.099-8.607.043-17.172.043-25.736.043zM815.899 97.016c-1.113-4.155.643-6.125 4.754-5.568 1.284.171 2.526.3 3.811.342 2.141.086 3.468 1.285 3.597 3.47.214 3.127 1.841 5.441 3.811 7.668.257.3.728.643 1.07.643 3.64-.3 6.124 2.399 9.207 3.555 2.569.985 5.267 1.2 7.836 2.056.343.129.9 0 1.242-.214 2.141-1.499 3.726-.6 5.224 1.071.814.942 1.885 1.499 2.955 2.099 9.506 5.312 16.615 12.894 20.126 23.218 1.756 5.14 1.413 10.709.043 16.064-2.912 11.266-8.821 20.99-15.972 29.986-2.142 2.699-4.839 5.098-7.537 7.411-2.569 2.185-5.695 3.427-8.093 5.911-2.099 2.142-5.353 1.885-8.308 1.757-.471-.043-1.07-.471-1.413-.3-3.083 1.414-5.096-.685-7.023-2.313-2.355-2.014-5.181-2.87-7.836-4.156-3.597-1.67-7.322-3.169-10.919-4.926-2.869-1.413-4.882-3.898-6.723-6.425-.9-1.243-1.799-2.271-3.126-3.128-1.67-1.07-3.298-2.741-3.811-4.412-1.242-4.026-4.154-6.939-5.953-10.581-1.798-3.684-3.811-7.111-4.71-11.266-1.37-6.254-2.055-11.395-.557-17.52.728-3.042 1.199-6.212 3.255-8.91 1.284-1.714 2.697-2.785 4.753-3.299 2.398-.557 4.025-1.713 4.839-4.412.514-1.714 1.755-3.77 4.196-4.07.728-.085 1.114-.642 1.285-1.285.214-.814.599-1.756.428-2.484-1.156-4.584 1.156-7.583 4.454-10.196.77-.6 1.498-.77 2.398-.557.728.215 1.584.472 2.697.771zM870.197 344.359c-.128.643-.171 1.328.257 1.842 2.612 2.999 2.569 6.683 2.869 10.367.257 3.17 1.456 6.211 1.927 9.381.685 4.327.385 8.611-.086 12.937-.985 9.596-4.239 18.292-9.592 26.26-2.612 3.941-5.566 7.71-9.378 10.452-2.098 1.499-4.796 2.57-6.723 4.198-2.226 1.928-4.967 1.799-7.322 2.956-2.312 1.114-5.695 2.056-8.35-.471-.814-.772-1.97-.9-2.998-.429-2.954 1.285-5.481.557-7.579-1.628-1.542-1.627-3.512-2.656-5.31-3.855-6.038-4.027-12.375-7.582-18.328-11.737-4.924-3.47-7.536-8.568-7.879-14.694-.085-1.413-.128-2.827-.557-4.241-.342-1.113-.513-2.313-.128-3.384 1.071-2.913 1.756-6.125 1.584-8.953-.299-5.354 4.154-8.267 5.139-12.808.6-2.742 1.756-5.312 3.469-7.668 2.098-2.87 4.453-5.355 7.408-7.282 1.156-.729 1.798-1.585 2.012-3.042.3-2.613 3.169-4.283 6.081-3.512 1.456.385 1.884.085 2.055-1.328.172-1.5 1.328-2.142 2.655-1.543 3.255 1.414 5.824-.299 8.351-1.799 1.07-.642 1.884-.771 3.125-.471 3.041.728 6.21.428 9.293 1.157 4.325.985 8.607 1.927 12.632 3.855 1.071.514 1.841.3 2.741-.385 1.498-1.157 2.954-1.071 4.068.514.685.942 1.284.942 2.355.599 2.441-.814 6.38 2.356 6.209 4.712zM873.923 263.697c-.257 5.654-.129 11.737-1.756 17.649-.599 2.27-1.37 4.583-2.783 6.425-2.141 2.827-4.197 5.74-6.423 8.482-2.356 2.913-5.567 5.055-7.623 8.225-.942 1.456-2.912 1.67-4.367 2.57-.6.386-1.242.643-1.713 1.199-2.227 2.571-5.353 2.742-7.794.3-.642-.642-1.156-.985-2.012-.514-.172.086-.472.257-.6.172-2.398-1.628-5.353.042-7.794-1.328-1.113-.6-2.355-.472-3.554-.643-2.269-.343-4.41-1.199-6.423-2.27-3.683-1.885-7.665-3.384-10.877-5.912-3.896-3.041-7.451-6.554-9.206-11.566-1.071-3.127-2.441-6.126-4.411-8.953-2.055-2.956-2.698-6.554-2.74-10.195-.043-2.571-.172-5.012-1.157-7.497-.899-2.27-.042-4.926.043-7.368.043-.557.343-1.156.214-1.671-1.113-4.926.429-9.595 1.285-14.307.514-2.742 1.798-3.941 4.668-3.984 1.413 0 2.654-.343 3.083-2.013.428-1.714 1.927-2.614 3.083-3.727.728-.686 1.499-.257 2.184.085 1.755.857 3.211.6 4.239-1.113 1.242-2.014 3.511-1.243 5.224-1.885 3.383-1.242 3.554-.985 5.738 1.927.3.386.686.986 1.071.986 1.541 0 2.869-.086 3.597 1.756.3.685 1.199-.171 1.242-.771.085-1.971 1.199-2.784 3.04-2.87 1.499-.086 3.04-.3 4.111 1.156.257.343.557.772 1.028.6.685-.257.342-.814.299-1.285-.171-1.028-.042-1.928 1.028-2.27 1.37-.429 1.456.856 1.756 1.628.642 1.585 1.713 2.356 3.468 2.27 1.585-.086 3.126.043 4.668.3 1.199.214 2.398.128 3.383-.814.942-.9 1.841-.857 2.227.514.342 1.157 1.37 1.414 2.269 1.713 9.292 3.128 13.96 10.324 16.615 19.192 1.456 5.14 1.67 10.281 1.67 15.807zM788.751 53.065c.171-4.37 1.413-8.396 2.74-12.422.172-.557.728-1.029 1.157-1.5.685-.77 1.327-1.585 1.413-2.613.428-4.54 3.126-7.882 5.952-11.052 1.67-1.885 1.627-4.027 1.67-6.211 0-.771-.171-1.543.257-2.27.342-.6.899-.943 1.584-.857.643.085.985.514 1.199 1.07.086.215.086.429.172.643.342 1.2.428 2.784 2.269 2.442 2.484-.471 3.511-1.97 3.083-4.07-.342-1.756-.299-3.555-.128-5.312.214-2.398 2.441-4.626 4.839-5.097 1.969-.386 3.939-.643 5.866-1.071 2.098-.471 3.597 1.07 4.668 2.484 1.584 2.142 3.897 2.57 6.166 3.213.471.129 1.199.043 1.413.343 1.627 2.185 4.025 1.2 6.124 1.628.556.128 1.241.085 1.627-.3 2.74-2.785 5.609-1.328 8.007.128 2.013 1.2 4.026 2.057 6.21 2.613 7.322 1.843 12.504 6.297 15.758 13.066 1.841 3.812 3.468 7.753 5.224 11.652.471 1.113.557 2.184 0 3.298-.599 1.285-.428 2.656-.385 4.027.3 14.779-6.295 26.173-16.958 35.855-2.911 2.613-6.337 4.283-9.335 6.682-2.012 1.585-4.667 2.356-7.065 3.427-1.156.514-2.056-.214-2.869-.985-1.371-1.328-2.698-2.784-4.111-4.07-1.285-1.199-2.569-2.484-4.582-2.441-.428 0-.985-.257-1.327-.557-3.769-3.213-8.222-5.312-12.547-7.497-3.512-1.756-6.894-3.684-10.32-5.569-5.995-3.298-9.763-8.353-12.418-14.479-.172-.428-.043-1.156-.686-1.199-.556-.043-.728.6-.984.985-.343.643-.686 1.371-1.542 1.242-1.071-.17-.514-1.156-.728-1.756a96.5 96.5 0 00-1.413-3.47z" fill="#3858E9"/>
</svg>
