<svg width="1208" height="538" fill="none" xmlns="http://www.w3.org/2000/svg">
  <path d="M386.726 149.795c4.069-.097 8.235.581 12.11-1.066-4.069-.097-8.332-2.713-12.013 1.163-1.259.096-3.294-.388-3.294.871 0 1.454 1.066 3.294 2.228 4.457 1.26 1.162 2.907.678 4.554-1.163-1.938-.872-3.876-1.84-3.585-4.262zm-112.477 62.778c-2.325.775-7.46-.582-3.778 4.844.097.096-.194.581-.388.871-2.906 5.038-2.616 6.588 1.938 9.204.872.484 1.744 1.26 2.519.194.678-.969 0-1.744-.775-2.519-1.066-1.066-2.713-1.647-2.81-3.391 1.453-.969 3.1 1.26 3.681-.29.872-2.326-2.615-3.294-2.518-5.619 1.162-.194 1.743 1.646 2.615.871 1.841-1.453-.775-2.712-.484-4.165 1.162-1.454 2.422-2.81 1.453-5.038-1.356-2.81-.581-5.716.097-8.429.678-2.712-.194-5.328.484-8.041.582-2.325-1.647-2.809-3.39-3.294-.969-.29-2.325-1.162-3.004.291-.678 1.647.969 2.519 1.841 3.585.872 1.162 2.325 2.034 1.744 3.972-2.035-.291-2.035-2.907-4.36-2.616-.29 2.228.775 3.875 2.519 5.135 1.066.775 2.519 1.84 1.26 3.003-1.357 1.162-2.035-.872-2.907-1.647-1.259-1.066-2.228-2.325-3.487-3.294-.582-.484-1.357-.969-2.132-.291-.775.775-.097 1.454.291 2.132 1.162 2.228 3.294 3.487 5.231 4.941 2.035 1.453 4.263 2.906 3.585 5.812-2.035 1.163-2.228-2.809-4.457-.775 1.841 1.647 2.326 4.457 5.232 4.554zm75.76 241.714c.581 4.553-1.841 9.01-.485 13.466 1.744 5.91 2.229 12.013 2.325 18.117.097 4.747-.096 9.494.679 14.338.968 5.813.775 11.819.581 17.826-.097 2.325-2.616 4.456 1.162 6.394 2.132 1.066 3.391 3.875 6.394 3.294 9.107-1.55 18.505-.678 27.514-3.197 7.266-2.035 7.654-1.841 7.266-9.397-.387-6.976-1.84-13.951-1.162-21.023.097-.969-.291-1.938-.485-2.81-1.162-4.747-1.55-9.688-.872-14.435 1.163-8.816-.968-17.535-.775-26.448.388-13.273-2.518-26.545-.387-39.914 1.55-9.979-4.941-19.473-1.163-29.452.097-.387 0-1.065-.29-1.356-2.519-3.391-1.357-7.072-.969-10.754 1.647-15.985.678-16.663-15.21-15.307-7.751.678-15.307 2.422-23.154 1.744-5.232-.484-8.913 4.553-8.138 9.882a341.055 341.055 0 012.325 19.957c.581 6.588.194 13.273 1.259 19.763.969 5.523-1.356 11.142.194 16.276 2.906 10.948.872 22.186 3.391 33.036zm-249.175 67.816v.194c3.101 0 6.104-.194 9.204.096 2.906.194 3.488-.968 3.585-3.584a757.219 757.219 0 012.325-29.839c2.131-20.732 3.39-41.464 4.553-62.197.775-14.822 1.744-29.645 2.81-44.371.871-12.013 2.034-24.122 3.1-36.136.193-2.034.193-3.487-2.519-3.584-9.785-.485-19.667-.969-29.548-.775-2.616.097-3.682.872-3.682 3.681 0 3.972-.387 8.041-.872 12.013-2.81 22.767-4.069 45.631-5.619 68.397-1.066 15.889-2.228 31.874-3.39 47.762-.97 13.951-2.035 27.998-3.1 41.949-.291 3.294.484 5.231 4.262 5.425 6.297.097 12.594.581 18.891.969zm750.817-80.216c1.066 10.947.388 22.863.775 34.779.291 9.01 2.325 18.117.678 27.32-.775 4.457 0 9.398.678 13.951.485 2.906 1.647 5.813 6.104 5.135 8.235-1.26 16.469-1.55 24.704.387 5.329 1.26 8.623-1.162 8.526-6.588 0-3.197-.485-6.394-.388-9.688.194-15.985.484-31.873.775-47.858.097-8.913-.484-17.826.291-26.642 1.744-20.442-.291-40.98 1.453-61.422.484-5.909-3.197-8.622-8.719-6.491-8.622 3.294-17.632 2.907-26.545 3.585-6.879.484-8.235 1.453-8.235 8.332 0 9.494.775 19.085.581 28.482-.387 12.013-.097 23.929-.678 36.718zm-386.356-37.493c0-16.469-.096-32.939 0-49.312 0-3.293-1.065-4.165-4.165-4.068-8.332.29-16.761.484-25.189.29-4.553-.097-5.91 1.453-5.813 5.813.678 24.704-2.131 49.215-2.519 73.919-.29 15.598-.678 31.292-1.065 46.89-.291 12.206 1.162 24.51.29 36.717-.193 3.1 1.744 2.713 3.391 2.616 10.56-.581 21.217-.485 31.777 0 3.003.097 4.165-1.163 3.875-3.972-.291-3.682-.678-7.363-.678-11.045-.097-17.244-.097-34.489-.097-51.636.193-15.598.193-30.905.193-46.212zm603.755 115.965v-.194c4.65 0 9.4-.29 14.05.097 3.58.291 4.36-.775 4.36-4.263-.1-22.476.09-44.855 0-67.331 0-7.944.96-15.888.38-23.638-1.26-16.954.2-33.811 1.36-50.668.19-3.004-.29-4.651-3.78-4.457-11.43.388-22.86.678-34.29.969-1.84 0-3.1.484-2.91 2.713.48 5.619-.87 11.238-.78 16.857.49 18.116-.96 36.136-.96 54.252 0 24.026.29 48.052-1.07 72.078-.19 4.166 1.26 5.426 5.23 4.941 6.2-.678 12.31-.872 18.41-1.356zm-510.944-25.092c.194 6.394 0 13.951-.872 21.507-.387 3.294.775 5.135 4.457 5.329 8.719.29 17.341.969 25.963 2.519 5.619 1.065 6.394 0 6.491-5.716.678-22.186 1.26-44.468 2.228-66.653 1.26-28.967-.193-58.031 1.744-86.998.194-2.713-.872-3.682-3.584-3.778-8.235-.388-16.373-1.066-24.608-1.551-5.522-.29-5.909.194-6.103 5.813-.775 19.957-1.163 39.915-2.519 59.872-1.55 22.67-2.131 45.63-3.197 69.656zm416.582-209.26v38.752c0 2.132.097 3.682 3.1 3.488a631.56 631.56 0 0127.032-1.744c3.87-.194 5.13-1.55 5.33-5.522.77-18.892.38-37.783.48-56.675.1-19.569.58-39.042 1.84-58.515.68-10.947 1.26-21.895 1.26-32.842 0-1.647.78-3.778-2.23-3.778-10.46.097-21.02-.097-31.483.775-2.132.193-3.197 1.065-3.197 3.293.096 10.657-1.744 21.217-1.841 31.874-.097 26.932-1.55 53.865-.291 80.894zM160.609 480.638c-.484 7.363.291 21.411 0 35.458-.097 2.81.872 3.779 3.585 3.779 8.428 0 16.76.097 25.188.193 2.616 0 3.682-.968 3.876-3.681.775-13.466 1.937-27.03 2.615-40.496 1.55-30.42.291-60.937 3.1-91.357.776-8.526.776-17.051 1.551-25.576.484-5.426.29-6.298-5.329-6.201-8.235.097-16.469.582-24.704.582-3.682 0-4.65 1.259-4.747 4.844-.388 11.625-.872 23.251-1.841 34.779-2.422 26.836-3.003 53.865-3.294 87.676zm106.858-58.127h.291c0-19.861-.097-39.624.097-59.484 0-3.779-1.066-5.329-4.941-5.038-8.235.581-16.373.969-24.607 1.453-3.294.194-4.844 1.744-4.747 5.232.096 6.006.29 11.916-.097 17.922-1.066 16.664-1.938 33.424-2.325 50.184-.776 27.998-.194 55.996-.194 83.994 0 3.004 1.065 4.457 4.262 4.457 8.913-.194 17.729-.291 26.642-.291 3.1 0 3.779-1.55 3.779-4.166.581-31.389 1.162-62.777 1.84-94.263zm408.541 13.563h.388l-2.034-63.359c-.097-3.197-1.163-4.069-4.554-4.457-8.622-1.066-16.954 1.163-25.479 1.26-4.553 0-6.007 1.259-6.007 6.006.097 29.839.194 59.678.969 89.517.388 14.338.872 28.676 1.066 43.014.097 4.069 1.162 6.104 5.619 6.394 8.331.582 16.663-.484 25.092.194 6.103.485 6.394-.388 6.297-6.588-.291-23.929-.775-47.955-1.357-71.981zm79.732 17.244h-.775c0-10.657.194-21.313 0-31.873-.29-17.729-1.744-35.361-2.906-53.09-.291-3.778-1.841-4.65-5.232-4.166-6.975.969-14.047 1.744-21.119 2.519-8.235.969-8.138.872-7.751 9.107 1.454 27.998 2.81 55.996 4.166 83.994.872 19.279 1.647 38.655 2.422 57.934.097 2.325.969 2.81 3.003 2.422 8.041-1.356 16.082-1.065 24.123-1.065 6.007 0 6.298-.388 6.104-6.298-.581-19.86-1.356-39.72-2.035-59.484zm199.572-55.221h-.678v-32.358c0-2.616-.387-4.456-3.584-4.359-8.235.387-16.47.678-24.608.968-3.584.097-5.038 1.454-4.941 5.329.485 18.019.679 36.136 1.163 54.155.387 14.145 1.356 28.386 1.841 42.531.484 17.147.678 34.392.968 51.636 0 2.81.775 4.166 3.876 3.972 8.331-.484 16.76-.871 25.091-1.162 2.907-.097 4.069-1.453 3.972-4.166-.29-4.65-.678-9.3-.775-14.047-.871-34.102-1.55-68.301-2.325-102.499zm152.388 51.637v40.108c0 8.235.2 16.47.2 24.704 0 2.81 1.06 3.585 3.78 3.585 9.2-.097 18.4-.097 27.61.097 2.81.096 3.58-.969 3.58-3.682.1-6.491-.1-12.885.1-19.279.77-25.77.19-51.54.68-77.31.29-13.854.87-27.707 1.45-41.464.1-3.197-.39-4.844-4.17-4.65-8.04.484-16.08.872-24.12.775-3.97 0-5.23 1.259-5.52 5.134-1.94 23.93-3.2 47.956-3.59 71.982zm57.07 39.236v22.767c0 2.422.38 4.456 3.58 4.553 9.3.194 18.6 1.356 28 1.066 2.32-.097 3.49-.581 3.49-3.294-.1-14.144.09-28.386.09-42.53 0-22.67-.67-45.437 1.55-68.107.68-7.363 1.55-14.725 1.94-22.088.1-2.131.19-4.36-2.81-4.65-9.3-.679-18.6-1.357-27.9-2.132-2.91-.193-3.68 1.453-4.17 4.069-2.03 11.335-2.13 22.767-2.61 34.199-1.07 25.285-2.33 50.668-1.16 76.147zm41.56-231.542c-.97-8.041.29-14.92-.29-21.895-.49-6.006-1.65-12.207.38-18.213 2.33-6.685-1.93-11.723-9.01-10.56-6.49 1.066-13.07 2.131-19.66.387-4.56-1.259-8.33.679-8.14 5.619.58 13.079-2.13 26.061-2.13 39.14 0 6.297 1.45 12.885-2.42 18.794-.49.679-.29 1.938-.2 2.81 1.26 8.816 1.75 17.632-.68 26.351-.19.678.1 1.55.39 2.325 2.13 6.588 1.16 13.273-.77 19.473-1.46 4.844-.68 8.429 2.23 12.013 3 3.682 6.49 3.294 10.75 2.228 5.23-1.356 10.75-1.937 15.89.969 4.07 2.325 10.07-1.453 9.88-6.103-.97-18.795 1.06-37.59.77-56.481.1-6.297 1.46-12.11 3.01-16.857zM823.944 386.665v-15.016c0-1.647 0-3.585-2.422-3.391-8.526.872-17.051-1.259-25.577-.581-2.906.194-3.972 1.259-4.069 4.069-.193 13.078-.678 26.157-.871 39.236-.194 19.957-.388 40.011-.291 59.968.097 15.792-.775 31.583-1.841 47.375-.29 4.65 2.035 6.394 5.813 6.103 6.782-.484 13.466.775 20.248.484 2.228-.096 2.906-.872 3.1-3.1 1.841-18.601 1.937-37.299 3.294-55.899 1.937-25.48 1.841-51.25 2.616-79.248zM402.13 294.92c0 3.875.097 7.751 0 11.626-.194 8.913.581 9.785 9.3 9.978 5.135.097 10.367 0 15.501-.193 1.938-.097 3.778 0 5.716.387 5.232 1.26 8.041-1.453 7.266-6.878-.194-1.55-.775-3.004-.581-4.747 1.356-10.366 2.034-20.83 1.744-31.292-.097-2.519-.872-5.038-.485-7.654 1.744-13.563 1.55-27.223 1.938-40.786.29-8.526.194-17.051.872-25.576.484-5.426-.969-7.848-6.491-8.526-7.848-.969-15.695-.097-23.542-.969-6.782-.678-8.235 1.163-8.235 7.944-.097 14.048.097 28.096-.387 42.046-.582 18.31-2.519 36.427-2.616 54.64zm-97.848-9.3h-.872c0 10.463.193 20.926-.097 31.486-.097 3.778 1.259 5.134 4.941 5.231 8.331.291 16.663.969 25.091 1.647 2.229.194 3.101-.484 3.294-2.809 1.454-19.958 3.197-39.818 4.554-59.775 1.55-22.864 2.325-45.727 4.844-68.494.193-1.841.097-3.197-2.229-3.294-9.881-.29-19.666-.484-29.548-.775-2.809-.097-3.972 1.55-3.972 3.778 0 6.007-1.55 11.82-1.937 17.729-1.454 24.995-2.713 50.184-4.069 75.276zM1017.7 435.396h-1.55c0-23.058-.09-46.115.1-69.172 0-3.391-.48-4.36-4.17-4.263-7.65.097-15.013 1.647-22.666 1.841-2.906.096-3.391 1.55-3.197 4.069.484 10.172.775 20.247 1.066 30.42.871 26.254-.388 52.508.871 78.86.679 13.078.485 26.157.582 39.139 0 3.778 1.647 4.747 5.038 4.457 6.876-.485 13.856-.969 20.736-1.163 3.19-.097 4.16-1.259 3.97-4.456-.39-7.363-.68-14.823-.78-22.186-.09-19.182 0-38.364 0-57.546zm51.35-176.999h-.1V203.66c0-4.36.1-8.719-.09-13.079-.2-4.553-2.81-7.072-5.91-6.491-7.08 1.163-14.15 3.003-21.51 1.938-4.07-.582-6.4 2.615-8.33 5.619-1.36 2.034-1.46 4.553.67 6.103 2.81 2.035 2.91 4.747 3.01 7.75.58 17.729-.1 35.361.48 53.09.78 21.798.29 43.596.2 65.297 0 4.457 1.45 6.588 5.91 6.879 6.58.484 13.17.484 19.76-.097 4.46-.388 5.91-2.422 5.91-6.879-.1-21.798 0-43.595 0-65.393zm41.08-140.379c0 9.301.29 18.698-.1 27.998-.19 4.069 1.45 4.554 4.65 4.36 9.49-.484 18.99-1.066 28.48-1.163 4.07-.096 5.33-1.55 5.04-5.425-1.16-16.276 0-32.551.87-48.827.97-19.28 2.13-38.558 3.3-57.934.29-4.36-1.26-5.62-5.43-5.522-9.98.194-19.96.193-29.94.969-2.81.193-4.36 1.162-4.45 4.36-.87 27.125-3.3 54.155-2.42 81.184zM89.887 152.023c0-.097 0-.097 0 0 3.585 0 7.072 0 10.657-.097 5.328-.097 7.363-2.034 7.363-7.363 0-36.33.097-72.756 1.937-109.086.291-6.297 2.81-12.4.775-18.989-1.356-4.36-3.584-7.266-8.234-6.684-3.391.484-6.588.387-9.979-.485-9.979-2.422-15.404 2.132-15.695 12.304-.096 4.069 1.454 7.847 1.26 11.916-.484 9.01-1.453 18.02-1.26 27.03.291 10.85 0 21.604-.096 32.454-.097 11.723.097 23.251-2.422 34.877-1.454 6.297 1.259 13.079.29 19.763-.387 2.81 1.26 4.457 4.457 4.36 3.487-.194 7.266 0 10.947 0zm805.554 96.008c0-22.767-.388-45.437.678-68.204.194-3.875-1.066-4.553-4.747-4.262-8.041.775-16.082 1.356-24.123 1.453-3.585.097-4.166 1.453-4.069 4.553.484 28.58.194 57.062.872 85.642.387 16.954 1.162 33.811 1.744 50.668.096 3.1 1.453 3.778 4.262 3.584 6.394-.387 12.885-.969 19.279-.775 4.941.097 6.201-1.744 6.201-6.491-.194-21.991-.097-44.08-.097-66.168zM59.661 372.908c0-9.881-.097-16.663.097-23.445.096-2.712-.388-3.584-3.488-3.293-6.394.678-12.885.968-19.28.871-3.293 0-3.778 1.357-3.971 3.973-1.84 25.769-1.84 51.539-2.616 77.309-.29 11.238.581 22.573.484 33.811 0 13.854.776 27.708-.484 41.659-.484 5.037 1.453 6.975 5.813 6.781 5.813-.194 11.625-.678 17.438-.678 2.81 0 3.585-1.066 3.682-3.681.193-7.751.775-15.501.872-23.251.387-37.59-.679-75.373 1.453-110.056zm615.088-228.442c-.194 9.688 1.259 12.013 5.619 12.401 7.072.581 14.145.969 21.217 1.841 4.456.581 5.909-.872 5.909-5.426.291-22.088 2.229-44.177 4.166-66.072 1.647-18.988 2.228-37.976 4.36-56.868.484-4.36-1.26-5.91-5.232-5.91-7.266-.096-14.532-.096-21.798-.58-4.553-.291-6.006 1.55-6.2 5.715-.291 11.916-2.228 23.736-2.809 35.652-1.454 27.32-3.585 54.834-5.232 79.247zM777.248 28.308v-3.682c0-1.453-.582-2.616-2.229-2.519-9.009.485-18.019.872-27.029 1.454-2.325.096-3.391 1.55-3.488 3.875-.097 2.422-.193 4.844-.387 7.266-1.066 18.31-2.035 36.717-3.1 55.027a1000.648 1000.648 0 00-1.744 63.844c0 2.809.872 4.166 3.875 4.166 7.557 0 15.113 0 22.67.969 3.778.484 5.619-.775 5.522-4.941-.484-20.539 1.647-40.883 2.325-61.422.775-21.12 2.325-41.949 3.585-64.037zM485.35 144.273c2.131 0 4.262-.194 6.297 0 4.166.484 6.103-.872 6.297-5.426.194-9.785.581-19.666 1.453-29.451 2.616-31.68 3.681-63.36 6.878-94.942.194-1.647.679-3.681-1.84-3.488-9.01.678-18.02-.872-27.03-.581-2.906.097-3.875 1.453-4.069 4.166-1.259 15.597-2.712 31.098-3.778 46.696a1240.627 1240.627 0 00-2.034 38.17c-.485 13.563-2.519 26.933-2.229 40.496.097 3.197 1.163 4.65 4.263 4.069 5.232-.872 10.463.775 15.792.291zM1030.3 13.195c-12.4 0-12.6-.097-13.95 11.14-1.75 14.533-3.39 29.065-4.56 43.693-1.35 16.373-2.13 32.746-3 49.215-.48 8.719-.78 17.342-1.07 26.061-.09 2.228-.19 4.65 3.2 4.747 8.24.484 16.37 1.066 24.61 1.647 2.81.194 3.97-.969 4.07-3.972.39-12.595 1.06-25.092 1.45-37.686.39-13.854 2.04-27.611 3.29-41.465 1.46-16.179 3.01-32.455 4.65-48.633.3-2.907-.58-4.07-3.58-4.166-5.33.194-10.66-.969-15.11-.582zM500.463 242.799h.193c0-21.895-.096-43.886.097-65.781 0-3.1-.872-4.069-3.778-3.875-7.75.29-15.404.581-23.154.775-2.422.097-3.391 1.162-3.488 3.487-.29 6.394-.872 12.885-.969 19.279-.193 18.698-.193 37.396-.29 56.094-.097 18.988 0 38.073-.097 57.062 0 1.84-.485 3.584 2.422 3.487 8.719-.484 17.341-.968 26.06-1.259 2.713-.097 3.101-1.066 3.101-3.488-.194-21.991-.097-43.886-.097-65.781zM30.5 137.588v-.291c4.65 0 9.397-.097 14.047 0 2.422.097 3.488-.484 3.488-3.197.097-7.266.775-14.532.775-21.701.097-19.473 2.325-38.945 3.39-58.321a370.778 370.778 0 013.198-32.746c.484-3.197 0-5.619-4.457-5.231-8.622.775-17.34 1.356-26.06 1.55-4.457.097-5.91 2.325-6.2 6.2-1.454 18.31-3.585 36.524-4.263 54.834-.678 18.698-2.035 37.299-.969 55.996.097 2.519.775 2.907 3.003 2.81 4.65 0 9.398.097 14.048.097zm568.295 129.528c.679 18.31-.581 37.977.776 57.643.29 3.972 1.743 4.457 4.94 4.263 6.588-.291 13.273-.872 19.861-.484 4.456.29 5.909-.582 5.716-5.329-.388-10.657-.194-21.313-.097-31.97.29-31.583.484-63.166.872-94.845.096-3.972-1.454-5.135-5.135-4.844-5.328.387-10.657.484-15.985.678-9.979.484-9.591.484-10.076 10.075-1.162 21.217-.29 42.337-.872 64.813zm318.347 39.139c0 6.976.194 13.854-.097 20.829-.097 3.1 1.162 3.972 3.972 3.876 7.944 0 15.791-.001 23.735.096 2.229 0 3.101-.484 3.197-2.906.485-12.11 1.647-24.123 1.551-36.233 0-30.711 3.778-61.131 4.359-91.745.097-3.197-.775-3.972-3.681-3.875-4.844.194-9.688.097-14.532.097-12.595 0-12.595 0-13.37 12.303 0 .291 0 .679-.096.969-2.519 32.164-4.069 64.328-5.038 96.589zm169.248-.484v22.767c0 2.422.48 3.972 3.39 3.972 7.27.096 14.53.387 21.7.678 2.62.097 3.88-1.163 3.78-3.875-.19-6.782.87-13.564.97-20.248.29-19.667 2.42-39.237 3.58-58.903.97-16.566 2.14-33.133 3.49-49.699.29-4.263-1.26-5.813-5.33-6.104-7.26-.484-14.43-1.162-21.7-1.259-3.19 0-4.16.872-4.36 3.972-2.61 36.233-3.78 72.466-5.52 108.699zm-543.494 8.816v.194c4.069 0 8.041-.097 12.11 0 3.003.097 3.681-.969 3.778-3.972.388-18.892.872-37.687 1.647-56.578.485-10.754 1.744-21.507 2.325-32.261.582-11.916.775-23.832 1.163-35.749.097-2.518-.388-4.359-3.585-4.359-7.75-.194-15.5-.485-23.154-.969-3.584-.194-4.747 1.163-4.844 4.65-.969 18.02-1.841 36.039-2.325 54.156-.484 15.113-1.647 30.226-2.325 45.34-.388 8.331-.291 16.76-.485 25.188-.096 3.294 1.357 4.65 4.651 4.457 3.584-.291 7.266-.097 11.044-.097zm-9.494 68.494c-1.163-13.854-2.228-26.642-3.197-39.527-.194-2.81-1.938-3.1-3.972-2.81-5.232.582-10.463 2.035-15.792 2.035-2.131 0-2.906 1.356-2.809 3.584 1.162 20.248 1.453 40.593 2.906 60.841 1.841 24.413 2.81 48.924 4.263 73.338.581 10.172 1.259 20.247 1.744 30.42.097 2.519.678 3.972 3.681 3.681 4.941-.581 9.979-1.066 14.92-1.259 4.262-.097 5.328-1.744 5.037-5.91-1.259-20.442-2.228-40.883-3.294-61.325-1.162-21.313-2.325-42.724-3.487-63.068zm-318.347-87.58c0 5.523.097 11.335-.096 17.148-.097 2.422.581 2.907 2.906 2.907 8.429-.097 16.76.096 25.189.29 3.487.097 5.037-1.259 5.037-4.747 0-17.923 2.132-35.748 2.326-53.574.193-11.238 1.453-22.476 2.325-33.714.678-8.816 1.453-17.632 2.131-26.545.194-2.035.581-4.457-2.713-4.457-8.525-.097-17.05-.097-25.576-.387-3.197-.097-4.359 1.162-4.844 4.456-1.55 12.013-2.131 24.026-2.906 36.136-1.066 20.732-2.422 41.465-3.779 62.487zM935.452 21.236c0-1.454-.097-3.488 0-5.62.194-3.003-.969-4.36-4.166-4.456-7.556-.097-15.113-.387-22.767-.678-2.615-.097-3.584.678-3.778 3.488-1.453 19.57-3.294 39.139-4.65 58.805-1.453 20.926-2.519 41.852-3.875 62.778-.194 2.422.484 3.682 3.1 3.779 7.944.193 15.791.484 23.735.775 3.101.097 4.36-1.163 4.36-4.263.194-6.588.581-13.176.969-19.86 1.84-31.39 3.681-62.778 7.072-94.748zM804.18 270.506v4.844c-.194 13.078-.387 26.157-.581 39.139 0 2.519-.097 4.941 3.584 4.941 6.976-.097 13.854-.194 20.83-.097 2.422 0 3.39-.872 3.487-3.391.194-8.235.581-16.469.969-24.607.775-15.307 1.453-30.614 2.325-45.921 1.066-17.342 2.228-34.683 3.391-52.025.194-3.293-.775-4.553-4.263-4.65-7.944 0-15.791-.29-23.638-.872-3.779-.29-5.135.872-5.038 4.747.387 25.964-1.841 51.928-1.066 77.892zM374.132 99.999h-.388c0 11.819.194 23.541-.097 35.361-.096 3.39.969 4.262 4.069 4.165 7.557-.096 15.21-.096 22.767 0 2.422 0 3.197-.387 3.294-3.197.097-11.238.678-22.573.969-33.811.872-29.16 1.647-58.321 2.615-87.579.097-2.615-.484-3.875-3.39-3.778a817.51 817.51 0 01-21.798.29c-2.907 0-4.069 1.357-4.166 4.07-.194 7.556-1.163 15.113-1.55 22.67-1.163 20.538-1.55 41.173-2.325 61.809zm485.463-69.076h-4.456c-2.907-.096-3.972 1.357-4.166 4.07-.581 9.494-1.259 18.988-1.938 28.482-1.259 16.663-2.615 33.423-3.681 50.087-.678 9.494-.872 18.988-1.356 28.482-.097 2.422.581 3.972 3.39 4.069 8.526.194 17.051.388 25.577.775 2.809.097 4.165-1.065 4.165-3.875.097-3.584.388-7.072.485-10.657.581-18.697 2.519-37.298 3.875-55.9a2724.962 2724.962 0 013.197-39.526c.291-3.488-.872-4.94-4.456-5.038-6.491-.194-13.079-.678-20.636-.969zM309.997 135.36h.194c0 2.712.194 5.522-.097 8.234-.29 2.81.872 3.682 3.585 3.682 7.363.097 14.822.29 22.185.678 4.069.194 5.426-1.55 5.522-5.328.097-6.782.291-13.564.582-20.248 1.453-31.874 3.294-63.65 6.781-95.427.388-3.487-.872-4.65-4.069-4.844-5.328-.193-10.656-.678-15.888-.968-9.203-.485-9.107-.485-9.882 8.816-2.034 22.476-4.262 44.855-6.2 67.331-1.162 12.691-1.841 25.382-2.713 38.074zM71.674 310.227v-.387c3.875 0 7.75-.097 11.625 0 2.616.097 3.391-.969 3.391-3.391.194-6.394.581-12.885.775-19.279.484-13.854.581-27.708 1.356-41.465 1.26-21.701 3.294-43.402 5.716-65.006.291-2.809-.678-3.778-3.39-3.778-7.073.097-14.145.194-21.314.097-3.681 0-5.425 1.259-5.522 5.231-.581 12.885-1.356 25.77-2.132 38.558-.968 16.276-1.937 32.455-2.712 48.731-.581 12.4-.872 24.801-1.453 37.202-.194 3.197 1.065 3.778 3.972 3.487 3.197-.29 6.49 0 9.688 0zM948.724 96.22h.291v43.015c0 3.584 1.841 4.941 5.135 4.844 7.266 0 14.532-.097 21.798 0 2.519 0 3.39-.969 3.294-3.488-.582-13.079 0-26.061.29-39.139.581-25.286 2.519-50.571 3.778-75.76.194-3.1-.775-4.069-3.681-3.972-8.235.387-16.373.872-24.607 1.163-3.197.096-3.972 1.743-4.069 4.65-.775 22.96-1.55 45.824-2.229 68.687zM325.595 439.174c.388-24.801.291-49.699-.484-74.5-.097-4.166-1.357-5.91-5.619-5.619-4.457.29-9.01.193-13.563.096-2.616-.096-3.682.775-3.682 3.585.097 21.41 0 42.918 0 64.328 0 29.645 1.26 59.29 2.035 88.935.193 8.72.193 8.72 9.009 8.526 12.304-.194 12.304-.194 12.304-12.401v-72.95zM536.986 14.066v.097c-2.228 0-4.553.097-6.781 0-3.004-.194-4.747 1.066-4.747 4.07.193 10.172-1.55 20.247-2.229 30.323-.968 14.822-1.647 29.645-2.712 44.37-.969 14.145-2.132 28.289-3.294 42.434-.194 2.712.484 3.778 3.294 3.875 6.878.29 13.854.581 20.732 1.259 3.003.291 3.778-.678 3.972-3.584.969-12.692 2.228-25.286 3.294-37.977 1.066-13.466 2.034-27.03 3.003-40.496.969-12.982 1.841-26.06 2.81-39.042.194-3.003-.678-4.457-3.972-4.457-4.36 0-8.816-.484-13.37-.872zm-245.977 16.47c-.484-1.453 1.841-4.36-2.131-4.844-7.169-.872-14.338-1.938-21.701-1.938-2.035 0-3.294.679-3.585 3.004-.581 5.231-1.55 10.463-2.131 15.791-1.453 12.304-2.713 24.607-4.069 37.008-2.422 21.507-4.65 42.918-7.266 64.328-.388 3.391.678 4.263 3.778 4.457a586.74 586.74 0 0118.795 1.453c3.294.29 4.359-.872 4.941-4.069 2.519-14.145 3.294-28.483 5.037-42.724 2.907-23.93 5.523-47.955 8.332-72.466zM159.931 277.773h.291v3.39c.29 11.142.581 22.283.968 33.424.097 2.034-.096 4.359 3.197 4.166a729.102 729.102 0 0120.248-1.163c1.938-.097 2.81-1.066 2.422-2.713-1.356-7.266.678-14.435-.097-21.701-.968-9.978-.484-19.957-.193-29.935a8609.854 8609.854 0 012.325-70.141c.097-3.488-1.066-4.65-4.457-4.263-6.2.678-12.497 1.453-18.794 1.453-4.554.097-5.135 2.422-4.747 5.813.484 3.682.581 7.363.484 11.141-.581 23.542-1.066 47.084-1.647 70.529zM594.436 32.57c-1.647 0-3.197-.096-4.844 0-10.366.582-8.913-1.646-9.591 9.495-1.26 21.894-2.228 43.79-3.197 65.684-.581 13.079-.775 26.157-.969 39.139-.097 6.685 0 6.685 6.491 6.879 5.038.194 9.979.29 15.016.872 4.069.387 5.329-1.163 5.522-5.038 1.647-34.78 3.391-69.56 5.135-104.34.581-12.884.581-12.884-12.497-12.788-.388.097-.775.097-1.066.097zm62.681 213.62h-.194v25.189c.097 9.978.291 19.957.291 30.032 0 4.457 1.356 6.685 6.491 6.394 4.65-.29 9.3-.775 13.95-.872 4.263-.097 5.426-1.937 5.426-6.006.097-19.182.872-38.365 1.84-57.45.872-17.244 1.454-34.489 2.035-51.733.194-6.104 0-6.298-6.2-5.91-6.298.387-12.498 1.162-18.795 1.453-4.069.194-4.941 2.035-4.941 5.813.194 17.632.097 35.361.097 53.09zm-457.853-93.295v.097c4.166-.388 8.332-.872 12.498-1.066 2.712-.097 3.584-1.356 3.681-3.875.388-12.207 1.744-24.414 1.841-36.718.097-11.722 1.162-23.541 1.55-35.264.581-18.407 2.034-36.717 3.487-55.027.194-2.616-.871-3.1-3.003-2.907-6.781.582-13.466 1.163-20.248 1.647-2.906.194-3.294 1.841-3.39 4.166-.485 11.432-1.163 22.864-1.55 34.296-1.066 29.548-2.035 58.999-3.004 88.547-.194 5.716.194 6.201 5.716 6.104h2.422zm-80.216 160.723v.291c3.391 0 6.781-.194 10.172.097 3.1.29 3.779-1.066 3.779-3.876.387-18.407 2.809-36.62 4.262-54.93 1.55-19.57 3.391-39.14 5.232-58.806.193-2.228-.388-3.197-2.713-3.391a678.675 678.675 0 01-19.763-1.744c-2.325-.194-3.391.775-3.391 3.003-.097 12.304-3.197 24.317-3.875 36.524-1.357 24.317-5.426 48.343-6.782 72.563-.484 9.494-.969 9.397 8.235 9.978 1.647.194 3.197.194 4.844.291zM827.141 39.74c.484-3.973.678-10.754.872-17.536.096-2.81-.776-3.778-3.488-3.584-5.813.29-11.626.484-17.438.581-2.616 0-3.585 1.163-3.779 3.778-.872 15.889-2.422 31.777-2.906 47.762-.581 24.123-.969 48.343.097 72.466.194 4.166-2.713 9.688.29 11.916 2.907 2.131 8.332.581 12.595.775 7.266.194 8.331-.678 8.525-8.041.291-13.079 1.163-26.061 1.55-39.139.775-22.186 1.938-44.177 3.682-68.978zm-56.772 210.616c0-21.798-.097-41.852.097-61.809 0-3.488-1.066-5.038-4.65-4.844-5.329.193-10.657.29-15.985.096-3.197-.096-3.972 1.066-3.972 4.263.29 13.563.678 27.03.968 40.593.679 30.614 1.841 61.227 3.101 91.841.096 2.616.871 3.294 3.39 3.101 4.36-.485 8.623-.969 12.982-.969 3.294 0 4.263-1.26 4.069-4.36-.29-5.134-.581-10.269-.581-15.501-.194-18.116-.194-36.232.581-52.411zm-400.016 32.357v25.189c0 8.041 0 8.041 7.848 7.75 1.744-.096 3.584-.193 5.328 0 4.263.485 5.522-1.259 5.522-5.522.097-16.275.194-32.648.969-48.924.678-13.079.484-26.157.872-39.236.581-17.729.969-35.458.969-53.187 0-9.107-.485-9.204-9.882-9.204-11.044 0-9.107-2.034-9.591 9.01-1.066 24.801.097 49.603-1.938 74.501-.968 13.078-.097 26.351-.097 39.623zM627.762 140.3c0 2.713.194 5.523 0 8.235-.29 3.875.969 5.716 5.135 5.522 3.488-.193 7.072 0 10.657.388 4.069.581 5.619-1.163 5.813-5.038.581-10.947 1.937-21.798 2.325-32.842.484-12.691 2.131-25.382 3.197-38.074 1.453-17.05 2.809-34.101 4.262-51.055.194-2.713-.871-3.875-3.584-3.875-4.166-.194-8.332-.485-12.594-.678-7.073-.194-7.363-.097-7.945 6.878-.968 12.013-1.647 24.123-2.712 36.136-2.132 24.898-2.132 49.699-4.554 74.403zm-496.798-3.681c0 2.228.097 5.619 0 9.01-.097 2.809.775 4.166 3.972 3.778 3.682-.387 7.46-.775 11.044-.387 4.554.387 5.426-1.647 5.426-5.619 0-21.314 2.228-42.434 3.39-63.65 1.163-20.926 2.035-41.852 4.263-62.681.291-3.004-.872-4.263-3.778-3.972-5.135.484-10.269.29-15.404.871-3.197.388-4.069 1.841-4.069 4.65-.291 13.08-1.356 26.061-1.938 39.14-1.259 25.867-1.937 51.734-2.906 78.86zm934.796 11.335v.969c-.1 12.594-.1 12.594 12.2 12.594 7.27 0 7.46 0 7.36-7.557 0-17.244 1.26-34.489 2.33-51.733 1.65-25.576 4.07-51.056 6.1-76.632.2-2.713-.77-3.875-3.48-3.875-4.07 0-8.05 0-12.11-.097-2.33 0-3.59.872-3.78 3.294-.1 1.938-.68 3.778-.78 5.716-.97 16.372-2.9 32.745-4.36 49.118-1.84 22.863-1.64 45.63-3.48 68.203zm76.82 136.6h-1.26c-.29 12.11.29 24.22-.48 36.233-.39 6.685-.1 6.685 6.78 6.588 1.94 0 3.87-.097 5.81.097 2.71.29 3.88-.485 3.78-3.391-.68-12.304.97-24.511.97-36.717.1-12.692.77-25.48 1.26-38.171.77-21.41 1.94-42.821 3.29-64.231.97-15.21.39-15.21-15.21-13.369-3.1.387-4.07 1.55-4.16 4.553-.2 8.719-.78 17.341-.78 26.061-.1 27.513 0 54.93 0 82.347zM24.687 159.483c-1.453 0-2.906.097-4.36 0-4.165-.485-6.49.29-6.394 5.522.194 10.172-.387 20.248-.58 30.42-.485 21.217-.873 42.53-1.26 63.747-.194 12.885-.097 25.77-.582 38.655-.387 10.463-.58 10.075 9.98 10.947 4.94.388 5.812-1.259 5.909-5.716.581-22.863 1.26-45.727 2.422-68.591 1.162-21.894 3.1-43.692 4.456-65.49.581-9.494.29-9.591-9.59-9.494zm1148.603-34.005v10.172c0 2.325.97 3.585 3.49 3.585 5.52.194 10.95.484 16.37.872 2.33.097 3.59-.678 3.68-3.197.49-7.557 1.07-15.113 1.65-22.67 1.16-13.757 2.33-27.61 3.78-41.368 1.16-11.238 2.71-22.379 4.16-33.617.49-3.778-.19-6.103-4.84-6.2-4.36-.097-8.62-.775-12.98-1.453-4.65-.679-6.69 1.065-7.07 5.812-.97 12.014-2.04 24.123-3.69 36.04-2.42 17.341-3.77 34.682-4.55 52.024zM703.522 319.431c0 2.712.194 5.522 0 8.235-.194 2.809.388 4.165 3.682 3.681 2.519-.388 5.134-.097 7.75.097 7.944.678 8.429.484 8.913-7.75 1.066-18.795 1.938-37.687 3.003-56.481 1.163-21.217 2.325-42.434 3.585-63.747.097-2.228-.194-3.391-2.519-3.488-4.069-.193-8.041-.29-12.11-.484-3.003-.097-4.263 1.066-4.456 4.166-.776 12.885-2.035 25.673-2.616 38.558-.582 12.11-1.647 24.123-2.422 36.136-1.066 13.757-1.841 27.417-2.81 41.077zM434.1 148.245c1.938 0 3.391-.097 4.844 0 3.488.29 4.844-1.163 4.844-4.747.097-20.539 1.066-40.981 2.132-61.422.968-18.504 1.646-37.008 2.615-55.609.485-9.979.678-9.979-9.106-9.591-1.454 0-2.907.194-4.36.194-3.003 0-4.069 1.356-4.166 4.456-.097 6.394-.581 12.885-1.162 19.28-2.422 23.25-3.294 46.598-4.166 69.946-.291 8.913-.485 17.729-.872 26.642-.194 9.107-.097 12.304 9.397 10.851zM271.343 259.462c-2.132-.581-4.069-4.65-5.329-2.615-1.647 2.809 3.197 2.518 4.36 4.456.097.194.484.388.775.484.969.388 1.937.582 2.712-.193.679-.679.291-1.454.194-2.229-.581-4.262-1.453-8.622-.581-12.981.872-4.069-2.906-8.913 2.713-12.788-6.007 4.843-8.72-1.744-13.273-2.326 5.135 3.488 5.425 9.301 8.332 13.757-2.035.775-2.422-2.131-4.263-1.065.581 3.584 5.425 5.037 4.36 9.591-.582-.582-.969-1.066-1.454-1.357-1.55-.968-1.84-4.94-4.165-3.003-1.454 1.26 1.162 3.488 2.422 5.135.29.387.678.678 1.162.872 1.453.872 2.616 2.034 2.035 4.262zm3.293 128.366h-1.55v57.062c2.519-19.085-.581-38.074 1.55-57.062zm822.314 96.976c.78-4.36-1.45-8.138-2.23-12.207-.29-1.259-.58-3.294-2.52-2.809-1.45.387-.97 2.228-.97 3.391 0 1.065 0 2.518.68 3.197 2.52 2.518 1.94 5.522 2.13 8.525.2 2.035-1.16 5.716 1.46 5.619 2.52.097.87-3.681 1.45-5.716zM833.438 64.444c-2.132 7.266-4.844 14.435-3.779 22.185.097.872.291 2.132 1.551 1.938 1.259-.194.968-1.453 1.065-2.325.291-3.682-.872-7.557.678-10.948 1.744-3.584 1.454-7.072.485-10.85zM335.574 480.832c-.872 7.944-2.229 15.985 1.453 23.639 3.197-8.138-2.131-15.792-1.453-23.639zm456.206-180.68c0 3.681-.194 6.878.775 10.075.29 1.163.096 3.197 1.647 3.003 1.84-.193 1.453-2.228 1.356-3.584a145.325 145.325 0 00-.872-9.107c-.388-2.712 1.066-7.944-1.259-7.75-3.391.387-.776 5.134-1.647 7.363zM469.364 399.55c2.229-8.719.388-17.438.679-26.254 0-1.26.581-3.391-1.551-3.294-1.55.097-.968 2.131-1.065 3.294-.775 8.816 3.294 17.244 1.937 26.254zM5.214 175.952c-.775-2.712 1.163-7.556-1.937-7.556-3.875.096-1.744 4.844-1.841 7.556-.194 2.228-1.453 6.394 1.938 6.297 3.1.097.968-4.069 1.84-6.297zm1.841-20.829c.29 1.163-.387 3.972 1.938 3.197 2.615-.872 5.037-3.1 5.328-6.297.194-1.938-1.453-2.81-3.294-2.616-3.197.291-4.069 2.519-3.972 5.716zm339.175-18.891c.969-5.135.097-26.061-1.065-29.936.387 9.881-2.132 19.279 1.065 29.936zm-11.334 275.622h.968v-25.092h-.968v25.092zm801.774-189.981c0-1.647 0-3.197-.1-4.844 0-.969-.09-2.131-1.35-2.228-1.26-.097-1.36 1.162-1.46 2.131-.29 2.713-.77 5.425-.87 8.138-.09 1.453.2 3.294 1.94 3.391 2.13.097 1.65-1.938 1.74-3.197.2-1.163.1-2.325.1-3.391zm-565.873 31.873c0-2.422.097-4.068 0-5.619-.097-1.065-.387-2.422-1.84-2.325-1.454.097-1.744 1.357-1.744 2.519 0 1.744.097 3.585.581 5.232.581 2.034-.775 5.909 1.744 5.716 2.712-.291.775-4.166 1.259-5.523zm581.373-115.868c1.45-4.65.87-9.3.87-13.95 0-.775-.09-1.744-1.06-1.938-.68-.097-1.26.388-1.26 1.066-.2 5.038-1.26 10.075 1.45 14.822zM301.472 246.577c-1.162 5.619-.387 11.335-2.616 16.664-.387.968-.097 2.422 1.163 2.809.969.388 1.55-.484 1.647-1.259.581-6.104 1.356-12.11-.194-18.214zM1.242 81.591c.097 1.26 0 2.616.097 3.876.097 1.356-.194 3.39 1.84 3.197 1.745-.194 1.745-2.132 1.745-3.488-.097-1.938-.388-3.875-.678-5.716-.291-1.453.678-3.972-1.55-3.875-1.841.097-1.26 2.616-1.454 4.069-.097.678 0 1.356 0 1.938zm201.413 217.301c-.581-1.55 1.162-5.134-1.647-5.231-2.422-.097-1.841 3.488-2.131 5.619v.484c.387 2.228-.485 5.91 2.325 5.813 2.422-.097 1.162-3.778 1.453-5.813.097-.194 0-.387 0-.872zm780.559 146.289c-3.391 4.068-3.391 12.691-.097 15.985.581-5.426.581-10.366.097-15.985zM419.956 44.293c0 3.972-.097 7.944 0 11.916 0 1.163.581 2.325 2.034 2.034 1.163-.193 1.55-1.259 1.453-2.228-.387-4.069-.678-8.138-3.487-11.722zm628.454 80.797c-2.71 4.263-1.74 8.913-1.64 13.37 0 .484.67 1.259 1.06 1.356.97.194 1.36-.678 1.36-1.55.29-4.36.77-8.816-.78-13.176zm-647.927 96.492c-1.163-2.034 1.259-6.394-1.647-6.491-2.519-.096-1.356 4.263-1.356 6.685 0 2.132-1.26 5.91 1.647 6.007 2.131.097.678-3.875 1.356-6.201zM621.078 97.673c.969 1.938-.872 6.201 1.259 6.104 3.1-.097 1.647-4.07 1.744-6.394 0-2.228 1.647-6.297-1.55-6.394-2.325 0-.775 4.262-1.453 6.684zM460.451 82.27c0-.775.097-1.26 0-1.744-.193-1.647.388-4.36-1.937-4.166-2.616.097-1.744 2.906-1.841 4.65 0 .485 0 1.066.194 1.453.872 1.744-.484 5.232 2.131 5.038 2.325-.194 1.066-3.584 1.453-5.231zm458.628 312.339h-.968v19.183h.968v-19.183zM504.725 238.633h-2.131v22.67c1.938-7.557-.387-15.21 2.131-22.67zM354.853 48.556c1.84-3.391-.097-5.91 0-8.526 0-1.26.097-2.712-1.26-3.39-1.162-.582-1.744.387-2.228 1.259-.775 1.453-1.841 3.39-.387 4.36 2.131 1.453 2.712 3.584 3.875 6.297zM474.402 477.15c2.325-4.941 1.55-9.01 1.26-13.079-.097-.678-.582-1.163-1.357-1.066-.387.097-.872.582-.969.872-.193 4.069-1.065 8.235 1.066 13.273zm494.183-176.709a622.05 622.05 0 01-1.453-.29c-.872 3.487-1.938 6.878-2.713 10.366-.194 1.066.291 2.325 1.744 2.422 1.259.097 1.55-1.066 1.647-2.035.387-3.487.581-6.975.775-10.463zm-48.827 200.929c-.679-2.132 1.065-6.104-1.744-6.104-2.422 0-1.26 3.972-1.26 6.201 0 2.034-1.162 5.715 1.453 5.618 2.519 0 .872-3.681 1.551-5.715zm240.162-168.958c-3.97-1.938-8.04-1.454-12.01-.485-.78.194-1.65.582-1.45 1.55.29 1.163 1.35 1.357 2.32 1.163 3.68-.775 7.36-1.453 11.14-2.228zm-566.453-24.511c-1.55 4.457-1.55 8.816 0 13.176 1.163-4.36 2.422-8.719 0-13.176zM1132.7 173.724c.68 1.356-.58 4.166 2.13 4.359 1.94.194 2.33-2.034 2.03-3.584-.38-1.938.68-5.231-2.42-5.328-2.32-.097-1.35 2.712-1.74 4.553zM978.079 375.233v21.411c.484-7.072 2.713-14.242 0-21.411zM350.203 212.379c.581 0 1.162 0 1.646-.097-.193-5.231.679-10.56-1.646-15.694v15.791zM57.723 88.469c2.131-3.68 1.55-7.265 1.453-10.947 0-.968-.29-2.13-1.453-2.13-1.26 0-1.356 1.259-1.26 2.227.388 3.682.776 7.266 1.26 10.85zm356.226 21.993c-.29-1.841.291-4.166-2.422-4.651-1.356-.193-2.325.872-1.937 2.132.581 2.131.678 5.037 2.809 5.716 1.938.678 1.26-1.938 1.55-3.197zm689.591-82.154c-1.07 3.39-1.26 6.006.29 8.428.77 1.163 2.13 1.453 3.39 1.066.77-.194 1.07-1.163.48-1.453-2.61-1.744-1.26-5.522-4.16-8.041zM810.187 537.41c1.356-.291 3.778.387 3.487-1.938-.193-2.131-2.615-1.937-4.262-1.937-1.357 0-3.391-.291-3.294 1.647.097 2.518 2.422 1.937 4.069 2.228zM831.5 140.494v9.688c0 .872-.097 2.228 1.163 2.325 1.55.097 1.55-1.356 1.647-2.422.29-3.197-.097-6.2-2.81-9.591zm-672.344-83.22c.678 4.845-.484 9.882.969 14.726.387-4.94 2.325-9.978-.969-14.725zM226.1 87.308c-.582-1.647.775-4.747-1.357-4.844-2.325-.096-1.55 2.907-1.453 4.65 0 1.745-.097 4.65 2.132 4.457 2.034-.194.29-2.713.678-4.263zm40.592 173.802c.775 4.844 4.747 7.848 6.782 12.013.969-5.812-4.747-7.847-6.782-12.013zm-7.75-20.538c-.194-1.453.097-3.391-1.647-3.488-2.325-.194-2.034 2.035-2.034 3.488 0 1.356-.388 3.391 1.453 3.488 2.131.193 2.034-1.938 2.228-3.488zm698.017-39.236c-1.55 3.875-1.356 6.781-1.259 9.688 0 .775.097 1.84 1.065 1.937 1.357.097 1.357-1.065 1.454-2.034.29-3.004-.485-5.813-1.26-9.591zM157.703 355.567h-1.357v10.172c0 .969.194 2.228 1.357 2.132 1.55-.097 1.453-1.647 1.162-2.616-.968-3.1-1.356-6.297-1.162-9.688zM662.93 75.875c-1.163 4.166-1.26 8.332 0 12.498 1.356-4.166 1.162-8.332 0-12.498zM199.361 188.353c0-1.647-.969-2.325-2.422-2.422-1.744-.194-3.294.387-3.488 2.325-.097 1.647 1.163 2.131 2.519 2.131 1.55 0 2.907-.29 3.391-2.034zM414.724 13.776c-1.065 4.262-1.162 8.428.194 12.594.775-4.263 1.55-8.428-.194-12.594zM915.689 3.41c-1.647-.775-3.197-.097-4.651.193-1.647.291-4.844-.968-4.456 1.55.29 2.229 3.488 1.357 5.425 1.163 1.55-.194 2.907-1.163 3.682-2.906zM420.537 478.895c-.969 4.165-1.162 8.331 0 13.756 1.356-5.037 1.453-9.397 0-13.756zM382.851 6.219c2.809-2.034 5.522-2.906 8.428-2.712.872.096 2.132-.097 2.132-1.357-.097-1.162-1.26-1.26-2.228-1.356-2.81-.388-6.588 1.937-8.332 5.425zm206.353 271.36c-.871 4.069-1.065 8.235.194 12.207.872-4.069 1.26-8.138-.194-12.207zm-224.082-22.864h-.678v23.348h.678v-23.348zm793.348-145.997c-.49 0-.97.097-1.36.097v9.009c0 .775.39 1.744 1.26 1.744.97.097 1.36-.872 1.26-1.647-.29-3.1-.77-6.2-1.16-9.203zm-21.8 147.547c-.19-1.356.19-3.487-1.65-3.584-1.84-.097-1.84 1.937-2.03 3.294-.19 1.453.1 3.294 1.74 3.487 2.33.194 1.65-1.937 1.94-3.197zm-429.369-57.449c-.872 3.294-1.454 6.491-.969 9.881 0 .097 1.065.388 1.162.194 1.744-2.422.678-5.231 1.26-7.847.097-.775.29-1.647-1.453-2.228zM166.616 71.806c1.84-3.1.387-5.909.193-8.912-.096-.872-.29-2.132-1.646-1.744-1.066.387-1.066 1.55-.776 2.422.679 2.712 1.454 5.425 2.229 8.235zm933.434 434.602c1.84-4.165 2.13-8.428 0-12.594v12.594zm-823.767 11.82c-.193-1.357.097-3.197-1.937-3.197-1.938 0-1.841 1.84-1.841 3.294 0 1.259.097 2.809 1.647 3.003 2.131.097 1.938-1.647 2.131-3.1zm381.803-408.929c.194 1.356-.194 3.294 1.937 3.1 1.55-.097 1.744-1.647 1.647-3.003 0-1.453 0-3.197-1.84-3.294-2.035-.097-1.454 1.841-1.744 3.197zm-373.083-92.81c-.388-1.841-2.035-2.423-3.488-2.81-1.356-.388-2.81-.097-2.713 1.744.097 1.743 1.55 2.325 3.1 2.519 1.163.193 2.519.29 3.101-1.454zM157.897 317.105c-.291-1.647-1.26-2.132-2.519-1.841-1.938.581-3.488 1.744-3.682 3.972-.097.872.775 1.744 1.453 1.259 1.647-1.162 4.263-1.065 4.748-3.39zm477.228 115.286v16.47c-.097-5.522 1.938-10.948 0-16.47zm197.247-5.812c-.097-1.066 0-2.616-1.453-2.616-2.131 0-2.228 1.937-2.228 3.487 0 1.26 0 2.907 1.84 2.519 1.841-.193 1.744-1.937 1.841-3.39zM731.617 105.133c-1.84.485-1.84 2.035-1.743 3.488.096 1.356.387 2.906 2.131 2.519 1.55-.291 1.55-1.841 1.55-3.197-.097-1.163-.194-2.519-1.938-2.81zm155.105 11.723c.193 1.356-.194 3.197 1.84 3.197 1.647 0 1.841-1.55 1.55-2.81-.387-1.453 0-3.778-1.937-3.778-1.841 0-1.163 2.131-1.453 3.391zM78.842 342.488c.195 1.26-.096 3.197 1.648 2.907 1.937-.291 1.55-2.519 1.84-4.069.194-1.066 0-2.713-1.356-2.616-2.228.194-1.84 2.325-2.131 3.778zm391.104 104.63v-14.241c-.775 4.844-2.81 9.494 0 14.241zm-343.632-73.241v7.169c0 .872 0 2.228 1.356 2.132 1.163-.097 1.163-1.357 1.26-2.229.29-2.422-.582-4.359-2.616-7.072zM15.387 18.038c1.937.388 2.325-1.259 3.487-1.84 1.454-.775 4.748-.872 3.682-2.616-1.357-2.422-3.488.678-5.232 1.162-1.26.388-2.228 1.454-1.937 3.294zm926.847 18.504c.775-2.906 1.162-5.425-.194-7.653-.291-.484-1.357-.29-1.55.387-.678 2.422-1.26 4.941 1.744 7.266zM15.774 314.2c2.713.097 4.747 2.422 7.557 1.26.775-.291.872-1.647.194-2.035-2.325-1.453-4.844-.872-7.363-.29 0 .097 0 .29-.388 1.065zm994.086 44.759c1.35-.388 3.48 0 3.68-2.132.09-1.356-1.46-1.453-2.62-1.453-1.45 0-3.1 0-3.39 1.841-.29 1.647 1.16 1.647 2.33 1.744zM693.931 213.929c-1.259 4.941-1.453 8.428.194 11.819.775-3.487 1.066-6.975-.194-11.819zM395.348 7.285c-2.809-.969-5.134-1.356-7.556.194-.097.096 0 1.065.194 1.162 2.325.872 4.65.969 6.878-.387.194 0 .194-.291.484-.97zm172.834 271.263c-1.551 3.487-1.26 6.878-.194 10.269 1.162-3.391.969-6.879.194-10.269zM710.788 21.429c1.55.29 2.907.485 4.166.872.581.194 1.163.485 1.744.775 1.453.485 3.294 1.26 2.422-1.453-.581-1.744-2.713-1.453-4.263-1.453-1.259 0-2.809-.581-4.069 1.26zm-18.891 166.536c-2.422 3.682-1.357 6.297.29 8.913.582-2.712 1.26-5.328-.29-8.913zm323.483 140.476c1.55-.194 1.94-1.454 1.94-2.713.09-1.259 0-2.81-1.75-2.713-1.55.097-1.74 1.647-1.74 2.907-.1 1.162.09 2.325 1.55 2.519zM467.039.891c-.193.194-.29.387-.484.581 1.647 1.84 3.197 3.778 4.941 5.522.678.775 1.744 1.163 2.519.194.775-.969.193-1.84-.582-2.422-2.228-1.26-4.359-2.519-6.394-3.875zm128.559 264.19c-1.743 3.294-1.937 6.685 0 10.076v-10.076zm107.052-19.86c-1.162.194-1.84.969-1.743 2.228 0 1.454.193 3.004 2.034 3.294 1.259.194 1.453-.969 1.55-1.937 0-1.357.194-2.907-1.841-3.585zM422.668 109.977c-.29-1.259.388-3.197-1.55-3.487-1.453-.194-1.84 1.162-1.743 2.325.193 1.55 0 3.681 2.034 3.875 1.453.194 1.066-1.647 1.259-2.713zM414.143 6.994c-.387-1.453-1.453-2.034-2.809-2.131-1.454-.097-2.519.581-2.229 2.228.194 1.26.969 2.035 2.229 1.938 1.162-.194 2.518-.388 2.809-2.035zM250.901 90.407c-1.356.388-1.55 1.454-1.259 2.616.29 1.356.29 3.391 2.034 3.294 1.647 0 1.259-1.937 1.259-3.1 0-1.356-.387-2.616-2.034-2.81zm916.479 282.017c-.19-1.066-.19-2.519-1.84-2.131-1.16.29-2.52.871-2.52 2.422-.09 1.453.58 2.712 2.04 2.712 1.74 0 1.93-1.647 2.32-3.003zM657.311 133.325h.484c.291-2.809.678-5.619.969-8.525.097-.775-.194-1.744-1.066-1.938-1.453-.194-1.55 1.066-1.453 1.938.291 2.906.678 5.716 1.066 8.525zM831.016 24.433c.097.968-.581 2.518 1.065 2.712 1.647.194 2.035-1.356 2.132-2.616.097-1.259.29-3.1-1.163-3.294-2.228-.29-1.259 2.035-2.034 3.198zm63.456 10.269c1.647-.582 1.744-2.035 1.841-3.488.096-1.066.097-2.713-1.26-2.616-2.034.29-1.453 2.52-1.841 3.876-.29 1.065-.096 2.034 1.26 2.228zM364.638 284.264c-1.938 3.972-.194 7.75.387 11.625.388-3.875.775-7.75-.387-11.625zM120.404 494.105c1.066-3.101 1.453-6.104-.29-9.204-.679 3.003-1.357 6.103.29 9.204zm596.391 5.231c-.581 3.197-1.066 5.619.194 7.75.29.582 1.356.582 1.55-.193.872-2.325.096-4.554-1.744-7.557zM351.946 70.644c-.193-1.163.291-2.906-1.453-3.1-1.453-.097-1.453 1.453-1.356 2.519.097 1.26-.581 3.294 1.55 3.294 1.356 0 1.066-1.744 1.259-2.713zm114.609 100.367c.678.485-.581 2.422 1.162 2.325 1.841-.096 2.326-1.84 2.326-3.487 0-1.26-.582-2.229-2.035-2.035-1.647.194-1.55 1.55-1.453 3.197zm667.305 116.837c.97-2.809 1.36-5.716-.19-9.785-1.16 4.069-.97 6.879.19 9.785zM504.338 352.66c.775-3.003.969-5.231-.969-7.072-.194-.193-1.066-.097-1.259.194-1.647 2.228.678 3.681 1.065 5.619.097.194.485.484 1.163 1.259zM363.572 195.619c1.066-3.1 1.55-6.201-.291-10.27-.969 4.166-.969 7.266.291 10.27zM252.16 296.761c-.775 2.906-1.743 5.91.582 9.979.387-4.263.678-7.17-.582-9.979zm427.239 75.954c-.387-.872.388-2.713-1.259-3.004-1.55-.193-1.356 1.357-1.356 2.422 0 1.163-.388 3.004 1.162 3.197 1.55.291 1.163-1.453 1.453-2.615zm-159.367-82.251c1.163-.097 1.454-1.066 1.357-2.035 0-1.356.581-3.294-1.454-3.584-1.356-.194-1.743 1.356-1.84 2.422-.097 1.259.387 2.519 1.937 3.197zm244.621 38.074c3.294.484 5.329 1.356 7.266-.194.194-.097 0-1.066-.29-1.163-2.035-1.453-4.069-1.065-6.976 1.357zM223.678 16.488c1.55-2.034 1.356-3.681-.194-4.94-1.55-1.26-3.197-1.357-4.844-.097 2.713.678 4.844 1.647 5.038 5.037zM103.935 194.65c-.291-1.066.484-2.906-1.454-2.906-1.356 0-1.356 1.646-1.356 2.712 0 1.163-.291 3.003 1.55 2.907 1.357 0 1.066-1.647 1.26-2.713zM60.823 519.778c-.387-1.357-1.453-1.647-2.615-1.357-1.163.291-2.81.582-2.422 2.326.29 1.356 1.743 1.162 2.906 1.065 1.162-.097 2.131-.581 2.131-2.034zm517.628-356.517c1.453-.194 2.906-.581 3.197-2.228.29-1.26-.872-1.744-1.841-1.55-1.356.29-3.003.678-3.391 2.228-.194 1.356 1.066 1.453 2.035 1.55zM167.003 19.491c.969-2.615 1.453-4.65-.387-6.49-.485-.485-1.357-.388-1.647.194-.775 2.325.29 4.068 2.034 6.297zm660.622 128.366c-.194-1.066.097-2.713-1.356-2.616-1.647.097-1.357 1.938-1.357 3.101 0 1.065-.193 2.712 1.26 2.518 1.744-.097 1.259-1.84 1.453-3.003zM329.373 498.464c-.484 2.81-1.259 5.716.291 8.429 1.066-2.907 1.356-5.716-.291-8.429zm470.06-478.972c-2.616 3.294-2.325 6.394.194 9.397-.291-3.1-.291-6.2-.194-9.397zM716.31 358.183c1.357-.194 3.294.29 3.585-1.454.291-1.55-1.356-1.356-2.422-1.356-1.356 0-3.294-.097-3.585 1.55-.387 1.647 1.454 1.066 2.422 1.26zm468.03 164.307c3 1.938 5.13 1.55 6.97-.581-2.32-.872-4.55-1.259-6.97.581zM963.838 360.992c-.291-.872-.388-2.422-1.841-2.713-1.744-.29-1.453 1.26-1.55 2.326 0 1.259-.097 2.809 1.744 2.712 1.162 0 1.647-.969 1.647-2.325zM1157.5 84.11c-1.55.485-1.65 1.841-1.84 3.1-.19 1.357.48 2.229 1.84 2.229s2.03-.97 1.84-2.228c-.19-1.26-.29-2.616-1.84-3.1zM593.37 227.59c1.163-3.391.678-6.491-.775-9.591 0 3.294-.969 6.588.775 9.591zM9.865 98.158c-.872 2.616-1.163 5.135.193 7.557.872-2.616 1.163-5.135-.193-7.557zm505.517 20.732h-.581c-.484 2.325-1.066 4.553-1.55 6.879-.194.775-.194 1.743.775 1.937 1.065.194 1.259-.775 1.356-1.55v-7.266zm-46.018 348.379c-2.228 2.131-2.131 4.069-1.55 6.007.194.581 1.066 1.162 1.454.581 1.356-1.647.871-3.682.096-6.588zM711.563 152.41c.969-3.972.969-7.847-.097-11.722-.581 3.972.582 7.847.097 11.722zm-183.199 34.877c.775-2.616 1.647-5.231-1.453-7.363-.969 3.004.194 5.135 1.453 7.363zm106.664 329.391c1.841 1.84 3.682 2.809 6.007 1.55.194-.097.388-1.066.194-1.26-1.744-1.744-3.682-1.937-6.201-.29zm522.862-371.34c2.52-3.003 1.35-5.134 0-7.266-.97 2.228-1.36 4.554 0 7.266zm-898.367 52.025c1.55 1.84-.387 4.359 1.55 5.909.678.581 1.26-.484 1.454-1.356.775-2.325-.097-3.875-3.004-4.553zM507.632 3.507c.969-.097 2.228 0 2.325-1.26.097-1.647-1.356-1.55-2.422-1.55S504.919.6 505.016 2.15c0 1.453 1.55 1.26 2.616 1.357zm10.657 143.672c0-1.066-.291-2.035-1.357-2.228-1.453-.194-1.937.872-2.034 2.131-.097 1.066.194 2.131 1.356 2.228 1.356.097 1.841-.969 2.035-2.131zM1076.9 16.392c0-1.26-.88-1.744-1.94-1.647-1.45.096-2.42.872-2.52 2.421 0 .97.68 1.454 1.55 1.357 1.36-.097 2.52-.678 2.91-2.131zM948.046 355.47c-1.356.194-2.519.484-2.519 2.131 0 .872.776 1.26 1.647 1.26 1.26-.097 2.616-.388 2.81-1.841.097-1.356-.969-1.453-1.938-1.55zm64.524-330.36c-2.91 2.81-3.1 5.135-1.55 7.945 0-2.422 2.23-4.457 1.55-7.944zm-501.547 87.967c1.065-2.422 1.162-4.359 0-6.2-.388-.581-1.26-.484-1.55.194-.872 2.034-.485 3.875 1.55 6.006zM286.94 97.286c-.678 2.422-1.744 4.844-.387 7.944 2.131-2.906 1.55-5.425.387-7.944zm557.155-24.123c-2.616 1.647-3.004 3.488-2.422 5.619.193.581.775 1.26 1.356.872 1.744-1.163.775-3.197 1.162-4.747.097-.388 0-.872-.096-1.744zm-48.15-29.258c-.096 2.81-.775 4.844.582 6.685.097.194 1.065.097 1.162-.097 1.066-2.131.775-4.166-1.744-6.588zM255.261 61.15c-.388-1.26-.485-3.003-2.326-3.003-1.162 0-1.453 1.162-1.356 2.13.097 1.357.775 2.52 2.131 2.81 1.26.194 1.551-.775 1.551-1.937zm162.467 4.36c1.356-2.035 1.453-3.779.29-5.523-.387-.58-1.356-.484-1.55.194-.775 1.84-.484 3.585 1.26 5.329zM844.87 40.61c0-.968 0-2.13-1.26-2.13-1.259 0-1.647 1.258-1.937 2.324-.291 1.066.193 1.938 1.259 2.035 1.453 0 1.841-1.066 1.938-2.229zM210.987 310.227c-.097-1.162-.485-2.228-1.744-2.422-1.357-.193-1.453.872-1.55 1.841 0 1.066.097 2.325 1.55 2.422 1.259 0 1.647-.872 1.744-1.841zM57.432 34.702c1.938-1.647 2.229-3.294 1.647-5.232-.193-.678-1.065-.968-1.453-.484-1.26 1.647-1.26 3.488-.194 5.716zm609.179 94.748c-1.55 2.325-2.325 3.972-.969 5.91.194.193 1.066.193 1.26 0 1.162-1.841 1.065-3.585-.291-5.91zm-541.363 10.754c.291.872-.484 2.615 1.356 2.325 1.26-.194 1.357-1.647 1.26-2.713 0-1.066 0-2.616-1.55-2.325-1.357.097-.872 1.647-1.066 2.713zm176.03-.969c-.097-1.066-.387-2.035-1.55-2.132-1.453-.096-1.84.969-1.84 2.132 0 .969.387 1.937 1.453 2.034 1.55.194 1.84-.969 1.937-2.034zm437.993 70.722c.872-.484 1.162-1.356 1.066-2.325 0-1.066.096-2.519-1.454-2.616-1.162 0-1.259 1.26-1.259 2.228 0 1.066.097 2.229 1.647 2.713zM536.889 356.148c-.193-.775-.193-2.034-1.453-1.937-1.453.193-1.259 1.647-1.259 2.712 0 .969 0 2.228 1.259 2.132 1.453-.194 1.357-1.647 1.453-2.907zm169.152-189.787c-2.325-1.066-4.65-1.55-7.556.194 3.003 1.066 5.328 1.065 7.556-.194zm-528.865 19.473c2.325.775 4.553 1.066 6.587-.291-2.325-.872-4.553-1.162-6.587.291zm800.903 293.642c3.197-1.26 4.069-3.488 2.616-7.072a495.408 495.408 0 00-2.616 7.072zm-57.934-3.972c-.097-1.163-.581-2.229-1.841-2.325-1.065-.097-1.744.678-1.84 1.647-.194 1.356.484 2.131 1.743 2.228 1.066.097 1.841-.388 1.938-1.55zm-268.26-284.923c1.163 0 1.938-.484 1.938-1.647 0-1.259-.291-2.616-1.744-3.1-1.259-.388-1.647.775-1.647 1.744-.193 1.259-.193 2.615 1.453 3.003zm319.316 122.553c-.775 1.937-1.647 3.681-.194 5.716.194.193 1.162.29 1.162.096.872-1.84.775-3.681-.193-5.425 0-.194-.291-.194-.775-.387zM39.703 205.888c.194-3.1.97-5.135-.775-6.878-.193-.194-1.162-.194-1.259 0-1.066 1.84.581 3.293.678 5.037-.097.291.29.485 1.356 1.841z" fill="#3858E9"/>
</svg>
