<svg width="1000" height="400" fill="none" xmlns="http://www.w3.org/2000/svg"><g clip-path="url(#clip0_1916_7203)"><path fill="#151515" d="M0 0h1000v400H0z"/><ellipse opacity=".2" cx="500" cy="463" rx="1497" ry="249" fill="url(#paint0_radial_1916_7203)"/><path opacity=".4" d="M1138 449h1v-85.046c0-11.162 0-19.596-.55-26.307-.55-6.732-1.66-11.818-3.92-16.261a40.976 40.976 0 0 0-17.92-17.917c-4.44-2.264-9.52-3.371-16.26-3.921-6.71-.548-15.14-.548-26.3-.548H801.953c-11.161 0-19.596 0-26.306.548-6.732.55-11.818 1.657-16.261 3.921a41.006 41.006 0 0 0-17.917 17.917c-2.264 4.443-3.371 9.529-3.921 16.261-.548 6.71-.548 15.145-.548 26.306V449h401z" stroke="url(#paint1_linear_1916_7203)" stroke-width="2"/><path opacity=".4" d="M1058 291a119.98 119.98 0 0 0-35.15-84.853A119.987 119.987 0 0 0 938 171a120.003 120.003 0 0 0-120 120" stroke="url(#paint2_linear_1916_7203)" stroke-width="3"/></g><defs><radialGradient id="paint0_radial_1916_7203" cx="0" cy="0" r="1" gradientUnits="userSpaceOnUse" gradientTransform="matrix(0 249 -1497 0 500 463)"><stop stop-color="#3858E9"/><stop offset="1" stop-color="#151515" stop-opacity="0"/></radialGradient><linearGradient id="paint1_linear_1916_7203" x1="938" y1="300" x2="938" y2="448" gradientUnits="userSpaceOnUse"><stop stop-color="#C7FFDB"/><stop offset="1" stop-color="#151515" stop-opacity="0"/></linearGradient><linearGradient id="paint2_linear_1916_7203" x1="938" y1="171" x2="938" y2="291" gradientUnits="userSpaceOnUse"><stop stop-color="#3858E9"/><stop offset=".563" stop-color="#3858E9" stop-opacity="0"/></linearGradient><clipPath id="clip0_1916_7203"><path fill="#fff" d="M0 0h1000v400H0z"/></clipPath></defs></svg>