<svg width="936" height="400" viewBox="0 0 936 400" fill="none" xmlns="http://www.w3.org/2000/svg">
  <path fill="#1D35B4" d="M0 0h936v400H0z"/>
  <path d="M1333.98 1370.56H119.164V1481H1333.98v-110.44ZM1333.98 1186.5H119.164v110.44H1333.98V1186.5ZM1156.09 638.78c57.96-57.962 102.85-125.587 133.43-200.961 29.52-72.778 44.49-149.68 44.49-228.533 0-78.853-14.97-155.755-44.49-228.534-30.58-75.392-75.47-142.999-133.43-200.96-57.96-57.962-125.59-102.855-200.962-133.428-72.778-29.524-149.68-44.488-228.533-44.488-78.853 0-155.755 14.964-228.533 44.488-75.393 30.573-142.999 75.466-200.961 133.428-57.962 57.961-102.855 125.586-133.428 200.96-29.524 72.78-44.488 149.681-44.488 228.552 0 78.872 14.964 155.755 44.488 228.534 30.573 75.392 75.466 142.999 133.428 200.96a618.102 618.102 0 0 0 13.216 12.811l78.135-78.135a508.957 508.957 0 0 1-13.271-12.774c-93.873-93.872-145.558-218.667-145.558-351.414 0-132.747 51.685-257.542 145.558-351.414 93.872-93.873 218.667-145.558 351.414-145.558 132.747 0 257.542 51.685 351.415 145.558 93.87 93.872 145.56 218.667 145.56 351.414 0 132.747-51.69 257.542-145.56 351.414l-441.735 441.73H532.15l493.79-493.783c79.95-79.957 124-186.272 124-299.343 0-113.07-44.03-219.385-124-299.342-79.96-79.958-186.275-124.004-299.345-124.004-113.07 0-219.386 44.028-299.343 124.004-79.957 79.975-124.003 186.272-124.003 299.342 0 113.071 44.028 219.386 124.003 299.343 4.344 4.344 8.798 8.559 13.308 12.719l78.19-78.19c-4.583-4.087-9.074-8.283-13.418-12.627-121.997-121.998-121.997-320.51 0-442.526 121.998-121.997 320.51-121.997 442.526 0 59.102 59.103 91.642 137.68 91.642 221.263s-32.54 162.16-91.642 221.263L375.972 1002.43H271.847l623.958-623.934c93.302-93.302 93.302-245.1 0-338.401C850.617-5.093 790.52-29.997 726.613-29.997c-63.907 0-124.003 24.886-169.191 70.092-45.188 45.187-70.091 105.284-70.091 169.191s24.885 124.004 70.091 169.191a239.904 239.904 0 0 0 13.51 12.517l78.54-78.54a130.885 130.885 0 0 1-13.952-12.075c-24.333-24.333-37.733-56.692-37.733-91.112 0-34.419 13.4-66.778 37.733-91.111s56.692-37.733 91.112-37.733c34.42 0 66.778 13.4 91.111 37.733 50.231 50.231 50.231 131.974 0 182.223L119.222 998.901v113.949H1334.04v-110.43H792.49l363.64-363.64h-.04ZM-1277.19-91.013c-75.54 75.54-134.04 163.632-173.87 261.849-38.45 94.848-57.94 195.033-57.94 297.815 0 102.781 19.49 202.967 57.96 297.796 39.83 98.217 98.33 186.309 173.87 261.853 75.54 75.54 163.63 134.03 261.85 173.86 94.827 38.45 195.031 57.96 297.794 57.96 102.762 0 202.967-19.49 297.796-57.96 98.216-39.83 186.309-98.32 261.849-173.86 75.54-75.544 134.035-163.636 173.867-261.853 38.45-94.829 57.961-195.034 57.961-297.796 0-102.763-19.492-202.967-57.961-297.797-39.832-98.216-98.327-186.31-173.867-261.85-48.74-48.739-102.91-90.448-161.681-124.647l-81.228 81.227c60.52 31.788 115.85 72.54 164.829 121.52 128.624 128.623 199.47 299.655 199.47 481.565 0 181.91-70.846 352.942-199.47 481.566C-364.584 1078.86-535.616 1149.7-717.526 1149.7c-181.91 0-352.944-70.84-481.564-199.465-128.63-128.624-199.47-299.656-199.47-481.566 0-181.91 70.84-352.942 199.47-481.566L-593.007-619h-156.178L-1277.19-91.013Z" fill="#213FD4"/>
  <path d="M-1147.02 39.138c-57.96 57.962-102.86 125.587-133.43 200.961-29.52 72.778-44.49 149.68-44.49 228.533 0 78.853 14.97 155.755 44.49 228.533 30.57 75.393 75.47 142.999 133.43 200.961 57.96 57.962 125.58 102.854 200.958 133.424 72.779 29.53 149.681 44.49 228.534 44.49 78.853 0 155.754-14.96 228.533-44.49 75.393-30.57 142.999-75.462 200.961-133.424 57.962-57.962 102.855-125.587 133.428-200.961 29.523-72.778 44.488-149.68 44.488-228.533 0-78.853-14.965-155.755-44.488-228.533-30.573-75.393-75.466-143-133.428-200.961C-336.903-9.731-393.815-49.875-455.716-79.51l-83.97 83.97c64.735 24.83 124.169 63.355 173.572 112.776 93.873 93.873 145.558 218.668 145.558 351.414 0 132.747-51.685 257.542-145.558 351.415-93.872 93.872-218.667 145.557-351.414 145.557-132.747 0-257.542-51.703-351.412-145.557-93.87-93.873-145.56-218.668-145.56-351.415 0-132.746 51.69-257.541 145.56-351.414L-332.706-619h-156.178L-1147.02 39.138Z" fill="#213FD4"/>
  <path d="M-72.403-619h-156.178l-788.309 788.289c-79.96 79.958-124 186.273-124 299.343 0 113.07 44.03 219.386 124 299.343 79.958 79.957 186.273 124.004 299.343 124.004 113.071 0 219.404-44.047 299.343-124.004C-338.247 688.018-294.2 581.702-294.2 468.632c0-113.07-44.028-219.385-124.004-299.361-50.857-50.838-112.371-87.136-179.48-106.849l-94.333 94.333c73.957 5.926 142.686 37.567 195.733 90.614 59.103 59.103 91.646 137.68 91.646 221.263 0 83.584-32.543 162.16-91.646 221.263-59.102 59.103-137.679 91.645-221.263 91.645-83.583 0-162.16-32.542-221.262-91.645-59.103-59.103-91.641-137.679-91.641-221.263 0-83.583 32.538-162.16 91.641-221.263L-72.403-619Z" fill="#213FD4"/>
</svg>
