<svg width="382" height="463" fill="none" xmlns="http://www.w3.org/2000/svg">
  <path d="M145.188 250.097s-11.586 3.662-12.064 2.677c-.479-.984 2.23.774.114-7.334-2.115-8.109-23.919-16.143-23.249-14.087.671 2.056 34.626 143.402 70.698 201.355 0 0 5.969 7.07 2.591 18.86" stroke="#1E1E1E" stroke-width="2" stroke-linecap="round" stroke-linejoin="round"/>
  <path d="m110.327 223.338-1.905 4.617 2.719 1.126 2.301-1.824-3.115-3.919Zm0 0c3.115 3.919 3.116 3.918 3.118 3.917l.004-.004.014-.011.048-.039.177-.141a170.005 170.005 0 0 0 3.095-2.574 264.56 264.56 0 0 0 8.557-7.621c7.025-6.524 16.33-15.809 25.411-26.837 9.065-11.01 18.012-23.883 24.212-37.585 6.193-13.687 9.783-28.509 7.692-43.253-6.465-45.589-50.772-76.288-98.397-69.665C36.634 46.15 2.58 87.748 9.045 133.337c2.091 14.744 9.665 28.013 19.426 39.481 9.772 11.481 21.953 21.415 33.73 29.526 11.796 8.124 23.324 14.512 31.892 18.867a267.38 267.38 0 0 0 10.346 4.992c1.249.568 2.233 1.001 2.91 1.295l.782.335.208.088.058.024.016.006.005.003c.002 0 .004.001 1.909-4.616Z" fill="#fff" stroke="#fff" stroke-width="10"/>
  <path d="m109.98 228.201-7.578 22.991s6.168 3.421 15.804.934l-5.973-23.823-2.253-.102Z" fill="#fff"/>
  <rect x="106" y="233.128" width="9" height="2" rx="1" transform="rotate(-.815 106 233.128)" fill="#1E1E1E"/>
  <path d="M294.325 242.139c-1.065-.105-27.318 5.204-24.956-5.487 0 0 .495-2.865 3.506-6.483 0 0 6.764-9.294-3.601-11.954 0 0-9.446-1.754-12.025-5.016L152.045 368.455l14.787 27.241s13.521 25.847 32.305 35.85" stroke="#1E1E1E" stroke-width="2" stroke-linecap="round" stroke-linejoin="round"/>
  <path d="m257.447 200.963-2.862 4.104 2.451 1.706 2.666-1.351-2.255-4.459Zm0 0a739.01 739.01 0 0 0 2.258 4.457l.005-.002.017-.008.055-.029c.047-.024.115-.058.202-.104.175-.09.429-.222.757-.395a181.86 181.86 0 0 0 2.814-1.52 265.502 265.502 0 0 0 9.978-5.798c8.248-5.025 19.308-12.321 30.515-21.397 11.189-9.061 22.651-19.996 31.601-32.323 8.942-12.315 15.565-26.283 16.63-41.339 3.292-46.559-33.479-86.347-81.53-89.68-48.052-3.331-90.063 30.995-93.354 77.553-1.065 15.056 3.528 29.802 10.649 43.23 7.129 13.443 16.94 25.853 26.745 36.37 9.821 10.533 19.746 19.285 27.206 25.399a264.686 264.686 0 0 0 9.065 7.119 171.026 171.026 0 0 0 3.452 2.52l.051.036.015.01.004.003c.002.001.003.002 2.865-4.102Z" fill="#fff" stroke="#fff" stroke-width="10"/>
  <path d="m257.965 207.459 2.594 24.048s-6.751 2.078-15.656-2.336l10.837-22.076 2.225.364Z" fill="#fff"/>
  <rect x="252.136" y="210.563" width="8" height="2" rx="1" transform="rotate(3.25 252.136 210.563)" fill="#1E1E1E"/>
  <path d="M93.67 116.884c4.373-.77 8.572-.744 12.595.08 4.008.737 7.599 2.179 10.773 4.325 3.174 2.146 5.828 4.925 7.963 8.337 2.222 3.396 3.726 7.325 4.512 11.786.833 4.724.713 9.164-.358 13.321-.984 4.142-2.767 7.838-5.351 11.089-2.568 3.339-5.821 6.122-9.757 8.349-3.921 2.314-8.331 3.903-13.23 4.766-6.823 1.203-13.2.839-19.132-1.092-5.845-1.946-10.606-5.166-14.284-9.659l8.254-12.277a27.758 27.758 0 0 0 10.618 6.517c4.028 1.364 8.01 1.699 11.947 1.006 4.723-.833 8.326-2.911 10.806-6.234 2.553-3.426 3.413-7.501 2.581-12.224-.802-4.549-2.892-7.968-6.272-10.259-3.293-2.306-7.126-3.073-11.5-2.302a17.716 17.716 0 0 0-7.787 3.401c-2.219 1.744-3.87 3.884-4.957 6.421L65.74 144.94c-.046-.262-.041-1.255.016-2.979l.156-6.792c.047-2.804.091-5.878.133-9.223.027-3.431.09-6.915.188-10.45.156-8.324.318-17.642.485-27.953l45.923-8.094 2.821 16.008-33.196 5.85-.128 21.533c.849-1.322 2.218-2.511 4.106-3.565 1.976-1.07 4.451-1.867 7.425-2.391ZM147.158 166.232l.002-19.186 14.655.002-.002 19.185-14.655-.001ZM233.754 87.603c.484-4.593 1.818-8.784 4.002-12.573 2.185-3.79 4.933-6.984 8.243-9.582 3.407-2.679 7.275-4.638 11.603-5.88 4.417-1.232 9.054-1.593 13.913-1.082 5.3.558 9.967 2.031 14.003 4.42 4.124 2.4 7.492 5.611 10.105 9.637 2.613 4.026 4.431 8.817 5.455 14.373 1.12 5.476 1.323 11.615.608 18.417-.902 8.568-2.584 16.072-5.048 22.511-2.366 6.36-5.371 11.581-9.016 15.663-3.565 4.18-7.721 7.181-12.468 9.004-4.747 1.823-9.902 2.442-15.467 1.856-5.919-.622-11.261-2.479-16.026-5.571-4.766-3.091-8.62-7.203-11.563-12.335l11.373-10.057c1.767 3.58 4.231 6.474 7.393 8.682 3.161 2.208 6.73 3.521 10.705 3.939 5.918.623 10.846-1.226 14.783-5.545 4.026-4.31 6.578-10.74 7.656-19.289-2.101 2.994-4.972 5.237-8.612 6.73-3.64 1.492-7.713 2.002-12.218 1.528-4.681-.493-8.926-1.743-12.734-3.751-3.807-2.008-7.02-4.579-9.638-7.713-2.617-3.133-4.566-6.687-5.844-10.662-1.27-4.063-1.672-8.303-1.208-12.72ZM269.94 73.46a16.117 16.117 0 0 0-6.911.746c-2.125.67-4.07 1.76-5.837 3.271-1.757 1.423-3.238 3.187-4.442 5.293-1.106 2.028-1.785 4.234-2.036 6.619-.251 2.385-.046 4.683.614 6.896a21.262 21.262 0 0 0 3.139 5.823 17.186 17.186 0 0 0 5.175 4.296c2.027 1.106 4.233 1.785 6.618 2.035 2.385.251 4.684.047 6.897-.614 2.213-.66 4.153-1.706 5.822-3.138a17.575 17.575 0 0 0 4.282-5.042c1.195-2.018 1.917-4.22 2.168-6.605a16.124 16.124 0 0 0-.746-6.91c-.651-2.302-1.688-4.33-3.111-6.088-1.423-1.757-3.143-3.233-5.161-4.428-1.929-1.185-4.086-1.903-6.471-2.154Z" fill="#1E1E1E"/>
</svg>