<svg width="936" height="400" viewBox="0 0 936 400" fill="none" xmlns="http://www.w3.org/2000/svg">
  <path fill="#1D35B4" d="M0 0h936v400H0z"/>
  <path d="M401.54 62.66c16.569 0 30-13.431 30-30 0-16.568-13.431-30-30-30-16.569 0-30 13.431-30 30 0 16.569 13.431 30 30 30ZM439.64 156.1c16.569 0 30-13.431 30-30 0-16.568-13.431-30-30-30-16.569 0-30 13.432-30 30 0 16.569 13.431 30 30 30ZM446.99 256.73c16.569 0 30-13.431 30-30 0-16.569-13.431-30-30-30-16.569 0-30 13.431-30 30 0 16.569 13.431 30 30 30ZM422.89 354.71c16.569 0 30-13.431 30-30 0-16.568-13.431-30-30-30-16.569 0-30 13.432-30 30 0 16.569 13.431 30 30 30ZM369.69 440.44c16.568 0 30-13.432 30-30 0-16.569-13.432-30-30-30-16.569 0-30 13.431-30 30 0 16.568 13.431 30 30 30ZM107.99 448.77c16.569 0 30-13.431 30-30 0-16.569-13.431-30-30-30-16.569 0-30 13.431-30 30 0 16.569 13.431 30 30 30ZM14.66 419.42c16.569 0 30-13.432 30-30 0-16.569-13.431-30-30-30-16.569 0-30 13.431-30 30 0 16.568 13.431 30 30 30ZM46.44 24.54c16.569 0 30-13.431 30-30 0-16.569-13.431-30-30-30-16.568 0-30 13.431-30 30 0 16.569 13.431 30 30 30ZM143.27 10.49c16.569 0 30-13.431 30-30 0-16.569-13.431-30-30-30-16.569 0-30 13.431-30 30 0 16.569 13.431 30 30 30ZM236.6 39.85c16.569 0 30-13.431 30-30 0-16.569-13.431-30-30-30-16.568 0-30 13.431-30 30 0 16.569 13.432 30 30 30ZM307.96 106.79c16.569 0 30-13.431 30-30 0-16.569-13.431-30-30-30-16.568 0-30 13.431-30 30 0 16.569 13.432 30 30 30ZM343.2 198.06c16.569 0 30-13.432 30-30 0-16.569-13.431-30-30-30-16.568 0-30 13.431-30 30 0 16.568 13.432 30 30 30ZM335.35 295.59c16.569 0 30-13.431 30-30 0-16.569-13.431-30-30-30-16.568 0-30 13.431-30 30 0 16.569 13.432 30 30 30ZM285.97 380.05c16.569 0 30-13.431 30-30 0-16.568-13.431-30-30-30-16.569 0-30 13.432-30 30 0 16.569 13.431 30 30 30ZM204.82 434.72c16.569 0 30-13.431 30-30 0-16.569-13.431-30-30-30-16.568 0-30 13.431-30 30 0 16.569 13.432 30 30 30ZM8.81 224.56c16.569 0 30-13.431 30-30 0-16.568-13.431-30-30-30-16.568 0-30 13.432-30 30 0 16.569 13.432 30 30 30ZM46.61 143.44c16.569 0 30-13.431 30-30 0-16.569-13.431-30-30-30-16.568 0-30 13.431-30 30 0 16.569 13.432 30 30 30ZM130.71 112.81c16.569 0 30-13.431 30-30 0-16.569-13.431-30-30-30-16.568 0-30 13.431-30 30 0 16.569 13.432 30 30 30ZM211.83 150.61c16.569 0 30-13.431 30-30 0-16.568-13.431-30-30-30-16.568 0-30 13.432-30 30 0 16.569 13.432 30 30 30ZM242.45 234.71c16.569 0 30-13.431 30-30 0-16.568-13.431-30-30-30-16.568 0-30 13.432-30 30 0 16.569 13.432 30 30 30ZM204.65 315.83c16.569 0 30-13.431 30-30 0-16.568-13.431-30-30-30-16.568 0-30 13.432-30 30 0 16.569 13.432 30 30 30ZM120.56 346.45c16.569 0 30-13.431 30-30 0-16.568-13.431-30-30-30-16.568 0-30 13.432-30 30 0 16.569 13.432 30 30 30ZM39.44 308.65c16.569 0 30-13.431 30-30 0-16.568-13.431-30-30-30-16.568 0-30 13.432-30 30 0 16.569 13.432 30 30 30Z" fill="#213FD4"/>
  <path d="M126 230c16.569 0 30-13.431 30-30 0-16.569-13.431-30-30-30-16.569 0-30 13.431-30 30 0 16.569 13.431 30 30 30Z" fill="#33F078"/>
</svg>
