<svg width="1005" height="500" viewBox="0 -50 1005 550" fill="none" xmlns="http://www.w3.org/2000/svg"><g opacity=".5" clip-path="url(#clip0_1462_333)" fill="#273FCC" stroke="#627EFF" stroke-width="2" stroke-miterlimit="10"><path d="M580.347 367.235c-33.922-11.205-70.505 7.21-81.711 41.132-11.205 33.922 7.21 70.505 41.132 81.71 33.922 11.206 70.505-7.21 81.71-41.132 11.206-33.921-7.209-70.504-41.131-81.71z"/><path d="M568.518 341.834c-33.922-11.206-70.505 7.209-81.711 41.131-11.205 33.922 7.21 70.505 41.132 81.711 33.922 11.205 70.505-7.21 81.71-41.132 11.206-33.922-7.21-70.505-41.131-81.71z"/><path d="M556.665 316.433c-33.922-11.205-70.505 7.21-81.71 41.132-11.206 33.922 7.209 70.505 41.131 81.71 33.922 11.206 70.505-7.21 81.711-41.131 11.205-33.922-7.21-70.505-41.132-81.711z"/><path d="M544.806 291.021c-33.921-11.205-70.504 7.21-81.71 41.132-11.205 33.922 7.21 70.505 41.132 81.71 33.922 11.206 70.505-7.209 81.71-41.131 11.206-33.922-7.21-70.505-41.132-81.711z"/><path d="M532.966 265.625c-33.922-11.205-70.505 7.21-81.71 41.132-11.206 33.922 7.209 70.505 41.131 81.71 33.922 11.206 70.505-7.21 81.711-41.132 11.205-33.921-7.21-70.504-41.132-81.71z"/><path d="M521.125 240.22c-33.922-11.206-70.505 7.209-81.711 41.131-11.205 33.922 7.21 70.505 41.132 81.71 33.922 11.206 70.505-7.209 81.71-41.131 11.206-33.922-7.21-70.505-41.131-81.71z"/><path d="M509.272 214.819c-33.922-11.205-70.505 7.21-81.711 41.132-11.205 33.922 7.21 70.505 41.132 81.71 33.922 11.206 70.505-7.21 81.71-41.131 11.206-33.922-7.209-70.505-41.131-81.711zM709.467 173.444c-15.098-32.378-53.584-46.386-85.962-31.288-32.377 15.098-46.385 53.584-31.287 85.962 15.097 32.378 53.584 46.385 85.962 31.288 32.377-15.098 46.385-53.585 31.287-85.962z"/><path d="M731.428 163.203c-15.098-32.378-53.585-46.386-85.962-31.288-32.378 15.098-46.386 53.585-31.288 85.962 15.098 32.378 53.585 46.386 85.962 31.288 32.378-15.098 46.386-53.584 31.288-85.962z"/><path d="M753.401 152.957c-15.098-32.378-53.585-46.385-85.962-31.288-32.378 15.098-46.386 53.585-31.288 85.962 15.098 32.378 53.584 46.386 85.962 31.288 32.378-15.098 46.385-53.584 31.288-85.962z"/><path d="M775.715 142.894c-15.097-32.378-53.584-46.386-85.962-31.288-32.377 15.098-46.385 53.585-31.287 85.962 15.098 32.378 53.584 46.386 85.962 31.288 32.377-15.098 46.385-53.584 31.287-85.962z"/><path d="M799.654 139.896c-15.097-32.378-53.584-46.385-85.962-31.288-32.377 15.098-46.385 53.585-31.287 85.962 15.098 32.378 53.584 46.386 85.962 31.288 32.377-15.098 46.385-53.584 31.287-85.962z"/><path d="M822.252 146.602c-15.098-32.377-53.584-46.385-85.962-31.287-32.377 15.097-46.385 53.584-31.288 85.962 15.098 32.377 53.585 46.385 85.963 31.287 32.377-15.098 46.385-53.584 31.287-85.962z"/><path d="M840.516 161.924c-15.098-32.378-53.584-46.386-85.962-31.288-32.377 15.098-46.385 53.585-31.287 85.962 15.098 32.378 53.584 46.386 85.962 31.288 32.377-15.098 46.385-53.585 31.287-85.962z"/><path d="M852.266 183.509c-15.098-32.377-53.584-46.385-85.962-31.287-32.378 15.097-46.386 53.584-31.288 85.962 15.098 32.377 53.585 46.385 85.962 31.287 32.378-15.098 46.386-53.584 31.288-85.962z"/><path d="M862.507 205.47c-15.098-32.378-53.585-46.386-85.962-31.288-32.378 15.098-46.386 53.585-31.288 85.962 15.098 32.378 53.585 46.386 85.962 31.288 32.378-15.098 46.386-53.584 31.288-85.962z"/><path d="M872.747 227.431c-15.098-32.378-53.584-46.386-85.962-31.288-32.377 15.098-46.385 53.585-31.287 85.962 15.098 32.378 53.584 46.386 85.962 31.288 32.377-15.098 46.385-53.585 31.287-85.962z"/><path d="M882.993 249.403c-15.098-32.377-53.584-46.385-85.962-31.287-32.378 15.098-46.385 53.584-31.288 85.962 15.098 32.377 53.585 46.385 85.962 31.287 32.378-15.097 46.386-53.584 31.288-85.962z"/><path d="M893.234 271.364c-15.098-32.377-53.585-46.385-85.962-31.287-32.378 15.098-46.386 53.584-31.288 85.962 15.098 32.377 53.584 46.385 85.962 31.287 32.378-15.098 46.385-53.584 31.288-85.962z"/><path d="M903.48 293.337c-15.098-32.378-53.585-46.386-85.962-31.288-32.378 15.098-46.386 53.585-31.288 85.962 15.098 32.378 53.584 46.386 85.962 31.288 32.378-15.098 46.386-53.585 31.288-85.962z"/><path d="M913.72 315.298c-15.098-32.378-53.584-46.386-85.962-31.288-32.377 15.098-46.385 53.585-31.287 85.962 15.097 32.378 53.584 46.386 85.962 31.288 32.377-15.098 46.385-53.585 31.287-85.962z"/><path d="M923.966 337.27c-15.098-32.377-53.584-46.385-85.962-31.287-32.377 15.098-46.385 53.584-31.287 85.962 15.098 32.377 53.584 46.385 85.962 31.287 32.377-15.098 46.385-53.584 31.287-85.962z"/><path d="M934.207 359.231c-15.098-32.377-53.585-46.385-85.962-31.287-32.378 15.097-46.386 53.584-31.288 85.962 15.098 32.377 53.584 46.385 85.962 31.287 32.378-15.098 46.386-53.584 31.288-85.962z"/><path d="M944.447 381.192c-15.098-32.378-53.584-46.385-85.962-31.288-32.377 15.098-46.385 53.585-31.287 85.962 15.097 32.378 53.584 46.386 85.962 31.288 32.377-15.098 46.385-53.584 31.287-85.962z"/><path d="M954.139 403.751c-15.098-32.377-53.585-46.385-85.962-31.287-32.378 15.098-46.386 53.584-31.288 85.962 15.098 32.377 53.585 46.385 85.962 31.287 32.378-15.098 46.386-53.584 31.288-85.962z"/><path d="M955.736 427.687c-15.097-32.378-53.584-46.385-85.962-31.288-32.377 15.098-46.385 53.585-31.287 85.962 15.098 32.378 53.584 46.386 85.962 31.288 32.377-15.098 46.385-53.584 31.287-85.962z"/><path d="M947.775 449.857c-15.098-32.378-53.585-46.386-85.962-31.288-32.378 15.098-46.386 53.584-31.288 85.962 15.098 32.378 53.584 46.386 85.962 31.288 32.378-15.098 46.386-53.585 31.288-85.962zM302.013 442.238c-15.098-32.378-53.584-46.386-85.962-31.288-32.378 15.098-46.385 53.584-31.288 85.962 15.098 32.377 53.585 46.385 85.962 31.288 32.378-15.098 46.386-53.585 31.288-85.962z"/><path d="M292.638 419.531c-15.098-32.378-53.584-46.386-85.962-31.288-32.378 15.098-46.385 53.584-31.288 85.962 15.098 32.378 53.585 46.385 85.962 31.288 32.378-15.098 46.386-53.585 31.288-85.962z"/><path d="M291.856 395.629c-15.098-32.378-53.585-46.386-85.962-31.288-32.378 15.098-46.386 53.585-31.288 85.962 15.098 32.378 53.585 46.386 85.962 31.288 32.378-15.098 46.386-53.585 31.288-85.962z"/><path d="M300.528 373.727c-15.098-32.377-53.584-46.385-85.962-31.287-32.378 15.098-46.386 53.584-31.288 85.962 15.098 32.377 53.585 46.385 85.962 31.287 32.378-15.098 46.386-53.584 31.288-85.962z"/><path d="M317.59 356.778c-15.097-32.378-53.584-46.385-85.962-31.288-32.377 15.098-46.385 53.585-31.287 85.962 15.098 32.378 53.584 46.386 85.962 31.288 32.377-15.098 46.385-53.584 31.287-85.962z"/><path d="M339.58 345.925c-15.098-32.378-53.585-46.386-85.962-31.288-32.378 15.098-46.386 53.585-31.288 85.962 15.098 32.378 53.585 46.386 85.962 31.288 32.378-15.098 46.386-53.585 31.288-85.962z"/><path d="M361.552 335.679c-15.098-32.378-53.584-46.386-85.962-31.288-32.377 15.098-46.385 53.585-31.287 85.962 15.098 32.378 53.584 46.386 85.962 31.288 32.377-15.098 46.385-53.585 31.287-85.962z"/><path d="M383.513 325.438c-15.098-32.377-53.584-46.385-85.962-31.287-32.378 15.098-46.385 53.584-31.288 85.962 15.098 32.377 53.585 46.385 85.962 31.287 32.378-15.098 46.386-53.584 31.288-85.962zM709.303 173.52c-15.098-32.377-53.585-46.385-85.962-31.287-32.378 15.097-46.386 53.584-31.288 85.962 15.098 32.377 53.585 46.385 85.962 31.287 32.378-15.098 46.386-53.584 31.288-85.962z"/><path d="M696.312 145.662c-15.098-32.378-53.584-46.386-85.962-31.288-32.377 15.098-46.385 53.584-31.287 85.962 15.098 32.378 53.584 46.385 85.962 31.288 32.377-15.098 46.385-53.585 31.287-85.962z"/><path d="M683.316 117.791c-15.098-32.377-53.584-46.385-85.962-31.287-32.377 15.098-46.385 53.584-31.287 85.962 15.098 32.377 53.584 46.385 85.962 31.287 32.377-15.098 46.385-53.584 31.287-85.962z"/><path d="M670.326 89.933c-15.098-32.378-53.585-46.386-85.962-31.288-32.378 15.098-46.386 53.585-31.288 85.962 15.098 32.378 53.584 46.386 85.962 31.288 32.378-15.098 46.385-53.585 31.288-85.962z"/><path d="M657.138 61.866C642.04 29.49 603.554 15.481 571.176 30.58c-32.378 15.098-46.385 53.584-31.288 85.962 15.098 32.377 53.585 46.385 85.962 31.287 32.378-15.098 46.386-53.584 31.288-85.962z"/><path d="M640.504 34.98C625.406 2.6 586.919-11.407 554.542 3.69c-32.378 15.098-46.386 53.585-31.288 85.962 15.098 32.378 53.584 46.386 85.962 31.288 32.378-15.098 46.385-53.584 31.288-85.962z"/><path d="M619.971 12.008c-15.098-32.378-53.584-46.386-85.962-31.288-32.378 15.098-46.385 53.585-31.288 85.962 15.098 32.378 53.585 46.386 85.962 31.288 32.378-15.098 46.386-53.585 31.288-85.962z"/><path d="M596.188-6.822c-15.098-32.377-53.584-46.385-85.962-31.287-32.377 15.098-46.385 53.584-31.287 85.962 15.098 32.377 53.584 46.385 85.962 31.288 32.377-15.098 46.385-53.585 31.287-85.963z"/><path d="M569.809-21.27c-15.098-32.379-53.585-46.386-85.962-31.289-32.378 15.098-46.386 53.585-31.288 85.963 15.098 32.377 53.585 46.385 85.962 31.287 32.378-15.098 46.386-53.584 31.288-85.962z"/><path d="M541.451-31.115c-15.098-32.378-53.584-46.386-85.962-31.288-32.377 15.098-46.385 53.585-31.287 85.962 15.098 32.378 53.584 46.386 85.962 31.288 32.377-15.098 46.385-53.585 31.287-85.962z"/><path d="M511.752-36.123C496.654-68.5 458.168-82.508 425.79-67.41c-32.377 15.097-46.385 53.584-31.288 85.962 15.098 32.377 53.585 46.385 85.962 31.287 32.378-15.098 46.386-53.584 31.288-85.962z"/><path d="M481.353-36.05c-15.098-32.378-53.585-46.386-85.962-31.288-32.378 15.098-46.386 53.584-31.288 85.962 15.098 32.378 53.584 46.386 85.962 31.288 32.378-15.098 46.386-53.585 31.288-85.962z"/><path d="M450.895-30.684C435.797-63.06 397.311-77.07 364.933-61.97c-32.377 15.097-46.385 53.584-31.287 85.962 15.098 32.377 53.584 46.385 85.962 31.287 32.377-15.098 46.385-53.584 31.287-85.962z"/><path d="M421.022-19.78c-15.098-32.377-53.585-46.385-85.962-31.287-32.378 15.098-46.386 53.584-31.288 85.962 15.098 32.377 53.585 46.385 85.962 31.287 32.378-15.098 46.386-53.584 31.288-85.962z"/><path d="M393.528-3.833c-15.098-32.378-53.584-46.386-85.962-31.288-32.377 15.098-46.385 53.585-31.287 85.962 15.098 32.378 53.584 46.386 85.962 31.288 32.377-15.098 46.385-53.585 31.287-85.962z"/><path d="M369.902 16.12c-15.098-32.378-53.585-46.386-85.962-31.288-32.378 15.098-46.386 53.585-31.288 85.962 15.098 32.378 53.584 46.386 85.962 31.288 32.377-15.098 46.385-53.584 31.288-85.962z"/><path d="M350.385 39.41C335.288 7.031 296.801-6.977 264.423 8.121c-32.377 15.098-46.385 53.584-31.287 85.962 15.098 32.377 53.584 46.385 85.962 31.287 32.377-15.098 46.385-53.584 31.287-85.962z"/><path d="M335.205 65.416c-15.098-32.378-53.584-46.386-85.962-31.288-32.377 15.098-46.385 53.585-31.287 85.962 15.098 32.378 53.584 46.386 85.962 31.288 32.377-15.098 46.385-53.585 31.287-85.962z"/><path d="M324.605 93.498C309.507 61.12 271.02 47.112 238.643 62.21c-32.378 15.098-46.386 53.585-31.288 85.962 15.098 32.378 53.584 46.386 85.962 31.288 32.378-15.098 46.386-53.584 31.288-85.962z"/><path d="M318.803 123.025c-15.098-32.378-53.585-46.386-85.962-31.288-32.378 15.098-46.386 53.585-31.288 85.962 15.098 32.378 53.585 46.386 85.962 31.288 32.378-15.098 46.386-53.584 31.288-85.962z"/><path d="M318.027 153.349c-15.098-32.377-53.585-46.385-85.962-31.287-32.378 15.097-46.386 53.584-31.288 85.962 15.098 32.377 53.584 46.385 85.962 31.287 32.377-15.098 46.385-53.584 31.288-85.962z"/><path d="M322.518 183.829c-15.097-32.378-53.584-46.386-85.962-31.288-32.377 15.098-46.385 53.585-31.287 85.962 15.098 32.378 53.584 46.386 85.962 31.288 32.377-15.098 46.385-53.585 31.287-85.962z"/><path d="M332.51 213.857c-15.098-32.378-53.585-46.386-85.962-31.288-32.378 15.098-46.386 53.585-31.288 85.962 15.098 32.378 53.584 46.386 85.962 31.288 32.378-15.098 46.386-53.585 31.288-85.962z"/><path d="M344.841 241.709c-15.098-32.378-53.585-46.386-85.962-31.288-32.378 15.098-46.386 53.585-31.288 85.962 15.098 32.378 53.585 46.386 85.962 31.288 32.378-15.098 46.386-53.584 31.288-85.962z"/><path d="M357.831 269.567c-15.097-32.377-53.584-46.385-85.962-31.287-32.377 15.098-46.385 53.584-31.287 85.962 15.098 32.377 53.584 46.385 85.962 31.287 32.377-15.097 46.385-53.584 31.287-85.962z"/><path d="M370.828 297.438c-15.098-32.378-53.585-46.386-85.962-31.288-32.378 15.098-46.386 53.584-31.288 85.962 15.098 32.378 53.584 46.386 85.962 31.288 32.377-15.098 46.385-53.585 31.288-85.962z"/><path d="M383.818 325.296c-15.098-32.377-53.584-46.385-85.962-31.287-32.378 15.097-46.386 53.584-31.288 85.962 15.098 32.377 53.585 46.385 85.962 31.287 32.378-15.098 46.386-53.584 31.288-85.962z"/></g><defs><clipPath id="clip0_1462_333"><path fill="#fff" transform="rotate(-25 233.984 51.873)" d="M0 0h740v789.924H0z"/></clipPath></defs></svg>
