<svg width="488" height="400" fill="none" xmlns="http://www.w3.org/2000/svg">
  <g clip-path="url(#a)">
    <path d="M173.886 255.422c-.131-7.011-16.159-17.747-16.017-15.944.142 1.804.084 123.458 17.927 177.596 0 0 3.442 6.907-1.572 15.86" stroke="#1E1E1E" stroke-width="2" stroke-linecap="round" stroke-linejoin="round"/>
    <path d="m157.615 229.483-2.246 4.468 2.651 1.333 2.44-1.689-2.845-4.112Zm0 0c2.845 4.112 2.846 4.111 2.848 4.11l.004-.003.013-.009.044-.03.156-.11a150.404 150.404 0 0 0 2.73-1.985 221.922 221.922 0 0 0 7.552-5.894c6.212-5.06 14.481-12.304 22.668-21.026 8.171-8.705 16.373-18.999 22.346-30.17 5.965-11.157 9.861-23.48 8.978-36.11-2.721-38.908-37.994-67.44-78.238-64.626-40.243 2.814-71.203 35.978-68.482 74.886.883 12.629 6.456 24.29 13.916 34.509 7.47 10.231 17.025 19.283 26.328 26.766 9.321 7.498 18.517 13.521 25.373 17.666a221.46 221.46 0 0 0 8.299 4.787c1.005.549 1.798.97 2.346 1.257l.633.328.171.087.047.024.014.007.005.002c.002.001.003.002 2.249-4.466Z" fill="#fff" stroke="#fff" stroke-width="10"/>
    <path d="m156.896 238.884-7.61 18.766s4.903 3.214 13.019 1.694l-3.551-20.245-1.858-.215Z" fill="#fff"/>
    <rect x="155.111" y="239" width="6.5" height="2" rx="1" transform="rotate(3.18 155.111 239)" fill="#1E1E1E"/>
    <path d="M370.474 314.076c-.847.263-19.158 12.849-20.847 3.841 0 0-.557-2.369.56-6.132 0 0 2.129-9.353-6.654-8.051 0 0-7.785 1.702-10.819.021l-29.619 153.729 20.188 16.22s18.766 15.554 36.374 17.191" stroke="#1E1E1E" stroke-width="2" stroke-linecap="round" stroke-linejoin="round"/>
    <path d="m333.646 295.052-3.153 3.88 2.341 1.903 2.774-1.184-1.962-4.599Zm0 0c1.962 4.599 1.964 4.598 1.965 4.598l.005-.002.015-.007.049-.021.176-.076c.152-.067.372-.163.656-.29a146.22 146.22 0 0 0 2.431-1.113 221.36 221.36 0 0 0 8.625-4.283c7.139-3.733 16.748-9.209 26.586-16.169 19.333-13.677 40.984-34.082 44.526-59.281 5.5-39.136-22.916-74.916-62.943-80.541-40.027-5.626-77.204 20.935-82.704 60.072-3.542 25.199 11.647 50.781 26.461 69.257 7.539 9.403 15.266 17.315 21.099 22.871a221.01 221.01 0 0 0 7.111 6.494 141.778 141.778 0 0 0 2.58 2.2 21 21 0 0 1 .149.122l.041.034.012.01.004.003c.002.001.003.002 3.156-3.878Z" fill="#fff" stroke="#fff" stroke-width="10"/>
    <path d="m333.526 305.878.742 20.237s-5.705 1.346-12.814-2.855l10.252-17.814 1.82.432Z" fill="#fff"/>
    <rect x="329.397" y="305.112" width="5.997" height="2" rx="1" transform="rotate(7.245 329.397 305.112)" fill="#1E1E1E"/>
    <path d="M391.411 200.957a2.058 2.058 0 0 0-1.031-.853c-.37-.141-7.335-2.746-21.144-5.181-10.426-1.838-16.715-1.58-21.755-1.372-.669.027-1.317.053-1.953.073-1.686.055-3.467.195-5.192.327-3.712.292-7.573.588-10.649.075-3.07-.57-6.585-2.168-9.985-3.714-1.574-.713-3.203-1.454-4.768-2.083-.591-.236-1.195-.485-1.819-.741-4.668-1.92-10.482-4.309-20.901-6.146-14.014-2.471-21.347-2.366-21.652-2.36a2.063 2.063 0 0 0-1.396.577 2.032 2.032 0 0 0-.618 1.37l-.266 6.139a2.053 2.053 0 0 0 1.197 1.945c1.895.874 1.925 1.149 2.157 3.291.02.208.045.425.072.656.145 1.241.395 3.217.657 5.302.322 2.622.707 5.599.943 7.643.336 2.94 1.24 10.758 15.054 14.97 10.902 3.325 18.757 3.46 24.016.415 5.125-2.971 10.636-13.081 12.065-16.426a6.683 6.683 0 0 1 .873-1.583l5.324.939a6.93 6.93 0 0 1 .279 1.786c.198 3.635 1.921 15.02 5.716 19.561 2.872 3.432 7.658 5.725 14.531 6.937 2.707.463 5.438.761 8.18.893 6.03.321 10.844-.71 14.328-3.058 3.024-2.044 4.315-4.62 4.941-5.871a683.689 683.689 0 0 1 3.381-6.634c1.011-1.969 1.967-3.828 2.549-4.996l.293-.592c.95-1.933 1.072-2.181 3.152-2.354a2.044 2.044 0 0 0 1.788-1.42l1.85-5.856a2.03 2.03 0 0 0-.217-1.659Z" fill="#1E1E1E"/>
    <rect x="388.21" y="200.63" width="39.784" height="7.784" rx="2" transform="rotate(12 388.21 200.63)" fill="#1E1E1E"/>
  </g>
  <defs>
    <clipPath id="a">
      <path fill="#fff" d="M0 0h488v400H0z"/>
    </clipPath>
  </defs>
</svg>
