<svg width="1000" height="400" fill="none" xmlns="http://www.w3.org/2000/svg"><g clip-path="url(#clip0_1916_6764)"><path fill="#151515" d="M0 0h1000v400H0z"/><ellipse opacity=".2" cx="500" cy="463" rx="1497" ry="249" fill="url(#paint0_radial_1916_6764)"/><path opacity=".4" d="M301 449h1v-89.047c0-5.561 0-9.795-.276-13.17-.277-3.397-.839-6.013-2.013-8.317a21 21 0 0 0-9.177-9.177c-2.304-1.174-4.92-1.736-8.317-2.013-3.375-.276-7.609-.276-13.17-.276h-96.094c-5.561 0-9.795 0-13.17.276-3.397.277-6.013.839-8.317 2.013a21 21 0 0 0-9.177 9.177c-1.174 2.304-1.736 4.92-2.013 8.317-.276 3.375-.276 7.609-.276 13.17V449h161z" stroke="url(#paint1_linear_1916_6764)" stroke-width="2"/><path opacity=".4" d="M493 449h1v-89.047c0-5.561 0-9.795-.276-13.17-.277-3.397-.839-6.013-2.013-8.317a21 21 0 0 0-9.177-9.177c-2.304-1.174-4.92-1.736-8.317-2.013-3.375-.276-7.609-.276-13.17-.276h-96.094c-5.561 0-9.795 0-13.17.276-3.397.277-6.013.839-8.317 2.013a21 21 0 0 0-9.177 9.177c-1.174 2.304-1.736 4.92-2.013 8.317-.276 3.375-.276 7.609-.276 13.17V449h161z" stroke="url(#paint2_linear_1916_6764)" stroke-width="2"/><path opacity=".4" d="M685 449h1v-89.047c0-5.561 0-9.795-.276-13.17-.277-3.397-.839-6.013-2.013-8.317a21 21 0 0 0-9.177-9.177c-2.304-1.174-4.92-1.736-8.317-2.013-3.375-.276-7.609-.276-13.17-.276h-96.094c-5.561 0-9.795 0-13.17.276-3.397.277-6.013.839-8.317 2.013a21 21 0 0 0-9.177 9.177c-1.174 2.304-1.736 4.92-2.013 8.317-.276 3.375-.276 7.609-.276 13.17V449h161z" stroke="url(#paint3_linear_1916_6764)" stroke-width="2"/><path opacity=".4" d="M877 449h1v-89.047c0-5.561 0-9.795-.276-13.17-.277-3.397-.839-6.013-2.013-8.317a21 21 0 0 0-9.177-9.177c-2.304-1.174-4.92-1.736-8.317-2.013-3.375-.276-7.609-.276-13.17-.276h-96.094c-5.561 0-9.795 0-13.17.276-3.397.277-6.013.839-8.317 2.013a21 21 0 0 0-9.177 9.177c-1.174 2.304-1.736 4.92-2.013 8.317-.276 3.375-.276 7.609-.276 13.17V449h161z" stroke="url(#paint4_linear_1916_6764)" stroke-width="2"/></g><defs><radialGradient id="paint0_radial_1916_6764" cx="0" cy="0" r="1" gradientUnits="userSpaceOnUse" gradientTransform="matrix(0 249 -1497 0 500 463)"><stop stop-color="#3858E9"/><stop offset="1" stop-color="#151515" stop-opacity="0"/></radialGradient><linearGradient id="paint1_linear_1916_6764" x1="221" y1="328" x2="221" y2="448" gradientUnits="userSpaceOnUse"><stop stop-color="#3858E9"/><stop offset="1" stop-color="#151515" stop-opacity="0"/></linearGradient><linearGradient id="paint2_linear_1916_6764" x1="413" y1="328" x2="413" y2="448" gradientUnits="userSpaceOnUse"><stop stop-color="#FFFCB5"/><stop offset="1" stop-color="#151515" stop-opacity="0"/></linearGradient><linearGradient id="paint3_linear_1916_6764" x1="605" y1="328" x2="605" y2="448" gradientUnits="userSpaceOnUse"><stop stop-color="#C7FFDB"/><stop offset="1" stop-color="#151515" stop-opacity="0"/></linearGradient><linearGradient id="paint4_linear_1916_6764" x1="797" y1="328" x2="797" y2="448" gradientUnits="userSpaceOnUse"><stop stop-color="#FFB7A7"/><stop offset="1" stop-color="#151515" stop-opacity="0"/></linearGradient><clipPath id="clip0_1916_6764"><path fill="#fff" d="M0 0h1000v400H0z"/></clipPath></defs></svg>