<svg width="66" height="25" viewBox="0 0 66 25" fill="none" xmlns="http://www.w3.org/2000/svg">
<g clip-path="url(#clip0_6958_40772)">
<path d="M31.7674 11.524C34.3179 8.9735 38.4524 8.9735 41.0028 11.524C46.8848 17.8923 38.1332 26.6403 31.7674 20.7594C29.2175 18.2094 29.2175 14.0744 31.7674 11.524Z" stroke="url(#paint0_linear_6958_40772)" stroke-width="4.17939" stroke-miterlimit="10"/>
<path d="M31.7676 11.5235L41.003 2.28806" stroke="url(#paint1_linear_6958_40772)" stroke-width="4.17939" stroke-miterlimit="10"/>
<path d="M61.1486 13.4671C58.5981 16.0176 54.4636 16.0176 51.9132 13.4671C46.0312 7.09877 54.7828 -1.64921 61.1486 4.23171C63.6985 6.78166 63.6985 10.9166 61.1486 13.4671Z" stroke="url(#paint2_linear_6958_40772)" stroke-width="4.17939" stroke-miterlimit="10"/>
<path d="M61.1484 13.4676L51.913 22.703" stroke="url(#paint3_linear_6958_40772)" stroke-width="4.17939" stroke-miterlimit="10"/>
<circle cx="46.8348" cy="22.7009" r="2.08969" fill="#3858E9"/>
</g>
<path d="M24.0458 12.977C24.0458 6.3524 18.6475 0.954117 12.0229 0.954117C5.38626 0.954117 0 6.3524 0 12.977C0 19.6137 5.38626 24.9999 12.0229 24.9999C18.6475 24.9999 24.0458 19.6137 24.0458 12.977ZM9.35382 19.4333L5.25401 8.43236C5.91527 8.40831 6.66069 8.33618 6.66069 8.33618C7.26183 8.26404 7.18969 6.97759 6.58855 7.00164C6.58855 7.00164 4.84523 7.13389 3.73912 7.13389C3.52271 7.13389 3.29427 7.13389 3.04179 7.12186C4.95343 4.18828 8.25973 2.28866 12.0229 2.28866C14.8242 2.28866 17.3731 3.33465 19.2968 5.10202C18.4792 4.96977 17.313 5.57091 17.313 7.00164C17.313 7.89133 17.854 8.63675 18.395 9.52645C18.8158 10.2598 19.0563 11.1616 19.0563 12.4841C19.0563 14.2755 17.3731 18.4955 17.3731 18.4955L13.7302 8.43236C14.3794 8.40831 14.716 8.22797 14.716 8.22797C15.3172 8.16786 15.245 6.72511 14.6439 6.76118C14.6439 6.76118 12.9126 6.90545 11.7824 6.90545C10.7365 6.90545 8.98111 6.76118 8.98111 6.76118C8.37996 6.72511 8.30782 8.20393 8.90897 8.22797L10.0151 8.32415L11.53 12.424L9.35382 19.4333ZM20.9319 12.977C21.2204 12.2076 21.8216 10.7287 21.4489 7.86728C22.2905 9.41824 22.7113 11.1255 22.7113 12.977C22.7113 16.9326 20.6313 20.4793 17.4212 22.3308C18.5874 19.2169 19.7536 16.0789 20.9319 12.977ZM7.33397 22.7035C3.75114 20.9722 1.33454 17.2211 1.33454 12.977C1.33454 11.414 1.61107 9.99534 2.20019 8.6608C3.90744 13.3377 5.61469 18.0266 7.33397 22.7035ZM12.1792 14.7324L15.2811 23.1243C14.2471 23.473 13.1651 23.6654 12.0229 23.6654C11.0731 23.6654 10.1353 23.5331 9.26966 23.2686C10.2435 20.4072 11.2174 17.5698 12.1792 14.7324Z" fill="url(#paint4_linear_6958_40772)"/>
<defs>
<linearGradient id="paint0_linear_6958_40772" x1="25.0625" y1="17.408" x2="43.998" y2="-1.52658" gradientUnits="userSpaceOnUse">
<stop offset="0.1" stop-color="#D3CDB6"/>
<stop offset="0.65" stop-color="#3858E9"/>
<stop offset="1"/>
</linearGradient>
<linearGradient id="paint1_linear_6958_40772" x1="41.998" y1="-3.32471" x2="23.2986" y2="15.3747" gradientUnits="userSpaceOnUse">
<stop/>
<stop offset="0.2" stop-color="#3858E9"/>
<stop offset="1" stop-color="#D3CDB6"/>
</linearGradient>
<linearGradient id="paint2_linear_6958_40772" x1="67.8535" y1="7.58306" x2="48.918" y2="26.5177" gradientUnits="userSpaceOnUse">
<stop offset="0.1" stop-color="#D3CDB6"/>
<stop offset="0.65" stop-color="#3858E9"/>
<stop offset="1"/>
</linearGradient>
<linearGradient id="paint3_linear_6958_40772" x1="50.918" y1="28.3158" x2="69.6174" y2="9.61635" gradientUnits="userSpaceOnUse">
<stop/>
<stop offset="0.2" stop-color="#3858E9"/>
<stop offset="1" stop-color="#D3CDB6"/>
</linearGradient>
<linearGradient id="paint4_linear_6958_40772" x1="31" y1="-3.29493" x2="4.50859" y2="23.1965" gradientUnits="userSpaceOnUse">
<stop/>
<stop offset="0.45" stop-color="#3858E9"/>
<stop offset="1" stop-color="#D3CDB6"/>
</linearGradient>
<clipPath id="clip0_6958_40772">
<rect width="37.5954" height="25" fill="white" transform="translate(27.6724)"/>
</clipPath>
</defs>
</svg>
