<svg width="1000" height="400" fill="none" xmlns="http://www.w3.org/2000/svg"><g clip-path="url(#clip0_3974_29104)"><path fill="#151515" d="M0 0h1000v400H0z"/><ellipse opacity=".2" cx="500" cy="463" rx="1497" ry="249" fill="url(#paint0_radial_3974_29104)"/><g opacity=".3" stroke-width="2"><circle cx="100" cy="100" r="101" transform="matrix(0 1 1 0 80 100)" stroke="url(#paint1_linear_3974_29104)"/><circle cx="467" cy="424" r="101" transform="rotate(90 467 424)" stroke="url(#paint2_linear_3974_29104)"/><circle cx="590" r="101" transform="rotate(-180 590 0)" stroke="url(#paint3_linear_3974_29104)"/><circle cx="870" cy="170" r="101" transform="rotate(-90 870 170)" stroke="url(#paint4_linear_3974_29104)"/></g></g><defs><radialGradient id="paint0_radial_3974_29104" cx="0" cy="0" r="1" gradientUnits="userSpaceOnUse" gradientTransform="matrix(0 249 -1497 0 500 463)"><stop stop-color="#3858E9"/><stop offset="1" stop-color="#151515" stop-opacity="0"/></radialGradient><linearGradient id="paint1_linear_3974_29104" x1="190" y1="215" x2="76" y2="47" gradientUnits="userSpaceOnUse"><stop stop-color="#3858E9"/><stop offset=".516" stop-color="#3858E9"/><stop offset="1" stop-color="#151515" stop-opacity="0"/></linearGradient><linearGradient id="paint2_linear_3974_29104" x1="348" y1="497" x2="467" y2="524" gradientUnits="userSpaceOnUse"><stop stop-color="#FFFCB5"/><stop offset="1" stop-color="#151515" stop-opacity="0"/></linearGradient><linearGradient id="paint3_linear_3974_29104" x1="504" y1="60" x2="665" y2="-76" gradientUnits="userSpaceOnUse"><stop stop-color="#151515" stop-opacity="0"/><stop offset=".776" stop-color="#FFB7A7"/><stop offset="1" stop-color="#FFB7A7"/></linearGradient><linearGradient id="paint4_linear_3974_29104" x1="870" y1="70" x2="870" y2="270" gradientUnits="userSpaceOnUse"><stop stop-color="#7B90FF"/><stop offset="1" stop-color="#151515" stop-opacity="0"/></linearGradient><clipPath id="clip0_3974_29104"><path fill="#fff" d="M0 0h1000v400H0z"/></clipPath></defs></svg>