<svg xmlns="http://www.w3.org/2000/svg" width="346" height="300" fill="none" viewBox="0 0 346 300">
  <path fill="#636363" d="M200 200a100.006 100.006 0 0 1-61.732 92.388A100.006 100.006 0 0 1 100 300v-80a20.006 20.006 0 0 0 14.142-5.858A20.006 20.006 0 0 0 120 200h80Z"/>
  <path fill="#111" d="M100 100a100.006 100.006 0 0 1 92.388 61.732A100.006 100.006 0 0 1 200 200h-80a20.006 20.006 0 0 0-5.858-14.142A20.006 20.006 0 0 0 100 180v-80Z"/>
  <path fill="#D8613C" d="M100 300a100.01 100.01 0 0 1-70.71-29.289A100 100 0 0 1 0 200h80a20.005 20.005 0 0 0 12.346 18.478A20.002 20.002 0 0 0 100 220v80Z"/>
  <path fill="#C2A990" fill-rule="evenodd" d="M170.4 0h-100L0 200h80c0-11.046 8.954-20 20-20 2.329 0 4.564.398 6.642 1.129L170.4 0Z" clip-rule="evenodd"/>
  <path fill="#B1C5A4" d="M246 100h100v100H246z"/>
  <path fill="#111" d="M246 200h100v100H246z"/>
  <path fill="#B6BDBC" d="M216.4 0h100L246 200H146L216.4 0Z"/>
  <circle cx="179" cy="273" r="27" fill="#F9F9F9"/>
  <path fill="#111" d="M180.621 259.886v10.683l7.486-7.485 1.617 1.635-7.522 7.522h10.684v2.308h-10.575l7.577 7.576-1.636 1.636-7.631-7.632v10.757h-2.307v-10.757l-7.668 7.668-1.635-1.617 7.631-7.631h-10.756v-2.308h10.847l-7.577-7.577 1.636-1.635 7.522 7.522v-10.665h2.307Z"/>
</svg>
