<svg width="1000" height="400" fill="none" xmlns="http://www.w3.org/2000/svg"><g clip-path="url(#clip0_1916_7547)"><path fill="#151515" d="M0 0h1000v400H0z"/><g opacity=".3" stroke-width="2"><circle cy="155" r="101" stroke="url(#paint0_linear_1916_7547)"/><circle cx="250" cy="110" r="101" transform="rotate(90 250 110)" stroke="url(#paint1_linear_1916_7547)"/><circle cx="750" cy="290" r="101" transform="rotate(90 750 290)" stroke="url(#paint2_linear_1916_7547)"/><circle opacity=".7" cx="500" cy="200" r="101" transform="rotate(90 500 200)" stroke="url(#paint3_linear_1916_7547)"/><circle cx="1000" cy="245" r="101" stroke="url(#paint4_linear_1916_7547)"/></g><ellipse opacity=".2" cx="500" cy="463" rx="1497" ry="249" fill="url(#paint5_radial_1916_7547)"/></g><defs><linearGradient id="paint0_linear_1916_7547" x1="90" y1="270" x2="-24" y2="102" gradientUnits="userSpaceOnUse"><stop stop-color="#3858E9"/><stop offset=".516" stop-color="#3858E9"/><stop offset="1" stop-color="#151515" stop-opacity="0"/></linearGradient><linearGradient id="paint1_linear_1916_7547" x1="131" y1="183" x2="250" y2="210" gradientUnits="userSpaceOnUse"><stop stop-color="#FFFCB5"/><stop offset="1" stop-color="#151515" stop-opacity="0"/></linearGradient><linearGradient id="paint2_linear_1916_7547" x1="664" y1="350" x2="825" y2="214" gradientUnits="userSpaceOnUse"><stop stop-color="#151515" stop-opacity="0"/><stop offset=".776" stop-color="#FFB7A7"/><stop offset="1" stop-color="#FFB7A7"/></linearGradient><linearGradient id="paint3_linear_1916_7547" x1="500" y1="100" x2="500" y2="300" gradientUnits="userSpaceOnUse"><stop stop-color="#C7FFDB"/><stop offset=".563" stop-color="#151515" stop-opacity="0"/></linearGradient><linearGradient id="paint4_linear_1916_7547" x1="1000" y1="145" x2="1000" y2="345" gradientUnits="userSpaceOnUse"><stop stop-color="#7B90FF"/><stop offset="1" stop-color="#151515" stop-opacity="0"/></linearGradient><radialGradient id="paint5_radial_1916_7547" cx="0" cy="0" r="1" gradientUnits="userSpaceOnUse" gradientTransform="matrix(0 249 -1497 0 500 463)"><stop stop-color="#3858E9"/><stop offset="1" stop-color="#151515" stop-opacity="0"/></radialGradient><clipPath id="clip0_1916_7547"><path fill="#fff" d="M0 0h1000v400H0z"/></clipPath></defs></svg>