<svg width="782" height="510" fill="none" xmlns="http://www.w3.org/2000/svg"><g opacity=".5" fill="#273FCC" stroke="#627EFF" stroke-width="2" stroke-miterlimit="10"><path d="M131 436.052c0-35.899-29.102-65-65-65-35.899 0-65 29.101-65 65 0 35.898 29.101 64.999 65 64.999 35.898 0 65-29.101 65-64.999z"/><path d="M131 404.609c0-35.898-29.102-64.999-65-64.999-35.899 0-65 29.101-65 64.999 0 35.899 29.101 65 65 65 35.898 0 65-29.101 65-65z"/><path d="M131 373.155c0-35.899-29.102-65-65-65-35.899 0-65 29.101-65 65 0 35.898 29.101 65 65 65 35.898 0 65-29.102 65-65z"/><path d="M131 341.713c0-35.899-29.102-65-65-65-35.899 0-65 29.101-65 65 0 35.898 29.101 65 65 65 35.898 0 65-29.102 65-65z"/><path d="M131 310.271c0-35.899-29.102-65-65-65-35.899 0-65 29.101-65 65 0 35.898 29.101 64.999 65 64.999 35.898 0 65-29.101 65-64.999z"/><path d="M131 278.815c0-35.898-29.102-65-65-65-35.899 0-65 29.102-65 65 0 35.898 29.101 65 65 65 35.898 0 65-29.102 65-65z"/><path d="M131 247.373c0-35.899-29.102-65-65-65-35.899 0-65 29.101-65 65 0 35.898 29.101 65 65 65 35.898 0 65-29.102 65-65z"/><path d="M131 215.931c0-35.899-29.102-65-65-65-35.899 0-65 29.101-65 65 0 35.898 29.101 65 65 65 35.898 0 65-29.102 65-65z"/><path d="M131 184.475c0-35.898-29.102-65-65-65-35.899 0-65 29.102-65 65 0 35.899 29.101 65 65 65 35.898 0 65-29.101 65-65z"/><path d="M131 153.033c0-35.898-29.102-65-65-65-35.899 0-65 29.102-65 65 0 35.898 29.101 65 65 65 35.898 0 65-29.102 65-65z"/><path d="M131 121.59c0-35.899-29.102-65-65-65-35.899 0-65 29.101-65 65 0 35.898 29.101 65 65 65 35.898 0 65-29.102 65-65z"/><path d="M131 90.122c0-35.899-29.102-65-65-65-35.899 0-65 29.101-65 65 0 35.898 29.101 65 65 65 35.898 0 65-29.102 65-65z"/><path d="M131 58.68c0-35.899-29.102-65-65-65-35.899 0-65 29.101-65 65 0 35.898 29.101 65 65 65 35.898 0 65-29.102 65-65z"/><path d="M131 27.225c0-35.898-29.102-65-65-65-35.899 0-65 29.102-65 65 0 35.899 29.101 65 65 65 35.898 0 65-29.101 65-65z"/><path d="M131-4.217c0-35.898-29.102-65-65-65-35.899 0-65 29.102-65 65 0 35.898 29.101 65 65 65 35.898 0 65-29.102 65-65z"/><path d="M131-35.66c0-35.899-29.102-65-65-65-35.899 0-65 29.101-65 65 0 35.898 29.101 65 65 65 35.898 0 65-29.102 65-65zM347.667 436.052c0-35.899-29.102-65-65-65-35.899 0-65 29.101-65 65 0 35.898 29.101 64.999 65 64.999 35.898 0 65-29.101 65-64.999z"/><path d="M347.667 404.609c0-35.898-29.102-64.999-65-64.999-35.899 0-65 29.101-65 64.999 0 35.899 29.101 65 65 65 35.898 0 65-29.101 65-65z"/><path d="M347.667 373.155c0-35.899-29.102-65-65-65-35.899 0-65 29.101-65 65 0 35.898 29.101 65 65 65 35.898 0 65-29.102 65-65z"/><path d="M347.667 341.713c0-35.899-29.102-65-65-65-35.899 0-65 29.101-65 65 0 35.898 29.101 65 65 65 35.898 0 65-29.102 65-65z"/><path d="M347.667 310.271c0-35.899-29.102-65-65-65-35.899 0-65 29.101-65 65 0 35.898 29.101 64.999 65 64.999 35.898 0 65-29.101 65-64.999z"/><path d="M347.667 278.815c0-35.898-29.102-65-65-65-35.899 0-65 29.102-65 65 0 35.898 29.101 65 65 65 35.898 0 65-29.102 65-65z"/><path d="M347.667 247.373c0-35.899-29.102-65-65-65-35.899 0-65 29.101-65 65 0 35.898 29.101 65 65 65 35.898 0 65-29.102 65-65z"/><path d="M347.667 215.931c0-35.899-29.102-65-65-65-35.899 0-65 29.101-65 65 0 35.898 29.101 65 65 65 35.898 0 65-29.102 65-65z"/><path d="M347.667 184.475c0-35.898-29.102-65-65-65-35.899 0-65 29.102-65 65 0 35.899 29.101 65 65 65 35.898 0 65-29.101 65-65z"/><path d="M347.667 153.033c0-35.898-29.102-65-65-65-35.899 0-65 29.102-65 65 0 35.898 29.101 65 65 65 35.898 0 65-29.102 65-65z"/><path d="M347.667 121.59c0-35.899-29.102-65-65-65-35.899 0-65 29.101-65 65 0 35.898 29.101 65 65 65 35.898 0 65-29.102 65-65z"/><path d="M347.667 90.122c0-35.899-29.102-65-65-65-35.899 0-65 29.101-65 65 0 35.898 29.101 65 65 65 35.898 0 65-29.102 65-65z"/><path d="M347.667 58.68c0-35.899-29.102-65-65-65-35.899 0-65 29.101-65 65 0 35.898 29.101 65 65 65 35.898 0 65-29.102 65-65z"/><path d="M347.667 27.225c0-35.898-29.102-65-65-65-35.899 0-65 29.102-65 65 0 35.899 29.101 65 65 65 35.898 0 65-29.101 65-65z"/><path d="M347.667-4.217c0-35.898-29.102-65-65-65-35.899 0-65 29.102-65 65 0 35.898 29.101 65 65 65 35.898 0 65-29.102 65-65z"/><path d="M347.667-35.66c0-35.899-29.102-65-65-65-35.899 0-65 29.101-65 65 0 35.898 29.101 65 65 65 35.898 0 65-29.102 65-65zM564.333 436.052c0-35.899-29.101-65-65-65-35.898 0-65 29.101-65 65 0 35.898 29.102 64.999 65 64.999 35.899 0 65-29.101 65-64.999z"/><path d="M564.333 404.609c0-35.898-29.101-64.999-65-64.999-35.898 0-65 29.101-65 64.999 0 35.899 29.102 65 65 65 35.899 0 65-29.101 65-65z"/><path d="M564.333 373.155c0-35.899-29.101-65-65-65-35.898 0-65 29.101-65 65 0 35.898 29.102 65 65 65 35.899 0 65-29.102 65-65z"/><path d="M564.333 341.713c0-35.899-29.101-65-65-65-35.898 0-65 29.101-65 65 0 35.898 29.102 65 65 65 35.899 0 65-29.102 65-65z"/><path d="M564.333 310.271c0-35.899-29.101-65-65-65-35.898 0-65 29.101-65 65 0 35.898 29.102 64.999 65 64.999 35.899 0 65-29.101 65-64.999z"/><path d="M564.333 278.815c0-35.898-29.101-65-65-65-35.898 0-65 29.102-65 65 0 35.898 29.102 65 65 65 35.899 0 65-29.102 65-65z"/><path d="M564.333 247.373c0-35.899-29.101-65-65-65-35.898 0-65 29.101-65 65 0 35.898 29.102 65 65 65 35.899 0 65-29.102 65-65z"/><path d="M564.333 215.931c0-35.899-29.101-65-65-65-35.898 0-65 29.101-65 65 0 35.898 29.102 65 65 65 35.899 0 65-29.102 65-65z"/><path d="M564.333 184.475c0-35.898-29.101-65-65-65-35.898 0-65 29.102-65 65 0 35.899 29.102 65 65 65 35.899 0 65-29.101 65-65z"/><path d="M564.333 153.033c0-35.898-29.101-65-65-65-35.898 0-65 29.102-65 65 0 35.898 29.102 65 65 65 35.899 0 65-29.102 65-65z"/><path d="M564.333 121.59c0-35.899-29.101-65-65-65-35.898 0-65 29.101-65 65 0 35.898 29.102 65 65 65 35.899 0 65-29.102 65-65z"/><path d="M564.333 90.122c0-35.899-29.101-65-65-65-35.898 0-65 29.101-65 65 0 35.898 29.102 65 65 65 35.899 0 65-29.102 65-65z"/><path d="M564.333 58.68c0-35.899-29.101-65-65-65-35.898 0-65 29.101-65 65 0 35.898 29.102 65 65 65 35.899 0 65-29.102 65-65z"/><path d="M564.333 27.225c0-35.898-29.101-65-65-65-35.898 0-65 29.102-65 65 0 35.899 29.102 65 65 65 35.899 0 65-29.101 65-65z"/><path d="M564.333-4.217c0-35.898-29.101-65-65-65-35.898 0-65 29.102-65 65 0 35.898 29.102 65 65 65 35.899 0 65-29.102 65-65z"/><path d="M564.333-35.66c0-35.899-29.101-65-65-65-35.898 0-65 29.101-65 65 0 35.898 29.102 65 65 65 35.899 0 65-29.102 65-65zM781 436.052c0-35.899-29.102-65-65-65-35.899 0-65 29.101-65 65 0 35.898 29.101 64.999 65 64.999 35.898 0 65-29.101 65-64.999z"/><path d="M781 404.609c0-35.898-29.102-64.999-65-64.999-35.899 0-65 29.101-65 64.999 0 35.899 29.101 65 65 65 35.898 0 65-29.101 65-65z"/><path d="M781 373.155c0-35.899-29.102-65-65-65-35.899 0-65 29.101-65 65 0 35.898 29.101 65 65 65 35.898 0 65-29.102 65-65z"/><path d="M781 341.713c0-35.899-29.102-65-65-65-35.899 0-65 29.101-65 65 0 35.898 29.101 65 65 65 35.898 0 65-29.102 65-65z"/><path d="M781 310.271c0-35.899-29.102-65-65-65-35.899 0-65 29.101-65 65 0 35.898 29.101 64.999 65 64.999 35.898 0 65-29.101 65-64.999z"/><path d="M781 278.815c0-35.898-29.102-65-65-65-35.899 0-65 29.102-65 65 0 35.898 29.101 65 65 65 35.898 0 65-29.102 65-65z"/><path d="M781 247.373c0-35.899-29.102-65-65-65-35.899 0-65 29.101-65 65 0 35.898 29.101 65 65 65 35.898 0 65-29.102 65-65z"/><path d="M781 215.931c0-35.899-29.102-65-65-65-35.899 0-65 29.101-65 65 0 35.898 29.101 65 65 65 35.898 0 65-29.102 65-65z"/><path d="M781 184.475c0-35.898-29.102-65-65-65-35.899 0-65 29.102-65 65 0 35.899 29.101 65 65 65 35.898 0 65-29.101 65-65z"/><path d="M781 153.033c0-35.898-29.102-65-65-65-35.899 0-65 29.102-65 65 0 35.898 29.101 65 65 65 35.898 0 65-29.102 65-65z"/><path d="M781 121.59c0-35.899-29.102-65-65-65-35.899 0-65 29.101-65 65 0 35.898 29.101 65 65 65 35.898 0 65-29.102 65-65z"/><path d="M781 90.122c0-35.899-29.102-65-65-65-35.899 0-65 29.101-65 65 0 35.898 29.101 65 65 65 35.898 0 65-29.102 65-65z"/><path d="M781 58.68c0-35.899-29.102-65-65-65-35.899 0-65 29.101-65 65 0 35.898 29.101 65 65 65 35.898 0 65-29.102 65-65z"/><path d="M781 27.225c0-35.898-29.102-65-65-65-35.899 0-65 29.102-65 65 0 35.899 29.101 65 65 65 35.898 0 65-29.101 65-65z"/><path d="M781-4.217c0-35.898-29.102-65-65-65-35.899 0-65 29.102-65 65 0 35.898 29.101 65 65 65 35.898 0 65-29.102 65-65z"/><path d="M781-35.66c0-35.899-29.102-65-65-65-35.899 0-65 29.101-65 65 0 35.898 29.101 65 65 65 35.898 0 65-29.102 65-65z"/></g></svg>
