<svg width="936" height="400" viewBox="0 0 936 400" fill="none" xmlns="http://www.w3.org/2000/svg">
  <path fill="#1D35B4" d="M0 0h936v400H0z"/>
  <path d="M31-26c0 220.91 179.09 400 400 400h1000" stroke="#213FD4" stroke-width="60" stroke-miterlimit="10"/>
  <path d="M131-26c0 165.69 134.31 300 300 300h1000" stroke="#213FD4" stroke-width="60" stroke-miterlimit="10"/>
  <path d="M231-26c0 110.46 89.54 200 200 200h1000" stroke="#213FD4" stroke-width="60" stroke-miterlimit="10"/>
  <path d="M336-26c0 55.23 44.567 100 99.545 100H1431" stroke="#213FD4" stroke-width="60" stroke-miterlimit="10"/>
  <path d="M132 27c16.569 0 30-13.431 30-30 0-16.569-13.431-30-30-30-16.569 0-30 13.431-30 30 0 16.569 13.431 30 30 30ZM474 104c16.569 0 30-13.431 30-30 0-16.569-13.431-30-30-30-16.569 0-30 13.431-30 30 0 16.569 13.431 30 30 30ZM936 204c16.569 0 30-13.431 30-30 0-16.569-13.431-30-30-30-16.569 0-30 13.431-30 30 0 16.569 13.431 30 30 30ZM755 404c16.569 0 30-13.431 30-30 0-16.569-13.431-30-30-30-16.569 0-30 13.431-30 30 0 16.569 13.431 30 30 30Z" fill="#33F078"/>
</svg>
