<svg width="1280" height="568" fill="none" xmlns="http://www.w3.org/2000/svg">
  <g clip-path="url(#clip0)">
    <g clip-path="url(#clip1)" fill="#3858E9">
      <path d="M1198.19 326.128c4.48 34.433-6.49 68.552-10.69 103.364a66.133 66.133 0 01-11.19 27.433 51.192 51.192 0 00-9.46 24.438c0 2.113-.55 4.189-1.6 6.022-20.49 25.889-33.01 59.345-62.36 76.53-15.25 8.924-24.68 25.226-44.13 29.798-8.95 2.145-20.43 10.438-29.47 17.343a104.507 104.507 0 01-30.329 15.767c-14.185 4.887-28.906 7.725-42.02 16.46-13.114 8.734-27.994 9.46-43.944 7.631-19.198-2.208-38.806-1.356-58.224-1.23-38.742.315-73.071-14.253-105.257-33.299-23.327-13.779-44.353-31.532-66.514-47.299a57.609 57.609 0 01-21.846-29.892c-2.396-7.474-6.872-8.167-12.609-8.798-6.904-.725-8.922 3.153-12.295 8.861-15.762 26.929-29.127 57.168-55.166 75.268a183.653 183.653 0 01-78.272 31.848c-32.879 4.761-65.127 13.559-98.479 15.262-15.226.788-30.484 2.428-45.395-1.798a52.236 52.236 0 00-20.206-1.545c-27.488 3.154-52.329-5.612-74.395-20.37-30.862-20.622-62.669-40.519-89.149-66.565-23.264-22.924-38.364-51.966-50.437-82.489C91.338 405.464 89.32 316.731 80.62 229.26c-2.932-29.326 4.287-58.21 15.762-85.895 11.474-27.686 22.066-56.38 31.523-85.138 11.727-35.222 34.96-61.552 62.574-84.508a225.646 225.646 0 01112.76-51.587c36.315-5.234 71.873-15.766 108.724-16.618a177.46 177.46 0 0172.283 12.613c14.911 6.086 31.524 8.073 47.034 12.613 28.371 8.199 56.962 18.132 76.601 40.677 14.312 16.429 31.524 30.02 44.669 47.3 5.832 7.599 13.24 8.576 20.711 3.153 45.456-33.204 98.605-48.687 150.587-67.543 42.179-15.294 84.231-20.654 128.207-14.158 23.989 3.563 47.694 9.05 68.405 21.82 54.35 33.52 100.59 74.543 122.19 137.514 10.9 31.753 27.51 61.457 35.84 94.125 10.87 42.979 24.55 85.768 19.7 132.5zm-958.314-71.39c1.135 10.942 1.608 22.073 3.5 32.825 8.164 46.479 13.555 93.526 26.732 138.965 5.327 18.415 11.348 37.46 24.871 51.965 17.307 18.542 40.666 29.01 61.251 43.263a18.91 18.91 0 0013.208 4.131c37.513-4.099 75.467-5.581 111.751-17.248 9.74-3.154 20.679-5.203 27.331-14.505 19.135-26.614 41.673-51.272 48.356-85.139 4.445-22.514 17.937-42.505 17.528-66.502-.789-44.398-7.282-88.985 5.737-132.941 5.391-18.195-4.602-35.096-9.457-51.871-8.795-30.492-27.772-54.394-53.59-73.345-19.828-14.631-43.786-17.88-66.199-23.02a125.241 125.241 0 00-68.091 4.7c-22.728 7.567-42.998 24.248-68.941 21.694a4.452 4.452 0 00-3.5 2.396c-2.932 9.46-12.199 11.068-18.914 15.766-20.459 14.411-25.219 37.114-30.2 58.903-3.341 14.726-2.427 30.303-16.518 40.488-2.963 2.145-6.462 6.055-4.792 9.271 7.125 13.559-2.9 26.897-.031 40.204h-.032zm485.461 43.925c-1.733 52.407 8.04 99.517 35.276 145.05 23.39 39.163 53.59 67.259 94.57 81.386 52.518 18.005 99.614-1.482 143.589-30.272 22.068-14.379 27.738-39.195 36.848-60.826 6.31-14.663 13.31-29.326 17.91-44.934 15.76-53.353-2.46-104.846-7.6-157.064a13.664 13.664 0 00-2.39-5.771c-19.45-29.262-27.68-64.168-47.921-93.241-24.02-34.686-58.601-52.376-96.556-44.367-31.523 6.685-62.164 17.816-93.12 27.118a8.197 8.197 0 00-4.918 3.406c-4.445 9.46-13.996 12.613-22.066 16.87-19.261 10.153-31.523 25.983-42.273 44.461-11.191 18.919-12.767 40.551-13.334 59.912a547.521 547.521 0 002.017 58.272h-.032z"/>
      <path d="M405.281 413.631c-5.769.441-11.539 1.198-17.276 1.292-19.734.316-35.022-6.306-50.122-20.906-48.672-46.731-52.802-146.973-23.075-191.119a54.45 54.45 0 0138.553-24.532c36.662-4.573 73.009-2.838 105.478 16.365 27.331 16.145 48.482 36.294 54.503 71.989 5.328 31.533 4.13 59.912-7.597 88.922a79.11 79.11 0 01-11.254 20.433c-22.98 28.726-52.013 42.79-89.21 37.556zm-20.018-114.779c-2.743 13.622 6.904 24.879 11.065 37.618 3.783 11.699 14.91 13.275 20.679 2.302a234.248 234.248 0 0019.891-55.213c.73-3.604.816-7.309.252-10.942-2.427-18.541-18.315-25.447-33.225-14.253a44.876 44.876 0 00-18.725 40.488h.063zM785.547 306.104c-.378-21.82.568-43.168 10.593-64.169 13.208-27.685 37.828-40.298 63.677-45.407 32.185-6.306 64.308-1.86 90.788 23.335 30.924 29.42 43.281 64.421 38.962 106.17a205.454 205.454 0 00-2.206 26.645c1.008 37.839-15.604 65.178-47.286 85.611-31.681 20.433-61.534 12.865-91.765-1.072-9.457-4.352-17.432-11.604-26.7-16.366-18.094-9.459-26.133-25.73-29.916-44.145a265.17 265.17 0 01-6.147-70.602zm71.874 24.848c-2.364 14.537 3.404 26.74 10.623 38.533 5.548 9.113 12.389 18.762 23.391 18.541 12.799-.252 10.749-13.811 13.208-22.073 9.962-33.235 9.079-65.903-8.038-97.089-3.657-6.685-8.701-10.437-16.487-9.144-7.786 1.293-13.587 5.266-14.753 13.874l-7.944 57.358z"/>
    </g>
  </g>
  <defs>
    <clipPath id="clip0">
      <path fill="#fff" d="M0 0h1280v568H0z"/>
    </clipPath>
    <clipPath id="clip1">
      <path fill="#fff" transform="translate(79.738 -94.55)" d="M0 0h1119.52v757.098H0z"/>
    </clipPath>
  </defs>
</svg>
