<svg viewBox="0 0 374 440" fill="none" xmlns="http://www.w3.org/2000/svg">
  <path d="M101.194 187.586c-.132-7.011-16.16-17.748-16.018-15.944.142 1.803.084 123.457 17.928 177.596 0 0 3.441 6.907-1.573 15.86" stroke="#1E1E1E" stroke-width="2" stroke-linecap="round" stroke-linejoin="round"/>
  <path d="m84.922 161.647-2.246 4.467 2.651 1.333 2.44-1.689-2.845-4.111Zm0 0c2.845 4.111 2.847 4.11 2.848 4.109l.004-.003.013-.009.044-.03.157-.11a145.38 145.38 0 0 0 2.73-1.984 221.81 221.81 0 0 0 7.551-5.895c6.212-5.059 14.481-12.304 22.668-21.025 8.171-8.705 16.373-19 22.346-30.171 5.966-11.157 9.861-23.48 8.978-36.11-2.721-38.907-37.994-67.44-78.238-64.626C33.78 8.607 2.821 41.771 5.541 80.68c.883 12.63 6.456 24.291 13.916 34.509 7.47 10.231 17.025 19.284 26.328 26.767 9.321 7.497 18.518 13.52 25.373 17.666a220.806 220.806 0 0 0 8.3 4.786 153.7 153.7 0 0 0 2.978 1.585 22.04 22.04 0 0 0 .171.087l.047.024.014.007.005.003c.002.001.003.001 2.249-4.466Z" fill="#fff" stroke="#fff" stroke-width="10"/>
  <path d="m84.203 171.048-7.61 18.766s4.903 3.213 13.02 1.693l-3.552-20.244-1.858-.215Z" fill="#fff"/>
  <rect x="82.418" y="171.164" width="6.5" height="2" rx="1" transform="rotate(3.18 82.418 171.164)" fill="#1E1E1E"/>
  <path d="M297.781 246.24c-.847.263-19.158 12.848-20.847 3.841 0 0-.557-2.369.56-6.132 0 0 2.129-9.354-6.654-8.052 0 0-7.785 1.703-10.819.022l-29.618 153.729 20.187 16.219s18.766 15.555 36.375 17.192" stroke="#1E1E1E" stroke-width="2" stroke-linecap="round" stroke-linejoin="round"/>
  <path d="m260.954 227.215-3.154 3.881 2.341 1.902 2.774-1.184-1.961-4.599Zm0 0a816.555 816.555 0 0 0 1.964 4.598l.005-.002.015-.006.049-.021.176-.077.656-.289c.567-.253 1.389-.626 2.431-1.114a220.542 220.542 0 0 0 8.626-4.283c7.138-3.733 16.747-9.208 26.586-16.169 19.332-13.677 40.984-34.081 44.525-59.28 5.5-39.137-22.915-74.916-62.942-80.542-40.028-5.625-77.205 20.936-82.705 60.073-3.541 25.199 11.647 50.78 26.461 69.256 7.539 9.403 15.266 17.315 21.099 22.871a221.255 221.255 0 0 0 7.111 6.495 146.147 146.147 0 0 0 2.58 2.199l.149.122.041.034.013.01.004.003c.001.002.002.003 3.156-3.878Z" fill="#fff" stroke="#fff" stroke-width="10"/>
  <path d="m260.833 238.042.743 20.237s-5.706 1.345-12.815-2.855l10.252-17.815 1.82.433Z" fill="#fff"/>
  <rect x="256.704" y="237.275" width="5.997" height="2" rx="1" transform="rotate(7.245 256.704 237.275)" fill="#1E1E1E"/>
  <path d="M318.718 133.121a2.06 2.06 0 0 0-1.031-.854c-.37-.14-7.335-2.746-21.144-5.18-10.426-1.839-16.715-1.581-21.755-1.373-.669.027-1.317.053-1.953.073-1.685.056-3.467.196-5.192.327-3.712.292-7.573.589-10.649.075-3.07-.57-6.585-2.167-9.985-3.713-1.574-.713-3.203-1.455-4.768-2.083-.591-.237-1.195-.486-1.819-.741-4.668-1.92-10.482-4.309-20.901-6.147-14.014-2.471-21.347-2.366-21.651-2.36a2.063 2.063 0 0 0-1.396.578 2.026 2.026 0 0 0-.618 1.37l-.267 6.138a2.04 2.04 0 0 0 1.197 1.946c1.895.874 1.925 1.149 2.157 3.29.021.209.045.426.072.656.145 1.242.395 3.218.657 5.303.323 2.621.707 5.599.943 7.642.336 2.941 1.24 10.758 15.054 14.97 10.902 3.326 18.758 3.461 24.016.415 5.125-2.971 10.636-13.08 12.065-16.425a6.725 6.725 0 0 1 .873-1.584l5.324.939c.171.581.264 1.182.279 1.787.198 3.634 1.921 15.019 5.717 19.56 2.872 3.432 7.657 5.725 14.531 6.938 2.706.462 5.437.76 8.179.892 6.03.322 10.844-.71 14.328-3.057 3.024-2.045 4.315-4.62 4.941-5.871.889-1.783 2.156-4.249 3.381-6.634a541.984 541.984 0 0 0 2.549-4.997l.293-.592c.95-1.933 1.072-2.181 3.152-2.353a2.061 2.061 0 0 0 1.112-.44 2.04 2.04 0 0 0 .676-.98l1.851-5.856c.083-.276.107-.567.07-.852a2.048 2.048 0 0 0-.288-.807Z" fill="#1E1E1E"/>
  <rect x="315.517" y="132.793" width="39.784" height="7.784" rx="2" transform="rotate(12 315.517 132.793)" fill="#1E1E1E"/>
</svg>
