<svg width="1174" height="494" fill="none" xmlns="http://www.w3.org/2000/svg">
  <path d="M1134.66 418.731c-5.4 6.566-9.03 13.6-14.65 18.992-1.76 1.759-.82 3.517-.24 5.393.82 2.579-.23 4.103-2.93 2.931-2.46-1.055-3.98-.117-5.74 1.407-12.66 11.606-26.72 21.219-41.6 29.777-3.28 1.876-6.56 4.689-9.38 7.503-12.18 12.309-35.27 9.73-45.23.351-6.68-6.33-13.71-12.192-21.565-16.998-8.321-5.041-16.524-10.317-24.142-16.53-4.336-3.517-7.148-7.62-9.14-12.661-2.579-6.566-5.86-12.779-10.43-18.172-5.391-6.33-7.383-14.537-11.133-21.805-2.11-4.22-4.102-8.441-6.094-12.661-4.571-9.496-3.516-19.344-1.992-29.191.234-1.173.703-2.228 1.054-3.4 1.641-5.158 1.758-8.206-5.273-9.965-11.836-2.931-17.93-17.585-13.008-28.839 3.75-8.675 7.265-17.82 14.883-24.267.937-.704 1.641-2.111 2.578-2.228 12.657-2.579 15.586-14.771 22.735-22.86 1.992-2.228 3.867-4.572 6.797-5.276 5.625-1.289 8.438-5.275 9.844-10.434 1.289-4.923 5.156-7.62 8.672-10.785.703-.586 1.875-1.407 2.578-1.172 6.445 2.11 11.485-2.111 17.227-3.635 4.219-1.172 5.739.704 6.089 4.573.36 3.517 1.65 6.682 5.63 7.268 4.1.703 6.21-1.993 8.09-5.393 1.4-2.579 1.29-7.268 4.92-7.268 3.87.117 2.93 4.806 4.22 7.386.7 1.524 1.17 4.103 3.28 3.399 3.51-1.289 7.97-.938 9.72-5.392 2.11-5.51 5.16-10.434 9.85-14.303 4.22-3.517 8.55-7.62 14.53-5.627 6.68 2.227 11.48 6.682 12.77 13.951.12.938.47 1.875.59 2.813.47 2.931 1.05 6.096 4.34 7.034 2.93.821 3.63-2.462 5.15-4.103 3.05-3.517 6.45-4.924 10.9-2.814 3.4 1.642 6.8 1.056 10.31.235 5.39-1.055 9.5.469 13.71 4.22 8.68 7.738 16.88 16.296 27.43 21.923 3.63 1.876 5.27 4.924 5.74 8.91.82 7.151 2.93 14.068 1.87 21.453-.35 2.697-.46 7.034 5.04 4.572 2.46-1.055 3.99 1.056 5.04 3.049 2.82 5.158 5.51 10.668 5.39 16.529-.11 14.655 1.41 29.309-1.64 43.846-.35 1.524-.58 3.165-.23 4.689 2.93 11.137-1.52 20.516-6.56 29.894-2.46 4.455-4.93 8.91-6.57 13.717-1.64 5.041-4.57 8.909-8.08 12.661-6.92 8.089-11.37 7.503-15.35-2.697zM896.098 138.225c.118 5.862-.351 11.724-2.461 17.351-2.226 5.979-5.39 6.917-10.547 3.283-1.406-.938-3.047-2.697-4.57-.821-1.641 2.11.937 2.931 1.992 4.103 8.555 9.027 3.281 19.93-3.633 25.322-2.344 1.876-5.273.938-7.851.118-2.93-.938-5.157-1.524-3.516 3.165 2.461 7.386 0 13.247-7.149 16.882-9.023 4.572-16.641 10.668-22.5 18.991-2.813 3.869-6.797 5.393-10.782 3.634-9.141-3.985-16.992.704-24.61 3.4-7.148 2.462-14.883 5.041-20.859 10.317-.118.117-.352.234-.469.234-14.532-.351-15.586 11.606-17.11 20.868-1.758 10.199-5.273 15.475-16.172 15.592-3.75 0-7.383 1.641-11.368.586-6.679-1.759-8.906-5.276-7.031-11.958.703-2.696 1.172-3.751-2.695-3.165-12.071 1.876-22.618-4.807-25.431-15.475-.234-1.055-.703-2.579-.351-3.4 3.633-7.268-.82-13.13-3.164-19.46-.586-1.642-1.758-2.345-3.282-3.048-4.453-1.993-8.437-5.51-9.609-9.731-2.578-9.144-9.024-12.309-16.993-14.654-8.555-2.462-16.992-14.537-16.641-23.447.118-1.875-.937-3.282-1.289-5.041-2.226-9.495-5.508-18.991-3.164-29.073.938-3.869 1.992-7.972.703-12.193-.234-.703-.234-1.641 0-2.344 7.852-16.882 9.493-35.874 18.165-52.638 10.078-19.46 24.258-35.17 41.251-48.652 9.726-7.62 21.094-12.66 30.586-20.516 1.406-1.172 3.047-2.11 4.805-1.758 3.984.938 7.149.352 9.61-3.283C750.9.008 752.658-.11 754.299.36c1.875.586 3.867 1.055 5.39 2.11 15.587 10.903 33.868 15.24 51.095 22.158 11.719 4.689 24.727 6.213 35.391 13.481 15.118 10.2 26.954 22.51 34.454 39.977 6.915 16.178 6.68 33.998 14.766 49.707 1.407 2.931.586 6.916.703 10.433zM288.336 369.89c-.469-29.074 6.68-54.045 21.563-76.319 7.969-11.841 17.227-23.095 28.126-32.356 7.734-6.566 14.883-14.068 24.024-18.992 2.226-1.173 4.101-.704 6.211-.352 4.687.821 9.023 1.055 14.063-.469 4.57-1.407 11.25.938 14.531 6.096 3.633 5.745 9.844 3.752 14.766 5.158 2.109.587 3.75-3.517 5.039-5.861.938-1.759 1.641-3.634 4.219-3.165 2.227.468 3.75 1.641 4.688 3.868 3.515 8.91 5.273 9.613 14.18 6.096 6.562-2.579 10.664 1.642 14.18 5.51 3.515 3.869 7.383 5.393 12.305 5.276 3.515-.117 7.031-.235 10.547 0 5.273.352 8.789-2.228 11.836-6.214 1.992-2.579 4.453-4.572 6.211.352.703 1.993 2.461 2.931 4.102 4.103 1.289 1.055 2.461 2.345 1.406 3.986-4.571 6.917 3.984 8.558 5.273 13.013.235.821 1.758.821 2.579.117 1.171-1.055.82-2.344-.235-3.048-6.68-3.986-4.219-11.254-5.859-16.999-1.055-3.634 3.281-6.799 7.148-8.089 3.399-1.055 7.383.587 7.383 3.869.117 10.434 9.493 15.24 13.126 23.329 2.226 5.159 4.57 10.317 6.328 15.592 1.406 4.338-.821 6.331-5.157 4.807-5.039-1.758-10.429-.469-15.586-2.11-2.344-.704-4.687-4.807-7.031-1.993-2.11 2.462.703 5.627 2.109 7.972 6.211 10.434 7.735 22.391 11.719 33.411 1.172 3.283 2.696 4.924 6.797 4.69 5.508-.352 7.969 3.985 8.438 8.675.937 7.972.82 15.943.117 23.915-.117 1.876-.703 4.221-1.992 5.393-8.086 7.972-8.672 21.805-18.165 27.315-12.305 7.269-16.172 20.985-26.953 29.191-7.383 5.628-15.001 10.434-23.321 14.186-4.219 1.875-7.969 3.986-11.133 7.268-5.391 5.627-11.719 7.972-19.922 7.62-11.016-.351-22.267 1.055-33.048 3.869-11.485 3.048-22.5 1.876-33.516-1.055-17.11-4.455-33.282-11.489-46.408-23.798-13.008-12.193-23.789-25.909-29.531-43.377-3.399-10.316-5.86-21.102-5.157-30.48zM47.232 199.243c-1.64 3.517-.586 6.799-.82 10.082-.234 3.282-.586 6.448-4.57 7.151-3.633.586-5.743-1.758-7.266-4.806-.586-1.173-.938-2.58-1.172-3.869-.703-4.221-2.578-5.393-7.031-3.752-5.86 2.228-13.36-1.172-16.524-6.565-.703-1.641-1.758-3.048-2.93-4.337-8.203-9.613-7.735-16.53.352-25.909 3.398-3.986 5.039-9.496 5.039-15.006-.117-7.034.82-13.364 6.21-18.757 4.454-4.455 3.4-11.02 4.22-16.764 1.523-10.317 3.867-12.896 14.18-14.186 4.101-.468 5.273-3.751 5.742-7.034.469-3.4.938-6.916.703-10.433-.469-5.745 3.633-8.558 9.14-6.8 1.056.352 2.227.82 3.282 1.172 7.735 1.993 7.735 1.173 8.203-6.565.352-6.8 2.579-13.13-1.64-19.695-1.172-1.876 1.172-5.861 4.453-5.51 3.75.47 7.383-1.29 11.016.118 2.93 1.172 3.516-.235 2.93-2.814-.47-1.993-.47-3.869.937-5.627 1.055-1.407 2.227-2.814 4.336-2.462 1.875.352 2.227 1.876 2.578 3.517.118.82.235 1.524.47 2.344.468 1.642.35 3.87 2.343 4.455 2.11.587 2.813-1.64 3.984-2.813 5.157-4.924 7.032-11.49 8.555-18.054.821-3.4 2.578-4.455 5.274-3.634 4.101 1.172 7.5-.118 10.313-2.58 5.39-4.689 12.187-6.682 18.047-10.55C142.273 6.51 148.25 5.222 152.938 1c3.281-2.813 6.914 1.759 9.375 3.87 3.047 2.578 5.039 5.04 9.492 2.696 1.992-1.056 4.922 0 3.164 3.048-1.64 2.93 0 3.868 1.875 5.04 2.579 1.642 5.274 2.697 8.087.235 2.226-1.993 4.101-6.448 7.265-4.455 4.219 2.697 10.665 4.572 11.251 10.2 1.289 12.426 11.367 15.123 19.805 19.93 11.367 6.447 19.805 15.474 22.031 28.604 1.055 6.096 5.391 10.2 6.797 16.061 1.407 5.862 2.696 11.723 2.579 17.702 0 1.407.351 2.579.937 3.869 7.852 16.53 9.258 33.646 3.633 51.114-4.219 13.247-9.141 26.143-17.461 37.397-2.461 3.283-2.813 7.268-2.461 11.254.468 5.979-1.758 10.317-7.383 12.662-2.578 1.055-4.454 2.93-6.211 5.158-2.93 3.634-6.329 6.565-11.133 8.206-4.805 1.641-8.087 5.979-11.837 9.262-5.39 4.806-9.375 4.22-11.953-2.58-1.406-3.634-3.281-3.751-6.328-2.813-7.5 2.579-13.829 8.089-22.032 9.261-2.461.352-2.461 3.283-2.461 5.393.117 5.275-2.578 9.379-5.977 13.013-5.156 5.627-13.008 5.627-19.57.469-5.391-4.221-9.961-9.144-13.126-15.358-2.812-5.392-10.781-6.565-15.234-2.579-2.11 1.876-3.868 1.055-5.86 0-9.258-5.041-9.375-5.041-16.055 2.696-.937 1.056-1.64 2.462-3.281 1.642-1.524-.704-1.64-2.228-1.29-3.517 3.75-11.137-1.991-18.171-10.077-24.268-7.97-5.861-13.829-13.599-19.102-21.922-.704-1.055-1.055-2.579-3.165-3.048zM583.708 326.812c-.199.594 0 1.385-.398 1.978-3.386 4.946 1.991 15.825-3.187 15.034-8.365-1.187-18.92.791-25.294-8.308-4.979-6.923-5.775-13.846-1.394-20.967 2.788-4.748 3.983-11.869 12.547-9.099 10.357 3.362 18.124 12.659 17.726 21.362zM1090.89 218.29c-3.41.328-4.18-1.637-4.18-4.038 0-2.947 4.95-10.151 6.92-9.714 3.41.764 5.06 3.602 5.5 6.658.66 3.711-3.63 6.985-8.24 7.094zM149.661 281.074c.043-.128 0-.298.086-.426.727-1.063-.429-3.402.685-3.232 1.798.255 4.068-.17 5.438 1.786 1.071 1.489 1.242 2.977.3 4.508-.6 1.021-.857 2.552-2.698 1.957-2.227-.723-3.897-2.722-3.811-4.593z" fill="#3858E9"/>
</svg>
