<svg width="390" height="325" viewBox="0 0 390 325" fill="none" xmlns="http://www.w3.org/2000/svg">
	<path d="M277 195.113c0-15.824 5.204-29.175 15.612-40.053 10.903-11.374 24.285-17.06 40.145-17.06 16.355 0 29.984 5.686 40.888 17.06C384.548 165.938 390 179.289 390 195.113c0 15.329-5.452 28.432-16.355 39.311C362.741 244.808 349.112 250 332.757 250c-15.86 0-29.242-5.192-40.145-15.576C282.204 223.545 277 210.442 277 195.113Z" fill="#2F2F2F" style="mix-blend-mode:multiply"/>
	<path d="M0 85.159c0-23.594 7.737-43.501 23.21-59.722C39.422 8.479 59.317 0 82.896 0c24.316 0 44.579 8.479 60.789 25.437C159.895 41.657 168 61.565 168 85.159c0 22.856-8.105 42.395-24.316 58.616C127.474 159.258 107.211 167 82.894 167c-23.578 0-43.473-7.742-59.683-23.225C7.737 127.554 0 108.015 0 85.159Z" fill="#3858E9" style="mix-blend-mode:multiply"/>
	<path d="M57 196.113c0-37.157 12.204-68.508 36.612-94.054C119.182 75.353 150.564 62 187.757 62c38.355 0 70.318 13.353 95.888 40.059C309.215 127.605 322 158.956 322 196.113c0 35.995-12.785 66.766-38.355 92.311C258.075 312.808 226.112 325 187.757 325c-37.193 0-68.575-12.192-94.145-36.576C69.204 262.879 57 232.108 57 196.113Z" fill="#1B8362" style="mix-blend-mode:multiply"/>
</svg>
