<svg width="1000" height="420" viewBox="0 0 1000 420" fill="none" xmlns="http://www.w3.org/2000/svg">
<g clip-path="url(#clip0_945_5546)">
<rect width="1000" height="420" fill="#EAE9E7"/>
<path d="M303.711 -552.516V149.852L795.846 -342.283L902.156 -234.778L407.632 259.746H1110V411.448H414.799L912.907 909.556L805.402 1017.06L303.711 515.37V1222.52H152.009V515.37L-352.071 1019.45L-459.577 913.139L42.1146 411.448H-665.031V259.746H48.0871L-450.021 -238.361L-342.515 -345.867L152.009 148.657V-552.516H303.711Z" fill="white" fill-opacity="0.35"/>
<path d="M783 260C783 273.132 780.413 286.136 775.388 298.268C770.362 310.401 762.997 321.425 753.711 330.711C744.425 339.997 733.401 347.362 721.268 352.388C709.136 357.413 696.132 360 683 360L683 280C685.626 280 688.227 279.483 690.654 278.478C693.08 277.472 695.285 275.999 697.142 274.142C698.999 272.285 700.472 270.08 701.478 267.654C702.483 265.227 703 262.626 703 260H783Z" fill="#C2A990"/>
<path d="M683 160C696.132 160 709.136 162.587 721.268 167.612C733.401 172.638 744.425 180.003 753.711 189.289C762.997 198.575 770.362 209.599 775.388 221.732C780.413 233.864 783 246.868 783 260L703 260C703 257.374 702.483 254.773 701.478 252.346C700.472 249.92 698.999 247.715 697.142 245.858C695.285 244.001 693.08 242.528 690.654 241.522C688.227 240.517 685.626 240 683 240V160Z" fill="#B1C5A4"/>
<path d="M683 360C669.868 360 656.864 357.413 644.732 352.388C632.599 347.362 621.575 339.996 612.289 330.711C603.003 321.425 595.637 310.401 590.612 298.268C585.587 286.136 583 273.132 583 260L663 260C663 262.626 663.517 265.227 664.522 267.654C665.527 270.08 667.001 272.285 668.858 274.142C670.715 275.999 672.92 277.472 675.346 278.478C677.773 279.483 680.374 280 683 280L683 360Z" fill="#111111"/>
<path fill-rule="evenodd" clip-rule="evenodd" d="M753.4 60H653.4L583 260L663 260C663 248.954 671.954 240 683 240C685.329 240 687.564 240.398 689.642 241.129L753.4 60Z" fill="#D8613C"/>
<rect x="829" y="160" width="100" height="100" fill="#111111"/>
<rect x="829" y="260" width="100" height="100" fill="#B6BDBC"/>
<path d="M799.4 60H899.4L829 260H729L799.4 60Z" fill="#CFCABE"/>
<circle cx="762" cy="333" r="27" fill="white"/>
<path d="M763.621 319.886V330.569L771.107 323.084L772.724 324.719L765.202 332.241H775.886V334.549H765.311L772.888 342.125L771.252 343.761L763.621 336.129V346.886H761.314V336.129L753.646 343.797L752.011 342.18L759.642 334.549H748.886V332.241H759.733L752.156 324.664L753.792 323.029L761.314 330.551V319.886H763.621Z" fill="#111111"/>
</g>
<defs>
<clipPath id="clip0_945_5546">
<rect width="1000" height="420" fill="white"/>
</clipPath>
</defs>
</svg>
