<svg width="905" height="20" xmlns="http://www.w3.org/2000/svg"><g fill="none" fill-rule="nonzero"><rect fill="#F6F7F7" width="14" height="20"/><rect fill="#F0F0F1" x="14" width="14" height="20"/><rect fill="#DCDCDE" x="28" width="14" height="20"/><rect fill="#C3C4C7" x="42" width="14" height="20"/><rect fill="#A7AAAD" x="56" width="14" height="20"/><rect fill="#8C8F93" x="70" width="14" height="20"/><rect fill="#797C81" x="84" width="14" height="20"/><rect fill="#65696F" x="98" width="14" height="20"/><rect fill="#51575D" x="112" width="14" height="20"/><rect fill="#3D4349" x="126" width="14" height="20"/><rect fill="#2D3337" x="140" width="14" height="20"/><rect fill="#1E2327" x="154" width="14" height="20"/><rect fill="#111517" x="168" width="13" height="20"/><rect fill="#F1F6FB" x="181" width="15" height="20"/><rect fill="#7EADE1" x="226" width="15" height="20"/><rect fill="#3971AC" x="271" width="15" height="20"/><rect fill="#153956" x="316" width="15" height="20"/><rect fill="#C8D9EB" x="196" width="15" height="20"/><rect fill="#5F93CF" x="241" width="15" height="20"/><rect fill="#2B5E92" x="286" width="15" height="20"/><rect fill="#0B2638" x="331" width="15" height="20"/><rect fill="#A5C1E3" x="211" width="15" height="20"/><rect fill="#4981BF" x="256" width="15" height="20"/><rect fill="#1F4B74" x="301" width="15" height="20"/><rect fill="#04131B" x="346" width="16" height="20"/><rect fill="#FAF0F1" x="362" width="15" height="20"/><rect fill="#EF8788" x="407" width="15" height="20"/><rect fill="#C6443F" x="452" width="15" height="20"/><rect fill="#61221F" x="497" width="15" height="20"/><rect fill="#F3D1D3" x="377" width="15" height="20"/><rect fill="#E76C6C" x="422" width="15" height="20"/><rect fill="#A53834" x="467" width="15" height="20"/><rect fill="#3F1615" x="512" width="15" height="20"/><rect fill="#F3AFB0" x="392" width="15" height="20"/><rect fill="#D55A59" x="437" width="15" height="20"/><rect fill="#7F2C28" x="482" width="15" height="20"/><rect fill="#210C0B" x="527" width="16" height="20"/><rect fill="#FCF9EA" x="543" width="15" height="20"/><rect fill="#E9C457" x="588" width="15" height="20"/><rect fill="#926921" x="633" width="15" height="20"/><rect fill="#47330B" x="678" width="15" height="20"/><rect fill="#F3E6B2" x="558" width="15" height="20"/><rect fill="#D3A73E" x="603" width="15" height="20"/><rect fill="#705218" x="648" width="15" height="20"/><rect fill="#332406" x="693" width="15" height="20"/><rect fill="#EED683" x="573" width="15" height="20"/><rect fill="#B5872D" x="618" width="15" height="20"/><rect fill="#5D4312" x="663" width="15" height="20"/><rect fill="#1F1603" x="708" width="16" height="20"/><rect fill="#EFF9F0" x="724" width="15" height="20"/><rect fill="#62CB5C" x="769" width="15" height="20"/><rect fill="#3C8632" x="814" width="15" height="20"/><rect fill="#1A4315" x="859" width="15" height="20"/><rect fill="#C1E4C2" x="739" width="15" height="20"/><rect fill="#53B64B" x="784" width="15" height="20"/><rect fill="#2F6D26" x="829" width="15" height="20"/><rect fill="#102F0E" x="874" width="15" height="20"/><rect fill="#87DA86" x="754" width="15" height="20"/><rect fill="#48A03E" x="799" width="15" height="20"/><rect fill="#265A1E" x="844" width="15" height="20"/><rect fill="#071B07" x="889" width="16" height="20"/></g></svg>
