<svg width="477" height="470" viewBox="0 0 477 470" fill="none" xmlns="http://www.w3.org/2000/svg" aria-hidden="true" focusable="false">
	<path d="M323.709 61.043c8.293-9.882 18.511-15.518 30.656-16.906 12.71-1.44 23.973 1.96 33.791 10.198 10.125 8.495 15.582 19.127 16.371 31.893 1.049 12.459-2.573 23.629-10.866 33.512-8.033 9.574-18.276 14.926-30.727 16.057-12.191.822-23.35-3.015-33.474-11.51-9.818-8.239-15.381-18.432-16.688-30.582-.742-12.2 2.904-23.088 10.937-32.662Z" fill="#3858E9" style="mix-blend-mode:multiply"/>
	<path d="M414.825 156.402c12.705-2.241 24.155.011 34.351 6.753 10.662 7.067 17.105 16.912 19.331 29.533 2.295 13.016-.359 24.668-7.96 34.955-7.205 10.218-17.16 16.447-29.865 18.687-12.308 2.17-23.595-.313-33.859-7.45-9.868-7.208-15.949-17.319-18.245-30.335-2.225-12.622.066-24.006 6.874-34.153 7.274-9.824 17.065-15.82 29.373-17.99ZM423.332 288.021c11.173 6.45 18.497 15.535 21.973 27.254 3.625 12.267 2.233 23.95-4.175 35.049-6.609 11.446-16.131 18.666-28.567 21.66-12.086 3.196-23.716 1.569-34.889-4.882-10.823-6.249-17.873-15.406-21.149-27.471-2.926-11.864-1.085-23.519 5.523-34.965 6.408-11.099 15.481-18.348 27.219-21.745 11.886-2.849 23.241-1.149 34.065 5.1Z" fill="#2F2F2F" style="mix-blend-mode:multiply"/>
	<path d="M345.247 394.313c4.412 12.123 4.183 23.79-.686 35.002-5.109 11.727-13.685 19.782-25.728 24.165-12.42 4.521-24.355 3.931-35.806-1.769-11.313-5.321-19.176-14.043-23.589-26.166-4.274-11.744-3.789-23.291 1.458-34.639 5.384-10.969 14.286-18.714 26.705-23.234 12.044-4.384 23.653-4.104 34.828.838 10.937 5.458 18.543 14.059 22.818 25.803Z" fill="#1B8362" style="mix-blend-mode:multiply"/>
	<path d="M217.103 425.546c-4.413 12.123-12.087 20.914-23.024 26.372-11.451 5.7-23.199 6.358-35.242 1.975-12.42-4.521-21.184-12.644-26.292-24.372-5.246-11.348-5.663-23.083-1.251-35.206 4.275-11.745 12.069-20.277 23.382-25.598 11.176-4.942 22.973-5.153 35.393-.633 12.043 4.383 20.757 12.06 26.141 23.029 4.87 11.211 5.167 22.689.893 34.433Z" fill="#3858E9" style="mix-blend-mode:multiply"/>
	<path d="M98.866 367.102c-11.172 6.451-22.702 8.251-34.588 5.402-12.436-2.994-21.858-10.041-28.267-21.14-6.608-11.446-8.1-23.302-4.475-35.569 3.276-12.066 10.5-21.324 21.673-27.774 10.823-6.249 22.278-7.776 34.365-4.58 11.738 3.397 20.911 10.819 27.519 22.265 6.408 11.099 8.149 22.581 5.223 34.445-3.476 11.718-10.626 20.702-21.45 26.951Z" fill="#2F2F2F" style="mix-blend-mode:multiply"/>
	<path d="M45.857 246.331c-12.705-2.24-22.694-8.272-29.969-18.095-7.601-10.287-10.29-21.742-8.064-34.363 2.295-13.016 8.774-23.058 19.435-30.125 10.265-7.137 21.75-9.585 34.455-7.345 12.308 2.17 22.065 8.364 29.27 18.581 6.807 10.148 9.063 21.729 6.768 34.745-2.225 12.622-8.272 22.536-18.14 29.743-10.195 6.743-21.446 9.029-33.755 6.859Z" fill="#3858E9" style="mix-blend-mode:multiply"/>
	<path d="M82.88 119.74c-8.293-9.883-12.069-20.925-11.327-33.126.79-12.767 6.093-23.27 15.91-31.507 10.126-8.496 21.543-12.024 34.253-10.584 12.451 1.13 22.823 6.637 31.115 16.52 8.034 9.574 11.526 20.59 10.478 33.048-1.308 12.15-7.024 22.472-17.149 30.968-9.817 8.238-20.822 11.946-33.014 11.124-12.144-1.388-22.233-6.869-30.266-16.443ZM192.612 46.565c0-12.901 4.206-23.787 12.616-32.656C214.039 4.636 224.853 0 237.669 0c13.217 0 24.231 4.636 33.042 13.909 8.811 8.87 13.217 19.755 13.217 32.656 0 12.498-4.406 23.181-13.217 32.051-8.811 8.466-19.825 12.7-33.042 12.7-12.816 0-23.63-4.234-32.441-12.7-8.41-8.87-12.616-19.553-12.616-32.051Z" fill="#1B8362" style="mix-blend-mode:multiply"/>
</svg>
