<svg width="290" height="290" fill="none" xmlns="http://www.w3.org/2000/svg"><g clip-path="url(#clip0_4147_25483)"><path d="M145 288.965c31.616 0 57.246-25.63 57.246-57.246 0-31.617-25.63-57.247-57.246-57.247-31.617 0-57.247 25.63-57.247 57.247 0 31.616 25.63 57.246 57.247 57.246z" fill="#fff" stroke="#000" stroke-width="1.2" stroke-miterlimit="10"/><path d="M128.532 287.393c31.616 0 57.246-25.63 57.246-57.247 0-31.616-25.63-57.246-57.246-57.246-31.617 0-57.247 25.63-57.247 57.246 0 31.617 25.63 57.247 57.247 57.247z" fill="#fff" stroke="#000" stroke-width="1.2" stroke-miterlimit="10"/><path d="M112.658 282.732c31.616 0 57.246-25.63 57.246-57.246 0-31.616-25.63-57.246-57.246-57.246-31.616 0-57.246 25.63-57.246 57.246 0 31.616 25.63 57.246 57.246 57.246z" fill="#fff" stroke="#000" stroke-width="1.2" stroke-miterlimit="10"/><path d="M97.956 275.154c31.616 0 57.246-25.63 57.246-57.246 0-31.616-25.63-57.247-57.246-57.247-31.617 0-57.247 25.631-57.247 57.247s25.63 57.246 57.247 57.246z" fill="#fff" stroke="#000" stroke-width="1.2" stroke-miterlimit="10"/><path d="M84.953 264.928c31.616 0 57.246-25.63 57.246-57.246 0-31.617-25.63-57.247-57.246-57.247-31.616 0-57.247 25.63-57.247 57.247 0 31.616 25.63 57.246 57.247 57.246z" fill="#fff" stroke="#000" stroke-width="1.2" stroke-miterlimit="10"/><path d="M74.126 252.425c31.616 0 57.246-25.63 57.246-57.246 0-31.616-25.63-57.246-57.246-57.246-31.616 0-57.246 25.63-57.246 57.246 0 31.616 25.63 57.246 57.246 57.246z" fill="#fff" stroke="#000" stroke-width="1.2" stroke-miterlimit="10"/><path d="M65.85 238.099c31.616 0 57.246-25.63 57.246-57.247 0-31.616-25.63-57.246-57.246-57.246-31.616 0-57.246 25.63-57.246 57.246 0 31.617 25.63 57.247 57.246 57.247z" fill="#fff" stroke="#000" stroke-width="1.2" stroke-miterlimit="10"/><path d="M60.444 222.464c31.617 0 57.247-25.63 57.247-57.246 0-31.617-25.63-57.247-57.247-57.247-31.616 0-57.246 25.63-57.246 57.247 0 31.616 25.63 57.246 57.246 57.246z" fill="#fff" stroke="#000" stroke-width="1.2" stroke-miterlimit="10"/><path d="M58.084 206.087c31.617 0 57.247-25.63 57.247-57.246 0-31.616-25.63-57.247-57.247-57.247-31.616 0-57.246 25.631-57.246 57.247s25.63 57.246 57.246 57.246z" fill="#fff" stroke="#000" stroke-width="1.2" stroke-miterlimit="10"/><path d="M58.877 189.566c31.616 0 57.246-25.63 57.246-57.247 0-31.616-25.63-57.246-57.246-57.246-31.617 0-57.247 25.63-57.247 57.246 0 31.617 25.63 57.247 57.247 57.247z" fill="#fff" stroke="#000" stroke-width="1.2" stroke-miterlimit="10"/><path d="M62.774 173.497c31.617 0 57.247-25.63 57.247-57.246 0-31.617-25.63-57.247-57.247-57.247-31.616 0-57.246 25.63-57.246 57.247 0 31.616 25.63 57.246 57.246 57.246z" fill="#fff" stroke="#000" stroke-width="1.2" stroke-miterlimit="10"/><path d="M69.65 158.441c31.616 0 57.246-25.63 57.246-57.246 0-31.617-25.63-57.247-57.246-57.247-31.616 0-57.246 25.63-57.246 57.247 0 31.616 25.63 57.246 57.246 57.246z" fill="#fff" stroke="#000" stroke-width="1.2" stroke-miterlimit="10"/><path d="M79.242 144.97c31.617 0 57.247-25.631 57.247-57.247s-25.63-57.246-57.247-57.246c-31.616 0-57.246 25.63-57.246 57.246 0 31.616 25.63 57.247 57.246 57.247z" fill="#fff" stroke="#000" stroke-width="1.2" stroke-miterlimit="10"/><path d="M91.21 133.554c31.617 0 57.247-25.63 57.247-57.246 0-31.616-25.63-57.246-57.246-57.246-31.616 0-57.246 25.63-57.246 57.246 0 31.616 25.63 57.246 57.246 57.246z" fill="#fff" stroke="#000" stroke-width="1.2" stroke-miterlimit="10"/><path d="M105.128 124.612c31.617 0 57.247-25.63 57.247-57.247 0-31.616-25.63-57.246-57.247-57.246-31.616 0-57.246 25.63-57.246 57.246 0 31.617 25.63 57.247 57.246 57.247z" fill="#fff" stroke="#000" stroke-width="1.2" stroke-miterlimit="10"/><path d="M120.485 118.467c31.616 0 57.246-25.63 57.246-57.246 0-31.616-25.63-57.246-57.246-57.246-31.617 0-57.246 25.63-57.246 57.246 0 31.616 25.63 57.246 57.246 57.246z" fill="#fff" stroke="#000" stroke-width="1.2" stroke-miterlimit="10"/><path d="M136.733 115.335c31.616 0 57.246-25.63 57.246-57.246 0-31.616-25.63-57.246-57.246-57.246-31.617 0-57.247 25.63-57.247 57.246 0 31.616 25.63 57.246 57.247 57.246z" fill="#fff" stroke="#000" stroke-width="1.2" stroke-miterlimit="10"/><path d="M153.268 115.335c31.616 0 57.246-25.63 57.246-57.246 0-31.616-25.63-57.246-57.246-57.246-31.616 0-57.246 25.63-57.246 57.246 0 31.616 25.63 57.246 57.246 57.246z" fill="#fff" stroke="#000" stroke-width="1.2" stroke-miterlimit="10"/><path d="M169.516 118.467c31.617 0 57.247-25.63 57.247-57.246 0-31.616-25.63-57.246-57.247-57.246-31.616 0-57.246 25.63-57.246 57.246 0 31.616 25.63 57.246 57.246 57.246z" fill="#fff" stroke="#000" stroke-width="1.2" stroke-miterlimit="10"/><path d="M184.873 124.612c31.616 0 57.246-25.63 57.246-57.247 0-31.616-25.63-57.246-57.246-57.246-31.617 0-57.247 25.63-57.247 57.246 0 31.617 25.63 57.247 57.247 57.247z" fill="#fff" stroke="#000" stroke-width="1.2" stroke-miterlimit="10"/><path d="M198.79 133.554c31.616 0 57.246-25.63 57.246-57.246 0-31.616-25.63-57.246-57.246-57.246-31.616 0-57.246 25.63-57.246 57.246 0 31.616 25.63 57.246 57.246 57.246z" fill="#fff" stroke="#000" stroke-width="1.2" stroke-miterlimit="10"/><path d="M210.759 144.97c31.616 0 57.246-25.631 57.246-57.247s-25.63-57.246-57.246-57.246c-31.617 0-57.247 25.63-57.247 57.246 0 31.616 25.63 57.247 57.247 57.247z" fill="#fff" stroke="#000" stroke-width="1.2" stroke-miterlimit="10"/><path d="M220.359 158.441c31.616 0 57.246-25.63 57.246-57.246 0-31.617-25.63-57.247-57.246-57.247-31.616 0-57.246 25.63-57.246 57.247 0 31.616 25.63 57.246 57.246 57.246z" fill="#fff" stroke="#000" stroke-width="1.2" stroke-miterlimit="10"/><path d="M227.227 173.497c31.616 0 57.246-25.63 57.246-57.246 0-31.617-25.63-57.247-57.246-57.247-31.616 0-57.247 25.63-57.247 57.247 0 31.616 25.631 57.246 57.247 57.246z" fill="#fff" stroke="#000" stroke-width="1.2" stroke-miterlimit="10"/><path d="M231.124 189.566c31.617 0 57.247-25.63 57.247-57.247 0-31.616-25.63-57.246-57.247-57.246-31.616 0-57.246 25.63-57.246 57.246 0 31.617 25.63 57.247 57.246 57.247z" fill="#fff" stroke="#000" stroke-width="1.2" stroke-miterlimit="10"/><path d="M231.917 206.087c31.616 0 57.246-25.63 57.246-57.246 0-31.616-25.63-57.247-57.246-57.247-31.617 0-57.247 25.631-57.247 57.247s25.63 57.246 57.247 57.246z" fill="#fff" stroke="#000" stroke-width="1.2" stroke-miterlimit="10"/><path d="M229.565 222.464c31.616 0 57.246-25.63 57.246-57.246 0-31.617-25.63-57.247-57.246-57.247-31.617 0-57.247 25.63-57.247 57.247 0 31.616 25.63 57.246 57.247 57.246z" fill="#fff" stroke="#000" stroke-width="1.2" stroke-miterlimit="10"/><path d="M224.151 238.099c31.617 0 57.247-25.63 57.247-57.247 0-31.616-25.63-57.246-57.247-57.246-31.616 0-57.246 25.63-57.246 57.246 0 31.617 25.63 57.247 57.246 57.247z" fill="#fff" stroke="#000" stroke-width="1.2" stroke-miterlimit="10"/><path d="M215.883 252.425c31.616 0 57.246-25.63 57.246-57.246 0-31.616-25.63-57.246-57.246-57.246-31.617 0-57.247 25.63-57.247 57.246 0 31.616 25.63 57.246 57.247 57.246z" fill="#fff" stroke="#000" stroke-width="1.2" stroke-miterlimit="10"/><path d="M205.048 264.928c31.616 0 57.246-25.63 57.246-57.246 0-31.617-25.63-57.247-57.246-57.247-31.616 0-57.246 25.63-57.246 57.247 0 31.616 25.63 57.246 57.246 57.246z" fill="#fff" stroke="#000" stroke-width="1.2" stroke-miterlimit="10"/><path d="M192.045 275.154c31.617 0 57.247-25.63 57.247-57.246 0-31.616-25.63-57.247-57.247-57.247-31.616 0-57.246 25.631-57.246 57.247s25.63 57.246 57.246 57.246z" fill="#fff" stroke="#000" stroke-width="1.2" stroke-miterlimit="10"/><path d="M177.343 282.732c31.616 0 57.246-25.63 57.246-57.246 0-31.616-25.63-57.246-57.246-57.246-31.616 0-57.246 25.63-57.246 57.246 0 31.616 25.63 57.246 57.246 57.246z" fill="#fff" stroke="#000" stroke-width="1.2" stroke-miterlimit="10"/><path d="M161.469 287.393c31.617 0 57.247-25.63 57.247-57.247 0-31.616-25.63-57.246-57.247-57.246-31.616 0-57.246 25.63-57.246 57.246 0 31.617 25.63 57.247 57.246 57.247z" fill="#fff" stroke="#000" stroke-width="1.2" stroke-miterlimit="10"/><path d="M145 288.965c31.616 0 57.246-25.63 57.246-57.246 0-31.617-25.63-57.247-57.246-57.247-31.617 0-57.247 25.63-57.247 57.247 0 31.616 25.63 57.246 57.247 57.246zM69.648 158.447c31.617 0 57.247-25.63 57.247-57.246 0-31.616-25.63-57.246-57.247-57.246-31.616 0-57.246 25.63-57.246 57.246 0 31.616 25.63 57.246 57.246 57.246zM220.359 158.447c31.616 0 57.246-25.63 57.246-57.246 0-31.616-25.63-57.246-57.246-57.246-31.616 0-57.246 25.63-57.246 57.246 0 31.616 25.63 57.246 57.246 57.246z" fill="#fff" stroke="#000" stroke-width="1.2" stroke-miterlimit="10"/><path fill-rule="evenodd" clip-rule="evenodd" d="M211.515 100.276L217.806 94l1.059 1.063-6.291 6.276a.249.249 0 0 0-.001.353l6.294 6.31-1.063 1.059-6.294-6.31a1.75 1.75 0 0 1 .005-2.475zm21.642 0L226.865 94l-1.059 1.063 6.292 6.276a.25.25 0 0 1 .001.353l-6.295 6.31 1.063 1.059 6.294-6.31a1.75 1.75 0 0 0-.004-2.475zM147 224.5h-11a.5.5 0 0 0-.5.5v16a.5.5 0 0 0 .5.5h11v-17zm1.5 0h3.5a.5.5 0 0 1 .5.5v16a.5.5 0 0 1-.5.5h-3.5v-17zM136 223h16a2 2 0 0 1 2 2v16a2 2 0 0 1-2 2h-16a2 2 0 0 1-2-2v-16a2 2 0 0 1 2-2z" fill="#1E1E1E"/><path d="M69 102.5v10h1.5v-10h10V101h-10V91H69v10H59v1.5h10z" fill="#1E1E1E"/></g><defs><clipPath id="clip0_4147_25483"><path fill="#fff" d="M0 0h290v289.802H0z"/></clipPath></defs></svg>