<svg width="290" height="290" fill="none" xmlns="http://www.w3.org/2000/svg"><g clip-path="url(#clip0_4147_25485)"><path d="M269.845 217.08c15.797-27.361 6.422-62.349-20.94-78.146-27.361-15.797-62.349-6.423-78.146 20.939-15.797 27.362-6.422 62.349 20.939 78.147 27.362 15.797 62.349 6.422 78.147-20.94z" fill="#fff" stroke="#000" stroke-width="1.2" stroke-miterlimit="10"/><path d="M259.914 230.938c15.797-27.361 6.422-62.349-20.939-78.146-27.362-15.797-62.35-6.423-78.147 20.939-15.797 27.362-6.422 62.349 20.939 78.147 27.362 15.797 62.35 6.422 78.147-20.94z" fill="#fff" stroke="#000" stroke-width="1.2" stroke-miterlimit="10"/><path d="M247.472 242.592c15.797-27.361 6.422-62.349-20.94-78.146-27.361-15.798-62.349-6.423-78.146 20.939-15.797 27.362-6.423 62.349 20.939 78.147 27.362 15.797 62.349 6.422 78.147-20.94z" fill="#fff" stroke="#000" stroke-width="1.2" stroke-miterlimit="10"/><path d="M232.991 251.59c15.797-27.361 6.422-62.349-20.94-78.146-27.361-15.798-62.349-6.423-78.146 20.939-15.797 27.362-6.423 62.349 20.939 78.147 27.362 15.797 62.349 6.422 78.147-20.94z" fill="#fff" stroke="#000" stroke-width="1.2" stroke-miterlimit="10"/><path d="M217.043 257.591c15.797-27.362 6.423-62.349-20.939-78.146-27.362-15.798-62.349-6.423-78.147 20.939-15.797 27.362-6.422 62.349 20.94 78.146 27.361 15.798 62.349 6.423 78.146-20.939z" fill="#fff" stroke="#000" stroke-width="1.2" stroke-miterlimit="10"/><path d="M200.221 260.371c15.797-27.362 6.422-62.349-20.939-78.146-27.362-15.798-62.35-6.423-78.147 20.939-15.797 27.362-6.422 62.349 20.939 78.146 27.362 15.798 62.35 6.423 78.147-20.939z" fill="#fff" stroke="#000" stroke-width="1.2" stroke-miterlimit="10"/><path d="M183.191 259.816c15.797-27.362 6.422-62.349-20.939-78.147-27.362-15.797-62.35-6.422-78.147 20.94-15.797 27.361-6.422 62.349 20.939 78.146 27.362 15.797 62.35 6.423 78.147-20.939z" fill="#fff" stroke="#000" stroke-width="1.2" stroke-miterlimit="10"/><path d="M166.595 255.944c15.798-27.362 6.423-62.349-20.939-78.147-27.362-15.797-62.35-6.422-78.147 20.94-15.797 27.361-6.422 62.349 20.94 78.146 27.362 15.797 62.349 6.423 78.146-20.939z" fill="#fff" stroke="#000" stroke-width="1.2" stroke-miterlimit="10"/><path d="M151.063 248.909c15.797-27.361 6.423-62.349-20.939-78.146-27.362-15.798-62.35-6.423-78.147 20.939-15.797 27.362-6.422 62.349 20.94 78.147 27.361 15.797 62.349 6.422 78.146-20.94z" fill="#fff" stroke="#000" stroke-width="1.2" stroke-miterlimit="10"/><path d="M137.205 238.977c15.797-27.362 6.423-62.349-20.939-78.147-27.362-15.797-62.35-6.422-78.147 20.94-15.797 27.361-6.422 62.349 20.94 78.146 27.361 15.797 62.349 6.423 78.146-20.939z" fill="#fff" stroke="#000" stroke-width="1.2" stroke-miterlimit="10"/><path d="M125.55 226.538c15.797-27.362 6.422-62.349-20.94-78.147-27.361-15.797-62.349-6.422-78.146 20.94-15.797 27.361-6.422 62.349 20.94 78.146 27.361 15.797 62.348 6.423 78.146-20.939z" fill="#fff" stroke="#000" stroke-width="1.2" stroke-miterlimit="10"/><path d="M116.55 212.063c15.797-27.362 6.423-62.349-20.94-78.147-27.361-15.797-62.348-6.422-78.146 20.94-15.797 27.362-6.422 62.349 20.94 78.146 27.361 15.798 62.349 6.423 78.146-20.939z" fill="#fff" stroke="#000" stroke-width="1.2" stroke-miterlimit="10"/><path d="M110.546 196.104c15.798-27.361 6.423-62.349-20.94-78.146-27.36-15.797-62.348-6.422-78.146 20.939-15.797 27.362-6.422 62.349 20.94 78.147 27.361 15.797 62.349 6.422 78.146-20.94z" fill="#fff" stroke="#000" stroke-width="1.2" stroke-miterlimit="10"/><path d="M107.771 179.293c15.797-27.362 6.422-62.349-20.94-78.146-27.361-15.798-62.349-6.423-78.146 20.939-15.797 27.362-6.422 62.349 20.94 78.147 27.361 15.797 62.349 6.422 78.146-20.94z" fill="#fff" stroke="#000" stroke-width="1.2" stroke-miterlimit="10"/><path d="M108.325 162.255c15.797-27.361 6.422-62.349-20.94-78.146-27.361-15.797-62.349-6.423-78.146 20.939-15.797 27.362-6.423 62.349 20.94 78.147 27.36 15.797 62.348 6.422 78.146-20.94z" fill="#fff" stroke="#000" stroke-width="1.2" stroke-miterlimit="10"/><path d="M112.201 145.655c15.798-27.362 6.423-62.35-20.939-78.147-27.362-15.797-62.35-6.422-78.146 20.94-15.798 27.362-6.423 62.349 20.939 78.146 27.362 15.798 62.349 6.423 78.146-20.939z" fill="#fff" stroke="#000" stroke-width="1.2" stroke-miterlimit="10"/><path d="M119.231 130.126c15.797-27.362 6.423-62.35-20.94-78.147-27.36-15.797-62.348-6.422-78.146 20.94-15.797 27.362-6.422 62.349 20.94 78.146 27.361 15.798 62.349 6.423 78.146-20.939z" fill="#fff" stroke="#000" stroke-width="1.2" stroke-miterlimit="10"/><path d="M129.162 116.276c15.797-27.362 6.423-62.35-20.939-78.147-27.362-15.797-62.35-6.422-78.147 20.94-15.797 27.361-6.422 62.349 20.94 78.146 27.361 15.797 62.349 6.423 78.146-20.939z" fill="#fff" stroke="#000" stroke-width="1.2" stroke-miterlimit="10"/><path d="M141.604 104.62c15.798-27.361 6.423-62.349-20.939-78.146-27.362-15.797-62.35-6.423-78.147 20.94-15.797 27.361-6.422 62.348 20.94 78.146 27.362 15.797 62.349 6.422 78.146-20.94z" fill="#fff" stroke="#000" stroke-width="1.2" stroke-miterlimit="10"/><path d="M156.079 95.618c15.797-27.362 6.423-62.35-20.939-78.147-27.362-15.797-62.35-6.422-78.147 20.94-15.797 27.361-6.422 62.349 20.94 78.146 27.361 15.797 62.349 6.423 78.146-20.94z" fill="#fff" stroke="#000" stroke-width="1.2" stroke-miterlimit="10"/><path d="M172.033 89.615c15.797-27.361 6.422-62.349-20.94-78.146-27.361-15.797-62.349-6.423-78.146 20.94-15.797 27.361-6.422 62.348 20.94 78.146 27.361 15.797 62.348 6.422 78.146-20.94z" fill="#fff" stroke="#000" stroke-width="1.2" stroke-miterlimit="10"/><path d="M188.849 86.838c15.797-27.361 6.422-62.349-20.94-78.146-27.361-15.797-62.349-6.423-78.146 20.94-15.797 27.361-6.423 62.348 20.939 78.146 27.362 15.797 62.349 6.422 78.147-20.94z" fill="#fff" stroke="#000" stroke-width="1.2" stroke-miterlimit="10"/><path d="M205.885 87.39c15.797-27.361 6.422-62.349-20.939-78.146-27.362-15.797-62.35-6.422-78.147 20.94-15.797 27.361-6.422 62.349 20.939 78.146 27.362 15.797 62.35 6.422 78.147-20.94z" fill="#fff" stroke="#000" stroke-width="1.2" stroke-miterlimit="10"/><path d="M222.487 91.264c15.797-27.361 6.422-62.349-20.939-78.146-27.362-15.798-62.349-6.423-78.147 20.94-15.797 27.36-6.422 62.348 20.94 78.146 27.361 15.797 62.349 6.422 78.146-20.94z" fill="#fff" stroke="#000" stroke-width="1.2" stroke-miterlimit="10"/><path d="M238.019 98.297c15.797-27.362 6.423-62.349-20.939-78.146-27.362-15.798-62.349-6.423-78.147 20.939-15.797 27.362-6.422 62.349 20.94 78.146 27.361 15.798 62.349 6.423 78.146-20.939z" fill="#fff" stroke="#000" stroke-width="1.2" stroke-miterlimit="10"/><path d="M251.871 108.227c15.797-27.362 6.422-62.35-20.939-78.147-27.362-15.797-62.35-6.422-78.147 20.94-15.797 27.361-6.422 62.349 20.939 78.146 27.362 15.797 62.35 6.422 78.147-20.939z" fill="#fff" stroke="#000" stroke-width="1.2" stroke-miterlimit="10"/><path d="M263.52 120.665c15.797-27.361 6.422-62.349-20.939-78.146-27.362-15.797-62.349-6.422-78.147 20.94-15.797 27.361-6.422 62.348 20.939 78.146 27.362 15.797 62.35 6.422 78.147-20.94z" fill="#fff" stroke="#000" stroke-width="1.2" stroke-miterlimit="10"/><path d="M272.526 135.14c15.797-27.361 6.422-62.349-20.939-78.146-27.362-15.797-62.35-6.423-78.147 20.94-15.797 27.361-6.422 62.348 20.939 78.146 27.362 15.797 62.349 6.422 78.147-20.94z" fill="#fff" stroke="#000" stroke-width="1.2" stroke-miterlimit="10"/><path d="M278.53 151.099c15.797-27.362 6.422-62.35-20.94-78.147-27.361-15.797-62.349-6.422-78.146 20.94-15.797 27.361-6.423 62.349 20.939 78.146 27.362 15.797 62.349 6.423 78.147-20.939z" fill="#fff" stroke="#000" stroke-width="1.2" stroke-miterlimit="10"/><path d="M281.299 167.916c15.797-27.361 6.422-62.349-20.94-78.146-27.361-15.797-62.349-6.423-78.146 20.939-15.797 27.362-6.423 62.349 20.939 78.147 27.362 15.797 62.349 6.422 78.147-20.94z" fill="#fff" stroke="#000" stroke-width="1.2" stroke-miterlimit="10"/><path d="M280.751 184.957c15.798-27.361 6.423-62.349-20.939-78.146-27.362-15.798-62.349-6.423-78.147 20.939-15.797 27.362-6.422 62.349 20.94 78.147 27.362 15.797 62.349 6.422 78.146-20.94z" fill="#fff" stroke="#000" stroke-width="1.2" stroke-miterlimit="10"/><path d="M276.875 201.558c15.797-27.362 6.422-62.349-20.94-78.147-27.361-15.797-62.349-6.422-78.146 20.94-15.798 27.361-6.423 62.349 20.939 78.146 27.362 15.797 62.349 6.423 78.147-20.939z" fill="#fff" stroke="#000" stroke-width="1.2" stroke-miterlimit="10"/><path d="M269.851 217.082c15.797-27.362 6.423-62.349-20.939-78.146-27.362-15.798-62.349-6.423-78.147 20.939-15.797 27.362-6.422 62.349 20.94 78.146 27.361 15.798 62.349 6.423 78.146-20.939z" fill="#fff" stroke="#000" stroke-width="1.2" stroke-miterlimit="10"/><path d="M219 191.5v10h1.5v-10h10V190h-10v-10H219v10h-10v1.5h10z" fill="#1E1E1E"/></g><defs><clipPath id="clip0_4147_25485"><path fill="#fff" d="M0 0h290v290H0z"/></clipPath></defs></svg>