<svg width="290" height="290" fill="none" xmlns="http://www.w3.org/2000/svg"><g clip-path="url(#clip0_4147_25484)"><path d="M.837 145c0 31.616 25.63 57.246 57.246 57.246 31.617 0 57.247-25.63 57.247-57.246 0-31.617-25.63-57.246-57.246-57.246C26.466 87.754.837 113.383.837 145z" fill="#fff" stroke="#000" stroke-width="1.2" stroke-miterlimit="10"/><path d="M2.41 128.532c0 31.616 25.63 57.246 57.246 57.246 31.616 0 57.246-25.63 57.246-57.246 0-31.617-25.63-57.247-57.246-57.247-31.616 0-57.247 25.63-57.247 57.247z" fill="#fff" stroke="#000" stroke-width="1.2" stroke-miterlimit="10"/><path d="M7.07 112.658c0 31.616 25.63 57.246 57.246 57.246 31.616 0 57.246-25.63 57.246-57.246 0-31.616-25.63-57.246-57.246-57.246-31.616 0-57.246 25.63-57.246 57.246z" fill="#fff" stroke="#000" stroke-width="1.2" stroke-miterlimit="10"/><path d="M14.648 97.956c0 31.616 25.63 57.246 57.246 57.246 31.616 0 57.246-25.63 57.247-57.246 0-31.617-25.631-57.247-57.247-57.247S14.648 66.34 14.648 97.956z" fill="#fff" stroke="#000" stroke-width="1.2" stroke-miterlimit="10"/><path d="M24.874 84.953c0 31.616 25.63 57.246 57.246 57.246 31.617 0 57.247-25.63 57.247-57.246 0-31.616-25.63-57.246-57.247-57.246-31.616 0-57.246 25.63-57.246 57.246z" fill="#fff" stroke="#000" stroke-width="1.2" stroke-miterlimit="10"/><path d="M37.377 74.126c0 31.616 25.63 57.246 57.246 57.246 31.616 0 57.246-25.63 57.246-57.246 0-31.616-25.63-57.246-57.246-57.246-31.616 0-57.246 25.63-57.246 57.246z" fill="#fff" stroke="#000" stroke-width="1.2" stroke-miterlimit="10"/><path d="M51.703 65.85c0 31.616 25.63 57.246 57.247 57.246 31.616 0 57.246-25.63 57.246-57.246 0-31.616-25.63-57.246-57.246-57.246-31.617 0-57.247 25.63-57.247 57.246z" fill="#fff" stroke="#000" stroke-width="1.2" stroke-miterlimit="10"/><path d="M67.338 60.444c0 31.617 25.63 57.247 57.246 57.247 31.617 0 57.247-25.63 57.247-57.247 0-31.616-25.63-57.246-57.247-57.246-31.616 0-57.246 25.63-57.246 57.246z" fill="#fff" stroke="#000" stroke-width="1.2" stroke-miterlimit="10"/><path d="M83.715 58.084c0 31.617 25.63 57.247 57.246 57.247 31.616 0 57.247-25.63 57.247-57.247 0-31.616-25.631-57.246-57.247-57.246s-57.246 25.63-57.246 57.246z" fill="#fff" stroke="#000" stroke-width="1.2" stroke-miterlimit="10"/><path d="M100.236 58.877c0 31.616 25.631 57.246 57.247 57.246s57.246-25.63 57.246-57.246c0-31.617-25.63-57.247-57.246-57.247-31.616 0-57.247 25.63-57.247 57.247z" fill="#fff" stroke="#000" stroke-width="1.2" stroke-miterlimit="10"/><path d="M116.305 62.774c0 31.617 25.63 57.247 57.246 57.247 31.617 0 57.247-25.63 57.247-57.247 0-31.616-25.63-57.246-57.247-57.246-31.616 0-57.246 25.63-57.246 57.246z" fill="#fff" stroke="#000" stroke-width="1.2" stroke-miterlimit="10"/><path d="M131.361 69.65c0 31.616 25.63 57.246 57.246 57.246 31.617 0 57.247-25.63 57.247-57.246 0-31.616-25.63-57.246-57.247-57.246-31.616 0-57.246 25.63-57.246 57.246z" fill="#fff" stroke="#000" stroke-width="1.2" stroke-miterlimit="10"/><path d="M144.833 79.242c0 31.617 25.63 57.247 57.246 57.247 31.616 0 57.246-25.63 57.246-57.247 0-31.616-25.63-57.246-57.246-57.246-31.616 0-57.246 25.63-57.246 57.246z" fill="#fff" stroke="#000" stroke-width="1.2" stroke-miterlimit="10"/><path d="M156.248 91.21c0 31.617 25.63 57.247 57.246 57.247 31.616 0 57.246-25.63 57.246-57.246 0-31.616-25.63-57.246-57.246-57.246-31.616 0-57.246 25.63-57.246 57.246z" fill="#fff" stroke="#000" stroke-width="1.2" stroke-miterlimit="10"/><path d="M165.19 105.128c0 31.617 25.63 57.247 57.247 57.247 31.616 0 57.246-25.63 57.246-57.247 0-31.616-25.63-57.246-57.246-57.246-31.617 0-57.247 25.63-57.247 57.246z" fill="#fff" stroke="#000" stroke-width="1.2" stroke-miterlimit="10"/><path d="M171.335 120.485c0 31.616 25.63 57.246 57.246 57.246 31.616 0 57.246-25.63 57.246-57.246 0-31.617-25.63-57.246-57.246-57.246-31.616 0-57.246 25.63-57.246 57.246z" fill="#fff" stroke="#000" stroke-width="1.2" stroke-miterlimit="10"/><path d="M174.467 136.733c0 31.616 25.63 57.246 57.246 57.246 31.616 0 57.246-25.63 57.246-57.246 0-31.617-25.63-57.247-57.246-57.247-31.616 0-57.246 25.63-57.246 57.247z" fill="#fff" stroke="#000" stroke-width="1.2" stroke-miterlimit="10"/><path d="M174.467 153.268c0 31.617 25.63 57.247 57.246 57.247 31.616 0 57.246-25.63 57.246-57.247 0-31.616-25.63-57.246-57.246-57.246-31.616 0-57.246 25.63-57.246 57.246z" fill="#fff" stroke="#000" stroke-width="1.2" stroke-miterlimit="10"/><path d="M171.335 169.516c0 31.616 25.63 57.246 57.246 57.246 31.616 0 57.246-25.63 57.246-57.246 0-31.616-25.63-57.246-57.246-57.246-31.616 0-57.246 25.63-57.246 57.246z" fill="#fff" stroke="#000" stroke-width="1.2" stroke-miterlimit="10"/><path d="M165.19 184.873c0 31.616 25.63 57.246 57.247 57.246 31.616 0 57.246-25.63 57.246-57.246 0-31.617-25.63-57.247-57.246-57.247-31.617 0-57.247 25.63-57.247 57.247z" fill="#fff" stroke="#000" stroke-width="1.2" stroke-miterlimit="10"/><path d="M156.248 198.79c0 31.616 25.63 57.246 57.246 57.246 31.616 0 57.246-25.63 57.246-57.246 0-31.616-25.63-57.246-57.246-57.246-31.616 0-57.246 25.63-57.246 57.246z" fill="#fff" stroke="#000" stroke-width="1.2" stroke-miterlimit="10"/><path d="M144.833 210.759c0 31.616 25.63 57.246 57.246 57.246 31.616 0 57.246-25.63 57.246-57.246 0-31.617-25.63-57.247-57.246-57.247-31.616 0-57.246 25.63-57.246 57.247z" fill="#fff" stroke="#000" stroke-width="1.2" stroke-miterlimit="10"/><path d="M131.361 220.359c0 31.616 25.63 57.246 57.246 57.246 31.617 0 57.247-25.63 57.247-57.246 0-31.616-25.63-57.246-57.247-57.246-31.616 0-57.246 25.63-57.246 57.246z" fill="#fff" stroke="#000" stroke-width="1.2" stroke-miterlimit="10"/><path d="M116.305 227.227c0 31.616 25.63 57.246 57.246 57.246 31.617 0 57.247-25.63 57.247-57.246 0-31.617-25.63-57.247-57.247-57.247-31.616 0-57.246 25.63-57.246 57.247z" fill="#fff" stroke="#000" stroke-width="1.2" stroke-miterlimit="10"/><path d="M100.236 231.124c0 31.617 25.631 57.247 57.247 57.247s57.246-25.63 57.246-57.247c0-31.616-25.63-57.246-57.246-57.246-31.616 0-57.247 25.63-57.247 57.246z" fill="#fff" stroke="#000" stroke-width="1.2" stroke-miterlimit="10"/><path d="M83.715 231.917c0 31.616 25.63 57.246 57.246 57.246 31.616 0 57.247-25.63 57.247-57.246 0-31.616-25.631-57.246-57.247-57.247-31.616 0-57.246 25.631-57.246 57.247z" fill="#fff" stroke="#000" stroke-width="1.2" stroke-miterlimit="10"/><path d="M67.338 229.565c0 31.616 25.63 57.246 57.246 57.246 31.617 0 57.247-25.63 57.247-57.246 0-31.617-25.63-57.247-57.247-57.247-31.616 0-57.246 25.63-57.246 57.247z" fill="#fff" stroke="#000" stroke-width="1.2" stroke-miterlimit="10"/><path d="M51.703 224.151c0 31.617 25.63 57.247 57.247 57.247 31.616 0 57.246-25.63 57.246-57.247 0-31.616-25.63-57.246-57.246-57.246-31.616 0-57.247 25.63-57.247 57.246z" fill="#fff" stroke="#000" stroke-width="1.2" stroke-miterlimit="10"/><path d="M37.377 215.883c0 31.616 25.63 57.246 57.246 57.246 31.616 0 57.246-25.63 57.246-57.246 0-31.617-25.63-57.247-57.246-57.247-31.616 0-57.246 25.63-57.246 57.247z" fill="#fff" stroke="#000" stroke-width="1.2" stroke-miterlimit="10"/><path d="M24.874 205.048c0 31.616 25.63 57.246 57.246 57.246 31.617 0 57.247-25.63 57.247-57.246 0-31.616-25.63-57.246-57.247-57.246-31.616 0-57.246 25.63-57.246 57.246z" fill="#fff" stroke="#000" stroke-width="1.2" stroke-miterlimit="10"/><path d="M14.648 192.045c0 31.617 25.63 57.247 57.246 57.247 31.616 0 57.246-25.63 57.247-57.247 0-31.616-25.631-57.246-57.247-57.246s-57.246 25.63-57.246 57.246z" fill="#fff" stroke="#000" stroke-width="1.2" stroke-miterlimit="10"/><path d="M7.07 177.343c0 31.616 25.63 57.246 57.246 57.246 31.616 0 57.246-25.63 57.246-57.246 0-31.616-25.63-57.246-57.246-57.246-31.616 0-57.246 25.63-57.246 57.246z" fill="#fff" stroke="#000" stroke-width="1.2" stroke-miterlimit="10"/><path d="M2.41 161.469c0 31.617 25.63 57.247 57.246 57.247 31.616 0 57.246-25.63 57.246-57.247 0-31.616-25.63-57.246-57.246-57.246-31.616 0-57.247 25.63-57.247 57.246z" fill="#fff" stroke="#000" stroke-width="1.2" stroke-miterlimit="10"/><path d="M.837 145c0 31.616 25.63 57.246 57.246 57.246 31.617 0 57.247-25.63 57.247-57.246 0-31.617-25.63-57.246-57.246-57.246C26.466 87.754.837 113.383.837 145z" fill="#fff" stroke="#000" stroke-width="1.2" stroke-miterlimit="10"/><path d="M2.41 128.532c0 31.616 25.63 57.246 57.246 57.246 31.616 0 57.246-25.63 57.246-57.246 0-31.617-25.63-57.247-57.246-57.247-31.616 0-57.247 25.63-57.247 57.247z" fill="#fff" stroke="#000" stroke-width="1.2" stroke-miterlimit="10"/><path d="M7.07 112.658c0 31.616 25.63 57.246 57.246 57.246 31.616 0 57.246-25.63 57.246-57.246 0-31.616-25.63-57.246-57.246-57.246-31.616 0-57.246 25.63-57.246 57.246z" fill="#fff" stroke="#000" stroke-width="1.2" stroke-miterlimit="10"/><path d="M14.648 97.956c0 31.616 25.63 57.246 57.246 57.246 31.616 0 57.246-25.63 57.247-57.246 0-31.617-25.631-57.247-57.247-57.247S14.648 66.34 14.648 97.956z" fill="#fff" stroke="#000" stroke-width="1.2" stroke-miterlimit="10"/><path d="M24.874 84.953c0 31.616 25.63 57.246 57.246 57.246 31.617 0 57.247-25.63 57.247-57.246 0-31.616-25.63-57.246-57.247-57.246-31.616 0-57.246 25.63-57.246 57.246z" fill="#fff" stroke="#000" stroke-width="1.2" stroke-miterlimit="10"/><path d="M37.377 74.126c0 31.616 25.63 57.246 57.246 57.246 31.616 0 57.246-25.63 57.246-57.246 0-31.616-25.63-57.246-57.246-57.246-31.616 0-57.246 25.63-57.246 57.246z" fill="#fff" stroke="#000" stroke-width="1.2" stroke-miterlimit="10"/><path d="M51.703 65.85c0 31.616 25.63 57.246 57.247 57.246 31.616 0 57.246-25.63 57.246-57.246 0-31.616-25.63-57.246-57.246-57.246-31.617 0-57.247 25.63-57.247 57.246z" fill="#fff" stroke="#000" stroke-width="1.2" stroke-miterlimit="10"/><path d="M67.338 60.444c0 31.617 25.63 57.247 57.246 57.247 31.617 0 57.247-25.63 57.247-57.247 0-31.616-25.63-57.246-57.247-57.246-31.616 0-57.246 25.63-57.246 57.246z" fill="#fff" stroke="#000" stroke-width="1.2" stroke-miterlimit="10"/><path d="M83.715 58.084c0 31.617 25.63 57.247 57.246 57.247 31.616 0 57.247-25.63 57.247-57.247 0-31.616-25.631-57.246-57.247-57.246s-57.246 25.63-57.246 57.246z" fill="#fff" stroke="#000" stroke-width="1.2" stroke-miterlimit="10"/><path d="M100.236 58.877c0 31.616 25.631 57.246 57.247 57.246s57.246-25.63 57.246-57.246c0-31.617-25.63-57.247-57.246-57.247-31.616 0-57.247 25.63-57.247 57.247z" fill="#fff" stroke="#000" stroke-width="1.2" stroke-miterlimit="10"/><path d="M116.305 62.774c0 31.617 25.63 57.247 57.246 57.247 31.617 0 57.247-25.63 57.247-57.247 0-31.616-25.63-57.246-57.247-57.246-31.616 0-57.246 25.63-57.246 57.246z" fill="#fff" stroke="#000" stroke-width="1.2" stroke-miterlimit="10"/><path d="M131.361 69.65c0 31.616 25.63 57.246 57.246 57.246 31.617 0 57.247-25.63 57.247-57.246 0-31.616-25.63-57.246-57.247-57.246-31.616 0-57.246 25.63-57.246 57.246z" fill="#fff" stroke="#000" stroke-width="1.2" stroke-miterlimit="10"/><path d="M144.833 79.242c0 31.617 25.63 57.247 57.246 57.247 31.616 0 57.246-25.63 57.246-57.247 0-31.616-25.63-57.246-57.246-57.246-31.616 0-57.246 25.63-57.246 57.246z" fill="#fff" stroke="#000" stroke-width="1.2" stroke-miterlimit="10"/><path d="M156.248 91.21c0 31.617 25.63 57.247 57.246 57.247 31.616 0 57.246-25.63 57.246-57.246 0-31.616-25.63-57.246-57.246-57.246-31.616 0-57.246 25.63-57.246 57.246z" fill="#fff" stroke="#000" stroke-width="1.2" stroke-miterlimit="10"/><path d="M165.19 105.128c0 31.617 25.63 57.247 57.247 57.247 31.616 0 57.246-25.63 57.246-57.247 0-31.616-25.63-57.246-57.246-57.246-31.617 0-57.247 25.63-57.247 57.246z" fill="#fff" stroke="#000" stroke-width="1.2" stroke-miterlimit="10"/><path d="M171.335 120.485c0 31.616 25.63 57.246 57.246 57.246 31.616 0 57.246-25.63 57.246-57.246 0-31.617-25.63-57.246-57.246-57.246-31.616 0-57.246 25.63-57.246 57.246z" fill="#fff" stroke="#000" stroke-width="1.2" stroke-miterlimit="10"/><path d="M174.467 136.733c0 31.616 25.63 57.246 57.246 57.246 31.616 0 57.246-25.63 57.246-57.246 0-31.617-25.63-57.247-57.246-57.247-31.616 0-57.246 25.63-57.246 57.247z" fill="#fff" stroke="#000" stroke-width="1.2" stroke-miterlimit="10"/><path d="M174.467 153.268c0 31.617 25.63 57.247 57.246 57.247 31.616 0 57.246-25.63 57.246-57.247 0-31.616-25.63-57.246-57.246-57.246-31.616 0-57.246 25.63-57.246 57.246z" fill="#fff" stroke="#000" stroke-width="1.2" stroke-miterlimit="10"/><path d="M171.335 169.516c0 31.616 25.63 57.246 57.246 57.246 31.616 0 57.246-25.63 57.246-57.246 0-31.616-25.63-57.246-57.246-57.246-31.616 0-57.246 25.63-57.246 57.246z" fill="#fff" stroke="#000" stroke-width="1.2" stroke-miterlimit="10"/><path d="M165.19 184.873c0 31.616 25.63 57.246 57.247 57.246 31.616 0 57.246-25.63 57.246-57.246 0-31.617-25.63-57.247-57.246-57.247-31.617 0-57.247 25.63-57.247 57.247z" fill="#fff" stroke="#000" stroke-width="1.2" stroke-miterlimit="10"/><path d="M156.248 198.79c0 31.616 25.63 57.246 57.246 57.246 31.616 0 57.246-25.63 57.246-57.246 0-31.616-25.63-57.246-57.246-57.246-31.616 0-57.246 25.63-57.246 57.246z" fill="#fff" stroke="#000" stroke-width="1.2" stroke-miterlimit="10"/><path d="M144.833 210.759c0 31.616 25.63 57.246 57.246 57.246 31.616 0 57.246-25.63 57.246-57.246 0-31.617-25.63-57.247-57.246-57.247-31.616 0-57.246 25.63-57.246 57.247z" fill="#fff" stroke="#000" stroke-width="1.2" stroke-miterlimit="10"/><path d="M131.361 220.359c0 31.616 25.63 57.246 57.246 57.246 31.617 0 57.247-25.63 57.247-57.246 0-31.616-25.63-57.246-57.247-57.246-31.616 0-57.246 25.63-57.246 57.246z" fill="#fff" stroke="#000" stroke-width="1.2" stroke-miterlimit="10"/><path d="M116.305 227.227c0 31.616 25.63 57.246 57.246 57.246 31.617 0 57.247-25.63 57.247-57.246 0-31.617-25.63-57.247-57.247-57.247-31.616 0-57.246 25.63-57.246 57.247z" fill="#fff" stroke="#000" stroke-width="1.2" stroke-miterlimit="10"/><path d="M100.236 231.124c0 31.617 25.631 57.247 57.247 57.247s57.246-25.63 57.246-57.247c0-31.616-25.63-57.246-57.246-57.246-31.616 0-57.247 25.63-57.247 57.246z" fill="#fff" stroke="#000" stroke-width="1.2" stroke-miterlimit="10"/><path d="M83.715 231.917c0 31.616 25.63 57.246 57.246 57.246 31.616 0 57.247-25.63 57.247-57.246 0-31.616-25.631-57.246-57.247-57.247-31.616 0-57.246 25.631-57.246 57.247z" fill="#fff" stroke="#000" stroke-width="1.2" stroke-miterlimit="10"/><path d="M67.338 229.565c0 31.616 25.63 57.246 57.246 57.246 31.617 0 57.247-25.63 57.247-57.246 0-31.617-25.63-57.247-57.247-57.247-31.616 0-57.246 25.63-57.246 57.247z" fill="#fff" stroke="#000" stroke-width="1.2" stroke-miterlimit="10"/><path d="M51.703 224.151c0 31.617 25.63 57.247 57.247 57.247 31.616 0 57.246-25.63 57.246-57.247 0-31.616-25.63-57.246-57.246-57.246-31.616 0-57.247 25.63-57.247 57.246z" fill="#fff" stroke="#000" stroke-width="1.2" stroke-miterlimit="10"/><path d="M37.377 215.883c0 31.616 25.63 57.246 57.246 57.246 31.616 0 57.246-25.63 57.246-57.246 0-31.617-25.63-57.247-57.246-57.247-31.616 0-57.246 25.63-57.246 57.247z" fill="#fff" stroke="#000" stroke-width="1.2" stroke-miterlimit="10"/><path d="M24.874 205.048c0 31.616 25.63 57.246 57.246 57.246 31.617 0 57.247-25.63 57.247-57.246 0-31.616-25.63-57.246-57.247-57.246-31.616 0-57.246 25.63-57.246 57.246z" fill="#fff" stroke="#000" stroke-width="1.2" stroke-miterlimit="10"/><path d="M14.648 192.045c0 31.617 25.63 57.247 57.246 57.247 31.616 0 57.246-25.63 57.247-57.247 0-31.616-25.631-57.246-57.247-57.246s-57.246 25.63-57.246 57.246z" fill="#fff" stroke="#000" stroke-width="1.2" stroke-miterlimit="10"/><path d="M7.07 177.343c0 31.616 25.63 57.246 57.246 57.246 31.616 0 57.246-25.63 57.246-57.246 0-31.616-25.63-57.246-57.246-57.246-31.616 0-57.246 25.63-57.246 57.246z" fill="#fff" stroke="#000" stroke-width="1.2" stroke-miterlimit="10"/><path d="M2.41 161.469c0 31.617 25.63 57.247 57.246 57.247 31.616 0 57.246-25.63 57.246-57.247 0-31.616-25.63-57.246-57.246-57.246-31.616 0-57.247 25.63-57.247 57.246z" fill="#fff" stroke="#000" stroke-width="1.2" stroke-miterlimit="10"/><path d="M.917 145.797c0 31.616 25.63 57.246 57.247 57.246 31.616 0 57.246-25.63 57.246-57.246 0-31.616-25.63-57.246-57.246-57.246-31.617 0-57.247 25.63-57.247 57.246zM131.355 69.648c0 31.617 25.63 57.247 57.246 57.247 31.617 0 57.247-25.63 57.247-57.247 0-31.616-25.63-57.246-57.247-57.246-31.616 0-57.246 25.63-57.246 57.246z" fill="#fff" stroke="#000" stroke-width="1.2" stroke-miterlimit="10"/><path fill-rule="evenodd" clip-rule="evenodd" d="M48 137.5h17a.5.5 0 0 1 .5.5v10.357l-2.977-2.895a.75.75 0 0 0-1.046 0l-5.571 3.472-2.927-1.897a.75.75 0 0 0-.85.024l-4.629 2.646V138a.5.5 0 0 1 .5-.5zm-.5 14.064V155a.5.5 0 0 0 .5.5h17a.5.5 0 0 0 .5-.5v-4.597l-.023.024L62 147.046l-5.477 3.381a.749.749 0 0 1-.93.091l-2.997-1.941-5.096 2.987zM46 138a2 2 0 0 1 2-2h17a2 2 0 0 1 2 2v17a2 2 0 0 1-2 2H48a2 2 0 0 1-2-2v-17z" fill="#1E1E1E"/><path d="M131.355 220.359c0 31.616 25.63 57.246 57.246 57.246 31.617 0 57.247-25.63 57.247-57.246 0-31.616-25.63-57.246-57.247-57.246-31.616 0-57.246 25.63-57.246 57.246z" fill="#fff" stroke="#000" stroke-width="1.2" stroke-miterlimit="10"/><path fill-rule="evenodd" clip-rule="evenodd" d="M188.486 231.51c-.609 1.147-1.023 2.08-1.023 2.08l-5.222-19.745 17.705 10.056s-1.052.089-2.357.311c-1.565.266-3.495.725-5.411 2.453-1.921 1.733-2.951 3.448-3.692 4.845zm-.533-2.112c.223-.372.459-.744.703-1.096.451-.654 1.993-2.337 2.588-2.811.637-.506 2.479-1.85 3.243-2.094.4-.128.817-.24 1.231-.338l-11.12-6.001 3.355 12.34z" fill="#1E1E1E"/><path d="M188 71.5v10h1.5v-10h10V70h-10V60H188v10h-10v1.5h10z" fill="#1E1E1E"/></g><defs><clipPath id="clip0_4147_25484"><path fill="#fff" transform="rotate(90 144.901 144.901)" d="M0 0h290v289.802H0z"/></clipPath></defs></svg>