<svg width="290" height="290" viewBox="0 0 290 290" fill="none" xmlns="http://www.w3.org/2000/svg">
<g clip-path="url(#clip0_941_5647)">
<path d="M145 217.5C145.001 227.021 143.126 236.449 139.482 245.245C135.839 254.042 130.499 262.034 123.766 268.766C117.034 275.499 109.042 280.839 100.245 284.482C91.4488 288.126 82.021 290.001 72.5 290V232C74.4042 232 76.2898 231.625 78.0491 230.897C79.8083 230.168 81.4068 229.1 82.753 227.753C85.4716 225.033 86.9992 221.345 87 217.5H145Z" fill="#111111"/>
<path d="M0 217.5C0.00026521 198.272 7.63872 179.831 21.2351 166.235C34.8314 152.639 53.2719 145 72.5 145V203C70.5958 203 68.7102 203.375 66.951 204.103C65.1917 204.832 63.5933 205.9 62.247 207.247C60.9004 208.593 59.8322 210.192 59.1035 211.951C58.3748 213.71 57.9998 215.596 58 217.5H0Z" fill="#B1C5A4"/>
<path d="M58 217.5C58 225.508 64.492 232 72.5 232C80.508 232 87 225.508 87 217.5C87 209.492 80.508 203 72.5 203C64.492 203 58 209.492 58 217.5Z" fill="white"/>
<path d="M217.5 145C227.021 144.999 236.449 146.874 245.245 150.518C254.042 154.161 262.034 159.501 268.766 166.234C275.499 172.966 280.839 180.958 284.482 189.755C288.126 198.551 290.001 207.979 290 217.5H232C232 215.596 231.625 213.71 230.897 211.951C230.168 210.192 229.1 208.593 227.753 207.247C226.407 205.9 224.809 204.832 223.049 204.103C221.29 203.374 219.404 202.999 217.5 203V145Z" fill="#CFCABE"/>
<path d="M217.5 290C207.979 290 198.551 288.125 189.755 284.482C180.959 280.838 172.967 275.498 166.235 268.765C159.502 262.033 154.162 254.04 150.519 245.244C146.875 236.448 145 227.021 145 217.5H203C203 219.404 203.375 221.29 204.103 223.049C204.832 224.808 205.9 226.407 207.247 227.753C209.967 230.472 213.655 231.999 217.5 232V290Z" fill="#D8613C"/>
<path d="M203 218.5C203 226.508 209.492 233 217.5 233C225.508 233 232 226.508 232 218.5C232 210.492 225.508 204 217.5 204C209.492 204 203 210.492 203 218.5Z" fill="white"/>
<path d="M145 217.5C135.479 217.5 126.052 215.625 117.256 211.981C108.46 208.338 100.467 202.998 93.7345 196.266C87.0021 189.534 81.662 181.541 78.019 172.745C74.3755 163.949 72.5002 154.521 72.5 145H130.5C130.5 146.904 130.875 148.79 131.603 150.549C132.332 152.308 133.4 153.907 134.747 155.253C136.093 156.6 137.691 157.668 139.451 158.397C141.21 159.126 143.096 159.501 145 159.5V217.5Z" fill="#CFCABE"/>
<path d="M145 72.5C164.228 72.5 182.669 80.1384 196.265 93.7348C209.862 107.331 217.5 125.772 217.5 145H159.5C159.5 143.096 159.125 141.21 158.397 139.451C157.668 137.692 156.6 136.093 155.253 134.747C152.533 132.028 148.845 130.501 145 130.5V72.5Z" fill="#D8613C"/>
<path d="M130 145.5C130 153.508 136.492 160 144.5 160C152.508 160 159 153.508 159 145.5C159 137.492 152.508 131 144.5 131C136.492 131 130 137.492 130 145.5Z" fill="white"/>
<path d="M72.5 4.64119e-08C86.8392 -0.000512928 100.856 4.25128 112.779 12.2177C124.702 20.184 133.994 31.5072 139.481 44.755C143.125 53.5512 145 62.979 145 72.5H87C87 68.6544 85.4723 64.9662 82.7531 62.247C80.0338 59.5277 76.3456 58 72.5 58V4.64119e-08Z" fill="#CFCABE"/>
<path d="M72.5 145C62.9791 145 53.5514 143.125 44.7553 139.482C35.9592 135.838 27.967 130.498 21.235 123.765C14.5027 117.033 9.16233 109.041 5.51882 100.244C1.87531 91.4484 9.06827e-06 82.0208 0 72.5H58C58.0005 76.3455 59.5284 80.0333 62.2475 82.7525C64.9667 85.4716 68.6545 86.9995 72.5 87V145Z" fill="#D8613C"/>
<path d="M58 72.5C58 80.508 64.492 87 72.5 87C80.508 87 87 80.508 87 72.5C87 64.492 80.508 58 72.5 58C64.492 58 58 64.492 58 72.5Z" fill="white"/>
<path d="M145 72.5C145 62.9791 146.875 53.5514 150.518 44.7553C154.162 35.9592 159.502 27.9669 166.235 21.235C172.967 14.5022 180.959 9.16152 189.755 5.51798C198.551 1.87443 207.979 -0.000589261 217.5 1.38912e-07V58C213.655 58.0005 209.967 59.5284 207.248 62.2475C204.528 64.9667 203.001 68.6545 203 72.5H145Z" fill="#B1C5A4"/>
<path d="M290 72.5C290.001 82.021 288.126 91.4488 284.482 100.245C280.839 109.042 275.499 117.034 268.766 123.766C262.034 130.499 254.042 135.839 245.245 139.482C236.449 143.126 227.021 145.001 217.5 145V87C221.346 87 225.034 85.4723 227.753 82.7531C230.472 80.0338 232 76.3456 232 72.5H290Z" fill="#111111"/>
<path d="M203 72.5C203 80.508 209.492 87 217.5 87C225.508 87 232 80.508 232 72.5C232 64.492 225.508 58 217.5 58C209.492 58 203 64.492 203 72.5Z" fill="white"/>
</g>
<defs>
<clipPath id="clip0_941_5647">
<rect width="290" height="290" fill="white"/>
</clipPath>
</defs>
</svg>
