<svg width="290" height="290" viewBox="0 0 290 290" fill="none" xmlns="http://www.w3.org/2000/svg">
<g clip-path="url(#clip0_941_5603)">
<path d="M290 217.5C290.001 231.839 285.749 245.857 277.783 257.779C269.816 269.702 258.493 278.994 245.245 284.481C236.449 288.125 227.021 290 217.5 290V232C219.404 232 221.29 231.625 223.049 230.897C224.808 230.168 226.407 229.1 227.753 227.753C229.1 226.407 230.168 224.808 230.897 223.049C231.625 221.29 232 219.404 232 217.5H290Z" fill="#111111"/>
<path d="M145 217.5C144.999 203.161 149.251 189.143 157.218 177.221C165.184 165.298 176.508 156.006 189.756 150.519C198.552 146.875 207.979 145 217.5 145V203C215.596 203 213.71 203.375 211.951 204.103C210.192 204.832 208.593 205.9 207.247 207.247C205.9 208.593 204.832 210.192 204.103 211.951C203.375 213.71 203 215.596 203 217.5H145Z" fill="#B1C5A4"/>
<path d="M203 217.5C203 225.508 209.492 232 217.5 232C225.508 232 232 225.508 232 217.5C232 209.492 225.508 203 217.5 203C209.492 203 203 209.492 203 217.5Z" fill="white"/>
<path d="M72.5 145C82.0209 145 91.4485 146.875 100.245 150.518C109.041 154.162 117.033 159.502 123.765 166.235C130.498 172.967 135.838 180.959 139.482 189.755C143.125 198.551 145 207.979 145 217.5H87C87 213.654 85.4723 209.966 82.7531 207.247C80.0338 204.528 76.3456 203 72.5 203V145Z" fill="#CFCABE"/>
<path d="M72.5 290C62.9791 290 53.5514 288.125 44.7552 284.482C35.9591 280.838 27.9669 275.498 21.235 268.765C14.5022 262.033 9.16152 254.041 5.51798 245.245C1.87443 236.449 -0.000589261 227.021 1.38912e-07 217.5H58C58 221.346 59.5277 225.034 62.247 227.753C64.9662 230.472 68.6544 232 72.5 232V290Z" fill="#D8613C"/>
<path d="M58 217.5C58 225.508 64.492 232 72.5 232C80.508 232 87 225.508 87 217.5C87 209.492 80.508 203 72.5 203C64.492 203 58 209.492 58 217.5Z" fill="white"/>
<path d="M0 72.5C0 53.2718 7.63837 34.8311 21.2348 21.2348C34.8311 7.63837 53.2718 0 72.5 0V58C68.6544 58 64.9662 59.5277 62.247 62.247C59.5277 64.9662 58 68.6544 58 72.5H0Z" fill="#B1C5A4"/>
<path d="M145 72.5C145 82.0209 143.125 91.4485 139.482 100.245C135.838 109.041 130.498 117.033 123.765 123.765C117.033 130.498 109.041 135.838 100.245 139.482C91.4486 143.125 82.0209 145 72.5 145V87C76.3456 87 80.0338 85.4723 82.7531 82.7531C85.4723 80.0338 87 76.3456 87 72.5H145Z" fill="#111111"/>
<path d="M58 72.5C58 80.508 64.492 87 72.5 87C80.508 87 87 80.508 87 72.5C87 64.492 80.508 58 72.5 58C64.492 58 58 64.492 58 72.5Z" fill="white"/>
<path d="M217.5 0C236.728 0.000677405 255.168 7.63905 268.765 21.235C275.497 27.9671 280.838 35.9593 284.481 44.7554C288.125 53.5515 290 62.9792 290 72.5H232C232 70.5958 231.625 68.7102 230.897 66.9509C230.168 65.1917 229.1 63.5932 227.753 62.247C226.407 60.9005 224.808 59.8323 223.049 59.1036C221.29 58.3749 219.404 57.9999 217.5 58V0Z" fill="#CFCABE"/>
<path d="M217.5 145C203.161 145.001 189.143 140.749 177.221 132.782C165.298 124.816 156.006 113.492 150.519 100.244C146.875 91.4482 145 82.0207 145 72.5H203C203 74.4042 203.375 76.2898 204.103 78.049C204.832 79.8083 205.9 81.4067 207.247 82.753C208.593 84.0996 210.192 85.1678 211.951 85.8965C213.71 86.6252 215.596 87.0002 217.5 87V145Z" fill="#D8613C"/>
<path d="M203 72.5C203 80.508 209.492 87 217.5 87C225.508 87 232 80.508 232 72.5C232 64.492 225.508 58 217.5 58C209.492 58 203 64.492 203 72.5Z" fill="white"/>
</g>
<defs>
<clipPath id="clip0_941_5603">
<rect width="290" height="290" fill="white"/>
</clipPath>
</defs>
</svg>
