<svg width="290" height="290" viewBox="0 0 290 290" fill="none" xmlns="http://www.w3.org/2000/svg">
<g clip-path="url(#clip0_941_5579)">
<path d="M290 217.5C290.001 227.021 288.126 236.449 284.482 245.245C280.839 254.042 275.499 262.034 268.766 268.766C262.034 275.499 254.042 280.839 245.245 284.482C236.449 288.126 227.021 290.001 217.5 290V232C219.404 232 221.29 231.625 223.049 230.897C224.808 230.168 226.407 229.1 227.753 227.753C229.1 226.407 230.168 224.808 230.897 223.049C231.625 221.29 232 219.404 232 217.5H290Z" fill="#D8613C"/>
<path d="M145 217.5C145 207.979 146.875 198.551 150.518 189.755C154.162 180.959 159.502 172.967 166.235 166.235C172.967 159.502 180.96 154.162 189.756 150.519C198.552 146.875 207.979 145 217.5 145V203C215.596 203 213.71 203.375 211.951 204.103C210.192 204.832 208.593 205.9 207.247 207.247C204.528 209.967 203.001 213.655 203 217.5H145Z" fill="#B1C5A4"/>
<path d="M217.5 145C227.021 145 236.448 146.875 245.244 150.519C258.492 156.005 269.816 165.298 277.783 177.22C285.749 189.143 290.001 203.161 290 217.5H232C232 215.596 231.625 213.71 230.897 211.951C230.168 210.192 229.1 208.593 227.753 207.247C226.407 205.9 224.809 204.832 223.049 204.103C221.29 203.374 219.404 202.999 217.5 203V145Z" fill="#111111"/>
<path d="M217.5 290C207.979 290.001 198.551 288.126 189.755 284.482C180.958 280.839 172.966 275.499 166.234 268.766C159.501 262.034 154.161 254.042 150.518 245.245C146.874 236.449 144.999 227.021 145 217.5H203C203 219.404 203.375 221.29 204.103 223.049C204.832 224.808 205.9 226.407 207.247 227.753C208.593 229.1 210.191 230.168 211.951 230.897C213.71 231.626 215.596 232.001 217.5 232V290Z" fill="#CFCABE"/>
<path d="M203 217.5C203 225.508 209.492 232 217.5 232C225.508 232 232 225.508 232 217.5C232 209.492 225.508 203 217.5 203C209.492 203 203 209.492 203 217.5Z" fill="white"/>
<path d="M72.5 145C82.02 145 91.448 146.875 100.244 150.519C109.04 154.162 117.033 159.502 123.766 166.234C130.498 172.966 135.838 180.959 139.481 189.755C143.125 198.551 145 207.979 145 217.5H72.5V145Z" fill="#CFCABE"/>
<path d="M72.5078 290C53.28 289.999 34.8398 282.361 21.2428 268.766C7.64708 255.169 0.00877388 236.728 0.0078125 217.5L72.5078 217.501V290Z" fill="#111111"/>
<path d="M4.64119e-08 218.5C-0.000512928 204.161 4.25128 190.144 12.2177 178.221C20.184 166.298 31.5072 157.006 44.755 151.519C53.5512 147.875 62.979 146 72.5 146V204C70.5958 204 68.7102 204.375 66.9509 205.103C65.1917 205.832 63.5932 206.9 62.247 208.247C60.9004 209.593 59.8322 211.192 59.1035 212.951C58.3748 214.71 57.9998 216.596 58 218.5H4.64119e-08Z" fill="#B1C5A4"/>
<path d="M145 217.5C145 227.021 143.125 236.449 139.482 245.245C135.838 254.041 130.498 262.033 123.765 268.765C117.033 275.498 109.041 280.838 100.245 284.482C91.4487 288.126 82.0209 290.001 72.5 290V232C74.4042 232 76.2898 231.625 78.049 230.897C79.8083 230.168 81.4067 229.1 82.753 227.753C84.0996 226.407 85.1678 224.808 85.8965 223.049C86.6252 221.29 87.0002 219.404 87 217.5H145Z" fill="#D8613C"/>
<path d="M58 218.5C58 226.508 64.492 233 72.5 233C80.508 233 87 226.508 87 218.5C87 210.492 80.508 204 72.5 204C64.492 204 58 210.492 58 218.5Z" fill="white"/>
<path d="M72.5 0C91.728 0.000530407 110.168 7.63907 123.765 21.2353C137.361 34.8316 144.999 53.272 145 72.5H72.5V0Z" fill="#111111"/>
<path d="M0 72.5C0 53.2718 7.63837 34.8311 21.2348 21.2348C34.8311 7.63837 53.2718 0 72.5 0V58C68.6544 58 64.9662 59.5277 62.247 62.247C59.5277 64.9662 58 68.6544 58 72.5H0Z" fill="#D8613C"/>
<path d="M72.5 145C62.9791 145 53.5514 143.125 44.7552 139.482C35.9591 135.838 27.9669 130.498 21.235 123.765C14.5023 117.033 9.16167 109.041 5.51813 100.245C1.87459 91.4486 -0.000480479 82.0209 9.23526e-08 72.5H58C58 76.3456 59.5277 80.0338 62.247 82.7531C64.9662 85.4723 68.6544 87 72.5 87V145Z" fill="#CFCABE"/>
<path d="M145 72.5C145 82.0209 143.125 91.4486 139.482 100.245C135.838 109.041 130.498 117.033 123.765 123.765C117.033 130.498 109.041 135.839 100.245 139.482C91.4487 143.126 82.0209 145.001 72.5 145V87C74.4043 87.0004 76.29 86.6256 78.0494 85.8971C79.8088 85.1685 81.4074 84.1005 82.7539 82.7539C84.1005 81.4074 85.1685 79.8088 85.8971 78.0494C86.6256 76.29 87.0004 74.4043 87 72.5H145Z" fill="#B1C5A4"/>
<path d="M58 72.5C58 80.508 64.492 87 72.5 87C80.508 87 87 80.508 87 72.5C87 64.492 80.508 58 72.5 58C64.492 58 58 64.492 58 72.5Z" fill="white"/>
<path d="M290 72.5C290.001 82.021 288.126 91.4488 284.482 100.245C280.839 109.042 275.499 117.034 268.766 123.766C262.034 130.499 254.042 135.839 245.245 139.482C236.449 143.126 227.021 145.001 217.5 145V87C221.346 87 225.034 85.4723 227.753 82.7531C230.472 80.0338 232 76.3456 232 72.5H290Z" fill="#D8613C"/>
<path d="M145 72.5C145 62.9791 146.875 53.5514 150.518 44.7553C154.162 35.9592 159.502 27.9669 166.235 21.235C172.967 14.5022 180.959 9.16152 189.755 5.51798C198.551 1.87443 207.979 -0.000589261 217.5 1.38912e-07V58C213.655 58.0005 209.967 59.5284 207.248 62.2475C204.528 64.9667 203.001 68.6545 203 72.5H145Z" fill="#B1C5A4"/>
<path d="M217.5 4.64119e-08C231.839 -0.000512928 245.856 4.25128 257.779 12.2177C269.702 20.184 278.994 31.5072 284.481 44.755C288.125 53.5512 290 62.979 290 72.5H232C232 70.5958 231.625 68.7102 230.897 66.9509C230.168 65.1917 229.1 63.5932 227.753 62.247C225.033 59.5286 221.345 58.001 217.5 58V4.64119e-08Z" fill="#CFCABE"/>
<path d="M203 72.5C203 80.508 209.492 87 217.5 87C225.508 87 232 80.508 232 72.5C232 64.492 225.508 58 217.5 58C209.492 58 203 64.492 203 72.5Z" fill="white"/>
<path d="M73 145.5C73 126.272 80.6384 107.831 94.2348 94.2348C107.831 80.6384 126.272 73 145.5 73V131C143.596 131 141.71 131.375 139.951 132.103C138.192 132.832 136.593 133.9 135.247 135.247C132.528 137.967 131.001 141.655 131 145.5H73Z" fill="#D8613C"/>
<path d="M145.5 73C164.728 73.0005 183.168 80.6391 196.765 94.2353C210.361 107.832 217.999 126.272 218 145.5H160C160 143.596 159.625 141.71 158.897 139.951C158.168 138.192 157.1 136.593 155.753 135.247C154.407 133.9 152.808 132.832 151.049 132.103C149.29 131.375 147.404 131 145.5 131V73Z" fill="#CFCABE"/>
<path d="M218 145.5C218.001 155.021 216.126 164.449 212.482 173.245C208.839 182.042 203.499 190.034 196.766 196.766C190.034 203.499 182.042 208.839 173.245 212.482C164.449 216.126 155.021 218.001 145.5 218V160C147.404 160 149.29 159.625 151.049 158.897C152.808 158.168 154.407 157.1 155.753 155.753C157.1 154.407 158.168 152.808 158.897 151.049C159.625 149.29 160 147.404 160 145.5H218Z" fill="#111111"/>
<path d="M131 145.5C131 153.508 137.492 160 145.5 160C153.508 160 160 153.508 160 145.5C160 137.492 153.508 131 145.5 131C137.492 131 131 137.492 131 145.5Z" fill="white"/>
</g>
<defs>
<clipPath id="clip0_941_5579">
<rect width="290" height="290" fill="white"/>
</clipPath>
</defs>
</svg>
