<svg width="181" height="180" viewBox="0 0 181 180" fill="none" xmlns="http://www.w3.org/2000/svg" aria-hidden="true" focusable="false"><g fill="#FFFFFF" stroke="#3858E9" stroke-width="1.2" stroke-miterlimit="10"><path d="M32.8,144c-4.3,0-8.4,0.6-12.2,1.6c11.6,14.6,27.8,25.6,46.3,30.6c0.6-1.9,0.9-3.9,0.9-5.9C67.9,155.8,52.2,144,32.8,144z"/><path d="M32.8,133.5c-6.6,0-12.8,1.4-18.1,3.8c10.8,17.3,27.4,30.7,47,37.4c3.9-4.2,6.1-9.3,6.1-14.9C67.9,145.3,52.2,133.5,32.8,133.5z"/><path d="M67.9,149.3c0-14.5-15.7-26.3-35.1-26.3c-8.6,0-16.5,2.3-22.6,6.2c9,18.4,23.9,33.1,42.4,41.8C6.9,158.3,67.9,149.3z"/><path d="M67.9,138.8c0-14.5-15.7-26.3-35.1-26.3c-10.3,0-19.6,3.3-26,8.7c6.6,17.8,18.7,32.9,34.2,43.3C56.4,161.6,67.9,151.2,67.9,138.8L67.9,138.8L67.9,138.8z"/><path d="M67.9,128.2c0-14.5-15.7-26.3-35.1-26.3c-11.8,0-22.2,4.4-28.6,11.1c4.2,16,12.8,30.2,24.3,41.4c1.4,0.1,2.8,0.2,4.2,0.2C52.2,154.6,67.9,142.8,67.9,128.2z"/><path d="M67.9,117.7c0-14.5-15.7-26.3-35.1-26.3c-13,0-24.3,5.3-30.4,13.2c2.2,13.3,7.3,25.8,15,36.8c4.6,1.7,9.8,2.6,15.4,2.6C52.2,144,67.9,132.3,67.9,117.7z"/><path d="M67.9,107.2c0-14.5-15.7-26.3-35.1-26.3C19,80.9,7.1,86.8,1.4,95.5c0.6,10.7,3.2,21.2,7.6,31c6.3,4.3,14.6,7,23.8,7C52.2,133.5,67.9,121.7,67.9,107.2L67.9,107.2z"/><path d="M20.6,98l24.8,18.6 M20.6,116.6L45.4,98 M33,94.2v26.3 M15.4,107.3h35.1"/><ellipse cx="103" cy="128.2" rx="35.1" ry="26.3"/><ellipse cx="103" cy="118.2" rx="35.1" ry="26.3"/><ellipse cx="103" cy="108.1" rx="35.1" ry="26.3"/><ellipse cx="103" cy="98" rx="35.1" ry="26.3"/><ellipse cx="103" cy="87.9" rx="35.1" ry="26.3"/><ellipse cx="103" cy="77.8" rx="35.1" ry="26.3"/><ellipse cx="103" cy="67.7" rx="35.1" ry="26.3"/><ellipse cx="103" cy="57.6" rx="35.1" ry="26.3"/><ellipse cx="103" cy="47.5" rx="35.1" ry="26.3"/><path d="M112.9,36.4l-9.9,7.4l-9.9-7.4 M117.9,55l-9.9-7.4l9.9-7.4 M88.1,40.1l9.9,7.4L88.1,55 M93.1,58.7l9.9-7.4l9.9,7.4"/><path d="M103,140.5c-19.4,0-35.1,11.8-35.1,26.3c0,3.7,1,7.2,2.8,10.4c6.5,1.5,13.2,2.2,20,2.2c17.4,0,33.6-5,47.3-13.5C137.4,151.8,122,140.5,103,140.5z"/><path d="M134.4,168.1c2.4-3.5,3.7-7.6,3.7-11.8c0-14.5-15.7-26.3-35.1-26.3s-35.1,11.8-35.1,26.3c0,9.9,7.3,18.6,18.1,23c1.6,0.1,3.1,0.1,4.7,0.1C106.6,179.5,121.5,175.3,134.4,168.1L134.4,168.1z"/><ellipse cx="103" cy="145.8" rx="35.1" ry="26.3"/><ellipse cx="103" cy="145.8" rx="17.5" ry="13.2"/><line x1="103" y1="132.8" x2="103" y2="159"/><path d="M172.4,126.5c-19,0.3-34.3,12-34.3,26.3c0,3.9,1.2,7.7,3.2,11C154.8,154.5,165.7,141.6,172.4,126.5L172.4,126.5z"/><path d="M138.1,142.3c0,6.7,3.3,12.8,8.8,17.4c13.8-11.1,24.2-26.2,29.5-43.6c-1-0.1-2.1-0.1-3.2-0.1C153.8,116,138.1,127.7,138.1,142.3z"/><path d="M138.1,131.8c0,9.1,6.2,17.1,15.5,21.9c12.8-12.7,21.9-29.3,25.2-47.8c-1.9-0.2-3.7-0.3-5.6-0.3C153.8,105.4,138.1,117.2,138.1,131.8L138.1,131.8z"/><path d="M138.1,121.2c0,11.2,9.4,20.8,22.6,24.6c11.2-14,18.2-31.4,19.4-50.4c-2.3-0.3-4.6-0.5-6.8-0.5C153.8,94.9,138.1,106.7,138.1,121.2z"/><path d="M155.8,108.2v26.3 M155.8,134.5h12.6 M155.8,108.2h22.5 M173.3,108.2v16.4 M155.8,121.4h18.9"/></g><path fill="none" stroke="#3858E9" stroke-width="1.2" stroke-miterlimit="10" d="M90.7,179.5c49.4,0,89.5-40.1,89.5-89.5S140.1,0.5,90.7,0.5S1.2,40.6,1.2,90S41.3,179.5,90.7,179.5z"/></svg>