<svg width="181" height="180" viewBox="0 0 181 180" fill="none" xmlns="http://www.w3.org/2000/svg" aria-hidden="true" focusable="false"><g fill="#FFF" stroke-miterlimit="10" stroke-width="1.2"><g stroke="#D8DEF8"><circle cx="143.2" cy="78.9" r="35.8"/><circle cx="139.9" cy="68.5" r="35.8"/><circle cx="134.6" cy="59.2" r="35.8"/><circle cx="127.7" cy="51.1" r="35.8"/><circle cx="119.3" cy="44.6" r="35.8"/><circle cx="109.7" cy="39.8" r="35.8"/><circle cx="99.1" cy="37" r="35.8"/><circle cx="87.8" cy="36.4" r="35.8"/><circle cx="76.8" cy="38.1" r="35.8"/><circle cx="66.7" cy="41.9" r="35.8"/><circle cx="57.6" cy="47.6" r="35.8"/><circle cx="49.9" cy="55" r="35.8"/><circle cx="43.8" cy="63.7" r="35.8"/><circle cx="39.4" cy="73.6" r="35.8"/><circle cx="37.2" cy="84.3" r="35.8"/><circle cx="37.2" cy="95.7" r="35.8"/><circle cx="39.5" cy="106.5" r="35.8"/><circle cx="43.8" cy="116.4" r="35.8"/><circle cx="49.9" cy="125.1" r="35.8"/><circle cx="57.6" cy="132.4" r="35.8"/><circle cx="66.7" cy="138.1" r="35.8"/><circle cx="76.9" cy="141.9" r="35.8"/></g><circle cx="87.8" cy="143.7" r="35.8" stroke="#C5CDF4"/><circle cx="99.1" cy="143.1" r="35.8" stroke="#B1BCF1"/><circle cx="109.7" cy="140.3" r="35.8" stroke="#9EAAEE"/><circle cx="119.3" cy="135.5" r="35.8" stroke="#8C9AEC"/><circle cx="127.7" cy="128.9" r="35.8" stroke="#7789E9"/><g stroke="#3858E9"><circle cx="134.9" cy="120.9" r="35.8"/><circle cx="140.2" cy="111.5" r="35.8"/><circle cx="143.2" cy="101.2" r="35.8"/><circle cx="144.4" cy="89.8" r="35.8"/><path d="m154.5 74.8-10.1 10.1-10.1-10.1m25.3 25.3L149.4 90l10.1-10.1m-30.3 0L139.3 90l-10.1 10.1m5 5.1 10.1-10.1 10.1 10.1"/><circle cx="90.6" cy="90" r="17.9"/><path d="M76.9 101.5a14.3 14.3 0 0 1 27.4 0M90.6 91.4c4 0 7.2-3.2 7.2-7.2S94.6 77 90.6 77s-7.2 3.2-7.2 7.2 3.3 7.2 7.2 7.2z"/></g></g></svg>