<svg width="181" height="180" fill="none" xmlns="http://www.w3.org/2000/svg"><g clip-path="url(#clip0_1916_6212)" stroke="#151515" stroke-width="1.2"><path d="M144.361 125.815c19.78 0 35.815-16.035 35.815-35.815 0-19.78-16.035-35.815-35.815-35.815-19.78 0-35.815 16.035-35.815 35.815 0 19.78 16.035 35.815 35.815 35.815z" fill="#fff" stroke-miterlimit="10"/><path d="M143.197 114.652c19.78 0 35.815-16.035 35.815-35.816 0-19.78-16.035-35.815-35.815-35.815-19.78 0-35.815 16.035-35.815 35.815 0 19.78 16.035 35.816 35.815 35.816z" fill="#fff" stroke-miterlimit="10"/><path d="M139.87 104.283c19.78 0 35.815-16.035 35.815-35.815 0-19.78-16.035-35.815-35.815-35.815-19.78 0-35.815 16.035-35.815 35.815 0 19.78 16.035 35.815 35.815 35.815z" fill="#fff" stroke-miterlimit="10"/><path d="M134.616 94.953c19.78 0 35.815-16.035 35.815-35.815 0-19.78-16.035-35.815-35.815-35.815-19.78 0-35.815 16.035-35.815 35.815 0 19.78 16.035 35.815 35.815 35.815z" fill="#fff" stroke-miterlimit="10"/><path d="M127.671 86.898c19.78 0 35.815-16.035 35.815-35.815 0-19.78-16.035-35.815-35.815-35.815-19.78 0-35.815 16.035-35.815 35.815 0 19.78 16.035 35.815 35.815 35.815z" fill="#fff" stroke-miterlimit="10"/><path d="M119.276 80.355c19.78 0 35.815-16.035 35.815-35.815 0-19.78-16.035-35.815-35.815-35.815-19.78 0-35.815 16.035-35.815 35.815 0 19.78 16.035 35.815 35.815 35.815z" fill="#fff" stroke-miterlimit="10"/><path d="M109.663 75.56c19.78 0 35.816-16.036 35.816-35.816S129.443 3.93 109.663 3.93 73.848 19.964 73.848 39.744c0 19.78 16.035 35.815 35.815 35.815z" fill="#fff" stroke-miterlimit="10"/><path d="M99.076 72.751c19.781 0 35.816-16.035 35.816-35.815 0-19.78-16.035-35.815-35.816-35.815-19.78 0-35.815 16.035-35.815 35.815 0 19.78 16.035 35.815 35.815 35.815z" fill="#fff" stroke-miterlimit="10"/><path d="M87.784 72.168c19.78 0 35.815-16.035 35.815-35.816 0-19.78-16.035-35.815-35.815-35.815-19.78 0-35.815 16.035-35.815 35.815 0 19.78 16.035 35.816 35.815 35.816z" fill="#fff" stroke-miterlimit="10"/><path d="M76.796 73.894c19.78 0 35.815-16.035 35.815-35.815 0-19.78-16.035-35.815-35.815-35.815-19.78 0-35.816 16.035-35.816 35.815 0 19.78 16.036 35.815 35.816 35.815z" fill="#fff" stroke-miterlimit="10"/><path d="M66.667 77.722c19.78 0 35.815-16.034 35.815-35.815 0-19.78-16.035-35.815-35.815-35.815-19.78 0-35.815 16.035-35.815 35.815 0 19.78 16.035 35.816 35.815 35.816z" fill="#fff" stroke-miterlimit="10"/><path d="M57.631 83.424c19.78 0 35.815-16.035 35.815-35.815 0-19.78-16.035-35.815-35.815-35.815-19.78 0-35.815 16.035-35.815 35.815 0 19.78 16.035 35.815 35.815 35.815z" fill="#fff" stroke-miterlimit="10"/><path d="M49.934 90.752c19.78 0 35.816-16.035 35.816-35.815 0-19.78-16.035-35.815-35.816-35.815-19.78 0-35.815 16.035-35.815 35.815 0 19.78 16.035 35.815 35.815 35.815z" fill="#fff" stroke-miterlimit="10"/><path d="M43.803 99.477c19.78 0 35.815-16.035 35.815-35.816 0-19.78-16.035-35.815-35.815-35.815-19.78 0-35.815 16.035-35.815 35.816 0 19.78 16.035 35.815 35.815 35.815z" fill="#fff" stroke-miterlimit="10"/><path d="M39.483 109.355c19.78 0 35.816-16.035 35.816-35.816 0-19.78-16.035-35.815-35.816-35.815-19.78 0-35.815 16.035-35.815 35.815 0 19.78 16.035 35.816 35.815 35.816z" fill="#fff" stroke-miterlimit="10"/><path d="M37.21 120.149c19.78 0 35.814-16.035 35.814-35.815 0-19.78-16.035-35.815-35.815-35.815-19.78 0-35.815 16.035-35.815 35.815 0 19.78 16.035 35.815 35.815 35.815z" fill="#fff" stroke-miterlimit="10"/><path d="M37.21 131.485c19.78 0 35.814-16.035 35.814-35.815 0-19.78-16.035-35.816-35.815-35.816-19.78 0-35.815 16.035-35.815 35.816 0 19.78 16.035 35.815 35.815 35.815z" fill="#fff" stroke-miterlimit="10"/><path d="M39.483 142.279c19.78 0 35.816-16.035 35.816-35.815 0-19.78-16.035-35.815-35.816-35.815-19.78 0-35.815 16.035-35.815 35.815 0 19.78 16.035 35.815 35.815 35.815z" fill="#fff" stroke-miterlimit="10"/><path d="M43.803 152.157c19.78 0 35.815-16.035 35.815-35.815 0-19.78-16.035-35.815-35.815-35.815-19.78 0-35.815 16.035-35.815 35.815 0 19.78 16.035 35.815 35.815 35.815z" fill="#fff" stroke-miterlimit="10"/><path d="M49.934 160.878c19.78 0 35.816-16.035 35.816-35.815 0-19.78-16.035-35.815-35.816-35.815-19.78 0-35.815 16.035-35.815 35.815 0 19.78 16.035 35.815 35.815 35.815z" fill="#fff" stroke-miterlimit="10"/><path d="M57.631 168.21c19.78 0 35.815-16.035 35.815-35.816 0-19.78-16.035-35.815-35.815-35.815-19.78 0-35.815 16.035-35.815 35.815 0 19.781 16.035 35.816 35.815 35.816z" fill="#fff" stroke-miterlimit="10"/><path d="M66.667 173.908c19.78 0 35.815-16.035 35.815-35.815 0-19.781-16.035-35.816-35.815-35.816-19.78 0-35.815 16.035-35.815 35.816 0 19.78 16.035 35.815 35.815 35.815z" fill="#fff" stroke-miterlimit="10"/><path d="M76.796 177.74c19.78 0 35.815-16.035 35.815-35.815 0-19.78-16.035-35.815-35.815-35.815-19.78 0-35.816 16.035-35.816 35.815 0 19.78 16.036 35.815 35.816 35.815z" fill="#fff" stroke-miterlimit="10"/><path d="M87.784 179.463c19.78 0 35.815-16.035 35.815-35.815 0-19.781-16.035-35.816-35.815-35.816-19.78 0-35.815 16.035-35.815 35.816 0 19.78 16.035 35.815 35.815 35.815z" fill="#fff" stroke-miterlimit="10"/><path d="M99.076 178.879c19.781 0 35.816-16.035 35.816-35.815 0-19.78-16.035-35.815-35.816-35.815-19.78 0-35.815 16.035-35.815 35.815 0 19.78 16.035 35.815 35.815 35.815z" fill="#fff" stroke-miterlimit="10"/><path d="M109.663 176.071c19.78 0 35.816-16.035 35.816-35.815 0-19.78-16.036-35.815-35.816-35.815s-35.815 16.035-35.815 35.815c0 19.78 16.035 35.815 35.815 35.815z" fill="#fff" stroke-miterlimit="10"/><path d="M119.276 171.275c19.78 0 35.815-16.035 35.815-35.815 0-19.78-16.035-35.815-35.815-35.815-19.78 0-35.815 16.035-35.815 35.815 0 19.78 16.035 35.815 35.815 35.815z" fill="#fff" stroke-miterlimit="10"/><path d="M127.671 164.732c19.78 0 35.815-16.035 35.815-35.815 0-19.78-16.035-35.815-35.815-35.815-19.78 0-35.815 16.035-35.815 35.815 0 19.78 16.035 35.815 35.815 35.815z" fill="#fff" stroke-miterlimit="10"/><path d="M134.616 156.677c19.78 0 35.815-16.035 35.815-35.815 0-19.78-16.035-35.815-35.815-35.815-19.78 0-35.815 16.035-35.815 35.815 0 19.78 16.035 35.815 35.815 35.815z" fill="#fff" stroke-miterlimit="10"/><path d="M139.87 147.347c19.78 0 35.815-16.035 35.815-35.815 0-19.78-16.035-35.815-35.815-35.815-19.78 0-35.815 16.035-35.815 35.815 0 19.78 16.035 35.815 35.815 35.815z" fill="#fff" stroke-miterlimit="10"/><path d="M143.197 136.982c19.78 0 35.815-16.035 35.815-35.815 0-19.78-16.035-35.815-35.815-35.815-19.78 0-35.815 16.035-35.815 35.815 0 19.78 16.035 35.815 35.815 35.815z" fill="#fff" stroke-miterlimit="10"/><path d="M144.361 125.815c19.78 0 35.815-16.035 35.815-35.815 0-19.78-16.035-35.815-35.815-35.815-19.78 0-35.815 16.035-35.815 35.815 0 19.78 16.035 35.815 35.815 35.815z" fill="#fff" stroke-miterlimit="10"/><path d="M144.361 125.815c19.78 0 35.815-16.035 35.815-35.815 0-19.78-16.035-35.815-35.815-35.815-19.78 0-35.815 16.035-35.815 35.815 0 19.78 16.035 35.815 35.815 35.815z" fill="#fff" stroke-miterlimit="10"/><path d="M154.49 74.807l-10.129 10.129-10.132-10.129M159.554 100.132L149.425 90l10.129-10.129M129.165 79.871L139.293 90l-10.128 10.132M134.229 105.196l10.132-10.132 10.129 10.132" stroke-linejoin="bevel"/><path d="M90.638 107.908c9.89 0 17.908-8.018 17.908-17.908s-8.018-17.908-17.908-17.908S72.731 80.11 72.731 90s8.017 17.908 17.907 17.908z" fill="#fff" stroke-miterlimit="10"/><path d="M76.943 101.54c1.801-5.853 7.252-10.107 13.695-10.107 6.443 0 11.869 4.233 13.682 10.067M90.638 91.433a7.163 7.163 0 1 0 0-14.326 7.163 7.163 0 0 0 0 14.326z" stroke-miterlimit="10"/></g><defs><clipPath id="clip0_1916_6212"><path fill="#fff" transform="translate(.857)" d="M0 0h179.857v180H0z"/></clipPath></defs></svg>