<svg width="181" height="180" fill="none" xmlns="http://www.w3.org/2000/svg"><g clip-path="url(#clip0_1916_6260)" stroke="#151515" stroke-width="1.2"><path d="M90.713 179.474c49.415 0 89.474-40.059 89.474-89.474 0-49.415-40.059-89.474-89.474-89.474C41.3.526 1.24 40.585 1.24 90c0 49.415 40.058 89.474 89.474 89.474z" stroke-miterlimit="10"/><path d="M32.819 144.035c-4.274 0-8.369.576-12.158 1.625 11.649 14.645 27.793 25.551 46.347 30.635.586-1.909.898-3.899.898-5.944 0-14.533-15.708-26.316-35.087-26.316z" fill="#fff" stroke-miterlimit="10"/><path d="M32.819 133.509c-6.614 0-12.8 1.372-18.08 3.758 10.806 17.337 27.378 30.705 47.038 37.421 3.866-4.228 6.13-9.348 6.13-14.863 0-14.534-15.71-26.316-35.088-26.316z" fill="#fff" stroke-miterlimit="10"/><path d="M67.906 149.298c0-14.533-15.708-26.316-35.087-26.316-8.6 0-16.474 2.323-22.576 6.172A89.833 89.833 0 0 0 52.668 171c9.203-4.744 15.238-12.695 15.238-21.702z" fill="#fff" stroke-miterlimit="10"/><path d="M67.906 138.772c0-14.533-15.708-26.316-35.087-26.316-10.32 0-19.597 3.34-26.018 8.66 6.59 17.768 18.66 32.87 34.162 43.259 15.452-2.754 26.943-13.171 26.943-25.6v-.003z" fill="#fff" stroke-miterlimit="10"/><path d="M67.906 128.246c0-14.534-15.708-26.316-35.087-26.316-11.797 0-22.232 4.365-28.593 11.059 4.238 15.993 12.796 30.225 24.347 41.379 1.393.127 2.807.193 4.246.193 19.379 0 35.087-11.782 35.087-26.315z" fill="#fff" stroke-miterlimit="10"/><path d="M67.906 117.719c0-14.533-15.708-26.316-35.087-26.316-12.986 0-24.327 5.292-30.393 13.158a88.985 88.985 0 0 0 15.038 36.825c4.639 1.695 9.85 2.649 15.355 2.649 19.379 0 35.087-11.782 35.087-26.316z" fill="#fff" stroke-miterlimit="10"/><path d="M67.906 107.193c0-14.533-15.708-26.316-35.087-26.316-13.755 0-25.656 5.937-31.407 14.576a88.992 88.992 0 0 0 7.603 31.07c6.256 4.337 14.618 6.986 23.807 6.986 19.38 0 35.088-11.783 35.088-26.316h-.004z" fill="#fff" stroke-miterlimit="10"/><path d="M20.587 98.021l24.814 18.607M20.587 116.628l24.814-18.607M32.994 94.168v26.316M15.45 107.323l35.088.003" stroke-miterlimit="10"/><path d="M102.994 154.561c19.379 0 35.088-11.782 35.088-26.315 0-14.534-15.709-26.316-35.088-26.316-19.378 0-35.088 11.782-35.088 26.316 0 14.533 15.71 26.315 35.088 26.315z" fill="#fff" stroke-miterlimit="10"/><path d="M102.994 144.474c19.379 0 35.088-11.782 35.088-26.316 0-14.534-15.709-26.316-35.088-26.316-19.378 0-35.088 11.782-35.088 26.316 0 14.534 15.71 26.316 35.088 26.316z" fill="#fff" stroke-miterlimit="10"/><path d="M102.994 134.386c19.379 0 35.088-11.782 35.088-26.316 0-14.534-15.709-26.316-35.088-26.316-19.378 0-35.088 11.782-35.088 26.316 0 14.534 15.71 26.316 35.088 26.316z" fill="#fff" stroke-miterlimit="10"/><path d="M102.994 124.298c19.379 0 35.088-11.782 35.088-26.316 0-14.533-15.709-26.315-35.088-26.315-19.378 0-35.088 11.782-35.088 26.316 0 14.533 15.71 26.315 35.088 26.315z" fill="#fff" stroke-miterlimit="10"/><path d="M102.994 114.211c19.379 0 35.088-11.782 35.088-26.316 0-14.534-15.709-26.316-35.088-26.316-19.378 0-35.088 11.782-35.088 26.316 0 14.534 15.71 26.316 35.088 26.316z" fill="#fff" stroke-miterlimit="10"/><path d="M102.994 104.123c19.379 0 35.088-11.782 35.088-26.316 0-14.534-15.709-26.316-35.088-26.316-19.378 0-35.088 11.782-35.088 26.316 0 14.534 15.71 26.316 35.088 26.316z" fill="#fff" stroke-miterlimit="10"/><path d="M102.994 94.035c19.379 0 35.088-11.782 35.088-26.316 0-14.533-15.709-26.315-35.088-26.315-19.378 0-35.088 11.781-35.088 26.315s15.71 26.316 35.088 26.316z" fill="#fff" stroke-miterlimit="10"/><path d="M102.994 83.947c19.379 0 35.088-11.782 35.088-26.315 0-14.534-15.709-26.316-35.088-26.316-19.378 0-35.088 11.782-35.088 26.316 0 14.533 15.71 26.315 35.088 26.315z" fill="#fff" stroke-miterlimit="10"/><path d="M102.994 73.86c19.379 0 35.088-11.782 35.088-26.316 0-14.534-15.709-26.316-35.088-26.316-19.378 0-35.088 11.782-35.088 26.316 0 14.534 15.71 26.316 35.088 26.316z" fill="#fff" stroke-miterlimit="10"/><path d="M112.917 36.379l-9.923 7.442-9.923-7.442M117.882 54.986l-9.926-7.442 9.926-7.442M88.106 40.102l9.927 7.442-9.927 7.442M93.071 58.709l9.923-7.442 9.923 7.442" stroke-linejoin="bevel"/><path d="M102.994 140.526c-19.379 0-35.088 11.783-35.088 26.316 0 3.691 1.014 7.204 2.846 10.393a89.72 89.72 0 0 0 19.962 2.239c17.385 0 33.61-4.965 47.343-13.548-.642-14.108-16.094-25.4-35.063-25.4z" fill="#fff" stroke-miterlimit="10"/><path d="M134.363 168.116c2.379-3.548 3.719-7.558 3.719-11.8 0-14.534-15.709-26.316-35.088-26.316s-35.088 11.782-35.088 26.316c0 9.916 7.313 18.551 18.116 23.035 1.555.081 3.12.123 4.691.123 15.853 0 30.737-4.127 43.65-11.358z" fill="#fff" stroke-miterlimit="10"/><path d="M102.994 172.105c19.379 0 35.088-11.782 35.088-26.316 0-14.533-15.709-26.315-35.088-26.315-19.378 0-35.088 11.782-35.088 26.315 0 14.534 15.71 26.316 35.088 26.316z" fill="#fff" stroke-miterlimit="10"/><path d="M120.538 145.789c0 7.267-7.856 13.158-17.544 13.158s-17.544-5.891-17.544-13.158M103.096 159.081l-.053-26.316" stroke-miterlimit="10"/><path d="M120.538 145.789c0-7.266-7.856-13.157-17.544-13.157s-17.544 5.891-17.544 13.157" stroke-miterlimit="10"/><path d="M172.426 126.498c-19.035.299-34.344 11.962-34.344 26.309 0 3.93 1.151 7.656 3.207 11.004 13.523-9.285 24.368-22.186 31.133-37.313h.004z" fill="#fff" stroke-miterlimit="10"/><path d="M138.082 142.281c0 6.666 3.309 12.758 8.761 17.393 13.786-11.12 24.2-26.242 29.481-43.604a46.925 46.925 0 0 0-3.154-.105c-19.379 0-35.088 11.782-35.088 26.316z" fill="#fff" stroke-miterlimit="10"/><path d="M138.082 131.754c0 9.109 6.168 17.134 15.544 21.86 12.849-12.709 21.87-29.281 25.172-47.835a47.025 47.025 0 0 0-5.632-.34c-19.379 0-35.088 11.782-35.088 26.315h.004z" fill="#fff" stroke-miterlimit="10"/><path d="M138.082 121.228c0 11.225 9.368 20.804 22.558 24.586 11.175-13.982 18.242-31.393 19.379-50.4a46.51 46.51 0 0 0-6.849-.502c-19.379 0-35.088 11.783-35.088 26.316z" fill="#fff" stroke-miterlimit="10"/><path d="M155.801 108.204v26.312M155.801 134.516h12.632M155.801 108.204h22.456M173.345 108.204v16.357M155.801 121.358l18.948.003" stroke-miterlimit="10"/></g><defs><clipPath id="clip0_1916_6260"><path fill="#fff" transform="translate(.714)" d="M0 0h180v180H0z"/></clipPath></defs></svg>