<svg width="181" height="180" fill="none" xmlns="http://www.w3.org/2000/svg" aria-hidden="true" focusable="false"><g clip-path="url(#a)" stroke-width="1.2" stroke-miterlimit="10"><path d="M98.433 106.656c0-26.396-21.4-47.796-47.796-47.796-26.397 0-47.225 20.828-47.786 46.737a89.029 89.029 0 0 0 14.708 35.561c8.586 8.235 20.239 13.295 33.078 13.295 26.396 0 47.796-21.4 47.796-47.797Z" fill="#fff" stroke="#D8DEF8"/><path d="M102.871 120.491c0-26.396-21.4-47.796-47.796-47.796-26.397 0-47.8 21.396-47.8 47.796 0 .418.007.835.017 1.249 7.337 19.33 21.176 35.46 38.853 45.713a48.01 48.01 0 0 0 8.93.835c26.396 0 47.796-21.4 47.796-47.797Z" fill="#fff" stroke="#D8DEF8"/><path d="M109.886 132.94c0-26.396-21.4-47.796-47.797-47.796-26.396 0-47.8 21.4-47.8 47.796 0 1.141.042 2.274.123 3.393 13.382 22.06 36.028 37.874 62.544 42.042 19.119-6.252 32.933-24.231 32.933-45.438l-.003.003Z" fill="#fff" stroke="#D8DEF8"/><path d="M119.153 143.691c0-26.396-21.4-47.796-47.797-47.796-26.396 0-47.796 21.4-47.796 47.796 0 1.86.108 3.691.315 5.495 16.393 18.572 40.376 30.288 67.095 30.288 4.46 0 8.846-.33 13.13-.962 9.267-8.719 15.056-21.091 15.056-34.821h-.003Z" fill="#fff" stroke="#D8DEF8"/><path d="M82.56 104.628c-26.397 0-47.797 21.4-47.797 47.797 0 2.617.214 5.182.617 7.687 15.267 12.12 34.58 19.362 55.586 19.362 12.442 0 24.291-2.541 35.056-7.13a47.615 47.615 0 0 0 4.337-19.916c0-26.396-21.4-47.796-47.796-47.796l-.004-.004Z" fill="#fff" stroke="#D8DEF8"/><path d="M95.387 111.028c-26.396 0-47.796 21.4-47.796 47.797 0 3.438.365 6.789 1.056 10.024 12.6 6.779 27.01 10.625 42.32 10.625 19.417 0 37.389-6.19 52.055-16.698.106-1.302.165-2.622.165-3.951 0-26.397-21.4-47.797-47.796-47.797h-.004Z" fill="#fff" stroke="#D8DEF8"/><path d="M109.517 114.776c-26.396 0-47.796 21.4-47.796 47.796 0 4.347.586 8.561 1.673 12.565a89.435 89.435 0 0 0 27.572 4.337c25.625 0 48.73-10.776 65.042-28.039-5.017-21.024-23.926-36.659-46.491-36.659Z" fill="#fff" stroke="#D8DEF8"/><path d="M124.588 115.554c-26.397 0-47.797 21.4-47.797 47.797a47.79 47.79 0 0 0 2.523 15.368c3.814.495 7.702.755 11.649.755 31.288 0 58.817-16.063 74.81-40.386-8.315-14.084-23.645-23.534-41.185-23.534Z" fill="#fff" stroke="#D8DEF8"/><path d="M172.556 126.768c-8.607-8.364-20.355-13.519-33.305-13.519-26.397 0-47.797 21.4-47.797 47.797 0 6.491 1.298 12.68 3.642 18.326 34.537-1.568 63.972-22.716 77.463-52.607l-.003.003Z" fill="#fff" stroke="#D8DEF8"/><path d="M104.973 155.937c0 7.73 1.835 15.028 5.095 21.488 32.186-7 57.909-31.316 66.912-62.706a47.573 47.573 0 0 0-24.207-6.579c-26.396 0-47.796 21.4-47.796 47.797h-.004Z" fill="#fff" stroke="#D8DEF8"/><path d="M117.029 148.33a47.586 47.586 0 0 0 6.958 24.849c29.253-11.625 50.916-38.228 55.53-70.344a47.714 47.714 0 0 0-14.691-2.305c-26.397 0-47.797 21.4-47.797 47.796v.004Z" fill="#fff" stroke="#D8DEF8"/><path d="M127.303 138.547a47.598 47.598 0 0 0 9.344 28.393c25.937-15.435 43.404-43.607 43.776-75.894a48.471 48.471 0 0 0-5.323-.299c-26.397 0-47.797 21.4-47.797 47.797v.003Z" fill="#fff" stroke="#D8DEF8"/><path d="M135.485 126.909c0 12.368 4.699 23.638 12.404 32.126 19.877-16.41 32.547-41.242 32.547-69.031 0-3.642-.224-7.236-.645-10.762-24.769 1.79-44.309 22.446-44.309 47.67l.003-.003Z" fill="#fff" stroke="#D8DEF8"/><path d="M177.538 67.326c-20.838 5.151-36.288 23.972-36.288 46.4 0 14.351 6.327 27.225 16.344 35.986C171.798 133.874 180.44 112.947 180.44 90a89.629 89.629 0 0 0-2.902-22.674Z" fill="#fff" stroke="#D8DEF8"/><path d="M173.454 55.288c-17.144 7.263-29.168 24.242-29.168 44.031 0 16.649 8.515 31.309 21.424 39.867 9.305-14.112 14.727-31.014 14.727-49.186 0-12.309-2.488-24.039-6.986-34.712h.003Z" fill="#fff" stroke="#D8DEF8"/><path d="M167.303 43.309c-13.8 8.382-23.017 23.554-23.017 40.88 0 19.285 11.421 35.899 27.866 43.453 5.316-11.442 8.288-24.196 8.288-37.645 0-17.113-4.807-33.099-13.137-46.692v.004Z" fill="#fff" stroke="#D8DEF8"/><path d="M159.363 32.323c-11.035 8.754-18.113 22.28-18.113 37.46 0 22.094 14.997 40.687 35.362 46.161A89.489 89.489 0 0 0 180.436 90c0-21.979-7.929-42.102-21.077-57.677h.004Z" fill="#fff" stroke="#D8DEF8"/><path d="M135.485 56.6c0 25.06 19.285 45.611 43.821 47.632A90.123 90.123 0 0 0 180.436 90c0-26.916-11.884-51.053-30.691-67.453-8.803 8.67-14.263 20.723-14.263 34.053h.003Z" fill="#fff" stroke="#D8DEF8"/><path d="M175.103 92.758c1.793 0 3.562-.102 5.302-.295.021-.817.035-1.638.035-2.463 0-31.94-16.74-59.965-41.919-75.796a47.598 47.598 0 0 0-11.214 30.758c0 26.396 21.4 47.796 47.796 47.796Z" fill="#fff" stroke="#D8DEF8"/><path d="M164.826 82.975c5.281 0 10.365-.86 15.112-2.442-3.463-32.94-24.796-60.558-54.133-72.972a47.576 47.576 0 0 0-8.779 27.614c0 26.397 21.4 47.797 47.796 47.797l.004.003Z" fill="#fff" stroke="#D8DEF8"/><path d="M152.77 75.368a47.576 47.576 0 0 0 25.014-7.063c-8.039-32.273-33.6-57.614-66-65.336a47.585 47.585 0 0 0-6.814 24.603c0 26.396 21.4 47.796 47.796 47.796h.004Z" fill="#fff" stroke="#D8DEF8"/><path d="M139.251 70.256c13.491 0 25.673-5.59 34.361-14.579C160.847 24.965 131.461 2.905 96.675.712c-3.34 6.523-5.22 13.916-5.22 21.748 0 26.396 21.399 47.796 47.796 47.796Z" fill="#fff" stroke="#D8DEF8"/><path d="M90.966.526c-3.46 0-6.87.204-10.228.586a47.646 47.646 0 0 0-3.947 19.046c0 26.396 21.4 47.796 47.797 47.796 18.308 0 34.207-10.294 42.235-25.407C151.005 17.31 122.949.527 90.966.527Z" fill="#fff" stroke="#D8DEF8"/><path d="M90.966.526a89.533 89.533 0 0 0-26.333 3.94 47.702 47.702 0 0 0-2.912 16.47c0 26.397 21.4 47.797 47.796 47.797 23.579 0 43.169-17.073 47.084-39.533C140.258 11.57 116.903.526 90.966.526Z" fill="#fff" stroke="#C5CDF4"/><path d="M49.7 10.597a47.784 47.784 0 0 0-2.113 14.087c0 26.397 21.4 47.797 47.797 47.797 26.396 0 47.796-21.4 47.796-47.797 0-2.656-.221-5.26-.635-7.796C127.97 6.583 110.177.526 90.966.526c-14.884 0-28.915 3.639-41.263 10.07H49.7Z" fill="#fff" stroke="#9EAAEE"/><path d="M36.25 19.207a47.825 47.825 0 0 0-1.487 11.874c0 26.396 21.4 47.796 47.796 47.796 26.397 0 47.797-21.4 47.797-47.796 0-8.909-2.442-17.25-6.685-24.39C113.542 2.712 102.51.526 90.966.526c-20.61 0-39.59 6.972-54.716 18.681Z" fill="#fff" stroke="#8C9AEC"/><path d="M24.56 30.039a48.022 48.022 0 0 0-1.004 9.779c0 26.396 21.4 47.796 47.796 47.796 26.397 0 47.797-21.4 47.797-47.796 0-16.05-7.909-30.25-20.043-38.92a90.564 90.564 0 0 0-8.143-.372c-26.344 0-50.032 11.39-66.404 29.513Z" fill="#fff" stroke="#7789E9"/><path d="M62.086 98.365c26.396 0 47.796-21.4 47.796-47.797 0-24.07-17.793-43.982-40.944-47.305C46.215 9.014 26.96 23.463 14.91 42.86a48.116 48.116 0 0 0-.62 7.708c0 26.397 21.4 47.797 47.796 47.797Z" fill="#fff" stroke="#3858E9"/><path d="M102.871 63.018c0-26.397-21.4-47.797-47.796-47.797a47.668 47.668 0 0 0-18.432 3.684c-12.901 9.87-23.035 23.172-29.042 38.54a48.69 48.69 0 0 0-.326 5.573c0 26.396 21.4 47.796 47.796 47.796 26.397 0 47.797-21.4 47.797-47.796h.003Z" fill="#fff" stroke="#3858E9"/><path d="M98.433 76.853c0-26.397-21.4-47.797-47.797-47.797-16.89 0-31.736 8.762-40.238 21.99a88.832 88.832 0 0 0-7.474 22.933c-.056.95-.088 1.909-.088 2.877 0 26.397 21.4 47.797 47.797 47.797 26.396 0 47.796-21.4 47.796-47.797l.004-.003Z" fill="#fff" stroke="#3858E9"/><path d="M49.082 139.551c26.397 0 47.797-21.399 47.797-47.796 0-26.398-21.4-47.797-47.797-47.797S1.286 65.358 1.286 91.754c0 26.398 21.399 47.797 47.796 47.797Z" fill="#fff" stroke="#3858E9"/><path d="M49.037 139.712c26.397 0 47.796-21.399 47.796-47.796S75.434 44.119 49.037 44.119 1.24 65.52 1.24 91.916s21.4 47.796 47.797 47.796ZM82.749 125.568l27.677 27.678" stroke="#3858E9"/><path d="m41.802 60.677 3.508 3.383C31.465 65.786 20.75 77.59 20.75 91.905c0 14.316 10.716 26.116 24.561 27.846M55.837 123.133l-3.509-3.382c13.846-1.726 24.561-13.53 24.561-27.846S66.174 65.79 52.33 64.06" stroke="#8C9AEC"/><path d="m36.633 79.512 24.81 24.811M36.633 104.323l24.81-24.81M49.037 74.372v35.088M31.493 91.916H66.58M90.966 179.474c49.415 0 89.474-40.059 89.474-89.474 0-49.415-40.059-89.474-89.474-89.474C41.551.526 1.493 40.586 1.493 90c0 49.415 40.058 89.474 89.473 89.474Z" stroke="#3858E9"/></g><defs><clipPath id="a"><path fill="#fff" transform="translate(.714)" d="M0 0h180.253v180H0z"/></clipPath></defs></svg>