<svg width="180" height="180" viewBox="0 0 180 180" fill="none" xmlns="http://www.w3.org/2000/svg">
<g clip-path="url(#clip0_941_5641)">
<path d="M0 0H180V180H0V0Z" fill="white"/>
<path d="M180 90C156.131 89.9997 133.239 80.5178 116.36 63.64C99.4827 46.7609 90.0009 23.8693 90 0L180 0V90Z" fill="#D8613C"/>
<path d="M90 0C90 23.8695 80.5179 46.7613 63.6396 63.6396C46.7613 80.5179 23.8695 90 0 90L0 0H90Z" fill="#111111"/>
<path d="M90 180C90.0003 162.2 95.2788 144.799 105.168 129.999C115.057 115.198 129.113 103.662 145.558 96.85C156.478 92.3274 168.181 89.9998 180 90V180H90Z" fill="#B1C5A4"/>
<path d="M0 90C11.819 89.9997 23.5224 92.3275 34.4418 96.8503C45.3612 101.373 55.2829 108.002 63.6402 116.36C71.9975 124.717 78.6269 134.639 83.1497 145.558C87.6725 156.478 90.0003 168.181 90 180H0V90Z" fill="#CFCABE"/>
</g>
<defs>
<clipPath id="clip0_941_5641">
<rect width="180" height="180" fill="white"/>
</clipPath>
</defs>
</svg>
