<svg width="193" height="213" fill="none" xmlns="http://www.w3.org/2000/svg">
  <path d="M96.591 47.235c12.623 0 22.856-10.233 22.856-22.856 0-12.623-10.233-22.856-22.856-22.856-12.623 0-22.856 10.233-22.856 22.856 0 12.623 10.233 22.856 22.856 22.856z" fill="url(#paint0_linear)" stroke="#3858E9" stroke-width="1.5" stroke-miterlimit="10" stroke-linecap="round" stroke-linejoin="round"/>
  <path d="M22.402 89.438c12.193 3.267 24.726-3.969 27.993-16.162 3.267-12.193-3.969-24.725-16.162-27.992-12.192-3.267-24.725 3.968-27.992 16.161-3.267 12.193 3.968 24.726 16.161 27.993z" fill="url(#paint1_linear)" stroke="#3858E9" stroke-width="1.5" stroke-miterlimit="10" stroke-linecap="round" stroke-linejoin="round"/>
  <path d="M170.78 89.438c12.193-3.267 19.428-15.8 16.161-27.992-3.267-12.193-15.8-19.43-27.992-16.162-12.193 3.267-19.429 15.8-16.162 27.992 3.267 12.193 15.8 19.43 27.993 16.162z" fill="url(#paint2_linear)" stroke="#3858E9" stroke-width="1.5" stroke-miterlimit="10" stroke-linecap="round" stroke-linejoin="round"/>
  <path d="M34.234 167.57c12.193-3.268 19.428-15.8 16.161-27.993-3.267-12.193-15.8-19.429-27.992-16.162-12.193 3.267-19.429 15.8-16.162 27.993 3.267 12.193 15.8 19.429 27.993 16.162z" fill="url(#paint3_linear)" stroke="#3858E9" stroke-width="1.5" stroke-miterlimit="10" stroke-linecap="round" stroke-linejoin="round"/>
  <path d="M157.423 167.569c12.193 3.267 24.726-3.968 27.993-16.161 3.267-12.193-3.969-24.726-16.162-27.993-12.193-3.267-24.725 3.969-27.992 16.162-3.267 12.193 3.968 24.725 16.161 27.992z" fill="url(#paint4_linear)" stroke="#3858E9" stroke-width="1.5" stroke-miterlimit="10" stroke-linecap="round" stroke-linejoin="round"/>
  <path d="M95.83 211.329c12.622 0 22.855-10.233 22.855-22.855 0-12.623-10.233-22.856-22.856-22.856-12.622 0-22.855 10.233-22.855 22.856 0 12.622 10.233 22.855 22.855 22.855z" fill="url(#paint5_linear)" stroke="#3858E9" stroke-width="1.5" stroke-miterlimit="10" stroke-linecap="round" stroke-linejoin="round"/>
  <path d="M96.59 144.377c21.073 0 38.158-17.158 38.158-38.324 0-21.165-17.085-38.323-38.159-38.323-21.074 0-38.158 17.157-38.158 38.323s17.084 38.324 38.158 38.324z" fill="#fff" stroke="#3858E9" stroke-width="1.5" stroke-miterlimit="10" stroke-linecap="round" stroke-linejoin="round"/>
  <path d="M79.243 108.789c0 9.705 7.93 17.42 17.345 17.42 9.416 0 17.345-7.964 17.345-17.42" stroke="#3858E9" stroke-width="1.5" stroke-miterlimit="10" stroke-linecap="round" stroke-linejoin="round"/>
  <path d="M90.883 95.351a3.72 3.72 0 01-3.71 3.73 3.72 3.72 0 01-3.71-3.73 3.72 3.72 0 013.71-3.729 3.72 3.72 0 013.71 3.73zM109.715 95.351a3.72 3.72 0 01-3.71 3.73 3.72 3.72 0 01-3.71-3.73 3.72 3.72 0 013.71-3.729 3.72 3.72 0 013.71 3.73z" fill="#3858E9" stroke="#3858E9" stroke-width="1.5"/>
  <defs>
    <linearGradient id="paint0_linear" x1="96.591" y1="1.523" x2="96.591" y2="47.235" gradientUnits="userSpaceOnUse">
      <stop stop-color="#ECF5FF"/>
      <stop offset="1" stop-color="#fff"/>
    </linearGradient>
    <linearGradient id="paint1_linear" x1="34.233" y1="45.284" x2="22.402" y2="89.438" gradientUnits="userSpaceOnUse">
      <stop stop-color="#ECF5FF"/>
      <stop offset="1" stop-color="#fff"/>
    </linearGradient>
    <linearGradient id="paint2_linear" x1="158.949" y1="45.284" x2="170.78" y2="89.438" gradientUnits="userSpaceOnUse">
      <stop stop-color="#ECF5FF"/>
      <stop offset="1" stop-color="#fff"/>
    </linearGradient>
    <linearGradient id="paint3_linear" x1="22.403" y1="123.415" x2="34.234" y2="167.57" gradientUnits="userSpaceOnUse">
      <stop stop-color="#ECF5FF"/>
      <stop offset="1" stop-color="#fff"/>
    </linearGradient>
    <linearGradient id="paint4_linear" x1="169.254" y1="123.415" x2="157.423" y2="167.569" gradientUnits="userSpaceOnUse">
      <stop stop-color="#ECF5FF"/>
      <stop offset="1" stop-color="#fff"/>
    </linearGradient>
    <linearGradient id="paint5_linear" x1="95.829" y1="165.618" x2="95.829" y2="211.329" gradientUnits="userSpaceOnUse">
      <stop stop-color="#ECF5FF"/>
      <stop offset="1" stop-color="#fff"/>
    </linearGradient>
  </defs>
</svg>
