<svg width="181" height="180" fill="none" xmlns="http://www.w3.org/2000/svg"><g clip-path="url(#clip0_1916_6316)" stroke="#151515" stroke-width="1.2" stroke-miterlimit="10"><path d="M98.433 106.656c0-26.396-21.4-47.796-47.797-47.796-26.396 0-47.224 20.828-47.786 46.736a89.029 89.029 0 0 0 14.71 35.562c8.585 8.235 20.238 13.295 33.076 13.295 26.397 0 47.797-21.4 47.797-47.797z" fill="#fff"/><path d="M102.871 120.491c0-26.396-21.4-47.796-47.796-47.796-26.397 0-47.8 21.396-47.8 47.796 0 .418.007.835.017 1.249 7.337 19.33 21.176 35.46 38.853 45.713a48.01 48.01 0 0 0 8.93.835c26.396 0 47.796-21.4 47.796-47.797z" fill="#fff"/><path d="M109.885 132.94c0-26.396-21.4-47.796-47.796-47.796-26.397 0-47.8 21.4-47.8 47.796 0 1.141.042 2.274.123 3.393 13.382 22.06 36.028 37.874 62.544 42.042 19.119-6.252 32.933-24.231 32.933-45.438l-.004.003z" fill="#fff"/><path d="M119.152 143.691c0-26.396-21.4-47.796-47.796-47.796-26.397 0-47.797 21.4-47.797 47.796 0 1.86.109 3.691.316 5.495 16.393 18.572 40.375 30.288 67.095 30.288 4.46 0 8.845-.33 13.129-.962 9.267-8.719 15.057-21.091 15.057-34.821h-.004z" fill="#fff"/><path d="M82.56 104.628c-26.397 0-47.797 21.4-47.797 47.797 0 2.617.214 5.182.617 7.687 15.267 12.12 34.58 19.362 55.586 19.362 12.442 0 24.291-2.541 35.056-7.13a47.615 47.615 0 0 0 4.337-19.916c0-26.396-21.4-47.796-47.796-47.796l-.004-.004z" fill="#fff"/><path d="M95.387 111.028c-26.396 0-47.796 21.4-47.796 47.797 0 3.438.365 6.789 1.056 10.024 12.6 6.779 27.01 10.625 42.32 10.625 19.417 0 37.389-6.19 52.055-16.699.106-1.301.165-2.621.165-3.95 0-26.397-21.4-47.797-47.796-47.797h-.004z" fill="#fff"/><path d="M109.517 114.775c-26.396 0-47.796 21.4-47.796 47.797 0 4.347.586 8.561 1.673 12.565a89.435 89.435 0 0 0 27.572 4.337c25.625 0 48.73-10.776 65.042-28.039-5.017-21.024-23.926-36.66-46.491-36.66z" fill="#fff"/><path d="M124.587 115.554c-26.396 0-47.796 21.4-47.796 47.797a47.79 47.79 0 0 0 2.523 15.368 90.47 90.47 0 0 0 11.649.755c31.287 0 58.817-16.063 74.81-40.386-8.316-14.084-23.645-23.534-41.186-23.534z" fill="#fff"/><path d="M172.556 126.768c-8.607-8.364-20.355-13.519-33.306-13.519-26.396 0-47.796 21.4-47.796 47.797 0 6.491 1.298 12.68 3.642 18.326 34.537-1.569 63.972-22.716 77.463-52.607l-.003.003z" fill="#fff"/><path d="M104.973 155.937c0 7.73 1.835 15.028 5.095 21.488 32.186-7 57.909-31.316 66.912-62.706a47.573 47.573 0 0 0-24.207-6.579c-26.396 0-47.796 21.4-47.796 47.797h-.004z" fill="#fff"/><path d="M117.029 148.33a47.586 47.586 0 0 0 6.958 24.849c29.253-11.625 50.916-38.228 55.53-70.344a47.714 47.714 0 0 0-14.691-2.305c-26.397 0-47.797 21.4-47.797 47.796v.004z" fill="#fff"/><path d="M127.303 138.547a47.598 47.598 0 0 0 9.344 28.393c25.937-15.435 43.403-43.607 43.775-75.894a48.457 48.457 0 0 0-5.323-.299c-26.396 0-47.796 21.4-47.796 47.797v.003z" fill="#fff"/><path d="M135.485 126.909c0 12.368 4.699 23.638 12.404 32.126 19.877-16.41 32.547-41.242 32.547-69.031 0-3.643-.224-7.236-.645-10.762-24.769 1.79-44.309 22.446-44.309 47.67l.003-.003z" fill="#fff"/><path d="M177.538 67.326c-20.839 5.151-36.288 23.972-36.288 46.4 0 14.351 6.327 27.225 16.344 35.986C171.798 133.874 180.44 112.947 180.44 90a89.629 89.629 0 0 0-2.902-22.674z" fill="#fff"/><path d="M173.454 55.288c-17.144 7.263-29.169 24.242-29.169 44.031 0 16.649 8.516 31.309 21.425 39.867 9.305-14.112 14.726-31.014 14.726-49.186 0-12.309-2.487-24.039-6.986-34.712h.004z" fill="#fff"/><path d="M167.303 43.309c-13.8 8.382-23.018 23.554-23.018 40.88 0 19.285 11.421 35.899 27.867 43.453 5.316-11.442 8.288-24.196 8.288-37.645 0-17.113-4.807-33.099-13.137-46.692v.004z" fill="#fff"/><path d="M159.363 32.323c-11.035 8.754-18.113 22.28-18.113 37.46 0 22.094 14.997 40.687 35.362 46.161A89.489 89.489 0 0 0 180.436 90c0-21.979-7.929-42.102-21.077-57.677h.004z" fill="#fff"/><path d="M135.485 56.6c0 25.06 19.285 45.611 43.821 47.632A90.123 90.123 0 0 0 180.436 90c0-26.916-11.884-51.053-30.691-67.453-8.803 8.67-14.263 20.723-14.263 34.053h.003z" fill="#fff"/><path d="M175.103 92.758c1.793 0 3.561-.102 5.302-.295.021-.817.035-1.638.035-2.463 0-31.94-16.741-59.965-41.919-75.796a47.598 47.598 0 0 0-11.214 30.757c0 26.397 21.4 47.797 47.796 47.797z" fill="#fff"/><path d="M164.826 82.975c5.28 0 10.365-.86 15.112-2.442-3.463-32.94-24.796-60.558-54.133-72.972a47.576 47.576 0 0 0-8.779 27.614c0 26.397 21.4 47.797 47.796 47.797l.004.003z" fill="#fff"/><path d="M152.77 75.368a47.579 47.579 0 0 0 25.014-7.063c-8.039-32.274-33.6-57.614-66-65.337a47.586 47.586 0 0 0-6.814 24.604c0 26.396 21.4 47.796 47.796 47.796h.004z" fill="#fff"/><path d="M139.25 70.256c13.492 0 25.674-5.59 34.362-14.579C160.847 24.965 131.461 2.905 96.675.712c-3.34 6.523-5.221 13.916-5.221 21.748 0 26.396 21.4 47.796 47.796 47.796z" fill="#fff"/><path d="M90.966.526c-3.46 0-6.87.204-10.228.586a47.646 47.646 0 0 0-3.947 19.046c0 26.396 21.4 47.796 47.796 47.796 18.309 0 34.207-10.294 42.235-25.407C151.005 17.31 122.949.527 90.966.527z" fill="#fff"/><path d="M90.966.526a89.533 89.533 0 0 0-26.333 3.94 47.703 47.703 0 0 0-2.912 16.47c0 26.397 21.4 47.797 47.796 47.797 23.579 0 43.168-17.073 47.084-39.533C140.257 11.568 116.903.526 90.966.526z" fill="#fff"/><path d="M49.7 10.597a47.78 47.78 0 0 0-2.113 14.087c0 26.397 21.4 47.797 47.797 47.797 26.396 0 47.796-21.4 47.796-47.797 0-2.656-.221-5.26-.635-7.796C127.97 6.582 110.177.526 90.966.526c-14.884 0-28.916 3.639-41.263 10.07h-.004z" fill="#fff"/><path d="M36.25 19.207a47.82 47.82 0 0 0-1.487 11.874c0 26.396 21.4 47.796 47.796 47.796 26.397 0 47.797-21.4 47.797-47.796 0-8.91-2.442-17.25-6.685-24.39C113.542 2.712 102.51.526 90.966.526c-20.61 0-39.59 6.972-54.716 18.681z" fill="#fff"/><path d="M24.56 30.039a48.03 48.03 0 0 0-1.004 9.779c0 26.396 21.4 47.796 47.796 47.796 26.397 0 47.797-21.4 47.797-47.797 0-16.049-7.909-30.249-20.043-38.919a90.565 90.565 0 0 0-8.143-.372c-26.344 0-50.032 11.39-66.404 29.513z" fill="#fff"/><path d="M62.085 98.365c26.397 0 47.797-21.4 47.797-47.797 0-24.07-17.793-43.982-40.944-47.305C46.215 9.014 26.96 23.463 14.91 42.86a48.118 48.118 0 0 0-.621 7.708c0 26.397 21.4 47.797 47.796 47.797z" fill="#fff"/><path d="M102.871 63.018c0-26.397-21.4-47.797-47.796-47.797a47.668 47.668 0 0 0-18.432 3.684c-12.901 9.87-23.035 23.172-29.042 38.54a48.69 48.69 0 0 0-.326 5.573c0 26.396 21.4 47.796 47.796 47.796 26.397 0 47.797-21.4 47.797-47.796h.003z" fill="#fff"/><path d="M98.433 76.853c0-26.397-21.4-47.797-47.797-47.797-16.89 0-31.737 8.762-40.238 21.99a88.832 88.832 0 0 0-7.474 22.933c-.056.95-.088 1.909-.088 2.877 0 26.397 21.4 47.797 47.797 47.797 26.396 0 47.796-21.4 47.796-47.797l.004-.003z" fill="#fff"/><path d="M49.082 139.551c26.397 0 47.796-21.399 47.796-47.797 0-26.397-21.399-47.796-47.796-47.796S1.285 65.358 1.285 91.754c0 26.398 21.4 47.797 47.797 47.797z" fill="#fff"/><path d="M49.036 139.712c26.398 0 47.797-21.399 47.797-47.796s-21.4-47.797-47.797-47.797S1.24 65.52 1.24 91.916s21.399 47.796 47.796 47.796zM82.749 125.568l27.677 27.678"/><path d="M41.801 60.677l3.509 3.383c-13.846 1.726-24.561 13.53-24.561 27.845 0 14.316 10.715 26.116 24.561 27.846M55.836 123.133l-3.508-3.382c13.845-1.726 24.56-13.53 24.56-27.846S66.174 65.79 52.329 64.06M36.633 79.512l24.81 24.811M36.633 104.323l24.81-24.81M49.036 74.372v35.088M31.492 91.916H66.58"/><path d="M90.966 179.474c49.415 0 89.474-40.059 89.474-89.474 0-49.415-40.059-89.474-89.474-89.474C41.551.526 1.492 40.585 1.492 90c0 49.415 40.06 89.474 89.474 89.474z"/></g><defs><clipPath id="clip0_1916_6316"><path fill="#fff" transform="translate(.714)" d="M0 0h180.253v180H0z"/></clipPath></defs></svg>