<svg width="180" height="180" viewBox="0 0 180 180" fill="none" xmlns="http://www.w3.org/2000/svg">
<g clip-path="url(#clip0_941_5663)">
<path d="M45 90C44.9996 98.9002 42.3602 107.6 37.4154 115.001C32.4707 122.401 25.4426 128.169 17.22 131.575C11.7605 133.836 5.90918 135 0 135L0 90H45Z" fill="#111111"/>
<path d="M90 135C78.0654 134.999 66.6198 130.258 58.18 121.82C49.7417 113.38 45.0009 101.935 45 90H90V135Z" fill="#D8613C"/>
<path d="M45 180C45.0004 168.065 49.7414 156.62 58.18 148.18C62.3587 144.001 67.3195 140.687 72.7792 138.425C78.2388 136.164 84.0905 135 90 135V180H45Z" fill="#B1C5A4"/>
<path d="M0 135C5.90958 134.999 11.7614 136.163 17.2212 138.425C22.6809 140.686 27.6417 144.001 31.82 148.18C40.258 156.62 44.9988 168.065 45 180H0V135Z" fill="#CFCABE"/>
<path d="M180 135C168.065 134.999 156.62 130.258 148.18 121.82C139.742 113.38 135.001 101.935 135 90H180V135Z" fill="#D8613C"/>
<path d="M135 90C134.999 101.935 130.258 113.38 121.82 121.82C113.38 130.258 101.935 134.999 90 135V90H135Z" fill="#111111"/>
<path d="M135 180C135 174.09 136.164 168.239 138.425 162.779C141.832 154.557 147.6 147.53 155 142.585C162.4 137.641 171.1 135.001 180 135V180H135Z" fill="#B1C5A4"/>
<path d="M90 135C95.9096 135 101.761 136.163 107.221 138.425C112.681 140.686 117.642 144.001 121.82 148.18C125.998 152.359 129.313 157.32 131.575 162.779C133.836 168.239 135 174.09 135 180H90V135Z" fill="#CFCABE"/>
<path d="M180 45C168.065 45 156.619 40.2589 148.18 31.8198C139.741 23.3807 135 11.9347 135 0L180 0V45Z" fill="#D8613C"/>
<path d="M135 0C134.999 11.9346 130.258 23.3802 121.82 31.82C113.38 40.2582 101.935 44.999 90 45V0H135Z" fill="#111111"/>
<path d="M135 90C135.001 78.0654 139.742 66.6197 148.18 58.18C156.62 49.7418 168.065 45.001 180 45V90H135Z" fill="#B1C5A4"/>
<path d="M90 45C98.9002 45.0005 107.6 47.64 115.001 52.5847C122.401 57.5295 128.169 64.5574 131.575 72.78C133.836 78.2395 135 84.0908 135 90H90V45Z" fill="#CFCABE"/>
<path d="M45 0C44.9997 11.9347 40.2586 23.3804 31.8195 31.8195C23.3804 40.2586 11.9347 44.9997 0 45L0 0H45Z" fill="#111111"/>
<path d="M90 45C78.0653 45 66.6193 40.2589 58.1802 31.8198C49.7411 23.3807 45 11.9347 45 0L90 0V45Z" fill="#D8613C"/>
<path d="M45 90C45.0003 78.0653 49.7414 66.6196 58.1805 58.1805C66.6196 49.7414 78.0653 45.0003 90 45V90H45Z" fill="#B1C5A4"/>
<path d="M0 45C11.9346 45.0005 23.3802 49.7418 31.8192 58.1808C40.2582 66.6198 44.9995 78.0654 45 90H0V45Z" fill="#CFCABE"/>
</g>
<defs>
<clipPath id="clip0_941_5663">
<rect width="180" height="180" fill="white"/>
</clipPath>
</defs>
</svg>
