<svg width="180" height="180" fill="none" xmlns="http://www.w3.org/2000/svg"><g clip-path="url(#clip0_1916_6175)" fill="#fff" stroke="#151515" stroke-width="1.2" stroke-miterlimit="10"><path d="M36.352 125.815c19.78 0 35.816-16.035 35.816-35.815 0-19.78-16.035-35.815-35.816-35.815C16.572 54.185.537 70.22.537 90c0 19.78 16.035 35.815 35.815 35.815z"/><path d="M37.513 136.982c19.78 0 35.815-16.035 35.815-35.815 0-19.78-16.035-35.815-35.815-35.815-19.78 0-35.815 16.035-35.815 35.815 0 19.78 16.035 35.815 35.815 35.815z"/><path d="M40.84 147.347c19.78 0 35.815-16.035 35.815-35.815 0-19.78-16.035-35.815-35.815-35.815-19.78 0-35.815 16.035-35.815 35.815 0 19.78 16.035 35.815 35.815 35.815z"/><path d="M46.094 156.677c19.78 0 35.815-16.035 35.815-35.815 0-19.78-16.035-35.815-35.815-35.815-19.78 0-35.815 16.035-35.815 35.815 0 19.78 16.035 35.815 35.815 35.815z"/><path d="M53.039 164.732c19.78 0 35.815-16.035 35.815-35.815 0-19.78-16.035-35.815-35.815-35.815-19.78 0-35.816 16.035-35.816 35.815 0 19.78 16.036 35.815 35.816 35.815z"/><path d="M61.437 171.275c19.78 0 35.816-16.035 35.816-35.815 0-19.78-16.035-35.815-35.816-35.815-19.78 0-35.815 16.035-35.815 35.815 0 19.78 16.035 35.815 35.815 35.815z"/><path d="M71.047 176.071c19.78 0 35.815-16.035 35.815-35.815 0-19.78-16.035-35.815-35.815-35.815-19.78 0-35.816 16.035-35.816 35.815 0 19.78 16.035 35.815 35.816 35.815z"/><path d="M81.637 178.879c19.78 0 35.815-16.035 35.815-35.815 0-19.78-16.035-35.815-35.815-35.815-19.78 0-35.815 16.035-35.815 35.815 0 19.78 16.035 35.815 35.815 35.815z"/><path d="M92.93 179.463c19.78 0 35.815-16.035 35.815-35.815 0-19.781-16.035-35.816-35.815-35.816-19.78 0-35.816 16.035-35.816 35.816 0 19.78 16.036 35.815 35.816 35.815z"/><path d="M103.918 177.74c19.78 0 35.815-16.035 35.815-35.815 0-19.78-16.035-35.815-35.815-35.815-19.78 0-35.815 16.035-35.815 35.815 0 19.78 16.035 35.815 35.815 35.815z"/><path d="M114.046 173.908c19.781 0 35.816-16.035 35.816-35.815 0-19.781-16.035-35.816-35.816-35.816-19.78 0-35.815 16.035-35.815 35.816 0 19.78 16.035 35.815 35.815 35.815z"/><path d="M123.079 168.21c19.78 0 35.815-16.035 35.815-35.816 0-19.78-16.035-35.815-35.815-35.815-19.78 0-35.815 16.035-35.815 35.815 0 19.781 16.035 35.816 35.815 35.816z"/><path d="M130.779 160.878c19.78 0 35.815-16.035 35.815-35.815 0-19.78-16.035-35.815-35.815-35.815-19.78 0-35.815 16.035-35.815 35.815 0 19.78 16.035 35.815 35.815 35.815z"/><path d="M136.907 152.157c19.78 0 35.815-16.035 35.815-35.815 0-19.78-16.035-35.815-35.815-35.815-19.78 0-35.815 16.035-35.815 35.815 0 19.78 16.035 35.815 35.815 35.815z"/><path d="M141.23 142.279c19.78 0 35.815-16.035 35.815-35.815 0-19.78-16.035-35.815-35.815-35.815-19.78 0-35.815 16.035-35.815 35.815 0 19.78 16.035 35.815 35.815 35.815z"/><path d="M143.504 131.485c19.78 0 35.816-16.035 35.816-35.815 0-19.78-16.036-35.816-35.816-35.816S107.689 75.89 107.689 95.67c0 19.78 16.035 35.815 35.815 35.815z"/><path d="M143.504 120.149c19.78 0 35.816-16.035 35.816-35.815 0-19.78-16.036-35.815-35.816-35.815s-35.815 16.035-35.815 35.815c0 19.78 16.035 35.815 35.815 35.815z"/><path d="M141.23 109.355c19.78 0 35.815-16.035 35.815-35.816 0-19.78-16.035-35.815-35.815-35.815-19.78 0-35.815 16.035-35.815 35.815 0 19.78 16.035 35.816 35.815 35.816z"/><path d="M136.907 99.477c19.78 0 35.815-16.035 35.815-35.816 0-19.78-16.035-35.815-35.815-35.815-19.78 0-35.815 16.035-35.815 35.816 0 19.78 16.035 35.815 35.815 35.815z"/><path d="M130.779 90.752c19.78 0 35.815-16.035 35.815-35.815 0-19.78-16.035-35.815-35.815-35.815-19.78 0-35.815 16.035-35.815 35.815 0 19.78 16.035 35.815 35.815 35.815z"/><path d="M123.079 83.424c19.78 0 35.815-16.035 35.815-35.815 0-19.78-16.035-35.815-35.815-35.815-19.78 0-35.815 16.035-35.815 35.815 0 19.78 16.035 35.815 35.815 35.815z"/><path d="M114.046 77.722c19.781 0 35.816-16.034 35.816-35.815 0-19.78-16.035-35.815-35.816-35.815-19.78 0-35.815 16.035-35.815 35.815 0 19.78 16.035 35.816 35.815 35.816z"/><path d="M103.918 73.894c19.78 0 35.815-16.035 35.815-35.815 0-19.78-16.035-35.815-35.815-35.815-19.78 0-35.815 16.035-35.815 35.815 0 19.78 16.035 35.815 35.815 35.815z"/><path d="M92.93 72.168c19.78 0 35.815-16.035 35.815-35.816 0-19.78-16.035-35.815-35.815-35.815-19.78 0-35.816 16.035-35.816 35.815 0 19.78 16.036 35.816 35.816 35.816z"/><path d="M81.637 72.751c19.78 0 35.815-16.035 35.815-35.815 0-19.78-16.035-35.815-35.815-35.815-19.78 0-35.815 16.035-35.815 35.815 0 19.78 16.035 35.815 35.815 35.815z"/><path d="M71.047 75.56c19.78 0 35.815-16.036 35.815-35.816S90.827 3.93 71.047 3.93c-19.78 0-35.816 16.035-35.816 35.815 0 19.78 16.035 35.815 35.816 35.815z"/><path d="M61.437 80.355c19.78 0 35.816-16.035 35.816-35.815 0-19.78-16.035-35.815-35.816-35.815-19.78 0-35.815 16.035-35.815 35.815 0 19.78 16.035 35.815 35.815 35.815z"/><path d="M53.039 86.898c19.78 0 35.815-16.035 35.815-35.815 0-19.78-16.035-35.815-35.815-35.815-19.78 0-35.816 16.035-35.816 35.815 0 19.78 16.036 35.815 35.816 35.815z"/><path d="M46.094 94.953c19.78 0 35.815-16.035 35.815-35.815 0-19.78-16.035-35.815-35.815-35.815-19.78 0-35.815 16.035-35.815 35.815 0 19.78 16.035 35.815 35.815 35.815z"/><path d="M40.84 104.283c19.78 0 35.815-16.035 35.815-35.815 0-19.78-16.035-35.815-35.815-35.815-19.78 0-35.815 16.035-35.815 35.815 0 19.78 16.035 35.815 35.815 35.815z"/><path d="M37.513 114.652c19.78 0 35.815-16.035 35.815-35.816 0-19.78-16.035-35.815-35.815-35.815-19.78 0-35.815 16.035-35.815 35.815 0 19.78 16.035 35.816 35.815 35.816z"/><path d="M36.352 125.815c19.78 0 35.816-16.035 35.816-35.815 0-19.78-16.035-35.815-35.816-35.815C16.572 54.185.537 70.22.537 90c0 19.78 16.035 35.815 35.815 35.815z"/></g><defs><clipPath id="clip0_1916_6175"><path fill="#fff" d="M0 0h179.857v180H0z"/></clipPath></defs></svg>