<svg width="180" height="180" viewBox="0 0 180 180" fill="none" xmlns="http://www.w3.org/2000/svg" aria-hidden="true" focusable="false"><g fill="#FFFFFF" stroke="#3858E9" stroke-width="1.2" stroke-miterlimit="10"><circle cx="36.3" cy="90" r="35.8"/><circle cx="37.5" cy="101.2" r="35.8"/><circle cx="40.8" cy="111.5" r="35.8"/><circle cx="46.1" cy="120.8" r="35.8"/><circle cx="53" cy="128.9" r="35.8"/><circle cx="61.4" cy="135.5" r="35.8"/><circle cx="71" cy="140.3" r="35.8"/><circle cx="81.6" cy="143.1" r="35.8"/><circle cx="92.9" cy="143.7" r="35.8"/><circle cx="103.9" cy="141.9" r="35.8"/><circle cx="114" cy="138.1" r="35.8"/><circle cx="123.1" cy="132.4" r="35.8"/><circle cx="130.8" cy="125.1" r="35.8"/><circle cx="136.9" cy="116.4" r="35.8"/><circle cx="141.2" cy="106.5" r="35.8"/><circle cx="143.5" cy="95.7" r="35.8"/><circle cx="143.5" cy="84.3" r="35.8"/><circle cx="141.2" cy="73.6" r="35.8"/><circle cx="136.9" cy="63.7" r="35.8"/><circle cx="130.8" cy="55" r="35.8"/><circle cx="123.1" cy="47.6" r="35.8"/><circle cx="114" cy="41.9" r="35.8"/><circle cx="103.9" cy="38.1" r="35.8"/><circle cx="92.9" cy="36.4" r="35.8"/><circle cx="81.6" cy="37" r="35.8"/><circle cx="71" cy="39.7" r="35.8"/><circle cx="61.4" cy="44.5" r="35.8"/><circle cx="53" cy="51.1" r="35.8"/><circle cx="46.1" cy="59.2" r="35.8"/><circle cx="40.8" cy="68.5" r="35.8"/><circle cx="37.5" cy="78.9" r="35.8"/><circle cx="36.4" cy="90" r="35.8"/></g></svg>