<svg width="180" height="180" viewBox="0 0 180 180" fill="none" xmlns="http://www.w3.org/2000/svg">
<g clip-path="url(#clip0_941_5573)">
<path d="M180 90C180 101.819 177.673 113.522 173.15 124.442C168.627 135.361 161.997 145.283 153.64 153.64C136.761 170.517 113.869 179.999 90 180V108C94.7737 107.999 99.3517 106.103 102.728 102.728C106.103 99.3517 107.999 94.7737 108 90H180Z" fill="#111111"/>
<path d="M90 0C113.869 0.000342544 136.761 9.48224 153.64 26.36C170.518 43.2387 180 66.1305 180 90H108C107.999 85.2263 106.103 80.6483 102.728 77.272C99.3521 73.8967 94.7738 72.0004 90 72V0Z" fill="#CFCABE"/>
<path d="M90 180C78.181 180 66.4777 177.672 55.5583 173.149C44.639 168.627 34.7174 161.997 26.3601 153.64C18.0028 145.283 11.3735 135.361 6.85057 124.442C2.3277 113.522 -0.000131319 101.819 5.55619e-09 90H72C72.0005 94.7737 73.8971 99.3518 77.2727 102.727C80.6482 106.103 85.2263 107.999 90 108V180Z" fill="#D8613C"/>
<path d="M5.55619e-09 90C-0.000131319 78.181 2.3277 66.4777 6.85057 55.5583C11.3735 44.639 18.0028 34.7174 26.3601 26.3601C34.7174 18.0028 44.639 11.3735 55.5583 6.85057C66.4777 2.3277 78.181 -0.000131319 90 5.55619e-09V72C85.2263 72.0005 80.6482 73.8971 77.2727 77.2727C73.8971 80.6482 72.0005 85.2263 72 90H5.55619e-09Z" fill="#B1C5A4"/>
<path d="M108 90C108 99.941 99.941 108 90 108C80.059 108 72 99.941 72 90C72 80.059 80.059 72 90 72C99.941 72 108 80.059 108 90Z" fill="white"/>
</g>
<defs>
<clipPath id="clip0_941_5573">
<rect width="180" height="180" fill="white"/>
</clipPath>
</defs>
</svg>
