<svg width="320" height="320" fill="none" xmlns="http://www.w3.org/2000/svg"><g clip-path="url(#clip0_1916_5672)" fill="#fff" stroke="#151515" stroke-width="1.2" stroke-miterlimit="10"><path d="M256.686.936H63.314C28.862.936.936 28.862.936 63.314V160c0 87.847 71.217 159.064 159.064 159.064S319.064 247.847 319.064 160V63.314c0-34.452-27.926-62.378-62.378-62.378z"/><path d="M231.735 139.259c19.378 0 35.088-15.709 35.088-35.087 0-19.379-15.71-35.088-35.088-35.088s-35.088 15.71-35.088 35.088 15.71 35.087 35.088 35.087z"/><path d="M221.131 149.864c19.378 0 35.087-15.71 35.087-35.088 0-19.379-15.709-35.088-35.087-35.088-19.379 0-35.088 15.71-35.088 35.088s15.709 35.088 35.088 35.088z"/><path d="M210.526 160.468c19.379 0 35.088-15.71 35.088-35.088s-15.709-35.088-35.088-35.088c-19.378 0-35.087 15.71-35.087 35.088s15.709 35.088 35.087 35.088z"/><path d="M199.922 171.072c19.378 0 35.088-15.709 35.088-35.088 0-19.378-15.71-35.087-35.088-35.087s-35.088 15.709-35.088 35.087c0 19.379 15.71 35.088 35.088 35.088z"/><path d="M189.318 181.676c19.378 0 35.087-15.709 35.087-35.087 0-19.379-15.709-35.088-35.087-35.088-19.379 0-35.088 15.709-35.088 35.088 0 19.378 15.709 35.087 35.088 35.087z"/><path d="M178.713 192.281c19.379 0 35.088-15.71 35.088-35.088s-15.709-35.088-35.088-35.088c-19.378 0-35.087 15.71-35.087 35.088s15.709 35.088 35.087 35.088z"/><path d="M168.109 202.885c19.379 0 35.088-15.709 35.088-35.088 0-19.378-15.709-35.087-35.088-35.087-19.378 0-35.088 15.709-35.088 35.087 0 19.379 15.71 35.088 35.088 35.088z"/><path d="M157.505 213.489c19.378 0 35.088-15.709 35.088-35.087 0-19.379-15.71-35.088-35.088-35.088-19.379 0-35.088 15.709-35.088 35.088 0 19.378 15.709 35.087 35.088 35.087z"/><path d="M146.901 224.094c19.378 0 35.087-15.71 35.087-35.088 0-19.379-15.709-35.088-35.087-35.088-19.379 0-35.088 15.709-35.088 35.088 0 19.378 15.709 35.088 35.088 35.088z"/><path d="M136.296 234.698c19.379 0 35.088-15.709 35.088-35.088 0-19.378-15.709-35.088-35.088-35.088-19.378 0-35.087 15.71-35.087 35.088 0 19.379 15.709 35.088 35.087 35.088z"/><path d="M136.296 234.698c19.379 0 35.088-15.709 35.088-35.088 0-19.378-15.709-35.088-35.088-35.088-19.378 0-35.087 15.71-35.087 35.088 0 19.379 15.709 35.088 35.087 35.088z"/><path d="M126.191 224.593c19.378 0 35.088-15.71 35.088-35.088 0-19.379-15.71-35.088-35.088-35.088s-35.088 15.709-35.088 35.088c0 19.378 15.71 35.088 35.088 35.088z"/><path d="M116.086 214.487c19.378 0 35.087-15.709 35.087-35.087 0-19.379-15.709-35.088-35.087-35.088-19.379 0-35.088 15.709-35.088 35.088 0 19.378 15.71 35.087 35.088 35.087z"/><path d="M105.98 204.382c19.379 0 35.088-15.709 35.088-35.088 0-19.378-15.709-35.087-35.088-35.087-19.378 0-35.087 15.709-35.087 35.087 0 19.379 15.71 35.088 35.087 35.088z"/><path d="M95.875 194.277c19.379 0 35.088-15.71 35.088-35.088s-15.709-35.088-35.088-35.088c-19.378 0-35.087 15.71-35.087 35.088s15.709 35.088 35.087 35.088z"/><path d="M85.77 184.172c19.378 0 35.088-15.71 35.088-35.088 0-19.379-15.71-35.088-35.088-35.088s-35.088 15.709-35.088 35.088c0 19.378 15.71 35.088 35.088 35.088z"/></g><defs><clipPath id="clip0_1916_5672"><path fill="#fff" d="M0 0h320v320H0z"/></clipPath></defs></svg>