<svg width="280" height="280" viewBox="0 0 280 280" fill="none" xmlns="http://www.w3.org/2000/svg">
<g clip-path="url(#clip0_941_5637)">
<path d="M140 0C167.689 0.000396886 194.757 8.21138 217.779 23.5947C240.802 38.978 258.746 60.8427 269.343 86.424C276.379 103.41 280 121.615 280 140H168C168 132.574 165.05 125.452 159.799 120.201C154.548 114.95 147.426 112 140 112V0Z" fill="#CFCABE"/>
<path d="M140 280C112.31 280.001 85.2425 271.79 62.2195 256.406C39.1966 241.023 21.2526 219.157 10.657 193.575C3.62121 176.59 -5.08291e-05 158.385 5.35094e-10 140H112C112 147.426 114.95 154.548 120.201 159.799C125.452 165.05 132.574 168 140 168V280Z" fill="#D8613C"/>
<path d="M168 140C168 155.464 155.464 168 140 168C124.536 168 112 155.464 112 140C112 124.536 124.536 112 140 112C155.464 112 168 124.536 168 140Z" fill="white"/>
</g>
<defs>
<clipPath id="clip0_941_5637">
<rect width="280" height="280" fill="white"/>
</clipPath>
</defs>
</svg>
