<svg width="322" height="370" fill="none" xmlns="http://www.w3.org/2000/svg">
  <path d="M209.004 97.757c-.11-1.762-.328-3.523-.547-5.285a86.978 86.978 0 00-1.314-7.707c-.547-2.533-1.094-5.065-1.86-7.597-.219-.881-.438-1.652-.766-2.423-13.024-42.61-52.532-73.548-99.154-73.548S19.233 32.136 6.1 74.745c-.328.771-.547 1.542-.766 2.423a79.772 79.772 0 00-2.298 10.13c-.329 1.76-.548 3.412-.766 5.174-.22 1.762-.438 3.523-.548 5.285a96.67 96.67 0 00-.328 8.037v223.178h207.938V105.794c0-2.752-.109-5.395-.328-8.037zm-186.16 44.041v-36.004h.11c0-45.802 36.882-82.907 82.519-83.017 45.527 0 82.409 37.105 82.409 83.017h.109v36.004H22.844z" fill="url(#paint0_linear)" stroke="#3858E9" stroke-miterlimit="10" stroke-linecap="round" stroke-linejoin="round"/>
  <path d="M141.808 294.4l-28.455-58.355c9.631-3.083 16.526-12.111 16.526-22.681 0-13.212-10.616-23.892-23.749-23.892s-23.749 10.68-23.749 23.892c0 10.68 7.004 19.709 16.526 22.681L70.452 294.4h71.356z" fill="#3858E9" stroke="#3858E9" stroke-miterlimit="10" stroke-linecap="round" stroke-linejoin="round"/>
  <path d="M209.332 329.082H1.394v12.882h207.938v-12.882z" fill="url(#paint1_linear)" stroke="#3858E9" stroke-miterlimit="10" stroke-linecap="round" stroke-linejoin="round"/>
  <path d="M209.332 341.854H1.394v12.882h207.938v-12.882z" fill="url(#paint2_linear)" stroke="#3858E9" stroke-miterlimit="10" stroke-linecap="round" stroke-linejoin="round"/>
  <path d="M209.332 354.735H1.394c0 7.115 5.767 12.882 12.881 12.882H196.45c7.114 0 12.882-5.767 12.882-12.882z" fill="url(#paint3_linear)" stroke="#3858E9" stroke-miterlimit="10" stroke-linecap="round" stroke-linejoin="round"/>
  <path d="M285.509 278.325v-76.301h25.28V186.94h-25.28v-9.579h32.285v-15.084h-32.285v-6.936h32.285v-15.085h-32.285v-8.257h-21.013v146.326c-21.013 4.955-36.444 24.553-35.131 47.564 1.314 22.902 19.59 41.619 42.354 43.271 26.813 1.871 49.139-19.378 49.139-45.913-.109-21.911-15.103-40.077-35.349-44.922zM275.002 347.8c-13.461 0-24.515-11.01-24.515-24.663s10.945-24.663 24.515-24.663c13.461 0 24.515 11.01 24.515 24.663S288.573 347.8 275.002 347.8z" fill="url(#paint4_linear)" stroke="#3858E9" stroke-miterlimit="10" stroke-linecap="round" stroke-linejoin="round"/>
  <defs>
    <linearGradient id="paint0_linear" x1="105.363" y1="1.197" x2="105.363" y2="328.972" gradientUnits="userSpaceOnUse">
      <stop offset=".099" stop-color="#ECF5FF"/>
      <stop offset="1" stop-color="#ECF5FF" stop-opacity="0"/>
    </linearGradient>
    <linearGradient id="paint1_linear" x1="105.363" y1="329.082" x2="105.363" y2="341.964" gradientUnits="userSpaceOnUse">
      <stop offset=".099" stop-color="#ECF5FF"/>
      <stop offset="1" stop-color="#ECF5FF" stop-opacity="0"/>
    </linearGradient>
    <linearGradient id="paint2_linear" x1="105.363" y1="341.854" x2="105.363" y2="354.736" gradientUnits="userSpaceOnUse">
      <stop offset=".099" stop-color="#ECF5FF"/>
      <stop offset="1" stop-color="#ECF5FF" stop-opacity="0"/>
    </linearGradient>
    <linearGradient id="paint3_linear" x1="105.363" y1="354.735" x2="105.363" y2="367.617" gradientUnits="userSpaceOnUse">
      <stop offset=".099" stop-color="#ECF5FF"/>
      <stop offset="1" stop-color="#ECF5FF" stop-opacity="0"/>
    </linearGradient>
    <linearGradient id="paint4_linear" x1="275.073" y1="131.999" x2="275.073" y2="369.275" gradientUnits="userSpaceOnUse">
      <stop offset=".099" stop-color="#ECF5FF"/>
      <stop offset="1" stop-color="#ECF5FF" stop-opacity="0"/>
    </linearGradient>
  </defs>
</svg>
