<svg width="320" height="320" viewBox="0 0 320 320" fill="none" xmlns="http://www.w3.org/2000/svg" aria-hidden="true" focusable="false"><g fill="#FFFFFF" stroke="#3858E9" stroke-width="1.2" stroke-miterlimit="10"><path d="M256.7.9H63.3C28.9.9.9 28.9.9 63.3V160a159.1 159.1 0 0 0 318.2 0V63.3c0-34.4-28-62.4-62.4-62.4z"/><circle cx="231.7" cy="104.2" r="35.1"/><circle cx="221.1" cy="114.8" r="35.1"/><circle cx="210.5" cy="125.4" r="35.1"/><circle cx="199.9" cy="136" r="35.1"/><circle cx="189.3" cy="146.6" r="35.1"/><circle cx="178.7" cy="157.2" r="35.1"/><circle cx="168.1" cy="167.8" r="35.1"/><circle cx="158.1" cy="177.8" r="35.1"/><circle cx="146.9" cy="189" r="35.1"/><circle cx="136.3" cy="199.6" r="35.1"/><circle cx="126.2" cy="189.5" r="35.1"/><circle cx="116.1" cy="179.4" r="35.1"/><circle cx="106" cy="169.3" r="35.1"/><circle cx="95.9" cy="159.2" r="35.1"/><circle cx="85.8" cy="149.1" r="35.1"/></g></svg>