<svg xmlns="http://www.w3.org/2000/svg" width="80" height="80"><g fill="none"><g fill="#fff"><g><path d="M40 2.48c5.07 0 9.98 1 14.6 2.94 2.23.94 4.37 2.1 6.38 3.46 2 1.35 3.86 2.9 5.55 4.6 1.7 1.68 3.24 3.55 4.6 5.54 1.34 2 2.5 4.15 3.45 6.37 1.95 4.62 2.94 9.53 2.94 14.6s-1 9.98-2.94 14.6c-.94 2.23-2.1 4.37-3.46 6.38-1.35 2-2.9 3.86-4.6 5.55-1.68 1.7-3.55 3.24-5.54 4.6-2 1.34-4.15 2.5-6.37 3.45-4.62 1.95-9.53 2.94-14.6 2.94s-9.98-1-14.6-2.94c-2.23-.94-4.37-2.1-6.38-3.46-2-1.35-3.86-2.9-5.55-4.6-1.7-1.68-3.24-3.55-4.6-5.54-1.34-2-2.5-4.15-3.45-6.37C3.47 50 2.48 45.08 2.48 40s1-9.98 2.94-14.6c.94-2.23 2.1-4.37 3.46-6.38 1.35-2 2.9-3.86 4.6-5.55 1.68-1.7 3.55-3.24 5.54-4.6 2-1.34 4.15-2.5 6.37-3.45C30 3.47 34.92 2.48 40 2.48m0-2.4C17.95.08.08 17.95.08 40S17.95 79.92 40 79.92 79.92 62.05 79.92 40 62.05.08 40 .08"/><path d="M6.73 40c0 13.17 7.65 24.55 18.75 29.94L9.6 26.46C7.78 30.6 6.74 35.18 6.74 40zm55.73-1.68c0-4.1-1.48-6.96-2.74-9.17-1.7-2.74-3.27-5.06-3.27-7.8 0-3.06 2.32-5.9 5.58-5.9.15 0 .3 0 .43.02-5.9-5.43-13.8-8.74-22.46-8.74-11.62 0-21.85 5.97-27.8 15 .8.02 1.52.04 2.15.04 3.47 0 8.86-.43 8.86-.43 1.8-.1 2.02 2.53.22 2.75 0 0-1.8.2-3.8.3l12.1 36.04 7.3-21.84-5.2-14.2c-1.78-.1-3.48-.3-3.48-.3-1.8-.12-1.58-2.86.2-2.76 0 0 5.5.43 8.77.43 3.5 0 8.88-.43 8.88-.43 1.8-.1 2 2.53.2 2.75 0 0-1.8.2-3.8.3l12.03 35.76 3.44-10.87c1.52-4.77 2.42-8.13 2.42-10.98zm-21.88 4.6l-9.98 29c2.98.87 6.13 1.35 9.4 1.35 3.87 0 7.6-.67 11.05-1.9-.1-.13-.17-.28-.24-.45l-10.22-28zm28.6-18.88c.16 1.06.24 2.2.24 3.42 0 3.37-.64 7.17-2.53 11.92L56.72 68.75C66.63 63 73.27 52.27 73.27 40c0-5.8-1.48-11.22-4.08-15.96z"/></g></g></g></svg>