<svg width="42" height="42" fill="none" xmlns="http://www.w3.org/2000/svg" role="img" aria-hidden="true" focusable="false"><g clip-path="url(#clip0_765_858)"><path d="M42.42-.42H-.42v42.84h42.84V-.42z" fill="url(#paint0_linear_765_858)"/><path d="M22.058 31.5a.96.96 0 0 1-.907-.651l-2.28-6.842-5.633-2.112a.956.956 0 1 1 0-1.79l5.633-2.112 2.28-6.842a.96.96 0 0 1 1.814 0l2.281 6.842 5.637 2.112a.956.956 0 1 1 0 1.79l-5.637 2.112-2.28 6.842a.954.954 0 0 1-.908.651zM16.296 21l3.68 1.378c.268.1.478.319.57.592l1.52 4.557 1.521-4.557a.962.962 0 0 1 .571-.592L27.838 21l-3.68-1.378a.962.962 0 0 1-.57-.592l-1.521-4.557-1.52 4.557a.962.962 0 0 1-.572.592L16.296 21zm-1.659 10.5a.953.953 0 0 1-.953-.953v-1.168h-1.168a.953.953 0 1 1 0-1.907h1.168v-1.167a.953.953 0 1 1 1.906 0v1.167h1.168a.953.953 0 1 1 0 1.907H15.59v1.168a.952.952 0 0 1-.953.953zm-1.063-14.847a.953.953 0 0 1-.953-.953v-1.168h-1.168a.953.953 0 1 1 0-1.907h1.168v-1.167a.953.953 0 1 1 1.907 0v1.167h1.167a.953.953 0 1 1 0 1.907h-1.167V15.7a.953.953 0 0 1-.954.953z" fill="#fff"/></g><defs><linearGradient id="paint0_linear_765_858" x1="-3.436" y1="16.691" x2="45.436" y2="25.309" gradientUnits="userSpaceOnUse"><stop stop-color="#A61E69"/><stop offset="1" stop-color="#6366F1"/></linearGradient><clipPath id="clip0_765_858"><rect width="42" height="42" rx="6" fill="#fff"/></clipPath></defs></svg>