<svg width="42" height="42" fill="none" xmlns="http://www.w3.org/2000/svg" role="img" aria-hidden="true" focusable="false"><g clip-path="url(#clip0_86_651)"><path d="M42.42-.42H-.42v42.84h42.84V-.42z" fill="#117671"/><path d="M28.539 11.038H13.461a2.958 2.958 0 0 0-2.961 2.96v8.615a2.958 2.958 0 0 0 2.961 2.96h5.053l5.149 5.15a.807.807 0 0 0 1.378-.571v-4.578h3.498a2.958 2.958 0 0 0 2.961-2.961v-8.614a2.958 2.958 0 0 0-2.961-2.961zm0 1.617a1.35 1.35 0 0 1 1.348 1.348v8.614a1.35 1.35 0 0 1-1.348 1.348h-4.31a.812.812 0 0 0-.806.807v3.435L19.417 24.2a.807.807 0 0 0-.572-.235h-5.384a1.35 1.35 0 0 1-1.348-1.348v-8.614a1.35 1.35 0 0 1 1.348-1.348" fill="#fff"/><path fill-rule="evenodd" clip-rule="evenodd" d="M17.006 17.069c0-1.1.936-1.991 2.079-1.991A2.08 2.08 0 0 1 21 16.296c.31-.71 1.054-1.218 1.915-1.218 1.15 0 2.08.895 2.08 1.99 0 3.21-3.995 5.33-3.995 5.33s-3.994-2.12-3.994-5.33z" fill="#fff"/></g><defs><clipPath id="clip0_86_651"><rect width="42" height="42" rx="6" fill="#fff"/></clipPath></defs></svg>