<svg width="42" height="42" fill="none" xmlns="http://www.w3.org/2000/svg" role="img" aria-hidden="true" focusable="false"><g clip-path="url(#clip0_765_877)"><path d="M42.42-.42H-.42v42.84h42.84V-.42z" fill="#0E1E65"/><path d="M24.39 10.5H17.5a3.678 3.678 0 0 0-3.507 3.57v13.818a3.58 3.58 0 0 0 3.55 3.612h6.845A3.58 3.58 0 0 0 28 27.951V14.07a3.688 3.688 0 0 0-3.612-3.57zm1.994 16.884c0 1.365-1.1 2.478-2.465 2.486h-5.867a2.484 2.484 0 0 1-2.466-2.486V14.553c0-1.365 1.1-2.478 2.466-2.486h5.867a2.484 2.484 0 0 1 2.465 2.486v12.831z" fill="#fff"/><path d="M20.979 23.234a2.255 2.255 0 1 0 0-4.51 2.255 2.255 0 0 0 0 4.51zm0-5.556a2.255 2.255 0 1 0 0-4.51 2.255 2.255 0 0 0 0 4.51zm0 11.151a2.255 2.255 0 1 0 0-4.51 2.255 2.255 0 0 0 0 4.51z" fill="#fff"/></g><defs><clipPath id="clip0_765_877"><rect width="42" height="42" rx="6" fill="#fff"/></clipPath></defs></svg>