<svg width="42" height="42" fill="none" xmlns="http://www.w3.org/2000/svg" role="img" aria-hidden="true" focusable="false"><g clip-path="url(#clip0_86_72)"><path d="M42.42-.42H-.42v42.84h42.84V-.42z" fill="#407D84"/><path d="M31.5 32.55c-.269 0-.538-.1-.743-.307l-6.363-6.363a9.181 9.181 0 0 1-5.73 2.004c-5.081 0-9.214-4.133-9.214-9.215s4.133-9.215 9.215-9.215 9.215 4.133 9.215 9.215a9.156 9.156 0 0 1-2.004 5.729l6.363 6.363a1.05 1.05 0 0 1-.743 1.793l.004-.004zm-12.835-21c-3.923 0-7.115 3.192-7.115 7.115s3.192 7.115 7.115 7.115 7.115-3.192 7.115-7.115-3.192-7.115-7.115-7.115z" fill="#fff"/></g><defs><clipPath id="clip0_86_72"><rect width="42" height="42" rx="6" fill="#fff"/></clipPath></defs></svg>