<svg width="42" height="42" fill="none" xmlns="http://www.w3.org/2000/svg" role="img" aria-hidden="true" focusable="false"><g clip-path="url(#clip0_765_890)"><path d="M42.42-.42H-.42v42.84h42.84V-.42z" fill="#760B65"/><path d="M27.56 18.375a3.939 3.939 0 0 0 3.94-3.935 3.942 3.942 0 0 0-3.936-3.94 3.939 3.939 0 0 0-3.91 4.423l-6.485 3.242a3.94 3.94 0 0 0-5.569.1 3.94 3.94 0 0 0 5.57 5.57l6.484 3.242a3.937 3.937 0 0 0 7.812.975 3.937 3.937 0 0 0-6.64-3.322l-6.485-3.243a4.164 4.164 0 0 0 0-.97l6.485-3.242a3.93 3.93 0 0 0 2.734 1.1z" fill="#fff"/></g><defs><clipPath id="clip0_765_890"><rect width="42" height="42" rx="6" fill="#fff"/></clipPath></defs></svg>