<svg width="42" height="42" fill="none" xmlns="http://www.w3.org/2000/svg" role="img" aria-hidden="true" focusable="false"><g clip-path="url(#clip0_86_81)"><path d="M42.42-.42H-.42v42.84h42.84V-.42z" fill="#6D478E"/><path d="M20.777 18.367c-3.59 2.402-5.447-1-6.123-1.689l1.062-1.05a.345.345 0 0 0 0-.487.355.355 0 0 0-.205-.1h-4.67a.346.346 0 0 0-.345.344v4.56a.343.343 0 0 0 .588.24l1.033-1.012c2.659 2.659 5.754 3.436 8.92-.55a.185.185 0 0 0 0-.26.185.185 0 0 0-.26 0v.004z" fill="#fff"/><path d="M13.41 24.692c3.592-2.403 5.448 1 6.124 1.688l-1.062 1.05a.345.345 0 0 0 0 .487c.054.055.13.093.205.101h4.67a.346.346 0 0 0 .345-.344v-4.561a.343.343 0 0 0-.588-.24l-1.033 1.012c-2.659-2.658-5.754-3.435-8.92.55a.185.185 0 0 0 0 .261.185.185 0 0 0 .26 0v-.004z" fill="#fff"/><path d="M26.536 11.924H16.27v5.384l1.36.521v-4.515h7.514v4.964h4.935v10.437H17.632v-3.288l-1.361-.521v5.17H31.5V16.888l-4.964-4.964zm0 4.994v-3.041l3.04 3.04h-3.04z" fill="#fff"/></g><defs><clipPath id="clip0_86_81"><rect width="42" height="42" rx="6" fill="#fff"/></clipPath></defs></svg>