<svg width="42" height="42" fill="none" xmlns="http://www.w3.org/2000/svg" role="img" aria-hidden="true" focusable="false"><g clip-path="url(#clip0_86_628)"><path d="M42.42-.42H-.42v42.84h42.84V-.42z" fill="#AA9A6B"/><path d="M13.02 31.311a.118.118 0 0 0 .013.164.118.118 0 0 0 .189-.059c3.297-5.683 6.585-3.058 11.092-6.031-3.066 0-3.906-1.638-3.906-1.638 1.718.852 3.7 1 5.527.411 1.05-.84 2.932-2.772 3.079-6.921a3.627 3.627 0 0 1-2.541.306 5.053 5.053 0 0 0 2.52-1.785 6.149 6.149 0 0 0-2.877-5.254c.831 10.853-9.635 6.178-12.26 19.215a13.176 13.176 0 0 1 6.081-6.837c2.974-1.567 5.41-3.079 6.305-7.048-.672 4.792-2.835 6.565-5.83 7.909-2.793 1.26-5.662 2.814-7.384 7.572l-.008-.004z" fill="#fff"/></g><defs><clipPath id="clip0_86_628"><rect width="42" height="42" rx="6" fill="#fff"/></clipPath></defs></svg>