<svg width="42" height="42" fill="none" xmlns="http://www.w3.org/2000/svg" role="img" aria-hidden="true" focusable="false"><g clip-path="url(#clip0_86_80)"><path d="M42.42-.42H-.42v42.84h42.84V-.42z" fill="#0074B3"/><path d="M14.927 23.772a2.205 2.205 0 1 1-2.205-2.205h2.205v2.205zm1.104 0a2.205 2.205 0 1 1 4.41 0v5.515a2.205 2.205 0 1 1-4.41 0v-5.515zm2.205-8.854a2.205 2.205 0 1 1 2.205-2.205v2.205h-2.205zm0 1.122a2.205 2.205 0 1 1 0 4.41h-5.531a2.205 2.205 0 1 1 0-4.41h5.531zm8.837 2.205a2.205 2.205 0 1 1 2.205 2.205h-2.205v-2.205zm-1.104 0a2.205 2.205 0 1 1-4.41 0v-5.532a2.205 2.205 0 1 1 4.41 0v5.532zm-2.205 8.837a2.205 2.205 0 1 1-2.205 2.205v-2.205h2.205zm0-1.105a2.205 2.205 0 1 1 0-4.41h5.531a2.205 2.205 0 1 1 0 4.41h-5.531z" fill="#fff"/></g><defs><clipPath id="clip0_86_80"><rect width="42" height="42" rx="6" fill="#fff"/></clipPath></defs></svg>