<svg width="42" height="42" fill="none" xmlns="http://www.w3.org/2000/svg" role="img" aria-hidden="true" focusable="false"><g clip-path="url(#clip0_86_83)"><path d="M42.42-.42H-.42v42.84h42.84V-.42z" fill="#0082A2"/><path d="M30.4 24.826h-.244v-1.319c0-1.188-.966-2.15-2.15-2.15h-5.973v-1.205h1.735c1.188 0 2.15-.966 2.15-2.15v-5.566c0-1.188-.966-2.15-2.15-2.15h-5.565c-1.189 0-2.15.966-2.15 2.15v5.565a2.15 2.15 0 0 0 2.15 2.15h1.734v1.206h-5.93c-1.189 0-2.15.966-2.15 2.15v1.32h-.244a2.15 2.15 0 0 0-2.15 2.15v2.591c0 1.189.966 2.15 2.15 2.15h2.591c1.189 0 2.15-.966 2.15-2.15v-2.591a2.15 2.15 0 0 0-2.15-2.15h-.243v-1.32a.05.05 0 0 1 .05-.05h5.93v1.373h-.243c-1.189 0-2.15.966-2.15 2.15v2.592c0 1.189.966 2.15 2.15 2.15h2.591a2.15 2.15 0 0 0 2.15-2.15v-2.591a2.15 2.15 0 0 0-2.15-2.15h-.243v-1.374h5.972c.03 0 .05.025.05.05v1.32h-.243a2.15 2.15 0 0 0-2.15 2.15v2.591c0 1.189.966 2.15 2.15 2.15h2.591c1.189 0 2.15-.966 2.15-2.15v-2.591a2.15 2.15 0 0 0-2.15-2.15H30.4zm-12.256-6.829v-5.565c0-.03.025-.05.05-.05h5.565c.03 0 .05.025.05.05v5.565a.05.05 0 0 1-.05.05h-5.565a.051.051 0 0 1-.05-.05zm-3.898 8.984v2.591a.05.05 0 0 1-.05.05h-2.591a.051.051 0 0 1-.05-.05v-2.591c0-.03.024-.05.05-.05h2.591c.03 0 .05.025.05.05zm8.081 0v2.591a.05.05 0 0 1-.05.05h-2.592a.051.051 0 0 1-.05-.05v-2.591c0-.03.025-.05.05-.05h2.592c.03 0 .05.025.05.05zm8.123 2.591a.05.05 0 0 1-.05.05h-2.592a.051.051 0 0 1-.05-.05v-2.591c0-.03.025-.05.05-.05H30.4a.05.05 0 0 1 .05.05v2.591z" fill="#fff"/></g><defs><clipPath id="clip0_86_83"><rect width="42" height="42" rx="6" fill="#fff"/></clipPath></defs></svg>