<svg width="42" height="42" fill="none" xmlns="http://www.w3.org/2000/svg" role="img" aria-hidden="true" focusable="false"><g clip-path="url(#clip0_86_693)"><path d="M42.42-.42H-.42v42.84h42.84V-.42z" fill="#14AEAE"/><path d="M21 31.5a3.076 3.076 0 0 1-3.074-3.074v-.563c0-.693-.282-1.37-.769-1.857l-.58-.58A6.224 6.224 0 0 1 14.747 21a6.2 6.2 0 0 1 1.835-4.423 6.221 6.221 0 0 1 4.422-1.83c1.672 0 3.243.65 4.423 1.83a6.264 6.264 0 0 1 0 8.85l-.58.58a2.654 2.654 0 0 0-.491.676 2.603 2.603 0 0 0-.277 1.176v.562a3.076 3.076 0 0 1-3.075 3.075L21 31.5zm-1.21-4.242c.026.197.042.403.042.605v.563A1.17 1.17 0 0 0 21 29.593a1.17 1.17 0 0 0 1.168-1.167v-.563c0-.202.012-.408.037-.605H19.79zm-.718-1.911h3.852c.163-.248.357-.479.57-.693l.58-.58a4.358 4.358 0 0 0 0-6.148A4.317 4.317 0 0 0 21 16.653a4.328 4.328 0 0 0-3.074 1.273A4.317 4.317 0 0 0 16.653 21c0 1.16.454 2.251 1.273 3.074l.58.58a4.5 4.5 0 0 1 .566.693zm11.475-3.394h-1.059a.953.953 0 1 1 0-1.906h1.059a.953.953 0 1 1 0 1.906zm-18.031 0h-1.063a.953.953 0 1 1 0-1.906h1.063a.953.953 0 1 1 0 1.906zm14.486-5.997a.951.951 0 0 1-.676-.282.95.95 0 0 1 0-1.348l.751-.752a.954.954 0 0 1 1.348 1.348l-.751.752a.961.961 0 0 1-.676.282h.004zm-12.004 0a.951.951 0 0 1-.676-.282l-.752-.751a.95.95 0 0 1 0-1.349.95.95 0 0 1 1.348 0l.752.752a.95.95 0 0 1 0 1.348.961.961 0 0 1-.676.282h.004zM21 13.469a.953.953 0 0 1-.953-.953v-1.058a.953.953 0 1 1 1.906 0v1.058c0 .53-.428.953-.953.953z" fill="#fff"/></g><defs><clipPath id="clip0_86_693"><rect width="42" height="42" rx="6" fill="#fff"/></clipPath></defs></svg>