<svg width="42" height="42" fill="none" xmlns="http://www.w3.org/2000/svg" role="img" aria-hidden="true" focusable="false"><g clip-path="url(#clip0_86_78)"><path d="M42.42-.42H-.42v42.84h42.84V-.42z" fill="#789E6F"/><path d="M17.686 22.802H15.31v3.188h-2.377l3.511 4.737 3.511-4.737h-2.268v-3.188zm4.36 4.738h2.268v3.187h2.377V27.54h2.377l-3.511-4.737-3.511 4.737zm-6.913-12.777h-.042c-.143.68-.32 1.487-.466 2.125l-.11.462h1.206l-.11-.462c-.142-.638-.34-1.445-.482-2.125h.004zm6.207.084h-.66v1.772h.66c.702 0 1.03-.352 1.03-.949 0-.596-.37-.823-1.03-.823z" fill="#fff"/><path d="M30.34 11.273H11.66c-.64 0-1.16.52-1.16 1.159v8.614c0 .639.52 1.16 1.16 1.16h18.677c.638 0 1.159-.521 1.159-1.16v-8.614c0-.638-.521-1.16-1.16-1.16h.005zm-13.973 8.87l-.327-1.424h-1.836l-.327 1.424h-1.815l2.02-6.699h2.147l2.02 6.7h-1.882zm5.057-2.12h-.743v2.124h-1.773v-6.699h2.516c1.445 0 2.68.538 2.68 2.226 0 1.689-1.277 2.352-2.68 2.352v-.004zm8.518-3.096h-1.525v3.73h1.525v1.482H25.12v-1.483h1.525v-3.73H25.12v-1.482h4.822v1.483z" fill="#fff"/></g><defs><clipPath id="clip0_86_78"><rect width="42" height="42" rx="6" fill="#fff"/></clipPath></defs></svg>