<svg width="42" height="42" fill="none" xmlns="http://www.w3.org/2000/svg" role="img" aria-hidden="true" focusable="false"><g clip-path="url(#clip0_86_70)"><path d="M42.42-.42H-.42v42.84h42.84V-.42z" fill="#957D3A"/><path d="M22.5 13.369a1.692 1.692 0 0 0-2.945 0l-3.18 5.502h9.3l-3.18-5.502h.004zm-4.293 4.595l2.335-4.032a.576.576 0 0 1 .487-.286.55.55 0 0 1 .488.285l2.335 4.033h-5.645zm-2.003 1.474l-3.213 5.657h.008l-.017.034h7.392v-5.696h-4.17v.005zM14.818 24.2l2.108-3.84h2.36v3.831H14.83l-.008.009h-.004zm6.766-4.763v5.695l7.497-.034-3.213-5.657h-4.284v-.004zm1.096 4.754v-3.83h2.474l2.108 3.839h-4.57l-.008-.009h-.004zm-10.055 1.672L10.5 29.492h21l-1.966-3.628H12.625zm16.132.945l.887 1.713-17.3.05.957-1.713 15.456-.05z" fill="#fff"/></g><defs><clipPath id="clip0_86_70"><rect width="42" height="42" rx="6" fill="#fff"/></clipPath></defs></svg>