<svg width="42" height="42" fill="none" xmlns="http://www.w3.org/2000/svg" role="img" aria-hidden="true" focusable="false"><g clip-path="url(#clip0_86_65)"><path d="M42.42-.42H-.42v42.84h42.84V-.42z" fill="#EF9D48"/><path fill-rule="evenodd" clip-rule="evenodd" d="M10.5 13.499a1.5 1.5 0 0 1 1.5-1.5h18a1.5 1.5 0 0 1 0 3H12a1.5 1.5 0 0 1-1.5-1.5zm0 7.501a1.5 1.5 0 0 1 1.5-1.5h18a1.5 1.5 0 0 1 0 3H12a1.5 1.5 0 0 1-1.5-1.5zm0 7.501a1.5 1.5 0 0 1 1.5-1.5h18a1.5 1.5 0 0 1 0 3H12a1.5 1.5 0 0 1-1.5-1.5z" fill="#fff"/></g><defs><clipPath id="clip0_86_65"><rect width="42" height="42" rx="6" fill="#fff"/></clipPath></defs></svg>