<svg width="42" height="42" fill="none" xmlns="http://www.w3.org/2000/svg" role="img" aria-hidden="true" focusable="false"><g clip-path="url(#clip0_86_74)"><path d="M42.42-.42H-.42v42.84h42.84V-.42z" fill="#2F4A54"/><path d="M29.61 13.205l-2.13-2.13a1.96 1.96 0 0 0-1.39-.575h-7.06a1.97 1.97 0 0 0-1.97 1.97v1.97h-3.28a1.97 1.97 0 0 0-1.97 1.97v13.124a1.97 1.97 0 0 0 1.97 1.97h9.186a1.97 1.97 0 0 0 1.97-1.97v-1.97h3.28a1.97 1.97 0 0 0 1.97-1.97V14.6c0-.52-.206-1.025-.576-1.39m-6.888 16.32h-8.694a.248.248 0 0 1-.248-.248V16.65c0-.135.11-.248.248-.248h3.037v9.19a1.97 1.97 0 0 0 1.97 1.97h3.935v1.721c0 .135-.11.248-.248.248zm5.25-3.935h-8.694a.248.248 0 0 1-.248-.248V12.713c0-.134.11-.247.248-.247h4.347v3.607c0 .542.441.983.983.983h3.608v8.287a.25.25 0 0 1-.248.248m.252-10.496h-2.625V12.47h.395c.067 0 .126.025.172.071l1.982 1.983a.246.246 0 0 1 .072.172v.395l.004.004z" fill="#fff"/></g><defs><clipPath id="clip0_86_74"><rect width="42" height="42" rx="6" fill="#fff"/></clipPath></defs></svg>