<svg role="img" aria-hidden="true" xmlns="http://www.w3.org/2000/svg" viewBox="0 0 312.42 274.69" focusable="false"><path fill="#f0ecf0" d="M287.52 143.51A131.18 131.18 0 1 0 74 245.59c8.71-7.35 16-9.79 17.77-12.33 4.14-5.91 7.5-14.86 8.09-20.77s-10-19-3.54-32.53c2.5-5.25 10.52-15.43 17.55-26.12 11.18-17 12-38.73 27.93-38.73 14.61 0 54.35 8.86 70.3 19.49 16.77 11.19-3 52.58-3 52.58s-.95 21.08-3.9 30.53-15.59 15.55-15.59 15.55c-.59 7.68-11.22 21.26-13 30.12-.54 2.73.15 5.79 1.35 9.53a131.21 131.21 0 0 0 109.56-129.4z"/><path fill="#006531" d="M176.61 263.38c1.78-8.86 12.41-22.44 13-30.12 0 0 12.63-6.1 15.59-15.55s3.9-30.53 3.9-30.53 19.73-41.39 3-52.58c-15.95-10.63-55.69-19.49-70.3-19.49-16 0-16.75 21.72-27.93 38.73-7 10.69-15 20.87-17.55 26.12-6.5 13.58 4.13 26.62 3.54 32.53s-4 14.86-8.09 20.77c-1.78 2.54-9.06 5-17.77 12.33a131.08 131.08 0 0 0 24.14 15.51c11.34-23.08 25.51-37.91 30-64.7-7-5.37-13.58-10.4-23.44-11.58a373.63 373.63 0 0 1 62.43-44.08 413.25 413.25 0 0 1 29.54 67.71c-8.22-4-17.66-4.71-27.77-3.55-2.62 25.81-15.28 40-21.57 69.48 3 .2 6 .31 9 .31a131.09 131.09 0 0 0 21.67-1.78c-1.24-3.74-1.93-6.8-1.39-9.53z"/><path fill="#89bc3b" d="M168.93 204.9c10.11-1.16 19.55-.49 27.77 3.55a413.25 413.25 0 0 0-29.54-67.71 373.63 373.63 0 0 0-62.43 44.08c9.86 1.18 16.45 6.21 23.44 11.58-4.52 26.79-18.69 41.62-30 64.7a130.51 130.51 0 0 0 49.22 13.28c6.26-29.52 18.92-43.67 21.54-69.48z"/><path fill="#093f22" d="M118.49 60c12.73 8.62 85.86 49.87 96.15-15.23C184.74 28.63 140.9 34 118.49 60z"/><path fill="#8b6c9c" d="M202.53 50.08c.44-.89 6.65-3.55 9.08-1.55s1.78 11.07.89 13.95-3.58 9.13-5.76 11.6c-1.56 1.76-4.87-.3-4.87-.3zm-68.27 9.79c-.63-.76-11.33-3.22-11.45 1.85a24.26 24.26 0 0 0 3.46 12.45c1.5 2.61 5 9 7.29 9.36a11.63 11.63 0 0 0 6.57-.68z"/><path fill="#006531" d="M214.64 44.78a2.26 2.26 0 0 1 .08-.44c3-19.51-16.83-48.85-59.48-43.76s-44.86 45.08-37.55 59.26c.28.2.4-.11.8.17C140.9 34 184.74 28.63 214.64 44.78z"/><path fill="#8b6c9c" d="M66.74 118.06c-.3.6-43.71 8.87-49 12.11s-7.61 12.3.07 16.43 57.82 2.77 57.82 2.77z"/><path fill="#006531" d="M160.07 118.61c-14.76-3-37-16.27-45.25-16.86s-22.68 11-29.18 12.18-18.9 4.13-18.9 4.13c-1.47 11.21.59 21.8 8.86 31.31a166.78 166.78 0 0 0 33.67-3c-1.44 9.65-.51 14.94 1.77 17.72-.04.05 63.8-42.53 49.03-45.48zm33.08 9.5s36.63 7.09 43.13 12.4 11.22 14.18 16.54 18.31 19.49 9.46 19.49 9.46c-13.67 7.33-15.91 17.07-13.59 27.76-14.79-3.49-29.12-7.09-38.39-11.81a66.22 66.22 0 0 1-16 8.86z"/><path fill="#006531" d="M201.79 129.47c-3-8.16-.73-21.53-1.91-26.76-1.33-5.94-26.81-11.34-43.35-10 0 0-4.14 14.18-5.91 23s17.13 24 17.13 24 35.6-6.02 34.04-10.24z"/><path fill="#b498c6" d="M168.34 137s9.69-14.85 16.73-15.91c7.9-1.18 11.55-11.78 11.63-17.94l.59-22.86h-39l-1.18 17.13c-.26 7.15-.68 15.54 3.5 19.72a25 25 0 0 1 7.73 19.86z"/><ellipse cx="160.67" cy="164.75" fill="#fbb03b" stroke="#fc3" stroke-miterlimit="10" rx="7.09" ry="10.04" transform="rotate(-77.2 160.673 164.75)"/><path fill="#fbb03b" stroke="#fc3" stroke-miterlimit="10" d="M146.49 175.48c.88.29 22.44 3.43 22.44 3.43l-10 16 10 1.18-37.8 29.83 14.47-27.22-9.45-.89z"/><path fill="#89bc3b" d="M197.58 133.42s3-.88 3-2.65c7.9 2.91 32 8 34.56 9.74 3.84 2.66 8.86 14.77 12.7 17.43s15.35 9.45 15.35 9.45l3.25-1.77 5.91 2.66c-11.93 6.85-17.26 15.85-13.59 27.76l-8.86-1.77c-1.41-8.81 1.86-17.38 8.57-24.52 0 0-11.59-6.79-15.43-9.74s-4.95-14.48-11.74-17.43-33.72-9.16-33.72-9.16zM75.6 149.37c-10.31-9.5-11.22-21.56-8.86-31.31l4.73-1.47c-1.78 11.22 1.85 26.07 10 32.49zm73.25-30.12a16.37 16.37 0 0 1-8.86.29c-5-1.18-13.88-16-30.72-17.42 12.11-1.48 26 10.33 30.42 13s10.93.59 10.93.59z"/><path fill="#8b6c9c" d="M271.31 168.28s33.2 15.35 35.56 21.56-4.89 8.93-7.25 13.06-40.9-6.86-40.9-6.86c-7.05-14.18-1.94-23.04 12.59-27.76z"/><path fill="#b498c6" d="M247.5 179.5c10.93-.89 23.92 2.95 45.78 1.18 10.93 1.77 17.72 14.16 18.9 18.59s-1.81 12.2-15.7 12.49-40.12-15.13-51.34-13.95-8.57-17.42 2.36-18.31z"/><path fill="#b498c6" d="M251.93 179.2s-10.34-2.06-15.06.3c-3.78 1.89-5.91 6.36-10.72 12.62-5.46 7.12-8.78 9.83-12 17.21-1.68 3.82 7.09 8.86 12.71 9.75s16 2.18 19.49.29c4.43-4.43 5.32-21 8.56-25.1.86-2.27-2.98-15.07-2.98-15.07z"/><path fill="#b498c6" d="M214.12 209.33s-4.13 9.45-5.61 13.88-3.54 16.13-3.25 18.5 2.37 4.54 4.73 1.59 5.61-14.77 6.5-16.84 5.61-11.81 5.61-11.81zm7.98 5.32l-2.36 13c-1.18 6.8 7.09 8.57 8.56 4.43l2.7-14.48z"/><path fill="#b498c6" d="M238.94 217.31l-.3 13.29c-1.18 3.54-8.57 3.54-10.34 1.47l2.7-14.47z"/><path fill="#b498c6" d="M247.21 215.53a14.42 14.42 0 0 0 0 5.32c.59 2.07 1.18 5.32-3 9.45-2.62 2.62-6.61.78-6.61.78l1.3-13.77zm-200.15-88.3c-10.55-2.15-15.73-5.63-26-5S-.09 138.3 0 143s6.93 7.64 13.41 9.1S38.86 146.8 50 149s7.61-19.62-2.94-21.77z"/><path fill="#b498c6" d="M37.58 125c5.32 1.94 14.59-.81 19.55 1.94s18.67 31.24 19.23 34.4-10 7.2-15.6 8.06-17.06 1.12-20.76-2.91-1.61-23.57-1.61-23.57-6.14-19.83-.81-17.92z"/><path fill="#b498c6" d="M76.36 161.37s2 14.89 2.72 19.48 1 21.59.8 24.1-4 2.43-5.49-.26-3.63-19-4.5-21.92-3.77-17.61-3.77-17.61z"/><path fill="#b498c6" d="M69.91 165s-4.68 17.9-6 19.19-5.23 2-8.45.29l-3.66-3.78 4.43-15.39z"/><path fill="#b498c6" d="M54.33 183.34a5.58 5.58 0 0 1-7 1.15 5.56 5.56 0 0 1-3-2c-1-1.51 1.76-14.8 1.76-14.8l11.17.87z"/><path fill="#b498c6" d="M38.75 163L37 175c1.77 4.19 4 6.38 7 5.5l4.15-11.33z"/><path fill="#093f22" d="M113.83 153.84c-3.67-3.88-7.22-17.17-5.44-29.57a36.28 36.28 0 0 0-1.48 18.9s-7.39-.59-11.23-2.66c.89 3.55 13.09 6.83 13.59 5.91-.81 4.58-.3 10.39-.29 15.06zm94.09 37.77c0-1.18 1.48-11.22 1.48-11.22L229.48 165s-11.22 13.88-10.33 13.58 13 4.14 9.74 3.55c-9.45-.27-11.81 6.53-20.97 9.48z"/><path fill="#8b6c9c" d="M150.92 98.05s9.94 24.17 25.26 22c13.46-1.88 20.52-19 20.52-19l-.59-15.25z"/><path fill="#b498c6" d="M128.39 50.43a1.68 1.68 0 0 0 .08.59s5.42 28.75 8.33 38c3.46 10.93 22.34 18 22.34 18 7.35 8.42 23.3 4.88 26.68-2.66 0 0 16.75-10.87 17.88-25.58.89-11.52-.57-25.27-2.35-37.76-22.9-9.18-52.35-3.58-72.96 9.41z"/><path fill="#8b6c9c" d="M152.39 85.21c.36-.23-1.85 0-1.85 0s5 13.36 20.24 10.88c13.83-2.26 14.09-16.87 14.09-16.87s-16.97.67-32.48 5.99zm1.78-13.34s-.59 5.5-2.37 7.57-5.61 2.77-5.9 4.54 1.77 5.32 1.77 5.32a13.36 13.36 0 0 1-5.61-9.75c5.16.34 8.99-2.76 12.11-7.68zm23.15-3.8s2 6.28 5 7.46 6.27 0 7.45 1.48.59 4.73.59 7.09c2.07-3 4.89-9.91 3.47-11.3-5.83.36-10.89-1.17-16.51-4.73zM167.79 76c3.74-.94 3.73-4.08 4.63-4.33s3.09.87 2.93 2.12a3 3 0 0 0 2.26-3.59 2.77 2.77 0 0 0-.12-.41c-.76-2.14-4.89-3.24-4.89-3.24s2.56 2.33 1.77 3.48-4.21 0-4.21 0a6.08 6.08 0 0 1-4.06 3.15 8.65 8.65 0 0 1-5.07-.59s-1.54 1.34-2.42 1.08-.09-4.59-.09-4.59-3.87 3-3.61 5.58c.18 1.79 2.21 1.87 3.09 2-.55-1 2.94-2 2.94-2a8.83 8.83 0 0 0 6.85 1.34z"/><path fill="#093f22" d="M134.86 71.91a5.33 5.33 0 0 1-5 .89c-.78-.23-3.06-7-3.87-7.31-3.7-1.45-6.32-2.87-8.09-5.42 0 0 .67-16.07 41-23.92 47.51-9.26 55.83 8.19 55.83 8.19-.13 1.3-3.2 2.06-3.55 3.65-.83 3.82-1.21 10.42-2.21 11.63s-2.62.45-4.88 1.44L201 42.23s-11.3-6.42-41-1.11c-28 5-30.79 12.41-30.79 12.41zm36.44-51.83c-2-2.22 15.06-14.62 15.06-14.62a23.59 23.59 0 0 1 10.41 6.42s-23.48 10.41-25.47 8.2zm5.76 5.76c-.44-2.56 15.72-7.76 24.81-9.08 3.06 3.42 5.87 6.28 7.09 9.52-7.76-2.88-31.62 1.2-31.9-.44zm-35.88-.77c0-3.11-18.62-7-18.62-7s-4.65 6.65-5.54 9.31c7.76-1.1 24.16.79 24.16-2.31zM114.81 38c6.08-3.46 22.82-5.21 22.82-3.66s-19.28 8.76-22.82 14.07a50.31 50.31 0 0 1 0-10.41z"/><path fill="#fbb03b" d="M163.54 59.29c6.87-.67 12.85 5.54 19.05 7.53S203 65.49 203 65.49c2.37-6.31 2.95-14.12 2.22-23 0 0-14.84-6.2-41.87-2.88s-35.88 15.18-35.88 15.18c1.18 8.68 2.84 16.9 6.42 21.37 0 0 13.51-1.33 16.61-2.88s6.18-13.28 13.04-13.99z"/><path fill="#fcee21" d="M153.2 62s-3.07-9.5-9.45-6.83a12.76 12.76 0 0 0-7.6 8.29c4.61-.04 12.25 1.07 17.05-1.46z"/><path fill="#f15a24" d="M153.15 62c-4.63-13-15.1-5.36-17 1.47-.42-.09-2-6.32 6.84-10 8.75-2.33 10.71 8.38 10.16 8.53z"/><path fill="#f15a24" d="M142.53 60.91a3.72 3.72 0 0 0 4.36 2.5 3.42 3.42 0 0 0 2.64-4l-.06-.23a3.63 3.63 0 0 0-4.14-2.66 3.46 3.46 0 0 0-2.91 3.93 2.78 2.78 0 0 0 .11.46zm29.05-19.34s7-2.91 12.28-2.32c7.52.84 9.88 4.38 13.24 8.47-2.76-1.13-7.79-4.68-13.94-5.19-4.74-.4-9.58 2.8-9.58 2.8zm-39.17 17.01c0-.67.58-9.15 6.61-11.7a21.29 21.29 0 0 1 11.65-1.31l.54 3.68a17.76 17.76 0 0 0-11.53.73 12.91 12.91 0 0 0-7.27 8.6z"/><path fill="#f2f2f2" d="M181.88 79.67s-1.48 6.2-5.91 9.45c-1.92 1.41-10.58 2.88-12.12 2.48-5.33-1.41-9.87-6.73-9.87-6.73 7.87-3.28 17.96-5.02 27.9-5.2z"/><path fill="#4b3f51" d="M187.68 78.12c-2.73.81-13.37.37-17.05 1-1.24.2-1.95 1-3.25 1.17s-3-.35-4.15-.07c-6.85 1.72-9.89 4.65-14.76 5.57 1.92.11 3.1.7 5.46.11 15.36-4 17.23-3.46 29.25-5.46 1.82-.33 4.28-1.36 4.5-2.32z"/><path fill="#fc3" d="M166.49 39.35l16.11 27.47c-7-2.22-11.19-7.86-19.06-7.53L152.2 41.68a100.14 100.14 0 0 1 14.29-2.33z"/><path fill="#fcee21" d="M175.51 58.4s.44-10 7.31-9.08a12.76 12.76 0 0 1 9.52 6c-4.34 1.01-11.54 4.23-16.83 3.08z"/><path fill="#f15a24" d="M186.55 54c0 2-1.35 4-3.25 4s-4.3-1.57-4.3-3.59a3.68 3.68 0 0 1 3.54-3.69c1.92 0 4.01 1.28 4.01 3.28z"/><path fill="#f15a24" d="M175.45 58.4c-1.18-6.18 1.87-12.4 10.19-10.4 8.09 2.54 6.51 7.42 6.65 7.35-3.22-5.47-10.64-7.12-13.14-5.15-3.49 2.38-3.42 8.21-3.7 8.2z"/><path fill="#8b6c9c" d="M229.49 214.81c-.71 5.84-3.3 15.45-1.35 17.11-.66 1.1-2.13-5.58-.26-13 .57-2.19 1.38-4.18 1.61-4.11zm9.4 5.19c.29 3.67-3.75 7.63-2.79 9.25.29.49 1.9 2.43 1.26 1.81s-1.92-1.62-2-2.43a28.16 28.16 0 0 1 3.53-8.63zm7.86-2.36a14.85 14.85 0 0 1-4.6 9.39c.55-1.27 3.93-8.18 4.6-9.39z"/><path fill="#8b6c9c" d="M245.63 221.8a3.79 3.79 0 0 1-.44 3.21c.71-2.53-1.4-2.35.44-3.21zm-23.16-9c-.42 1.66-1.07 2.94-.83 4.64-2.12.06-.5-1.89.83-4.64zm33.6-20.89c-1 3.2.11 4.12-.26 7.47l-2.88-.84c1.42-2.49.91-4.01 3.14-6.63zM38.88 139.62c.27 3.45-2 6.42-1.07 9.64l-3 .23c.19-4.42 3.26-6.29 4.07-9.87zM59 166.12c1.15-.14 2.52 7.26-4.49 17.58-.08-.05 5.03-16.47 4.49-17.58zm-14.8 14.52c3-10 2.44-10.66 4.42-13.27 2.64.55-3.68 13.63-4.42 13.27zm24.19-6.74c-1.74-.6-.63.27.07-3.18 1.29-7.29.54.57-.07 3.18z"/></svg>