<svg role="img" aria-hidden="true" xmlns="http://www.w3.org/2000/svg" viewBox="0 0 500 500" focusable="false"><path fill="#007973" d="M80 0h340a80 80 0 0 1 80 80v420H80a80 80 0 0 1-80-80V80A80 80 0 0 1 80 0z"/><path fill="#fff" d="M420 0H80A80 80 0 0 0 0 80v340a80 80 0 0 0 80 80h75.9L437.6 2" opacity=".1"/><path fill="#fff" d="M46.1 337.3v34.9c21.6-.9 38.5-8 52.8-22.5s27.4-38 39.9-72.9l92.6-248h-44.8L112 236 75 119.8H34l54.4 139.8a57.5 57.5 0 0 1 0 41.8 52.3 52.3 0 0 1-42.3 35.9z" opacity=".3"/><path fill="#534741" d="M372.1 128.3c-9.9-28.3-45-52.7-75-50.5l-8.5-1c-28.7 14.3-25.5 45-34.1 75.9-8.5 30.2-22.7 62.9-10.7 91.9 9.7 23.7 51 28.4 82.4 28.7 4.4-36.4 3.4-15.5 1.6 0 4.5 0 8.8 0 12.7-.2 0 0-10.1-50 1.6 0 8.4-.3 15.2-.8 18.8-1-20.7-64.6 40.8-59.2 11.2-143.8z"/><path fill="#263452" d="M348.9 313.5c9.9 11.9.6 38.2 17.5 40.8 19 3 35.2-24 54.5-24.4a38 38 0 0 1 28.7 12.5c6.5 7.1-1.2 8.2-5.7 16.8-38.7 73-76.2 89.8-119.3 66.2-36.9-94-54.5-65.9-82.5-112.9.5-15.4-5.2-57.4-12.2-71.2 26 30.7 98.6 47.9 119 72.2z"/><path fill="#dda680" d="M213.9 236.3c7.4-10.3 19.2-64.2 16.7-64.7 0 0 29.7 66 80 81.6-18.2-6-25-6-25-6s-8.7 21.8-9.1 24c5.2 4.5 7.5 2.4 16.1 12.4 10.7 12.4-1.2 76.2-8.4 76.4-35 1-115.7-50-115.7-90.4 35-9.8 37-21.7 45.4-33.3z"/><path fill="#c48062" d="M295.5 248.8a530 530 0 0 0-6.8-6 129.1 129.1 0 0 1-23-19.5 975 975 0 0 0-38.1-30c-3.6 16.3-9.4 37-13.7 43-6 8.2-8.7 16.5-22.1 24.2a88 88 0 0 0 75.2 39.2c8.7-.4 17.3-8.6 24-18-7.3-7.8-9.7-6.3-14.5-10.4.4-2.3 9-24.1 9-24.1s3 0 10 1.6z"/><path fill="#af8fc1" d="M277.6 272.4c15.7 25.6-8.2 51.8-10.2 47.6-1.4-2.9-56.4-8.8-82.7-58.2 5.8-3.3 2-11-15.5 1C204 297.5 210.4 428 209.4 500h105.7c12-72 .3-203.4-37.5-227.6z"/><path fill="#a46dad" d="M318.5 446.2c10-18.3 2.7-43 14.9-60q-54.6 14.3-108.6 30.6l3.8 3.7a271.6 271.6 0 0 0-6.2 62.3 234.1 234.1 0 0 0 55.2-9c-7.3 7.8-14.8 17.4-22.7 26.2h18c11.8-4.8 23.2-10 33.3-18.5 6.2-5.2 8.4-28.2 12.3-35.3z"/><path fill="#263452" d="M233.9 416.9c0-32.8 4.9-31.4-4-62.3-12-42.5-49.9-86.8-35-109.2a28.3 28.3 0 0 0-19.5 13.8c-15.5 9.8-43.5 28-46.5 34-4.8 9.2-12.5 37-11.8 47.3 2.5 35.5 3.9 70.7 13.7 104.9 5.5 19 4.5 22.6-3.1 38.6-2.5 5.2-5.1 10.6-7.5 16H225c12.4-112.8 9.3-75.5 8.9-83.1zM338.5 444c16.2-25.9 17.1-36-18-112.4-12-25.8-20.6-43-27.4-51.1 0-6.4-11.2-7.3-13.2-18.7l-3.2 9c12.7 38 25.5 70.3 33.4 124.1 5.4 36.6-5.4 44.7-12.1 105.1h31.7c-4.7-15.1-6.7-31.1 8.8-56z"/><path fill="#263452" d="M194.7 420.8C151 460.4 118.5 480.5 89 467c-28.3-12.8-8.4-54-4-78 3.6-20.3 5.7-67.9 26.6-84.5 20-15.8 39.1-28.3 39.1-28.3l14.4 41.8-16.7 75 43.6-14s22.7 23.7 2.8 41.7z"/><path fill="#dda680" d="M351.7 177.8c13.5 25.9-9.2 40.4-13.8 43.5-8.3 5.6-9 7.3-16.9 23.4-8 16.2-26.4 11.3-40.4 1.1-9.5-6.9-33.4-24-38.6-37.4-3.5-9.2-4.3-32.9 3.2-45.5 6.8-11.5-16.1-22.2-14.6-35.5 1.3-10.8 23-68 80.7-47.4 28.9 10.4 46.7 34.3 46.7 56 0 18.9 3.2 22-6.3 41.8z"/><path fill="#534741" d="M336.5 152.3c4.4-1.5 10.9.1 14.3 1.1 3.2.9 7.6 6 7.6 11.4-1.2-.3-6-7.1-8.3-7.6-4.9-1.1-12.3-1.9-12.8-2-.4-.2-.6-2.3-.8-2.9zm-42.7-13.2c5.2 0 13.7 4.3 14.5 4.9 1 1.7-.2 3.3-2.4 3.4-.6 0-8-3-12.3-3.3-12.7-.7-15.6 2.1-24.3 3.8 5.2-5.5 16-8.8 24.5-8.8z"/><path fill="#e5e5e5" d="M305.5 169.1c.3-3.4-4.4-11-6.8-12.2a21.7 21.7 0 0 0-20.8 3c3 5.2 5.6 7.7 8.8 9.3 6.4 3.2 16.6 2.9 18.8 0zm25.4 8.6c-.8-10.2 17.3-15 21-2 .6 3-4.8 4.5-10.8 4.8a17.6 17.6 0 0 1-10.2-2.8z"/><path d="M288.9 152.6c7 0 16.5 7.2 16.3 14.7-2.9-8.1-11.2-10.7-15.1-10.8-8.4-.3-9.6 7.2-17.7.6 6.7 2.7 2-4.5 16.5-4.5zm58.1 13.2c8 1.8 6.3 10.7 9.8 10.8-7.7 4.4-4.5-6.6-11.7-7.3-9.5-1-12.5 2.8-14.3 7.4-.1-7.5 10-12.2 16.1-10.9z"/><path d="M339.5 173c-4 0-6 5.7-3.1 7.4 1.7 1 7.8 1.3 9.4-.4 2.2-1.6.6-7.4-6.3-7z"/><path fill="#dda680" d="M246.3 151.2c-2-6.1-6.4-13.2-14-15.6-4-1.3-5-.5-8.8 1.4-3 1.5-5.6 6.8-6.3 10-3 14.6 4 23.5 14.4 34 3.3 3.5 9 6.5 12.7 3.4 1.6-1.4 2.3-3.7 2.7-5.8a55 55 0 0 0-4.2-34.8"/><path fill="#c48062" d="M221 159.2c-3.4-6.1.6-15.3 6.5-19.2 1-.8 4.6 1.2 5.2 2.3a90.2 90.2 0 0 1 9.3 24.3 16.4 16.4 0 0 1-9.2-.7 4.7 4.7 0 0 1 6-6.7c-2-4.6-2.8-12.6-7.8-12.8-7.2-.3-10 12.8-10 12.8z"/><path d="M287.3 169.6c3.7 3.9 10.3 4.7 13.3 1.7 1.6-2.3-.2-8.7-3-9.4-9.1-2.5-10.5 4-10.3 7.7z"/><path fill="#fff" d="M293.2 164.4c1 .1 3-.4 3.2-1.5s-1.7-2.2-2.6-2.4-2.8.5-3 1.6 1.4 2.1 2.4 2.3z"/><ellipse cx="342.2" cy="172" fill="#fff" rx="2.2" ry="2.5" transform="rotate(-81.4 342.2 172)"/><path fill="#d6608c" d="M320.7 216.7a11.2 11.2 0 0 1-12 11.8c-11.9-.5-23.3-17.2-24.7-19 2.7.3 37.3 7.5 36.7 7.2z"/><path fill="#942f54" d="M309.6 209c2.7.7 2.9 2.5 4.8 2.8 2.3.5 3.8-1.2 5.6-.8 4.4 1.1 2.1 5.4 6.3 6-2.7 1.2-7 .8-10.5-.2-6.3 6-6.7-.6-12.9-1.5-8-1.2-17.2-2.3-22.7-9.2 7 5.8 18.7 0 29.4 2.9z"/><path fill="#c48062" d="M330 200c-.7 11-9 12.1-16.8 3.2-4.9-5.6-7-3.6-10.4-3.2-2.1.3-1.6-4.8-.5-6.7a4 4 0 0 1 5.6-1.3c-2.6 2.2-4 1.3-4 3.7s6.9-1.2 10 6.1c.7 1.7 12.5 7 13.8-.4 4-22.9-11-32 2.2-43.2-5.2 6.8 1.8 16.6.1 41.8zm-52.2 2c-2.2 2.5-4.3-1-5.6 9.4 1.7.3-2.6-10.7 3-14.6 14.3 3.9 17.7-4.7 27.6-4.8-5.6 2.6-15.1 14.7-25 10z"/><path fill="#c48062" d="M329.7 201a10 10 0 0 0 5 7.2 15.5 15.5 0 0 0 9 1.8 42.4 42.4 0 0 1-7.4 7.6 7 7 0 0 0 2-4.4 9.4 9.4 0 0 1-7.3.2 5.5 5.5 0 0 1-2.6-1.9c-1.1-1.6-.8-3.7-.5-5.6l.5-3.2M298 176c-7.7.9-16.1-.6-21.6-6.1a94.8 94.8 0 0 0 16.8 4 3.3 3.3 0 0 0 2.3-.3l-1.3-1.3c2.2 2.2 6.8.1 9.2.1-.7 2.6-3 3.4-5.4 3.7zm32.3 1.7c5.6 4.3 13.3 4.6 20.2 3.4a8 8 0 0 0-4.9 3c4 3.2-5 1.5-6.2 1a21.7 21.7 0 0 1-9-7.4z"/><path fill="#c48062" d="M278.6 170.2c-.8-1.6-3-2-4.7-2a34.7 34.7 0 0 0-6.8.6c-.3-.5.4-.9.9-1a38.5 38.5 0 0 1 7.3-1 58.9 58.9 0 0 0-15.2-5.3 32.6 32.6 0 0 1 9 1.5 13.6 13.6 0 0 1 7.3 5.4l1.2.4"/><path fill="#b3b3b3" d="M326.5 76.6c29.6 7.7 43.9 40 43 46.5-42.2-43-69.6-25.7-69.7-25.8-10.5-7.7-20.7-19.8-44-19 18.1-14.6 52.3-6.5 70.7-1.7z"/><path fill="#b3b3b3" d="M257.5 282.5c-2.5-.7-16.3-21.5-16.3-21.5s6.4 18.8 5.2 18.5c-2.2-.6-11.5-.5-20-5.6-3.8-4.3-8-30.2-8-30.2s-1 22.6.5 27.3c-24.7-8.2-44.6-18.5-62.1-42 1.4-35.4 30.7-136.3 98.2-151 30.1-6.5 37 3.6 49 19.1-14.1 18.3-99.9 88-46.5 185.4z"/><path fill="#998675" d="M188.6 139.2a224 224 0 0 0-19 52.8l19.5-38a143.4 143.4 0 0 0-10.3 43.4c7.5-21.8 15.6-44.4 32.2-60.2a148 148 0 0 0-24 68.5 123.3 123.3 0 0 1 23.1-46.2 95.2 95.2 0 0 0-8.3 49.5 156.8 156.8 0 0 1 18-54.5 95.3 95.3 0 0 1 21.7-37 123.3 123.3 0 0 0-36.7 36.5 148 148 0 0 1 44.7-57.3c-20.8 9.7-35.7 28.6-49.7 46.8a143.4 143.4 0 0 1 23.5-37.8l-30.5 29.8c8.5-14 14.8-29.6 29.1-40-1.9 1-4 2-6 3.2a162.3 162.3 0 0 0-37 51.5 83.1 83.1 0 0 1 9.7-11z"/><path fill="#998675" d="M235.6 173.3a209.6 209.6 0 0 1 17.8-45.5 161.6 161.6 0 0 0-26 41.2 153.7 153.7 0 0 1 29.6-57.3 156.8 156.8 0 0 0-37 46 153.7 153.7 0 0 0-6.9 55 161.5 161.5 0 0 1 11.6-47.2 209.6 209.6 0 0 0-2.4 48.7 149.3 149.3 0 0 1 19-59.9 116.9 116.9 0 0 0-9.8 67.9 142.4 142.4 0 0 1 12.7-52.4 126.8 126.8 0 0 0-5.8 57.3 107.3 107.3 0 0 1 5.3-36.4 144 144 0 0 1 15.2-37c3.8-14.3 8.5-25.6 13.8-31.1a149.3 149.3 0 0 0-37 50.7z"/><path fill="#534741" d="M238.4 227a126.8 126.8 0 0 1 5.8-57.2 142.4 142.4 0 0 0-12.7 52.4 116.9 116.9 0 0 1 9.8-67.9 149.3 149.3 0 0 0-19 59.9 209.6 209.6 0 0 1 2.4-48.7 161.5 161.5 0 0 0-11.5 47.3 153.7 153.7 0 0 1 6.8-55.1q1.4-4.4 3-8.7l-3.2 5.5a156.8 156.8 0 0 0-18 54.5 95.2 95.2 0 0 1 8.3-49.5 123.3 123.3 0 0 0-23.2 46.2 148 148 0 0 1 24.1-68.5c-16.6 15.9-24.6 38.4-32.2 60.2a143.4 143.4 0 0 1 10.3-43.4l-19.5 38c3.6-16 10.4-36.7 19-52.8a83.1 83.1 0 0 0-9.7 11 227.9 227.9 0 0 0-22.1 78.9c17.5 23.4 37.4 33.7 62.1 41.9-1.4-4.7-.4-27.3-.4-27.3s4 25.9 7.8 30.2c8.6 5.1 18 5 20.1 5.6 1.2.3-5.2-18.5-5.2-18.5s13.8 20.8 16.3 21.5c-18.8-34.4-20.3-65.3-13.8-91.8a107.3 107.3 0 0 0-5.3 36.4z"/><path fill="#ccc" d="M367 104.2c12.6 14.9 0 69.7 18.9 69.7-6 3.5-13.8 7-19-6 1 13.8 4.4 14.7 20.7 22.4-12 6-20.8 2.2-22.4-1.7 2.4 6.2 0 8.6 8.6 15.5-49-6 3.5-116.3-67.2-108.7 5.2-1 29.8-27.2 60.3 8.8zM253.2 252.3c-25.8-67.2 3-131.3 51-155.5 0 .2-55 59.8-51 155.5z"/><path fill="#5e4e6d" d="M167.8 331.7a209 209 0 0 1 50.5 9.1q-27.3-4.1-55-5.9c-1.7-22.8 7.5-67.3 12.4-75-6 23.4-8.3 47.5-8 71.8zM319.9 318a308 308 0 0 0-26.2-37c7.1 11.8 13.5 22.9 20.6 34.6a134.3 134.3 0 0 0-11.4 18.3 175.3 175.3 0 0 1 17-15.8zm-141.3 63.8l-14.9 6a589.5 589.5 0 0 0-37.8 16.4c-7 3.4-14 7.2-19.1 13-4.1 4.6-7 10.2-9.6 15.7l1.2-14.2a12.1 12.1 0 0 1 1.2-5c1.3-2.3 4.1-3.5 6.7-4.5q34.3-13.3 69.2-25.2m-82.9 14.5c1.9-1.8 4.3-3.6 6.8-2.9a8 8 0 0 1 2.4 1.5 74.5 74.5 0 0 0 9 5.6c-3.5 4.1-14.4-2-18.2-4.2z"/><path fill="#99978b" d="M199.3 482.2c3.5-49.9 11.4-98.6 37.9-136.8l27.6 5c-15.5 36.5-28.8 71.4-32 98.2zm69.1-13.6c3-30 2-78.4 16.3-116.3 0 0 20.7-4.3 19.8-1.8s-16.5 93-16.5 93zm62.8-106.9c0 3.5-11.5 98-11.5 98s20.1-17.8 24.5-20.4c2.2-1.4 10.3-79.3 10.3-79.3z"/><path fill="#b3afa0" d="M233 448.7c1.8 4.4 35.4 19 35.4 19 3.7-30.1 4-79.1 18-117.2l-28.4-1.7a494.5 494.5 0 0 0-25 100zm87 10.3l-31.8-15.4 12.9-94 31.9 2.7zm54.3-9.4c-6-2.6-31-10.3-31-10.3l13-79.3 30 5.2z"/><path fill="#a8cb5f" d="M253.7 364.3c16.4 12 67.2 38 85.3 64.6-2 3 47.4-41.3 47.4-41.3-40.7-31.5-83.4-51.4-129.2-53.4-12.7 3-19.7 7.6-21.6 13.8z"/><path fill="#8aad41" d="M386.4 387.6l66.3 31.9c-31.6-39.7-96.6-69.2-166-81.2 47 18.3 88 37.2 99.7 49.3z"/><path fill="#a8cb5f" d="M287.3 338.5c73.5 16 129.1 38.2 165.4 81L500 382v-17c-67.6-24.1-150.1-38.5-212.7-26.4z"/><path fill="#a8cb5f" d="M338.4 336.2c57.7 6.3 109.9 11.4 161.6 28.8v-36.8c-54-4.4-107.2-.7-161.6 8z"/><path fill="#8aad41" d="M357.7 335.7q-10.3-1-20.4-1.5l20.4 1.5zm0 0a708.4 708.4 0 0 1 142.3 31v-7.3a793.3 793.3 0 0 0-142.3-23.7z"/><path fill="#ccc" d="M462.6 349.9l-37.5-3.5 8.9 2.6 39.4 3.3-10.8-2.4z"/><path fill="#f2f2f2" d="M480.3 361.3l-7-1.7-21.3 15.8-26.9-12.2 9-14-8.1-2.5-16.3 23.5-17.5-11.7 2.8-18.3-7.1-.6-1.7 14.8-28.3-19-9.9-.4 15.3 11.4-27.3 4.8 11.6 3.4 22.4-2.8-2-2 36.9 27.3-1.3 1.9 7.3 4.5 10.2-14.9 57.9 28.9 6-3.9-26.5-14.8z"/><path fill="#ccc" d="M411.6 383.7l-8.2-4.7-54.7-14 10.5 5.4 52.4 13.3z"/><path fill="#5ab5a4" d="M284.3 367l-.5-1.7a33 33 0 0 1-5.2 1.8zm-3.4-12.3l-4.4-15.4-22-2.1 4.6 18a148.4 148.4 0 0 0 21.8-.5z"/><path fill="#8aad41" d="M259.1 355.1l-4.5-.3-.5 8.2 7.5 6.3a85.2 85.2 0 0 0 17-2.2l-16.3.7zm21.8-.4l3 10.6a20 20 0 0 0 2.9-1.6l-2.3-9.5-3.6.5z"/><path fill="#328d7c" d="M259.1 355.1l3.2 12.7 16.3-.7a33 33 0 0 0 5.2-1.8l-3-10.6a148.4 148.4 0 0 1-21.7.4z"/><path fill="#f2f2f2" d="M339.3 374.4l19.5-4s-6.2-3.7-10.6-5.6l-41.4 9.3-11.3-3.1-3.2-13.2 23-2.5 4.2-3.6-5.8-2.2-3.3 2.6-19.6.1c1.7 5.3-.3 9-4 11.5l1.7 7.4-21.4 1 8.6 6h28l-.5 18.1 6.8 5 1-21 21-4.3 9.7 14a479.1 479.1 0 0 1-24.2 17.2l6.8 5.8 22.7-15.3c3.9 5.7 10 15.4 10 15.4l5.5-4.3z"/><path fill="#f2f2f2" d="M287.3 338.5l-6.9-1.7 4.1 17.4a21.7 21.7 0 0 0 6.3-2l-3.5-13.7z"/><path fill="#ccc" d="M290.8 352.2a21.7 21.7 0 0 1-6.3 2l2.3 9.5c3.7-2.5 5.7-6.2 4-11.5z"/><path fill="#f2f2f2" d="M487.2 339.5l12.8-10.9-9-.5-6 4.8-85.6-.9 7.6-3.4h-6.4l-24.4 8.8 8.7.9 7.4-3 84 4.3-13.5 10.3 10 2.4 8.4-7.7 18.8-2V338z"/><path fill="#ccc" d="M308.8 343.5l-16.2-2.9 7.3 3.2 17.3 2-6-2.4-2.4.1z"/><path fill="#f2f2f2" d="M344.6 334.6l-7.3-.4-26.5 9 6.2 2.4 8.2-3.2z"/><path fill="#ccc" d="M384.6 373.8a794.1 794.1 0 0 0-74.5-29.3h-3.8a1739 1739 0 0 1 66 26.7z"/><path fill="#ccc" d="M336 351.2h-9l8.2 3.9c2.7-.9 7-.9 12.3-.5zm61.8 28.4l5 16.2-7-4-3.8-13.7z"/><path fill="#5ab5a4" d="M423.1 372.6l-8 13.3 31.1 26.2 18-21.3z"/><path fill="#328d7c" d="M446.2 412.1c-13.2-6-26.5-12-34-14.4l-9.5-14.1c5 1.7 8.3 1.7 13 2.5zm-3.8-61.1l30.8 3 10.5 3h-15.5l-25.8-6z"/><path fill="#5ab5a4" d="M438.9 350.3l-8 11.4 20.1 8.6 17.2-12.7-29.3-7.3zm26.1 27.2l17 7.8 18-10v-8.8l-14.3-4.8-20.7 15.8zm-56.2-11.7c-.7-.2-14.3-8.2-14.3-8.2l3.3-16.3 24.1 4.5z"/><path fill="#328d7c" d="M431.2 345.4l-9.3.4-24.1-4.5 8.8.2 24.6 3.9z"/><path fill="#5ab5a4" d="M383.6 349.9L362.2 336l22.7 2.2zm-12.7 5.4l-17.7 1.3 43.2 18.3-25.5-19.6zm-52.2-9.4l13.8 4.1 21.6-5.5-9.1-6.5-26.3 7.9zm2.9 6.5l-3.1 4.2-20 3.8v6.9l8.2 3.1 37.9-7.7-23-10.3zm40.2 19.5l-17.2 4.1 6.4 7.3 22-5.2-11.2-6.2zm13.8 7.7l-21.5 7.1 8.6 12.9 21.7-13.1-8.8-6.9zm-46.1.2l-14.6 3.9 1.3 11.2 9 2.2 4.3-4.3v-13zm-30.1 1.3l-.2 12.7-17.5-11.7 17.7-1zm184.3-28.8l3.9-5.6 11.6-.9-2.6 10.3-12.9-3.8zm-17.2-11.1l-8.6 7.2-36.6-6 3-3.1 42.2 1.9zM320 337.6l-12.9 4.8-15.5-3.2 28.4-1.6z"/><path fill="#328d7c" d="M390.9 380.3l-15.1-.7 8.8 6.7 7.8 1.3-1.5-7.3zm-46.6-24.4l8.9.7 43.2 18.6-9.9-2.1-42.2-17.2z"/><path fill="#5ab5a4" d="M319.3 347.1l9.1 3.3 4.1-.4-13.8-4.1.6 1.2z"/><path fill="#328d7c" d="M352.3 363.7l-7.7-1-23-10.3 3.9.6 26.8 10.7zm132.8-1.8l14.9 4.7V362a458 458 0 0 0-14.9 0z"/><path fill="#5ab5a4" d="M487.2 327.7l-3.8 4-19.5-.3-1.9-5.1 25.2 1.4z"/><path fill="#dda680" d="M479.9 319a54 54 0 0 0-13.4-7.5c-10.3-3.9-14.9-4.6-25.4-1.4-7.5 2.4-1.2 10.2-19.8 17.4 7.3-.4 13.7-1.5 20.4-.5-1 3.5 3.3 7.2 7.6 9.8 5.4 3 9.1 2.8 10.5 1.5 3-3 1.3-7.5-1.3-10.8a239.2 239.2 0 0 1 41.5 1v-1.3c-4-.9-8-1.5-11.6-3.3a41.7 41.7 0 0 1-8.5-4.9z"/><path fill="#c48062" d="M458 327.5c1-6-2.6-6.7-5-12.3 2.6 2.6 10.5 1.1 11.1 4.7 4.1 1.6 6.3 1.1 9-1.3-1 2.2-.1 4.5-3.2 5.2 3.8.5 14 2 17.3 4l-29.2-.3z"/><path fill="#5ab5a4" d="M344.6 403.5l-18.1 11.1 12.5 14.3 13.8-11.7-8.2-13.7zm-51-62.1l1.2 8 16.9-1-18.1-7z"/><path fill="#328d7c" d="M382.7 378.5l-9.7-.4-10.5-6.2 20.2 6.6z"/><path fill="#ccc" d="M495.2 357.6h-.2l-1.5-.7-20 2.8 6.8 1.6 16.3-1.4 3.4 1.1v-1.8l-4.8-1.6z"/><path fill="#f2f2f2" d="M493.5 356.9l6.5 2.3v-1l-3.4-1.1-3.1-.2z"/><path fill="#f59c00" d="M408.7 235.9c-18.7 0-30.6 9.8-30.7 28.2-.1 21.8 29.2 78.6 29.2 78.6.6-2.2 31-55.1 31.4-77.4.2-16.2-14-29.4-29.9-29.4zm.2 40.4a12 12 0 1 1 12-12 12 12 0 0 1-12 12z"/><path fill="#dda680" d="M188.4 379.1c22.2-9.6 25.2-14 31.2-23.8 6.6-10.9 13.4-10.4 24.8-10.4 9 0 13.9 4 25.4 5.1 14.2 1.5 3 3.3 23.8.3 1.4-.2 5.4 7.9-8.2 12.6a40.8 40.8 0 0 1-27.7-.5c.7 4.8 8.2 9.6 8.2 9.6l28.8 17.5s-11-1.4-29.8.1c-25 4.5-30.9 25-57.3 15.2-8 4.3-17.8 7.5-23 4.8-11.7-6.1-14-22.7 3.8-30.5z"/><path fill="#c48062" d="M206.7 404.1c-1.1.5-19.2-4.8-14.3-15.7-5.9 6.4-3.2 11 2.1 15.2l-10 5.6c5.8 3.4 19.6-1.9 23.8-4zm65.6-23.8c1.8 4.7-.6 7.6-7.4 9.3a104 104 0 0 0 30.3 0c-1.9-.4-26.6-16.4-32.3-19.7 3 3 7.8 6.3 9.4 10.4zm-38.4-33.1c.8-.5 18 2.7 18.1 2.7 2.2 1 6.3 14.7 7.5 16.7-8.5-14.1-9.2-15.4-25.6-19.4z"/><path fill="#c48062" d="M255.4 387c-2.6-1.3-25.3-15.5-23.7-25.6-5.5 13.2 25.7 33.7-4 31.4 7.5 9-3.2 9-8.4 7.1 2.7 14.3-15.3 3.1-16 3.6 2.9 1.8 15 3.8 17.4 4.8 16.3 4 18.7-.2 19.5-1.9 7.9 1.5 18.1-3.5 11-6.8 7 3.5 16.6-1.9 17.2-2.5 1.2-1.6.5-4.6-1.4-7.2a24.3 24.3 0 0 1-11.6-3z"/><path fill="#942f54" d="M449 329.4c.2 2.4-3 1.1 2.2 6 2 2 4.4-.8 8.3.5 2 .7-.5-4.5-1.4-6.5a24 24 0 0 0-9 0zm-167.7 23.2c1.6 2 4.7 2.3 7.2 1.4s4.4-2.7 6.3-4.6a92.6 92.6 0 0 0-14 3.2"/></svg>