<svg viewBox="0 0 299 318" xmlns="http://www.w3.org/2000/svg" role="img" aria-hidden="true" focusable="false"><g transform="matrix(-1 0 0 1 298.366 0)" fill="none"><circle fill="#F0ECF0" cx="131.2" cy="186.088" r="131.2"/><path d="M144.8 100.788c10.5 9 34.6 4.3 35.4 40.7-1.8-14.3-16.6-16-35.9-39.6l.5-1v-.1zm-83.8.8c3.6-1.2.5-3.3 5 3.5 4 37.1 8.6 47.9-7.8 55.8-1.6.6-4.6 1-10.1 3.3-18-25.7 1-45.6 3-67.1 4.1 3.4 8.2 5 10 4.5H61z" fill="#42210B"/><path d="M166.5 157.588c-54.6-16-50.2 7.4-54.3-23.3 7.1 1.3 20 1.8 21.8-10.4 1.8-12.2 7.2-16 10.3-22 12.4 15 27.3 21.2 30.7 56-4.2.1-7.3 0-8.5-.3zm-122-96.2a68.021 68.021 0 0 0-1.2 5.3c-18.1-24 5.7-52.2 10-54 2.6-1.1-10.4 7.2-11.8 27a47 47 0 0 0 3 21.7z" fill="#42210B"/><path d="M254.9 135.888l.2 3.5-.2-3.5zm-.8-8.9l.8 8.9-.8-8.9zm-11.1-38.4l-3.4-5.8 3.3 5.8h.1zm.4.8l.5.8-.5-.8zm2.4 4.5l.3.5-.3-.5zm-1-1.9l.3.5-.3-.5z" fill="#F4A269"/><path d="M243.7 83.188c35 57.8 6.6 68.9 23.2 85.9-4.2-4.3-7.4-5.2-10-13.5-2.4 0 1.3-40.2-13.5-66.2-5.3-9.3-4.8-6 .3-6.2zm-11.6-9.4a37.9 37.9 0 0 0 4.8 5.4 24.4 24.4 0 0 1-4.8-5.4z" fill="#CE6D42"/><path d="M220.3 61.988c1.9 1.3 2.9 1.5 2.1 3.6-2-1-3.1-2.2-2.3-4.3 2.2 1.4.7.7.3.6l-.1.1zm-2 16.4l-.5-.2.5.2z" fill="#F4A269"/><path d="M220.3 61.988c.7 0 1.1.2 2 1.3l-2-1.3zm-6.3 9.6a7.9 7.9 0 0 0 1.5.3 4 4 0 0 1-1.5-.3z" fill="#CE6D42"/><path d="M193.5 76.988c-.6-.1-2.8-.8-3-1.4a12.9 12.9 0 0 0 3 1.5v-.1zm22.8.4l-2.3-1 2.3 1z" fill="#D38053"/><path d="M217.8 78.188l.7.5c-3 2.2-1.3.2-13.5-.8 11.9.2 0-3.6 12.8.3z" fill="#F4A269"/><path d="M215.1 79.788c1.1-.2 2.6-1.5 3.4-2.1-.4-.4-.5-.2-.2-.3 2.4.7 11.2-5.8 11.5-8.2a23.2 23.2 0 0 0 .2 2.6c.2-5 6.2 14.7 21 9-7.2 5-15.1.5-14 1-10.3 5.3-12.2 8.5-22.4 3 4.6-1 4.3-3.1.5-5z" fill="#CE6D42"/><path d="M193 210.788l1.6-.4-1.6.4zm-6.8 1.5l1.5-.3-1.5.3zm27.4-14.8c-3 .4-27.4 3.3-29 1.7-.5-.4 10.2-18 10-24.1-1.6 6-12.6 18-14.9 23.8-6.5-4.1-18.7-11.2-22.7-27-2.6 6.7 2.5-6.6-27.1-15.1-5.5-3.4-9.8-4.5-12.4-5.6a128.5 128.5 0 0 1 49 6.4c3.7 1.2 31-1.5 45.2.4-5.3 8.3-2 34.8 4.5 44.9 1.2 1.8 1.8 1.3-1.2 2 1.7-.3-.3.4-1.4-7.4z" fill="#A52A6A"/><path d="M157 174.988c-.8-1.4-1-.8 0-3.1 4 15.9 16.2 22.9 22.7 27 2.3-5.9 13.3-17.8 15-23.8 0 6-10.6 23.7-10.1 24.2 1.5 1.5 26-1.4 29-1.8 2.6 8.8 15.5 5.8-30.1 15.4a158 158 0 0 1-26.5-37.8v-.1z" fill="#7C2050"/><path d="M200.3 78.488c-3.7 2-1 8.9 2.7 8.4 6.9-1 22.6-2 12.6-7a3.2 3.2 0 0 0 2.9-1.6c1.5.2 11.6-4.1 10.9-8.1 3.4 4.1 5.6 7 8.4 9a14.3 14.3 0 0 0 11.9 2.3 22.5 22.5 0 0 1-6 1.7c35 57.8 6.7 68.9 23.2 85.9-4-4.2-7.4-5.2-10-13.5-33.6 2.7-56.2 1-45.1 2.5-5.3 8.3-2 34.7 4.5 44.8 33.6-4.2 67-19.4 78.5-28.9 3-2.6 4.7-8 2.7-10.7-1.1-1.6-3-7.2-3.5-8.3-9.4-19.2 6.3-3.6-36.2-78-9.7-16.9-1.8-11.9-29-20.4.3-.2-12.5-5.2-16.1-1.4h.1c-9.4-1.3-9.5.8-10.9 3.7-4.4-1.4-8.2 1-7 3.7.3-.4-2 2.3-5.2 11-1 2.8 7.6 5 10.6 5v-.1zm-2.7-18c-.8 0-1.7.8-2.6 2 1.2-1.6 2-2.2 2.6-2z" fill="#F4A269"/><path d="M200.3 73.688a2.7 2.7 0 0 1 0-2.5c.4 3 .5 3.2 0 2.5z" fill="#F4A269"/><path d="M198 74.588c-1.8-1.4.4-4 1.9-6 6.8-9.8 4-9.3.4 2.5-.6 2.2-.5 3 2.7 4 19.2 4.8-3.1 1-5-.5z" fill="#CE6D42"/><path d="M204 61.688l.4-1.1a4.3 4.3 0 0 1-.3 1.1h-.1zm0 16.3a10.2 10.2 0 0 0-3.1.3c-8.7-2.2-9.9-3.7-8.7-6a69.8 69.8 0 0 1 4.3-8.2c3 8.6-11.1 10.8 7.6 13.9h-.1zm14.3.4c-14.7-4.4-15.5-5.2-13.4-8.7 1.2-2 6-8.2 6-10.9 3 2-5 13.4-4.6 14.1 13 5.8 13.2 5.8 12 5.5z" fill="#CE6D42"/><path fill="#A52A6A" d="M61 159.588l-2.8 1.3 2.9-1.3z"/><path d="M51.7 252.088a52 52 0 0 1-4.1-5.1c29.9-17 26.8-17.9 9.5 2.6 22.6 3.2 24.7 3.7-5.4 2.5z" fill="#7C2050"/><path d="M48.1 164.188c3.2-1.4 17.8-6.2 2.7-.6 35.7 12.2 41.2 28.1 52.3 44 10.7 0 52.5-9.3 52.5-11.1 0-5.3-5.5-27.3-25.7-39.7 33.5 9.7 21 21 53.6 56.1 21.7 21.8 17.7 32 6.7 48.4 2.5 21.9-2 34.5-4.5 43.8a130.1 130.1 0 0 1-101.7 3.5c3.7-20-17.7-38.9-33.7-58.2 1.8 1.3 5.5.9 23.5 1.6l-16.7-2.4c22.2-26.3 19-16.8-34.1 11.6a129.6 129.6 0 0 1-20-44.6c13.5-21.5 23-43 45.1-52.4z" fill="#A52A6A"/><path d="M50.8 163.588c10.5-4.2 19-5.4 19-22.8 0-9.4-4.2-36.4-3.8-35.7a27 27 0 0 0 1.7 3c11.7 19.5 30.2 57.2 46.5 39 1.8 7.7 11.1 1.7 28.5 20.5a57 57 0 0 1 13.5 29c0 2-41.3 11-53.1 11-11.1-15.9-16.6-31.8-52.3-44z" fill="#F4A269"/><path d="M66 105.288c-.1-2 13.4 19.6 46.8 29.4.5 3.2.3 7.8 1.4 12.5-16.8 18.4-35.8-19-48.1-42l-.1.1z" fill="#CE6D42"/><path d="M63.1 100.288c14.9 27.7 67.3 48.3 70.9 23.6 2.6-18.3 20.2-27.2 18-46.1-.9-7.6-3.9-14.2-6.8-16a79.4 79.4 0 0 0 .9-10.7c0-34.9-61.3-19.7-84 .9.8 7.2 3.6 16.1-2.2 24.7-7-5-10.7-9.2-17.8-6.5-13 5 14.4 39.2 21 30v.1z" fill="#F4A269"/><path d="M126.1 106.788c-1 .7-2 12.5-14.5 5.3a59.4 59.4 0 0 1-13.4-11.8 52.9 52.9 0 0 0 27.9 6.5z" fill="#D17154"/><path d="M96 99.088c12.2 2.7 15.3.9 18.6.9 2.3 0 2.6 2.4 4.3 2.5 1.7.1 2.9-1 4.5-.5 1.3.2 2 2.8 7.2 3.5-9.5 4.3-25.3-1.3-34.6-6.4z" fill="#B24736"/><path d="M86.7 65.988c4.2 6 17.4 5.5 21.8 3a12.4 12.4 0 0 0-12-8.6c-7.3-.2-7.5 4.4-9.8 5.6zm10.1-5.2c6.5.3 6 10-.4 9.7-6.4-.3-6-10 .4-9.8v.1z" fill="#FFF"/><path d="M96.5 60.288c-10.1-.2-6.7 8.7-13.8 5 .5-.9 2.6 1 3.5-2 2.1-6.6 9-7.4 15-5.2 7 2.5 8.2 10.7 7.5 11a12.7 12.7 0 0 0-12.2-8.8z" fill="#000"/><path d="M128 65.788l1.4 2.2c7.3 1.4 14 .7 14.8-6.8-.8-.5-1.4-1.4-2.3-2-3.6-2.8-11-.9-14 6.6h.1zm6.7-6.4c5.8 0 5.8 8.8 0 8.8s-5.9-8.8 0-8.8z" fill="#FFF"/><path d="M142 59.088c-3.7-2.7-11.2-.8-14 6.7l-1-1.3c1.6-10.7 16.6-13.3 18.2-5.1.4 2 2 1 2.4 1.5-3.3 2-3.8-.5-5.7-1.8h.1z" fill="#000"/><path d="M44.5 61.388c-10.5-26 2.1-64.4 51.7-61.2 12.1.8 30.6 6 38.4 16.5-22.5-14.1-78.6 3-90 44.7h-.1z" fill="#42210B"/><path d="M52 70.988c0-6.7 3.9-13.2 10.2-19 .7 7.2 3.5 16.1-2.3 24.7l-7.9-5.7z" fill="#42210B"/><path d="M128 65.788c3 4.5 13.5 21.8 10.3 26.1-1.8 2.5-13.3.5-20-2 5.2-1 14.1 1 15.8-.6 3-5.7-8.3-20.8-10.4-26.2-1.8-4.4-2.7-7.8 5.9-11.2-8.8 5.1-6.1 7.5-1.7 13.9h.1z" fill="#CE6D42"/><path d="M52 70.988c-6.4-3.8-10.6 2-7.4-9.6 13.3-48.5 87-63.6 98-35.3 2.4 6 4.3 13.1 2.7 19.4-5.8-32-93.7-6.1-93.3 25.5z" fill="#80C416"/><path d="M106.3 46.788c-7.4 0-12.5-4.5-24.9 3.3 5.6-11.3 34-4.7 24.9-3.3zm25.1 4.7a11.9 11.9 0 0 1 9.4-3.7c4.7.7 6.4 4.4 5.3 5.4-3.6-5.1-8.6-3.4-14.7-1.7zm-34.6 9.2c6.5.3 6 10-.4 9.8-6.4-.2-6-10 .4-9.8zm37.9-1.3c5.8 0 5.8 8.8 0 8.8s-5.9-8.8 0-8.8z" fill="#000"/><path d="M103.6 96.488c-11 .9-8.8-7-12.2 8.3-1-3.5-1.8-6.1 0-10.8 3.2.4 5.3-.3 11.1-2.2 9-3 6.6-7.7 12.7-8-5.2 1.2-3.2 12.2-11.6 12.9v-.2z" fill="#CE6D42"/><path d="M99.5 275.788c-5.7-3-16.4-17-14.6-25.4 13 18.6 33.3 23 52.1 20.5-9.8 4.9-28.3 9.7-37.5 4.9z" fill="#7C2050"/><path d="M56.4 81.788c-.3.5-3.5 3.4 0 4.4 2.3.8 4-.3 4 1.5 0 1.2.5 2.7-1.3 2.8 1.3-2.8-2-3-3.4-1.9s-6.6-3.3-1-6.9c-4.9-3.2-9.8-9-9.7 1.4-4.9-7.3-.2-14.8 11.4-1.3zm164.3-11.5c-.5 1.4.8 1.8-.7 3.3 2.3-1 3.8-2.7 1.5-3.7 1 .4 2-1.6 2.2-2.6-.6.2-.3 0 0 0 5.8-2.2 6.4 3 6.7 3.4 1.8-2.2 0-6-4.7-6.3-2.1-.2.2-2-7.9-4.1 3.6 1 4.7 2.9 5.2 4.4-1.4-3.6 1 7.1-7.6 7.2 4.2.3 4.9-.9 5.3-1.6zm.7-.4z" fill="#CE6D42"/></g></svg>