<svg viewBox="0 0 296 317" xmlns="http://www.w3.org/2000/svg" role="img" aria-hidden="true" focusable="false"><g transform="matrix(-1 0 0 1 295.274 .96)" fill="none"><circle fill="#F0ECF0" cx="131.18" cy="184.261" r="131.18"/><g fill="#EAB881"><path d="M236.42 96.56c-.15-.43-.29-.87-.44-1.3.15.43.29.87.44 1.3zm-31.98 59.96a11 11 0 0 0-2.11.82c.67-.3 1.4-.56 2.11-.82zm-2.11.82a58.65 58.65 0 0 0-6 2.81c2.67-1.11 4.56-2.11 6-2.81z"/><path d="M293.49 164.27c-8.58-10.51-1.05-27.75-34.52-86.31-3-5.22-5.26-14.52-12.85-17.58-9.11-3.67-12.77-9.16-21.89-12.83-6.85-2.76-4-1.36-3.21-.49 1.49 1.67-2-1.31-5.72 7.13-.38.85 2.86 1.63 4 5 .36 1.07.49 1.14 1.23 1.33 4.71 1.2 6.52 6.89 4.2 10.06-.7-1.43.18-6-4.68-6.36 2 1.44 4.06 3.42 4 5.88 9.4 16.64 17.56 14 20 15 12.43 4.92-17.28 64.57 23 86.13-7.34-1.94-14.31-5.46-23.92-1.33 7.28-5.53 2.46-7.57.86-10.89-2.17-2.92-2.29-11.71-2.6-22.62a103.2 103.2 0 0 0 1.09 20.32 54.8 54.8 0 0 0-38-.12c5.19-1.21 15.45 48.34 20.15 53.9 3.8-1.4 23-8.57 35.17-14.11 21.52-9.81 34.94-25.76 35.44-28.31.24-1.47-.85-2.71-1.75-3.8zm-41.62-99.13c.06.1 8.87 19.59.56 1.21-.2-.44-.38-.84-.56-1.21z"/><path d="M215.17 56.04c.46.17 2 1.49-.23-.93-.88 2.39-.6 4.42 2 6.74 1.06-3 0-3.51-1.77-5.81zm-4.33 23.82c.28-.07.36.05-.35-.38l.35.38z"/></g><path d="M203.74 73.77c0 .4-.33-.06 2.94 2.38l-2.94-2.38zm5.26 4.27c2.3 2 3.13 2.53 2.19 1.77L209 78.04zm6.17-22c.05.06 1.79 2.31 1.83 2.38-.49-1.27-.83-2.01-1.83-2.38zm-.52 11.73c1.38-.08.73 1.34 2.16-.5.52-.67 1.91-3.21.71-2.6.56-2.33-.09-6.71-.19-4.75-.13 2.46-3.7 10.77-8.67 9.87a7.6 7.6 0 0 0 3.25.22c2.74-.39 2.36-.97 2.74-2.24zm-5.99 2.02a6.27 6.27 0 0 1-1.42-.59c.42.309.906.51 1.42.59z" fill="#D38053"/><path d="M214.2 69.33a4.13 4.13 0 0 1-.85 3.73c3.38-1.27 3.66-3.51 2.48-4.78-1.18-1.27-1.34.03-1.63 1.05zm-32.31 1.85c.11.84 2.61 2.33 3.3 2.78a13.33 13.33 0 0 1-3.3-2.78zm10 4.39c-.21.13-.45.1.31 0-.28-.12-.13-.1-.31 0zm-6.51-1.53a29.79 29.79 0 0 0 4.51 2.28c2.54-1.52.8.82-4.51-2.28z" fill="#D38053"/><path d="M202.61 77.13c-.91.35-5.67.26-10.41-1.57-6.74 1-6.41 12.08-1 12.4 8.18.48 10.11 3 13.48 1.92 6.82-2.28 2.4-11.62-2.07-12.75z" fill="#EAB881"/><path d="M217.52 64.67a4.92 4.92 0 0 1 2.54-.48c4.87.36 4 5 4.68 6.36 2.31-3.16.52-8.86-4.2-10.06-2.25-.57.56-2.91-7.86-7.27a10.79 10.79 0 0 1 4.84 11.45zm15.23 112.51c-6.79 1.78-17.9 1.65-21-5.2 3.71 11.1 9 26.86 12.86 37.68 2.88-.89 7.41-1.86 8.89-3.4-3.52-4.16-8.67-10.41-8.74-15.89-.07-5.48 2.92-11.16 7.99-13.19zm-26.31-20.36c-.14.17-.15 0 .53 1.27-.18-.46-.35-.89-.53-1.27z" fill="#D38053"/><path d="M246.11 86.55c-2.26-3.64-4.21.58 2.23-3.3-10.49 4.56-18.5-2.9-24.34-13.21-.05 1.82-1.23 3.13-2.61 4.36-9.64 8.64-10.89 4.95-12.39 3.64-8-7-3.86-2.44-6.09-1-.71.46 4.08 1 5.31 7.11a5.26 5.26 0 0 1-2.67 5.38c7.41 5.8 14.7 2.46 25.68-4.09 14.67 22.17 7.38 66.27 12.78 73.54 1.6 3.32 6.42 5.36-.86 10.89 9.61-4.13 16.58-.61 23.92 1.33-37.63-20.16-14.29-73.91-20.96-84.65z" fill="#D38053"/><path d="M190.92 211.52a81.3 81.3 0 0 0-9.26-12.14c6.41 7.94 17.18 24.84 9.26 12.14z" fill="#A52A6A"/><path d="M205.85 156.04c-31.36 13.6-26.45 13.21-42 8.34-18.87-5.91-37.14-.76-32.1-1.07 11.82-.72 29.07 49.31 35.44 66.88l62.17-10.35c.64 7.64-20.9-59.34-23.51-63.8z" fill="#A52A6A"/><path d="M214.23 180.31c-8.73 13.9-32.09 11.23-35.71-4.78 8 32.54 8.23 20.07-9.5 9.69 25.36 25.8 22.47 41.74 28.27 44.5 3.49 1.65 13.65-3.77 26.3-7.69 3.3-1 4.88-1.61 4.76-2.19l-14.12-39.53z" fill="#7C2050"/><path d="M192.93 72.9a3 3 0 0 1-.92 2.58 25.5 25.5 0 0 0 9.52 1.8c2.47-.02.6.27-8.6-4.38z" fill="#EAB881"/><path d="M220.06 64.19c-3.36-.25-1 1.37-4.23 4.09 1.18 1.27.9 3.51-2.48 4.78a4.07 4.07 0 0 0 .85-3.73c-2.67 1.26-5.78.74-7-.13 4.38 2.46 8.07-2.64 9.69-7.37-2.58-2.31-2.87-4.34-2-6.74-1.19-1.31-4.4-3.35.19-.49a25 25 0 0 1 2.94-5.18c1.27-1.71 5.22-.83 1.65-3.46-1.76-1.3-8.08-2.63-8.81-2.59a4.11 4.11 0 0 0-3.06 1.53c-4.33-1.59-9.29-1.86-11.78 2-4.24-3.58-9.38 2.15-7.77 6.69 1.44 4-1.86.15-7.06 14.62-1.27 3.54 5.07 7 8.77 7.58 7.7 1.25-18.75-8.93 2.24-.45 3.4 2.66 5.28 1.49 10.44 1.8 1.08-.47 1-1.92 1.05-3.09 0-1.84 6.81 8.52 10.32 5.44 8.71-4.45 13.99-9.58 6.05-15.3z" fill="#EAB881"/><path d="M192.51 69.95c.38.94.28.45 0-2.57a4.18 4.18 0 0 0 0 2.57z" fill="#EAB881"/><path d="M194.68 57.19a15.87 15.87 0 0 0 .36-1.77c-.14.62-.25 1.18-.36 1.77z" fill="#D38053"/><path d="M59 167.04c-7.75 3.79-5.09 3.25-3.46 3.59a74.937 74.937 0 0 0 3.46-3.59zm69-3.33l-.77-.17c.242.112.504.17.77.17z" fill="#A52A6A"/><path d="M200.06 262.44c1.23-17.17 10-35.47-31-77.22-8.89-9-13.84-13.86-31.69-19.13 6.35 7.45-.5 40.2-3.43 38.36-25.84-16.17-70.31-19.82-79.39-32.84 6.7-6.24-28.46 5.48-39.7 16.24-3.57 3.42-8.13 12.77-12.22 22.43 8.53 42.43 41.23 74.66 42.5 72 3.64-7.7 7.17-15.66 6.64-14.47 11.84 12.23 19.29 19.48 23.78 35.23A131 131 0 0 0 201 295.25c-.06-16.21-1.3-27.79-.94-32.81zm-145.78-.4c.1 0 0-.08-1.06 2.38.36-.79.71-1.59 1.06-2.38z" fill="#A52A6A"/><path d="M53.29 267.84c5.65 7.53 33.06 17 44.3 27a280 280 0 0 1-35.06-36.66 203.23 203.23 0 0 0 49.54 9.79l-47.15-13.12c.667-5.7 1.333-11.393 2-17.08-3.35 4.49-11.74 22.07-13.63 30.07zm125.12-18.17c-12.42-1.14-45.91 6.44-50.79 17 18.32-12.22 51.08-16.81 54.55.56-.17-1.02 12.83-16.03-3.76-17.56z" fill="#7C2050"/><path d="M124.39 155.75c0 .21.1.43.16.64-.06-.21-.11-.43-.16-.64zm-57.05-39.34c-.59 0-.52-.25 0 1.56 1.53 2.37.74 1.51 0-1.56zm56.8 38.33l.12.46-.12-.46zm-69.63 16.87c9.09 13 53.53 16.65 79.39 32.84 2.16 1.35 8.75-21.75 4.69-36.08-1.9-6.72-10.19-4.65-10.62-4.66-1 0-1.46-.64-1.83-1.66-.68-1.91-1.52-5.36-1.48-5.21-1.23 4.07-1.68 6.59-3.49 7.5-6.48 3.24-37.85-9.4-52.25-41 .62 2.53 1.06 5.26-1 3.64 3.8 16.54 5.92 26.64-13.41 44.63z" fill="#EAB881"/><path d="M107.65 148.64c-20.65-5.6-33.72-12.94-37.72-32.87-3.26 1.48-3.22-1.55-1 7.6 14.4 31.56 45.77 44.21 52.25 41 2.15-1.07 3.54-7.31 3.38-8-2.21-8.85 2.2-2.53-16.91-7.73z" fill="#D38053"/><path d="M140.75 66.31c-3-9.44-7.65-19.56-11.74-25.21a15.73 15.73 0 0 1-8.82-3.17c-7.48 8.26-15.45 4.83-16.65 0-1.68 5.91-9.62 9-14.83 5.74a6.35 6.35 0 0 0 4.78-2.95 18.42 18.42 0 0 1-15.21-2.12c-6-.8-4.66-.93-1.31 4.28 7.29 11.35 4.24 15-4.14 23.72C62.7 77.12 70.69 82.04 74 85.14c6.7 6.17 1.74 13-5.65 12.35 4.88 8.65 5.25 9.2 5.41 10.7.34 3.25-1 6.28-3.86 7.58 4 19.73 16.77 27.17 37.72 32.87 6.48 1.76 13.43 3.33 20 1.88 6.57-1.45 12.87-6.74 13.24-13.51.22-4.11-1.69-10-1.26-14 .68-6.64 5.94-5 6.24-21a112.12 112.12 0 0 0-5.1-35.45" fill="#EAB881"/><path d="M121.63 67.04c-.14 1.89.33 11.5 1.43 14.94 2.29 7.11 7.13 6.6 10.67 8.13 4.36 1.9 5.64 6.66-1.58 8.75-3.85 1.12-7.92 2.25-11.82 1.33 1.4 1.63 3.81 1.84 6 1.84 14.73 0 15.5-9 13.14-12.25-3.67-5.06-12.38-1.31-15.58-12.81-.81-2.74.11-8.51-2.26-9.93z" fill="#D38053"/><path d="M110.39 112.3c-10.66-3-13.86-7.32-14.77-5.86-1.15 1.83 18.2 12.62 29.48 6.84-5.03.06-9.69.44-14.71-.98zM86.23 73.61c1.75 0 7-6 8.82-7.15 3.63-2.2 7.63-1.08 11.78-2-.51-1.34-3.51-5.43-4.18-5.29-3.17.68-9.2.3-9.2.3s-13.18 14.27-7.22 14.14zm39.37-15.85c-5.09.43-3.23 1.61-2.29 5.5a18.92 18.92 0 0 1 17.63 3.35c-5.31-8.47-9.64-9.34-15.34-8.85z" fill="#000"/><path d="M91.39 85.5c4.56 6.52 15.3 4.23 18.45-1.77-.92-5.69-16.99-9.33-18.45 1.77zm9.87 1.69c-6.09 3.06-8.18-7.15-1.85-7.15 4.07 0 5.74 5.19 1.85 7.15zm25.58-4.58c2.38 3.65 14 2.53 14.28-3.35-4.19-9.42-16-4.69-14.28 3.35zm8.47-1.63a3.56 3.56 0 0 1-5.31 1.29c-2.29-1.87-1-6.45 2.58-6a3.57 3.57 0 0 1 2.73 4.71z" fill="#FFF"/><path d="M126.72 79.53c1.76-6.07 10.8-8.36 14.4-.27 1.07 2.38.95-6.79-5.3-7.23-3.92-.28-10.17.09-9.49 10a11.4 11.4 0 0 1 .39-2.5zm-27.31.51c-6.34 0-4.24 10.2 1.85 7.15 3.89-1.95 2.23-7.15-1.85-7.15z" fill="#000"/><path d="M132.6 76.26c-3.61-.44-4.87 4.14-2.58 6a3.4 3.4 0 1 0 2.58-6zm-63.68 47.11c-2.54-10.52-.32-4.66-9.77-9 5.12 9 12.19 18.98 9.77 9zM129 41.1c5.48 7.57 6.11 13.42 5.52 9.56a51.53 51.53 0 0 0-2.44-9.71 16.7 16.7 0 0 1-3.08.15z" fill="#000"/><path d="M137.16 26.23c3.42-12.58-5.26-13.54-7.57-11.18A10.51 10.51 0 0 0 113.3 5.04c-3.11-5.35-12.48-8.78-24.25 2.14C88-.5 72.44 1.9 70.12 17.68c-5.8 1.09-8.67 4.26-10 6.8-5.74.56-24.3 24.19-25.12 32.06-.51 4.69 2 9.11 3.31 13.65.84 2.89 1.22 6 2.75 8.59 4 6.77 0 3.56 5 2.71 4.44-.75 16.29 5.15 22.4 16 3.66.32 7.38-.9 8.67-5.17 1.72-5.69-6.59-8.6-8.54-13.18-4.08-9.57 10.77-15 12.37-23.84 1-5.78-3.41-11.93-7.06-17.09 1.24 0 2.7.15 4.46.38-.16-.1-.3-.21-.45-.32a17.59 17.59 0 0 0 15.66 2.44 6.35 6.35 0 0 1-4.78 2.95c5.21 3.24 13.15.17 14.83-5.74 1.2 4.84 9.14 8.31 16.65 0a16.12 16.12 0 0 0 18.08.78 11.39 11.39 0 0 1-5.61-4.34c3.19.61 6.37-1.64 7.88-4.5 1.51-2.86 1.74-6.22 1.9-9.46a9.68 9.68 0 0 1-5.36 5.83zm-77.44 3.81l-.08-.11.08.11zm-.5-3.51v.09c0-.37.06-.82.09-1.36-.05.48-.07.89-.09 1.24v.03zm14.53 7.72a18.09 18.09 0 0 0 4.06 4 16.75 16.75 0 0 1-4.06-4.03v.03zm-.59-.86l.24.35-.24-.35z" fill="#000"/><path d="M97.49 76.04c-3.73.6-7.38 4.53-6.58 9 1-2.29 1.84-4.94 5.06-6.12 4.28-1.56 11.29-.39 13.75 4.36 1.38 2.65.02-9.24-12.23-7.24z" fill="#000"/><path d="M73.79 108.19c-.16-1.5-.53-2.05-5.41-10.7-6.11-10.84-17.95-16.75-22.38-16-7.48 1.27-15.82 21.55 15.3 33.82 8.33 3.28 13.12-1.13 12.49-7.12z" fill="#EAB881"/><path d="M96 105.92c2.11-2.9 10.26 2.05 16.39-5.72.79-1 1.41-4 3.31-3.71-5.06-.88-6.61 8.28-14.23 6.32-3.12-.81-9-5.15-10 11.67a58.56 58.56 0 0 1 4.53-8.56zm-33.55-5.55c4.3-10.34-20.92-21.24-19.6-7 .3 3.21 2.29 8.83 5.31 9.81-2.45-5.37.27-12.44 1.57-13.5 2-1.61 4.51.76 7.4 2.9-.13 1.68-2.51 2.46-2.65 4.09-.12 1.31 1.07 2.94 5.05 2a7.72 7.72 0 0 1-2.17 5 5.2 5.2 0 0 0 5.09-3.3zm130.32-29.93a3.7 3.7 0 0 1-.27-3.06c4.45-17.69 1.95-7.91-1.07-3.12-2.38 3.78-3.24 6.3.67 8.22 23 11.28 1.9-.25.67-2.04z" fill="#D38053"/><path d="M192.25 75.29c-2.41-1-6.47-3.9-6.5-5.61 0-1.15 4.89-8.09 3.9-14.36-1.07 1.71-6.51 12.19-6.39 14.2.23 3.86 9.09 5.81 8.99 5.77zm13.21-25.34c-.16 1.86-6.76 14.12-6.76 18.83.36 1.09 4.49 2.16 4.71 3.29-6.82-5.17 3.5-20.43 2.05-22.12z" fill="#D38053"/></g></svg>