<svg viewBox="0 0 299 322" xmlns="http://www.w3.org/2000/svg" role="img" aria-hidden="true" focusable="false"><g transform="matrix(-1 0 0 1 298.412 0)" fill="none"><circle fill="#F0ECF0" cx="131.2" cy="190.029" r="131.2"/><path d="M262.5 92.23c-1 1.2-3 2.9-7.5 5a18.4 18.4 0 0 1-10.9 1.6c-.5-1-1-2.2-1.7-3.3l.4-.2.3-.2a14 14 0 0 0 3.3-.2c2.4.2 4.7-.6 6.9-3.2 3.1-3.9 1.7-10.7-1.3-14.6 2.6 2.5 4 5.7 6.4 8.6a231 231 0 0 1 3.3 4c.1.4 1.5 1.8.8 2.5zm-90.9 98.2a17.1 17.1 0 0 1 4 14.3c-11-7.9-22-18.9-31.8-37.8 26.5 1 39.4 8.8 39.5 8.7 43-17.2 51.7 1.5 66.8-6.3 2.3 4.7 5.3 6.3 8.4 9.4-13.5-13.9 5.7-22-5.1-57.7 7.3 0 20.8-4.8 22.9-9.7 14.8 26.3 10.5 39.9 17.8 54.6.6 1.2 2.3 6.7 3.5 8.2 2 2.8 0 7.7-2.7 10.6-29.7 32.8-68.9 33.6-93.5 36.8-6.4-4.6-13.8-8.5-21.5-13.7-1-5.1-1.2-11.2-8.3-17.4z" fill="#F9BF8C"/><path d="M253.4 121.03c10.8 35.8-8.4 43.8 5.1 57.8-3-3.2-6-4.8-8.4-9.5a52.999 52.999 0 0 1-.3-2.2 50.2 50.2 0 0 1-.4-5v-2l.1-3.6.1-1.8.3-3.7.4-3.7.6-5.6a153.4 153.4 0 0 0 .6-9.5v-2a69 69 0 0 0-.3-7.8l-.2-1.6a10.5 10.5 0 0 0 2.4.3v-.1zm-11-25.6l1.7 3.4h-.1c-1.9-.1-2.3-2.3-2.7-2.6l-.1-.2 1.2-.6z" fill="#DB7A53"/><path d="M219.7 95.53c-.7-1.6-3-3-5.5-3.6.1-.011.2-.011.3 0a8.4 8.4 0 0 0 5.1-1.3l-.3-.2a1.6 1.6 0 0 0 .2 0 3.3 3.3 0 0 0 2.7-.6 34.2 34.2 0 0 0 6.4-4 5 5 0 0 0 2-2.8l.4.3c-.7 6.5 5.4 11.5 12.1 11.9l-.3.1-.4.2-1.2.6c-3.8 1.9-11 5.7-13.6 5.6-2.9 0-6.9-2.2-9.8-3.9 1.4-.5 2.3-1.2 1.9-2.3z" fill="#DB7A53"/><path d="M223.7 76.23v.3a3.7 3.7 0 0 1-.2 1.3c-1.3-.7-2.4-1.5-2.6-2.6a3.2 3.2 0 0 1 .3-1.7 7.1 7.1 0 0 1 2.5 2.7z" fill="#F9BF8C"/><path d="M253.3 91.73c-2.1 2.6-4.5 3.4-6.9 3.2a13 13 0 0 0 5.2-2.3c-6 2.7-10.5 1.1-13.8-1.5a36.9 36.9 0 0 1-4.7-5.3c-1.1-1.6-1.8-2.8-2.1-2.9a3 3 0 0 0 0 .3l-.3-.3a2.4 2.4 0 0 0-.9-2 10.2 10.2 0 0 0-3.2-1.9 5.5 5.5 0 0 1 2.9.6c1.6.9 1 2.1 1.8 3.1a3.3 3.3 0 0 0 .2-3.7c-.8-1.3-4-1.1-6.1-1.3a2.3 2.3 0 0 0 0-.2l.8-1a1.3 1.3 0 0 1-.7-.8c-.8-1.2-2.4-2-4.2-2.6l.1-.2a16.4 16.4 0 0 1 2.2-3.5c.7-.8 5.5-.3 6.1-.6a21 21 0 0 0 2.5.7l16.8 5.1a7.8 7.8 0 0 1 3 2.5c3 3.9 4.4 10.7 1.3 14.6z" fill="#F9BF8C"/><path d="M228.6 85.73a34.2 34.2 0 0 1-6.4 4 3.3 3.3 0 0 1-2.6.6c1.5-.6 2.1-2.3.7-2.8l-.8-3.8a10 10 0 0 0 2-.7v.1c.5.8.4 4-.4 4.6 1-.2 2.2-3.1 2.5-4a1.3 1.3 0 0 0-.6-1.5 5.2 5.2 0 0 0 .8-.8 6.7 6.7 0 0 0 1.3-2 6.3 6.3 0 0 1 1.5-.4 10.2 10.2 0 0 1 3.2 1.9 2.4 2.4 0 0 1 .9 2 5 5 0 0 1-2.1 2.8zm-5-16.3a16.4 16.4 0 0 0-2.2 3.5l-.1.2a39 39 0 0 0-2.4-.6 9 9 0 0 1 2.3 1 3.2 3.2 0 0 0-.3 1.7c.3 1.1 1.3 2 2.6 2.6a11.3 11.3 0 0 1-.9 1.8 9.3 9.3 0 0 1-2.7 3.3l-.5.3-3.4-15.4-2.1-.3a4.4 4.4 0 0 1 2.7-1.4 35.6 35.6 0 0 1 13 2.7c-.5.3-5.3-.2-6 .6z" fill="#F9BF8C"/><path d="M219.4 83.23a6 6 0 0 1-2.8.7 7.8 7.8 0 0 1-1.5-.2 4 4 0 0 0 1.5.2 9.8 9.8 0 0 0 3-.2l.7 3.8c1.4.5.8 2.2-.7 2.8h-.1a1.6 1.6 0 0 1-.2 0 39 39 0 0 0-7-3c-.3-3.4-.6-6.7-2-9.7 1.7-2.8 3.2-5.6 1.7-6.6 0 1.3-1.1 3.4-2.4 5.4a13.3 13.3 0 0 0-1.2-1.7 13 13 0 0 0-5.2-3.6c.8-1.7 1.4-3.5 3.7-3.8a24.3 24.3 0 0 1 6.9.2l2.1.3 3.5 15.4z" fill="#F9BF8C"/><path d="M223.7 76.23a5 5 0 0 1 .6 3.4 7 7 0 0 1 .8-.3 6.7 6.7 0 0 1-1.3 2.1 5.2 5.2 0 0 1-.8.8 1.7 1.7 0 0 0-1.2-.2l-.2 1a10 10 0 0 1-2 .7 9.8 9.8 0 0 1-3 .2 6 6 0 0 0 2.8-.7l.5-.3a9.3 9.3 0 0 0 2.7-3.3 11.3 11.3 0 0 0 1-1.9 3.7 3.7 0 0 0 .1-1.3v-.2zm1.6 1.3c.007.1.007.2 0 .3v-.3z" fill="#DB7A53"/><path d="M223 82.23c.524.3.773.92.6 1.5-.3.9-1.4 3.8-2.5 4 .8-.7 1-3.8.5-4.6v-.1l.3-1a1.7 1.7 0 0 1 1.1.2z" fill="#DB7A53"/><path d="M201.4 91.73a3.1 3.1 0 0 0-.8.7c-2-.9-3.9-2.7-5.7-3.4-.5-.1-2.7-.8-2.9-1.4a13.7 13.7 0 0 0 5.2 2 43 43 0 0 0 4.2 2v.1zm.1-2.2h.1a30.3 30.3 0 0 0 5.4.4 30 30 0 0 0 3.6 1.6c-2.6-.3-5.7-1-8-.4l-2.2-1.3a2.7 2.7 0 0 0 1.1-.3zm13 2.5a1.4 1.4 0 0 0-.3 0 10.6 10.6 0 0 0-2-.4h-.4a26.6 26.6 0 0 1-3-1.8l1.7-.1a3.2 3.2 0 0 0 1.3-.4 1.2 1.2 0 0 0 .5-1l6.7 2.7-6.7-3.6a39 39 0 0 1 7 3c.1.2.3.2.4.3a8.4 8.4 0 0 1-5.2 1.3z" fill="#F9BF8C"/><path d="M225 79.33a7 7 0 0 0-.7.3 5 5 0 0 0-.6-3.4 7.1 7.1 0 0 0-2.5-2.7 9 9 0 0 0-2.2-1l2.3.7c1.8.5 3.4 1.3 4.2 2.6a1.3 1.3 0 0 0 .6.6c.2 0-.5.7-.8 1.1v.3c2.2 0 5.4-.1 6.2 1.2a3.3 3.3 0 0 1-.2 3.8c-.8-1-.2-2.3-1.8-3.2a5.5 5.5 0 0 0-3-.6 6.3 6.3 0 0 0-1.4.3h-.1zm6 3.9a3 3 0 0 1 0-.3c.3 0 1 1.3 2 3a23.8 23.8 0 0 0 4.8 5.2c3.3 2.6 7.8 4.2 13.8 1.6a13 13 0 0 1-5.2 2.2 14 14 0 0 1-3.3.2c-6.7-.4-12.8-5.4-12.1-11.9z" fill="#DB7A53"/><path d="M208.4 74.73c.478.53.913 1.099 1.3 1.7-1.4 2.2-3 4.3-3.5 5.3s-1.3 2.6-.3 3.6a38.8 38.8 0 0 0 6.4 3 1.2 1.2 0 0 1-.6 1 3.2 3.2 0 0 1-1.2.4l-1.8.1a14.4 14.4 0 0 0-3.6-1.9 13.4 13.4 0 0 1-3-1.2c0-.9-.3-2.4-.5-4 1.6-3 5-8.2 2.7-10.1.9 1.6-1.4 5.5-3 8l-.8-4a3.8 3.8 0 0 0 0-2 3.5 3.5 0 0 1-.2 1c-.4-1.6-.7-2.6-1-2.7-.9-.3-2 .6-3 2 1-2.2 1.5-4.1 4.7-4.1a7.3 7.3 0 0 1 2.2.4 13 13 0 0 1 5.2 3.5zm-6.1 13a39.6 39.6 0 0 1 4.7 2.2 30.3 30.3 0 0 1-5.3-.5 1.7 1.7 0 0 0 .6-1.7z" fill="#F9BF8C"/><path d="M207 84.53c-.2-1.3 1.6-4.1 3.3-6.9a27 27 0 0 1 2 9.7l-5.3-2.8zm-7.6-11.7c.3 0 .6 1.2 1 2.7-1.2 2.7-5.5 6.5-6.7 8.9a3.4 3.4 0 0 0-.6 2c.2.7 2 2 4.1 3.2a13.7 13.7 0 0 1-5.2-2l-.4-.3a1.7 1.7 0 0 1-.5-.5 1.5 1.5 0 0 1 0-1.2c.5-1.2 2.8-7.5 5.2-10.9 1-1.3 2.1-2.2 3-1.9h.1z" fill="#F9BF8C"/><path d="M199.4 86.63a5 5 0 0 0 2 .8l.9.3a1.7 1.7 0 0 1-.7 1.7v.1a2.7 2.7 0 0 1-1.2.3c-1.8-1-3.4-2.1-4.1-2.6-.4-.3-.8-.6-.9-1a1.7 1.7 0 0 1 .4-1c1.2-2 4-5.9 4.7-8.7l.7 4-1 1.5c-1 1.5-2.2 3.5-.8 4.6z" fill="#F9BF8C"/><path d="M201.2 86.03c-.5-.7-.6-.8-.4-1.7a9.9 9.9 0 0 1 .8-1.6l.5 4a3 3 0 0 1-.9-.7z" fill="#F9BF8C"/><path d="M211.8 91.63h-1.2a30 30 0 0 1-3.6-1.7 39.6 39.6 0 0 0-4.7-2.2l-.8-.3a5 5 0 0 1-2-.8c-1.5-1.1-.3-3 .8-4.6l1-1.4c1.6-2.5 4-6.5 3.1-8 2.2 2-1.2 7-2.8 10.1a9.9 9.9 0 0 0-.7 1.6c-.3.9-.2 1 .4 1.7a3 3 0 0 0 .9.7 13.4 13.4 0 0 0 3 1.3 14.4 14.4 0 0 1 3.6 1.9 26.6 26.6 0 0 0 3 1.7z" fill="#DB7A53"/><path d="M195.8 85.33a1.7 1.7 0 0 0-.4 1c0 .4.5.7.9.9l4 2.6c.8.5 1.6 1 2.4 1.3a4.2 4.2 0 0 0-1.3.6 43 43 0 0 1-4.2-2c-2.1-1.3-4-2.6-4-3.3a3.4 3.4 0 0 1 .5-2c1.2-2.3 5.5-6.1 6.6-8.8a3.5 3.5 0 0 0 .3-1 3.8 3.8 0 0 1 0 2c-.8 2.8-3.6 6.6-4.8 8.7zm11.2-.8l5.3 2.8 6.7 3.7-6.7-2.6a38.8 38.8 0 0 1-6.4-3c-1-1-.4-2.4.3-3.5l3.5-5.4c1.3-2.2 2.4-4 2.4-5.3 1.5 1 0 3.7-1.8 6.5s-3.6 5.6-3.2 7l-.1-.2z" fill="#DB7A53"/><path d="M201.4 91.73a4.2 4.2 0 0 1 1.3-.6c2.2-.5 5.3.1 7.9.4l1.2.1h.4a10.6 10.6 0 0 1 2 .3c2.4.6 4.8 2 5.4 3.6.5 1-.5 1.8-1.8 2.2a11.1 11.1 0 0 1-2 .4c-4.2.6-5.5 2-11.5 2.8-2.6.4-4.4-4-4.4-5.9a4.2 4.2 0 0 1 .7-2.6 3.1 3.1 0 0 1 .8-.7z" fill="#F9BF8C"/><path d="M253.4 121.03a10.5 10.5 0 0 1-2.4-.2 5.3 5.3 0 0 1-.7-.2c-2.4-.9-8.6-17.6-9.3-21-.3-1.2-.3-3.5.3-3.4.3.3.8 2.5 2.7 2.5h.1a18.4 18.4 0 0 0 10.9-1.5c4.6-2.1 6.6-3.8 7.6-5 .6-.8-.7-2.2-.9-2.5.4-.4 1.3.1 1.7.3 5.9 2.8 10.2 12.7 13.1 19.4a2.9 2.9 0 0 1-.1 1.9c-2.1 5-15.6 9.8-23 9.8v-.1z" fill="#A52A6A"/><path d="M171.6 190.43c7 6.2 7.3 12.3 8.3 17.4l-4.4-3a17 17 0 0 0-3.9-14.4z" fill="#DB7A53"/><path d="M41.3 265.93l-.5.2c6.5 8.6 14.1 17.5 21 30.5a28.8 28.8 0 0 1 2.8 7.7c45.714 25.792 102.423 21.736 144-10.3-.8-3.5-1.7-7.1-2.8-11 12.67-7.311 18.506-22.484 14-36.4a43 43 0 0 0-18.4-25.1c-6.4-4.6-13.8-8.5-21.5-13.7l-4.4-3c-10.8-8-22-19-31.7-37.9l-.1-.2a71 71 0 0 0-19.9-2.3c12 5.8 41 37 4.2 43-29 3.1-47.3-27.9-84-28.7a47.8 47.8 0 0 0-13.5 9.4l-1 1a37 37 0 0 1 4.7-2c16.4 1 27 15.3 32.9 30.3 10.3 26.2 6.2 44.7-2.6 50.6-5.3 3.6-13.3 2.7-20-3.7l-1.5.7-1 .6-.7.3z" fill="#009288"/><path d="M29.5 189.23a37 37 0 0 1 4.5-2.2c16.4 1 27 15.3 33 30.3 10.3 26.2 6.2 44.7-2.6 50.6-5.3 3.6-13.4 2.7-20-3.7l-1.5.7c6.9-5.7 4.9-6.8 18-4.4-10.8-6.4-16.1-9.1-38.7 6.1a122.2 122.2 0 0 1-21.4-53.5 133 133 0 0 1 28.7-24.1v.2z" fill="#F9BF8C"/><path d="M61 260.63c-13.2-2.4-11.1-1.3-18 4.4l-1 .6-.6.2-.6.3-.5.3-.6.3-1.1.6-.7.3-1 .6-.7.4-1.2.6-.6.3-1.3.7-.6.3-1.3.7-.5.3-1.4.8-.3.1-1.6 1-.6-.9-4.5-5.8c22.6-15.2 27.9-12.4 38.7-6v-.1z" fill="#DB7A53"/><path d="M128 207.43c-29.2 3.1-47.5-28.2-84.5-28.7 14.2-5.2 23-11.3 23-27.1 0-8.8-2.7-25.8-3.6-38.2 0 0 57 21.4 57.8 36.1l2 14.3c11.2 4.3 43.3 37.4 5.3 43.6z" fill="#F9BF8C"/><path d="M87.3 151.73a56.8 56.8 0 0 1-17.1-22.8 62.4 62.4 0 0 0 43 22c2.5-.1 5-.2 7.3-.5v.5l.2 1.2c-4.7 11.9-7.3 19.5-33.4-.4z" fill="#DB7A53"/><path d="M162 280.43c.5 7.4-16.2 16.2-30.8 17.3-19.8 1.4-54.8-9.2-48-40.7 18.2 35 68.8 31.3 78.8 23.4z" fill="#216D64"/><path d="M122.5 72.33a9.8 9.8 0 0 0-2.1-.8h2.6l-.5.8zm-9.9.8a4.8 4.8 0 0 0-.6-1.7c7.3 0 4-.6.6 1.7zm12.6 14l.8.8c-.9-1.5-1.5-4.6-2.9-12.6l-.4-.3a16 16 0 0 0 2.5 12.1z" fill="#F9BF8C"/><path d="M154.7 95.83a44.5 44.5 0 0 0-1.6-8.2c-2-6-4.8-6.6-7.3-9.6a50.6 50.6 0 0 0-1-23.9c0 .1-8.7-35.8-54.2-22a44.6 44.6 0 0 0-10 5.9c-10.6 8.2-7.6 13.4-10 25.4a74.9 74.9 0 0 1-4.4 11.9c-4.8 3.8-7.6 6.5-8.1 9.9 1 4.7 5.4 18.3 5 28.1 6 27.2 36.6 38.3 50 37.6 2.6-.1 5-.2 7.4-.5 6.5-.7 11.9-2.8 17-11.3 6.4-10.8 5.6-16.5 9.4-22.5 2.5-4.1 9-9.7 7.8-20.8zm-42.2-19.5c-1 7.6-2.5 10.5-5.3 11.4a18.3 18.3 0 0 0 1.3-3.3c-4.6 2.5-17 2.8-21.2-3-.9.4-2 .4-4-.6l.2-.1c4.2-.1 2.6-1 4.1-3.8a10.6 10.6 0 0 1 .6-1h17.1a11 11 0 0 1 3.8 6.7 58.3 58.3 0 0 0 1.2-6.8l3-.2-.8.7z" fill="#F9BF8C"/><path d="M112.6 124.23c-4-2-5.6-6.3-11.6-10.8 10 5.2 19.3 6.3 26.5 3.8-1.7 1.7 1.2 6.3-3.5 8.4-4 1.7-7.3.5-11.4-1.4z" fill="#D86060"/><path d="M101 113.43l-1.6-.8c7.9-.3 12.9-.7 17.2-.3 2.2.3 2.2 2 3.8 2 1.6 0 2.7-1.6 4.4-1.4 1.2.2 3 1.1 5.6 3a20.3 20.3 0 0 1-2.9 1.2c-7.2 2.6-16.6 1.5-26.5-3.7z" fill="#BC3939"/><path d="M108.5 84.43l.2-.5a15.2 15.2 0 0 0-2.3-3.8c-5-5.8-13.6-5.1-16.5-1.6-.9 1.3-1.5 2.4-2.6 3 4.1 5.7 16.6 5.4 21.2 3v-.1zM97 85.63a4.8 4.8 0 1 1 .408-9.592A4.8 4.8 0 0 1 97 85.629z" fill="#FFF"/><path d="M89.9 78.53c-.9 1.3-1.5 2.4-2.6 3-1.1.6-2 .2-4-.7l.2-.2c4.2 0 2.6-1 4.1-3.7 2.8-5.2 9-4.8 14.6-3 .1 0 5.9 2.4 6.8 8.7l-.3 1.2a14.4 14.4 0 0 0-2.3-3.7c-5-5.8-13.6-5.1-16.5-1.6z" fill="#000"/><path d="M127.5 83.03h-.1a27 27 0 0 0 11.6.6c2.7-1 4.8-4 5-6.8-1.8-1.2-2.8-4.6-8.2-2.9-5 1.6-7 4.2-8.3 9v.1zm2.8-3.7a4.4 4.4 0 1 1 8.798-.2 4.4 4.4 0 0 1-8.798.2z" fill="#FFF"/><path d="M145.1 75.33c0 .5.5.7 1 .9a8 8 0 0 0 1.2.1l.1.2a5 5 0 0 1-1.4.6 2.4 2.4 0 0 1-2-.4c-1.8-1.2-2.8-4.6-8.2-2.8-4.9 1.6-7 4.2-8.3 9h-.2c-1.2-6.7 4-11.3 9-12.5l3.1-.2c2.8.2 5.2 1.8 5.7 5.1z" fill="#000"/><path d="M106.7 61.53c-4 0-8.2-.4-11.7-.3-3.6.1-8.3 1.7-12.8 4.6 1.9-4 8.5-7.2 12.5-7.7 2.9-.3 6.8-.7 9.7-.2 3.7.7 5.6 3.1 2.3 3.6zm24.7 5.6c2.3-2.6 6.8-6.2 9.4-5.8 3 .4 3.5 1.2 5.4 3.6.056.898.056 1.8 0 2.7H145a7.6 7.6 0 0 0-4.7-2.2c-1.9-.1-7 1.2-8.8 1.7h-.1z" fill="#B2512B"/><circle fill="#000" transform="rotate(-78.1 97.1 80.83)" cx="97.1" cy="80.829" r="4.8"/><circle fill="#000" cx="134.7" cy="79.329" r="4.4"/><path d="M106.3 109.73a40 40 0 0 1-10.3-1.3c-1.9 2-.1 6.6-.7 9.2-1-3.4-4-8-2.2-12.4a28.7 28.7 0 0 0 13.2-1c9-2.8 6.6-6.2 12.6-6.5-5.2 1-4.4 11.4-12.6 12z" fill="#DB7A53"/><path d="M54 29.03c3-3.6 13.5-5.8 20-6-.5 1.3 4.5 2.7 4 4a37.3 37.3 0 0 0 8.4-.2 3.5 3.5 0 0 0 .4 2.7l3.8 2.6a44.6 44.6 0 0 0-10.1 5.9c-10.5 8.2-7.5 13.4-9.9 25.4a74.9 74.9 0 0 1-4.4 11.9l-12.4 7a10.3 10.3 0 0 0-5.3-.7l-.3-.4c-2.2-4-6.8-14.2-7.2-18.8-1.4-11.4 1.2-25 10-32.4a18.5 18.5 0 0 1 3-2 9.8 9.8 0 0 0 .1 1H54zm2.7 55l1.4.7 3.5-1.6a5.5 5.5 0 0 1-2.4 1.9 10.4 10.4 0 0 1-1.2.2l-1.2-1.2h-.1z" fill="#838BC5"/><path d="M127 22.23c-7.5-4.7-7-2-15.6-4l5.2-.4c-13.3-1-28.6 3.4-30.1 9a37.3 37.3 0 0 1-8.4.2c.5-1.3-4.6-2.6-4-4-6.6.2-17 2.4-20.1 6a9.8 9.8 0 0 1 0-1c0-8.2 10.8-17.8 30.3-15.8 13.4-14.3 42.4-21 61 8.1-13-7.3-16.2-.2-19.3.8 7.8-1.6 27.3 3 28.9 24.3-1.7-7.8-8.4-8.6-13.6-8-1.7-2.3-3.5-4.3-4.9-5.9-4.5-5.2-3.5-5.7-9.4-9.3z" fill="#0071BC"/><path d="M137.4 46.73c3.4 14.5-3.1 19.3-22.4 18.8 12.5-8.9 11.5-19.3 2-26.1-8.2-6-14 .2-26.4-7.3a46 46 0 0 1-3.8-2.6 3.5 3.5 0 0 1-.3-2.7c1.5-5.6 16.8-10 30-9l-5 .3c8.6 2.2 8-.6 15.5 4 5.9 3.7 4.9 4.2 9.4 9.5 1.4 1.6 3.2 3.5 4.8 5.8 3 4.2 5.5 9.6 3.5 16.7a26 26 0 0 1-2.6 6.2 14.6 14.6 0 0 0-4.7-13.6z" fill="#0071BC"/><path d="M126.1 69.33h-.7a14.6 14.6 0 0 1 3.2-1.7 14.8 14.8 0 0 0-2.5 1.7zm-.9 17.8l.8.8c1.2 1.8 2.7 1.5 6.3 4.8l.6.2c1.8 1.7 2.8 3.7 2 6.4-.2 3.2-5.3 8.2-12 5.8 5.3-1 6.9-.8 7.6-5.6-.2-6.7-8.3-4-10-16.5a17.3 17.3 0 0 1 .9-8.8 9 9 0 0 1 1.3.8 16 16 0 0 0 2.5 12.1zm-2.1-14.5a6.3 6.3 0 0 0-.6-.3l.5-.9c1 0 .4.2.1 1.2z" fill="#DB7A53"/><path d="M56.7 84.03a12.7 12.7 0 0 0-3-1.7l12.4-7 9.2-5.2c-1.3 1.7-1.6 4.2-1.1 7l-12.6 6-3.5 1.7-1.4-.8z" fill="#93278F"/><path d="M151 92.03c5.5-1.8 14.3-20.4 5.8-23.5-5.4-2-24.6-.6-29.9.8-29.7-.4-42.2-3.3-49.3-.7a5 5 0 0 0-2.3 1.6c-4.3 5.5 3.1 20.2 8 21.8a46.3 46.3 0 0 0 12.5 1.6c11.6 0 14.8-2.2 16.6-17.3 1-.6 4.4-4.3 9-2a10.6 10.6 0 0 1 1.8 1c2.9 17.6 2.5 11.3 9.1 17.5l.6.1c5.8 1.4 13.9.5 18.1-.9zm-40.5-17.9c-.4 3.6-1.7 13.4-4.8 15.4-4.2 2.8-17 2-21.7.4-4-1.4-11.5-17.2-5.7-19.3 5.6-2 23.8 0 29.6.6 0 .2 2.8.3 2.6 3v-.1zm2.1-1a4.8 4.8 0 0 0-.6-1.8c7.3.2 4-.5.6 1.8zm10.5-.5a10 10 0 0 0-2.7-1.2c4.2.1 3.1-.3 2.7 1.2zm27.2 17.4c-4.7 1.6-16.3 2.5-20.6-.4-1-.7-2.8-5.1-4.5-15.3-.4-2.8 2.6-2.5 2.6-2.8.9-.2 4.3-.7 8.5-1 4.2-.3 15.6-1.2 19.7.2 5.8 2.1-1.6 18-5.7 19.3z" fill="#5D237A"/><path d="M45.5 82.33c-4.2 1.7-4.4 10-3 14.8 2.8 9.2 12 17.6 21.7 16.1 5.2-.7 1.5-5.7-1-16.4l-1-5.6c-3.3-7-9.4-11.7-16.7-8.9zm13.2 13c-.4.4-4.4 3.1-1.2 5 2.2 1.5 4 .5 3.6 2.6-.3 1.4 0 3.3-2 3 2-3-1.1-4-3-2.9s-5.7-5.3.9-8.2c-4-4.8-7.5-12.8-10-.5-3-9.7 3.6-17.3 11.7 1z" fill="#F9BF8C"/><path d="M58.7 95.33c-.4.4-4.4 3.1-1.2 5 2.2 1.5 4 .5 3.6 2.6-.3 1.4 0 3.3-2 3 2-3-1.1-4-3-2.9s-5.7-5.3.9-8.2c-4-4.8-7.5-12.8-10-.5-3-9.7 3.6-17.3 11.7 1z" fill="#CE6D42"/></g></svg>