<svg width="512pt" height="512pt" viewBox="0 0 512 512" xmlns="http://www.w3.org/2000/svg" role="img" aria-hidden="true" focusable="false"><g fill="#ff6d00"><path d="M272.4 13.35c3.51-3.01 8.24-3.07 12.58-3.58 7.4-.61 14.8.95 21.6 3.82 7.08 2.28 12.74 7.45 19.78 9.8 8.02 2.95 16.72 2.94 24.8 5.67 8.73 1.49 14.83 9.01 18.12 16.77 3.99 10.99 6.58 22.42 9.55 33.71 2.75 10.78 5.42 21.56 7.94 32.39 3.23 13.64 8.55 27.85 4.76 41.93-2.2 4.98-6.03 9.15-10.43 12.3-9.31 6.92-18.79 13.65-28.8 19.53 3.61-8.13 6.44-16.55 9.01-25.05 3.5-.62 7.51-.43 10.32-2.98 4.41-3.7 7.49-8.68 10.1-13.75-5.43-2.62-10.76-5.46-16.17-8.14-1.2 3.53-2.45 7.05-3.92 10.48-1.62-4.52-1.92-9.36-3.31-13.93-.49-2.17-2.53-3.32-4.28-4.39-3.6-2.12-7.38-3.97-10.71-6.53-3.07-4.17-7.92-6.16-12.91-6.87-9.22-4.83-17.97-10.54-26.62-16.32-6.36-4.15-11.63-9.68-16.91-15.08-7.93-8.09-15.34-16.71-21.9-25.95-6.65 4.44-12.36 10.38-16.22 17.4-4.11 8.89-5.02 18.79-6.41 28.36-1.74 11.91-1.8 23.97-1.85 35.98-2.84-7.06-5.8-14.1-7.8-21.46-2.8-7.95-4.54-16.2-6.02-24.48-2.39-9.79.03-20.02 3.63-29.2 3.59-7.71 9.22-14.37 16.08-19.38 4.53-4.08 10.3-7.1 13.58-12.38 1.56-7.54 5.84-14.5 12.41-18.67z"/><path d="M256.98 84.03c7.12-6.83 20.8-5.87 25.87 2.99.85 1.34.83 5.6-1.57 4.5-4.91-1.99-9.79-4.62-15.21-4.72-3.67.06-7.88.88-10.02 4.2-1.08 2.05-1.98 4.2-3.22 6.17-1.19-4.7 1.36-9.51 4.15-13.14zm41.95 51.24c1.62-.52 2.16.04 1.62 1.69-1.61.51-2.15-.05-1.62-1.69zm14.3 7.2c.64.03 1.92.11 2.56.15-.19 1.34-.89 2.46-1.92 3.34-.21-1.17-.43-2.33-.64-3.49zm-32.57 1.58c1.36-1.64 3.61.9 1.97 2.15-1.39 1.48-3.44-.88-1.97-2.15zm18.7-.15c1.15-1.59 3.25.64 2.03 1.92-1.16 1.6-3.25-.64-2.03-1.92zm30.93 1.64c1.37-1.14 3.37 1.14 1.82 2.21-1.37 1.12-3.39-1.15-1.82-2.21zm-62.22 1.85c1.42-1.13 3.29 1.28 1.66 2.26-1.43 1.13-3.28-1.28-1.66-2.26zm5.07 4.83c.59.03 1.78.1 2.37.13.02.6.07 1.79.1 2.39-.6.03-1.78.09-2.38.11-.02-.65-.07-1.97-.09-2.63zm51.91.06c1.37-1.15 3.39 1.13 1.76 2.18-1.38 1.15-3.39-1.14-1.76-2.18zm11.14-.08c.63-.03 1.9-.09 2.54-.11-.02.6-.05 1.8-.07 2.4-.51-.01-1.53-.04-2.03-.06l-.44-2.23zm-75.69.99c.98-1.65 3.37.24 2.25 1.67-.98 1.64-3.37-.25-2.25-1.67zm68.95 20.73c1.57.9 3.07 1.9 4.5 3.01-1.6-.24-3.18-.5-4.76-.78-4.3 5.33-7.06 12.5-13.74 15.38-6.86 3.02-14.86 3.86-22.15 2.05-6.31-2.8-10.26-8.78-14.9-13.61 3.33 1.8 6.58 4.39 10.57 4.27 9.11-.18 18.14-1.64 27.08-3.28 5.09-.92 9.27-4.15 13.4-7.04zm-113.67 28.9c7.54-10.52 16.61-20.32 27.92-26.82.27.07.81.22 1.08.3 2.77 8.83 6.2 17.64 11.92 25.01 3.69 4.12 8.76 6.63 12.9 10.24-.17 5.49-.02 10.99.08 16.48.16 5.79-2.33 11.16-3.58 16.72-2.15 6.02-5.61 11.51-7.43 17.65-.75 5.48-.18 11.04-.31 16.55-.19 12.49 2.55 24.75 4.17 37.07-4.76-2.28-8.13-6.39-11.65-10.17 1.38 4.7 3.22 9.24 4.91 13.84-3.54.28-7.11-.28-10.17-2.16-10.04-4.8-16.76-13.96-23.9-22.12 2.99 8.51 8.94 15.48 12.62 23.63-6.56-4.62-10.97-11.57-14.98-18.36-6.46-11.94-12.39-24.35-15.41-37.65-1.43-6.28-3.14-12.63-2.68-19.14.87-14.68 5.77-29.19 14.51-41.07z"/></g><path d="M248.78 74.58c3.86-7.02 9.57-12.96 16.22-17.4 6.56 9.24 13.97 17.86 21.9 25.95 5.28 5.4 10.55 10.93 16.91 15.08 8.65 5.78 17.4 11.49 26.62 16.32-3.12.46-6.43.98-8.96 3.01-2.21 1.61-3.13 4.29-4.04 6.75.02 3.26-.28 7.36 2.78 9.45 5.19 3.71 12.82 4.29 18.24.75 3.04-2.02 3.76-5.88 2.96-9.25a96.92 96.92 0 0 0 3.12 2.95c-.35-2.27-.74-4.54-1.19-6.79 3.33 2.56 7.11 4.41 10.71 6.53 1.75 1.07 3.79 2.22 4.28 4.39 1.39 4.57 1.69 9.41 3.31 13.93 1.47-3.43 2.72-6.95 3.92-10.48 5.41 2.68 10.74 5.52 16.17 8.14-2.61 5.07-5.69 10.05-10.1 13.75-2.81 2.55-6.82 2.36-10.32 2.98-2.57 8.5-5.4 16.92-9.01 25.05-2.68 7.81-7.97 14.31-14 19.81-10.22 9.3-23.09 17.28-37.36 17.04-11.41.45-22.21-4.58-31.34-10.99-4.14-3.61-9.21-6.12-12.9-10.24-5.72-7.37-9.15-16.18-11.92-25.01-.27-.08-.81-.23-1.08-.3.38-4.92-.77-9.74-2.07-14.44-4.5-1.28-9.65-2.62-12.03-7.11-5.91-9.9-10.83-22.75-5.08-33.83 1.33-3.37 5.26-2.87 8.2-3.16 2 7.36 4.96 14.4 7.8 21.46.05-12.01.11-24.07 1.85-35.98 1.39-9.57 2.3-19.47 6.41-28.36m8.2 9.45c-2.79 3.63-5.34 8.44-4.15 13.14 1.24-1.97 2.14-4.12 3.22-6.17 2.14-3.32 6.35-4.14 10.02-4.2 5.42.1 10.3 2.73 15.21 4.72 2.4 1.1 2.42-3.16 1.57-4.5-5.07-8.86-18.75-9.82-25.87-2.99m2.54 32.47c-3.33 2.51-4.35 6.82-4.56 10.76.43-.43 1.3-1.31 1.73-1.75 1.63 7.9 10.96 11.29 18.1 9.24 4.43-1.42 7.71-6.03 7.08-10.74-.24-2.12-.2-4.51-1.83-6.13-5.08-5.73-14.59-5.82-20.52-1.38m33.14 30.62c-.63 5.99-2.41 11.84-2.61 17.87 1.18 3.57 5.29 5.85 9 5.27 4.64-.65 9.15-2.79 12.4-6.21-3.97.24-7.74 1.58-11.6 2.38-1.28.28-3.56.4-3.46-1.5-1.13-11.67.31-23.46-.93-35.12-2.14 5.52-1.78 11.55-2.8 17.31m6.27-11.85c-.53 1.64.01 2.2 1.62 1.69.54-1.65 0-2.21-1.62-1.69m14.3 7.2c.21 1.16.43 2.32.64 3.49 1.03-.88 1.73-2 1.92-3.34-.64-.04-1.92-.12-2.56-.15m-32.57 1.58c-1.47 1.27.58 3.63 1.97 2.15 1.64-1.25-.61-3.79-1.97-2.15m18.7-.15c-1.22 1.28.87 3.52 2.03 1.92 1.22-1.28-.88-3.51-2.03-1.92m30.93 1.64c-1.57 1.06.45 3.33 1.82 2.21 1.55-1.07-.45-3.35-1.82-2.21m-62.22 1.85c-1.62.98.23 3.39 1.66 2.26 1.63-.98-.24-3.39-1.66-2.26m5.07 4.83c.02.66.07 1.98.09 2.63.6-.02 1.78-.08 2.38-.11-.03-.6-.08-1.79-.1-2.39-.59-.03-1.78-.1-2.37-.13m51.91.06c-1.63 1.04.38 3.33 1.76 2.18 1.63-1.05-.39-3.33-1.76-2.18m11.14-.08l.44 2.23c.5.02 1.52.05 2.03.06.02-.6.05-1.8.07-2.4-.64.02-1.91.08-2.54.11m-75.69.99c-1.12 1.42 1.27 3.31 2.25 1.67 1.12-1.43-1.27-3.32-2.25-1.67m68.95 20.73c-4.13 2.89-8.31 6.12-13.4 7.04-8.94 1.64-17.97 3.1-27.08 3.28-3.99.12-7.24-2.47-10.57-4.27 4.64 4.83 8.59 10.81 14.9 13.61 7.29 1.81 15.29.97 22.15-2.05 6.68-2.88 9.44-10.05 13.74-15.38 1.58.28 3.16.54 4.76.78a38.758 38.758 0 0 0-4.5-3.01zM62.6 121.03c.67-3.24 3.67-4.55 6.53-5.4 5.94 1.4 6.46 8.32 6.23 13.33.98 17.34-3.05 34.44-2.97 51.76.41-.09 1.21-.27 1.62-.35.77-5.58 3.2-10.76 3.78-16.37 1.08-8.75 3.13-17.34 4.89-25.96 1.18-4.39 2.52-9.19 6.21-12.18 1.48-1.44 3.71-1.68 5.65-1.34 4.41 2.38 3.84 8.13 4.07 12.39-.87 8.59-2.56 17.07-4.35 25.51-4.3 14.56-5.42 29.85-4.41 44.96 5.08-1.39 7.42-6.43 8.32-11.21 1.22-6.19 4.32-12.87 10.51-15.4 2.8-.94 6.76-2.21 8.85.68-.34 5.33-2.51 10.34-3.62 15.53-2.02 6.87-3.04 13.99-5.01 20.87-2.03 6.01-7.24 10.09-11.63 14.37-4.71 4.12-8.96 8.74-13.71 12.81-4.67 3.98-9.65 7.98-15.74 9.43-12.93 3.54-26.85-3.36-34.48-13.78-4.16-6.54-7.19-13.78-9.62-21.12-3.9-14.68-5.24-29.86-8.46-44.69-2-7.76-2.2-15.88-1.69-23.84-.03-3.73 3.55-7.52 7.42-6.28 4.49 2.42 4.77 8.04 5.84 12.44 2 10.72 4.2 21.4 7.05 31.93.28 1.83 1.73 2.69 3.46 2.72 1.87-6.87.15-13.85-.04-20.79-.79-11.02-2.17-22.02-1.94-33.09.28-3.67.41-8.41 4.21-10.29 2.66-.94 6.44-.96 7.69 2.1 4.18 7.28 3.78 16.03 4.95 24.11.39 9.43.88 18.86 1.68 28.28.35.06 1.05.19 1.4.26 1.9-9.66 1.28-19.6 2.86-29.32.25-10.8 1.78-21.61 4.45-32.07z" fill="#fccda3"/><g fill="#f1f1f1"><path d="M101.3 151.35c30.57-43.49 77.29-75.28 129.03-87.57-3.6 9.18-6.02 19.41-3.63 29.2 1.48 8.28 3.22 16.53 6.02 24.48-2.94.29-6.87-.21-8.2 3.16-5.75 11.08-.83 23.93 5.08 33.83 2.38 4.49 7.53 5.83 12.03 7.11 1.3 4.7 2.45 9.52 2.07 14.44-11.31 6.5-20.38 16.3-27.92 26.82-8.74 11.88-13.64 26.39-14.51 41.07-11.41 5.22-21.33 13.51-28.75 23.59-4.83 6.18-9.59 12.42-14.72 18.35-7.22 8.11-13.32 17.18-21.1 24.81-4.78 4.59-8.9 9.86-14.06 14.07-7.69 6.26-15.38 12.54-22.88 19.04-5.94-12.93-9-26.91-11.93-40.76-1.89-10.93-4.04-21.89-4.16-33.01-.1-8.32-.24-16.64-.11-24.95 4.75-4.07 9-8.69 13.71-12.81 4.39-4.28 9.6-8.36 11.63-14.37 1.97-6.88 2.99-14 5.01-20.87 1.11-5.19 3.28-10.2 3.62-15.53-2.09-2.89-6.05-1.62-8.85-.68-6.19 2.53-9.29 9.21-10.51 15.4-.9 4.78-3.24 9.82-8.32 11.21-1.01-15.11.11-30.4 4.41-44.96 1.81-4 4.62-7.44 7.04-11.07zm277.53-71.81c47.28 22.77 86.04 62.78 106.87 110.98 17.73 40.37 22.67 86.14 14.39 129.42-6.22 32.97-20.26 64.36-40.42 91.16-.6-14.37-1.49-28.73-2.78-43.05-.76-8.45-1.42-16.97-3.54-25.22-4.86-19.19-9.71-38.49-17.36-56.8-2.71-6.6-6.81-12.48-10.69-18.41-4.4-6.67-10.97-11.67-18.14-15.05-7.14-3.39-14.27-6.83-21.57-9.89-8.81-3.79-18.01-6.58-26.8-10.42-6.21-2.73-12.82-4.33-19.33-6.16a283.39 283.39 0 0 1-1.16-20.6c6.03-5.5 11.32-12 14-19.81 10.01-5.88 19.49-12.61 28.8-19.53 4.4-3.15 8.23-7.32 10.43-12.3 3.79-14.08-1.53-28.29-4.76-41.93-2.52-10.83-5.19-21.61-7.94-32.39zm-122.14 45.97c3.14-3.66 7.14-7.08 12.2-7.35 5.13-1.18 10.06 1.8 12.98 5.85.63 4.71-2.65 9.32-7.08 10.74-7.14 2.05-16.47-1.34-18.1-9.24m9.71-5.08c-4.08 2.07-4.21 8.22-.81 10.97 4.06 3.03 11.63 1.47 11.96-4.37.85-5.98-6.39-9.34-11.15-6.6zm51.03 3.86c6.16-6.99 18.3-6.31 23.98.95.8 3.37.08 7.23-2.96 9.25-5.42 3.54-13.05 2.96-18.24-.75-3.06-2.09-2.76-6.19-2.78-9.45m9.11-2.63c-3.59 1.85-5.47 7.14-2.48 10.34 3.62 4.63 12.69 2.23 12.66-3.94 1.03-5.5-5.88-8.07-10.18-6.4z"/><path d="M271.35 122.57c2.76-1.4 5.82 2.93 3.24 4.94-2.95 1.4-5.64-2.86-3.24-4.94zm58.84 1.69c1.48.06 3.65-.64 4.28 1.24 1.06 1.73-.65 4.87-2.76 3.67-1.96-.87-1.37-3.22-1.52-4.91zM134.53 400.6c15.65-9.17 30.13-20.18 45.95-29.07-.6 10.22-.59 20.9 3.68 30.41 2.7 5.37 6.23 10.27 10.16 14.8 2.25 2.54 2.71 6.03 3.07 9.28.48 5.32.94 10.64 1.25 15.97.36 13.86 1.56 27.67 1.24 41.54-35.98-14.4-67.98-38.45-91.92-68.9 9.18-4.04 17.88-9.05 26.57-14.03z"/></g><g fill="#3e2623"><path d="M259.52 116.5c5.93-4.44 15.44-4.35 20.52 1.38 1.63 1.62 1.59 4.01 1.83 6.13-2.92-4.05-7.85-7.03-12.98-5.85-5.06.27-9.06 3.69-12.2 7.35-.43.44-1.3 1.32-1.73 1.75.21-3.94 1.23-8.25 4.56-10.76zm61.95 1.04c2.53-2.03 5.84-2.55 8.96-3.01 4.99.71 9.84 2.7 12.91 6.87.45 2.25.84 4.52 1.19 6.79a96.92 96.92 0 0 1-3.12-2.95c-5.68-7.26-17.82-7.94-23.98-.95.91-2.46 1.83-5.14 4.04-6.75z"/><path d="M266.4 120.43c4.76-2.74 12 .62 11.15 6.6-.33 5.84-7.9 7.4-11.96 4.37-3.4-2.75-3.27-8.9.81-10.97m4.95 2.14c-2.4 2.08.29 6.34 3.24 4.94 2.58-2.01-.48-6.34-3.24-4.94zm55.19-.91c4.3-1.67 11.21.9 10.18 6.4.03 6.17-9.04 8.57-12.66 3.94-2.99-3.2-1.11-8.49 2.48-10.34m3.65 2.6c.15 1.69-.44 4.04 1.52 4.91 2.11 1.2 3.82-1.94 2.76-3.67-.63-1.88-2.8-1.18-4.28-1.24z"/></g><path d="M292.66 147.12c1.02-5.76.66-11.79 2.8-17.31 1.24 11.66-.2 23.45.93 35.12-.1 1.9 2.18 1.78 3.46 1.5 3.86-.8 7.63-2.14 11.6-2.38-3.25 3.42-7.76 5.56-12.4 6.21-3.71.58-7.82-1.7-9-5.27.2-6.03 1.98-11.88 2.61-17.87zm8.28 75.42c14.27.24 27.14-7.74 37.36-17.04.13 6.88.53 13.75 1.16 20.6.51 5.5 3.16 10.47 4.18 15.85 2.96 13.28-1.53 27.93-11.25 37.4-8.51 8.37-20.7 11.76-32.42 11.22-7.75-.17-14.89-3.96-20.7-8.86-11.03-8.44-15.57-23.57-13.17-36.96 1.25-5.56 3.74-10.93 3.58-16.72-.1-5.49-.25-10.99-.08-16.48 9.13 6.41 19.93 11.44 31.34 10.99z" fill="#e0ba89"/><path fill="#a4286a" d="M339.46 226.1c6.51 1.83 13.12 3.43 19.33 6.16 8.79 3.84 17.99 6.63 26.8 10.42 7.3 3.06 14.43 6.5 21.57 9.89 7.17 3.38 13.74 8.38 18.14 15.05 3.88 5.93 7.98 11.81 10.69 18.41 7.65 18.31 12.5 37.61 17.36 56.8 2.12 8.25 2.78 16.77 3.54 25.22 1.29 14.32 2.18 28.68 2.78 43.05-22.34 29.56-52.11 53.48-85.91 68.69-54.28 24.73-118.58 26.04-173.88 3.74.32-13.87-.88-27.68-1.24-41.54-.31-5.33-.77-10.65-1.25-15.97-.36-3.25-.82-6.74-3.07-9.28-3.93-4.53-7.46-9.43-10.16-14.8-4.27-9.51-4.28-20.19-3.68-30.41-15.82 8.89-30.3 19.9-45.95 29.07-8.69 4.98-17.39 9.99-26.57 14.03-7.93 3.25-16.32 6.29-25.02 5.79-5.67-.28-11.61-.75-16.56-3.79-9.55-5.48-15.81-15.16-19.83-25.16-5.86-12.9-7.38-27.13-9.94-40.91-1.79-11.16-2.56-22.44-3.63-33.68-.76-6.27-.58-12.6-.64-18.9-.01-10.99.01-21.99.47-32.97.33-3.69.56-7.39.22-11.08-.44-4.43.55-8.83.31-13.25 7.63 10.42 21.55 17.32 34.48 13.78 6.09-1.45 11.07-5.45 15.74-9.43-.13 8.31.01 16.63.11 24.95.12 11.12 2.27 22.08 4.16 33.01 2.93 13.85 5.99 27.83 11.93 40.76 7.5-6.5 15.19-12.78 22.88-19.04 5.16-4.21 9.28-9.48 14.06-14.07 7.78-7.63 13.88-16.7 21.1-24.81 5.13-5.93 9.89-12.17 14.72-18.35 7.42-10.08 17.34-18.37 28.75-23.59-.46 6.51 1.25 12.86 2.68 19.14 3.02 13.3 8.95 25.71 15.41 37.65 4.01 6.79 8.42 13.74 14.98 18.36-3.68-8.15-9.63-15.12-12.62-23.63 7.14 8.16 13.86 17.32 23.9 22.12 3.06 1.88 6.63 2.44 10.17 2.16-1.69-4.6-3.53-9.14-4.91-13.84 3.52 3.78 6.89 7.89 11.65 10.17-1.62-12.32-4.36-24.58-4.17-37.07.13-5.51-.44-11.07.31-16.55 1.82-6.14 5.28-11.63 7.43-17.65-2.4 13.39 2.14 28.52 13.17 36.96 5.81 4.9 12.95 8.69 20.7 8.86 11.72.54 23.91-2.85 32.42-11.22 9.72-9.47 14.21-24.12 11.25-37.4-1.02-5.38-3.67-10.35-4.18-15.85z"/></svg>