<svg role="img" aria-hidden="true" xmlns="http://www.w3.org/2000/svg" viewBox="0 0 500 500" focusable="false"><path fill="#7577aa" d="M80 0h340a80 80 0 0 1 80 80v420H80a80 80 0 0 1-80-80V80A80 80 0 0 1 80 0z"/><path fill="#fff" d="M420 0H80A80 80 0 0 0 0 80v340a80 80 0 0 0 80 80h75.89L437.61 2" opacity=".13"/><path fill="#fff" d="M46.1 337.3v34.9c21.6-.9 38.5-8 52.8-22.5s27.4-38 39.9-72.9l92.6-248h-44.8L112 236 75 119.8H34l54.4 139.8a57.54 57.54 0 0 1 0 41.8c-5.5 14.2-15.4 30.9-42.3 35.9z" opacity=".3"/><path fill="#7e9358" d="M402.85 441.72c-.25-1.62 3.32-11.13 7.95-21.21-7.39 8.88-24.68 23.12-24.68 23.12s19.36 18.09 19.78 23c.36 4.16-14.47 26.42-19.15 33.34h24.34c-1.29-9.14-7.75-55.03-8.24-58.25z"/><path fill="#7e9358" d="M412.55 356.4l-5.15 7.75a8.1 8.1 0 0 1 4.93 9.34l-2.8 12.3c2.35 13.22 4.12 24.22 4.49 28 4.84-9.74 10.11-18.5 13.22-19.47 7-2.18 10.43-3.84 4.12 4.67s-23.3 41.4-22.75 40.58 11.24-5.76 17-12.64 6.57 1.94 1.09 7.45a107.63 107.63 0 0 1-17.55 12.41l7 53.24H470c-1-7.55-16.38-124-39.46-147.77-8.27-8.53-20.9-18.64-33.86-28.22 1.8 5.82 4.34 17.35 6.94 30.31zm-196.34 75.02c4.19-4.82 2.31-12.94 2.89-19.19-3.6-4.52-6.3-8.58-6.56-10.86-.78-6.87 6.64-70.9 9.39-83.26-11.33 6.7-22.13 13.15-28.3 16.94-2 1.21-3.95 4.35-5.93 8.95-8 15.78-62 123.27-57.41 141.18a62.24 62.24 0 0 0 6 14.82H177c-6.33-11.22-12.3-27.35-14.08-36.86-.62-3.33-.75-5.87-.18-7.07a8.42 8.42 0 0 1 1.52-2.1 44.56 44.56 0 0 1 9-6.76 109.8 109.8 0 0 1 10.16-5.43c-2.64-1.88-5.57-3.88-8.52-5.77-2.44-1.55-4.89-3-7.19-4.23-4.26-2.26-8-3.7-10.3-3.36-8.23 1.24-5.36-6.6.82-7.82 2-.39 6 1.94 10.45 5.29 2.23 1.66 4.58 3.56 6.89 5.52 3.87 3.28 7.6 6.68 10.34 9.24.93-.4 1.85-.79 2.75-1.15-2.26-7.12-6.42-19.73-10.15-28.12a55.12 55.12 0 0 0-2.58-5.17c-3.92-6.71.72-6.18 4.09-5.17a26.31 26.31 0 0 1 2.88 1.07c5.19 2.77 6.53 17.47 9.07 36.15 4-1.38 7.29-2.08 9-1.65 1.17.29 2.41 2.22 3.63 5.21a96.64 96.64 0 0 0 11.61-10.4zm16.02 62.89a176.07 176.07 0 0 1-19-5.14c.09 3.8-.12 6.77-.72 8.34a17.29 17.29 0 0 1-1.2 2.49h23.93c-.8-1.53-1.84-3.48-3.01-5.69z"/><path fill="#260101" d="M383.74 162.32l-14.12.23c.39 22.57.29 52.34-2.44 64.34-2.88 12.78-9.18 27.54-21.07 38.11l.21 10.06.31 14.82s2.91 1.65 7.28 4.17c77.47-15.66 71.7-72.1 71.7-72.1-4.32 11.3-7.82 12.41-14.89 9.93 0 0-17.38-87.18-23.85-98.3-4.65-8-8.92-29.24-33.51-41.09 33.22 21.89 30.38 69.83 30.38 69.83zM270.9 275.71l-1-16.58c-8.86-10.43-14-22.48-15.41-29.36-1-5.21-2.14-41.11-2.77-65.19l-12.52.22s-1.12-25.37 11-48.07a106.78 106.78 0 0 0-14.2 30.79c-4.13 14.82-11.94 76.48-11.94 76.48-5.24 1.44-9.93-1.24-16-7.81-.47 8.53 1.2 15.66 7.45 19.85-4.52 3.77-13.28-12.06-17.72-17.84 1.37 14.13.46 60.51 65.75 75.25l.86-.35v.54c.7.16 1.41.3 2.12.45l1.76-1.15 3.53-2.3z"/><path fill="#ddbf94" d="M346.89 295.27l-.26-5.44-.31-14.83a135.1 135.1 0 0 1-10 15.23c-1.67 2.2-3.38 4.33-5.14 6.37-.18.21-.38.38-.57.58-11.09 12.08-31.85 12.17-43.13 3.26a25.11 25.11 0 0 1-3.7-3.73q-1.61-1.91-3.23-4.26a144.48 144.48 0 0 1-9.64-16.75l.88 14.94-3.53 2.3-1.76 1.15-2.09 1.36.59 37.61a109 109 0 0 0 11.75 12.13 39 39 0 0 1 44.74 14.09c12.43-3.41 21.28-13.2 27.32-23.21z"/><path fill="#c79367" d="M346.11 265c-8.36 7.42-19.45 12.74-34 13.76-18.4 1.3-32.49-8.18-42.17-19.58l1 16.58a144.48 144.48 0 0 0 9.64 16.75q1.62 2.35 3.23 4.26a25.11 25.11 0 0 0 3.7 3.73c11.28 8.91 32 8.82 43.13-3.26.19-.2.39-.37.57-.58 1.76-2 3.47-4.17 5.14-6.37a135.1 135.1 0 0 0 10-15.23z"/><path fill="#7e9358" d="M349.67 354.67l-.87-18.59c-6 10-14.89 19.8-27.32 23.21a39.92 39.92 0 0 1-14.87 59.2L303.28 434c2.82 3.69 6.12 8.11 6.35 11.23.45 6.16-3.28 13.13-4.52 17.68s-14 3.3-14 3.3a17.37 17.37 0 0 1-2.06 19.85l-11.12.82s-2.64 9.15-10.39 9.9l.05 3.21h88.85zM265 333.07l.29 18.53a39.07 39.07 0 0 1 11.46-6.4A109 109 0 0 1 265 333.07z"/><path fill="#ddbf94" d="M369.62 162.55l-26.19.44c2.19-6.85.43-18.77.43-18.77l-2.49 18.87-7.44.12-3.23-18.56-2.7 18.66-52.32.87-1.68-29.41-4.62 29.51-17.61.3c.63 24.08 1.73 60 2.77 65.19 1.38 6.88 6.55 18.93 15.41 29.36 9.68 11.4 23.77 20.88 42.17 19.58 14.57-1 25.66-6.34 34-13.76 11.85-10.52 18.19-25.28 21.07-38.06 2.72-12 2.81-41.77 2.43-64.34zm-75.8 47.24c.27-1.29 2.26-4.41 4.1-4.29 2.68.07-.77 2.9-1.1 4.07a2.79 2.79 0 0 0 1.89 3.13 7.75 7.75 0 0 0 4 0 8.29 8.29 0 0 1 4 .12c2.26.92 3.92 3.58 6.18 3.4s3.5-2.88 5.64-3.62a15.53 15.53 0 0 1 3.54-.28 2.94 2.94 0 0 0 2.81-1.81 6.26 6.26 0 0 0-.15-2.11c-.07-.69.12-1.56.77-1.81a1.7 1.7 0 0 1 1.51.4 4.55 4.55 0 0 1 .93 1.12 4.74 4.74 0 0 1-1.65 6.5c-2.08 1-4.41.25-6.8 1.24s-3.77 3.75-6.25 4.47a8 8 0 0 1-6.63-2 12.67 12.67 0 0 0-6.33-3.15 16.48 16.48 0 0 1-4 0 4.38 4.38 0 0 1-2.46-5.38zm-31.47-27l.08-.08-.2.08c-.52-1.12 3.25-7.15 7.82-7.92 7-1.17 18.39 9.38 23.35 14.34-.74-.39-1.46-.82-2.18-1.26.31.29.61.57.91.87-9.08 3.97-18.39 6.41-29.78-6zm7.09 68.21c.09.38.12.64 0 .61zm39.62-5.24a105.19 105.19 0 0 1-13.4-1.34 23 23 0 0 1-5.14-12.84 50.13 50.13 0 0 1-5.43-1.22c6.77-1 17-4.59 24.66-4.32s18.82 3.78 24.2 4.87c-1.86.3-3.47.15-5.33.45a18.93 18.93 0 0 1-6 14.13c-5.54.06-10.62.3-13.56.3zm47.18-62.63c-5.66 11.35-16.23 13.11-31.17 6.43 5-5 16.38-15.51 23.35-14.34 4.58.78 8.37 6.83 7.82 7.94z"/><path fill="#3f622e" d="M410.8 420.51c1-2.25 2.11-4.52 3.22-6.75-.37-3.75-2.14-14.75-4.49-28l-4 17.66-21.53-5a30.75 30.75 0 0 1-3.9 3.4 13.05 13.05 0 0 1-10.38 1.44l-.64-.17 1.78-7.7h.1l-1.71-.39a8.12 8.12 0 0 1-6.06-9.73l5.12-22.11a8.11 8.11 0 0 1 9.63-6l20.1 4.66 5-7.66.58.13c-2.6-13-5.14-24.49-6.94-30.31a14.4 14.4 0 0 0-1.51-3.75c-3-3.9-28.45-18.87-41.24-26.26-4.37-2.52-7.28-4.17-7.28-4.17l.26 5.44 1.91 40.81.87 18.59L356.47 500h30.28c4.68-6.92 19.51-29.18 19.15-33.34-.42-4.94-19.78-23-19.78-23s17.29-14.27 24.68-23.15zm-143.23 76.28a10.4 10.4 0 0 1-2 0c-3-.26-7-.52-11.1-.76-8.84-.5-18.08-.88-18.08-.88s-1.63-.32-4.14-.87c1.17 2.21 2.21 4.16 3 5.69h32.35zm-3.17-201.33l2.09-1.36c-.71-.15-1.42-.29-2.12-.45v-.54l-.86.35c-15.55 6.29-39 18.71-41 22.75a10.22 10.22 0 0 0-.54 1.9c-2.75 12.36-10.17 76.39-9.39 83.26.26 2.28 3 6.34 6.56 10.86a12.13 12.13 0 0 1 1.21-4.66c3.3-6.15 21.39-15.64 21.39-15.64l10 .78c-.24-.91-.44-1.84-.61-2.78v-.16c-.08-.43-.15-.87-.22-1.31a39.31 39.31 0 0 1-.45-4.52.67.67 0 0 1 .06.12v-1.41a39.79 39.79 0 0 1 13.87-30.25c.32-.27.64-.54 1-.8l-.39-18.53z"/><path fill="#341644" d="M353.36 92.44c-10.08-6.66-23.47-10.92-41.27-10.73-34 .36-52.2 16.84-61.89 35-12.1 22.7-11 48.07-11 48.07l12.52-.22 17.61-.3 4.67-29.49 1.71 29.41 52.32-.87 2.7-18.66 3.23 18.56 7.44-.12 2.49-18.87s1.76 11.92-.43 18.77l26.19-.44 14.12-.23s2.81-47.94-30.41-69.88zm9 26.25a73.8 73.8 0 0 1-1.75 10.46c-2.63 9.66-6.16 1.2-11-6.1a35.18 35.18 0 0 0-3.49-4.59c-.43.73-.83 1.49-1.22 2.27-5.55 11.26-6.68 25.78-21.12-3.36l-.15.12c-1.83 3.63-7.57 39.17-23.7 1.94-2.55 34.22-8.24 21-20.65.32-8.43 13.89-13.64 22.26-17.39 9.73a61.88 61.88 0 0 1-1.54-6.82c-3.23 3.37-10.15 15.21-9.31 10.52 3.18-17 12.71-29.11 17.37-12.73 4.66-12.79 12.84-14.15 18.38-7.07a23.38 23.38 0 0 1 3.46 6.57 57.17 57.17 0 0 1 1-7.84c1.94-9.15 6.1-8.39 12.05-1.61A123.57 123.57 0 0 1 313 124c-1.79-3.13-.09-8.66 3.16-12.57 4.62-5.59 12.4-7.89 17.74 4.72.27.65.53 1.32.79 2 .35-.49.67-.92 1-1.37 8.88-12 14.11-11.12 20.91-.59 4.19-13.38 11.64-.13 19.83 14.15 5.4 9.22-6.99-3.61-14.09-11.65z"/><path fill="#ae5d9e" d="M376.47 130.33c-8.19-14.28-15.64-27.53-19.83-14.15-6.8-10.53-12-11.42-20.91.59-.34.45-.66.88-1 1.37-.26-.72-.52-1.39-.79-2-5.34-12.61-13.12-10.31-17.74-4.72-3.25 3.91-4.95 9.44-3.16 12.57a123.57 123.57 0 0 0-9.73-13.45c-5.95-6.78-10.11-7.54-12.05 1.61a57.17 57.17 0 0 0-1 7.84 23.38 23.38 0 0 0-3.46-6.57c-5.54-7.08-13.72-5.72-18.38 7.07-4.66-16.38-14.19-4.3-17.37 12.73-.84 4.69 6.08-7.15 9.31-10.52a61.88 61.88 0 0 0 1.54 6.82c3.75 12.53 9 4.16 17.39-9.73 12.41 20.73 18.1 33.9 20.65-.32 16.13 37.23 21.87 1.69 23.7-1.94l.15-.12c14.44 29.14 15.57 14.62 21.12 3.36.39-.78.79-1.54 1.22-2.27a35.18 35.18 0 0 1 3.49 4.59c4.8 7.3 8.33 15.76 11 6.1a73.8 73.8 0 0 0 1.75-10.46c7.07 8 19.46 20.83 14.1 11.6z"/><path fill="#3f622e" d="M213.26 489.17c-4.16-1.47-7.62-3.08-9-4.69-4.52-5.33-7-37-7-37s3.35-2.45 7.38-5.66c-1.22-3-2.46-4.92-3.63-5.21-1.74-.43-5.05.27-9 1.65-2.54-18.68-3.88-33.38-9.07-36.15a26.31 26.31 0 0 0-2.88-1.07c-3.37-1-8-1.54-4.09 5.17a55.12 55.12 0 0 1 2.58 5.17c3.73 8.39 7.89 21 10.15 28.12-.9.36-1.82.75-2.75 1.15-2.74-2.56-6.47-6-10.34-9.24-2.31-2-4.66-3.86-6.89-5.52-4.5-3.35-8.48-5.68-10.45-5.29-6.18 1.22-9 9.06-.82 7.82 2.27-.34 6 1.1 10.3 3.36 2.3 1.22 4.75 2.68 7.19 4.23 2.95 1.89 5.88 3.89 8.52 5.77a109.8 109.8 0 0 0-10.16 5.43 44.56 44.56 0 0 0-9 6.76 8.42 8.42 0 0 0-1.52 2.1c-.57 1.2-.44 3.74.18 7.07 1.78 9.51 7.75 25.64 14.08 36.86h34.3a17.29 17.29 0 0 0 1.2-2.49c.6-1.57.81-4.51.72-8.34zm213.98-94.88c-3.11 1-8.38 9.73-13.22 19.47-1.11 2.23-2.19 4.5-3.22 6.75-4.63 10.08-8.2 19.59-7.95 21.21.49 3.22 6.95 49.11 8.24 58.28h5.08l-7-53.24a107.63 107.63 0 0 0 17.55-12.41c5.48-5.51 4.66-14.32-1.09-7.45s-16.46 11.82-17 12.64 16.45-32.07 22.75-40.58 2.89-6.85-4.14-4.67z"/><path fill="#c79367" d="M296.3 215.18a16.48 16.48 0 0 0 4 0 12.67 12.67 0 0 1 6.33 3.15 8 8 0 0 0 6.63 2c2.48-.72 3.87-3.48 6.25-4.47s4.72-.2 6.8-1.24a4.74 4.74 0 0 0 1.65-6.5A4.55 4.55 0 0 0 327 207a1.7 1.7 0 0 0-1.51-.4c-.65.25-.84 1.12-.77 1.81a6.26 6.26 0 0 1 .15 2.11 2.94 2.94 0 0 1-2.81 1.81 15.53 15.53 0 0 0-3.54.28c-2.14.74-3.38 3.45-5.64 3.62s-3.92-2.48-6.18-3.4a8.29 8.29 0 0 0-4-.12 7.75 7.75 0 0 1-4 0 2.79 2.79 0 0 1-1.89-3.13c.33-1.17 3.78-4 1.1-4.07-1.84-.12-3.83 3-4.1 4.29a4.38 4.38 0 0 0 2.49 5.38z"/><path fill="#bf764c" d="M309.75 226.07c-7.64-.27-17.89 3.35-24.66 4.32a50.13 50.13 0 0 0 5.43 1.22c.75 6.77 3.43 12.95 9.58 16.53a18.88 18.88 0 0 0 3.93 1.67 19.11 19.11 0 0 0 5.87.87 19.32 19.32 0 0 0 4.2-.54 19 19 0 0 0 14.52-18.75c1.86-.3 3.47-.15 5.33-.45-5.38-1.09-16.55-4.59-24.2-4.87zm-.42 15.54a16 16 0 0 1-15.76-10.25 90.81 90.81 0 0 1 32.09.32 19 19 0 0 1-16.33 9.93z"/><path fill="#fff" d="M325.66 231.68a90.81 90.81 0 0 0-32.09-.32 16 16 0 0 0 15.76 10.25 19 19 0 0 0 16.33-9.93zM291.22 188c-2.46-1.52-4.8-3.24-7.24-4.8a6.7 6.7 0 0 1 .19 1.5 6.58 6.58 0 0 1-13.16 0 6.65 6.65 0 0 1 .08-.78 2.12 2.12 0 0 0 1.81 1 2.16 2.16 0 1 0 0-4.32 2 2 0 0 0-.55.11 6.71 6.71 0 0 1 1.82-1.66c-6.59-.92-9.92 3-11.74 3.66l-.08.08c11.39 12.41 20.7 10 29.78 6-.3-.24-.6-.52-.91-.79zm50.11-7.88a6.57 6.57 0 1 1-7.35 8.32 1.78 1.78 0 0 0 .52.11 2.16 2.16 0 1 0 0-4.32 1.69 1.69 0 0 0-.39.08 5.87 5.87 0 0 1 .35-.76c-3.14 2-6.08 4.32-9.39 6 14.94 6.68 25.51 4.92 31.17-6.43-2.01-.47-6.07-5.86-14.91-3z"/><path fill="#ddbf94" d="M303.28 434l-.65 3-11.51 29.22-22.73-10.08c.66-3.71 2.07-7.71 5.33-10.66l-41-5.17 1.47-11.31 2.26-17.48 15.79-17.11c-.18-.58-.34-1.16-.49-1.75l-10-.78s-18.09 9.49-21.39 15.64a12.13 12.13 0 0 0-1.21 4.66c-.58 6.25 1.3 14.37-2.89 19.19a96.64 96.64 0 0 1-11.55 10.4c-4 3.21-7.38 5.66-7.38 5.66s2.48 31.67 7 37c1.36 1.61 4.82 3.22 9 4.69a176.07 176.07 0 0 0 19 5.14 131.15 131.15 0 0 0 22.9 1.79c3.87.23 7.62.47 10.42.72a10.4 10.4 0 0 0 2 0c7.75-.75 10.39-9.9 10.39-9.9l11.12-.82a17.37 17.37 0 0 0 2.06-19.85s12.73 1.24 14-3.3 5-11.52 4.52-17.68c-.34-3.1-3.64-7.52-6.46-11.22z"/><path fill="#d13585" d="M289.73 422.34h-1.34a38.84 38.84 0 0 1-22.12-7.81 39.8 39.8 0 0 1-13.14-17.41c-.33-.86-.65-1.73-.92-2.62l-15.79 17.11 17 6.54 13 5 36.22 13.94.65-3 3.33-15.52a38.72 38.72 0 0 1-16.89 3.77z"/><path fill="#bf1f6a" d="M266.41 423.11l-13-5-16.99-6.54-2.26 17.48-1.47 11.31.38.16 20.76 9.21 13.09 5.8 24.2 10.74 11.51-29.21-36.22-13.95z"/><path fill="#959599" d="M307.1 352.8c-2.51.34-5 .72-7.57 1.06a39.1 39.1 0 0 1 4.2 5.86c.26.44.52.89.76 1.34 1.92-.29 3.52-.46 4.86-.58l3-.24a62.43 62.43 0 0 0-5.16-7.44z"/><path fill="#959599" d="M289.73 343a39 39 0 0 0-24.45 8.63c-.33.26-.65.53-1 .8a39.79 39.79 0 0 0-13.87 30.25v1.41a40.58 40.58 0 0 0 2.54 4.4c.66 1 1.36 1.94 2.09 2.86.49.6 1 1.2 1.51 1.77a38.61 38.61 0 0 0 5 4.59 11.8 11.8 0 0 1 1-1 10.13 10.13 0 0 1 .8-.67c-.32-.72-.62-1.47-.89-2.19a53 53 0 0 1-2.32-8c-.05-.22-.12-.44-.16-.66a79.66 79.66 0 0 0-3.2 3.4 35.31 35.31 0 0 1 3-4.49 47.93 47.93 0 0 1-.72-11.47l-4.15 2.86c1.37-1.57 2.76-3.06 4.22-4.5a39.62 39.62 0 0 1 1.34-7.24v5.95c1.6-1.53 3.28-3 5-4.36s3.23-2.49 4.92-3.63a60.92 60.92 0 0 1-.1-6.48c0-.86 0-1.72.1-2.58.14.95.31 1.9.46 2.84.31 1.8.63 3.59 1 5.38 1.55-1 3.15-1.87 4.78-2.69a59.39 59.39 0 0 1 6.17-2.7q-2-4-4.4-7.77a49.32 49.32 0 0 1 5.74 7.3c1.4-.48 2.82-.89 4.25-1.27a57.82 57.82 0 0 1 7.39-1.46 34.09 34.09 0 0 0-9.93-7.64 28.67 28.67 0 0 1 12.19 7.44 75.2 75.2 0 0 1 8.36-.35c-1.1-1.37-2.28-2.72-3.49-4.05a.35.35 0 0 1-.23.23c-.1 0-.23 0-.33-.62a1.75 1.75 0 0 1 0-.23l-.47-.51c.17.11.32.24.48.36.06-.22.23-.22.32-.24s.19.1.29.62v.08a49.73 49.73 0 0 1 5.29 4.44c1.37.05 2.76.15 4.12.3l-3.4.42a47.24 47.24 0 0 1 5.93 7.44l.18.28H319l-3.53.72a41.15 41.15 0 0 1 5.53 14.86 9.13 9.13 0 0 1 2.7.38 39 39 0 0 0 1.1-7.21c.05-.92.08-1.84.07-2.78V365a39.9 39.9 0 0 0-3.39-5.67A39.12 39.12 0 0 0 289.73 343z"/><path fill="#959599" d="M297.37 354.38c-1.8.36-3.58.78-5.36 1.25-2.15.56-4.29 1.2-6.4 1.93a69.27 69.27 0 0 1 3.28 6.28c.13.26.27.52.39.79l.8-.24a96.19 96.19 0 0 1 11.21-2.81h.55c-.44-.92-.95-1.79-1.46-2.68a41.8 41.8 0 0 0-3-4.52zm-25.46 18.44c-.55-2.75-1-5.33-1.29-8.16-1.81 1.08-3.44 2.12-5.08 3.23s-3.29 2.29-5.12 3.62h.1a64.68 64.68 0 0 0 1.34 10v-.13c1.21-1.31 2.5-2.54 3.83-3.73a55.75 55.75 0 0 1 6.22-4.83zm36.31 23.51a100.76 100.76 0 0 0-1.17-16.28q-5.7 1.77-11.34 3.73a112.39 112.39 0 0 1 2.29 14.37c.06.57.12 1.13.16 1.7.8-.25 1.59-.53 2.38-.79 2.58-.83 5.16-1.67 7.73-2.56zm20.45-18.61c0-.16 0-.32-.07-.49.03.17.05.33.07.49zm-.53-3.26c0-.17-.08-.34-.12-.5.04.17.09.33.12.5zm.46 2.77z"/><path fill="#959599" d="M328.67 377.72c.13 1 .22 2.06.26 3.11a39.29 39.29 0 0 1-37.7 40.81 41.35 41.35 0 0 1-4.6-.09 39.29 39.29 0 0 1-33.5-24.74c-.32-.79-.6-1.6-.86-2.42-.18-.55-.35-1.11-.5-1.67-.25-.92-.48-1.85-.66-2.79.17.94.37 1.87.61 2.78.15.59.31 1.17.49 1.75.27.89.59 1.76.92 2.62a39.8 39.8 0 0 0 13.14 17.41 38.84 38.84 0 0 0 22.12 7.81h1.34a38.72 38.72 0 0 0 16.88-3.85 39.69 39.69 0 0 0 22.39-35.8 40.14 40.14 0 0 0-.33-4.93z"/><path fill="#959599" d="M321.12 376.3a44 44 0 0 1 .37 6.38 38.83 38.83 0 0 0 2.22-6.41 9.77 9.77 0 0 0-2.59.03zM275 374.07c1.39 5.08 2.58 8.93 3.95 13 4-1.79 8.51-3.57 13.47-5.26-1.24-4.67-2.53-9-4.24-13.7a94.55 94.55 0 0 0-13.18 5.96zm31.7 3.57h.3c-.36-2-.84-4-1.39-6a66.23 66.23 0 0 0-2.75-8c-2.81.66-6 1.56-9 2.51-1.15.37-2.29.74-3.37 1.11h-.05c7.1 17.03-.09 14.18 16.26 10.38zm10.72-4.39a46.58 46.58 0 0 0-4.59-11.87c-2.48.52-5 1.05-7.44 1.62a59.47 59.47 0 0 1 3.5 10.13c.32 1.3.61 2.6.84 3.91a75.36 75.36 0 0 1 8.27-1.24c-.16-.86-.37-1.7-.58-2.55zm-6.85 22.31l2.71-1a40 40 0 0 0 5.32-6.56 50.28 50.28 0 0 0-.51-11c-3.2.67-5.85 1.49-8.16 2.18.15 1.84.54 16.46.54 16.46zm14.3-30.56l.09.17a1.21 1.21 0 0 1-.09-.2zm.13.13c.48 1 .92 2 1.32 3A39.21 39.21 0 0 1 328 374a39.07 39.07 0 0 0-1.73-5.82c-.38-1.07-.83-2.06-1.27-3.05zm-44.91-5.39a76.65 76.65 0 0 0-7.84 3.95c.95 4.3 1.52 6.45 1.87 7.75a69.75 69.75 0 0 1 12.83-6c-.4-1.07-.81-2.08-1.22-3.06-.61-1.47-1.23-2.87-1.84-4.19-1.28.47-2.55 1-3.8 1.55zm-13.97 35.74a68 68 0 0 0 3.5 7 39.28 39.28 0 0 0 8.2 2.65c1.57-.31 3.14-.66 4.68-1.06a133.88 133.88 0 0 1-5.63-13.5c-3.33 1.34-7 2.93-10.27 4.62zm30.61 7.92v-.17c-3.46 1.09-7 2-10.5 2.73a38.83 38.83 0 0 0 10.63-1.63c-.05-.33-.08-.62-.13-.93zm-12.17.22c4.3-1.06 7.82-2.13 11.59-3.3 0-.31-.21-1.33-.52-3-.48-2.64-1.33-6.91-2.75-12.67-4.54 1.61-8.69 3.13-13.38 5 .23.69.48 1.43.73 2.15 1.31 3.88 2.81 8.14 4.23 11.92zm14.07.14a39.32 39.32 0 0 0 6.56-3q1.23-.7 2.4-1.5c-1 .43-2.07.84-3.11 1.24q-2.94 1.14-5.92 2.13c.03.37.04.76.07 1.13zM265 392.78h.1a11.46 11.46 0 0 1 .47 1.44l.28-.2h.07a77.33 77.33 0 0 1 7.91-4.53c.74-.38 1.46-.79 2.22-1.14-1.52-4.54-2.71-8.83-3.63-12.88a62.73 62.73 0 0 0-6.72 4.59c-1.25 1-2.48 2-3.65 3 .18.8.42 1.58.62 2.37a69.86 69.86 0 0 0 2.33 7.35zm-2.15 4.72c-.27.17-.51.38-.76.57.41.31.82.61 1.24.9.72.5 1.47 1 2.22 1.44-.62-1.15-1.22-2.32-1.76-3.51l-.77.47z"/><path fill="#666" d="M328.93 380.83a39.49 39.49 0 0 0-2.65-12.68 41.84 41.84 0 0 0-1.41-3.22v1.29c0 .94 0 1.86-.07 2.78a39 39 0 0 1-1.08 7.21c.13 0 .26.05.38.09h-.39a38.83 38.83 0 0 1-2.22 6.41 43.29 43.29 0 0 1-1 8.93 27.28 27.28 0 0 0 3.51-1.74 21.2 21.2 0 0 1-3.7 3 40.38 40.38 0 0 1-5.61 13.1 57.78 57.78 0 0 0 3.25-11.67 73.31 73.31 0 0 1-7.44 3.8h-.17a36.06 36.06 0 0 1-4.27 14.57 45.93 45.93 0 0 0 2.14-10.81c.07-1 .13-1.93.14-2.89l-.75.3q-1.17.8-2.4 1.5a39.32 39.32 0 0 1-6.56 3A57.94 57.94 0 0 1 298 417a103.09 103.09 0 0 0-1.18-12.65 38.83 38.83 0 0 1-10.59 1.65l-.72.17a60.14 60.14 0 0 0 4.32 9.58c-1.49-.77-5.21-7.72-6-9.31a59.75 59.75 0 0 1-10.92 1.12 45.84 45.84 0 0 0 8.56 9.41 32.72 32.72 0 0 1-11.31-9.56 11.83 11.83 0 0 1-4-.89 4 4 0 0 1-.47-.22c-.29-.13-.59-.27-.87-.43.26.08.53.14.8.21l.53.11a12.18 12.18 0 0 0 3.19.2 50 50 0 0 1-3.26-5c-.18-.31-.35-.62-.52-.93-.75-.46-1.5-.94-2.22-1.44-.42-.29-.83-.59-1.24-.9a11 11 0 0 0-2.22 2.2 11.79 11.79 0 0 1 1.72-2.59 38.61 38.61 0 0 1-5-4.59c-.52-.57-1-1.17-1.51-1.77-.73-.92-1.43-1.87-2.09-2.86a40.58 40.58 0 0 1-2.54-4.4.67.67 0 0 0-.06-.12 39.31 39.31 0 0 0 .45 4.52c.07.44.14.88.22 1.31v.16c.18.94.41 1.87.66 2.79.15.56.32 1.12.5 1.67.26.82.54 1.63.86 2.42a39.29 39.29 0 0 0 33.5 24.74 41.35 41.35 0 0 0 4.6.09 39.29 39.29 0 0 0 37.7-40.81z"/><path fill="#666" d="M318.6 388a40 40 0 0 1-5.32 6.55c1.6-.58 3.09-1.13 4.81-1.73.26-1.57.41-3.18.51-4.82zm-46.77 18.16h.1c2-.25 3.94-.59 5.89-1a39.28 39.28 0 0 1-8.2-2.65c.63 1.11 1.29 2.22 2 3.3z"/><path fill="#280415" d="M270.05 174.9c-4.57.77-8.34 6.8-7.82 7.92l.2-.08c1.82-.69 5.15-4.58 11.74-3.66a6.48 6.48 0 0 1 2.78-.91 4.48 4.48 0 0 1 .64-.07 6.63 6.63 0 0 1 6.39 5.08c2.44 1.56 4.78 3.28 7.24 4.8.72.44 1.44.87 2.18 1.26-4.96-4.96-16.4-15.51-23.35-14.34z"/><path fill="#280415" d="M284 183.18a6.63 6.63 0 0 0-6.39-5.08 4.48 4.48 0 0 0-.64.07 6.48 6.48 0 0 0-2.78.91 6.71 6.71 0 0 0-1.82 1.66 2 2 0 0 1 .55-.11 2.16 2.16 0 1 1 0 4.32 2.12 2.12 0 0 1-1.81-1 6.65 6.65 0 0 0-.08.78 6.58 6.58 0 0 0 13.16 0 6.7 6.7 0 0 0-.19-1.55zm64.42-7.93c-7-1.17-18.39 9.38-23.35 14.34 3.31-1.72 6.25-4 9.39-6a6.49 6.49 0 0 1 5.8-3.54 6.26 6.26 0 0 1 1.07.11c8.84-2.86 12.9 2.53 14.91 3 .55-1.11-3.24-7.16-7.82-7.91z"/><path fill="#280415" d="M341.33 180.12a6.26 6.26 0 0 0-1.07-.11 6.51 6.51 0 0 0-2.54.51c-.41.23-.83.46-1.26.72a6.47 6.47 0 0 0-2 2.31 5.87 5.87 0 0 0-.35.76 1.69 1.69 0 0 1 .39-.08 2.16 2.16 0 1 1 0 4.32 1.78 1.78 0 0 1-.52-.11 6.56 6.56 0 1 0 7.35-8.32z"/><path fill="#393a3c" d="M303 347.26c-.1-.52-.17-.64-.29-.62s-.26 0-.32.24l.61.46zm-.62 0c.1.62.23.65.33.62a.35.35 0 0 0 .23-.23l-.56-.62a1.75 1.75 0 0 0 0 .23zm-.47-.74l.47.51a.71.71 0 0 1 0-.15c-.15-.12-.3-.25-.47-.36z"/><path fill="#393a3c" d="M321.49 382.68a44 44 0 0 0-.37-6.38 9.77 9.77 0 0 1 2.59 0h.39c-.12 0-.25-.06-.38-.09a9.13 9.13 0 0 0-2.7-.38 41.15 41.15 0 0 0-5.51-14.89l3.53-.72h-3.92l-.18-.28a47.24 47.24 0 0 0-5.94-7.44l3.4-.42c-1.36-.15-2.75-.25-4.12-.3a49.73 49.73 0 0 0-5.29-4.44 1.13 1.13 0 0 1-.06.31c1.21 1.33 2.39 2.68 3.49 4.05a75.2 75.2 0 0 0-8.36.35 28.67 28.67 0 0 0-12.19-7.44 34.09 34.09 0 0 1 9.93 7.64 57.82 57.82 0 0 0-7.39 1.46c-1.43.38-2.85.79-4.25 1.27a49.32 49.32 0 0 0-5.74-7.3q2.4 3.78 4.4 7.77a59.39 59.39 0 0 0-6.17 2.7 56.16 56.16 0 0 0-4.78 2.69c-.37-1.79-.69-3.58-1-5.38-.15-.94-.32-1.89-.46-2.84-.07.86-.07 1.72-.1 2.58a60.92 60.92 0 0 0 .1 6.48q-2.54 1.71-4.92 3.63a71.576 71.576 0 0 0-5 4.36v-5.95a39.62 39.62 0 0 0-1.34 7.24 82.098 82.098 0 0 0-4.22 4.5l4.15-2.86a47.93 47.93 0 0 0 .72 11.47 35.31 35.31 0 0 0-3 4.49c1-1.17 2.11-2.31 3.2-3.4 0 .22.11.44.16.66a53 53 0 0 0 2.32 8c.27.72.57 1.47.89 2.19a10.13 10.13 0 0 0-.8.67 11.38 11.38 0 0 0-2.72 3.59 11 11 0 0 1 2.22-2.2c.25-.19.49-.4.76-.57l.17-.13.77-.47a57.475 57.475 0 0 0 2.28 4.44 50 50 0 0 0 3.26 5 12.18 12.18 0 0 1-3.19-.2l-.53-.11c-.27-.07-.54-.13-.8-.21.28.16.58.3.87.43a4 4 0 0 0 .47.22 11.83 11.83 0 0 0 4 .89 32.72 32.72 0 0 0 11.31 9.56 45.84 45.84 0 0 1-8.56-9.41 59.75 59.75 0 0 0 10.92-1.12c.82 1.59 4.54 8.54 6 9.31a60.14 60.14 0 0 1-4.32-9.58l.72-.17c3.54-.74 7-1.64 10.5-2.73v.17c0 .31.08.62.13.93A103.09 103.09 0 0 1 298 417a57.94 57.94 0 0 0 .59-13.22c0-.37 0-.75-.07-1.13q3-1 5.92-2.13c1-.4 2.08-.81 3.11-1.24l.75-.3c0 1-.07 1.93-.14 2.89a45.93 45.93 0 0 1-2.14 10.81 36.06 36.06 0 0 0 4.27-14.57h.17a73.31 73.31 0 0 0 7.44-3.8 57.78 57.78 0 0 1-3.21 11.69 40.38 40.38 0 0 0 5.56-13.08 21.2 21.2 0 0 0 3.7-3 27.28 27.28 0 0 1-3.42 1.71 43.29 43.29 0 0 0 .96-8.95zm-4.07-9.43c.21.85.42 1.69.57 2.55h.01a75.36 75.36 0 0 0-8.31 1.24c-.23-1.31-.52-2.61-.84-3.91a59.47 59.47 0 0 0-3.5-10.13c2.48-.57 5-1.1 7.44-1.62a46.58 46.58 0 0 1 4.63 11.87zM307 377.64h-.32c-16.35 3.8-9.16 6.65-16.28-10.4h.05c1.08-.37 2.22-.74 3.37-1.11 3-.95 6.23-1.85 9-2.51a66.23 66.23 0 0 1 2.75 8c.61 1.98 1.09 3.99 1.43 6.02zm-14.69 4.17c-5 1.69-9.5 3.47-13.47 5.26a223.58 223.58 0 0 1-3.95-13 94.55 94.55 0 0 1 13.13-6c1.78 4.75 3.07 9.07 4.31 13.74zm14.77-29a62.43 62.43 0 0 1 5.16 7.44l-3 .24c-1.34.12-2.94.29-4.86.58-.24-.45-.5-.9-.76-1.34a39.1 39.1 0 0 0-4.2-5.86c2.67-.35 5.17-.73 7.68-1.07zM292 355.63c1.78-.47 3.56-.89 5.36-1.25h.05a41.8 41.8 0 0 1 3 4.52c.51.89 1 1.76 1.46 2.68h-.55a96.19 96.19 0 0 0-11.21 2.81l-.8.24c-.12-.27-.26-.53-.39-.79a69.27 69.27 0 0 0-3.28-6.28c2.08-.73 4.22-1.37 6.36-1.93zm-11.92 4.11c1.25-.55 2.52-1.08 3.8-1.56a115.694 115.694 0 0 1 3.06 7.25 69.75 69.75 0 0 0-12.83 6c-.35-1.3-.92-3.45-1.87-7.75a76.65 76.65 0 0 1 7.85-3.94zm-14.55 8.15c1.64-1.11 3.27-2.15 5.08-3.23.32 2.83.74 5.41 1.29 8.16a55.75 55.75 0 0 0-6.22 4.81c-1.33 1.19-2.62 2.42-3.83 3.73v.13a64.68 64.68 0 0 1-1.34-10h-.1c1.84-1.31 3.48-2.49 5.13-3.6zm-.41 24.89H265a69.86 69.86 0 0 1-2.33-7.36c-.2-.79-.44-1.57-.62-2.37 1.17-1.06 2.4-2.06 3.65-3a62.73 62.73 0 0 1 6.72-4.59c.92 4.05 2.11 8.34 3.63 12.88-.76.35-1.48.76-2.22 1.14A77.33 77.33 0 0 0 266 394h-.07l-.28.2a11.46 11.46 0 0 0-.52-1.42zm6.8 13.38h-.1l-.22-.33c-.7-1.08-1.36-2.19-2-3.3a68 68 0 0 1-3.5-7l.48-.24c3.25-1.69 6.94-3.28 10.27-4.62a133.88 133.88 0 0 0 5.63 13.5c-1.54.4-3.11.75-4.68 1.06-1.93.34-3.89.68-5.87.93zm12.63-2.54l-.1.05c-1.42-3.78-2.92-8-4.23-11.92-.25-.72-.5-1.46-.73-2.15 4.69-1.83 8.84-3.35 13.38-5 1.42 5.76 2.27 10 2.75 12.67.31 1.68.47 2.7.52 3-3.76 1.22-7.28 2.29-11.58 3.35zm15.93-4.56c-.79.26-1.58.54-2.38.79 0-.57-.1-1.13-.16-1.7a112.39 112.39 0 0 0-2.24-14.37q5.64-2 11.34-3.73a100.76 100.76 0 0 1 1.17 16.28v.17c-2.56.89-5.14 1.73-7.72 2.56zm17.6-6.21c-1.72.6-3.21 1.15-4.81 1.73l-2.71 1-.1.15s-.39-14.62-.54-16.46c2.31-.69 5-1.51 8.16-2.18a50.28 50.28 0 0 1 .51 11 46.63 46.63 0 0 1-.5 4.76z"/><path fill="#a4286a" d="M378.33 392.16a7.43 7.43 0 0 0 1.21-5.26L376 362.08l9 2.11 1.27 15.61L398 361.85l-20.1-4.66a8.11 8.11 0 0 0-9.63 6l-5.12 22.11a8.12 8.12 0 0 0 6.06 9.73l1.71.39h.5a6.75 6.75 0 0 0 6.91-3.26zm29.07-28.01l-1.45 2.2-17 25.58a30.6 30.6 0 0 1-5 6.53l21.53 5 4-17.66 2.8-12.3a8.1 8.1 0 0 0-4.88-9.35z"/><path fill="#77b227" d="M403.9 355.8l-.33-.07-4.17 6.44-8.43 13-5.72 8.86-1.51-18.64-6.13-1.39 3.3 22.76a8.81 8.81 0 0 1-.56 4.49 8.49 8.49 0 0 1-.91 1.74 8 8 0 0 1-7.57 3.9l-1.11 5.21a11.52 11.52 0 0 0 8.66-1.51 32.49 32.49 0 0 0 8.49-9.51l17.58-26.63.08-.11.42-.65 4.25-6.44z"/><path fill="#fff" d="M403.6 354.32l-.58-.13-5 7.66-11.75 17.95-1.27-15.61-9-2.11 3.55 24.82a7.43 7.43 0 0 1-1.21 5.26 6.75 6.75 0 0 1-6.9 3.27h-.6l-1.78 7.7.64.17a13.05 13.05 0 0 0 10.38-1.44 33.51 33.51 0 0 0 8.9-9.93l17-25.58 1.45-2.2 5.15-7.75zm-24.18 46.28a11.52 11.52 0 0 1-8.66 1.51l1.11-5.21a8 8 0 0 0 7.57-3.9 8.49 8.49 0 0 0 .91-1.74 8.81 8.81 0 0 0 .56-4.49l-3.3-22.77 6.13 1.42 1.51 18.64 5.72-8.86 8.43-13 4.17-6.44.33.07 6.34 1.46-4.24 6.41-.42.65-.08.11-17.58 26.63a32.26 32.26 0 0 1-8.49 9.51z"/></svg>