<svg xmlns="http://www.w3.org/2000/svg" role="img" aria-hidden="true" viewBox="0 0 500 500" focusable="false"><path fill="#a4286a" d="M80 0h340a80 80 0 0 1 80 80v420H80a80 80 0 0 1-80-80V80A80 80 0 0 1 80 0z"/><path fill="#6c2548" d="M500 80a80 80 0 0 0-80-80h-6L137.7 500H500z"/><circle cx="306.18" cy="195" r="61.07" fill="#9fda4f" transform="rotate(-45 306.171 195)"/><path fill="#77b227" d="M335.89 141.64l-59.42 106.72a61.07 61.07 0 0 0 59.42-106.72z"/><path fill="#fec228" d="M262.19 275.37l-.1-.05h-.08a39.9 39.9 0 1 0-38.64 69.83 39.9 39.9 0 0 0 38.73-69.77z"/><path fill="#f49a00" d="M262 275.27l-38.62 69.83A39.9 39.9 0 1 0 262 275.27z"/><path fill="#ff4e47" d="M210.31 368.73a24 24 0 1 0 9.07 32.63 23.95 23.95 0 0 0-9.1-32.65z"/><path fill="#ed261f" d="M210.28 368.71l-23.56 41.71a24 24 0 0 0 23.56-41.71z"/><path fill="#fff" d="M111.1 338.68v23c14.22-.59 25.35-5.26 34.77-14.81s18-25 26.27-48l61-163.31h-29.5L154.49 272l-24.36-76.52h-27L139 287.52a37.78 37.78 0 0 1 0 27.48c-3.67 9.39-10.19 20.39-27.9 23.68z"/><path fill="#9fda4f" d="M376.16 124.4A185.67 185.67 0 0 1 438 250.21c7.14 102.79-71.33 192.32-175 199.57S69.2 379.29 62 276.5 133.33 84.17 237 76.93l6-.42-3-41.66-6 .42a229.78 229.78 0 0 0-157.79 78.15A227.41 227.41 0 0 0 98.77 436a231.68 231.68 0 0 0 325-22.73A227.39 227.39 0 0 0 408.1 96.85c-7.1-6.64-36.83 23.15-31.94 27.55z"/><path fill="#9fda4f" d="M226.09 6l2.63 99.18 109.86-52.49L226.09 6z"/><path fill="#77b227" d="M309.16 484.21a229.83 229.83 0 0 0 140-106.83 227.39 227.39 0 0 0-74.24-306.67l-20.31 36.76A185.51 185.51 0 0 1 432 214.59c26.64 99.54-33.3 202.41-133.65 229.28a188.47 188.47 0 0 1-124.5-9.29l-20.37 36.86a229.72 229.72 0 0 0 155.68 12.77z"/></svg>