<svg role="img" aria-hidden="true" xmlns="http://www.w3.org/2000/svg" viewBox="0 0 600 480" focusable="false"><path fill="none" d="M0 0h600v480H0z"/><circle cx="300" cy="269.8" r="191" fill="#f0ecf0"/><path fill="#8e6535" d="M181.42 344.43l-33.34-44.01s-4.81 4.43-11.85 10.94c4.98 18.99 12.7 36.47 21.44 53.57 13.42-11.3 23.75-20.51 23.75-20.51z"/><path fill="#6c2548" d="M414.61 394.73c26.27-14.16 39.63-32.67 51.13-48.01 0 0-34.59-93.41-75.32-121.55-130.87-88.27-235.18 71.67-248.82 80.03l38.6 58.37 22.55-20.48-8.36 85.87c30.25 20.11 66.55 31.84 105.6 31.84 36.19 0 70.03-10.07 98.87-27.55l2.41-54.84 13.34 16.32z"/><path fill="#b28e5c" d="M136.23 311.36c-17.59 16.27-49.17 45.61-54.83 51.74-7.92 8.59-11.36 51.93 20 42.68 10-2.97 36.49-24.18 56.27-40.84-8.74-17.1-16.46-34.58-21.44-53.57zm243.39-191.99s8.99-19.59 17.42-10.55c8.43 9.04 6.28 21.49.57 28.82-5.71 7.33-8.69 19.81-16.77 18.82-4.91-.84-3.58-3.83-4.82-8.65l3.6-28.45zm-97.43 88.42c-13.62 7.6-18.73 15.22-18.73 22.39 0 21.55 6.83 32.98 46.2 38.96 39.37 5.98 61.34-17.75 61.34-33.61 0-18.47-23.02-37.6-52.47-37.6-11.46 0-23.91 2.9-36.34 9.86z"/><path fill="#b28e5c" d="M350.5 199.78l-2.88 40.84-61-4.29 3.63-37.49c20.36 10.51 40.11 10.54 60.25.94z"/><path fill="#8e6535" d="M287.41 153.55l.1 52.81c9.17 25.78 47.12 24.58 63.07 2.82l2.25-57.98-65.43 2.34z"/><path fill="#b28e5c" d="M267.73 75.77l.35 60.85s-1.38 37.09 22.9 57.96c15.56 13.38 33.2 22.97 58.48 2.82 27.12-21.62 33.81-52.74 33.81-52.74s4.73-51.12 5.19-56.91C395.39.4 270.39 7.82 267.74 75.78z"/><path fill="#b28e5c" d="M270.4 116.83s.63-17.58-11.29-20.57c-11.91-2.99-10.63 17.88-10.63 17.88s-2.27 6.2 4.53 13.16c6.8 6.96 3.79 18.36 13.47 20.91s9.39-6.15 9.39-6.15l-5.48-25.23z"/><path fill="#fff" d="M299.5 98.68c-8.5.03-16.8 4.2-13.52 10.51.56 1.09 11.7 9.15 19.22 3.03 6.33-5.16.99-13.56-5.7-13.54zm66.14 10.46c2.54 5.12-9.04 7.97-11.72 7.89-5.35-.17-10.64-.88-10.15-7.51.74-13.02 17.56-9.1 21.87-.38z"/><path fill="#8e6535" d="M330 90.09c-.11 18.13 5.99 26.83 4.27 50.11-4.27 3.9-14.97 4.36-20.7 2.93 4.77 4.97 12.02 5.37 18.6 4.97 2.2.16 8.14-2.23 7.62-6.59 3.98-24.57-9.8-51.43-9.8-51.43z"/><path fill="#1a1a1a" d="M316.19 88.78c3.07-2.73-2.19 6.05-4 6.33-5.69.97 7.52-2.16-33.48-1.87 7.82-9.11 29.47-13.17 37.48-4.46zm48.43-7.75c3.27 2.44 10.84 13.45 10.2 17.37-.27-.19-23.66-17.15-29.87-16.76-3.29 0-2.82-7.06.47-7.53 6.73-1.01 13.95 2.59 19.2 6.92z"/><circle cx="297.84" cy="106.46" r="5.79" transform="rotate(-83 297.855 106.46)"/><circle cx="354.2" cy="109.05" r="5.79" transform="rotate(-83 354.212 109.047)"/><path fill="#f2f2f2" d="M137.07 451.46c26.03 2.44 52.24-2.02 76.01-12.93 74.74-34.31 107.52-122.71 73.21-197.46-34.31-74.74-122.71-107.52-197.46-73.21C14.08 202.18-18.7 290.58 15.61 365.32c22.18 48.36 68.48 81.2 121.45 86.14zm-53.8-117.19a74.396 74.396 0 0 1-6.45-37.92c3.81-40.92 40.07-71 81-67.19 40.92 3.81 71 40.07 67.19 81-3.81 40.92-40.07 71-81 67.19a74.438 74.438 0 0 1-60.74-43.07z"/><path fill="#f90321" d="M90.22 260.13a74.697 74.697 0 0 0-6.95 74.15l-67.66 31.05c-22.18-48.36-16.89-104.88 13.9-148.27l60.71 43.07zm53.99 117.17a74.374 74.374 0 0 0 67.27-30.74l60.55 43.34c-30.75 42.96-81.96 66.4-134.57 61.62l6.74-74.21zm74.92-103.86l-.53-1.21a74.68 74.68 0 0 0-60.72-43.15l6.94-74.12c52.96 4.96 99.26 37.79 121.45 86.14l1.09 2.43-68.23 29.91z"/><path fill="#b28e5c" d="M471.75 376.31c-7.25-23.56-43.49-18.38-56.33 2.19 0 1.21 0 2.58-.05 3.73-2.21-.96-4.33-1.8-6.39-2.56-1.42.26-2.83.52-4.21.77 1.38-.25 2.79-.51 4.21-.77-21.74-8-36.15-6-73.31-24.57-6.21-3.12-15.04-50.49-23.04-63.7-10.32-16.96-18.83-19.14-26.04-21.02-8.8-2.33-15.11-1.61-25.42.63-7.22 1.57-1.23 8.95 6.59 9.73 12 1.17 18.7 3.6 26.71 12.83-19.49-1.22-34.57-1.67-46.32 10.08-5.65 5.65 1.1 10.83 5.33 8.32 10.67-7.06 23.38-8.63 39.69-5.49-16.32.31-25.99 1.25-37.5 8.94-7.22 6.9-1.73 14.43 3.45 10.67 9.57-7.97 26.99-6.9 32.01-3.45-16.79-1.73-19.93 2.04-27.77 9.26-3.14 3.45-.38 9.79 4.08 6.9 5.33-3.45 20.08-10.36 29.29 6.18.72 2.56 2.67 18.46 24.27 33.15 27.63 18.75 23.95 32.53 101.35 59.35 25.87 8.96 47.64-.08 50.68-18.35 2.14-12.85 3.55-24.95-1.28-42.8z"/><path fill="#8e6535" d="M471.75 376.31c-2.04-7.52-5.16-16.05-9.84-26.12-7.73-16.62-36.43 9.79-46.54 25.39 0 0 .04 1.31.05 2.91 27.9-13.98 40.14-11.63 56.33-2.19z"/><path fill="#b28e5c" d="M24.11 390.15c-3.12 2.16-5.17 2.27-7.84-1.95-1.73-2.61-4.43-6.88-2.83-9.79 2.48-4.53 18.06-8.99 23.58-10.91 3.28 1.2 6.16 3.6 5.49 7.25-.67 3.65-3.31 4.88-18.4 15.39z"/><path fill="#b28e5c" d="M39.95 379.91c-.64-2.32 2.32-4.45 4.69-4.08a12.19 12.19 0 0 1 7.12 6.53 6.24 6.24 0 0 1-1.07 4.19c-3.92 7.28-14.56 21.36-21.76 17.95-1.97-.99-3.01-2.77-7.31-9.2-1.07-1.6-1.07-2.51.91-4.08l18.67-14.67"/><path fill="#b28e5c" d="M33.33 409.46c.37-3.2 3.04-5.6 5.71-7.63 3.07-2.37 6.32-7.47 10.08-8 3.76-.53 5.47 4.48 5.47 8.27.32 2.97-.74 5.92-2.88 8-14.72 14.56-18.35 4.11-18.38-.64z"/><path fill="#b28e5c" d="M64.46 417.59c-2.37 6.69-9.82 10.08-12.48 9.12-4.67-1.9-7.02-7.14-5.33-11.9 5.07-4.67 6.99-5.87 11.63-6.29a7.403 7.403 0 0 1 6.85 4.35c.25 1.6.02 3.25-.67 4.72z"/><circle cx="296.82" cy="105.56" r="2.32" fill="#fff"/><circle cx="353.43" cy="107.81" r="2.32" fill="#fff" transform="rotate(-83 353.441 107.801)"/><path d="M344.44 104.47s11.2-9.37 21.19 4.67c-11.33-20.85-21.19-4.67-21.19-4.67zm-59.26.73s12.56-14.74 22.49-.84c-6.15-21.5-22.49.84-22.49.84z"/><path fill="#1a1a1a" d="M415.25 62.58c-20.33-4.39-15.02-32.19-33.26-45.81-8.77-6.55-35.8-6.91-50.78-.1 2.48-4.98 2.22-10.48 8.79-13.86-24.81-10.54-32.44 87.43 24.59 63.04-10.89 2.52-30.35-7.88-35.8-18.87 11.55 7.22 32.79-.09 42.05 12.55 9.19 12.53 12.95 28.88 11.09 47.83-.09-.14-.18-.25-.27-.4.37 17.53-13.74 26.28.37 33.01-2.08-5.05-2.36-13.85 3.32-9.88-3.55-7.66 2.55-11.07 2.7-21.57 0-.48-.16-.56-.44-.47 7.96-14.98 15-35.63 5.93-46.22 2.77 2.72 11.34 8.03 21.72.77z"/><path fill="#1a1a1a" d="M269.63 22.8c7-11.67 36.07-14.08 42.32-2.25-57.94-14.78-49.53 41.28-67.52 45.75 4.92 2.98 9.19 2.41 12.96-.17.39 9.29-2.41 19.83-9.84 20.47 4.86 1.61 8.77.34 11.75-2.54-.98 12.2 1.86 16.24 5.14 18.81.2 2.1.18 4.64-1 9.33 1.28 1.42 2.84-.57 2.98-.28 1.44 2.87.99 6.24-2.55 11.64.96.75 3.12.71 4.54-1.28 1.7 2.55.14 6.81-.99 9.22 14 5.37-14.04-60.64 32.93-78.82 59.38-22.98-3.11-81.51-30.72-29.86z"/><path fill="#fff" d="M341.6 167.68c.56-.58.72-1.44.4-2.19s-1.05-1.22-1.86-1.22c-11.41.09-30.69-3.28-42.09-8.56-.52-.24-1.13-.15-1.56.23s-.59.98-.41 1.52c10.05 30.55 29.81 26.43 45.51 10.21z"/></svg>