<svg role="img" aria-hidden="true" xmlns="http://www.w3.org/2000/svg" viewBox="0 0 500 500" focusable="false"><path fill="#682b4b" d="M80 0h340a80 80 0 0 1 80 80v420H80a80 80 0 0 1-80-80V80A80 80 0 0 1 80 0z"/><path fill="#fff" d="M420 0H80A80 80 0 0 0 0 80v340a80 80 0 0 0 80 80h75.89L437.61 2" opacity=".13"/><path fill="#fff" d="M46.1 337.3v34.9c21.6-.9 38.5-8 52.8-22.5s27.4-38 39.9-72.9l92.6-248h-44.8L112 236 75 119.8H34l54.4 139.8a57.54 57.54 0 0 1 0 41.8c-5.5 14.2-15.4 30.9-42.3 35.9z" opacity=".3"/><path fill="#fed8b5" d="M340.94 276.32c1.11 4.6 2 9.32.23 12.6-4.47-4.16-5-19.64-7.07-26.58-37.9 80.76-77.59.62-78.32 0-2.13 9.43 1.25 20.63-5.35 28-.13-.91.08-1.69-.1-.83a121.37 121.37 0 0 0 1.38-16.51 2.55 2.55 0 0 1-.34.72c-2.6 3.22-21.17 10.05-21.17 17.48s31.17 29.25 67.53 32.57c32.16 2.42 54.56-11.11 74-29 2.4-2.91-26.28-16.5-30.79-18.45z"/><path fill="#eca96b" d="M250.43 290.32c6.6-7.35 3.22-18.55 5.35-28 .73.62 40.42 80.76 78.32 0 2 6.94 2.6 22.42 7.07 26.58 1.73-3.28.88-8-.23-12.6l-.19-.08c-3.89-1.59-3.87-35.82-3.87-35.82l-5.15-.12c-16 11.88-28.84 22.84-51.19 19.73-12.49-1.73-23.3-6.37-29.91-16.73.9 8.44 2.47 25.44 1.08 29.65a121.37 121.37 0 0 1-1.38 16.54c.18-.84-.03-.06.1.85z"/><path fill="#fed8b5" d="M285.58 71c-45.49 2-59.75 44.16-62.35 65.52s9.87 87.23 13.54 94.86c3.87 8.06 23.12 43.31 58.11 43.9 30.83.55 51.12-39.92 52.26-43.9 3.22-11.3 8.37-74.21 7.41-85.51C350.1 93.26 317.81 69.7 285.58 71zm168.73 319.6l-1.14-3c-.13.09-.27.16-.39.25.51.86 1.01 1.8 1.53 2.75zm-12.79 34.12c.7 5.56-5.2 8.65 6.23 10.89 8.26 1.6 18.77 3.9 26.86 8.62l-14.23-37.6c.21 1.09.44 2.15.57 3.31-9.33 5.46-16.08 8.57-19.43 14.78z"/><path fill="#eca96b" d="M447.75 435.61c-11.43-2.24-5.53-5.33-6.23-10.89 3.35-6.21 10.1-9.32 19.43-14.78-.13-1.16-.36-2.22-.57-3.31l-6.07-16c-.52-1-1-1.89-1.53-2.78a63.41 63.41 0 0 1-11.46 6.15l-22.69 14.59a212.62 212.62 0 0 1 6.47 21.76c1.76 8.16.62 9.87 8.78 12.6 10.6 3.61 23 4.37 34 6.81 3.06.68 6.59 2.23 10 3l-3.22-8.53c-8.14-4.72-18.66-7.02-26.91-8.62z"/><path fill="#fed8b5" d="M165.51 429.34c-2.1-6.49-12.31-7.4-17.69-10.39-7.35-4.07-8-2.93-11-10.54a.51.51 0 0 1-.19.09l-15.46 40.24c.3-.2.57-.39.89-.59a195.92 195.92 0 0 1 43.45-18.81z"/><path fill="#eca96b" d="M146.34 383.26l-9.69 25.24a.51.51 0 0 0 .19-.09c3 7.61 3.63 6.47 11 10.54 5.38 3 15.59 3.9 17.69 10.39a195.92 195.92 0 0 0-43.43 18.81c-.32.2-.59.39-.89.59l-5.39 14c8-4.63 16-9.41 24.31-12.91 9.58-4 19.58-8.42 29.38-11.87 5.43-1.9 12-2.6 16.83-5.82 1.33-.92 5-3.83 8.93-7.12l5.8-11.27z"/><path fill="#fff" d="M264.48 190.39a6.21 6.21 0 0 1 6.21 6.2 5.83 5.83 0 0 1-.15 1.33 36 36 0 0 0 6.41-2.78c-5.66-13-21.79-16.94-27.43 0a25.31 25.31 0 0 0 9.19 3.68 6.1 6.1 0 0 1-.43-2.23 6.21 6.21 0 0 1 6.2-6.2z"/><path fill="#280415" d="M270.54 197.92a5.83 5.83 0 0 0 .15-1.33 6.21 6.21 0 0 0-12.41 0 6.1 6.1 0 0 0 .43 2.23 24.39 24.39 0 0 0 11.83-.9z"/><path fill="#fff" d="M315.35 192a3 3 0 0 1-.26-1.21 2.67 2.67 0 0 1 2.46-2.84 2.35 2.35 0 0 1 1.88 1.05 6.77 6.77 0 0 1 1.81-.27 7 7 0 0 1 7 7v.11a26.53 26.53 0 0 0 6.25-2.94c-5.67-16.94-21.8-13-27.44 0a35.78 35.78 0 0 0 7.24 3v-.18a7 7 0 0 1 1.06-3.72z"/><path fill="#280415" d="M328.22 195.82v-.11a7 7 0 0 0-7-7 6.77 6.77 0 0 0-1.81.27 3.07 3.07 0 0 1 .59 1.79 2.67 2.67 0 0 1-2.47 2.83 2.46 2.46 0 0 1-2.2-1.62 7 7 0 0 0-1.09 3.72v.18a23.69 23.69 0 0 0 13.98-.06z"/><path fill="#fff" d="M317.55 187.94a2.67 2.67 0 0 0-2.46 2.84 3 3 0 0 0 .26 1.21 7 7 0 0 1 4.08-3 2.35 2.35 0 0 0-1.88-1.05z"/><path fill="#fff" d="M315.35 192a2.46 2.46 0 0 0 2.2 1.62 2.67 2.67 0 0 0 2.47-2.83 3.07 3.07 0 0 0-.59-1.79 7 7 0 0 0-4.08 3z"/><path fill="#77b227" d="M402.86 500H198.14l-.49-88.19c-19.36 7.79-61.46-23.72-63.41-30s6.76-11.15 6.76-11.15 24.68-51.3 38.24-61 58.08-29.54 58.08-29.54S251 316 295.92 315s51.77-35.82 51.77-35.82 64.34 16.44 81.8 37.28 31.95 70.13 31.95 70.13c-20.05 17-40.21 32.94-62.34 29z"/><path fill="#fed8b5" d="M208.79 157.24c-9.09 4.7-2 22.26-2 22.26a161 161 0 0 1 10.65 19.35c2.91 7.28 2.91 11.62 7.27 13.56 3.74 1.67 9.66-2.41 9.66-2.41l-7.22-37.28s-7.84-20.91-18.36-15.48zm162.74-5.97c9.49 3.76 3.38 22.1 3.38 22.1a162.49 162.49 0 0 0-9.38 20c-2.41 7.43-2.13 11.8-6.36 14-3.64 1.9-9.82-1.79-9.82-1.79l4.83-37.66s6.24-21.04 17.35-16.65z"/><path fill="#eca96b" d="M297.4 177.16c5.24 41.93 5.53 41.33 4.75 43.77a4.39 4.39 0 0 1-3.69 3.36c-3.51.18-5.19-5-8.78-5.2-1.32 0-2.73.57-4 0a3.3 3.3 0 0 1-1.92-3.45 9.73 9.73 0 0 1 1.51-3.95c-3.72-.32-6.5 6.23.46 10 2.06 1.12 2.73-1.11 4.86 0 2.6 1.3 5.79 9.36 13 5.56 3.35-1.76 3.06-6.62 2.44-10.39q-3.27-18.85-6.49-37.74c-.25-3.31-2.48-4.35-2.14-1.96z"/><path fill="#aa6d2a" d="M276.54 159.16c-14.5-.41-26.63 11.15-30.5 14.52s-5.79-4.36-2.88-7.79 23.71-13.56 28.57-13 4.81 6.27 4.81 6.27zm28.99-6.78c-8.24 1-10.16 11.15 0 9.2s32 3.4 33.77 6.31 7.79-1.45 1-6.31-26.49-10.03-34.77-9.2z"/><path fill="#eca96b" d="M268.2 232.31A2.75 2.75 0 0 0 267 236a2.61 2.61 0 0 0 .17.28c1.77 2.76 23.23 11.25 25 7 1.54-3.59-4.38 6.18-23.97-10.97z"/><path fill="#280415" d="M276.64 193.45c-1.66-5.19-6.34-10.62-11.87-10.73-8.21-.15-15 3.72-15.17 12.42 1.77-8.23 7.64-10 15-10.16 5.51 0 10.68 4.94 12.42 10.16a9.86 9.86 0 0 0-.38-1.69zm31.74-2.08a10.28 10.28 0 0 0-.25 1.74c1.74-5.19 6.44-10.23 11.94-10.15 7.36 0 11.93 2.26 14.19 9.84-.31-8.23-6.13-12.26-14.34-12.1-5.69.02-9.87 5.35-11.54 10.67z"/><path fill="#eca96b" d="M356.42 392.46s-5.82 3.37-2.91 11.61 27.09 19.85 29.95 28 31.45-6.78 16.44-13-30.47-26.07-36.78-28.53-6.7 1.92-6.7 1.92zM213.36 165.73a8 8 0 0 1 8 2.81 12 12 0 0 1 2.59 8.39c-.18 3.22-1.32 6.47-.62 9.61a25.7 25.7 0 0 0 3 6.13 8.78 8.78 0 0 1 1.3 6.52 3.07 3.07 0 0 1-2 2.26 1.76 1.76 0 0 1-2.19-1.19 1.37 1.37 0 0 1-.07-.34c0-1.07 1.17-1.72 1.72-2.6a4.08 4.08 0 0 0-1.17-4.57 25.18 25.18 0 0 1-3.64-3.51c-3.22-4.91 2.6-12.13-.44-17.12a5.51 5.51 0 0 0-9.43 5.71 5.58 5.58 0 0 0 1.14 1.33c-4.14-3.48-4.08-11.89 1.81-13.43zm157.84-6.83a5.47 5.47 0 0 0-5.2-.67 12.26 12.26 0 0 0-4.49 3.06c-4.78 4.57-8.52 11.33-6.58 17.64a17.06 17.06 0 0 1 1.67 6 12.28 12.28 0 0 1-1.72 4.6 6 6 0 0 0-.65 4.75c.65 1.54 3 2.32 4 1 1.41-1.79-1.27-4.34-.72-6.57.39-1.56 2.2-2.31 2.91-3.77s-.32-3.92-1.41-5.63-2.15-3.93-1.09-5.64a10.9 10.9 0 0 0 4.55 3.82 10.7 10.7 0 0 1-1-13 6.17 6.17 0 0 1 5.5-3.07 5.85 5.85 0 0 1 4.52 5.67 17.11 17.11 0 0 1-2.15 7.61c2.32-3.3 6.01-12.39 1.86-15.8z"/><rect width="90.03" height="63.41" x="300.25" y="339.7" fill="#393a3c" rx="5.82"/><path fill="#959599" d="M300.33 353.26c-2.18-15.59 3.41-13.56 8.78-14.05h72.48c5.37 0 10.7-1 8.78 14.05-3.41-10.18-3.12-10.57-8.78-10.18H309c-5.45-.34-6.33-.47-8.67 10.18z"/><rect width="56.14" height="109.86" x="238.3" y="325.18" fill="#393a3c" rx="5.82"/><path fill="#393a3c" d="M291.06 355.18h13.07v18.39h-13.07z"/><circle cx="265.89" cy="357.13" r="21.14" fill="#959599" transform="rotate(-80.78 265.904 357.133)"/><circle cx="265.89" cy="357.13" r="18.55" fill="#393a3c" transform="rotate(-80.78 265.904 357.133)"/><path fill="#04adbf" d="M265.65 373a12 12 0 0 0 11.3-7.25c-3.32 2.39-17.79 3.07-23.25-.83 1.8 5.74 7.95 7.95 11.95 8.08z"/><ellipse cx="257.72" cy="349.46" fill="#fff" rx="6.29" ry="4.1" transform="rotate(-49.71 257.715 349.46)"/><ellipse cx="269.24" cy="354.04" fill="#fff" rx="3.27" ry="2.65"/><circle cx="284.64" cy="423.55" r="5.2" fill="#959599"/><circle cx="284.64" cy="423.55" r="3.69" fill="#c94337"/><ellipse cx="261.29" cy="192.8" fill="#fff" rx="2.18" ry="2.65"/><path fill="#fed8b5" d="M248 311.62c-4.81 1.45-3.87 3.4-6.78 5.82 6.29-8.7 2.42-14 2.42-14s-3.41-6.81-8.24-1-8 6.52-11.61 11.15c-6.78 8.7-12.57 11.27-14 18.39s0 18.88-2.91 30.49c-2.1 8.45-3.37 16-3.37 16s1 24.18-.5 32.42S156 436 156 436c-20.81 3.87-38.24 17.43-41.14 18.86-11.3 5.81-11.3 36.8-10.86 43.14 0 .21.07 1.85.11 2.05h64.19c19.31-14.08 33.32-39.33 33.32-39.33a184.37 184.37 0 0 1 17.33-15c7.35-.46 20.34-15 20.34-15s3.37-27.1 1-34.37-.5-25.17-.5-25.17 0-25.64-.46-32.92c1.92 0 5.79-4.85 10.15-10.65s3.34-17.45-1.48-15.99z"/><path fill="#eca96b" d="M244 310.55c-6.29 8.71-21.46 13.75-22.47 24.79-.6 6.62 1.25 11.35-1.51 17.92-1.14 2.6-3.27 4-3.89 7s.83 6.6.75 9.85c5.87-10.39 5.45-22.16 7-32.79 1.43-9.75 19.64-16.92 20.12-26.77zm-38.07 78.25c4 6.62 0 17.69-5.37 28.34 2.91-8.24 2.88-24.19 3.94-31.18a9.18 9.18 0 0 1 2.21 7.54"/><path fill="#393a3c" d="M240.25 366.79s-40.19-7.79-42.6-1.92-1.93 21.3.49 24.68 42.11 2.45 42.11 2.45z"/><path fill="#fed8b5" d="M482.34 500c.25-.74 5.81-7.15 6-8 .08 0 5.55-21.16-2.69-38.1s-40.16-6.78-46.94-15-9.69-43.56-17.89-49.88S412 369 405.2 368.27c-5.64-.65-15.59-4.33-21.77-4.33s-18.88 12.57-27.59 13.53c0 5.32 1 6.78 8.24 8.23s15-5.81 15-5.81a152.59 152.59 0 0 0 17.43 4.85l4.36 9.2s-31 15-32.44 19.35c-1.32 3.94-1.8 9.45 4.53 13.33a243.65 243.65 0 0 1 33.16-20.86c-1.79 6.28-12.81 10-18.18 13.61-4.65 3.13-8.37 6-13.12 8.25l.39.19c-3.25 2.32-5 12.15.73 15.57.22-.4.3-.5 0 0l.15.09c9.24-10.86 21.76-17.63 34.42-23.45-.65 6-9.72 7.79-14.31 10.91-5.67 3.9-14 12.65-20.52 14.48-2.16 4-2.62 8.59 2.93 12.4 6.31 4.34 9.59 10.4 14.52 8.24 3.58-1.56 8.07-3.92 10.26-5.09-.91-7.71-11.23-7-16.18-5.28 6-6.73 12.47-2.29 14.24-11.48a20.73 20.73 0 0 1 .43-3.71 26.42 26.42 0 0 1-.43 3.71c-.11 7.42 5.65 8.47 14.2 8.5-4.05 1.09-8.67.47-13 1.71a6.84 6.84 0 0 1 2.19 6 28.34 28.34 0 0 0 5.68 8c3.41 2.9 5.77 1.16 8.73 1.94 6.61 1.73 13.57 21.28 21.24 29.59z"/><path fill="#eca96b" d="M406.11 405.76A243.65 243.65 0 0 0 373 426.62a17.85 17.85 0 0 0 1.86 1c4.75-2.27 8.47-5.12 13.12-8.25 5.32-3.64 16.34-7.37 18.13-13.61zm-30.18 37.62l-.05.09.05-.09zM410.5 420c-12.66 5.82-25.18 12.59-34.42 23.45.19.1.36.22.57.32-.35.52-.68 1.07-1 1.62 6.52-1.83 14.85-10.58 20.52-14.48 4.61-3.1 13.68-4.91 14.33-10.91zm-9.06 24.2a26.42 26.42 0 0 0 .43-3.71 20.73 20.73 0 0 0-.43 3.71zm1.21 10.21c4.32-1.24 8.94-.62 13-1.71-8.55 0-14.31-1.08-14.2-8.5-1.77 9.19-8.21 4.75-14.24 11.48 4.95-1.76 15.27-2.43 16.18 5.28l1.35-.73a2 2 0 0 0 .11.2 6.84 6.84 0 0 0-2.2-6.02z"/></svg>