<svg role="img" aria-hidden="true" xmlns="http://www.w3.org/2000/svg" viewBox="0 0 500 500" focusable="false"><path d="M80 0h340c44.15 0 80 35.85 80 80v420H80c-44.15 0-80-35.85-80-80V80C0 35.85 35.85 0 80 0z" fill="#0082a3"/><path d="M420 0H80C35.82 0 0 35.82 0 80v340c0 44.18 35.82 80 80 80h75.89L437.61 1.97" fill="#fff" opacity=".13"/><path d="M46.1 337.3v34.9c21.6-.9 38.5-8 52.8-22.5s27.4-38 39.9-72.9l92.6-248h-44.8L112 236 75 119.8H34l54.4 139.8a57.539 57.539 0 0 1 0 41.8c-5.5 14.2-15.4 30.9-42.3 35.9z" fill="#fff" opacity=".3"/><path d="M174.14 208.75c2.88 4.34 8.74 6.19 13.11 5.1 1.82 4 .36 7.65-14.2 12.74 4.59 1.19 18.57 7.65 26.94.73 1.66-6.54-1.73-7.83-1.27-14.56.05-.73 1.63-9.19 1.27-9.83-.45-.82-9.38-14.58-9.83-8.74-.73 9.47-9.47 16.02-16.02 14.56z" fill="#28201d"/><path d="M103.52 470.52c-5.76-1.55-11.2-5.16-15.29-1.24-5.82 5.59-4.44 12.17-5.18 16.29-.23 1.29-.4 2.72.32 3.81.52.8 1.4 1.26 2.18 1.8 3.08 2.13 4.46 4.8 5.82 8.82h60.03c-1.55-6.95-4.1-13.74-6.64-20.41a453.634 453.634 0 0 1-41.23-9.07z" fill="#ce806e"/><path d="M145.47 481.5c-1.77-.11-3.53-.27-5.28-.46-18.3-1.98-36.06-6.14-54.1-9.21-2.76 4.12-2.61 8.48-2.84 11.85 8.81 7.06 22.2 13.26 35.2 16.31h28.02c1.6-.62 3.06-1.38 4.36-2.32-1.4-5.48-3.34-10.87-5.35-16.17z" fill="#af6351"/><path d="M340.52 244.06c36.14 9.81 42.23 32.77 88.1 36.41-6.95 36.36-.93 61.62-5.82 64.8-14.56 9.47-50.97-14.2-56.79 20.39-12.11-34.02-38.21-80.14-66.99-101.94-2.58-1.96-13.08-7.77-13.83-10.92-1.24-5.2 32.36-14.97 55.34-8.74z" fill="#a4b6c1"/><path d="M301.2 244.79c-10.59-6.84-101.84 7.63-111.4 12.74-11.81 6.32-52.71 38.11-55.48 50.76-20.83 95.12 45.96 122.75 54.41 191.7h196.63c-.71-39.54-8.6-85.72-17.18-145.26-2.91-29.85-9.47-72.81-66.99-109.95z" fill="#34653b"/><path d="M197.24 211.78c.51 13.28-1.07 26.69-4.49 39.53-.63 2.37-1.33 4.83-.85 7.23.39 1.97 1.54 3.68 2.69 5.33 22.46 32.33 52.64 59.26 87.31 77.92-7.91-12.54-8.35-28.24-8.11-43.07.35-21.65 1.64-43.28 3.86-64.82-.21 2.04-39.48-18.37-42.67-20.6-13.57-9.45-27-32.1-40.36-41.5-2.96 9.54 2.25 30.24 2.62 39.98z" fill="#ce806e"/><path d="M256.6 278.28c9.83-3.28 8.19-7.1 14.2-13.65.15-.17 2.72 32.05 2.73 32.22.05-1.75.27-4.87.55-8.67.32-10.64.87-21.27 1.64-31.89-.07-2-.24-3.45-.55-4.08-3.49-6.97-26.15-12.08-33.35-15.52-8.04-3.85-16.5-8.06-21.29-15.58-5.82-9.15-5.37-21.99-13.38-29.3-4.47 3.04-7.28 5.69-11.57 6.24.62 4.22 1.22 8.18 1.51 11.39 1.8 3.52 4.47 5.73 10.37 3.31 3.82 39.32 34.4 63.89 49.15 65.53z" fill="#af6351"/><path d="M287.9 425.14v68.59h202.05v-67.92s-203.87-.67-202.05-.67z" fill="#0071bc"/><path d="M279.63 424.56v69.17h79.27v-68.49s-79.9-.68-79.27-.68z" fill="#9ec4d5"/><path fill="#1b1464" d="M282.44 416.96l.59 16.66h212.11v-16.66h-212.7z"/><path fill="#6d699c" d="M272.52 416.96l.23 16.66h92.7v-16.66h-92.93z"/><g fill="#9ec4d5"><path d="M407.57 448.68c-2.08-4.41-1.54-9.85-.03-10.62.24-.12.87-.3 1.45.74.11.19.73.6 1.34 1 .83.55 1.86 1.22 2.82 2.07l-.41.47c-.93-.82-1.94-1.48-2.75-2.02-.9-.59-1.37-.91-1.54-1.21-.13-.23-.39-.6-.62-.49-.98.5-1.79 5.34.31 9.8l-.57.27z"/><path d="M368.62 474.97H368c.09-6.03.87-20.64 6.22-26.26 2.14-2.25 4.25-.97 6.93.64 3.22 1.94 7.62 4.59 14.86 3.49 6.91-1.05 10.9-4.12 13.03-6.51 2.31-2.59 3-4.97 3-5l.1-.35.33.15c.12.06 12.55 5.77 23.63 15.74 6.95 6.25 18.43 7.7 28.55 8.98 8.98 1.13 16.07 2.03 17.65 5.97l-.58.23c-1.45-3.6-8.73-4.52-17.15-5.58-10.21-1.29-21.79-2.75-28.89-9.13-10.03-9.02-21.16-14.53-23.16-15.49-.28.78-1.11 2.74-3 4.87-2.2 2.48-6.31 5.66-13.43 6.74-7.45 1.13-11.98-1.59-15.28-3.57-2.72-1.64-4.37-2.62-6.16-.74-5.34 5.61-5.98 21.19-6.04 25.83z"/><path d="M451.25 485.37c-8.94 0-17.25-1.76-25.07-3.42-6.2-1.31-12.06-2.55-17.86-2.91l-.3 5.07h-42.44l-.17-1.64c-.34-3.25-.49-4.73.13-7.67l.05-.26h.26c.23.02 23.04.87 39.16.33 3.54-.12 8.8.86 14.9 1.99 17.36 3.21 43.59 8.06 63.31-5.79l.22-.15.19.19c1.7 1.75 1.72 2.89.08 5.08l-.09.08c-11.7 6.92-22.43 9.09-32.38 9.09zm-43.51-6.99l.31.02c5.95.33 11.93 1.6 18.27 2.94 16.38 3.47 34.94 7.41 56.94-5.57 1.36-1.83 1.4-2.64.11-4.03-19.91 13.81-46.17 8.96-63.56 5.74-6.07-1.12-11.33-2.08-14.77-1.98-15.2.51-36.33-.22-38.94-.31-.54 2.67-.4 4.04-.07 7.22l.11 1.08h41.29l.31-5.1zm8.175-26.65l4.052-7.13.539.306-4.052 7.13zm7.495 4.77l-.49-.39c1.46-1.82 2.83-4.05 3.78-6.12l.57.26c-.98 2.15-2.35 4.37-3.86 6.25zm8.93 4.58l-.56-.29 2.82-5.41.55.29-2.81 5.41zm6.883 3.37l.757-3.837.618.123-.757 3.835z"/><path d="M394.66 475.2c-2.49-10.8-10.06-18.81-22.52-23.8l.23-.58c12.66 5.07 20.36 13.23 22.9 24.24l-.61.14zm51.12 5.49l-.38-.5c3.13-2.37 5.9-5.17 8.22-8.32.37-.51.74-1.05.77-1.63.06-.99-.82-1.81-1.77-2.54-.69-.53-1.85-1.42-3.01-2.3-1.16-.89-2.32-1.77-3.02-2.3l.38-.49c.69.53 1.85 1.42 3.01 2.3 1.16.89 2.32 1.77 3.02 2.3 1.09.84 2.08 1.79 2.01 3.07-.04.75-.47 1.38-.9 1.96-2.36 3.2-5.17 6.05-8.35 8.45z"/></g><path d="M234.77 239.69c1.08 4.73 1.62 6.64 7.65 10.92-1.82 1.46-4.58 1.64-5.82 2.18 1.82 2.18 4.37 3.28 7.65 3.28.08 1.73-.74 4.05-5.52 3.37 1.23 5.32 18.57 6.83 16.97 25.39 2.28-2.56 4.7-10.59 5.82-13.83 1.64-4.72 1.2-5.78 4.57-9.47s8.37-7.65 10.56-11.65c.05.89-40.34-14.67-45.14-17.11 4.35 3.81 2.28 2.54 3.28 6.92z" fill="#28201d"/><path d="M189.65 237.86c-2.04 13.49-8.12 19.12-9.68 22.22 6.45 25.79 10.32 38.15 38.18 72-1.42-17.01-6.79-45.22 8.88-43.3-10.49-22.05-34.38-21.78-30.68-54.18-1.46-2.55-6.35.93-6.7 3.26z" fill="#e6e6e6"/><path d="M283.72 356.4c11.65-31.52-.88-66.04 1.68-74.34 2-6.47 5.08-11.97 11.43-14.34 2.55 1.46 3.46 17.99 1.41 27.21 3.28.41 6.6-16.49 7.65-26.34.7-6.61-21.15-16.39-30.25-19.3-.53 25.9-2.33 51.78-5.38 77.5-11.66-16.85-24.32-12.33-33.05-22.04-2.79-3.11-9.26-19.12-12.83-20.21-5.02-1.52-8.7 8.97-7.18 14.09 5.25 17.67 48.34 40.14 66.52 57.74z" fill="#e6e6e6"/><path d="M284.18 356.38c-5.46-6.01-49.42-31.67-67.99-52.42 0-10.65.99-15.26 6.01-13.29 6.01 2.37-1.64 19.3 61.98 65.71zm1.09-68.27c-.82-8.87 3.04-14.54 8.02-19.82 4.99-5.3 5.63.36 6.31 4.26.18 1.05 3.12 16.94-1.37 22.12-4.58-2.32-8.25-3.92-12.97-6.55zM187.6 336.5c1.12 13.63 4.53 39.49 1.62 52.86-1.29 5.93-3.25 11.75-6 17.17-2.39 4.71-8.29 9.5-8.52 14.83-.21 4.7 11.87 14.07 19.45 6.88 8.08-7.66 5.68-29.26 5.46-39.32-.33-14.91-7.31-38.27-12.01-52.42z" fill="#a4b6c1"/><path fill="#fff" d="M368.29 343.16l-4.91-27.85-45.88 4.91 3.28 27.85 47.51-4.91z"/><path d="M431.12 272.16c-2.79.39-5.63.98-8.03 2.46-4.72 2.92-6.81 8.62-8.28 13.97a148.648 148.648 0 0 0-5.28 39.13c0 5.5.41 11.35 3.61 15.83 3.75 5.27 10.44 7.43 16.72 8.95 7.56 1.83 15.23 3.2 22.95 4.09 4.6.53 12.83.41 17.3-.77 7.11-1.88 9.26-7.06 12.67-13.58 3.42-6.51 4.86-13.86 5.94-21.14 2.1-14.17 8.19-28.74-4.41-37.37-13.3-9.1-37.23-13.79-53.2-11.58z" fill="#e6e6e6"/><path d="M356.43 384.57c-1.18 0-2.27-.76-2.63-1.95l-26.99-88.38h21.85c1.52 0 2.75 1.23 2.75 2.75s-1.23 2.75-2.75 2.75h-14.41l24.82 81.27a2.76 2.76 0 0 1-2.64 3.56z" fill="#6e6e6d"/><path d="M295.88 384.22c-.29 0-.59-.05-.89-.15-1.44-.49-2.21-1.05-1.72-2.49l29.14-85.48a2.756 2.756 0 0 1 2.6-1.86h23.64c1.52 0 2.75 1.23 2.75 2.75s-1.23 2.75-2.75 2.75h-21.67l-28.5 83.61c-.39 1.14-1.46.86-2.6.86z" fill="#9b9b9b"/><path d="M170.87 100.62c5.39-16.71 25.39-21.34 42.67-24.44 17.29-3.09 35.09-1.09 51.94 3.87 12.87 3.78 20.71 12.21 25.67 20.21 11.94 19.26 2.31 28.54 4.91 37.7 3.14 3.96 7.78 8.72 11.6 19.64 2.29 6.53 1.38 13.49-.27 20.21-1.65 6.72-.75 4.37-1.91 11.19-1.69 9.93-2.04 15.36-1.21 25.4.4 4.86 3.6 15.53 1.49 19.92-4.31 8.94-15.47 11.18-25.39 11.47-9.69.28-22.77-5.87-32.07-8.61-7.15-2.11-14.2-5.19-19.59-10.34-6.86-6.56-10.35-15.77-14.66-24.23-14.94-29.29-55.3-64.37-43.17-101.98z" fill="#ce806e"/><path d="M234.76 154.87c7.7 1.47 9.81-6.48 8.37-11.83-.74 3.12-21.45 2.87-26.58 2 0 0 6.74 7.65 18.2 9.83zm48.6-4.92c2.48-3.14 9.69-7.87 9.1-11.83-5.99 6.45-20.9 3-22.94 3.09 3.87 8.76 11.04 12.28 13.83 8.74zm-14.74 58.44c4.02-.18 11.75.57 14.37-2.48 3.28-3.82-.08-9.87.56-11.55-1.09 2.75-7.01-22.28-46.6-1.26 4.54 4.62 19.66 15.84 31.67 15.29z" fill="#af6351"/><path d="M230.75 133.01c6.24-.93 8.82 2.6 12.38 7.93.91 1.37.52 1.91-.04 2.77-3.97 6.06-19.07 5.34-26.13 1.95-.2-.1-.34-.29-.38-.51s.01-.45.15-.62c1.79-2.19 7.74-10.59 14.02-11.52zm60.79 6.66c.49-.52.63-1.29.35-1.95-2.53-5.99-13.26-15.99-22.15 2.68-.32.67-.18 1.47.45 1.86 8.63 5.4 18.35.6 21.35-2.6z" fill="#e6e6e6"/><path d="M229.82 136.96c-1.74-.02-4.26 1.39-5.03 3.4-.92 2.39.26 5.53 3.1 6.64 3.32 1.29 6.19-.47 7-3.09.92-2.95-.66-6.91-5.07-6.95zm48.84 7.08c-2.4.48-4.22-.96-4.98-2.88-.61-1.55-.53-3.41.5-4.81 2.96-3.87 7.04-1.79 8.46 1.21 1.17 2.48.55 5.58-3.98 6.48zm-69.3-27.97c6.77-9.16 18.95-12.26 30.34-12.38 1.79 3.31 2.44 5.42 3.11 8.83 1.3-3.48 1.59-5.16 1.64-9.69 3.6 7.81 3.23 15.09 1.2 19.51-2.02 2.06-15.08.07-19.81.56-9.74 1.02-15.72 5.98-17.57 15.97-4.38-6.04-3.2-16.99 1.09-22.8zm87.11-7.07c-.29-.89-2.49-3.69-5.81-4.61-2.94-.81-6.89-1.97-10.41-2.07-.2 2.82-1.44 6.67-3.08 9.4-.55.91 1.22-6.71 1.42-9.36-1.85.16-3.5.71-4.69 1.9-1.55 1.55-5.32 14.51-3.46 15.65 1.77 1.09 2.17-1.13 13.2-.82 3.33.09 5.77 1.5 8.65 3.19 2.87 1.69 3.56 5.79 3.23 9.1 5.19-8.46 3.39-14.94.96-22.39z" fill="#28201d"/><path d="M299.47 231.59c-2.55-5.87-6.21-10.77-10.83-16.11-.49 1.34-.6 4.72-1.09 6.01-.88-1.17-2.4-3.92-3.28-5.1-.37 1.71-1.85 4.92-2.22 6.62-1.78-1.27-1.64-3.72-3.43-4.98-.13 1.22-.41 4.79-.55 6.01-1.13-.91-3.24-3.28-4.37-4.19 2.49 4.9 2.84 17.73-3.48 17.64-5.42-.08-9.55-1.31-13.45-5.08-11.53-11.16-1.88-9.06-26.94-16.93-4.88-1.53-.18-14.8.86-16.08 11.82-14.58 34.76 11.35 64.67-10.14 10.92.55 1.33 12.44 7.65 31.13 1.92 5.69-.8 8.53-3.55 11.19zm5.19-21.57c-4.73-18.47 15.56-19.93 2.35-53.65 2.02 11.87 2.2 25.8-4.35 30.9-1.82-8.74-9.24-10.6-13.65-9.02-4.87 1.75-4.47 14.88-37.86 7.2-23.32-5.36-20.84 18.27-28.21 13.47-9.15-5.96-19.64-23.28-18.39-34.13l-6.09-.05c.59-3.48 3.13-6.56 6.43-7.8l-8.65.55c-4.57-12.87 3.44-26.92 2.15-40.52-1.62-16.94-18.28-7.37-17.32-19.25 2.3-28.26 60.1-8.11 60.43-8.03 10.19 2.55 16.38 1.46 19.3.36 8.56-3.21 10.89-36.76-33.12-37.28 28.56 7.66 14.83 19.52 10.19 16.89-10.92-6.19-39.18-10.37-54.34-1.67 6.82-.43 13.73.85 19.95 3.67-20.1 3.47-39.1 16.09-47.46 34.7-15.85 35.32 21.86 70 24.15 70.6 4.26 1.11 9.56-8.01 17.2 2.73 6.68 9.4 13.04 20.97 12.56 32.49-.38 9.3 3.06 20.47 13.23 25.11 9.01 4.11 17.93.51 25.68 6.68 25.27 20.12 37.11 14.95 52.38 9 9.06-3.53 14.2-13.3 13.47-24.23-.33-5.02-8.76-13.88-10.01-18.75z" fill="#28201d"/><path d="M270.09 184.79c3.83.63 15.86 4.34 21.08 1.41 4.58-2.57 2.07-10.53-.87-15.36-10.1-16.61-23.93-17.48-27.24-28.89-4.99-17.19.27-10.12-7.93 16.5-1.9 6.18-7.96 15.09-3.58 21.3 3.84 5.44 12.61 4.06 18.55 5.04z" fill="#ce806e"/><path d="M295.78 175.76c3.15 9.86-1.43 17.55-14.43 13.52-10.56-3.28-18.2-4.38-22.03-3.29-11.74 3.35-10.42-12.28-1.86-15.61 2.73-1.06 6.14-.49 8.04 1.74-10.73-4.69-13.94 13.73-8.36 11.42 7.92-3.28 16.2.11 29.41 2.39 5.04 0 5.92-4.36 4.31-9.07-7.35-21.6-38.8-37.21-23.75-52.15-12.68 18.12 22.19 30.79 28.67 51.06z" fill="#af6351"/><path d="M187.79 202.38c11.89 2.33 10.24 7.79 15.29 6.01 18.57-6.55-13.39-38.75-9.28-33.86-10.47-12.48-26.9-3.88-25.94 7.62.37 4.43 4.96 17.3 19.93 20.23z" fill="#ce806e"/><path d="M195.53 189.82c-.66-.35-1.58 2.9-2.28 3.19-5.46 2.23-7.41-6.25-5.72-8.72.85-1.24 3.67-4.77 2.54-5.75-2.79-2.1-9.96-1.15-12.38 1.37s-1.27 9.74 3.55 15.29c-5.53-1.88-14.11-14.8-3.82-21.21 5.97-3.72 16.26 2.85 16.15 5.99-.07 2.07-2.99 3.38-2.5 5.39.64 2.64 2.88 2.48 3.91 2.73 5.4 1.32 4.4 7.08 1.43 9.29 1.62-3.23.36-6.91-.88-7.56z" fill="#af6351"/><path d="M114.79 328.06c-10.6 12.99-19.77 28.49-19.35 45.24.23 8.97 1.55 17.71 1.57 26.68.03 14.1-7.21 25.67-8.15 39.74-.09 1.34 1.57 4.47 2.42 5.51.64.78 1.62 1.17 2.57 1.52 14.15 5.24 28.62 9.62 43.31 13.09 1.45.34 2.99.68 4.42.22 2.04-.65 10.46-2.44 10.97-4.52 7.39-29.81 30.85-30.71 40.24-52.34 3.26-7.51 4.33-15.82 4.43-24.01.35-27.18-9.95-54.35-28.22-74.47-10.05-11.07-16.27-12.65-27.36-3.52-9.8 8.07-18.83 17.03-26.86 26.87z" fill="#e6e6e6"/><g fill="#a4b6c1"><path d="M151.97 435.3c-.07-.1-.14-.18-.22-.29-13.35-19.22-34.4-7.65-50.1-62.59-.14 13.99-1.77 30.37 17.34 64.78-13.47-7.86-19.32-20.57-21.3-36.04-.3 2.28-.8 4.6-1.41 6.94-1.53 8.8-5.06 16.94-6.67 25.85.37 2.26.84 4.51.44 4.89 18.53 14.04 42.36 10.39 65.52 7.82.07-.15.13-.31.2-.47l-4.56-6.99c.26-1.22.52-2.54.76-3.9z"/><path d="M161.57 373.4c-3.71-7.95-9.26-14.91-13.27-22.71-4.02-7.8-6.44-17.11-3.36-25.33-8.4 7.21-8.36 20.23-5.78 31 3.02 12.59 8.51 24.44 12.61 36.72 3.71 11.1 2.49 29.44.2 42.22-.24 1.36-.5 2.68-.76 3.9l4.56 6.99c.8-1.78 1.68-3.43 2.61-4.97.09-9.24 2.91-18.38 5.83-27.61 4.15-13.11 3.19-27.76-2.63-40.21z"/></g><path d="M77.02 467.72c.32 1.48.71 2.98 1.6 4.2 1.05 1.45 2.68 2.35 4.27 3.18 20.37 10.6 43.32 16.21 66.29 16.2 2.43 0 5.07-.14 6.92-1.72 1.41-1.2 2.09-3.02 2.68-4.77 3.12-9.3 5.12-18.98 5.93-28.76.36-4.36-2.72-15.65-6.94-14.49-.91 4.58-2.37 7.13-8.19 6.55-20.21-2-45.33-8.37-56.25-18.57-.09.89-2.73-6.55-1.09-10.38-14.69-2.34-17.14 39.7-15.21 48.54z" fill="#e6e6e6"/><path d="M348.14 315.84c.25 4.67 8.73 5.98 11.87 6.71 3.14.73 6.42.85 9.48 1.84 2.52.81 4.84 3.85 6.75 5.67 1.54 1.47 2.91 3.29 4.92 4.01 3.2 1.14 6.91-1.25 7.95-4.49 1.05-3.23-.1-6.85-2.15-9.56-2.05-2.71-4.89-4.69-7.68-6.62-1.62.68-16.4-23.94-18.12-24.28-10.59-2.1-13.83 11.5-13.02 26.72z" fill="#af6351"/><path d="M487.05 292.21c-10.52-2.32-22.94-4.73-33.31-7.65-8.25-2.32-3.43-5.79-17.75-7.65-5.11-.66-17.91-8.27-22.8-9.28-2.28-.47-5.73-5.05-12.01-3-4.23 1.38-6.97-3.83-10.65-4.37-3.93-.57-5.32 2-7.76 1.8-2.06-.16-6.19-5.62-11.48-5.9-3.9-.21-4.12 4.89-5.6 5.05-1.79.2-4.05-3.15-8.74-2.05-2.48.58-4.34 3.93-5.6 6.14-6.75 11.91-9.33 13.21-13.6 20.05-1.97 3.15 1.93 10.1 3.22 13.59 3.15 8.55 4.47 14.2 13.84 11.26.77 6.02 4.35 7.55 9.1 8.21 5.65.78 7.28-1.26 8.46-5.87-1.12 3.49 1.04 7.97 4.91 8.46 5.74.74 13.48-.94 14.61-5.32 1.77 1.37 9.01 3.55 10.51 3.14 2-.54 3.87-3.23 10.36-5.89 5.46-2.23-.14-7.99.98-11.48 12.79-.14 22.36 22.82 30.18 32.95 8.73 11.31 21.05 18.41 35.33 18.78 7.25.19 14.75-3.53 20.74-6.16v-50.49c-3.61-1.78-7.88-3.22-12.95-4.34z" fill="#ce806e"/><path d="M498.36 345.75c-47.9 18.45-56.93-54.33-84.61-44.42.02 1.67 3.64-2.62 12.88 7.78 11.2 12.85 13.36 25.55 28.56 36.29 20.36 13.97 34.37 6.4 44.81 1.8v-1.99c-.52.17-1.06.34-1.64.54zm-77.66-59.77c-.27 3.09.41 6.37-3.82 9.37-.97.69-2.99.08-3.82-.96-.88-1.09 2.34-.9 3.1-1.6 1.74-1.6 4.33-4.29 4.55-6.82zm-16.07-10.33c-3.72.31-7.27 1.13-8.63 1.95-3.35 2.01-13.48 36-3.79 38.19.11-.15-7.95-3.24 4.34-35.46 1.05-2.76 3.69-3.55 8.09-4.68zm-25.98 2.09c2.84-5.93 6.28-5.87 8.33-6.28 1.37-.27-4.8.42-7.06 2.39-8.1 7.03-8.47 33.84-8.37 40.34 1.77-11.33 2.69-27.22 7.1-36.45zm-23.75 16.24c.23-1.64-.52-1.18-3.41-2.87.77-.73 2.5-1.34 3.43-1.84.75-.41 8.72-16.45 1.53-21.9 2.14.81 5.43 2.04 6.66 6-3.78 11.45-7.3 24.35-8.62 36.31-1.16-5.09-.24-11.01.41-15.7z" fill="#af6351"/><path d="M414.56 293.85c0-3.96-1.5-5.73-4.64-8.74 6.01 7.65-4.64 25.8-8.46 29.35 3.14-2.18 6.95-3.36 7.65-8.33 4.91 3-.68 9.01-3.96 10.79 15.29-5.32 8.46-7.78 9.56-10.92 14.74 6.01 24.3-5.6 25.67-10.79-7.65 5.73-22.64-.29-25.8-1.37z" fill="#af6351"/><path d="M464.88 385.22c-1.11 0-2.17-.68-2.58-1.79l-31.22-83.69h-15.11c-1.52 0 1.46-1.1 1.46-2.62s-2.98-2.89-1.46-2.89h17.02c1.15 0 2.18.71 2.58 1.79l31.89 85.48a2.75 2.75 0 0 1-2.58 3.71z" fill="#6e6e6d"/><path d="M398.83 384.57c-.29 0-.59-.05-.88-.14a2.763 2.763 0 0 1-1.73-3.49l27.43-81.2-11-.02c.97-1.12 1.6-3.12 1.77-5.6l13.06.11c.89 0 1.72.43 2.24 1.15.52.72.66 1.65.37 2.48l-28.65 84.83a2.753 2.753 0 0 1-2.61 1.87z" fill="#9b9b9b"/><path d="M499.06 493.73h-14.74v-17.28H500v-3.12h-15.68v-20H500v-3.12h-15.68v-20H500v-3.12h-15.68v-20l15.68-.22v-2.65h-15.68v-19.05H500v-6.36H232.15l28.84 121.17h239.02v-11.34l-.94 5.1zm-203.19-66.65l-3.66-20h18.67l3.66 20h-18.67zm19.24 3.12l3.66 20H300.1l-3.66-20h18.67zm-22.41-3.12h-21.79l-3.66-20h21.79l3.66 20zm.57 3.12l3.66 20h-21.79l-3.66-20h21.79zm4.23 23.12l3.66 20h-21.79l-3.66-20h21.79zm3.17 0h18.67l3.66 20h-18.67l-3.66-20zm21.84 0h18.67l3.66 20h-18.67l-3.66-20zm-.57-3.12l-3.66-20h18.67l3.66 20h-18.67zm-4.23-23.12l-3.66-20h18.67l3.66 20h-18.67zm10.96-42.12l3.47 18.99h-18.67L310 384.96h18.67zm-21.84 0l3.47 18.99h-18.67l-3.47-18.99h18.67zm-21.84 0l3.47 18.99h-21.79l-3.47-18.99h21.79zm-44.95 0h19.99l3.47 18.99h-18.95l-4.52-18.99zm5.26 22.11h18.78l3.66 20h-17.68l-4.76-20zm5.5 23.12h17.51l3.66 20h-16.41l-4.76-20zm5.5 23.12h16.24l3.66 20h-15.14l-4.76-20zm9.61 40.41l-4.11-17.28h14.97l3.16 17.28h-14.02zm17.19 0l-3.16-17.28h21.79l3.16 17.28H283.1zm40.47-17.28l3.16 17.28h-18.67l-3.16-17.28m25 17.28l-3.16-17.28h18.67l3.16 17.28H329.9zm25.76 0h-2.27l-3.16-17.28h5.43v17.28zm0-20.4h-6l-3.66-20h9.66v20zm0-23.12h-10.23l-3.66-20h13.89v20zm0-23.12H341.2l-3.66-20h18.12v20zm0-23.12h-18.69l-3.47-18.99h22.16v18.99zm20.92 89.77h-17.8v-17.28h17.8v17.28zm0-20.4h-17.8v-20h17.8v20zm0-23.12h-17.8v-20h17.8v20zm0-23.12h-17.8v-20h17.8v20zm0-23.12h-17.8v-18.99h17.8v18.99zm20.92 89.77h-17.8v-17.28h17.8v17.28zm0-20.4h-17.8v-20h17.8v20zm0-23.12h-17.8v-20h17.8v20zm0-23.12h-17.8v-20h17.8v20zm0-23.12h-17.8v-18.99h17.8v18.99zm20.92 89.77h-17.8v-17.28h17.8v17.28zm0-20.4h-17.8v-20h17.8v20zm0-23.12h-17.8v-20h17.8v20zm0-23.12h-17.8v-20h17.8v20zm0-23.12h-17.8V385h17.8v18.99zm20.92 89.77h-17.8v-17.28h17.8v17.28zm0-20.4h-17.8v-20h17.8v20zm0-23.12h-17.8v-20h17.8v20zm0-23.12h-17.8v-20h17.8v20zm0-23.12h-17.8v-18.99h17.8V404zm20.92 89.77h-17.8v-17.28h17.8v17.28zm0-20.4h-17.8v-20h17.8v20zm0-23.12h-17.8v-20h17.8v20zm0-23.12h-17.8v-20h17.8v20zm0-23.12h-17.8v-18.99h17.8v18.99zm20.92 89.77h-17.8V476.5h17.8v17.28zm0-20.4h-17.8v-20h17.8v20zm0-23.12h-17.8v-20h17.8v20zm0-23.12h-17.8v-20h17.8v20zm0-23.12h-17.8v-18.99h17.8v18.99z" fill="#6c2548"/><circle cx="225.47" cy="139.94" r="2.18" fill="#fff"/><circle cx="274.62" cy="137.39" r="1.82" fill="#fff"/><path d="M486.43 290.71l-.99-.47.59.92c2.57 4 5.73 8.92 6.03 14.25-5.3-7.84-12.95-14.15-21.67-17.83l-.99-.42.61.88c2 2.91 3.48 6.23 4.32 9.68a44.65 44.65 0 0 0-15.99-12.62l-1.32-.62.96 1.11c1.6 1.85 2.51 4.23 2.59 6.66a29.796 29.796 0 0 0-7.55-8.46l-.38.5c3.25 2.47 5.99 5.67 7.94 9.25l.51.94.08-1.06c.19-2.53-.5-5.08-1.91-7.17a44.12 44.12 0 0 1 15.43 12.96l.82 1.1-.26-1.34a30.25 30.25 0 0 0-4.13-10.38c8.53 3.83 15.96 10.21 21.01 18.07l.56.87.02-1.03c.1-5.5-2.88-10.55-5.54-14.72 4.87 2.48 9.26 5.98 12.83 10.15v-.94c-3.79-4.28-8.44-7.83-13.57-10.26z" fill="#28201d"/></svg>