<svg xmlns="http://www.w3.org/2000/svg" viewBox="0 0 20 20" role="img" aria-hidden="true" focusable="false"><defs><style>.cls-1{fill:#444}</style></defs><path class="cls-1" d="M13.56 0H7a3.5 3.5 0 0 0-3.34 3.4v13.16A3.41 3.41 0 0 0 7.06 20h6.5A3.41 3.41 0 0 0 17 16.56V3.4A3.51 3.51 0 0 0 13.56 0zm1.9 16.08a2.37 2.37 0 0 1-2.35 2.37H7.52a2.37 2.37 0 0 1-2.35-2.37V3.86a2.37 2.37 0 0 1 2.35-2.37h5.59a2.37 2.37 0 0 1 2.35 2.37z"/><circle class="cls-1" cx="10.31" cy="9.98" r="2.15"/><circle class="cls-1" cx="10.31" cy="4.69" r="2.15"/><circle class="cls-1" cx="10.31" cy="15.31" r="2.15"/></svg>