<svg xmlns="http://www.w3.org/2000/svg" viewBox="0 0 91.1143 88.9999"><path d="M82.1749,37.5266l1.6119-1.6119c.9486-.9487-6.37-5.9309-7.0492-6.3782a45.1516,45.1516,0,0,0-5.7766-3.3241c-.2468-.1157-.6016-.3008-.9872-.4782q1.7816-1.8972,3.5863-3.7713c.9486-.98-6.3628-5.9232-7.0492-6.3705A44.1579,44.1579,0,0,0,60.75,12.2606l-.293-.1465,1.3959-1.5425c.9409-1.0489-6.3319-5.9-7.0492-6.37A44.212,44.212,0,0,0,49.0422.8616c-.54-.2467-2.3137-1.2648-2.8458-.6864Q32.7381,15.1682,18.1154,29.066c-7.8436,7.45-16.5663,15.5791-18.1088,26.87-.1157.8253,1.3265,1.9744,1.743,2.3138a40.799,40.799,0,0,0,5.3139,4.0567,44.2174,44.2174,0,0,0,5.7611,3.34c.64.2931,2.175,1.2031,2.8459.6864l2.0747-1.5579c1.45,1.8587,5.9694,4.72,6.6712,5.175l1.4885.9564C24.401,72.7647,22.92,74.6311,21.47,76.5283c-.91,1.1878,6.2625,5.8615,7.0492,6.37a44.1633,44.1633,0,0,0,5.7611,3.3318c.6016.2776,2.2289,1.234,2.8459.6941l9.255-8.098c.8252,2.5682,14.5687,11.63,15.6716,9.9721L91.06,45.3624C91.692,44.4138,86.7252,40.3262,82.1749,37.5266Z"/></svg>