<svg xmlns="http://www.w3.org/2000/svg" width="203" height="44" fill="none"><rect width="44" height="44" fill="#357B49" rx="6"/><path fill="#fff" fill-rule="evenodd" d="m29.746 28.31-6.392-16.797c-.152-.397-.305-.672-.789-.675-.673 0-1.408.611-1.746 1.316l-7.378 16.154c-.072.16-.143.311-.214.454-.5.995-1.045 1.546-2.357 1.626a.399.399 0 0 0-.16.033l-.01.004a.399.399 0 0 0-.23.392v.01c0 .054.01.106.03.155l.004.01a.416.416 0 0 0 .394.252h6.212a.417.417 0 0 0 .307-.12.416.416 0 0 0 .124-.305.398.398 0 0 0-.105-.302.399.399 0 0 0-.294-.127c-.757 0-2.197-.062-2.197-1.164.02-.318.103-.63.245-.916l1.399-3.152c.52-1.163 1.654-1.163 2.572-1.163h5.843c.023 0 .044 0 .062.003.13.014.16.081.214.242l1.534 4.07a2.857 2.857 0 0 1 .216 1.04c0 .054-.003.104-.01.153-.09.726-.831.887-1.49.887a.4.4 0 0 0-.294.127l-.007.008-.007.008a.401.401 0 0 0-.092.286v.01c0 .054.01.106.03.155l.005.01a.42.42 0 0 0 .395.252h7.011a.413.413 0 0 0 .279-.13.412.412 0 0 0 .11-.297.387.387 0 0 0-.09-.294.388.388 0 0 0-.277-.135c-1.448-.122-2.295-.643-2.847-2.08Zm-11.985-5.844 2.847-6.304c.361-.728.659-1.486.889-2.265 0-.06.03-.092.06-.092s.061.032.061.091c.02.122.045.247.073.374.197.888.584 1.878.914 2.723l.176.453 1.684 4.529a.927.927 0 0 1 .092.4.473.473 0 0 1-.009.094c-.041.202-.228.272-.602.272h-6.063c-.122 0-.184-.03-.184-.092a.36.36 0 0 1 .062-.183Zm17.107-.721c0 .786-.446 1.231-1.25 1.231-.806 0-1.125-.409-1.125-1.034 0-.786.465-1.231 1.25-1.231.785 0 1.125.427 1.125 1.034ZM9.629 23.002c.803 0 1.25-.447 1.25-1.231 0-.607-.343-1.036-1.128-1.036-.785 0-1.25.447-1.25 1.231 0 .625.325 1.036 1.128 1.036Z" clip-rule="evenodd"/><path fill="#000" fill-rule="evenodd" d="M94.37 14.539c0-1.24-1.166-1.633-2.95-1.633a1.225 1.225 0 0 1-.103-.424.674.674 0 0 1 .186-.432.738.738 0 0 1 .432-.22 9.943 9.943 0 0 0 2.984-1.209c.085-.056.166-.114.244-.17.332-.237.63-.45 1.133-.45a.857.857 0 0 1 .436.095c.133.069.243.172.319.297l-.514 14.527c0 .065 0 .098.034.098.02 0 .028-.011.045-.033a.51.51 0 0 1 .058-.065l4.796-4.037.033-.028c.593-.502.824-.698.824-1.082 0-.457-.309-.882-1.509-.882a.456.456 0 0 1-.329-.134.416.416 0 0 1-.117-.323c0-.293.172-.424.48-.424h7.271a.465.465 0 0 1 .34.11.42.42 0 0 1 .141.314.41.41 0 0 1-.017.167.419.419 0 0 1-.225.249.45.45 0 0 1-.17.041c-1.715.229-3.43 1.176-4.664 2.155l-4.574 3.722 4.151 4.08c.162.162.326.329.493.498.641.653 1.317 1.341 2.079 1.885a4.931 4.931 0 0 0 2.915 1.045c.234 0 .423-.02.587-.04.125-.013.235-.025.339-.025.24 0 .24.196.24.294a.56.56 0 0 1-.171.424 3.94 3.94 0 0 1-.755.588c-.7.32-1.469.484-2.246.478a4.728 4.728 0 0 1-2.778-.848 12.042 12.042 0 0 1-2.093-2.024l-5.047-5.583a.515.515 0 0 1-.058-.065c-.017-.022-.025-.033-.045-.033-.034 0-.034.033-.034.098l-.172 4.8c0 1.436.995 2.176 2.504 2.415a.528.528 0 0 1 .319.166c.082.09.127.205.127.324a.406.406 0 0 1-.142.313.45.45 0 0 1-.338.11h-7.677a.477.477 0 0 1-.335-.115.438.438 0 0 1-.145-.308.454.454 0 0 1 .119-.33.5.5 0 0 1 .326-.16c1.715-.229 2.676-.751 2.71-2.22l.543-15.996Zm-19.929-1.894 7.168 17.923c.618 1.534 1.578 2.09 3.19 2.22a.452.452 0 0 1 .31.144.408.408 0 0 1 .102.313.421.421 0 0 1-.123.317.461.461 0 0 1-.323.14H76.91a.489.489 0 0 1-.343-.13.444.444 0 0 1-.138-.327.403.403 0 0 1 .113-.319.442.442 0 0 1 .322-.138c.789 0 1.68-.196 1.68-1.11a2.933 2.933 0 0 0-.24-1.11l-1.714-4.353c-.069-.196-.103-.272-.31-.272h-6.539c-1.029 0-2.286 0-2.88 1.24l-1.578 3.385a2.49 2.49 0 0 0-.286.98c0 1.174 1.612 1.24 2.47 1.24a.462.462 0 0 1 .328.134.417.417 0 0 1 .117.323.426.426 0 0 1-.137.326.47.47 0 0 1-.343.13h-6.951a.489.489 0 0 1-.343-.13.445.445 0 0 1-.137-.326.4.4 0 0 1 .116-.323.442.442 0 0 1 .33-.134c1.68-.098 2.23-.85 2.88-2.22l8.266-17.237c.378-.75 1.2-1.404 1.956-1.404.548 0 .72.294.891.718Zm-6.288 11.698c-.068.131-.068.164-.068.196 0 .033.068.098.206.098h6.802c.48 0 .686-.098.686-.392a.967.967 0 0 0-.103-.424L73.79 18.98l-.21-.514c-.42-1.024-.918-2.244-1.094-3.273 0-.066-.034-.098-.068-.098-.035 0-.069.033-.069.098a14.374 14.374 0 0 1-.995 2.426l-3.2 6.725Zm43.783-3.863c1.784 0 2.675.425 2.675 1.665l-.274 7.215c-.069 1.991-.377 3.101-2.778 3.395a.471.471 0 0 0-.312.164.428.428 0 0 0-.1.326.405.405 0 0 0 .273.396.45.45 0 0 0 .173.028h7.683a.463.463 0 0 0 .347-.112.42.42 0 0 0 .139-.323.453.453 0 0 0-.12-.33.5.5 0 0 0-.326-.16c-2.229-.326-2.435-1.632-2.435-3.428l.406-11.284a.697.697 0 0 0-.301-.335.745.745 0 0 0-.454-.09c-.47 0-.784.227-1.103.457a8.534 8.534 0 0 1-2.978 1.372.73.73 0 0 0-.434.22.667.667 0 0 0-.184.433.753.753 0 0 0 .103.391Zm3.842-6.692c1.269 0 2.023-.686 2.023-1.86 0-.98-.549-1.6-1.84-1.6-1.247 0-2.001.652-2.001 1.86 0 .98.549 1.6 1.818 1.6Zm17.939 6.431c0 .324-.04.887-.07 1.314-.018.262-.033.473-.033.547a.335.335 0 0 1-.105.197.366.366 0 0 1-.437.042.34.34 0 0 1-.144-.174c-.412-2.09-2.229-3.068-3.979-3.068-1.749 0-3.144.816-3.144 2.448 0 1.443 1.824 2.198 3.219 2.774.182.076.357.148.52.218.229.105.459.207.686.309 1.614.716 3.133 1.391 3.704 2.793.17.435.251.896.24 1.36a4.153 4.153 0 0 1-.309 1.6c-.926 2.252-3.715 3.395-6.379 3.395-3.944 0-4.63-1.175-4.63-3.787v-.827a.256.256 0 0 1 .093-.23.298.298 0 0 1 .25-.064c.286 0 .343.13.343.163.754 2.024 2.949 3.265 5.007 3.265 1.646 0 3.121-.816 3.121-2.35 0-1.744-1.337-2.306-2.797-2.918-.289-.121-.583-.245-.873-.38a50.215 50.215 0 0 0-.817-.369c-1.347-.598-2.654-1.178-3.367-2.21a3.501 3.501 0 0 1-.492-1.752 3.778 3.778 0 0 1 .378-1.6c.897-1.838 3.292-3.297 6.276-3.297s3.739.904 3.739 2.601Zm25.716 1.894c0-.947-.137-2.057-.823-2.971-.681-.882-1.778-1.524-3.527-1.524-2.916 0-5.111 1.85-6.174 4.527-.034.066-.069.098-.103.098-.034 0-.069-.032-.069-.13l.343-3.95a.78.78 0 0 0-.326-.328.84.84 0 0 0-.462-.097c-.488 0-.783.228-1.127.494l-.211.159c-.921.543-1.929.94-2.984 1.175a.77.77 0 0 0-.435.24.705.705 0 0 0-.182.446.93.93 0 0 0 .103.392c1.817 0 2.984.391 2.984 1.665l-.241 7.05c-.068 1.992-.377 3.102-2.743 3.396a.482.482 0 0 0-.36.139.432.432 0 0 0-.121.35.443.443 0 0 0 .162.318.473.473 0 0 0 .353.107h7.648a.447.447 0 0 0 .345-.105.4.4 0 0 0 .136-.32.448.448 0 0 0-.263-.445.5.5 0 0 0-.183-.044c-2.23-.326-2.47-1.6-2.47-3.395l.137-3.428c.115-2.775 1.441-6.007 4.974-6.007 2.812 0 3.258 2.318 3.258 4.538l-.172 4.897c-.068 1.959-.377 3.101-2.778 3.395a.461.461 0 0 0-.319.158.415.415 0 0 0-.092.332.396.396 0 0 0 .126.304.436.436 0 0 0 .32.12h7.682a.463.463 0 0 0 .335-.107.423.423 0 0 0 .145-.306.433.433 0 0 0-.113-.336.487.487 0 0 0-.332-.154c-2.184-.327-2.47-1.567-2.47-3.395l.137-3.559c.115-2.774 1.475-5.876 4.974-5.876 2.812 0 3.224 2.318 3.224 4.538l-.172 4.897c-.069 1.959-.343 3.101-2.744 3.395a.475.475 0 0 0-.34.148.414.414 0 0 0-.106.341.405.405 0 0 0 .141.315.446.446 0 0 0 .339.11h7.649a.473.473 0 0 0 .358-.102.44.44 0 0 0 .114-.145.407.407 0 0 0 .042-.177.466.466 0 0 0-.133-.34.498.498 0 0 0-.347-.15c-2.183-.327-2.469-1.567-2.469-3.395l.24-6.464c0-2.383-.72-5.289-4.527-5.289-2.984 0-5.248 1.948-6.18 4.527-.034.066-.068.098-.103.098-.034 0-.068-.032-.068-.13Zm29.023-.196c0 .587-.138 1.665-.789 2.024-2.092 1.11-6.763 1.567-10.049 1.567-.138 0-.172.065-.172.163.005.8.144 1.593.412 2.35.857 2.318 2.858 3.537 5.247 3.537a6.696 6.696 0 0 0 2.829-.63 6.369 6.369 0 0 0 2.247-1.753.491.491 0 0 1 .168-.188.53.53 0 0 1 .244-.084.453.453 0 0 1 .328.098.4.4 0 0 1 .152.294.449.449 0 0 1-.069.196c-1.406 3.036-4.253 4.505-6.956 4.505-4.573-.033-6.757-3.69-6.757-7.215 0-4.08 2.858-9.173 8.197-9.173 2.875.01 4.968 1.991 4.968 4.309Zm-10.701 1.088c-.07.226-.127.454-.172.686a5.136 5.136 0 0 0-.108.674.147.147 0 0 0 .057.099.164.164 0 0 0 .114.032c2.675 0 8.163-.914 8.163-1.763a3.297 3.297 0 0 0-1.061-2.3 3.638 3.638 0 0 0-2.437-.965c-2.361 0-3.939 1.665-4.551 3.526l-.005.011Zm16.011-2.981c.24 0 .309.065.309.228l-.315 9.5c0 1.143.143 2.35 1.029 3.2.374.352.822.628 1.314.808.492.18 1.018.26 1.544.236 2.47 0 4.39-1.306 5.214-3.102a.94.94 0 0 0 .137-.359.297.297 0 0 0-.093-.238.329.329 0 0 0-.25-.088.312.312 0 0 0-.24.098c-1.166 1.11-2.287 1.567-3.43 1.567a2.779 2.779 0 0 1-1.088-.19 2.664 2.664 0 0 1-.913-.594c-.651-.652-.651-1.6-.651-2.415l.314-8.662 5.316-.49a.682.682 0 0 0 .368-.227.63.63 0 0 0 .147-.393.645.645 0 0 0-.117-.35.687.687 0 0 0-.295-.238h-5.145c-.205 0-.24-.098-.24-.228l.137-3.809c0-.327-.274-.457-.651-.457a.688.688 0 0 0-.413.086.634.634 0 0 0-.273.306c-.686 2.71-1.818 4.113-4.047 4.864a.469.469 0 0 0-.225.166.434.434 0 0 0-.084.258.47.47 0 0 0 .062.31.51.51 0 0 0 .247.213h2.332ZM87.553 23.565c0 .838-.5 1.314-1.4 1.314-.9 0-1.26-.438-1.26-1.104 0-.838.52-1.314 1.4-1.314.88 0 1.26.457 1.26 1.104Zm51.386 1.314c.901 0 1.401-.476 1.401-1.314 0-.647-.38-1.104-1.261-1.104-.88 0-1.4.476-1.4 1.314 0 .666.36 1.104 1.26 1.104Z" clip-rule="evenodd"/></svg>